%TF.GenerationSoftware,KiCad,Pcbnew,9.0.6*%
%TF.CreationDate,2025-11-24T11:08:07+01:00*%
%TF.ProjectId,ccc_macropad,6363635f-6d61-4637-926f-7061642e6b69,rev?*%
%TF.SameCoordinates,Original*%
%TF.FileFunction,Copper,L1,Top*%
%TF.FilePolarity,Positive*%
%FSLAX46Y46*%
G04 Gerber Fmt 4.6, Leading zero omitted, Abs format (unit mm)*
G04 Created by KiCad (PCBNEW 9.0.6) date 2025-11-24 11:08:07*
%MOMM*%
%LPD*%
G01*
G04 APERTURE LIST*
G04 Aperture macros list*
%AMRoundRect*
0 Rectangle with rounded corners*
0 $1 Rounding radius*
0 $2 $3 $4 $5 $6 $7 $8 $9 X,Y pos of 4 corners*
0 Add a 4 corners polygon primitive as box body*
4,1,4,$2,$3,$4,$5,$6,$7,$8,$9,$2,$3,0*
0 Add four circle primitives for the rounded corners*
1,1,$1+$1,$2,$3*
1,1,$1+$1,$4,$5*
1,1,$1+$1,$6,$7*
1,1,$1+$1,$8,$9*
0 Add four rect primitives between the rounded corners*
20,1,$1+$1,$2,$3,$4,$5,0*
20,1,$1+$1,$4,$5,$6,$7,0*
20,1,$1+$1,$6,$7,$8,$9,0*
20,1,$1+$1,$8,$9,$2,$3,0*%
G04 Aperture macros list end*
%TA.AperFunction,ComponentPad*%
%ADD10R,1.800000X1.800000*%
%TD*%
%TA.AperFunction,ComponentPad*%
%ADD11C,1.800000*%
%TD*%
%TA.AperFunction,ComponentPad*%
%ADD12C,2.286000*%
%TD*%
%TA.AperFunction,ComponentPad*%
%ADD13C,2.032000*%
%TD*%
%TA.AperFunction,ComponentPad*%
%ADD14C,1.400000*%
%TD*%
%TA.AperFunction,ComponentPad*%
%ADD15RoundRect,0.250000X-0.450000X-0.750000X0.450000X-0.750000X0.450000X0.750000X-0.450000X0.750000X0*%
%TD*%
%TA.AperFunction,ComponentPad*%
%ADD16C,1.600000*%
%TD*%
%TA.AperFunction,ComponentPad*%
%ADD17C,2.000000*%
%TD*%
%TA.AperFunction,ComponentPad*%
%ADD18C,4.000000*%
%TD*%
%TA.AperFunction,ComponentPad*%
%ADD19R,1.600000X1.600000*%
%TD*%
%TA.AperFunction,ComponentPad*%
%ADD20O,1.600000X1.600000*%
%TD*%
%TA.AperFunction,SMDPad,CuDef*%
%ADD21R,3.500000X1.700000*%
%TD*%
%TA.AperFunction,ComponentPad*%
%ADD22C,1.700000*%
%TD*%
%TA.AperFunction,SMDPad,CuDef*%
%ADD23R,1.700000X3.500000*%
%TD*%
%TA.AperFunction,ViaPad*%
%ADD24C,0.600000*%
%TD*%
%TA.AperFunction,Conductor*%
%ADD25C,0.400000*%
%TD*%
%TA.AperFunction,Conductor*%
%ADD26C,0.127000*%
%TD*%
G04 APERTURE END LIST*
D10*
%TO.P,D8,1,K*%
%TO.N,GND*%
X146500000Y-40730000D03*
D11*
%TO.P,D8,2,A*%
%TO.N,Net-(D8-A)*%
X146500000Y-43270000D03*
%TD*%
D12*
%TO.P,SW1,1,1*%
%TO.N,Net-(U1-GP6)*%
X122030000Y-64320000D03*
D13*
X124490000Y-65600000D03*
D12*
%TO.P,SW1,2,2*%
%TO.N,Net-(D7-A)*%
X115680000Y-66860000D03*
D13*
X119490000Y-63500000D03*
%TD*%
D12*
%TO.P,SW5,1,1*%
%TO.N,Net-(U1-GP5)*%
X182040000Y-64920000D03*
D13*
X184500000Y-66200000D03*
D12*
%TO.P,SW5,2,2*%
%TO.N,Net-(D2-A)*%
X175690000Y-67460000D03*
D13*
X179500000Y-64100000D03*
%TD*%
D14*
%TO.P,SW3,1,C*%
%TO.N,Net-(SW3-C)*%
X116950000Y-40550000D03*
%TO.P,SW3,2,B*%
%TO.N,Net-(SW3-B)*%
X118950000Y-40550000D03*
%TO.P,SW3,3,A*%
%TO.N,GND*%
X120950000Y-40550000D03*
D15*
%TO.P,SW3,MH*%
%TO.N,N/C*%
X114650000Y-40550000D03*
X123250000Y-40550000D03*
%TD*%
D14*
%TO.P,R2,1*%
%TO.N,Net-(D8-A)*%
X179050000Y-45080000D03*
%TO.P,R2,2*%
%TO.N,Net-(U1-GP27)*%
X179050000Y-40000000D03*
%TD*%
D16*
%TO.P,C1,1*%
%TO.N,Net-(U1-GP29)*%
X108000000Y-49000000D03*
%TO.P,C1,2*%
%TO.N,GND*%
X108000000Y-54000000D03*
%TD*%
D14*
%TO.P,R3,1*%
%TO.N,Net-(D9-A)*%
X183100000Y-45080000D03*
%TO.P,R3,2*%
%TO.N,Net-(U1-GP28)*%
X183100000Y-40000000D03*
%TD*%
D12*
%TO.P,SW4,1,1*%
%TO.N,Net-(U1-GP6)*%
X162036667Y-64720000D03*
D13*
X164496667Y-66000000D03*
D12*
%TO.P,SW4,2,2*%
%TO.N,Net-(D1-A)*%
X155686667Y-67260000D03*
D13*
X159496667Y-63900000D03*
%TD*%
D17*
%TO.P,RV1,1,1*%
%TO.N,GND*%
X114560000Y-51625000D03*
%TO.P,RV1,1'*%
%TO.N,N/C*%
X114560000Y-56625000D03*
%TO.P,RV1,2,2*%
%TO.N,Net-(U1-GP29)*%
X114560000Y-49125000D03*
%TO.P,RV1,2'*%
%TO.N,N/C*%
X114560000Y-54125000D03*
%TO.P,RV1,3,3*%
%TO.N,Net-(U1-3V3)*%
X185560000Y-51625000D03*
%TO.P,RV1,3'*%
%TO.N,N/C*%
X185560000Y-56625000D03*
D18*
%TO.P,RV1,MP*%
X124560000Y-52875000D03*
X173560000Y-52875000D03*
%TD*%
D19*
%TO.P,D2,1,K*%
%TO.N,Net-(D1-K)*%
X165500000Y-39920000D03*
D20*
%TO.P,D2,2,A*%
%TO.N,Net-(D2-A)*%
X165500000Y-45000000D03*
%TD*%
D21*
%TO.P,U1,1,5V*%
%TO.N,unconnected-(U1-5V-Pad1)_1*%
X191360000Y-40380000D03*
D22*
%TO.N,unconnected-(U1-5V-Pad1)*%
X192260000Y-40380000D03*
D21*
%TO.P,U1,2,GND*%
%TO.N,GND*%
X191360000Y-42920000D03*
D22*
X192260000Y-42920000D03*
D21*
%TO.P,U1,3,3V3*%
%TO.N,Net-(U1-3V3)*%
X191360000Y-45460000D03*
D22*
X192260000Y-45460000D03*
D21*
%TO.P,U1,4,GP29*%
%TO.N,Net-(U1-GP29)*%
X191360000Y-48000000D03*
D22*
X192260000Y-48000000D03*
D21*
%TO.P,U1,5,GP28*%
%TO.N,Net-(U1-GP28)*%
X191360000Y-50540000D03*
D22*
X192260000Y-50540000D03*
D21*
%TO.P,U1,6,GP27*%
%TO.N,Net-(U1-GP27)*%
X191410000Y-53080000D03*
D22*
X192260000Y-53080000D03*
D21*
%TO.P,U1,7,GP26*%
%TO.N,Net-(U1-GP26)*%
X191410000Y-55620000D03*
D22*
X192260000Y-55620000D03*
D21*
%TO.P,U1,8,GP15*%
%TO.N,unconnected-(U1-GP15-Pad8)_1*%
X191410000Y-58160000D03*
D22*
%TO.N,unconnected-(U1-GP15-Pad8)*%
X192260000Y-58160000D03*
D21*
%TO.P,U1,9,GP14*%
%TO.N,unconnected-(U1-GP14-Pad9)_1*%
X191410000Y-60700000D03*
D22*
%TO.N,unconnected-(U1-GP14-Pad9)*%
X192260000Y-60700000D03*
%TO.P,U1,10,GP0*%
%TO.N,Net-(SW3-B)*%
X207500000Y-40380000D03*
D21*
X208400000Y-40380000D03*
D22*
%TO.P,U1,11,GP1*%
%TO.N,unconnected-(U1-GP1-Pad11)*%
X207500000Y-42920000D03*
D21*
%TO.N,unconnected-(U1-GP1-Pad11)_1*%
X208400000Y-42920000D03*
D22*
%TO.P,U1,12,GP2*%
%TO.N,unconnected-(U1-GP2-Pad12)_1*%
X207500000Y-45460000D03*
D21*
%TO.N,unconnected-(U1-GP2-Pad12)*%
X208400000Y-45460000D03*
D22*
%TO.P,U1,13,GP3*%
%TO.N,unconnected-(U1-GP3-Pad13)*%
X207500000Y-48000000D03*
D21*
%TO.N,unconnected-(U1-GP3-Pad13)_1*%
X208400000Y-48000000D03*
D22*
%TO.P,U1,14,GP4*%
%TO.N,unconnected-(U1-GP4-Pad14)*%
X207500000Y-50540000D03*
D21*
%TO.N,unconnected-(U1-GP4-Pad14)_1*%
X208400000Y-50540000D03*
D22*
%TO.P,U1,15,GP5*%
%TO.N,Net-(U1-GP5)*%
X207500000Y-53080000D03*
D21*
X208400000Y-53080000D03*
D22*
%TO.P,U1,16,GP6*%
%TO.N,Net-(U1-GP6)*%
X207500000Y-55620000D03*
D21*
X208400000Y-55620000D03*
D22*
%TO.P,U1,17,GP7*%
%TO.N,Net-(D1-K)*%
X207500000Y-58160000D03*
D21*
X208400000Y-58160000D03*
D22*
%TO.P,U1,18,GP8*%
%TO.N,Net-(D3-K)*%
X207500000Y-60700000D03*
D21*
X208400000Y-60700000D03*
D22*
%TO.P,U1,19,GP13*%
%TO.N,unconnected-(U1-GP13-Pad19)_1*%
X194800000Y-60700000D03*
D23*
%TO.N,unconnected-(U1-GP13-Pad19)*%
X194800000Y-61600000D03*
D22*
%TO.P,U1,20,GP12*%
%TO.N,unconnected-(U1-GP12-Pad20)*%
X197340000Y-60700000D03*
D23*
%TO.N,unconnected-(U1-GP12-Pad20)_1*%
X197340000Y-61550000D03*
D22*
%TO.P,U1,21,GP11*%
%TO.N,unconnected-(U1-GP11-Pad21)*%
X199880000Y-60700000D03*
D23*
%TO.N,unconnected-(U1-GP11-Pad21)_1*%
X199880000Y-61550000D03*
D22*
%TO.P,U1,22,GP10*%
%TO.N,unconnected-(U1-GP10-Pad22)_1*%
X202420000Y-60700000D03*
D23*
%TO.N,unconnected-(U1-GP10-Pad22)*%
X202420000Y-61550000D03*
D22*
%TO.P,U1,23,GP9*%
%TO.N,unconnected-(U1-GP9-Pad23)*%
X204960000Y-60700000D03*
D23*
%TO.N,unconnected-(U1-GP9-Pad23)_1*%
X204960000Y-61550000D03*
%TD*%
D10*
%TO.P,D9,1,K*%
%TO.N,GND*%
X139365000Y-40730000D03*
D11*
%TO.P,D9,2,A*%
%TO.N,Net-(D9-A)*%
X139365000Y-43270000D03*
%TD*%
D14*
%TO.P,R1,1*%
%TO.N,Net-(D6-A)*%
X175000000Y-45080000D03*
%TO.P,R1,2*%
%TO.N,Net-(U1-GP26)*%
X175000000Y-40000000D03*
%TD*%
%TO.P,R4,1*%
%TO.N,Net-(SW3-C)*%
X171000000Y-45040000D03*
%TO.P,R4,2*%
%TO.N,Net-(U1-3V3)*%
X171000000Y-39960000D03*
%TD*%
D10*
%TO.P,D6,1,K*%
%TO.N,GND*%
X132230000Y-40730000D03*
D11*
%TO.P,D6,2,A*%
%TO.N,Net-(D6-A)*%
X132230000Y-43270000D03*
%TD*%
D19*
%TO.P,D1,1,K*%
%TO.N,Net-(D1-K)*%
X161500000Y-39920000D03*
D20*
%TO.P,D1,2,A*%
%TO.N,Net-(D1-A)*%
X161500000Y-45000000D03*
%TD*%
D12*
%TO.P,SW2,1,1*%
%TO.N,Net-(U1-GP5)*%
X142033333Y-64520000D03*
D13*
X144493333Y-65800000D03*
D12*
%TO.P,SW2,2,2*%
%TO.N,Net-(D3-A)*%
X135683333Y-67060000D03*
D13*
X139493333Y-63700000D03*
%TD*%
D19*
%TO.P,D3,1,K*%
%TO.N,Net-(D3-K)*%
X157500000Y-39920000D03*
D20*
%TO.P,D3,2,A*%
%TO.N,Net-(D3-A)*%
X157500000Y-45000000D03*
%TD*%
D19*
%TO.P,D7,1,K*%
%TO.N,Net-(D3-K)*%
X153500000Y-39920000D03*
D20*
%TO.P,D7,2,A*%
%TO.N,Net-(D7-A)*%
X153500000Y-45000000D03*
%TD*%
D24*
%TO.N,GND*%
X188750000Y-40250000D03*
X209250000Y-65750000D03*
X206750000Y-80000000D03*
X154900000Y-52400000D03*
X181250000Y-49750000D03*
%TO.N,Net-(SW3-B)*%
X129500000Y-51000000D03*
%TD*%
D25*
%TO.N,Net-(D6-A)*%
X170000000Y-44000000D02*
X166000000Y-48000000D01*
X166000000Y-48000000D02*
X136960000Y-48000000D01*
X136960000Y-48000000D02*
X132230000Y-43270000D01*
X173920000Y-44000000D02*
X170000000Y-44000000D01*
X175000000Y-45080000D02*
X173920000Y-44000000D01*
D26*
%TO.N,GND*%
X144770000Y-40730000D02*
X144250000Y-41250000D01*
X146500000Y-40730000D02*
X144770000Y-40730000D01*
D25*
X154800000Y-52300000D02*
X154900000Y-52400000D01*
%TO.N,Net-(D8-A)*%
X146500000Y-43270000D02*
X146770000Y-43000000D01*
X176970000Y-43000000D02*
X179050000Y-45080000D01*
X146770000Y-43000000D02*
X176970000Y-43000000D01*
%TO.N,Net-(D9-A)*%
X142500000Y-42000000D02*
X141230000Y-43270000D01*
X143750000Y-38750000D02*
X142500000Y-40000000D01*
X141230000Y-43270000D02*
X139365000Y-43270000D01*
X142500000Y-40000000D02*
X142500000Y-42000000D01*
X183100000Y-45080000D02*
X179520000Y-41500000D01*
X179520000Y-41500000D02*
X151500000Y-41500000D01*
X148750000Y-38750000D02*
X143750000Y-38750000D01*
X151500000Y-41500000D02*
X148750000Y-38750000D01*
%TO.N,Net-(SW3-C)*%
X167040000Y-49000000D02*
X171000000Y-45040000D01*
X123500000Y-49000000D02*
X167040000Y-49000000D01*
X117000000Y-42500000D02*
X123500000Y-49000000D01*
X117000000Y-40500000D02*
X117000000Y-42500000D01*
%TO.N,Net-(SW3-B)*%
X178000000Y-56500000D02*
X186750000Y-65250000D01*
X205250000Y-65250000D02*
X206250000Y-64250000D01*
X186750000Y-65250000D02*
X205250000Y-65250000D01*
X206250000Y-41630000D02*
X207500000Y-40380000D01*
X206250000Y-64250000D02*
X206250000Y-41630000D01*
X135000000Y-56500000D02*
X178000000Y-56500000D01*
X129500000Y-51000000D02*
X135000000Y-56500000D01*
%TO.N,Net-(U1-3V3)*%
X187500000Y-44000000D02*
X188960000Y-45460000D01*
X171000000Y-39960000D02*
X172259000Y-38701000D01*
X188960000Y-45460000D02*
X191360000Y-45460000D01*
X184500000Y-38701000D02*
X187500000Y-41701000D01*
X192260000Y-45460000D02*
X189460000Y-45460000D01*
X172259000Y-38701000D02*
X184500000Y-38701000D01*
X187500000Y-41701000D02*
X187500000Y-44000000D01*
%TO.N,Net-(U1-GP29)*%
X114685000Y-49000000D02*
X122126648Y-49000000D01*
X114560000Y-49125000D02*
X114685000Y-49000000D01*
X123126648Y-50000000D02*
X167500000Y-50000000D01*
X167500000Y-50000000D02*
X169500000Y-48000000D01*
X108000000Y-49000000D02*
X114435000Y-49000000D01*
X114435000Y-49000000D02*
X114560000Y-49125000D01*
X122126648Y-49000000D02*
X123126648Y-50000000D01*
X169500000Y-48000000D02*
X191360000Y-48000000D01*
%TO.N,Net-(U1-GP5)*%
X184500000Y-66200000D02*
X206800000Y-66200000D01*
X145053333Y-61500000D02*
X180500000Y-61500000D01*
X180500000Y-61500000D02*
X182040000Y-63040000D01*
X209580000Y-53080000D02*
X208400000Y-53080000D01*
X142033333Y-64520000D02*
X145053333Y-61500000D01*
X210500000Y-62500000D02*
X210500000Y-54000000D01*
X206800000Y-66200000D02*
X210500000Y-62500000D01*
X182040000Y-63040000D02*
X182040000Y-64920000D01*
X210500000Y-54000000D02*
X209580000Y-53080000D01*
%TD*%
%TA.AperFunction,Conductor*%
%TO.N,GND*%
G36*
X142776520Y-38520185D02*
G01*
X142822275Y-38572989D01*
X142832219Y-38642147D01*
X142803194Y-38705703D01*
X142797162Y-38712181D01*
X141955888Y-39553453D01*
X141955884Y-39553458D01*
X141932868Y-39587906D01*
X141916721Y-39612072D01*
X141912872Y-39617833D01*
X141879223Y-39668191D01*
X141826421Y-39795667D01*
X141826418Y-39795677D01*
X141799500Y-39931004D01*
X141799500Y-41658481D01*
X141779815Y-41725520D01*
X141763181Y-41746162D01*
X140976162Y-42533181D01*
X140949234Y-42547884D01*
X140923416Y-42564477D01*
X140917215Y-42565368D01*
X140914839Y-42566666D01*
X140888481Y-42569500D01*
X140650351Y-42569500D01*
X140583312Y-42549815D01*
X140550035Y-42518388D01*
X140433242Y-42357635D01*
X140382682Y-42307075D01*
X140349198Y-42245753D01*
X140354182Y-42176061D01*
X140396054Y-42120128D01*
X140427031Y-42103213D01*
X140507086Y-42073354D01*
X140507093Y-42073350D01*
X140622187Y-41987190D01*
X140622190Y-41987187D01*
X140708350Y-41872093D01*
X140708354Y-41872086D01*
X140758596Y-41737379D01*
X140758598Y-41737372D01*
X140764999Y-41677844D01*
X140765000Y-41677827D01*
X140765000Y-40980000D01*
X139740278Y-40980000D01*
X139784333Y-40903694D01*
X139815000Y-40789244D01*
X139815000Y-40670756D01*
X139784333Y-40556306D01*
X139740278Y-40480000D01*
X140765000Y-40480000D01*
X140765000Y-39782172D01*
X140764999Y-39782155D01*
X140758598Y-39722627D01*
X140758596Y-39722620D01*
X140708354Y-39587913D01*
X140708350Y-39587906D01*
X140622190Y-39472812D01*
X140622187Y-39472809D01*
X140507093Y-39386649D01*
X140507086Y-39386645D01*
X140372379Y-39336403D01*
X140372372Y-39336401D01*
X140312844Y-39330000D01*
X139615000Y-39330000D01*
X139615000Y-40354722D01*
X139538694Y-40310667D01*
X139424244Y-40280000D01*
X139305756Y-40280000D01*
X139191306Y-40310667D01*
X139115000Y-40354722D01*
X139115000Y-39330000D01*
X138417155Y-39330000D01*
X138357627Y-39336401D01*
X138357620Y-39336403D01*
X138222913Y-39386645D01*
X138222906Y-39386649D01*
X138107812Y-39472809D01*
X138107809Y-39472812D01*
X138021649Y-39587906D01*
X138021645Y-39587913D01*
X137971403Y-39722620D01*
X137971401Y-39722627D01*
X137965000Y-39782155D01*
X137965000Y-40480000D01*
X138989722Y-40480000D01*
X138945667Y-40556306D01*
X138915000Y-40670756D01*
X138915000Y-40789244D01*
X138945667Y-40903694D01*
X138989722Y-40980000D01*
X137965000Y-40980000D01*
X137965000Y-41677844D01*
X137971401Y-41737372D01*
X137971403Y-41737379D01*
X138021645Y-41872086D01*
X138021649Y-41872093D01*
X138107809Y-41987187D01*
X138107812Y-41987190D01*
X138222906Y-42073350D01*
X138222913Y-42073354D01*
X138302968Y-42103213D01*
X138358902Y-42145084D01*
X138383319Y-42210549D01*
X138368467Y-42278822D01*
X138347317Y-42307075D01*
X138296756Y-42357636D01*
X138296752Y-42357641D01*
X138167187Y-42535974D01*
X138067104Y-42732393D01*
X138067103Y-42732396D01*
X137998985Y-42942047D01*
X137964500Y-43159778D01*
X137964500Y-43380221D01*
X137998985Y-43597952D01*
X138067103Y-43807603D01*
X138067104Y-43807606D01*
X138117088Y-43905703D01*
X138148552Y-43967454D01*
X138167187Y-44004025D01*
X138296752Y-44182358D01*
X138296756Y-44182363D01*
X138452636Y-44338243D01*
X138452641Y-44338247D01*
X138601699Y-44446543D01*
X138630978Y-44467815D01*
X138759375Y-44533237D01*
X138827393Y-44567895D01*
X138827396Y-44567896D01*
X138932221Y-44601955D01*
X139037049Y-44636015D01*
X139254778Y-44670500D01*
X139254779Y-44670500D01*
X139475221Y-44670500D01*
X139475222Y-44670500D01*
X139692951Y-44636015D01*
X139902606Y-44567895D01*
X140099022Y-44467815D01*
X140277365Y-44338242D01*
X140433242Y-44182365D01*
X140550034Y-44021613D01*
X140605362Y-43978949D01*
X140650351Y-43970500D01*
X141298996Y-43970500D01*
X141390040Y-43952389D01*
X141434328Y-43943580D01*
X141517667Y-43909060D01*
X141561807Y-43890777D01*
X141561808Y-43890776D01*
X141561811Y-43890775D01*
X141676543Y-43814114D01*
X143044114Y-42446543D01*
X143120775Y-42331811D01*
X143173580Y-42204329D01*
X143180512Y-42169479D01*
X143199633Y-42073354D01*
X143200500Y-42068995D01*
X143200500Y-40341519D01*
X143220185Y-40274480D01*
X143236819Y-40253838D01*
X144003838Y-39486819D01*
X144065161Y-39453334D01*
X144091519Y-39450500D01*
X145029304Y-39450500D01*
X145096343Y-39470185D01*
X145142098Y-39522989D01*
X145152042Y-39592147D01*
X145145486Y-39617833D01*
X145106403Y-39722619D01*
X145106401Y-39722627D01*
X145100000Y-39782155D01*
X145100000Y-40480000D01*
X146124722Y-40480000D01*
X146080667Y-40556306D01*
X146050000Y-40670756D01*
X146050000Y-40789244D01*
X146080667Y-40903694D01*
X146124722Y-40980000D01*
X145100000Y-40980000D01*
X145100000Y-41677844D01*
X145106401Y-41737372D01*
X145106403Y-41737379D01*
X145156645Y-41872086D01*
X145156649Y-41872093D01*
X145242809Y-41987187D01*
X145242812Y-41987190D01*
X145357906Y-42073350D01*
X145357913Y-42073354D01*
X145437968Y-42103213D01*
X145493902Y-42145084D01*
X145518319Y-42210549D01*
X145503467Y-42278822D01*
X145482317Y-42307075D01*
X145431756Y-42357636D01*
X145431752Y-42357641D01*
X145302187Y-42535974D01*
X145202104Y-42732393D01*
X145202103Y-42732396D01*
X145133985Y-42942047D01*
X145099500Y-43159778D01*
X145099500Y-43380221D01*
X145133985Y-43597952D01*
X145202103Y-43807603D01*
X145202104Y-43807606D01*
X145252088Y-43905703D01*
X145283552Y-43967454D01*
X145302187Y-44004025D01*
X145431752Y-44182358D01*
X145431756Y-44182363D01*
X145587636Y-44338243D01*
X145587641Y-44338247D01*
X145736699Y-44446543D01*
X145765978Y-44467815D01*
X145894375Y-44533237D01*
X145962393Y-44567895D01*
X145962396Y-44567896D01*
X146067221Y-44601955D01*
X146172049Y-44636015D01*
X146389778Y-44670500D01*
X146389779Y-44670500D01*
X146610221Y-44670500D01*
X146610222Y-44670500D01*
X146827951Y-44636015D01*
X147037606Y-44567895D01*
X147234022Y-44467815D01*
X147412365Y-44338242D01*
X147568242Y-44182365D01*
X147697815Y-44004022D01*
X147797895Y-43807606D01*
X147804855Y-43786183D01*
X147844292Y-43728508D01*
X147908650Y-43701308D01*
X147922787Y-43700500D01*
X152694433Y-43700500D01*
X152761472Y-43720185D01*
X152807227Y-43772989D01*
X152817171Y-43842147D01*
X152788146Y-43905703D01*
X152767318Y-43924819D01*
X152652780Y-44008034D01*
X152508028Y-44152786D01*
X152387715Y-44318386D01*
X152294781Y-44500776D01*
X152231522Y-44695465D01*
X152199500Y-44897648D01*
X152199500Y-45102351D01*
X152231522Y-45304534D01*
X152294781Y-45499223D01*
X152358691Y-45624653D01*
X152381389Y-45669199D01*
X152387715Y-45681613D01*
X152508028Y-45847213D01*
X152652786Y-45991971D01*
X152807749Y-46104556D01*
X152818390Y-46112287D01*
X152934607Y-46171503D01*
X153000776Y-46205218D01*
X153000778Y-46205218D01*
X153000781Y-46205220D01*
X153086245Y-46232989D01*
X153195465Y-46268477D01*
X153271375Y-46280500D01*
X153397648Y-46300500D01*
X153397649Y-46300500D01*
X153602351Y-46300500D01*
X153602352Y-46300500D01*
X153804534Y-46268477D01*
X153999219Y-46205220D01*
X154181610Y-46112287D01*
X154330499Y-46004114D01*
X154347213Y-45991971D01*
X154347215Y-45991968D01*
X154347219Y-45991966D01*
X154491966Y-45847219D01*
X154491968Y-45847215D01*
X154491971Y-45847213D01*
X154544732Y-45774590D01*
X154612287Y-45681610D01*
X154705220Y-45499219D01*
X154768477Y-45304534D01*
X154800500Y-45102352D01*
X154800500Y-44897648D01*
X154784857Y-44798881D01*
X154768477Y-44695465D01*
X154725153Y-44562128D01*
X154705220Y-44500781D01*
X154705218Y-44500778D01*
X154705218Y-44500776D01*
X154670821Y-44433270D01*
X154612287Y-44318390D01*
X154597420Y-44297927D01*
X154491971Y-44152786D01*
X154347219Y-44008034D01*
X154341697Y-44004022D01*
X154232681Y-43924818D01*
X154190016Y-43869489D01*
X154184037Y-43799875D01*
X154216642Y-43738080D01*
X154277481Y-43703723D01*
X154305567Y-43700500D01*
X156694433Y-43700500D01*
X156761472Y-43720185D01*
X156807227Y-43772989D01*
X156817171Y-43842147D01*
X156788146Y-43905703D01*
X156767318Y-43924819D01*
X156652780Y-44008034D01*
X156508028Y-44152786D01*
X156387715Y-44318386D01*
X156294781Y-44500776D01*
X156231522Y-44695465D01*
X156199500Y-44897648D01*
X156199500Y-45102351D01*
X156231522Y-45304534D01*
X156294781Y-45499223D01*
X156358691Y-45624653D01*
X156381389Y-45669199D01*
X156387715Y-45681613D01*
X156508028Y-45847213D01*
X156652786Y-45991971D01*
X156807749Y-46104556D01*
X156818390Y-46112287D01*
X156934607Y-46171503D01*
X157000776Y-46205218D01*
X157000778Y-46205218D01*
X157000781Y-46205220D01*
X157086245Y-46232989D01*
X157195465Y-46268477D01*
X157271375Y-46280500D01*
X157397648Y-46300500D01*
X157397649Y-46300500D01*
X157602351Y-46300500D01*
X157602352Y-46300500D01*
X157804534Y-46268477D01*
X157999219Y-46205220D01*
X158181610Y-46112287D01*
X158330499Y-46004114D01*
X158347213Y-45991971D01*
X158347215Y-45991968D01*
X158347219Y-45991966D01*
X158491966Y-45847219D01*
X158491968Y-45847215D01*
X158491971Y-45847213D01*
X158544732Y-45774590D01*
X158612287Y-45681610D01*
X158705220Y-45499219D01*
X158768477Y-45304534D01*
X158800500Y-45102352D01*
X158800500Y-44897648D01*
X158784857Y-44798881D01*
X158768477Y-44695465D01*
X158725153Y-44562128D01*
X158705220Y-44500781D01*
X158705218Y-44500778D01*
X158705218Y-44500776D01*
X158670821Y-44433270D01*
X158612287Y-44318390D01*
X158597420Y-44297927D01*
X158491971Y-44152786D01*
X158347219Y-44008034D01*
X158341697Y-44004022D01*
X158232681Y-43924818D01*
X158190016Y-43869489D01*
X158184037Y-43799875D01*
X158216642Y-43738080D01*
X158277481Y-43703723D01*
X158305567Y-43700500D01*
X160694433Y-43700500D01*
X160761472Y-43720185D01*
X160807227Y-43772989D01*
X160817171Y-43842147D01*
X160788146Y-43905703D01*
X160767318Y-43924819D01*
X160652780Y-44008034D01*
X160508028Y-44152786D01*
X160387715Y-44318386D01*
X160294781Y-44500776D01*
X160231522Y-44695465D01*
X160199500Y-44897648D01*
X160199500Y-45102351D01*
X160231522Y-45304534D01*
X160294781Y-45499223D01*
X160358691Y-45624653D01*
X160381389Y-45669199D01*
X160387715Y-45681613D01*
X160508028Y-45847213D01*
X160652786Y-45991971D01*
X160807749Y-46104556D01*
X160818390Y-46112287D01*
X160934607Y-46171503D01*
X161000776Y-46205218D01*
X161000778Y-46205218D01*
X161000781Y-46205220D01*
X161086245Y-46232989D01*
X161195465Y-46268477D01*
X161271375Y-46280500D01*
X161397648Y-46300500D01*
X161397649Y-46300500D01*
X161602351Y-46300500D01*
X161602352Y-46300500D01*
X161804534Y-46268477D01*
X161999219Y-46205220D01*
X162181610Y-46112287D01*
X162330499Y-46004114D01*
X162347213Y-45991971D01*
X162347215Y-45991968D01*
X162347219Y-45991966D01*
X162491966Y-45847219D01*
X162491968Y-45847215D01*
X162491971Y-45847213D01*
X162544732Y-45774590D01*
X162612287Y-45681610D01*
X162705220Y-45499219D01*
X162768477Y-45304534D01*
X162800500Y-45102352D01*
X162800500Y-44897648D01*
X162784857Y-44798881D01*
X162768477Y-44695465D01*
X162725153Y-44562128D01*
X162705220Y-44500781D01*
X162705218Y-44500778D01*
X162705218Y-44500776D01*
X162670821Y-44433270D01*
X162612287Y-44318390D01*
X162597420Y-44297927D01*
X162491971Y-44152786D01*
X162347219Y-44008034D01*
X162341697Y-44004022D01*
X162232681Y-43924818D01*
X162190016Y-43869489D01*
X162184037Y-43799875D01*
X162216642Y-43738080D01*
X162277481Y-43703723D01*
X162305567Y-43700500D01*
X164694433Y-43700500D01*
X164761472Y-43720185D01*
X164807227Y-43772989D01*
X164817171Y-43842147D01*
X164788146Y-43905703D01*
X164767318Y-43924819D01*
X164652780Y-44008034D01*
X164508028Y-44152786D01*
X164387715Y-44318386D01*
X164294781Y-44500776D01*
X164231522Y-44695465D01*
X164199500Y-44897648D01*
X164199500Y-45102351D01*
X164231522Y-45304534D01*
X164294781Y-45499223D01*
X164358691Y-45624653D01*
X164381389Y-45669199D01*
X164387715Y-45681613D01*
X164508028Y-45847213D01*
X164652786Y-45991971D01*
X164807749Y-46104556D01*
X164818390Y-46112287D01*
X164934607Y-46171503D01*
X165000776Y-46205218D01*
X165000778Y-46205218D01*
X165000781Y-46205220D01*
X165086245Y-46232989D01*
X165195465Y-46268477D01*
X165271375Y-46280500D01*
X165397648Y-46300500D01*
X165397649Y-46300500D01*
X165602351Y-46300500D01*
X165602352Y-46300500D01*
X165804534Y-46268477D01*
X165999219Y-46205220D01*
X166181610Y-46112287D01*
X166330499Y-46004114D01*
X166347213Y-45991971D01*
X166347215Y-45991968D01*
X166347219Y-45991966D01*
X166491966Y-45847219D01*
X166491968Y-45847215D01*
X166491971Y-45847213D01*
X166544732Y-45774590D01*
X166612287Y-45681610D01*
X166705220Y-45499219D01*
X166768477Y-45304534D01*
X166800500Y-45102352D01*
X166800500Y-44897648D01*
X166784857Y-44798881D01*
X166768477Y-44695465D01*
X166725153Y-44562128D01*
X166705220Y-44500781D01*
X166705218Y-44500778D01*
X166705218Y-44500776D01*
X166670821Y-44433270D01*
X166612287Y-44318390D01*
X166597420Y-44297927D01*
X166491971Y-44152786D01*
X166347219Y-44008034D01*
X166341697Y-44004022D01*
X166232681Y-43924818D01*
X166190016Y-43869489D01*
X166184037Y-43799875D01*
X166216642Y-43738080D01*
X166277481Y-43703723D01*
X166305567Y-43700500D01*
X169009481Y-43700500D01*
X169076520Y-43720185D01*
X169122275Y-43772989D01*
X169132219Y-43842147D01*
X169103194Y-43905703D01*
X169097162Y-43912181D01*
X165746162Y-47263181D01*
X165684839Y-47296666D01*
X165658481Y-47299500D01*
X137301519Y-47299500D01*
X137234480Y-47279815D01*
X137213838Y-47263181D01*
X133634208Y-43683551D01*
X133600723Y-43622228D01*
X133599416Y-43576477D01*
X133630500Y-43380222D01*
X133630500Y-43159778D01*
X133596015Y-42942049D01*
X133538686Y-42765606D01*
X133527896Y-42732396D01*
X133527895Y-42732393D01*
X133451585Y-42582629D01*
X133427815Y-42535978D01*
X133351549Y-42431006D01*
X133298247Y-42357641D01*
X133298243Y-42357636D01*
X133247683Y-42307076D01*
X133214198Y-42245753D01*
X133219182Y-42176061D01*
X133261054Y-42120128D01*
X133292031Y-42103213D01*
X133372086Y-42073354D01*
X133372093Y-42073350D01*
X133487187Y-41987190D01*
X133487190Y-41987187D01*
X133573350Y-41872093D01*
X133573354Y-41872086D01*
X133623596Y-41737379D01*
X133623598Y-41737372D01*
X133629999Y-41677844D01*
X133630000Y-41677827D01*
X133630000Y-40980000D01*
X132605278Y-40980000D01*
X132649333Y-40903694D01*
X132680000Y-40789244D01*
X132680000Y-40670756D01*
X132649333Y-40556306D01*
X132605278Y-40480000D01*
X133630000Y-40480000D01*
X133630000Y-39782172D01*
X133629999Y-39782155D01*
X133623598Y-39722627D01*
X133623596Y-39722620D01*
X133573354Y-39587913D01*
X133573350Y-39587906D01*
X133487190Y-39472812D01*
X133487187Y-39472809D01*
X133372093Y-39386649D01*
X133372086Y-39386645D01*
X133237379Y-39336403D01*
X133237372Y-39336401D01*
X133177844Y-39330000D01*
X132480000Y-39330000D01*
X132480000Y-40354722D01*
X132403694Y-40310667D01*
X132289244Y-40280000D01*
X132170756Y-40280000D01*
X132056306Y-40310667D01*
X131980000Y-40354722D01*
X131980000Y-39330000D01*
X131282155Y-39330000D01*
X131222627Y-39336401D01*
X131222620Y-39336403D01*
X131087913Y-39386645D01*
X131087906Y-39386649D01*
X130972812Y-39472809D01*
X130972809Y-39472812D01*
X130886649Y-39587906D01*
X130886645Y-39587913D01*
X130836403Y-39722620D01*
X130836401Y-39722627D01*
X130830000Y-39782155D01*
X130830000Y-40480000D01*
X131854722Y-40480000D01*
X131810667Y-40556306D01*
X131780000Y-40670756D01*
X131780000Y-40789244D01*
X131810667Y-40903694D01*
X131854722Y-40980000D01*
X130830000Y-40980000D01*
X130830000Y-41677844D01*
X130836401Y-41737372D01*
X130836403Y-41737379D01*
X130886645Y-41872086D01*
X130886649Y-41872093D01*
X130972809Y-41987187D01*
X130972812Y-41987190D01*
X131087906Y-42073350D01*
X131087913Y-42073354D01*
X131167968Y-42103213D01*
X131223902Y-42145084D01*
X131248319Y-42210549D01*
X131233467Y-42278822D01*
X131212317Y-42307075D01*
X131161756Y-42357636D01*
X131161752Y-42357641D01*
X131032187Y-42535974D01*
X130932104Y-42732393D01*
X130932103Y-42732396D01*
X130863985Y-42942047D01*
X130829500Y-43159778D01*
X130829500Y-43380221D01*
X130863985Y-43597952D01*
X130932103Y-43807603D01*
X130932104Y-43807606D01*
X130982088Y-43905703D01*
X131013552Y-43967454D01*
X131032187Y-44004025D01*
X131161752Y-44182358D01*
X131161756Y-44182363D01*
X131317636Y-44338243D01*
X131317641Y-44338247D01*
X131466699Y-44446543D01*
X131495978Y-44467815D01*
X131624375Y-44533237D01*
X131692393Y-44567895D01*
X131692396Y-44567896D01*
X131797221Y-44601955D01*
X131902049Y-44636015D01*
X132119778Y-44670500D01*
X132119779Y-44670500D01*
X132340221Y-44670500D01*
X132340222Y-44670500D01*
X132536475Y-44639416D01*
X132605765Y-44648370D01*
X132643551Y-44674208D01*
X136057162Y-48087819D01*
X136090647Y-48149142D01*
X136085663Y-48218834D01*
X136043791Y-48274767D01*
X135978327Y-48299184D01*
X135969481Y-48299500D01*
X123841519Y-48299500D01*
X123774480Y-48279815D01*
X123753838Y-48263181D01*
X117736819Y-42246162D01*
X117703334Y-42184839D01*
X117700500Y-42158481D01*
X117700500Y-41548625D01*
X117709144Y-41519184D01*
X117715668Y-41489198D01*
X117719422Y-41484182D01*
X117720185Y-41481586D01*
X117736819Y-41460944D01*
X117862319Y-41335444D01*
X117923642Y-41301959D01*
X117993334Y-41306943D01*
X118037681Y-41335444D01*
X118167927Y-41465690D01*
X118320801Y-41576760D01*
X118400347Y-41617290D01*
X118489163Y-41662545D01*
X118489165Y-41662545D01*
X118489168Y-41662547D01*
X118585497Y-41693846D01*
X118668881Y-41720940D01*
X118855514Y-41750500D01*
X118855519Y-41750500D01*
X119044486Y-41750500D01*
X119231118Y-41720940D01*
X119232623Y-41720451D01*
X119410832Y-41662547D01*
X119579199Y-41576760D01*
X119732073Y-41465690D01*
X119865690Y-41332073D01*
X119976760Y-41179199D01*
X119977723Y-41177308D01*
X119978965Y-41175598D01*
X119979304Y-41175046D01*
X119979347Y-41175072D01*
X120000530Y-41145914D01*
X120550000Y-40596445D01*
X120550000Y-40602661D01*
X120577259Y-40704394D01*
X120629920Y-40795606D01*
X120704394Y-40870080D01*
X120795606Y-40922741D01*
X120897339Y-40950000D01*
X120903554Y-40950000D01*
X120295669Y-41557882D01*
X120295670Y-41557883D01*
X120321059Y-41576329D01*
X120489362Y-41662085D01*
X120668997Y-41720451D01*
X120855553Y-41750000D01*
X121044447Y-41750000D01*
X121231002Y-41720451D01*
X121410637Y-41662085D01*
X121578937Y-41576331D01*
X121604328Y-41557883D01*
X121604328Y-41557882D01*
X120996447Y-40950000D01*
X121002661Y-40950000D01*
X121104394Y-40922741D01*
X121195606Y-40870080D01*
X121270080Y-40795606D01*
X121322741Y-40704394D01*
X121350000Y-40602661D01*
X121350000Y-40596446D01*
X121973276Y-41219722D01*
X121984147Y-41222006D01*
X122033904Y-41271056D01*
X122049500Y-41331254D01*
X122049500Y-41349998D01*
X122049501Y-41350019D01*
X122060000Y-41452796D01*
X122060001Y-41452799D01*
X122115185Y-41619331D01*
X122115187Y-41619336D01*
X122134101Y-41650000D01*
X122207288Y-41768656D01*
X122331344Y-41892712D01*
X122480666Y-41984814D01*
X122647203Y-42039999D01*
X122749991Y-42050500D01*
X123750008Y-42050499D01*
X123750016Y-42050498D01*
X123750019Y-42050498D01*
X123806302Y-42044748D01*
X123852797Y-42039999D01*
X124019334Y-41984814D01*
X124168656Y-41892712D01*
X124292712Y-41768656D01*
X124384814Y-41619334D01*
X124439999Y-41452797D01*
X124450500Y-41350009D01*
X124450499Y-39749992D01*
X124439999Y-39647203D01*
X124384814Y-39480666D01*
X124292712Y-39331344D01*
X124168656Y-39207288D01*
X124050474Y-39134393D01*
X124019336Y-39115187D01*
X124019331Y-39115185D01*
X124009946Y-39112075D01*
X123852797Y-39060001D01*
X123852795Y-39060000D01*
X123750010Y-39049500D01*
X122749998Y-39049500D01*
X122749980Y-39049501D01*
X122647203Y-39060000D01*
X122647200Y-39060001D01*
X122480668Y-39115185D01*
X122480663Y-39115187D01*
X122331342Y-39207289D01*
X122207289Y-39331342D01*
X122115187Y-39480663D01*
X122115185Y-39480668D01*
X122101078Y-39523240D01*
X122060001Y-39647203D01*
X122060001Y-39647204D01*
X122060000Y-39647204D01*
X122049500Y-39749983D01*
X122049500Y-39768737D01*
X122029815Y-39835776D01*
X121977011Y-39881531D01*
X121970949Y-39882602D01*
X121350000Y-40503552D01*
X121350000Y-40497339D01*
X121322741Y-40395606D01*
X121270080Y-40304394D01*
X121195606Y-40229920D01*
X121104394Y-40177259D01*
X121002661Y-40150000D01*
X120996447Y-40150000D01*
X121604328Y-39542116D01*
X121578933Y-39523666D01*
X121410637Y-39437914D01*
X121231002Y-39379548D01*
X121044447Y-39350000D01*
X120855553Y-39350000D01*
X120668997Y-39379548D01*
X120489362Y-39437914D01*
X120321060Y-39523669D01*
X120295670Y-39542116D01*
X120295669Y-39542116D01*
X120903554Y-40150000D01*
X120897339Y-40150000D01*
X120795606Y-40177259D01*
X120704394Y-40229920D01*
X120629920Y-40304394D01*
X120577259Y-40395606D01*
X120550000Y-40497339D01*
X120550000Y-40503554D01*
X120000529Y-39954083D01*
X119979343Y-39924922D01*
X119979301Y-39924949D01*
X119978969Y-39924408D01*
X119977725Y-39922695D01*
X119976760Y-39920801D01*
X119976757Y-39920796D01*
X119921878Y-39845263D01*
X119865690Y-39767927D01*
X119732073Y-39634310D01*
X119579199Y-39523240D01*
X119578706Y-39522989D01*
X119410836Y-39437454D01*
X119231118Y-39379059D01*
X119044486Y-39349500D01*
X119044481Y-39349500D01*
X118855519Y-39349500D01*
X118855514Y-39349500D01*
X118668881Y-39379059D01*
X118489163Y-39437454D01*
X118320800Y-39523240D01*
X118242517Y-39580117D01*
X118167927Y-39634310D01*
X118167925Y-39634312D01*
X118167924Y-39634312D01*
X118037681Y-39764556D01*
X117976358Y-39798041D01*
X117906666Y-39793057D01*
X117862319Y-39764556D01*
X117732075Y-39634312D01*
X117732073Y-39634310D01*
X117579199Y-39523240D01*
X117578706Y-39522989D01*
X117410836Y-39437454D01*
X117231118Y-39379059D01*
X117044486Y-39349500D01*
X117044481Y-39349500D01*
X116855519Y-39349500D01*
X116855514Y-39349500D01*
X116668881Y-39379059D01*
X116489163Y-39437454D01*
X116320800Y-39523240D01*
X116167928Y-39634309D01*
X116053718Y-39748519D01*
X115992395Y-39782003D01*
X115922703Y-39777019D01*
X115866770Y-39735147D01*
X115842679Y-39673438D01*
X115839999Y-39647203D01*
X115839998Y-39647200D01*
X115819897Y-39586540D01*
X115784814Y-39480666D01*
X115692712Y-39331344D01*
X115568656Y-39207288D01*
X115450474Y-39134393D01*
X115419336Y-39115187D01*
X115419331Y-39115185D01*
X115409946Y-39112075D01*
X115252797Y-39060001D01*
X115252795Y-39060000D01*
X115150010Y-39049500D01*
X114149998Y-39049500D01*
X114149980Y-39049501D01*
X114047203Y-39060000D01*
X114047200Y-39060001D01*
X113880668Y-39115185D01*
X113880663Y-39115187D01*
X113731342Y-39207289D01*
X113607289Y-39331342D01*
X113515187Y-39480663D01*
X113515185Y-39480668D01*
X113501078Y-39523240D01*
X113460001Y-39647203D01*
X113460001Y-39647204D01*
X113460000Y-39647204D01*
X113449500Y-39749983D01*
X113449500Y-41350001D01*
X113449501Y-41350018D01*
X113460000Y-41452796D01*
X113460001Y-41452799D01*
X113515185Y-41619331D01*
X113515187Y-41619336D01*
X113534101Y-41650000D01*
X113607288Y-41768656D01*
X113731344Y-41892712D01*
X113880666Y-41984814D01*
X114047203Y-42039999D01*
X114149991Y-42050500D01*
X115150008Y-42050499D01*
X115150016Y-42050498D01*
X115150019Y-42050498D01*
X115206302Y-42044748D01*
X115252797Y-42039999D01*
X115419334Y-41984814D01*
X115568656Y-41892712D01*
X115692712Y-41768656D01*
X115784814Y-41619334D01*
X115839999Y-41452797D01*
X115842679Y-41426559D01*
X115869074Y-41361869D01*
X115926254Y-41321717D01*
X115996065Y-41318853D01*
X116053718Y-41351481D01*
X116167930Y-41465693D01*
X116232628Y-41512698D01*
X116241555Y-41519184D01*
X116248384Y-41524145D01*
X116291051Y-41579475D01*
X116299500Y-41624464D01*
X116299500Y-42431006D01*
X116299500Y-42568994D01*
X116299500Y-42568996D01*
X116299499Y-42568996D01*
X116326418Y-42704322D01*
X116326421Y-42704332D01*
X116379222Y-42831807D01*
X116455887Y-42946545D01*
X116455888Y-42946546D01*
X121597162Y-48087819D01*
X121630647Y-48149142D01*
X121625663Y-48218834D01*
X121583791Y-48274767D01*
X121518327Y-48299184D01*
X121509481Y-48299500D01*
X115878140Y-48299500D01*
X115811101Y-48279815D01*
X115777822Y-48248386D01*
X115777821Y-48248384D01*
X115704517Y-48147490D01*
X115537510Y-47980483D01*
X115346433Y-47841657D01*
X115135996Y-47734433D01*
X114911368Y-47661446D01*
X114678097Y-47624500D01*
X114678092Y-47624500D01*
X114441908Y-47624500D01*
X114441903Y-47624500D01*
X114208631Y-47661446D01*
X113984003Y-47734433D01*
X113773566Y-47841657D01*
X113701918Y-47893713D01*
X113582490Y-47980483D01*
X113582488Y-47980485D01*
X113582487Y-47980485D01*
X113415485Y-48147487D01*
X113415485Y-48147488D01*
X113415483Y-48147490D01*
X113342179Y-48248384D01*
X113342178Y-48248386D01*
X113286848Y-48291051D01*
X113241860Y-48299500D01*
X109161744Y-48299500D01*
X109094705Y-48279815D01*
X109061425Y-48248384D01*
X108991969Y-48152784D01*
X108847213Y-48008028D01*
X108681613Y-47887715D01*
X108681612Y-47887714D01*
X108681610Y-47887713D01*
X108624653Y-47858691D01*
X108499223Y-47794781D01*
X108304534Y-47731522D01*
X108129995Y-47703878D01*
X108102352Y-47699500D01*
X107897648Y-47699500D01*
X107873329Y-47703351D01*
X107695465Y-47731522D01*
X107500776Y-47794781D01*
X107318386Y-47887715D01*
X107152786Y-48008028D01*
X107008028Y-48152786D01*
X106887715Y-48318386D01*
X106794781Y-48500776D01*
X106731522Y-48695465D01*
X106699500Y-48897648D01*
X106699500Y-49102351D01*
X106731522Y-49304534D01*
X106794781Y-49499223D01*
X106858691Y-49624653D01*
X106867599Y-49642135D01*
X106887715Y-49681613D01*
X107008028Y-49847213D01*
X107152786Y-49991971D01*
X107304933Y-50102510D01*
X107318390Y-50112287D01*
X107414870Y-50161446D01*
X107500776Y-50205218D01*
X107500778Y-50205218D01*
X107500781Y-50205220D01*
X107605137Y-50239127D01*
X107695465Y-50268477D01*
X107796557Y-50284488D01*
X107897648Y-50300500D01*
X107897649Y-50300500D01*
X108102351Y-50300500D01*
X108102352Y-50300500D01*
X108304534Y-50268477D01*
X108499219Y-50205220D01*
X108681610Y-50112287D01*
X108774590Y-50044732D01*
X108847213Y-49991971D01*
X108847215Y-49991968D01*
X108847219Y-49991966D01*
X108991966Y-49847219D01*
X109061425Y-49751615D01*
X109116755Y-49708949D01*
X109161744Y-49700500D01*
X113093194Y-49700500D01*
X113160233Y-49720185D01*
X113203678Y-49768204D01*
X113276657Y-49911433D01*
X113415483Y-50102510D01*
X113582490Y-50269517D01*
X113638739Y-50310384D01*
X113681403Y-50365713D01*
X113686095Y-50397542D01*
X114348941Y-51060387D01*
X114328409Y-51065889D01*
X114191592Y-51144881D01*
X114079881Y-51256592D01*
X114000889Y-51393409D01*
X113995387Y-51413941D01*
X113337340Y-50755894D01*
X113277084Y-50838830D01*
X113169897Y-51049197D01*
X113096934Y-51273752D01*
X113060000Y-51506947D01*
X113060000Y-51743052D01*
X113096934Y-51976247D01*
X113169897Y-52200802D01*
X113277087Y-52411174D01*
X113337338Y-52494104D01*
X113337340Y-52494105D01*
X113995387Y-51836058D01*
X114000889Y-51856591D01*
X114079881Y-51993408D01*
X114191592Y-52105119D01*
X114328409Y-52184111D01*
X114348940Y-52189612D01*
X113684280Y-52854271D01*
X113675105Y-52897947D01*
X113638739Y-52939615D01*
X113582490Y-52980482D01*
X113415485Y-53147487D01*
X113415485Y-53147488D01*
X113415483Y-53147490D01*
X113406508Y-53159843D01*
X113276657Y-53338566D01*
X113169433Y-53549003D01*
X113096446Y-53773631D01*
X113059500Y-54006902D01*
X113059500Y-54243097D01*
X113096446Y-54476368D01*
X113169433Y-54700996D01*
X113276657Y-54911433D01*
X113415483Y-55102510D01*
X113415485Y-55102512D01*
X113582490Y-55269517D01*
X113589603Y-55274685D01*
X113632266Y-55330017D01*
X113638242Y-55399630D01*
X113605634Y-55461424D01*
X113589603Y-55475315D01*
X113582490Y-55480482D01*
X113415485Y-55647487D01*
X113415485Y-55647488D01*
X113415483Y-55647490D01*
X113355862Y-55729550D01*
X113276657Y-55838566D01*
X113169433Y-56049003D01*
X113096446Y-56273631D01*
X113059500Y-56506902D01*
X113059500Y-56743097D01*
X113096446Y-56976368D01*
X113169433Y-57200996D01*
X113276657Y-57411433D01*
X113415483Y-57602510D01*
X113582490Y-57769517D01*
X113773567Y-57908343D01*
X113872991Y-57959002D01*
X113984003Y-58015566D01*
X113984005Y-58015566D01*
X113984008Y-58015568D01*
X114104412Y-58054689D01*
X114208631Y-58088553D01*
X114441903Y-58125500D01*
X114441908Y-58125500D01*
X114678097Y-58125500D01*
X114911368Y-58088553D01*
X115135992Y-58015568D01*
X115346433Y-57908343D01*
X115537510Y-57769517D01*
X115704517Y-57602510D01*
X115843343Y-57411433D01*
X115950568Y-57200992D01*
X116023553Y-56976368D01*
X116027820Y-56949426D01*
X116060500Y-56743097D01*
X116060500Y-56506902D01*
X116023553Y-56273631D01*
X115950566Y-56049003D01*
X115864059Y-55879225D01*
X115843343Y-55838567D01*
X115704517Y-55647490D01*
X115537510Y-55480483D01*
X115530401Y-55475318D01*
X115487735Y-55419988D01*
X115481756Y-55350375D01*
X115514362Y-55288580D01*
X115530401Y-55274682D01*
X115530500Y-55274609D01*
X115537510Y-55269517D01*
X115704517Y-55102510D01*
X115843343Y-54911433D01*
X115950568Y-54700992D01*
X116023553Y-54476368D01*
X116033676Y-54412454D01*
X116060500Y-54243097D01*
X116060500Y-54006902D01*
X116023553Y-53773631D01*
X115967136Y-53600000D01*
X115950568Y-53549008D01*
X115950566Y-53549005D01*
X115950566Y-53549003D01*
X115843342Y-53338566D01*
X115811335Y-53294512D01*
X115704517Y-53147490D01*
X115537510Y-52980483D01*
X115481259Y-52939614D01*
X115438595Y-52884284D01*
X115433902Y-52852455D01*
X114771058Y-52189612D01*
X114791591Y-52184111D01*
X114928408Y-52105119D01*
X115040119Y-51993408D01*
X115119111Y-51856591D01*
X115124612Y-51836059D01*
X115782658Y-52494105D01*
X115782658Y-52494104D01*
X115842914Y-52411169D01*
X115842918Y-52411163D01*
X115950102Y-52200802D01*
X116023065Y-51976247D01*
X116060000Y-51743052D01*
X116060000Y-51506947D01*
X116023065Y-51273752D01*
X115950102Y-51049197D01*
X115842914Y-50838828D01*
X115782658Y-50755894D01*
X115782658Y-50755893D01*
X115124612Y-51413940D01*
X115119111Y-51393409D01*
X115040119Y-51256592D01*
X114928408Y-51144881D01*
X114791591Y-51065889D01*
X114771059Y-51060387D01*
X115435716Y-50395729D01*
X115444891Y-50352054D01*
X115481257Y-50310386D01*
X115537510Y-50269517D01*
X115704517Y-50102510D01*
X115843343Y-49911433D01*
X115916321Y-49768204D01*
X115964295Y-49717409D01*
X116026806Y-49700500D01*
X121785129Y-49700500D01*
X121852168Y-49720185D01*
X121872810Y-49736819D01*
X122680101Y-50544111D01*
X122680102Y-50544112D01*
X122794840Y-50620777D01*
X122922315Y-50673578D01*
X122922320Y-50673580D01*
X122970734Y-50683210D01*
X123032644Y-50715594D01*
X123067218Y-50776309D01*
X123063479Y-50846079D01*
X123023855Y-50901774D01*
X122891175Y-51007583D01*
X122692583Y-51206175D01*
X122517476Y-51425753D01*
X122368053Y-51663557D01*
X122246200Y-51916588D01*
X122153443Y-52181670D01*
X122153439Y-52181682D01*
X122090945Y-52455487D01*
X122090942Y-52455505D01*
X122059500Y-52734568D01*
X122059500Y-53015431D01*
X122090942Y-53294494D01*
X122090945Y-53294512D01*
X122153439Y-53568317D01*
X122153443Y-53568329D01*
X122246200Y-53833411D01*
X122368053Y-54086442D01*
X122368055Y-54086445D01*
X122517477Y-54324248D01*
X122587819Y-54412454D01*
X122679701Y-54527671D01*
X122692584Y-54543825D01*
X122891175Y-54742416D01*
X123110752Y-54917523D01*
X123348555Y-55066945D01*
X123601592Y-55188801D01*
X123732001Y-55234433D01*
X123866670Y-55281556D01*
X123866682Y-55281560D01*
X124140491Y-55344055D01*
X124140497Y-55344055D01*
X124140505Y-55344057D01*
X124326547Y-55365018D01*
X124419569Y-55375499D01*
X124419572Y-55375500D01*
X124419575Y-55375500D01*
X124700428Y-55375500D01*
X124700429Y-55375499D01*
X124843055Y-55359429D01*
X124979494Y-55344057D01*
X124979499Y-55344056D01*
X124979509Y-55344055D01*
X125253318Y-55281560D01*
X125518408Y-55188801D01*
X125771445Y-55066945D01*
X126009248Y-54917523D01*
X126228825Y-54742416D01*
X126427416Y-54543825D01*
X126602523Y-54324248D01*
X126751945Y-54086445D01*
X126873801Y-53833408D01*
X126966560Y-53568318D01*
X127029055Y-53294509D01*
X127060500Y-53015425D01*
X127060500Y-52734575D01*
X127029055Y-52455491D01*
X126966560Y-52181682D01*
X126873801Y-51916592D01*
X126751945Y-51663555D01*
X126602523Y-51425752D01*
X126427416Y-51206175D01*
X126228825Y-51007584D01*
X126120813Y-50921447D01*
X126080673Y-50864259D01*
X126077823Y-50794447D01*
X126113169Y-50734177D01*
X126175487Y-50702584D01*
X126198126Y-50700500D01*
X128592297Y-50700500D01*
X128659336Y-50720185D01*
X128705091Y-50772989D01*
X128715035Y-50842147D01*
X128713914Y-50848691D01*
X128699500Y-50921153D01*
X128699500Y-51078846D01*
X128730261Y-51233489D01*
X128730264Y-51233501D01*
X128790602Y-51379172D01*
X128790609Y-51379185D01*
X128878210Y-51510288D01*
X128878213Y-51510292D01*
X128989707Y-51621786D01*
X128989711Y-51621789D01*
X129120814Y-51709390D01*
X129120827Y-51709397D01*
X129265185Y-51769191D01*
X129305414Y-51796071D01*
X134553453Y-57044111D01*
X134553454Y-57044112D01*
X134668192Y-57120777D01*
X134795667Y-57173578D01*
X134795672Y-57173580D01*
X134795676Y-57173580D01*
X134795677Y-57173581D01*
X134931003Y-57200500D01*
X134931006Y-57200500D01*
X134931007Y-57200500D01*
X177658481Y-57200500D01*
X177725520Y-57220185D01*
X177746162Y-57236819D01*
X185045490Y-64536147D01*
X185078975Y-64597470D01*
X185073991Y-64667162D01*
X185032119Y-64723095D01*
X184966655Y-64747512D01*
X184919491Y-64741759D01*
X184855112Y-64720841D01*
X184647352Y-64687935D01*
X184619351Y-64683500D01*
X184380649Y-64683500D01*
X184352648Y-64687935D01*
X184144888Y-64720841D01*
X184144887Y-64720841D01*
X183917860Y-64794607D01*
X183853649Y-64827324D01*
X183784980Y-64840220D01*
X183720240Y-64813943D01*
X183679983Y-64756836D01*
X183674882Y-64736237D01*
X183652903Y-64597470D01*
X183643032Y-64535146D01*
X183563091Y-64289115D01*
X183445647Y-64058618D01*
X183293592Y-63849332D01*
X183110668Y-63666408D01*
X182983642Y-63574118D01*
X182901380Y-63514351D01*
X182808204Y-63466875D01*
X182757409Y-63418901D01*
X182740500Y-63356391D01*
X182740500Y-62971004D01*
X182713581Y-62835677D01*
X182713580Y-62835676D01*
X182713580Y-62835672D01*
X182662381Y-62712067D01*
X182660778Y-62708196D01*
X182660777Y-62708194D01*
X182660775Y-62708189D01*
X182658764Y-62705180D01*
X182658194Y-62704326D01*
X182658192Y-62704324D01*
X182611131Y-62633892D01*
X182584114Y-62593457D01*
X182584112Y-62593454D01*
X180946545Y-60955887D01*
X180831807Y-60879222D01*
X180704332Y-60826421D01*
X180704322Y-60826418D01*
X180568996Y-60799500D01*
X180568994Y-60799500D01*
X180568993Y-60799500D01*
X145122327Y-60799500D01*
X144984339Y-60799500D01*
X144984337Y-60799500D01*
X144849010Y-60826418D01*
X144849000Y-60826421D01*
X144721525Y-60879222D01*
X144606787Y-60955887D01*
X142643642Y-62919032D01*
X142582319Y-62952517D01*
X142517644Y-62949282D01*
X142418189Y-62916968D01*
X142418190Y-62916968D01*
X142162684Y-62876500D01*
X142162679Y-62876500D01*
X141903987Y-62876500D01*
X141903982Y-62876500D01*
X141648482Y-62916967D01*
X141648479Y-62916968D01*
X141482166Y-62971007D01*
X141402445Y-62996910D01*
X141171951Y-63114352D01*
X141088061Y-63175302D01*
X141022254Y-63198781D01*
X140954200Y-63182955D01*
X140905506Y-63132849D01*
X140901010Y-63122192D01*
X140900592Y-63122366D01*
X140898730Y-63117872D01*
X140898728Y-63117866D01*
X140790360Y-62905181D01*
X140650054Y-62712067D01*
X140481266Y-62543279D01*
X140288152Y-62402973D01*
X140075467Y-62294605D01*
X139848448Y-62220842D01*
X139848446Y-62220841D01*
X139848444Y-62220841D01*
X139667272Y-62192146D01*
X139612684Y-62183500D01*
X139373982Y-62183500D01*
X139319394Y-62192146D01*
X139138221Y-62220841D01*
X139138220Y-62220841D01*
X138911196Y-62294606D01*
X138698513Y-62402973D01*
X138588335Y-62483022D01*
X138505400Y-62543279D01*
X138505398Y-62543281D01*
X138505397Y-62543281D01*
X138336614Y-62712064D01*
X138336614Y-62712065D01*
X138336612Y-62712067D01*
X138313935Y-62743279D01*
X138196306Y-62905180D01*
X138087939Y-63117863D01*
X138014174Y-63344887D01*
X138014174Y-63344888D01*
X137982497Y-63544887D01*
X137976833Y-63580649D01*
X137976833Y-63819351D01*
X137981767Y-63850500D01*
X138014174Y-64055111D01*
X138014174Y-64055112D01*
X138014175Y-64055115D01*
X138087938Y-64282134D01*
X138196306Y-64494819D01*
X138336612Y-64687933D01*
X138505400Y-64856721D01*
X138698514Y-64997027D01*
X138911199Y-65105395D01*
X139138218Y-65179158D01*
X139373982Y-65216500D01*
X139373983Y-65216500D01*
X139612683Y-65216500D01*
X139612684Y-65216500D01*
X139848448Y-65179158D01*
X140075467Y-65105395D01*
X140288152Y-64997027D01*
X140289291Y-64996199D01*
X140289801Y-64996017D01*
X140292308Y-64994481D01*
X140292630Y-64995007D01*
X140355092Y-64972709D01*
X140423148Y-64988524D01*
X140471851Y-65038621D01*
X140480122Y-65058187D01*
X140510243Y-65150888D01*
X140615697Y-65357853D01*
X140627686Y-65381382D01*
X140779741Y-65590668D01*
X140962665Y-65773592D01*
X141171951Y-65925647D01*
X141402448Y-66043091D01*
X141648479Y-66123032D01*
X141744294Y-66138207D01*
X141903982Y-66163500D01*
X141903987Y-66163500D01*
X142162684Y-66163500D01*
X142304627Y-66141017D01*
X142418187Y-66123032D01*
X142664218Y-66043091D01*
X142819555Y-65963942D01*
X142888222Y-65951046D01*
X142952963Y-65977322D01*
X142993221Y-66034428D01*
X142998322Y-66055028D01*
X143014174Y-66155112D01*
X143014175Y-66155115D01*
X143087938Y-66382134D01*
X143196306Y-66594819D01*
X143336612Y-66787933D01*
X143505400Y-66956721D01*
X143698514Y-67097027D01*
X143911199Y-67205395D01*
X144138218Y-67279158D01*
X144373982Y-67316500D01*
X144373983Y-67316500D01*
X144612683Y-67316500D01*
X144612684Y-67316500D01*
X144848448Y-67279158D01*
X145075467Y-67205395D01*
X145288152Y-67097027D01*
X145481266Y-66956721D01*
X145650054Y-66787933D01*
X145790360Y-66594819D01*
X145898728Y-66382134D01*
X145972491Y-66155115D01*
X146009833Y-65919351D01*
X146009833Y-65680649D01*
X145972491Y-65444885D01*
X145898728Y-65217866D01*
X145790360Y-65005181D01*
X145650054Y-64812067D01*
X145481266Y-64643279D01*
X145288152Y-64502973D01*
X145075467Y-64394605D01*
X144848448Y-64320842D01*
X144848446Y-64320841D01*
X144848444Y-64320841D01*
X144648116Y-64289112D01*
X144612684Y-64283500D01*
X144373982Y-64283500D01*
X144338550Y-64289112D01*
X144138221Y-64320841D01*
X144138220Y-64320841D01*
X143911193Y-64394607D01*
X143846982Y-64427324D01*
X143778313Y-64440220D01*
X143713573Y-64413943D01*
X143673316Y-64356836D01*
X143668215Y-64336237D01*
X143636365Y-64135145D01*
X143604049Y-64035689D01*
X143602054Y-63965848D01*
X143634297Y-63909691D01*
X145307171Y-62236819D01*
X145368494Y-62203334D01*
X145394852Y-62200500D01*
X159036791Y-62200500D01*
X159103830Y-62220185D01*
X159149585Y-62272989D01*
X159159529Y-62342147D01*
X159130504Y-62405703D01*
X159075110Y-62442430D01*
X158914533Y-62494605D01*
X158914530Y-62494606D01*
X158701847Y-62602973D01*
X158600647Y-62676500D01*
X158508734Y-62743279D01*
X158508732Y-62743281D01*
X158508731Y-62743281D01*
X158339948Y-62912064D01*
X158339948Y-62912065D01*
X158339946Y-62912067D01*
X158295847Y-62972764D01*
X158199640Y-63105180D01*
X158091273Y-63317863D01*
X158017508Y-63544887D01*
X158017508Y-63544888D01*
X157980167Y-63780649D01*
X157980167Y-64019350D01*
X158017508Y-64255111D01*
X158017508Y-64255112D01*
X158017509Y-64255115D01*
X158091272Y-64482134D01*
X158199640Y-64694819D01*
X158339946Y-64887933D01*
X158508734Y-65056721D01*
X158701848Y-65197027D01*
X158914533Y-65305395D01*
X159141552Y-65379158D01*
X159377316Y-65416500D01*
X159377317Y-65416500D01*
X159616017Y-65416500D01*
X159616018Y-65416500D01*
X159851782Y-65379158D01*
X160078801Y-65305395D01*
X160291486Y-65197027D01*
X160292625Y-65196199D01*
X160293135Y-65196017D01*
X160295642Y-65194481D01*
X160295964Y-65195007D01*
X160358426Y-65172709D01*
X160426482Y-65188524D01*
X160475185Y-65238621D01*
X160483456Y-65258187D01*
X160513577Y-65350888D01*
X160627049Y-65573589D01*
X160631020Y-65581382D01*
X160783075Y-65790668D01*
X160965999Y-65973592D01*
X161175285Y-66125647D01*
X161405782Y-66243091D01*
X161651813Y-66323032D01*
X161747628Y-66338207D01*
X161907316Y-66363500D01*
X161907321Y-66363500D01*
X162166018Y-66363500D01*
X162307961Y-66341017D01*
X162421521Y-66323032D01*
X162667552Y-66243091D01*
X162822889Y-66163942D01*
X162891556Y-66151046D01*
X162956297Y-66177322D01*
X162996555Y-66234428D01*
X163001656Y-66255028D01*
X163017508Y-66355112D01*
X163017509Y-66355115D01*
X163091272Y-66582134D01*
X163199640Y-66794819D01*
X163339946Y-66987933D01*
X163508734Y-67156721D01*
X163701848Y-67297027D01*
X163914533Y-67405395D01*
X164141552Y-67479158D01*
X164377316Y-67516500D01*
X164377317Y-67516500D01*
X164616017Y-67516500D01*
X164616018Y-67516500D01*
X164851782Y-67479158D01*
X165078801Y-67405395D01*
X165291486Y-67297027D01*
X165484600Y-67156721D01*
X165653388Y-66987933D01*
X165793694Y-66794819D01*
X165902062Y-66582134D01*
X165975825Y-66355115D01*
X166013167Y-66119351D01*
X166013167Y-65880649D01*
X165975825Y-65644885D01*
X165902062Y-65417866D01*
X165793694Y-65205181D01*
X165653388Y-65012067D01*
X165484600Y-64843279D01*
X165291486Y-64702973D01*
X165078801Y-64594605D01*
X164851782Y-64520842D01*
X164851780Y-64520841D01*
X164851778Y-64520841D01*
X164687165Y-64494768D01*
X164616018Y-64483500D01*
X164377316Y-64483500D01*
X164349315Y-64487935D01*
X164141555Y-64520841D01*
X164141554Y-64520841D01*
X163914527Y-64594607D01*
X163850316Y-64627324D01*
X163781647Y-64640220D01*
X163716907Y-64613943D01*
X163676650Y-64556836D01*
X163671549Y-64536237D01*
X163652179Y-64413943D01*
X163639699Y-64335146D01*
X163559758Y-64089115D01*
X163442314Y-63858618D01*
X163290259Y-63649332D01*
X163107335Y-63466408D01*
X162898049Y-63314353D01*
X162667552Y-63196909D01*
X162421521Y-63116968D01*
X162421519Y-63116967D01*
X162421517Y-63116967D01*
X162166018Y-63076500D01*
X162166013Y-63076500D01*
X161907321Y-63076500D01*
X161907316Y-63076500D01*
X161651816Y-63116967D01*
X161405779Y-63196910D01*
X161175285Y-63314352D01*
X161091395Y-63375302D01*
X161025588Y-63398781D01*
X160957534Y-63382955D01*
X160908840Y-63332849D01*
X160904344Y-63322192D01*
X160903926Y-63322366D01*
X160902064Y-63317872D01*
X160902062Y-63317866D01*
X160793694Y-63105181D01*
X160653388Y-62912067D01*
X160484600Y-62743279D01*
X160291486Y-62602973D01*
X160078801Y-62494605D01*
X159918224Y-62442430D01*
X159860549Y-62402994D01*
X159833351Y-62338635D01*
X159845266Y-62269789D01*
X159892510Y-62218313D01*
X159956543Y-62200500D01*
X180158481Y-62200500D01*
X180225520Y-62220185D01*
X180246162Y-62236819D01*
X181286535Y-63277192D01*
X181297571Y-63297404D01*
X181312394Y-63315028D01*
X181313998Y-63327487D01*
X181320020Y-63338515D01*
X181318377Y-63361484D01*
X181321319Y-63384325D01*
X181315932Y-63395675D01*
X181315036Y-63408207D01*
X181301234Y-63426642D01*
X181291361Y-63447447D01*
X181277884Y-63457833D01*
X181273164Y-63464140D01*
X181264350Y-63470164D01*
X181259852Y-63472961D01*
X181178618Y-63514353D01*
X181091138Y-63577910D01*
X181087339Y-63580274D01*
X181057799Y-63588477D01*
X181028921Y-63598781D01*
X181024445Y-63597740D01*
X181020018Y-63598970D01*
X180990730Y-63589899D01*
X180960867Y-63582955D01*
X180957664Y-63579659D01*
X180953275Y-63578300D01*
X180933543Y-63554839D01*
X180912173Y-63532849D01*
X180909278Y-63525987D01*
X180908303Y-63524828D01*
X180908089Y-63523168D01*
X180907677Y-63522192D01*
X180907259Y-63522366D01*
X180905397Y-63517872D01*
X180905395Y-63517866D01*
X180797027Y-63305181D01*
X180656721Y-63112067D01*
X180487933Y-62943279D01*
X180294819Y-62802973D01*
X180101222Y-62704331D01*
X180082136Y-62694606D01*
X180082135Y-62694605D01*
X180082134Y-62694605D01*
X179855115Y-62620842D01*
X179855113Y-62620841D01*
X179855111Y-62620841D01*
X179682197Y-62593454D01*
X179619351Y-62583500D01*
X179380649Y-62583500D01*
X179325995Y-62592156D01*
X179144888Y-62620841D01*
X179144887Y-62620841D01*
X178917863Y-62694606D01*
X178705180Y-62802973D01*
X178603980Y-62876500D01*
X178512067Y-62943279D01*
X178512065Y-62943281D01*
X178512064Y-62943281D01*
X178343281Y-63112064D01*
X178343281Y-63112065D01*
X178343279Y-63112067D01*
X178319434Y-63144887D01*
X178202973Y-63305180D01*
X178094606Y-63517863D01*
X178020841Y-63744887D01*
X178020841Y-63744888D01*
X177983500Y-63980649D01*
X177983500Y-64219350D01*
X178020841Y-64455111D01*
X178020841Y-64455112D01*
X178020842Y-64455115D01*
X178094605Y-64682134D01*
X178202973Y-64894819D01*
X178343279Y-65087933D01*
X178512067Y-65256721D01*
X178705181Y-65397027D01*
X178917866Y-65505395D01*
X179144885Y-65579158D01*
X179380649Y-65616500D01*
X179380650Y-65616500D01*
X179619350Y-65616500D01*
X179619351Y-65616500D01*
X179855115Y-65579158D01*
X180082134Y-65505395D01*
X180294819Y-65397027D01*
X180295958Y-65396199D01*
X180296468Y-65396017D01*
X180298975Y-65394481D01*
X180299297Y-65395007D01*
X180361759Y-65372709D01*
X180429815Y-65388524D01*
X180478518Y-65438621D01*
X180486789Y-65458187D01*
X180516910Y-65550888D01*
X180611693Y-65736909D01*
X180634353Y-65781382D01*
X180786408Y-65990668D01*
X180969332Y-66173592D01*
X181178618Y-66325647D01*
X181409115Y-66443091D01*
X181655146Y-66523032D01*
X181750961Y-66538207D01*
X181910649Y-66563500D01*
X181910654Y-66563500D01*
X182169351Y-66563500D01*
X182311294Y-66541017D01*
X182424854Y-66523032D01*
X182670885Y-66443091D01*
X182826222Y-66363942D01*
X182894889Y-66351046D01*
X182959630Y-66377322D01*
X182999888Y-66434428D01*
X183004989Y-66455028D01*
X183020841Y-66555112D01*
X183020842Y-66555115D01*
X183094605Y-66782134D01*
X183202973Y-66994819D01*
X183343279Y-67187933D01*
X183512067Y-67356721D01*
X183705181Y-67497027D01*
X183917866Y-67605395D01*
X184144885Y-67679158D01*
X184380649Y-67716500D01*
X184380650Y-67716500D01*
X184619350Y-67716500D01*
X184619351Y-67716500D01*
X184855115Y-67679158D01*
X185082134Y-67605395D01*
X185294819Y-67497027D01*
X185487933Y-67356721D01*
X185656721Y-67187933D01*
X185797027Y-66994819D01*
X185810587Y-66968205D01*
X185858561Y-66917410D01*
X185921072Y-66900500D01*
X206868996Y-66900500D01*
X206960040Y-66882389D01*
X207004328Y-66873580D01*
X207068069Y-66847177D01*
X207131807Y-66820777D01*
X207131808Y-66820776D01*
X207131811Y-66820775D01*
X207246543Y-66744114D01*
X211044114Y-62946543D01*
X211120775Y-62831811D01*
X211173580Y-62704329D01*
X211179138Y-62676383D01*
X211187591Y-62633892D01*
X211187591Y-62633889D01*
X211200500Y-62568993D01*
X211200500Y-53931007D01*
X211200500Y-53931004D01*
X211200499Y-53931002D01*
X211173581Y-53795677D01*
X211173579Y-53795670D01*
X211166867Y-53779467D01*
X211166865Y-53779461D01*
X211151707Y-53742866D01*
X211120778Y-53668194D01*
X211120771Y-53668182D01*
X211044115Y-53553459D01*
X211039659Y-53549003D01*
X210946542Y-53455886D01*
X210686818Y-53196162D01*
X210653333Y-53134839D01*
X210650499Y-53108481D01*
X210650499Y-52182129D01*
X210650498Y-52182123D01*
X210650497Y-52182116D01*
X210644091Y-52122517D01*
X210593796Y-51987669D01*
X210516421Y-51884309D01*
X210492004Y-51818848D01*
X210506855Y-51750575D01*
X210516416Y-51735696D01*
X210593796Y-51632331D01*
X210644091Y-51497483D01*
X210650500Y-51437873D01*
X210650499Y-49642128D01*
X210644091Y-49582517D01*
X210613024Y-49499223D01*
X210593797Y-49447671D01*
X210593795Y-49447668D01*
X210516421Y-49344309D01*
X210492004Y-49278848D01*
X210506855Y-49210575D01*
X210516416Y-49195696D01*
X210593796Y-49092331D01*
X210644091Y-48957483D01*
X210650500Y-48897873D01*
X210650499Y-47102128D01*
X210644091Y-47042517D01*
X210593796Y-46907669D01*
X210516421Y-46804309D01*
X210492004Y-46738848D01*
X210506855Y-46670575D01*
X210516416Y-46655696D01*
X210593796Y-46552331D01*
X210644091Y-46417483D01*
X210650500Y-46357873D01*
X210650499Y-44562128D01*
X210644091Y-44502517D01*
X210639973Y-44491477D01*
X210593797Y-44367671D01*
X210593795Y-44367668D01*
X210516421Y-44264309D01*
X210492004Y-44198848D01*
X210506855Y-44130575D01*
X210516416Y-44115696D01*
X210593796Y-44012331D01*
X210644091Y-43877483D01*
X210650500Y-43817873D01*
X210650499Y-42022128D01*
X210644091Y-41962517D01*
X210632346Y-41931028D01*
X210593797Y-41827671D01*
X210593795Y-41827668D01*
X210516421Y-41724309D01*
X210492004Y-41658848D01*
X210506855Y-41590575D01*
X210516416Y-41575696D01*
X210593796Y-41472331D01*
X210644091Y-41337483D01*
X210650500Y-41277873D01*
X210650500Y-40862332D01*
X211799500Y-40862332D01*
X211799500Y-41137667D01*
X211799501Y-41137684D01*
X211835438Y-41410655D01*
X211835439Y-41410660D01*
X211835440Y-41410666D01*
X211871072Y-41543649D01*
X211906704Y-41676630D01*
X212012075Y-41931017D01*
X212012080Y-41931028D01*
X212076450Y-42042519D01*
X212149751Y-42169479D01*
X212149753Y-42169481D01*
X212149754Y-42169483D01*
X212317370Y-42387926D01*
X212317376Y-42387933D01*
X212512066Y-42582623D01*
X212512072Y-42582628D01*
X212730521Y-42750249D01*
X212871790Y-42831811D01*
X212968971Y-42887919D01*
X212968976Y-42887921D01*
X212968979Y-42887923D01*
X213223368Y-42993295D01*
X213489334Y-43064560D01*
X213762326Y-43100500D01*
X213762333Y-43100500D01*
X214037667Y-43100500D01*
X214037674Y-43100500D01*
X214310666Y-43064560D01*
X214576632Y-42993295D01*
X214831021Y-42887923D01*
X215069479Y-42750249D01*
X215287928Y-42582628D01*
X215482628Y-42387928D01*
X215650249Y-42169479D01*
X215787923Y-41931021D01*
X215893295Y-41676632D01*
X215964560Y-41410666D01*
X216000500Y-41137674D01*
X216000500Y-40862326D01*
X215964560Y-40589334D01*
X215893295Y-40323368D01*
X215787923Y-40068979D01*
X215787921Y-40068976D01*
X215787919Y-40068971D01*
X215738732Y-39983778D01*
X215650249Y-39830521D01*
X215588457Y-39749992D01*
X215482628Y-39612071D01*
X215287933Y-39417376D01*
X215287926Y-39417370D01*
X215069483Y-39249754D01*
X215069482Y-39249753D01*
X215069479Y-39249751D01*
X214974407Y-39194861D01*
X214831028Y-39112080D01*
X214831017Y-39112075D01*
X214576630Y-39006704D01*
X214391170Y-38957011D01*
X214310666Y-38935440D01*
X214310660Y-38935439D01*
X214310655Y-38935438D01*
X214037684Y-38899501D01*
X214037679Y-38899500D01*
X214037674Y-38899500D01*
X213762326Y-38899500D01*
X213762320Y-38899500D01*
X213762315Y-38899501D01*
X213489344Y-38935438D01*
X213489337Y-38935439D01*
X213489334Y-38935440D01*
X213475802Y-38939066D01*
X213223369Y-39006704D01*
X212968982Y-39112075D01*
X212968971Y-39112080D01*
X212730516Y-39249754D01*
X212512073Y-39417370D01*
X212512066Y-39417376D01*
X212317376Y-39612066D01*
X212317372Y-39612071D01*
X212149754Y-39830516D01*
X212012080Y-40068971D01*
X212012075Y-40068982D01*
X211906704Y-40323369D01*
X211863195Y-40485750D01*
X211845980Y-40550000D01*
X211835441Y-40589331D01*
X211835438Y-40589344D01*
X211799501Y-40862315D01*
X211799500Y-40862332D01*
X210650500Y-40862332D01*
X210650499Y-40369910D01*
X210650499Y-39482129D01*
X210650498Y-39482123D01*
X210650497Y-39482116D01*
X210644091Y-39422517D01*
X210643594Y-39421185D01*
X210593797Y-39287671D01*
X210593793Y-39287664D01*
X210507547Y-39172455D01*
X210507544Y-39172452D01*
X210392335Y-39086206D01*
X210392328Y-39086202D01*
X210257482Y-39035908D01*
X210257483Y-39035908D01*
X210197883Y-39029501D01*
X210197881Y-39029500D01*
X210197873Y-39029500D01*
X207606291Y-39029500D01*
X207606287Y-39029500D01*
X207393713Y-39029500D01*
X207393708Y-39029500D01*
X206874000Y-39029500D01*
X206806961Y-39009815D01*
X206761206Y-38957011D01*
X206750000Y-38905500D01*
X206750000Y-38624500D01*
X206769685Y-38557461D01*
X206822489Y-38511706D01*
X206874000Y-38500500D01*
X213812787Y-38500500D01*
X213812791Y-38500501D01*
X213874935Y-38500500D01*
X213882419Y-38500725D01*
X214172483Y-38518269D01*
X214187341Y-38520073D01*
X214469489Y-38571778D01*
X214483999Y-38575353D01*
X214757865Y-38660691D01*
X214771862Y-38666000D01*
X214874473Y-38712181D01*
X215014659Y-38775273D01*
X215033426Y-38783719D01*
X215046685Y-38790678D01*
X215292150Y-38939066D01*
X215304473Y-38947572D01*
X215530262Y-39124464D01*
X215541470Y-39134393D01*
X215694749Y-39287671D01*
X215744295Y-39337216D01*
X215754225Y-39348425D01*
X215784169Y-39386645D01*
X215922976Y-39563819D01*
X215931119Y-39574212D01*
X215939623Y-39586532D01*
X216088017Y-39832005D01*
X216094973Y-39845259D01*
X216207140Y-40094481D01*
X216212694Y-40106822D01*
X216217999Y-40120810D01*
X216286775Y-40341519D01*
X216303335Y-40394661D01*
X216306918Y-40409199D01*
X216358623Y-40691338D01*
X216360428Y-40706203D01*
X216377954Y-40995932D01*
X216378180Y-41003419D01*
X216378180Y-78996249D01*
X216377954Y-79003736D01*
X216360408Y-79293793D01*
X216358603Y-79308658D01*
X216306900Y-79590792D01*
X216303316Y-79605331D01*
X216217983Y-79879173D01*
X216212675Y-79893168D01*
X216094953Y-80154736D01*
X216088000Y-80167984D01*
X215939608Y-80413453D01*
X215931102Y-80425776D01*
X215754210Y-80651561D01*
X215744280Y-80662770D01*
X215541457Y-80865591D01*
X215530249Y-80875520D01*
X215304459Y-81052414D01*
X215292135Y-81060920D01*
X215046679Y-81209301D01*
X215033421Y-81216260D01*
X214771857Y-81333979D01*
X214757856Y-81339289D01*
X214484008Y-81424622D01*
X214469469Y-81428205D01*
X214187343Y-81479905D01*
X214172478Y-81481710D01*
X213882087Y-81499273D01*
X213874603Y-81499499D01*
X213842891Y-81499499D01*
X213812791Y-81499499D01*
X213812787Y-81499499D01*
X213805183Y-81499500D01*
X213805182Y-81499499D01*
X213805181Y-81499500D01*
X105903751Y-81499500D01*
X105896264Y-81499274D01*
X105606205Y-81481728D01*
X105591340Y-81479923D01*
X105309201Y-81428219D01*
X105294663Y-81424635D01*
X105020832Y-81339306D01*
X105006831Y-81333997D01*
X104745263Y-81216275D01*
X104732004Y-81209316D01*
X104486540Y-81060928D01*
X104474217Y-81052422D01*
X104248426Y-80875526D01*
X104237218Y-80865596D01*
X104034403Y-80662781D01*
X104024473Y-80651573D01*
X103970454Y-80582623D01*
X103847573Y-80425776D01*
X103839075Y-80413465D01*
X103690677Y-80167984D01*
X103683727Y-80154743D01*
X103566000Y-79893163D01*
X103560693Y-79879167D01*
X103547262Y-79836066D01*
X103475363Y-79605335D01*
X103471780Y-79590798D01*
X103420076Y-79308659D01*
X103418271Y-79293794D01*
X103400726Y-79003736D01*
X103400500Y-78996249D01*
X103400500Y-78862332D01*
X103799500Y-78862332D01*
X103799500Y-79137667D01*
X103799501Y-79137684D01*
X103835438Y-79410655D01*
X103835439Y-79410660D01*
X103835440Y-79410666D01*
X103835441Y-79410668D01*
X103906704Y-79676630D01*
X104012075Y-79931017D01*
X104012080Y-79931028D01*
X104091809Y-80069121D01*
X104149751Y-80169479D01*
X104149753Y-80169482D01*
X104149754Y-80169483D01*
X104317370Y-80387926D01*
X104317376Y-80387933D01*
X104512066Y-80582623D01*
X104512072Y-80582628D01*
X104730521Y-80750249D01*
X104883778Y-80838732D01*
X104968971Y-80887919D01*
X104968976Y-80887921D01*
X104968979Y-80887923D01*
X105223368Y-80993295D01*
X105489334Y-81064560D01*
X105762326Y-81100500D01*
X105762333Y-81100500D01*
X106037667Y-81100500D01*
X106037674Y-81100500D01*
X106310666Y-81064560D01*
X106576632Y-80993295D01*
X106831021Y-80887923D01*
X107069479Y-80750249D01*
X107287928Y-80582628D01*
X107482628Y-80387928D01*
X107650249Y-80169479D01*
X107787923Y-79931021D01*
X107893295Y-79676632D01*
X107964560Y-79410666D01*
X108000500Y-79137674D01*
X108000500Y-78862332D01*
X211799500Y-78862332D01*
X211799500Y-79137667D01*
X211799501Y-79137684D01*
X211835438Y-79410655D01*
X211835439Y-79410660D01*
X211835440Y-79410666D01*
X211835441Y-79410668D01*
X211906704Y-79676630D01*
X212012075Y-79931017D01*
X212012080Y-79931028D01*
X212091809Y-80069121D01*
X212149751Y-80169479D01*
X212149753Y-80169482D01*
X212149754Y-80169483D01*
X212317370Y-80387926D01*
X212317376Y-80387933D01*
X212512066Y-80582623D01*
X212512072Y-80582628D01*
X212730521Y-80750249D01*
X212883778Y-80838732D01*
X212968971Y-80887919D01*
X212968976Y-80887921D01*
X212968979Y-80887923D01*
X213223368Y-80993295D01*
X213489334Y-81064560D01*
X213762326Y-81100500D01*
X213762333Y-81100500D01*
X214037667Y-81100500D01*
X214037674Y-81100500D01*
X214310666Y-81064560D01*
X214576632Y-80993295D01*
X214831021Y-80887923D01*
X215069479Y-80750249D01*
X215287928Y-80582628D01*
X215482628Y-80387928D01*
X215650249Y-80169479D01*
X215787923Y-79931021D01*
X215893295Y-79676632D01*
X215964560Y-79410666D01*
X216000500Y-79137674D01*
X216000500Y-78862326D01*
X215964560Y-78589334D01*
X215893295Y-78323368D01*
X215787923Y-78068979D01*
X215787921Y-78068976D01*
X215787919Y-78068971D01*
X215738732Y-77983778D01*
X215650249Y-77830521D01*
X215482628Y-77612072D01*
X215482623Y-77612066D01*
X215287933Y-77417376D01*
X215287926Y-77417370D01*
X215069483Y-77249754D01*
X215069482Y-77249753D01*
X215069479Y-77249751D01*
X214974407Y-77194861D01*
X214831028Y-77112080D01*
X214831017Y-77112075D01*
X214576630Y-77006704D01*
X214443649Y-76971072D01*
X214310666Y-76935440D01*
X214310660Y-76935439D01*
X214310655Y-76935438D01*
X214037684Y-76899501D01*
X214037679Y-76899500D01*
X214037674Y-76899500D01*
X213762326Y-76899500D01*
X213762320Y-76899500D01*
X213762315Y-76899501D01*
X213489344Y-76935438D01*
X213489337Y-76935439D01*
X213489334Y-76935440D01*
X213433125Y-76950500D01*
X213223369Y-77006704D01*
X212968982Y-77112075D01*
X212968971Y-77112080D01*
X212730516Y-77249754D01*
X212512073Y-77417370D01*
X212512066Y-77417376D01*
X212317376Y-77612066D01*
X212317370Y-77612073D01*
X212149754Y-77830516D01*
X212012080Y-78068971D01*
X212012075Y-78068982D01*
X211906704Y-78323369D01*
X211835441Y-78589331D01*
X211835438Y-78589344D01*
X211799501Y-78862315D01*
X211799500Y-78862332D01*
X108000500Y-78862332D01*
X108000500Y-78862326D01*
X107964560Y-78589334D01*
X107893295Y-78323368D01*
X107787923Y-78068979D01*
X107787921Y-78068976D01*
X107787919Y-78068971D01*
X107738732Y-77983778D01*
X107650249Y-77830521D01*
X107482628Y-77612072D01*
X107482623Y-77612066D01*
X107287933Y-77417376D01*
X107287926Y-77417370D01*
X107069483Y-77249754D01*
X107069482Y-77249753D01*
X107069479Y-77249751D01*
X106974407Y-77194861D01*
X106831028Y-77112080D01*
X106831017Y-77112075D01*
X106576630Y-77006704D01*
X106443649Y-76971072D01*
X106310666Y-76935440D01*
X106310660Y-76935439D01*
X106310655Y-76935438D01*
X106037684Y-76899501D01*
X106037679Y-76899500D01*
X106037674Y-76899500D01*
X105762326Y-76899500D01*
X105762320Y-76899500D01*
X105762315Y-76899501D01*
X105489344Y-76935438D01*
X105489337Y-76935439D01*
X105489334Y-76935440D01*
X105433125Y-76950500D01*
X105223369Y-77006704D01*
X104968982Y-77112075D01*
X104968971Y-77112080D01*
X104730516Y-77249754D01*
X104512073Y-77417370D01*
X104512066Y-77417376D01*
X104317376Y-77612066D01*
X104317370Y-77612073D01*
X104149754Y-77830516D01*
X104012080Y-78068971D01*
X104012075Y-78068982D01*
X103906704Y-78323369D01*
X103835441Y-78589331D01*
X103835438Y-78589344D01*
X103799501Y-78862315D01*
X103799500Y-78862332D01*
X103400500Y-78862332D01*
X103400500Y-74365258D01*
X115199500Y-74365258D01*
X115199500Y-74594741D01*
X115218330Y-74737759D01*
X115229452Y-74822238D01*
X115275670Y-74994727D01*
X115288842Y-75043887D01*
X115376650Y-75255876D01*
X115376657Y-75255890D01*
X115491392Y-75454617D01*
X115631081Y-75636661D01*
X115631089Y-75636670D01*
X115793330Y-75798911D01*
X115793338Y-75798918D01*
X115975382Y-75938607D01*
X115975385Y-75938608D01*
X115975388Y-75938611D01*
X116174112Y-76053344D01*
X116174117Y-76053346D01*
X116174123Y-76053349D01*
X116265480Y-76091190D01*
X116386113Y-76141158D01*
X116607762Y-76200548D01*
X116835266Y-76230500D01*
X116835273Y-76230500D01*
X117064727Y-76230500D01*
X117064734Y-76230500D01*
X117292238Y-76200548D01*
X117513887Y-76141158D01*
X117725888Y-76053344D01*
X117924612Y-75938611D01*
X118106661Y-75798919D01*
X118106665Y-75798914D01*
X118106670Y-75798911D01*
X118268911Y-75636670D01*
X118268914Y-75636665D01*
X118268919Y-75636661D01*
X118408611Y-75454612D01*
X118523344Y-75255888D01*
X118611158Y-75043887D01*
X118670548Y-74822238D01*
X118700500Y-74594734D01*
X118700500Y-74565258D01*
X135202833Y-74565258D01*
X135202833Y-74794741D01*
X135206454Y-74822240D01*
X135232785Y-75022238D01*
X135232786Y-75022240D01*
X135292175Y-75243887D01*
X135379983Y-75455876D01*
X135379990Y-75455890D01*
X135494725Y-75654617D01*
X135634414Y-75836661D01*
X135634422Y-75836670D01*
X135796663Y-75998911D01*
X135796671Y-75998918D01*
X135978715Y-76138607D01*
X135978718Y-76138608D01*
X135978721Y-76138611D01*
X136177445Y-76253344D01*
X136177450Y-76253346D01*
X136177456Y-76253349D01*
X136268813Y-76291190D01*
X136389446Y-76341158D01*
X136611095Y-76400548D01*
X136838599Y-76430500D01*
X136838606Y-76430500D01*
X137068060Y-76430500D01*
X137068067Y-76430500D01*
X137295571Y-76400548D01*
X137517220Y-76341158D01*
X137729221Y-76253344D01*
X137927945Y-76138611D01*
X138109994Y-75998919D01*
X138109998Y-75998914D01*
X138110003Y-75998911D01*
X138272244Y-75836670D01*
X138272247Y-75836665D01*
X138272252Y-75836661D01*
X138411944Y-75654612D01*
X138526677Y-75455888D01*
X138614491Y-75243887D01*
X138673881Y-75022238D01*
X138703833Y-74794734D01*
X138703833Y-74765258D01*
X155206167Y-74765258D01*
X155206167Y-74994741D01*
X155209788Y-75022240D01*
X155236119Y-75222238D01*
X155245136Y-75255890D01*
X155295509Y-75443887D01*
X155383317Y-75655876D01*
X155383324Y-75655890D01*
X155498059Y-75854617D01*
X155637748Y-76036661D01*
X155637756Y-76036670D01*
X155799997Y-76198911D01*
X155800005Y-76198918D01*
X155800006Y-76198919D01*
X155802129Y-76200548D01*
X155982049Y-76338607D01*
X155982052Y-76338608D01*
X155982055Y-76338611D01*
X156180779Y-76453344D01*
X156180784Y-76453346D01*
X156180790Y-76453349D01*
X156272147Y-76491190D01*
X156392780Y-76541158D01*
X156614429Y-76600548D01*
X156841933Y-76630500D01*
X156841940Y-76630500D01*
X157071394Y-76630500D01*
X157071401Y-76630500D01*
X157298905Y-76600548D01*
X157520554Y-76541158D01*
X157732555Y-76453344D01*
X157931279Y-76338611D01*
X158113328Y-76198919D01*
X158113332Y-76198914D01*
X158113337Y-76198911D01*
X158275578Y-76036670D01*
X158275581Y-76036665D01*
X158275586Y-76036661D01*
X158415278Y-75854612D01*
X158530011Y-75655888D01*
X158617825Y-75443887D01*
X158677215Y-75222238D01*
X158707167Y-74994734D01*
X158707167Y-74965258D01*
X175209500Y-74965258D01*
X175209500Y-75194741D01*
X175217551Y-75255888D01*
X175239452Y-75422238D01*
X175248469Y-75455890D01*
X175298842Y-75643887D01*
X175386650Y-75855876D01*
X175386657Y-75855890D01*
X175501392Y-76054617D01*
X175641081Y-76236661D01*
X175641089Y-76236670D01*
X175803330Y-76398911D01*
X175803338Y-76398918D01*
X175803339Y-76398919D01*
X175805462Y-76400548D01*
X175985382Y-76538607D01*
X175985385Y-76538608D01*
X175985388Y-76538611D01*
X176184112Y-76653344D01*
X176184117Y-76653346D01*
X176184123Y-76653349D01*
X176275480Y-76691190D01*
X176396113Y-76741158D01*
X176617762Y-76800548D01*
X176845266Y-76830500D01*
X176845273Y-76830500D01*
X177074727Y-76830500D01*
X177074734Y-76830500D01*
X177302238Y-76800548D01*
X177523887Y-76741158D01*
X177735888Y-76653344D01*
X177934612Y-76538611D01*
X178116661Y-76398919D01*
X178116665Y-76398914D01*
X178116670Y-76398911D01*
X178278911Y-76236670D01*
X178278914Y-76236665D01*
X178278919Y-76236661D01*
X178418611Y-76054612D01*
X178533344Y-75855888D01*
X178621158Y-75643887D01*
X178680548Y-75422238D01*
X178710500Y-75194734D01*
X178710500Y-74965266D01*
X178680548Y-74737762D01*
X178621158Y-74516113D01*
X178571190Y-74395480D01*
X178533349Y-74304123D01*
X178533346Y-74304117D01*
X178533344Y-74304112D01*
X178418611Y-74105388D01*
X178418608Y-74105385D01*
X178418607Y-74105382D01*
X178278918Y-73923338D01*
X178278911Y-73923330D01*
X178116670Y-73761089D01*
X178116661Y-73761081D01*
X177934617Y-73621392D01*
X177735890Y-73506657D01*
X177735876Y-73506650D01*
X177523887Y-73418842D01*
X177302238Y-73359452D01*
X177264215Y-73354446D01*
X177074741Y-73329500D01*
X177074734Y-73329500D01*
X176845266Y-73329500D01*
X176845258Y-73329500D01*
X176628715Y-73358009D01*
X176617762Y-73359452D01*
X176611653Y-73361089D01*
X176396112Y-73418842D01*
X176184123Y-73506650D01*
X176184109Y-73506657D01*
X175985382Y-73621392D01*
X175803338Y-73761081D01*
X175641081Y-73923338D01*
X175501392Y-74105382D01*
X175386657Y-74304109D01*
X175386650Y-74304123D01*
X175298842Y-74516112D01*
X175239453Y-74737759D01*
X175239451Y-74737770D01*
X175209500Y-74965258D01*
X158707167Y-74965258D01*
X158707167Y-74765266D01*
X158677215Y-74537762D01*
X158617825Y-74316113D01*
X158543953Y-74137770D01*
X158530016Y-74104123D01*
X158530013Y-74104117D01*
X158530011Y-74104112D01*
X158415278Y-73905388D01*
X158415275Y-73905385D01*
X158415274Y-73905382D01*
X158275585Y-73723338D01*
X158275578Y-73723330D01*
X158113337Y-73561089D01*
X158113328Y-73561081D01*
X157931284Y-73421392D01*
X157732557Y-73306657D01*
X157732543Y-73306650D01*
X157520554Y-73218842D01*
X157298905Y-73159452D01*
X157260882Y-73154446D01*
X157071408Y-73129500D01*
X157071401Y-73129500D01*
X156841933Y-73129500D01*
X156841925Y-73129500D01*
X156625382Y-73158009D01*
X156614429Y-73159452D01*
X156608320Y-73161089D01*
X156392779Y-73218842D01*
X156180790Y-73306650D01*
X156180776Y-73306657D01*
X155982049Y-73421392D01*
X155800005Y-73561081D01*
X155637748Y-73723338D01*
X155498059Y-73905382D01*
X155383324Y-74104109D01*
X155383317Y-74104123D01*
X155295509Y-74316112D01*
X155236120Y-74537759D01*
X155236118Y-74537770D01*
X155206167Y-74765258D01*
X138703833Y-74765258D01*
X138703833Y-74565266D01*
X138673881Y-74337762D01*
X138614491Y-74116113D01*
X138534641Y-73923338D01*
X138526682Y-73904123D01*
X138526679Y-73904117D01*
X138526677Y-73904112D01*
X138411944Y-73705388D01*
X138411941Y-73705385D01*
X138411940Y-73705382D01*
X138272251Y-73523338D01*
X138272244Y-73523330D01*
X138110003Y-73361089D01*
X138109994Y-73361081D01*
X137927950Y-73221392D01*
X137729223Y-73106657D01*
X137729209Y-73106650D01*
X137517220Y-73018842D01*
X137295571Y-72959452D01*
X137257548Y-72954446D01*
X137068074Y-72929500D01*
X137068067Y-72929500D01*
X136838599Y-72929500D01*
X136838591Y-72929500D01*
X136622048Y-72958009D01*
X136611095Y-72959452D01*
X136517409Y-72984554D01*
X136389445Y-73018842D01*
X136177456Y-73106650D01*
X136177442Y-73106657D01*
X135978715Y-73221392D01*
X135796671Y-73361081D01*
X135634414Y-73523338D01*
X135494725Y-73705382D01*
X135379990Y-73904109D01*
X135379983Y-73904123D01*
X135292175Y-74116112D01*
X135257887Y-74244076D01*
X135241799Y-74304123D01*
X135232786Y-74337759D01*
X135232784Y-74337770D01*
X135202833Y-74565258D01*
X118700500Y-74565258D01*
X118700500Y-74365266D01*
X118670548Y-74137762D01*
X118611158Y-73916113D01*
X118546945Y-73761089D01*
X118523349Y-73704123D01*
X118523346Y-73704117D01*
X118523344Y-73704112D01*
X118408611Y-73505388D01*
X118408608Y-73505385D01*
X118408607Y-73505382D01*
X118296629Y-73359451D01*
X118268919Y-73323339D01*
X118268918Y-73323338D01*
X118268911Y-73323330D01*
X118106670Y-73161089D01*
X118106661Y-73161081D01*
X117924617Y-73021392D01*
X117725890Y-72906657D01*
X117725876Y-72906650D01*
X117513887Y-72818842D01*
X117292238Y-72759452D01*
X117254215Y-72754446D01*
X117064741Y-72729500D01*
X117064734Y-72729500D01*
X116835266Y-72729500D01*
X116835258Y-72729500D01*
X116618715Y-72758009D01*
X116607762Y-72759452D01*
X116514076Y-72784554D01*
X116386112Y-72818842D01*
X116174123Y-72906650D01*
X116174109Y-72906657D01*
X115975382Y-73021392D01*
X115793338Y-73161081D01*
X115631081Y-73323338D01*
X115491392Y-73505382D01*
X115376657Y-73704109D01*
X115376650Y-73704123D01*
X115288842Y-73916112D01*
X115254554Y-74044076D01*
X115235994Y-74113349D01*
X115229453Y-74137759D01*
X115229451Y-74137770D01*
X115199500Y-74365258D01*
X103400500Y-74365258D01*
X103400500Y-71825258D01*
X121549500Y-71825258D01*
X121549500Y-72054741D01*
X121571950Y-72225258D01*
X121579452Y-72282238D01*
X121625670Y-72454727D01*
X121638842Y-72503887D01*
X121726650Y-72715876D01*
X121726657Y-72715890D01*
X121841392Y-72914617D01*
X121981081Y-73096661D01*
X121981089Y-73096670D01*
X122143330Y-73258911D01*
X122143338Y-73258918D01*
X122325382Y-73398607D01*
X122325385Y-73398608D01*
X122325388Y-73398611D01*
X122524112Y-73513344D01*
X122524117Y-73513346D01*
X122524123Y-73513349D01*
X122615480Y-73551190D01*
X122736113Y-73601158D01*
X122957762Y-73660548D01*
X123185266Y-73690500D01*
X123185273Y-73690500D01*
X123414727Y-73690500D01*
X123414734Y-73690500D01*
X123642238Y-73660548D01*
X123863887Y-73601158D01*
X124075888Y-73513344D01*
X124274612Y-73398611D01*
X124456661Y-73258919D01*
X124456665Y-73258914D01*
X124456670Y-73258911D01*
X124618911Y-73096670D01*
X124618914Y-73096665D01*
X124618919Y-73096661D01*
X124758611Y-72914612D01*
X124873344Y-72715888D01*
X124961158Y-72503887D01*
X125020548Y-72282238D01*
X125050500Y-72054734D01*
X125050500Y-72025258D01*
X141552833Y-72025258D01*
X141552833Y-72254741D01*
X141556454Y-72282240D01*
X141582785Y-72482238D01*
X141582786Y-72482240D01*
X141642175Y-72703887D01*
X141729983Y-72915876D01*
X141729990Y-72915890D01*
X141844725Y-73114617D01*
X141984414Y-73296661D01*
X141984422Y-73296670D01*
X142146663Y-73458911D01*
X142146671Y-73458918D01*
X142328715Y-73598607D01*
X142328718Y-73598608D01*
X142328721Y-73598611D01*
X142527445Y-73713344D01*
X142527450Y-73713346D01*
X142527456Y-73713349D01*
X142618813Y-73751190D01*
X142739446Y-73801158D01*
X142961095Y-73860548D01*
X143188599Y-73890500D01*
X143188606Y-73890500D01*
X143418060Y-73890500D01*
X143418067Y-73890500D01*
X143645571Y-73860548D01*
X143867220Y-73801158D01*
X144079221Y-73713344D01*
X144277945Y-73598611D01*
X144459994Y-73458919D01*
X144459998Y-73458914D01*
X144460003Y-73458911D01*
X144622244Y-73296670D01*
X144622247Y-73296665D01*
X144622252Y-73296661D01*
X144761944Y-73114612D01*
X144876677Y-72915888D01*
X144964491Y-72703887D01*
X145023881Y-72482238D01*
X145053833Y-72254734D01*
X145053833Y-72225258D01*
X161556167Y-72225258D01*
X161556167Y-72454741D01*
X161559788Y-72482240D01*
X161586119Y-72682238D01*
X161622722Y-72818842D01*
X161645509Y-72903887D01*
X161733317Y-73115876D01*
X161733324Y-73115890D01*
X161848059Y-73314617D01*
X161987748Y-73496661D01*
X161987756Y-73496670D01*
X162149997Y-73658911D01*
X162150005Y-73658918D01*
X162150006Y-73658919D01*
X162152129Y-73660548D01*
X162332049Y-73798607D01*
X162332052Y-73798608D01*
X162332055Y-73798611D01*
X162530779Y-73913344D01*
X162530784Y-73913346D01*
X162530790Y-73913349D01*
X162622147Y-73951190D01*
X162742780Y-74001158D01*
X162964429Y-74060548D01*
X163191933Y-74090500D01*
X163191940Y-74090500D01*
X163421394Y-74090500D01*
X163421401Y-74090500D01*
X163648905Y-74060548D01*
X163870554Y-74001158D01*
X164082555Y-73913344D01*
X164281279Y-73798611D01*
X164463328Y-73658919D01*
X164463332Y-73658914D01*
X164463337Y-73658911D01*
X164625578Y-73496670D01*
X164625581Y-73496665D01*
X164625586Y-73496661D01*
X164765278Y-73314612D01*
X164880011Y-73115888D01*
X164967825Y-72903887D01*
X165027215Y-72682238D01*
X165057167Y-72454734D01*
X165057167Y-72425258D01*
X181559500Y-72425258D01*
X181559500Y-72654741D01*
X181584446Y-72844215D01*
X181589452Y-72882238D01*
X181626055Y-73018842D01*
X181648842Y-73103887D01*
X181736650Y-73315876D01*
X181736657Y-73315890D01*
X181851392Y-73514617D01*
X181991081Y-73696661D01*
X181991089Y-73696670D01*
X182153330Y-73858911D01*
X182153338Y-73858918D01*
X182153339Y-73858919D01*
X182155462Y-73860548D01*
X182335382Y-73998607D01*
X182335385Y-73998608D01*
X182335388Y-73998611D01*
X182534112Y-74113344D01*
X182534117Y-74113346D01*
X182534123Y-74113349D01*
X182593062Y-74137762D01*
X182746113Y-74201158D01*
X182967762Y-74260548D01*
X183195266Y-74290500D01*
X183195273Y-74290500D01*
X183424727Y-74290500D01*
X183424734Y-74290500D01*
X183652238Y-74260548D01*
X183873887Y-74201158D01*
X184085888Y-74113344D01*
X184284612Y-73998611D01*
X184466661Y-73858919D01*
X184466665Y-73858914D01*
X184466670Y-73858911D01*
X184628911Y-73696670D01*
X184628914Y-73696665D01*
X184628919Y-73696661D01*
X184768611Y-73514612D01*
X184883344Y-73315888D01*
X184971158Y-73103887D01*
X185030548Y-72882238D01*
X185060500Y-72654734D01*
X185060500Y-72425266D01*
X185030548Y-72197762D01*
X184971158Y-71976113D01*
X184921190Y-71855480D01*
X184883349Y-71764123D01*
X184883346Y-71764117D01*
X184883344Y-71764112D01*
X184768611Y-71565388D01*
X184768608Y-71565385D01*
X184768607Y-71565382D01*
X184667764Y-71433962D01*
X184628919Y-71383339D01*
X184628918Y-71383338D01*
X184628911Y-71383330D01*
X184558662Y-71313081D01*
X184525177Y-71251758D01*
X184530161Y-71182066D01*
X184572033Y-71126133D01*
X184637497Y-71101716D01*
X184646343Y-71101400D01*
X185093987Y-71101400D01*
X185176995Y-71088252D01*
X185265212Y-71074280D01*
X185430091Y-71020708D01*
X185584560Y-70942002D01*
X185724814Y-70840101D01*
X185847401Y-70717514D01*
X185949302Y-70577260D01*
X186028008Y-70422791D01*
X186081580Y-70257912D01*
X186102950Y-70122987D01*
X186108700Y-70086687D01*
X186108700Y-69913312D01*
X186082376Y-69747116D01*
X186081580Y-69742088D01*
X186028008Y-69577209D01*
X186028008Y-69577208D01*
X185964666Y-69452894D01*
X185949302Y-69422740D01*
X185847401Y-69282486D01*
X185724814Y-69159899D01*
X185584560Y-69057998D01*
X185430091Y-68979291D01*
X185430088Y-68979290D01*
X185265213Y-68925720D01*
X185093987Y-68898600D01*
X185093982Y-68898600D01*
X184472418Y-68898600D01*
X184472413Y-68898600D01*
X184301186Y-68925720D01*
X184136311Y-68979290D01*
X184136308Y-68979291D01*
X183981839Y-69057998D01*
X183959128Y-69074499D01*
X183841586Y-69159899D01*
X183841584Y-69159901D01*
X183841583Y-69159901D01*
X183719001Y-69282483D01*
X183719001Y-69282484D01*
X183718999Y-69282486D01*
X183696598Y-69313318D01*
X183617098Y-69422739D01*
X183538391Y-69577208D01*
X183538390Y-69577211D01*
X183484820Y-69742086D01*
X183457700Y-69913312D01*
X183457700Y-70086687D01*
X183484820Y-70257913D01*
X183538390Y-70422788D01*
X183538391Y-70422791D01*
X183617099Y-70577262D01*
X183638310Y-70606457D01*
X183661789Y-70672263D01*
X183645963Y-70740317D01*
X183595857Y-70789011D01*
X183527379Y-70802886D01*
X183521810Y-70802280D01*
X183509468Y-70800655D01*
X183424741Y-70789500D01*
X183424734Y-70789500D01*
X183195266Y-70789500D01*
X183195258Y-70789500D01*
X182978715Y-70818009D01*
X182967762Y-70819452D01*
X182890709Y-70840098D01*
X182746112Y-70878842D01*
X182534123Y-70966650D01*
X182534109Y-70966657D01*
X182335382Y-71081392D01*
X182153338Y-71221081D01*
X181991081Y-71383338D01*
X181851392Y-71565382D01*
X181736657Y-71764109D01*
X181736650Y-71764123D01*
X181648842Y-71976112D01*
X181589453Y-72197759D01*
X181589451Y-72197770D01*
X181559500Y-72425258D01*
X165057167Y-72425258D01*
X165057167Y-72225266D01*
X165027215Y-71997762D01*
X164967825Y-71776113D01*
X164917857Y-71655480D01*
X164880016Y-71564123D01*
X164880013Y-71564117D01*
X164880011Y-71564112D01*
X164765278Y-71365388D01*
X164765275Y-71365385D01*
X164765274Y-71365382D01*
X164625585Y-71183338D01*
X164625578Y-71183330D01*
X164555329Y-71113081D01*
X164521844Y-71051758D01*
X164526828Y-70982066D01*
X164568700Y-70926133D01*
X164634164Y-70901716D01*
X164643010Y-70901400D01*
X165090654Y-70901400D01*
X165173662Y-70888252D01*
X165261879Y-70874280D01*
X165426758Y-70820708D01*
X165581227Y-70742002D01*
X165721481Y-70640101D01*
X165844068Y-70517514D01*
X165945969Y-70377260D01*
X166024675Y-70222791D01*
X166078247Y-70057912D01*
X166095798Y-69947099D01*
X166101150Y-69913312D01*
X172878600Y-69913312D01*
X172878600Y-70086687D01*
X172905720Y-70257913D01*
X172959290Y-70422788D01*
X172959291Y-70422791D01*
X173020033Y-70542002D01*
X173037998Y-70577260D01*
X173139899Y-70717514D01*
X173262486Y-70840101D01*
X173402740Y-70942002D01*
X173451126Y-70966656D01*
X173557208Y-71020708D01*
X173557211Y-71020709D01*
X173639648Y-71047494D01*
X173722088Y-71074280D01*
X173801391Y-71086840D01*
X173893313Y-71101400D01*
X173893318Y-71101400D01*
X174514887Y-71101400D01*
X174597895Y-71088252D01*
X174686112Y-71074280D01*
X174850991Y-71020708D01*
X175005460Y-70942002D01*
X175145714Y-70840101D01*
X175268301Y-70717514D01*
X175370202Y-70577260D01*
X175448908Y-70422791D01*
X175502480Y-70257912D01*
X175523850Y-70122987D01*
X175529600Y-70086687D01*
X175529600Y-69913312D01*
X175522460Y-69868233D01*
X175520031Y-69852900D01*
X177255600Y-69852900D01*
X177255600Y-70147099D01*
X177255601Y-70147116D01*
X177291454Y-70419453D01*
X177294002Y-70438800D01*
X177364450Y-70701716D01*
X177370152Y-70722994D01*
X177482734Y-70994794D01*
X177482742Y-70994810D01*
X177629840Y-71249589D01*
X177629851Y-71249605D01*
X177808948Y-71483009D01*
X177808954Y-71483016D01*
X178016983Y-71691045D01*
X178016990Y-71691051D01*
X178127844Y-71776112D01*
X178250403Y-71870155D01*
X178250410Y-71870159D01*
X178505189Y-72017257D01*
X178505205Y-72017265D01*
X178777005Y-72129847D01*
X178777007Y-72129847D01*
X178777013Y-72129850D01*
X179061200Y-72205998D01*
X179352894Y-72244400D01*
X179352901Y-72244400D01*
X179647099Y-72244400D01*
X179647106Y-72244400D01*
X179938800Y-72205998D01*
X180222987Y-72129850D01*
X180404318Y-72054741D01*
X180494794Y-72017265D01*
X180494797Y-72017263D01*
X180494803Y-72017261D01*
X180749597Y-71870155D01*
X180983011Y-71691050D01*
X181191050Y-71483011D01*
X181370155Y-71249597D01*
X181517261Y-70994803D01*
X181528920Y-70966657D01*
X181629847Y-70722994D01*
X181629846Y-70722994D01*
X181629850Y-70722987D01*
X181705998Y-70438800D01*
X181744400Y-70147106D01*
X181744400Y-69852894D01*
X181705998Y-69561200D01*
X181629850Y-69277013D01*
X181629847Y-69277005D01*
X181517265Y-69005205D01*
X181517257Y-69005189D01*
X181370159Y-68750410D01*
X181370155Y-68750403D01*
X181258741Y-68605205D01*
X181191051Y-68516990D01*
X181191045Y-68516983D01*
X180983016Y-68308954D01*
X180983009Y-68308948D01*
X180749605Y-68129851D01*
X180749603Y-68129849D01*
X180749597Y-68129845D01*
X180749592Y-68129842D01*
X180749589Y-68129840D01*
X180494810Y-67982742D01*
X180494794Y-67982734D01*
X180222994Y-67870152D01*
X180128566Y-67844850D01*
X179938800Y-67794002D01*
X179938799Y-67794001D01*
X179938796Y-67794001D01*
X179647116Y-67755601D01*
X179647111Y-67755600D01*
X179647106Y-67755600D01*
X179352894Y-67755600D01*
X179352888Y-67755600D01*
X179352883Y-67755601D01*
X179061203Y-67794001D01*
X178777005Y-67870152D01*
X178505205Y-67982734D01*
X178505189Y-67982742D01*
X178250410Y-68129840D01*
X178250394Y-68129851D01*
X178016990Y-68308948D01*
X178016983Y-68308954D01*
X177808954Y-68516983D01*
X177808948Y-68516990D01*
X177629851Y-68750394D01*
X177629840Y-68750410D01*
X177482742Y-69005189D01*
X177482734Y-69005205D01*
X177370152Y-69277005D01*
X177294001Y-69561203D01*
X177255601Y-69852883D01*
X177255600Y-69852900D01*
X175520031Y-69852900D01*
X175503276Y-69747116D01*
X175502480Y-69742088D01*
X175448908Y-69577209D01*
X175448908Y-69577208D01*
X175385566Y-69452894D01*
X175370202Y-69422740D01*
X175268301Y-69282486D01*
X175268292Y-69282477D01*
X175265137Y-69278782D01*
X175266586Y-69277544D01*
X175236983Y-69223330D01*
X175241967Y-69153638D01*
X175283839Y-69097705D01*
X175349303Y-69073288D01*
X175377547Y-69074499D01*
X175560649Y-69103500D01*
X175560654Y-69103500D01*
X175819351Y-69103500D01*
X175975411Y-69078782D01*
X176074854Y-69063032D01*
X176320885Y-68983091D01*
X176551382Y-68865647D01*
X176760668Y-68713592D01*
X176943592Y-68530668D01*
X177095647Y-68321382D01*
X177213091Y-68090885D01*
X177293032Y-67844854D01*
X177317418Y-67690885D01*
X177333500Y-67589351D01*
X177333500Y-67330648D01*
X177305775Y-67155601D01*
X177293032Y-67075146D01*
X177213091Y-66829115D01*
X177095647Y-66598618D01*
X176943592Y-66389332D01*
X176760668Y-66206408D01*
X176551382Y-66054353D01*
X176512277Y-66034428D01*
X176320887Y-65936910D01*
X176320886Y-65936909D01*
X176320885Y-65936909D01*
X176074854Y-65856968D01*
X176074852Y-65856967D01*
X176074850Y-65856967D01*
X175819351Y-65816500D01*
X175819346Y-65816500D01*
X175560654Y-65816500D01*
X175560649Y-65816500D01*
X175305149Y-65856967D01*
X175059112Y-65936910D01*
X174828617Y-66054353D01*
X174619329Y-66206410D01*
X174436410Y-66389329D01*
X174284353Y-66598617D01*
X174166910Y-66829112D01*
X174166909Y-66829114D01*
X174166909Y-66829115D01*
X174151952Y-66875149D01*
X174086967Y-67075149D01*
X174046500Y-67330648D01*
X174046500Y-67589351D01*
X174086967Y-67844850D01*
X174086968Y-67844854D01*
X174166909Y-68090885D01*
X174284353Y-68321382D01*
X174436408Y-68530668D01*
X174436410Y-68530670D01*
X174592659Y-68686919D01*
X174626144Y-68748242D01*
X174621160Y-68817934D01*
X174579288Y-68873867D01*
X174513824Y-68898284D01*
X174504978Y-68898600D01*
X173893313Y-68898600D01*
X173722086Y-68925720D01*
X173557211Y-68979290D01*
X173557208Y-68979291D01*
X173402739Y-69057998D01*
X173380028Y-69074499D01*
X173262486Y-69159899D01*
X173262484Y-69159901D01*
X173262483Y-69159901D01*
X173139901Y-69282483D01*
X173139901Y-69282484D01*
X173139899Y-69282486D01*
X173117498Y-69313318D01*
X173037998Y-69422739D01*
X172959291Y-69577208D01*
X172959290Y-69577211D01*
X172905720Y-69742086D01*
X172878600Y-69913312D01*
X166101150Y-69913312D01*
X166104993Y-69889048D01*
X166104993Y-69889046D01*
X166105367Y-69886684D01*
X166105367Y-69713312D01*
X166083810Y-69577211D01*
X166078247Y-69542088D01*
X166039469Y-69422740D01*
X166024676Y-69377211D01*
X166024675Y-69377208D01*
X165973893Y-69277544D01*
X165945969Y-69222740D01*
X165844068Y-69082486D01*
X165721481Y-68959899D01*
X165581227Y-68857998D01*
X165426758Y-68779291D01*
X165426755Y-68779290D01*
X165261880Y-68725720D01*
X165090654Y-68698600D01*
X165090649Y-68698600D01*
X164469085Y-68698600D01*
X164469080Y-68698600D01*
X164297853Y-68725720D01*
X164132978Y-68779290D01*
X164132975Y-68779291D01*
X163978506Y-68857998D01*
X163956665Y-68873867D01*
X163838253Y-68959899D01*
X163838251Y-68959901D01*
X163838250Y-68959901D01*
X163715668Y-69082483D01*
X163715668Y-69082484D01*
X163715666Y-69082486D01*
X163672364Y-69142086D01*
X163613765Y-69222739D01*
X163535058Y-69377208D01*
X163535057Y-69377211D01*
X163481487Y-69542086D01*
X163454367Y-69713312D01*
X163454367Y-69886687D01*
X163481487Y-70057913D01*
X163535057Y-70222788D01*
X163535058Y-70222791D01*
X163613766Y-70377262D01*
X163634977Y-70406457D01*
X163658456Y-70472263D01*
X163642630Y-70540317D01*
X163592524Y-70589011D01*
X163524046Y-70602886D01*
X163518477Y-70602280D01*
X163506135Y-70600655D01*
X163421408Y-70589500D01*
X163421401Y-70589500D01*
X163191933Y-70589500D01*
X163191925Y-70589500D01*
X162975382Y-70618009D01*
X162964429Y-70619452D01*
X162887376Y-70640098D01*
X162742779Y-70678842D01*
X162530790Y-70766650D01*
X162530776Y-70766657D01*
X162332049Y-70881392D01*
X162150005Y-71021081D01*
X161987748Y-71183338D01*
X161848059Y-71365382D01*
X161733324Y-71564109D01*
X161733317Y-71564123D01*
X161645509Y-71776112D01*
X161586120Y-71997759D01*
X161586118Y-71997770D01*
X161556167Y-72225258D01*
X145053833Y-72225258D01*
X145053833Y-72025266D01*
X145023881Y-71797762D01*
X144964491Y-71576113D01*
X144898692Y-71417261D01*
X144876682Y-71364123D01*
X144876679Y-71364117D01*
X144876677Y-71364112D01*
X144761944Y-71165388D01*
X144761941Y-71165385D01*
X144761940Y-71165382D01*
X144622251Y-70983338D01*
X144622244Y-70983330D01*
X144551995Y-70913081D01*
X144518510Y-70851758D01*
X144523494Y-70782066D01*
X144565366Y-70726133D01*
X144630830Y-70701716D01*
X144639676Y-70701400D01*
X145087320Y-70701400D01*
X145170328Y-70688252D01*
X145258545Y-70674280D01*
X145423424Y-70620708D01*
X145577893Y-70542002D01*
X145718147Y-70440101D01*
X145840734Y-70317514D01*
X145942635Y-70177260D01*
X146021341Y-70022791D01*
X146074913Y-69857912D01*
X146093258Y-69742086D01*
X146097816Y-69713312D01*
X152875267Y-69713312D01*
X152875267Y-69886687D01*
X152902387Y-70057913D01*
X152955957Y-70222788D01*
X152955958Y-70222791D01*
X153016700Y-70342002D01*
X153034665Y-70377260D01*
X153136566Y-70517514D01*
X153259153Y-70640101D01*
X153399407Y-70742002D01*
X153447793Y-70766656D01*
X153553875Y-70820708D01*
X153553878Y-70820709D01*
X153613562Y-70840101D01*
X153718755Y-70874280D01*
X153798058Y-70886840D01*
X153889980Y-70901400D01*
X153889985Y-70901400D01*
X154511554Y-70901400D01*
X154594562Y-70888252D01*
X154682779Y-70874280D01*
X154847658Y-70820708D01*
X155002127Y-70742002D01*
X155142381Y-70640101D01*
X155264968Y-70517514D01*
X155366869Y-70377260D01*
X155445575Y-70222791D01*
X155499147Y-70057912D01*
X155516698Y-69947099D01*
X155526267Y-69886687D01*
X155526267Y-69713312D01*
X155519127Y-69668233D01*
X155516698Y-69652900D01*
X157252267Y-69652900D01*
X157252267Y-69947099D01*
X157252268Y-69947116D01*
X157288121Y-70219453D01*
X157290669Y-70238800D01*
X157361117Y-70501716D01*
X157366819Y-70522994D01*
X157479401Y-70794794D01*
X157479409Y-70794810D01*
X157626507Y-71049589D01*
X157626518Y-71049605D01*
X157805615Y-71283009D01*
X157805621Y-71283016D01*
X158013650Y-71491045D01*
X158013657Y-71491051D01*
X158110527Y-71565382D01*
X158247070Y-71670155D01*
X158247077Y-71670159D01*
X158501856Y-71817257D01*
X158501872Y-71817265D01*
X158773672Y-71929847D01*
X158773674Y-71929847D01*
X158773680Y-71929850D01*
X159057867Y-72005998D01*
X159349561Y-72044400D01*
X159349568Y-72044400D01*
X159643766Y-72044400D01*
X159643773Y-72044400D01*
X159935467Y-72005998D01*
X160219654Y-71929850D01*
X160363772Y-71870155D01*
X160491461Y-71817265D01*
X160491464Y-71817263D01*
X160491470Y-71817261D01*
X160746264Y-71670155D01*
X160979678Y-71491050D01*
X161187717Y-71283011D01*
X161366822Y-71049597D01*
X161513928Y-70794803D01*
X161525587Y-70766657D01*
X161626514Y-70522994D01*
X161626513Y-70522994D01*
X161626517Y-70522987D01*
X161702665Y-70238800D01*
X161741067Y-69947106D01*
X161741067Y-69652894D01*
X161702665Y-69361200D01*
X161626517Y-69077013D01*
X161604037Y-69022740D01*
X161513932Y-68805205D01*
X161513924Y-68805189D01*
X161366826Y-68550410D01*
X161366822Y-68550403D01*
X161255408Y-68405205D01*
X161187718Y-68316990D01*
X161187712Y-68316983D01*
X160979683Y-68108954D01*
X160979676Y-68108948D01*
X160746272Y-67929851D01*
X160746270Y-67929849D01*
X160746264Y-67929845D01*
X160746259Y-67929842D01*
X160746256Y-67929840D01*
X160491477Y-67782742D01*
X160491461Y-67782734D01*
X160219661Y-67670152D01*
X160125233Y-67644850D01*
X159935467Y-67594002D01*
X159935466Y-67594001D01*
X159935463Y-67594001D01*
X159643783Y-67555601D01*
X159643778Y-67555600D01*
X159643773Y-67555600D01*
X159349561Y-67555600D01*
X159349555Y-67555600D01*
X159349550Y-67555601D01*
X159057870Y-67594001D01*
X158773672Y-67670152D01*
X158501872Y-67782734D01*
X158501856Y-67782742D01*
X158247077Y-67929840D01*
X158247061Y-67929851D01*
X158013657Y-68108948D01*
X158013650Y-68108954D01*
X157805621Y-68316983D01*
X157805615Y-68316990D01*
X157626518Y-68550394D01*
X157626507Y-68550410D01*
X157479409Y-68805189D01*
X157479401Y-68805205D01*
X157366819Y-69077005D01*
X157290668Y-69361203D01*
X157252268Y-69652883D01*
X157252267Y-69652900D01*
X155516698Y-69652900D01*
X155504710Y-69577211D01*
X155499147Y-69542088D01*
X155460369Y-69422740D01*
X155445576Y-69377211D01*
X155445575Y-69377208D01*
X155394793Y-69277544D01*
X155366869Y-69222740D01*
X155264968Y-69082486D01*
X155264959Y-69082477D01*
X155261804Y-69078782D01*
X155263253Y-69077544D01*
X155233650Y-69023330D01*
X155238634Y-68953638D01*
X155280506Y-68897705D01*
X155345970Y-68873288D01*
X155374214Y-68874499D01*
X155557316Y-68903500D01*
X155557321Y-68903500D01*
X155816018Y-68903500D01*
X155972078Y-68878782D01*
X156071521Y-68863032D01*
X156317552Y-68783091D01*
X156548049Y-68665647D01*
X156757335Y-68513592D01*
X156940259Y-68330668D01*
X157092314Y-68121382D01*
X157209758Y-67890885D01*
X157289699Y-67644854D01*
X157313112Y-67497027D01*
X157330167Y-67389351D01*
X157330167Y-67130648D01*
X157298490Y-66930654D01*
X157289699Y-66875146D01*
X157209758Y-66629115D01*
X157092314Y-66398618D01*
X156940259Y-66189332D01*
X156757335Y-66006408D01*
X156548049Y-65854353D01*
X156473758Y-65816500D01*
X156317554Y-65736910D01*
X156317553Y-65736909D01*
X156317552Y-65736909D01*
X156071521Y-65656968D01*
X156071519Y-65656967D01*
X156071517Y-65656967D01*
X155816018Y-65616500D01*
X155816013Y-65616500D01*
X155557321Y-65616500D01*
X155557316Y-65616500D01*
X155301816Y-65656967D01*
X155055779Y-65736910D01*
X154825284Y-65854353D01*
X154615996Y-66006410D01*
X154433077Y-66189329D01*
X154281020Y-66398617D01*
X154163577Y-66629112D01*
X154163576Y-66629114D01*
X154163576Y-66629115D01*
X154148619Y-66675149D01*
X154083634Y-66875149D01*
X154043167Y-67130648D01*
X154043167Y-67389351D01*
X154077385Y-67605393D01*
X154083635Y-67644854D01*
X154163576Y-67890885D01*
X154281020Y-68121382D01*
X154433075Y-68330668D01*
X154433077Y-68330670D01*
X154589326Y-68486919D01*
X154622811Y-68548242D01*
X154617827Y-68617934D01*
X154575955Y-68673867D01*
X154510491Y-68698284D01*
X154501645Y-68698600D01*
X153889980Y-68698600D01*
X153718753Y-68725720D01*
X153553878Y-68779290D01*
X153553875Y-68779291D01*
X153399406Y-68857998D01*
X153377565Y-68873867D01*
X153259153Y-68959899D01*
X153259151Y-68959901D01*
X153259150Y-68959901D01*
X153136568Y-69082483D01*
X153136568Y-69082484D01*
X153136566Y-69082486D01*
X153093264Y-69142086D01*
X153034665Y-69222739D01*
X152955958Y-69377208D01*
X152955957Y-69377211D01*
X152902387Y-69542086D01*
X152875267Y-69713312D01*
X146097816Y-69713312D01*
X146101659Y-69689048D01*
X146101659Y-69689046D01*
X146102033Y-69686684D01*
X146102033Y-69513312D01*
X146080476Y-69377211D01*
X146074913Y-69342088D01*
X146045929Y-69252883D01*
X146021342Y-69177211D01*
X146021341Y-69177208D01*
X145970559Y-69077544D01*
X145942635Y-69022740D01*
X145840734Y-68882486D01*
X145718147Y-68759899D01*
X145577893Y-68657998D01*
X145423424Y-68579291D01*
X145423421Y-68579290D01*
X145258546Y-68525720D01*
X145087320Y-68498600D01*
X145087315Y-68498600D01*
X144465751Y-68498600D01*
X144465746Y-68498600D01*
X144294519Y-68525720D01*
X144129644Y-68579290D01*
X144129641Y-68579291D01*
X143975172Y-68657998D01*
X143920521Y-68697705D01*
X143834919Y-68759899D01*
X143834917Y-68759901D01*
X143834916Y-68759901D01*
X143712334Y-68882483D01*
X143712334Y-68882484D01*
X143712332Y-68882486D01*
X143680921Y-68925720D01*
X143610431Y-69022739D01*
X143531724Y-69177208D01*
X143531723Y-69177211D01*
X143478153Y-69342086D01*
X143451033Y-69513312D01*
X143451033Y-69686687D01*
X143478153Y-69857913D01*
X143531723Y-70022788D01*
X143531724Y-70022791D01*
X143610432Y-70177262D01*
X143631643Y-70206457D01*
X143655122Y-70272263D01*
X143639296Y-70340317D01*
X143589190Y-70389011D01*
X143520712Y-70402886D01*
X143515143Y-70402280D01*
X143502801Y-70400655D01*
X143418074Y-70389500D01*
X143418067Y-70389500D01*
X143188599Y-70389500D01*
X143188591Y-70389500D01*
X142972048Y-70418009D01*
X142961095Y-70419452D01*
X142884042Y-70440098D01*
X142739445Y-70478842D01*
X142527456Y-70566650D01*
X142527442Y-70566657D01*
X142328715Y-70681392D01*
X142146671Y-70821081D01*
X141984414Y-70983338D01*
X141844725Y-71165382D01*
X141729990Y-71364109D01*
X141729983Y-71364123D01*
X141642175Y-71576112D01*
X141631148Y-71617265D01*
X141591799Y-71764123D01*
X141582786Y-71797759D01*
X141582784Y-71797770D01*
X141552833Y-72025258D01*
X125050500Y-72025258D01*
X125050500Y-71825266D01*
X125020548Y-71597762D01*
X124961158Y-71376113D01*
X124909648Y-71251758D01*
X124873349Y-71164123D01*
X124873346Y-71164117D01*
X124873344Y-71164112D01*
X124758611Y-70965388D01*
X124758608Y-70965385D01*
X124758607Y-70965382D01*
X124627709Y-70794794D01*
X124618919Y-70783339D01*
X124618918Y-70783338D01*
X124618911Y-70783330D01*
X124548662Y-70713081D01*
X124515177Y-70651758D01*
X124520161Y-70582066D01*
X124562033Y-70526133D01*
X124627497Y-70501716D01*
X124636343Y-70501400D01*
X125083987Y-70501400D01*
X125166995Y-70488252D01*
X125255212Y-70474280D01*
X125420091Y-70420708D01*
X125574560Y-70342002D01*
X125714814Y-70240101D01*
X125837401Y-70117514D01*
X125939302Y-69977260D01*
X126018008Y-69822791D01*
X126071580Y-69657912D01*
X126089925Y-69542086D01*
X126094483Y-69513312D01*
X132871933Y-69513312D01*
X132871933Y-69686687D01*
X132899053Y-69857913D01*
X132952623Y-70022788D01*
X132952624Y-70022791D01*
X133015963Y-70147099D01*
X133031331Y-70177260D01*
X133133232Y-70317514D01*
X133255819Y-70440101D01*
X133396073Y-70542002D01*
X133444459Y-70566656D01*
X133550541Y-70620708D01*
X133550544Y-70620709D01*
X133610228Y-70640101D01*
X133715421Y-70674280D01*
X133794724Y-70686840D01*
X133886646Y-70701400D01*
X133886651Y-70701400D01*
X134508220Y-70701400D01*
X134591228Y-70688252D01*
X134679445Y-70674280D01*
X134844324Y-70620708D01*
X134998793Y-70542002D01*
X135139047Y-70440101D01*
X135261634Y-70317514D01*
X135363535Y-70177260D01*
X135442241Y-70022791D01*
X135495813Y-69857912D01*
X135514158Y-69742086D01*
X135522933Y-69686687D01*
X135522933Y-69513312D01*
X135515793Y-69468233D01*
X135513364Y-69452900D01*
X137248933Y-69452900D01*
X137248933Y-69747099D01*
X137248934Y-69747116D01*
X137275264Y-69947116D01*
X137287335Y-70038800D01*
X137357081Y-70299096D01*
X137363485Y-70322994D01*
X137476067Y-70594794D01*
X137476075Y-70594810D01*
X137623173Y-70849589D01*
X137623184Y-70849605D01*
X137802281Y-71083009D01*
X137802287Y-71083016D01*
X138010316Y-71291045D01*
X138010323Y-71291051D01*
X138130594Y-71383338D01*
X138243736Y-71470155D01*
X138243743Y-71470159D01*
X138498522Y-71617257D01*
X138498538Y-71617265D01*
X138770338Y-71729847D01*
X138770340Y-71729847D01*
X138770346Y-71729850D01*
X139054533Y-71805998D01*
X139346227Y-71844400D01*
X139346234Y-71844400D01*
X139640432Y-71844400D01*
X139640439Y-71844400D01*
X139932133Y-71805998D01*
X140216320Y-71729850D01*
X140360438Y-71670155D01*
X140488127Y-71617265D01*
X140488130Y-71617263D01*
X140488136Y-71617261D01*
X140742930Y-71470155D01*
X140976344Y-71291050D01*
X141184383Y-71083011D01*
X141363488Y-70849597D01*
X141510594Y-70594803D01*
X141517861Y-70577260D01*
X141623180Y-70322994D01*
X141623179Y-70322994D01*
X141623183Y-70322987D01*
X141699331Y-70038800D01*
X141737733Y-69747106D01*
X141737733Y-69452894D01*
X141699331Y-69161200D01*
X141623183Y-68877013D01*
X141600703Y-68822740D01*
X141510598Y-68605205D01*
X141510590Y-68605189D01*
X141363492Y-68350410D01*
X141363488Y-68350403D01*
X141210028Y-68150410D01*
X141184384Y-68116990D01*
X141184378Y-68116983D01*
X140976349Y-67908954D01*
X140976342Y-67908948D01*
X140742938Y-67729851D01*
X140742936Y-67729849D01*
X140742930Y-67729845D01*
X140742925Y-67729842D01*
X140742922Y-67729840D01*
X140488143Y-67582742D01*
X140488127Y-67582734D01*
X140216327Y-67470152D01*
X140121899Y-67444850D01*
X139932133Y-67394002D01*
X139932132Y-67394001D01*
X139932129Y-67394001D01*
X139640449Y-67355601D01*
X139640444Y-67355600D01*
X139640439Y-67355600D01*
X139346227Y-67355600D01*
X139346221Y-67355600D01*
X139346216Y-67355601D01*
X139054536Y-67394001D01*
X138770338Y-67470152D01*
X138498538Y-67582734D01*
X138498522Y-67582742D01*
X138243743Y-67729840D01*
X138243727Y-67729851D01*
X138010323Y-67908948D01*
X138010316Y-67908954D01*
X137802287Y-68116983D01*
X137802281Y-68116990D01*
X137623184Y-68350394D01*
X137623173Y-68350410D01*
X137476075Y-68605189D01*
X137476067Y-68605205D01*
X137363485Y-68877005D01*
X137287334Y-69161203D01*
X137248934Y-69452883D01*
X137248933Y-69452900D01*
X135513364Y-69452900D01*
X135501376Y-69377211D01*
X135495813Y-69342088D01*
X135466829Y-69252883D01*
X135442242Y-69177211D01*
X135442241Y-69177208D01*
X135391459Y-69077544D01*
X135363535Y-69022740D01*
X135261634Y-68882486D01*
X135261625Y-68882477D01*
X135258470Y-68878782D01*
X135259919Y-68877544D01*
X135230316Y-68823330D01*
X135235300Y-68753638D01*
X135277172Y-68697705D01*
X135342636Y-68673288D01*
X135370880Y-68674499D01*
X135553982Y-68703500D01*
X135553987Y-68703500D01*
X135812684Y-68703500D01*
X135968744Y-68678782D01*
X136068187Y-68663032D01*
X136314218Y-68583091D01*
X136544715Y-68465647D01*
X136754001Y-68313592D01*
X136936925Y-68130668D01*
X137088980Y-67921382D01*
X137206424Y-67690885D01*
X137286365Y-67444854D01*
X137309778Y-67297027D01*
X137326833Y-67189351D01*
X137326833Y-66930648D01*
X137295156Y-66730654D01*
X137286365Y-66675146D01*
X137206424Y-66429115D01*
X137088980Y-66198618D01*
X136936925Y-65989332D01*
X136754001Y-65806408D01*
X136544715Y-65654353D01*
X136470424Y-65616500D01*
X136314220Y-65536910D01*
X136314219Y-65536909D01*
X136314218Y-65536909D01*
X136068187Y-65456968D01*
X136068185Y-65456967D01*
X136068183Y-65456967D01*
X135812684Y-65416500D01*
X135812679Y-65416500D01*
X135553987Y-65416500D01*
X135553982Y-65416500D01*
X135298482Y-65456967D01*
X135052445Y-65536910D01*
X134821950Y-65654353D01*
X134612662Y-65806410D01*
X134429743Y-65989329D01*
X134277686Y-66198617D01*
X134160243Y-66429112D01*
X134160242Y-66429114D01*
X134160242Y-66429115D01*
X134145285Y-66475149D01*
X134080300Y-66675149D01*
X134039833Y-66930648D01*
X134039833Y-67189351D01*
X134074051Y-67405393D01*
X134080301Y-67444854D01*
X134160242Y-67690885D01*
X134277686Y-67921382D01*
X134429741Y-68130668D01*
X134429743Y-68130670D01*
X134585992Y-68286919D01*
X134619477Y-68348242D01*
X134614493Y-68417934D01*
X134572621Y-68473867D01*
X134507157Y-68498284D01*
X134498311Y-68498600D01*
X133886646Y-68498600D01*
X133715419Y-68525720D01*
X133550544Y-68579290D01*
X133550541Y-68579291D01*
X133396072Y-68657998D01*
X133341421Y-68697705D01*
X133255819Y-68759899D01*
X133255817Y-68759901D01*
X133255816Y-68759901D01*
X133133234Y-68882483D01*
X133133234Y-68882484D01*
X133133232Y-68882486D01*
X133101821Y-68925720D01*
X133031331Y-69022739D01*
X132952624Y-69177208D01*
X132952623Y-69177211D01*
X132899053Y-69342086D01*
X132871933Y-69513312D01*
X126094483Y-69513312D01*
X126098326Y-69489048D01*
X126098326Y-69489046D01*
X126098700Y-69486684D01*
X126098700Y-69313312D01*
X126077143Y-69177211D01*
X126071580Y-69142088D01*
X126044258Y-69057998D01*
X126018009Y-68977211D01*
X126018008Y-68977208D01*
X125967226Y-68877544D01*
X125939302Y-68822740D01*
X125837401Y-68682486D01*
X125714814Y-68559899D01*
X125574560Y-68457998D01*
X125420091Y-68379291D01*
X125420088Y-68379290D01*
X125255213Y-68325720D01*
X125083987Y-68298600D01*
X125083982Y-68298600D01*
X124462418Y-68298600D01*
X124462413Y-68298600D01*
X124291186Y-68325720D01*
X124126311Y-68379290D01*
X124126308Y-68379291D01*
X123971839Y-68457998D01*
X123917188Y-68497705D01*
X123831586Y-68559899D01*
X123831584Y-68559901D01*
X123831583Y-68559901D01*
X123709001Y-68682483D01*
X123709001Y-68682484D01*
X123708999Y-68682486D01*
X123686399Y-68713592D01*
X123607098Y-68822739D01*
X123528391Y-68977208D01*
X123528390Y-68977211D01*
X123474820Y-69142086D01*
X123447700Y-69313312D01*
X123447700Y-69486687D01*
X123474820Y-69657913D01*
X123528390Y-69822788D01*
X123528391Y-69822791D01*
X123607099Y-69977262D01*
X123628310Y-70006457D01*
X123651789Y-70072263D01*
X123635963Y-70140317D01*
X123585857Y-70189011D01*
X123517379Y-70202886D01*
X123511810Y-70202280D01*
X123499468Y-70200655D01*
X123414741Y-70189500D01*
X123414734Y-70189500D01*
X123185266Y-70189500D01*
X123185258Y-70189500D01*
X122968715Y-70218009D01*
X122957762Y-70219452D01*
X122880709Y-70240098D01*
X122736112Y-70278842D01*
X122524123Y-70366650D01*
X122524109Y-70366657D01*
X122325382Y-70481392D01*
X122143338Y-70621081D01*
X121981081Y-70783338D01*
X121841392Y-70965382D01*
X121726657Y-71164109D01*
X121726650Y-71164123D01*
X121638842Y-71376112D01*
X121627815Y-71417265D01*
X121588127Y-71565388D01*
X121579453Y-71597759D01*
X121579451Y-71597770D01*
X121549500Y-71825258D01*
X103400500Y-71825258D01*
X103400500Y-69313312D01*
X112868600Y-69313312D01*
X112868600Y-69486687D01*
X112895720Y-69657913D01*
X112949290Y-69822788D01*
X112949291Y-69822791D01*
X113012630Y-69947099D01*
X113027998Y-69977260D01*
X113129899Y-70117514D01*
X113252486Y-70240101D01*
X113392740Y-70342002D01*
X113441126Y-70366656D01*
X113547208Y-70420708D01*
X113547211Y-70420709D01*
X113606895Y-70440101D01*
X113712088Y-70474280D01*
X113791391Y-70486840D01*
X113883313Y-70501400D01*
X113883318Y-70501400D01*
X114504887Y-70501400D01*
X114587895Y-70488252D01*
X114676112Y-70474280D01*
X114840991Y-70420708D01*
X114995460Y-70342002D01*
X115135714Y-70240101D01*
X115258301Y-70117514D01*
X115360202Y-69977260D01*
X115438908Y-69822791D01*
X115492480Y-69657912D01*
X115510825Y-69542086D01*
X115519600Y-69486687D01*
X115519600Y-69313312D01*
X115512460Y-69268233D01*
X115510031Y-69252900D01*
X117245600Y-69252900D01*
X117245600Y-69547099D01*
X117245601Y-69547116D01*
X117271931Y-69747116D01*
X117284002Y-69838800D01*
X117350423Y-70086687D01*
X117360152Y-70122994D01*
X117472734Y-70394794D01*
X117472742Y-70394810D01*
X117619840Y-70649589D01*
X117619851Y-70649605D01*
X117798948Y-70883009D01*
X117798954Y-70883016D01*
X118006983Y-71091045D01*
X118006990Y-71091051D01*
X118127261Y-71183338D01*
X118240403Y-71270155D01*
X118240410Y-71270159D01*
X118495189Y-71417257D01*
X118495205Y-71417265D01*
X118767005Y-71529847D01*
X118767007Y-71529847D01*
X118767013Y-71529850D01*
X119051200Y-71605998D01*
X119342894Y-71644400D01*
X119342901Y-71644400D01*
X119637099Y-71644400D01*
X119637106Y-71644400D01*
X119928800Y-71605998D01*
X120212987Y-71529850D01*
X120357105Y-71470155D01*
X120484794Y-71417265D01*
X120484797Y-71417263D01*
X120484803Y-71417261D01*
X120739597Y-71270155D01*
X120973011Y-71091050D01*
X121181050Y-70883011D01*
X121360155Y-70649597D01*
X121507261Y-70394803D01*
X121514528Y-70377260D01*
X121597370Y-70177260D01*
X121619850Y-70122987D01*
X121695998Y-69838800D01*
X121734400Y-69547106D01*
X121734400Y-69252894D01*
X121695998Y-68961200D01*
X121619850Y-68677013D01*
X121595379Y-68617934D01*
X121507265Y-68405205D01*
X121507257Y-68405189D01*
X121360159Y-68150410D01*
X121360155Y-68150403D01*
X121191546Y-67930668D01*
X121181051Y-67916990D01*
X121181045Y-67916983D01*
X120973016Y-67708954D01*
X120973009Y-67708948D01*
X120739605Y-67529851D01*
X120739603Y-67529849D01*
X120739597Y-67529845D01*
X120739592Y-67529842D01*
X120739589Y-67529840D01*
X120484810Y-67382742D01*
X120484794Y-67382734D01*
X120212994Y-67270152D01*
X120118566Y-67244850D01*
X119928800Y-67194002D01*
X119928799Y-67194001D01*
X119928796Y-67194001D01*
X119637116Y-67155601D01*
X119637111Y-67155600D01*
X119637106Y-67155600D01*
X119342894Y-67155600D01*
X119342888Y-67155600D01*
X119342883Y-67155601D01*
X119051203Y-67194001D01*
X118767005Y-67270152D01*
X118495205Y-67382734D01*
X118495189Y-67382742D01*
X118240410Y-67529840D01*
X118240394Y-67529851D01*
X118006990Y-67708948D01*
X118006983Y-67708954D01*
X117798954Y-67916983D01*
X117798948Y-67916990D01*
X117619851Y-68150394D01*
X117619840Y-68150410D01*
X117472742Y-68405189D01*
X117472734Y-68405205D01*
X117360152Y-68677005D01*
X117284001Y-68961203D01*
X117245601Y-69252883D01*
X117245600Y-69252900D01*
X115510031Y-69252900D01*
X115498043Y-69177211D01*
X115492480Y-69142088D01*
X115465158Y-69057998D01*
X115438909Y-68977211D01*
X115438908Y-68977208D01*
X115388126Y-68877544D01*
X115360202Y-68822740D01*
X115258301Y-68682486D01*
X115258292Y-68682477D01*
X115255137Y-68678782D01*
X115256586Y-68677544D01*
X115226983Y-68623330D01*
X115231967Y-68553638D01*
X115273839Y-68497705D01*
X115339303Y-68473288D01*
X115367547Y-68474499D01*
X115550649Y-68503500D01*
X115550654Y-68503500D01*
X115809351Y-68503500D01*
X115951294Y-68481017D01*
X116064854Y-68463032D01*
X116310885Y-68383091D01*
X116541382Y-68265647D01*
X116750668Y-68113592D01*
X116933592Y-67930668D01*
X117085647Y-67721382D01*
X117203091Y-67490885D01*
X117283032Y-67244854D01*
X117306445Y-67097027D01*
X117323500Y-66989351D01*
X117323500Y-66730648D01*
X117283032Y-66475149D01*
X117283032Y-66475146D01*
X117203091Y-66229115D01*
X117085647Y-65998618D01*
X116933592Y-65789332D01*
X116750668Y-65606408D01*
X116541382Y-65454353D01*
X116424909Y-65395007D01*
X116310887Y-65336910D01*
X116310886Y-65336909D01*
X116310885Y-65336909D01*
X116064854Y-65256968D01*
X116064852Y-65256967D01*
X116064850Y-65256967D01*
X115809351Y-65216500D01*
X115809346Y-65216500D01*
X115550654Y-65216500D01*
X115550649Y-65216500D01*
X115295149Y-65256967D01*
X115049112Y-65336910D01*
X114818617Y-65454353D01*
X114609329Y-65606410D01*
X114426410Y-65789329D01*
X114274353Y-65998617D01*
X114156910Y-66229112D01*
X114076967Y-66475149D01*
X114036500Y-66730648D01*
X114036500Y-66989351D01*
X114070718Y-67205393D01*
X114076968Y-67244854D01*
X114150172Y-67470152D01*
X114156910Y-67490887D01*
X114169960Y-67516500D01*
X114274353Y-67721382D01*
X114426408Y-67930668D01*
X114426410Y-67930670D01*
X114582659Y-68086919D01*
X114616144Y-68148242D01*
X114611160Y-68217934D01*
X114569288Y-68273867D01*
X114503824Y-68298284D01*
X114494978Y-68298600D01*
X113883313Y-68298600D01*
X113712086Y-68325720D01*
X113547211Y-68379290D01*
X113547208Y-68379291D01*
X113392739Y-68457998D01*
X113338088Y-68497705D01*
X113252486Y-68559899D01*
X113252484Y-68559901D01*
X113252483Y-68559901D01*
X113129901Y-68682483D01*
X113129901Y-68682484D01*
X113129899Y-68682486D01*
X113107299Y-68713592D01*
X113027998Y-68822739D01*
X112949291Y-68977208D01*
X112949290Y-68977211D01*
X112895720Y-69142086D01*
X112868600Y-69313312D01*
X103400500Y-69313312D01*
X103400500Y-63380649D01*
X117973500Y-63380649D01*
X117973500Y-63619351D01*
X117981989Y-63672950D01*
X118010841Y-63855111D01*
X118010841Y-63855112D01*
X118010842Y-63855115D01*
X118084605Y-64082134D01*
X118192973Y-64294819D01*
X118333279Y-64487933D01*
X118502067Y-64656721D01*
X118695181Y-64797027D01*
X118907866Y-64905395D01*
X119134885Y-64979158D01*
X119370649Y-65016500D01*
X119370650Y-65016500D01*
X119609350Y-65016500D01*
X119609351Y-65016500D01*
X119845115Y-64979158D01*
X120072134Y-64905395D01*
X120284819Y-64797027D01*
X120285958Y-64796199D01*
X120286468Y-64796017D01*
X120288975Y-64794481D01*
X120289297Y-64795007D01*
X120351759Y-64772709D01*
X120419815Y-64788524D01*
X120468518Y-64838621D01*
X120476789Y-64858187D01*
X120506910Y-64950888D01*
X120619934Y-65172709D01*
X120624353Y-65181382D01*
X120776408Y-65390668D01*
X120959332Y-65573592D01*
X121168618Y-65725647D01*
X121399115Y-65843091D01*
X121645146Y-65923032D01*
X121740961Y-65938207D01*
X121900649Y-65963500D01*
X121900654Y-65963500D01*
X122159351Y-65963500D01*
X122301294Y-65941017D01*
X122414854Y-65923032D01*
X122660885Y-65843091D01*
X122816222Y-65763942D01*
X122884889Y-65751046D01*
X122949630Y-65777322D01*
X122989888Y-65834428D01*
X122994989Y-65855028D01*
X123010841Y-65955112D01*
X123010842Y-65955115D01*
X123084605Y-66182134D01*
X123192973Y-66394819D01*
X123333279Y-66587933D01*
X123502067Y-66756721D01*
X123695181Y-66897027D01*
X123907866Y-67005395D01*
X124134885Y-67079158D01*
X124370649Y-67116500D01*
X124370650Y-67116500D01*
X124609350Y-67116500D01*
X124609351Y-67116500D01*
X124845115Y-67079158D01*
X125072134Y-67005395D01*
X125284819Y-66897027D01*
X125477933Y-66756721D01*
X125646721Y-66587933D01*
X125787027Y-66394819D01*
X125895395Y-66182134D01*
X125969158Y-65955115D01*
X126006500Y-65719351D01*
X126006500Y-65480649D01*
X125969158Y-65244885D01*
X125895395Y-65017866D01*
X125787027Y-64805181D01*
X125646721Y-64612067D01*
X125477933Y-64443279D01*
X125284819Y-64302973D01*
X125072134Y-64194605D01*
X124845115Y-64120842D01*
X124845113Y-64120841D01*
X124845111Y-64120841D01*
X124644783Y-64089112D01*
X124609351Y-64083500D01*
X124370649Y-64083500D01*
X124335217Y-64089112D01*
X124134888Y-64120841D01*
X124134887Y-64120841D01*
X123907860Y-64194607D01*
X123843649Y-64227324D01*
X123774980Y-64240220D01*
X123710240Y-64213943D01*
X123669983Y-64156836D01*
X123664882Y-64136237D01*
X123640239Y-63980649D01*
X123633032Y-63935146D01*
X123553091Y-63689115D01*
X123435647Y-63458618D01*
X123283592Y-63249332D01*
X123100668Y-63066408D01*
X122891382Y-62914353D01*
X122660885Y-62796909D01*
X122414854Y-62716968D01*
X122414852Y-62716967D01*
X122414850Y-62716967D01*
X122159351Y-62676500D01*
X122159346Y-62676500D01*
X121900654Y-62676500D01*
X121900649Y-62676500D01*
X121645149Y-62716967D01*
X121399112Y-62796910D01*
X121168618Y-62914352D01*
X121084728Y-62975302D01*
X121018921Y-62998781D01*
X120950867Y-62982955D01*
X120902173Y-62932849D01*
X120897677Y-62922192D01*
X120897259Y-62922366D01*
X120895397Y-62917872D01*
X120895395Y-62917866D01*
X120787027Y-62705181D01*
X120646721Y-62512067D01*
X120477933Y-62343279D01*
X120284819Y-62202973D01*
X120072134Y-62094605D01*
X119845115Y-62020842D01*
X119845113Y-62020841D01*
X119845111Y-62020841D01*
X119680498Y-61994768D01*
X119609351Y-61983500D01*
X119370649Y-61983500D01*
X119315995Y-61992156D01*
X119134888Y-62020841D01*
X119134887Y-62020841D01*
X118907863Y-62094606D01*
X118695180Y-62202973D01*
X118585002Y-62283022D01*
X118502067Y-62343279D01*
X118502065Y-62343281D01*
X118502064Y-62343281D01*
X118333281Y-62512064D01*
X118333281Y-62512065D01*
X118333279Y-62512067D01*
X118310602Y-62543279D01*
X118192973Y-62705180D01*
X118084606Y-62917863D01*
X118010841Y-63144887D01*
X118010841Y-63144888D01*
X117979164Y-63344887D01*
X117973500Y-63380649D01*
X103400500Y-63380649D01*
X103400500Y-53897682D01*
X106700000Y-53897682D01*
X106700000Y-54102317D01*
X106732009Y-54304417D01*
X106795244Y-54499031D01*
X106888141Y-54681350D01*
X106888147Y-54681359D01*
X106920523Y-54725921D01*
X106920524Y-54725922D01*
X107600000Y-54046446D01*
X107600000Y-54052661D01*
X107627259Y-54154394D01*
X107679920Y-54245606D01*
X107754394Y-54320080D01*
X107845606Y-54372741D01*
X107947339Y-54400000D01*
X107953553Y-54400000D01*
X107274076Y-55079474D01*
X107318650Y-55111859D01*
X107500968Y-55204755D01*
X107695582Y-55267990D01*
X107897683Y-55300000D01*
X108102317Y-55300000D01*
X108304417Y-55267990D01*
X108499031Y-55204755D01*
X108681349Y-55111859D01*
X108725921Y-55079474D01*
X108046447Y-54400000D01*
X108052661Y-54400000D01*
X108154394Y-54372741D01*
X108245606Y-54320080D01*
X108320080Y-54245606D01*
X108372741Y-54154394D01*
X108400000Y-54052661D01*
X108400000Y-54046447D01*
X109079474Y-54725921D01*
X109111859Y-54681349D01*
X109204755Y-54499031D01*
X109267990Y-54304417D01*
X109300000Y-54102317D01*
X109300000Y-53897682D01*
X109267990Y-53695582D01*
X109204755Y-53500968D01*
X109111859Y-53318650D01*
X109079474Y-53274077D01*
X109079474Y-53274076D01*
X108400000Y-53953551D01*
X108400000Y-53947339D01*
X108372741Y-53845606D01*
X108320080Y-53754394D01*
X108245606Y-53679920D01*
X108154394Y-53627259D01*
X108052661Y-53600000D01*
X108046446Y-53600000D01*
X108725922Y-52920524D01*
X108725921Y-52920523D01*
X108681359Y-52888147D01*
X108681350Y-52888141D01*
X108499031Y-52795244D01*
X108304417Y-52732009D01*
X108102317Y-52700000D01*
X107897683Y-52700000D01*
X107695582Y-52732009D01*
X107500968Y-52795244D01*
X107318644Y-52888143D01*
X107274077Y-52920523D01*
X107274077Y-52920524D01*
X107953554Y-53600000D01*
X107947339Y-53600000D01*
X107845606Y-53627259D01*
X107754394Y-53679920D01*
X107679920Y-53754394D01*
X107627259Y-53845606D01*
X107600000Y-53947339D01*
X107600000Y-53953553D01*
X106920524Y-53274077D01*
X106920523Y-53274077D01*
X106888143Y-53318644D01*
X106795244Y-53500968D01*
X106732009Y-53695582D01*
X106700000Y-53897682D01*
X103400500Y-53897682D01*
X103400500Y-41003750D01*
X103400726Y-40996263D01*
X103408827Y-40862332D01*
X103799500Y-40862332D01*
X103799500Y-41137667D01*
X103799501Y-41137684D01*
X103835438Y-41410655D01*
X103835439Y-41410660D01*
X103835440Y-41410666D01*
X103871072Y-41543649D01*
X103906704Y-41676630D01*
X104012075Y-41931017D01*
X104012080Y-41931028D01*
X104076450Y-42042519D01*
X104149751Y-42169479D01*
X104149753Y-42169481D01*
X104149754Y-42169483D01*
X104317370Y-42387926D01*
X104317376Y-42387933D01*
X104512066Y-42582623D01*
X104512072Y-42582628D01*
X104730521Y-42750249D01*
X104871790Y-42831811D01*
X104968971Y-42887919D01*
X104968976Y-42887921D01*
X104968979Y-42887923D01*
X105223368Y-42993295D01*
X105489334Y-43064560D01*
X105762326Y-43100500D01*
X105762333Y-43100500D01*
X106037667Y-43100500D01*
X106037674Y-43100500D01*
X106310666Y-43064560D01*
X106576632Y-42993295D01*
X106831021Y-42887923D01*
X107069479Y-42750249D01*
X107287928Y-42582628D01*
X107482628Y-42387928D01*
X107650249Y-42169479D01*
X107787923Y-41931021D01*
X107893295Y-41676632D01*
X107964560Y-41410666D01*
X108000500Y-41137674D01*
X108000500Y-40862326D01*
X107964560Y-40589334D01*
X107893295Y-40323368D01*
X107787923Y-40068979D01*
X107787921Y-40068976D01*
X107787919Y-40068971D01*
X107738732Y-39983778D01*
X107650249Y-39830521D01*
X107588457Y-39749992D01*
X107482628Y-39612071D01*
X107287933Y-39417376D01*
X107287926Y-39417370D01*
X107069483Y-39249754D01*
X107069482Y-39249753D01*
X107069479Y-39249751D01*
X106974407Y-39194861D01*
X106831028Y-39112080D01*
X106831017Y-39112075D01*
X106576630Y-39006704D01*
X106391170Y-38957011D01*
X106310666Y-38935440D01*
X106310660Y-38935439D01*
X106310655Y-38935438D01*
X106037684Y-38899501D01*
X106037679Y-38899500D01*
X106037674Y-38899500D01*
X105762326Y-38899500D01*
X105762320Y-38899500D01*
X105762315Y-38899501D01*
X105489344Y-38935438D01*
X105489337Y-38935439D01*
X105489334Y-38935440D01*
X105475802Y-38939066D01*
X105223369Y-39006704D01*
X104968982Y-39112075D01*
X104968971Y-39112080D01*
X104730516Y-39249754D01*
X104512073Y-39417370D01*
X104512066Y-39417376D01*
X104317376Y-39612066D01*
X104317372Y-39612071D01*
X104149754Y-39830516D01*
X104012080Y-40068971D01*
X104012075Y-40068982D01*
X103906704Y-40323369D01*
X103863195Y-40485750D01*
X103845980Y-40550000D01*
X103835441Y-40589331D01*
X103835438Y-40589344D01*
X103799501Y-40862315D01*
X103799500Y-40862332D01*
X103408827Y-40862332D01*
X103409526Y-40850780D01*
X103413417Y-40786459D01*
X103418271Y-40706201D01*
X103420076Y-40691340D01*
X103420077Y-40691338D01*
X103471780Y-40409197D01*
X103475364Y-40394663D01*
X103475365Y-40394661D01*
X103560696Y-40120822D01*
X103565998Y-40106841D01*
X103683731Y-39845249D01*
X103690676Y-39832016D01*
X103839080Y-39586526D01*
X103847567Y-39574230D01*
X104024480Y-39348417D01*
X104034395Y-39337226D01*
X104237229Y-39134393D01*
X104248417Y-39124480D01*
X104474230Y-38947567D01*
X104486526Y-38939080D01*
X104732016Y-38790676D01*
X104745249Y-38783731D01*
X105006841Y-38665998D01*
X105020822Y-38660696D01*
X105294668Y-38575362D01*
X105309197Y-38571780D01*
X105591344Y-38520075D01*
X105606201Y-38518271D01*
X105896264Y-38500726D01*
X105903751Y-38500500D01*
X105965892Y-38500500D01*
X142709481Y-38500500D01*
X142776520Y-38520185D01*
G37*
%TD.AperFunction*%
%TA.AperFunction,Conductor*%
G36*
X189052540Y-48720185D02*
G01*
X189098295Y-48772989D01*
X189109501Y-48824500D01*
X189109501Y-48897876D01*
X189115908Y-48957483D01*
X189166202Y-49092328D01*
X189166203Y-49092330D01*
X189243578Y-49195689D01*
X189267995Y-49261153D01*
X189253144Y-49329426D01*
X189243578Y-49344311D01*
X189166203Y-49447669D01*
X189166202Y-49447671D01*
X189115908Y-49582517D01*
X189109501Y-49642116D01*
X189109501Y-49642123D01*
X189109500Y-49642135D01*
X189109500Y-51437870D01*
X189109501Y-51437876D01*
X189115908Y-51497483D01*
X189166202Y-51632328D01*
X189166206Y-51632335D01*
X189243577Y-51735688D01*
X189252454Y-51747546D01*
X189252457Y-51747548D01*
X189258550Y-51753642D01*
X189292032Y-51814967D01*
X189287045Y-51884658D01*
X189270131Y-51915631D01*
X189216206Y-51987664D01*
X189216202Y-51987671D01*
X189165908Y-52122517D01*
X189159549Y-52181670D01*
X189159501Y-52182123D01*
X189159500Y-52182135D01*
X189159500Y-53977870D01*
X189159501Y-53977876D01*
X189165908Y-54037483D01*
X189216202Y-54172328D01*
X189216203Y-54172330D01*
X189293578Y-54275689D01*
X189317995Y-54341153D01*
X189303144Y-54409426D01*
X189293578Y-54424311D01*
X189216203Y-54527669D01*
X189216202Y-54527671D01*
X189165908Y-54662517D01*
X189159501Y-54722116D01*
X189159500Y-54722135D01*
X189159500Y-56517870D01*
X189159501Y-56517876D01*
X189165908Y-56577483D01*
X189216202Y-56712328D01*
X189216203Y-56712330D01*
X189293578Y-56815689D01*
X189317995Y-56881153D01*
X189303144Y-56949426D01*
X189293578Y-56964311D01*
X189216203Y-57067669D01*
X189216202Y-57067671D01*
X189165908Y-57202517D01*
X189159501Y-57262116D01*
X189159500Y-57262135D01*
X189159500Y-59057870D01*
X189159501Y-59057876D01*
X189165908Y-59117483D01*
X189216202Y-59252328D01*
X189216203Y-59252330D01*
X189293578Y-59355689D01*
X189317995Y-59421153D01*
X189303144Y-59489426D01*
X189293578Y-59504311D01*
X189216203Y-59607669D01*
X189216202Y-59607671D01*
X189165908Y-59742517D01*
X189159501Y-59802116D01*
X189159500Y-59802135D01*
X189159500Y-61597870D01*
X189159501Y-61597876D01*
X189165908Y-61657483D01*
X189216202Y-61792328D01*
X189216206Y-61792335D01*
X189302452Y-61907544D01*
X189302455Y-61907547D01*
X189417664Y-61993793D01*
X189417671Y-61993797D01*
X189552517Y-62044091D01*
X189552516Y-62044091D01*
X189559444Y-62044835D01*
X189612127Y-62050500D01*
X192153708Y-62050499D01*
X192153713Y-62050500D01*
X192366287Y-62050500D01*
X192366291Y-62050499D01*
X193207872Y-62050499D01*
X193267483Y-62044091D01*
X193282165Y-62038615D01*
X193351857Y-62033629D01*
X193413180Y-62067114D01*
X193446666Y-62128436D01*
X193449500Y-62154796D01*
X193449500Y-63397870D01*
X193449501Y-63397876D01*
X193455908Y-63457483D01*
X193506202Y-63592328D01*
X193506206Y-63592335D01*
X193592452Y-63707544D01*
X193592455Y-63707547D01*
X193707664Y-63793793D01*
X193707671Y-63793797D01*
X193842517Y-63844091D01*
X193842516Y-63844091D01*
X193849444Y-63844835D01*
X193902127Y-63850500D01*
X195697872Y-63850499D01*
X195757483Y-63844091D01*
X195892331Y-63793796D01*
X196007546Y-63707546D01*
X196007554Y-63707534D01*
X196013634Y-63701456D01*
X196074956Y-63667969D01*
X196144648Y-63672950D01*
X196175630Y-63689868D01*
X196247664Y-63743793D01*
X196247671Y-63743797D01*
X196382517Y-63794091D01*
X196382516Y-63794091D01*
X196389444Y-63794835D01*
X196442127Y-63800500D01*
X198237872Y-63800499D01*
X198297483Y-63794091D01*
X198432331Y-63743796D01*
X198535690Y-63666421D01*
X198601152Y-63642004D01*
X198669425Y-63656855D01*
X198684303Y-63666416D01*
X198787665Y-63743793D01*
X198787668Y-63743795D01*
X198787671Y-63743797D01*
X198922517Y-63794091D01*
X198922516Y-63794091D01*
X198929444Y-63794835D01*
X198982127Y-63800500D01*
X200777872Y-63800499D01*
X200837483Y-63794091D01*
X200972331Y-63743796D01*
X201075690Y-63666421D01*
X201141152Y-63642004D01*
X201209425Y-63656855D01*
X201224303Y-63666416D01*
X201327665Y-63743793D01*
X201327668Y-63743795D01*
X201327671Y-63743797D01*
X201462517Y-63794091D01*
X201462516Y-63794091D01*
X201469444Y-63794835D01*
X201522127Y-63800500D01*
X203317872Y-63800499D01*
X203377483Y-63794091D01*
X203512331Y-63743796D01*
X203615690Y-63666421D01*
X203681152Y-63642004D01*
X203749425Y-63656855D01*
X203764303Y-63666416D01*
X203867665Y-63743793D01*
X203867668Y-63743795D01*
X203867671Y-63743797D01*
X204002517Y-63794091D01*
X204002516Y-63794091D01*
X204009444Y-63794835D01*
X204062127Y-63800500D01*
X205409481Y-63800499D01*
X205476520Y-63820184D01*
X205522275Y-63872987D01*
X205532219Y-63942146D01*
X205503194Y-64005702D01*
X205497162Y-64012180D01*
X204996162Y-64513181D01*
X204934839Y-64546666D01*
X204908481Y-64549500D01*
X187091519Y-64549500D01*
X187024480Y-64529815D01*
X187003838Y-64513181D01*
X179080375Y-56589717D01*
X178997560Y-56506902D01*
X184059500Y-56506902D01*
X184059500Y-56743097D01*
X184096446Y-56976368D01*
X184169433Y-57200996D01*
X184276657Y-57411433D01*
X184415483Y-57602510D01*
X184582490Y-57769517D01*
X184773567Y-57908343D01*
X184872991Y-57959002D01*
X184984003Y-58015566D01*
X184984005Y-58015566D01*
X184984008Y-58015568D01*
X185104412Y-58054689D01*
X185208631Y-58088553D01*
X185441903Y-58125500D01*
X185441908Y-58125500D01*
X185678097Y-58125500D01*
X185911368Y-58088553D01*
X186135992Y-58015568D01*
X186346433Y-57908343D01*
X186537510Y-57769517D01*
X186704517Y-57602510D01*
X186843343Y-57411433D01*
X186950568Y-57200992D01*
X187023553Y-56976368D01*
X187027820Y-56949426D01*
X187060500Y-56743097D01*
X187060500Y-56506902D01*
X187023553Y-56273631D01*
X186950566Y-56049003D01*
X186864059Y-55879225D01*
X186843343Y-55838567D01*
X186704517Y-55647490D01*
X186537510Y-55480483D01*
X186346433Y-55341657D01*
X186323588Y-55330017D01*
X186135996Y-55234433D01*
X185911368Y-55161446D01*
X185678097Y-55124500D01*
X185678092Y-55124500D01*
X185441908Y-55124500D01*
X185441903Y-55124500D01*
X185208631Y-55161446D01*
X184984003Y-55234433D01*
X184773566Y-55341657D01*
X184726986Y-55375500D01*
X184582490Y-55480483D01*
X184582488Y-55480485D01*
X184582487Y-55480485D01*
X184415485Y-55647487D01*
X184415485Y-55647488D01*
X184415483Y-55647490D01*
X184355862Y-55729550D01*
X184276657Y-55838566D01*
X184169433Y-56049003D01*
X184096446Y-56273631D01*
X184059500Y-56506902D01*
X178997560Y-56506902D01*
X178446545Y-55955887D01*
X178331807Y-55879222D01*
X178204332Y-55826421D01*
X178204322Y-55826418D01*
X178068996Y-55799500D01*
X178068994Y-55799500D01*
X178068993Y-55799500D01*
X135341519Y-55799500D01*
X135274480Y-55779815D01*
X135253838Y-55763181D01*
X132225225Y-52734568D01*
X171059500Y-52734568D01*
X171059500Y-53015431D01*
X171090942Y-53294494D01*
X171090945Y-53294512D01*
X171153439Y-53568317D01*
X171153443Y-53568329D01*
X171246200Y-53833411D01*
X171368053Y-54086442D01*
X171368055Y-54086445D01*
X171517477Y-54324248D01*
X171587819Y-54412454D01*
X171679701Y-54527671D01*
X171692584Y-54543825D01*
X171891175Y-54742416D01*
X172110752Y-54917523D01*
X172348555Y-55066945D01*
X172601592Y-55188801D01*
X172732001Y-55234433D01*
X172866670Y-55281556D01*
X172866682Y-55281560D01*
X173140491Y-55344055D01*
X173140497Y-55344055D01*
X173140505Y-55344057D01*
X173326547Y-55365018D01*
X173419569Y-55375499D01*
X173419572Y-55375500D01*
X173419575Y-55375500D01*
X173700428Y-55375500D01*
X173700429Y-55375499D01*
X173843055Y-55359429D01*
X173979494Y-55344057D01*
X173979499Y-55344056D01*
X173979509Y-55344055D01*
X174253318Y-55281560D01*
X174518408Y-55188801D01*
X174771445Y-55066945D01*
X175009248Y-54917523D01*
X175228825Y-54742416D01*
X175427416Y-54543825D01*
X175602523Y-54324248D01*
X175751945Y-54086445D01*
X175873801Y-53833408D01*
X175966560Y-53568318D01*
X176029055Y-53294509D01*
X176060500Y-53015425D01*
X176060500Y-52734575D01*
X176029055Y-52455491D01*
X175966560Y-52181682D01*
X175873801Y-51916592D01*
X175751945Y-51663555D01*
X175653513Y-51506902D01*
X184059500Y-51506902D01*
X184059500Y-51743097D01*
X184096446Y-51976368D01*
X184169433Y-52200996D01*
X184276519Y-52411163D01*
X184276657Y-52411433D01*
X184415483Y-52602510D01*
X184582490Y-52769517D01*
X184773567Y-52908343D01*
X184797472Y-52920523D01*
X184984003Y-53015566D01*
X184984005Y-53015566D01*
X184984008Y-53015568D01*
X185104412Y-53054689D01*
X185208631Y-53088553D01*
X185441903Y-53125500D01*
X185441908Y-53125500D01*
X185678097Y-53125500D01*
X185911368Y-53088553D01*
X186135992Y-53015568D01*
X186346433Y-52908343D01*
X186537510Y-52769517D01*
X186704517Y-52602510D01*
X186843343Y-52411433D01*
X186950568Y-52200992D01*
X187023553Y-51976368D01*
X187033173Y-51915631D01*
X187060500Y-51743097D01*
X187060500Y-51506902D01*
X187023553Y-51273631D01*
X186960263Y-51078846D01*
X186950568Y-51049008D01*
X186950566Y-51049005D01*
X186950566Y-51049003D01*
X186880851Y-50912181D01*
X186843343Y-50838567D01*
X186704517Y-50647490D01*
X186537510Y-50480483D01*
X186346433Y-50341657D01*
X186135996Y-50234433D01*
X185911368Y-50161446D01*
X185678097Y-50124500D01*
X185678092Y-50124500D01*
X185441908Y-50124500D01*
X185441903Y-50124500D01*
X185208631Y-50161446D01*
X184984003Y-50234433D01*
X184773566Y-50341657D01*
X184685082Y-50405945D01*
X184582490Y-50480483D01*
X184582488Y-50480485D01*
X184582487Y-50480485D01*
X184415485Y-50647487D01*
X184415485Y-50647488D01*
X184415483Y-50647490D01*
X184389532Y-50683209D01*
X184276657Y-50838566D01*
X184169433Y-51049003D01*
X184096446Y-51273631D01*
X184059500Y-51506902D01*
X175653513Y-51506902D01*
X175602523Y-51425752D01*
X175427416Y-51206175D01*
X175228825Y-51007584D01*
X175009248Y-50832477D01*
X174799711Y-50700816D01*
X174771442Y-50683053D01*
X174518411Y-50561200D01*
X174253329Y-50468443D01*
X174253317Y-50468439D01*
X173979512Y-50405945D01*
X173979494Y-50405942D01*
X173700431Y-50374500D01*
X173700425Y-50374500D01*
X173419575Y-50374500D01*
X173419568Y-50374500D01*
X173140505Y-50405942D01*
X173140487Y-50405945D01*
X172866682Y-50468439D01*
X172866670Y-50468443D01*
X172601588Y-50561200D01*
X172348557Y-50683053D01*
X172110753Y-50832476D01*
X171891175Y-51007583D01*
X171692583Y-51206175D01*
X171517476Y-51425753D01*
X171368053Y-51663557D01*
X171246200Y-51916588D01*
X171153443Y-52181670D01*
X171153439Y-52181682D01*
X171090945Y-52455487D01*
X171090942Y-52455505D01*
X171059500Y-52734568D01*
X132225225Y-52734568D01*
X130402838Y-50912181D01*
X130369353Y-50850858D01*
X130374337Y-50781166D01*
X130416209Y-50725233D01*
X130481673Y-50700816D01*
X130490519Y-50700500D01*
X167568996Y-50700500D01*
X167660040Y-50682389D01*
X167704328Y-50673580D01*
X167820404Y-50625500D01*
X167831807Y-50620777D01*
X167831808Y-50620776D01*
X167831811Y-50620775D01*
X167946543Y-50544114D01*
X169753838Y-48736819D01*
X169815161Y-48703334D01*
X169841519Y-48700500D01*
X188985501Y-48700500D01*
X189052540Y-48720185D01*
G37*
%TD.AperFunction*%
%TA.AperFunction,Conductor*%
G36*
X193942686Y-38520185D02*
G01*
X193988441Y-38572989D01*
X193999647Y-38624471D01*
X194000313Y-41452794D01*
X194001232Y-45361118D01*
X194001236Y-45375971D01*
X193981567Y-45443015D01*
X193928774Y-45488782D01*
X193877236Y-45500000D01*
X193734500Y-45500000D01*
X193725815Y-45497449D01*
X193716857Y-45498738D01*
X193692815Y-45487760D01*
X193667461Y-45480315D01*
X193661535Y-45473476D01*
X193653300Y-45469716D01*
X193639007Y-45447478D01*
X193621706Y-45427511D01*
X193619419Y-45416999D01*
X193615524Y-45410939D01*
X193610501Y-45376011D01*
X193610500Y-45376004D01*
X193610500Y-45361118D01*
X193610500Y-45353713D01*
X193610499Y-45353709D01*
X193610499Y-44562128D01*
X193604091Y-44502517D01*
X193599973Y-44491477D01*
X193553797Y-44367671D01*
X193553795Y-44367668D01*
X193476109Y-44263893D01*
X193451692Y-44198430D01*
X193466543Y-44130157D01*
X193476110Y-44115271D01*
X193553352Y-44012089D01*
X193553354Y-44012086D01*
X193603596Y-43877379D01*
X193603598Y-43877372D01*
X193609999Y-43817844D01*
X193610000Y-43817827D01*
X193610000Y-43170000D01*
X192575686Y-43170000D01*
X192580080Y-43165606D01*
X192632741Y-43074394D01*
X192660000Y-42972661D01*
X192660000Y-42867339D01*
X192632741Y-42765606D01*
X192580080Y-42674394D01*
X192575686Y-42670000D01*
X193610000Y-42670000D01*
X193610000Y-42022172D01*
X193609999Y-42022155D01*
X193603598Y-41962627D01*
X193603596Y-41962620D01*
X193553354Y-41827913D01*
X193553352Y-41827910D01*
X193476110Y-41724729D01*
X193451692Y-41659265D01*
X193466543Y-41590992D01*
X193476105Y-41576111D01*
X193553796Y-41472331D01*
X193604091Y-41337483D01*
X193610500Y-41277873D01*
X193610500Y-40401828D01*
X193610500Y-40273713D01*
X193610500Y-40266118D01*
X193610499Y-40266100D01*
X193610499Y-39482129D01*
X193610498Y-39482123D01*
X193610497Y-39482116D01*
X193604091Y-39422517D01*
X193603594Y-39421185D01*
X193553797Y-39287671D01*
X193553793Y-39287664D01*
X193467547Y-39172455D01*
X193467544Y-39172452D01*
X193352335Y-39086206D01*
X193352328Y-39086202D01*
X193217482Y-39035908D01*
X193217483Y-39035908D01*
X193157883Y-39029501D01*
X193157881Y-39029500D01*
X193157873Y-39029500D01*
X192366288Y-39029500D01*
X192366287Y-39029500D01*
X192153713Y-39029500D01*
X192153711Y-39029500D01*
X189562129Y-39029500D01*
X189562123Y-39029501D01*
X189502516Y-39035908D01*
X189367671Y-39086202D01*
X189367664Y-39086206D01*
X189252455Y-39172452D01*
X189252452Y-39172455D01*
X189166206Y-39287664D01*
X189166202Y-39287671D01*
X189115908Y-39422517D01*
X189110375Y-39473989D01*
X189109501Y-39482123D01*
X189109500Y-39482135D01*
X189109500Y-41277870D01*
X189109501Y-41277876D01*
X189115908Y-41337483D01*
X189166202Y-41472328D01*
X189166206Y-41472335D01*
X189243889Y-41576105D01*
X189268307Y-41641569D01*
X189253456Y-41709842D01*
X189243890Y-41724727D01*
X189166647Y-41827910D01*
X189166645Y-41827913D01*
X189116403Y-41962620D01*
X189116401Y-41962627D01*
X189110000Y-42022155D01*
X189110000Y-42670000D01*
X191944314Y-42670000D01*
X191939920Y-42674394D01*
X191887259Y-42765606D01*
X191860000Y-42867339D01*
X191860000Y-42972661D01*
X191887259Y-43074394D01*
X191939920Y-43165606D01*
X191944314Y-43170000D01*
X189110000Y-43170000D01*
X189110000Y-43817844D01*
X189116401Y-43877372D01*
X189116403Y-43877379D01*
X189166645Y-44012086D01*
X189166646Y-44012088D01*
X189243890Y-44115272D01*
X189251315Y-44135180D01*
X189263066Y-44152879D01*
X189263280Y-44167259D01*
X189268307Y-44180736D01*
X189263791Y-44201496D01*
X189264108Y-44222741D01*
X189255246Y-44240778D01*
X189253456Y-44249009D01*
X189249926Y-44255060D01*
X189247095Y-44259611D01*
X189166204Y-44367669D01*
X189145665Y-44422734D01*
X189139115Y-44433270D01*
X189121928Y-44448616D01*
X189108121Y-44467061D01*
X189096361Y-44471446D01*
X189086999Y-44479807D01*
X189064243Y-44483425D01*
X189042656Y-44491477D01*
X189030391Y-44488808D01*
X189017996Y-44490780D01*
X188996896Y-44481521D01*
X188974383Y-44476624D01*
X188958307Y-44464589D01*
X188954015Y-44462706D01*
X188952259Y-44460061D01*
X188946131Y-44455474D01*
X188236819Y-43746162D01*
X188203334Y-43684839D01*
X188200500Y-43658481D01*
X188200500Y-41632007D01*
X188200410Y-41631557D01*
X188200385Y-41631430D01*
X188183914Y-41548625D01*
X188173580Y-41496672D01*
X188170484Y-41489198D01*
X188120777Y-41369192D01*
X188044112Y-41254454D01*
X188044111Y-41254453D01*
X186356144Y-39566487D01*
X185501838Y-38712181D01*
X185468353Y-38650858D01*
X185473337Y-38581166D01*
X185515209Y-38525233D01*
X185580673Y-38500816D01*
X185589519Y-38500500D01*
X193875647Y-38500500D01*
X193942686Y-38520185D01*
G37*
%TD.AperFunction*%
%TA.AperFunction,Conductor*%
G36*
X148475520Y-39470185D02*
G01*
X148496162Y-39486819D01*
X151053451Y-42044109D01*
X151053454Y-42044112D01*
X151095362Y-42072114D01*
X151095680Y-42072326D01*
X151140541Y-42125891D01*
X151149321Y-42195207D01*
X151119232Y-42258266D01*
X151059828Y-42295047D01*
X151026897Y-42299500D01*
X147712553Y-42299500D01*
X147645514Y-42279815D01*
X147599759Y-42227011D01*
X147589815Y-42157853D01*
X147618840Y-42094297D01*
X147638241Y-42076234D01*
X147757190Y-41987187D01*
X147843350Y-41872093D01*
X147843354Y-41872086D01*
X147893596Y-41737379D01*
X147893598Y-41737372D01*
X147899999Y-41677844D01*
X147900000Y-41677827D01*
X147900000Y-40980000D01*
X146875278Y-40980000D01*
X146919333Y-40903694D01*
X146950000Y-40789244D01*
X146950000Y-40670756D01*
X146919333Y-40556306D01*
X146875278Y-40480000D01*
X147900000Y-40480000D01*
X147900000Y-39782172D01*
X147899999Y-39782155D01*
X147893598Y-39722627D01*
X147893596Y-39722619D01*
X147854514Y-39617833D01*
X147849530Y-39548141D01*
X147883015Y-39486818D01*
X147944339Y-39453334D01*
X147970696Y-39450500D01*
X148408481Y-39450500D01*
X148475520Y-39470185D01*
G37*
%TD.AperFunction*%
%TD*%
M02*
