<?xml version="1.0" encoding="UTF-8"?>
<svg id="Layer_2" data-name="Layer 2" xmlns="http://www.w3.org/2000/svg" viewBox="0 0 56.42 24.91">
  <defs>
    <style>
      .cls-1 {
        fill: #fff;
      }
    </style>
  </defs>
  <g id="Layer_1-2" data-name="Layer 1">
    <g>
      <path d="M16.38,20.88h.92v2.99s0,.08,0,.13c0,.05,0,.1.01.16,0,.06.01.11.02.17,0,.05.02.1.02.14h.38v.37h-.76l-.06-.44h-.02c-.08.14-.21.26-.37.36-.16.1-.35.14-.57.14-.42,0-.74-.12-.94-.36s-.3-.61-.3-1.12c0-.24.03-.45.1-.63s.16-.34.29-.46c.13-.12.28-.22.45-.28s.37-.1.59-.1c.08,0,.15,0,.21,0,.06,0,.12,0,.17.02.05,0,.1.02.15.03s.1.03.16.04v-.8h-.47v-.38ZM16.04,24.52c.23,0,.41-.06.54-.18.13-.12.22-.3.27-.53v-1.31c-.08-.06-.18-.1-.28-.12-.1-.03-.24-.04-.41-.04-.3,0-.54.09-.71.26-.17.18-.26.45-.26.83,0,.15.01.3.04.43.03.13.07.25.14.35.07.1.15.18.26.23.11.06.24.08.4.08Z"/>
      <path d="M20.79,24.48c-.07.06-.15.12-.24.17-.09.05-.19.1-.3.14-.11.04-.22.07-.34.09-.12.02-.24.03-.36.03-.23,0-.43-.04-.6-.1-.17-.07-.32-.17-.44-.3-.12-.13-.21-.29-.27-.47-.06-.18-.09-.38-.09-.61,0-.24.03-.45.1-.63.07-.18.16-.34.29-.46.12-.12.28-.22.45-.29s.38-.1.59-.1c.16,0,.31.02.47.06s.29.12.41.23c.12.12.21.27.27.47.06.2.09.46.07.78h-2.18c0,.34.09.59.27.76.18.17.42.25.73.25.1,0,.2-.01.3-.04.1-.02.19-.05.28-.09.09-.03.17-.07.24-.11.07-.04.12-.08.16-.11l.17.32ZM19.6,22.32c-.12,0-.24.01-.35.04-.11.03-.21.07-.29.13-.08.06-.15.14-.21.24-.05.1-.09.22-.1.37h1.75c-.02-.25-.1-.44-.24-.58s-.33-.21-.55-.21Z"/>
      <path d="M23.66,24.07c0-.12-.05-.21-.14-.28-.09-.07-.21-.12-.35-.16-.14-.04-.29-.08-.45-.11-.16-.03-.31-.08-.45-.14-.14-.06-.26-.13-.35-.23-.09-.1-.14-.23-.14-.4,0-.14.03-.27.09-.37.06-.1.14-.19.25-.25s.22-.11.36-.15c.14-.03.28-.05.42-.05.26,0,.49.03.68.1s.34.13.46.21l-.18.36c-.12-.07-.26-.13-.4-.2-.14-.06-.33-.09-.54-.09-.08,0-.16,0-.25.03-.08.02-.15.04-.22.08-.07.03-.12.08-.16.13-.04.05-.06.12-.06.2,0,.1.05.17.14.23s.21.1.35.13c.14.04.29.07.45.1.16.03.32.08.45.14.14.06.25.14.35.24.09.1.14.24.14.41,0,.26-.1.47-.31.64-.21.17-.51.25-.92.25-.12,0-.25-.01-.37-.03-.12-.02-.23-.05-.34-.09s-.2-.08-.29-.13c-.09-.05-.16-.1-.21-.14l.23-.37s.11.09.18.14c.07.05.16.09.25.13.09.04.19.07.29.09.1.02.21.03.31.03s.2,0,.28-.03c.09-.02.17-.04.23-.08.07-.04.12-.08.16-.14.04-.06.06-.13.06-.21Z"/>
      <path d="M25.11,23s0-.08,0-.13,0-.11,0-.17c0-.06,0-.12-.01-.17,0-.06-.01-.11-.02-.15h-.38v-.37h.76l.05.46h.03c.04-.06.09-.13.15-.19.06-.06.13-.12.22-.17.08-.05.17-.09.28-.12.1-.03.21-.04.32-.04.17,0,.33.02.46.06.13.04.24.1.33.2s.16.23.2.39c.05.16.07.37.07.62v1.62h-.45v-1.53c0-.31-.05-.55-.15-.7s-.29-.24-.55-.24c-.1,0-.19.02-.28.06-.09.04-.18.09-.25.16s-.14.14-.2.22c-.06.08-.1.17-.12.27v1.77h-.44v-1.84Z"/>
      <path d="M28.58,22.23c.16-.09.34-.16.55-.2.2-.04.4-.06.6-.06s.35.03.47.09c.12.06.22.14.29.23.07.1.12.21.14.33.02.12.04.25.04.37,0,.14,0,.3-.01.46,0,.16-.01.32-.02.49,0,.19.01.37.03.54h.38v.37h-.75l-.05-.42h-.03s-.06.08-.1.13c-.04.05-.1.1-.18.16-.07.05-.16.1-.27.13-.11.04-.23.06-.37.06-.28,0-.5-.07-.66-.21-.16-.14-.24-.34-.24-.59,0-.19.04-.35.13-.48.08-.13.21-.23.37-.29s.35-.11.58-.12.48,0,.76.05c.02-.17.02-.32,0-.43-.01-.12-.04-.21-.09-.27-.05-.07-.11-.12-.2-.14-.09-.03-.19-.04-.32-.04-.17,0-.33.02-.49.07-.16.05-.29.1-.41.14l-.14-.33ZM29.42,24.51c.11,0,.2-.02.29-.05.09-.03.17-.08.24-.13.07-.05.12-.11.17-.17.04-.06.08-.12.1-.18v-.4c-.2-.03-.38-.05-.54-.05s-.31.02-.43.05c-.12.04-.21.09-.28.17-.07.08-.1.17-.1.29s.04.23.13.32c.08.09.23.14.43.14Z"/>
      <path d="M31.74,24.84v-.38h.76v-2.07h-.76v-.38h1.06l.09.37h.03c.13-.12.27-.22.43-.3.16-.08.35-.12.57-.12.13,0,.23.02.31.07.08.05.14.12.18.21.04.09.07.21.09.34s.02.29.02.46h-.4c0-.23-.02-.41-.07-.52-.05-.11-.13-.17-.26-.17-.12,0-.22.02-.32.05-.09.03-.18.08-.25.12-.07.05-.13.1-.18.15-.05.05-.08.09-.11.12v1.66h1.08v.38h-2.28Z"/>
      <path d="M35.43,20.88h.94v3.01c0,.23.04.39.12.49.08.09.19.14.34.14.11,0,.21-.02.3-.06.1-.04.2-.1.32-.19l.2.31c-.06.05-.13.1-.2.14-.07.04-.15.08-.22.1-.08.03-.15.05-.23.06-.08.02-.15.02-.21.02-.14,0-.26-.02-.37-.05-.11-.04-.2-.09-.28-.17s-.13-.18-.17-.31-.06-.29-.06-.48v-2.63h-.5v-.38Z"/>
      <path d="M41.13,24.48c-.07.06-.15.12-.24.17-.09.05-.19.1-.3.14-.11.04-.22.07-.34.09-.12.02-.24.03-.36.03-.23,0-.43-.04-.6-.1-.17-.07-.32-.17-.44-.3-.12-.13-.21-.29-.27-.47-.06-.18-.09-.38-.09-.61,0-.24.03-.45.1-.63.07-.18.16-.34.29-.46.12-.12.28-.22.45-.29s.38-.1.59-.1c.16,0,.31.02.47.06s.29.12.41.23c.12.12.21.27.27.47.06.2.09.46.07.78h-2.18c0,.34.09.59.27.76.18.17.42.25.73.25.1,0,.2-.01.3-.04.1-.02.19-.05.28-.09.09-.03.17-.07.24-.11.07-.04.12-.08.16-.11l.17.32ZM39.95,22.32c-.12,0-.24.01-.35.04-.11.03-.21.07-.29.13-.08.06-.15.14-.21.24-.05.1-.09.22-.1.37h1.75c-.02-.25-.1-.44-.24-.58s-.33-.21-.55-.21Z"/>
      <path d="M41.91,24.84v-.38h.76v-2.07h-.76v-.38h1.06l.09.37h.03c.13-.12.27-.22.43-.3.16-.08.35-.12.57-.12.13,0,.23.02.31.07.08.05.14.12.18.21.04.09.07.21.09.34s.02.29.02.46h-.4c0-.23-.02-.41-.07-.52-.05-.11-.13-.17-.26-.17-.12,0-.22.02-.32.05-.09.03-.18.08-.25.12-.07.05-.13.1-.18.15-.05.05-.08.09-.11.12v1.66h1.08v.38h-2.28Z"/>
    </g>
    <g id="LOGO">
      <path d="M4.12,11.75c-.06.19-.47-.14-.51-.1l.2,1.5c-.23.4-.7-.13-.81-.4-.14-.31-.1-.73-.4-.95-.1.71-1.01,1.54-1.02,2.21s.52,1,.86,1.45c.43.56.01.71.04,1.17.02.38.39.86.67,1.1.17.14.59.37.69.49.17.21-.01.27-.22.22-.75-.19-1.62-1.27-1.52-2.07.04-.3.2-.32-.03-.64s-.47-.51-.64-.88c-.54-1.17.12-1.65.56-2.61.08-.18.27-.84.36-.91.24-.2.28.1.36.22s.22.22.3.37c.18.32.17.72.44.97,0-.49-.21-.99.02-1.47.11-.08.28.08.37.14.03-.48-.65-.77-1-1.07-1.56-1.38-1.37-3.91-.23-5.51.48-.67,1.02-1.05,1.56-1.61.73-.75.41-1.35.8-2.09.25-.46.72-1.18,1.3-1.17,0,.09.09.16.08.25,0,.12-.28.58-.33.77-.33,1.16.9,1.61.5,2.61-.23.57-.82.52-.71,1.32.05.33.48.7.82.69-.59-1.03.72-1.46.95-2.43.04-.19.04-.53.09-.65.03-.07.12-.1.19-.05.22.16.15,1.5.27,1.88.15.47.64.7.65,1.39,0,.44-.53.89-.54,1.36.27.29.54.59.88.81l.04-.12.22.2c0-.66.47-1.15.79-1.67.36-.04.19.42.19.64,0,.15-.01.36,0,.51.05.47.77.71.88,1.23.1.45-.18.85.04,1.25-.05-.33.22-.55.29-.81.08-.29-.02-.63,0-.94.06-.79.69-1.51.78-2.39,0-.08-.09-.27.07-.32.2-.07.31.28.35.43.17.67.11,1.39.22,2.05.12.75.47.42.98.58.46.15.74.66.7,1.12.37-.06.59.27.9.39.17-.56-.23-1.38.06-1.87.25-.44.73-.76.89-1.3.05-.16.02-.71.26-.48.19.18.31.8.35,1.06.02.17-.03.41.03.55.03.07.3.23.37.3.08.09.1.22.2.29.17-.41.62-.58.89-.93.37-.48.4-1.05.66-1.53.17-.32.33-.03.36.21.04.31-.08,1.32.09,1.49.14.14.43.04.58.34.2.39-.14,1.24.5,1.36.02-.2.05-.41.13-.6.09-.22.32-.45.4-.66.06-.16,0-.47.26-.37.15.09.05,1.15.09,1.4s.24.33.36.54c.1.16.15.36.18.55.15-.17.21-.41.37-.59.17-.19.51-.32.64-.53.15-.24.26-1.24.42-1.3.41-.14.41.78.66.97.52-.37,1.23-.51,1.51.22.1.15.19-.28.18-.37-.02-.23-.14-.3-.23-.47-.53-1.08.45-1.95.99-2.79.44-.31.36.22.4.46.05.3.14.68.31.94.36.52,1.11.29,1.39,1.03.06.15.09.67.19.71.22.07.69-.07.95.08,0-.3.09-.59.21-.86.06-.14.37-.74.48-.77.04-.01.09,0,.13,0,.07.35.1.91.3,1.21.25.38.75.38,1.09.63.58.43.24.8.3,1.38,0,.08.04.25.12.29-.06-.89.28-1.55.81-2.22.4-.5,1.32-1.3.82-2-.08-.11-.32-.23-.15-.35.27-.19.86.31,1.03.52.28.36.42.88.31,1.33-.07.27-.33.52.03.72.22.12.55.08.73.32.05-.1.17-.21.27-.24.31-.11.45.12.5-.4.04-.38-.13-1.08-.03-1.36.24-.66.63.67.65.89.06.58-.13,1.52.32,1.95.32.3.67.29.9.78.34.71.14,1.45.33,2.18.14-.41.19-.86.38-1.26.1-.2.46-.59.49-.72.09-.39-.32-.84-.37-1.25-.14-1.03.63-1.26.77-2.07.03-.15-.04-.59.28-.43.02,0,.22.27.24.31.25.49-.28,1.33.38,1.61.1-.17.58-.35.65-.49s-.13-.37-.14-.53c-.01-.3.51-.92.66-1.25.1-.23.27-1.09.46-1.14.16-.04.39.25.4.4.05.44-.25.88-.19,1.37s.25.44.56.69c.11.09.31.29.37.41.17.37-.02.63,0,1.01,0,.04.12.61.23.49-.18-.64,0-1.39.41-1.92.27-.35.71-.63.98-.98.56-.73.56-1.96.65-2.87.02-.24-.09-.96.39-.74.34.16.68,1.55.7,1.92.04.61-.14.63-.22,1.06s.23.35.51.53c.37.23.61.83.57,1.26-.03.28-.35.71-.29.89s.4.36.53.49c.2.19.47.48.53.76.03.13-.01.32.05.42.05.06.41.19.52.26.17.11.3.26.46.38.02-.4.13-.84.39-1.15.2-.24.57-.39.62-.75.1-.7-.46-1.15-.57-1.81-.24-1.52,1.28-1.76,1.39-3.11.01-.17-.07-.67.11-.72.51.13.68.91.63,1.37-.04.33-.42,1.05-.31,1.3.08.18.58.28.73.45.04-.17.04-.35.07-.52.19-.97,1.04-1.41.93-2.51-.06-.64-.71-.71-.9-1.25s.19-1.43.3-2.01c.04-.19.01-.78.26-.75.21.02.16.38.19.52.08.4.49.54.71.85.52.73.98,2.01.88,2.9-.07.61-.61,1.48-.41,2.1.09.27.44.58.61.83.97,1.4.84,2.94-.15,4.29-.22.3-.49.39-.53.8-.01.15,0,.3,0,.45.04.05.6-.49.65-.55.07-.09.23-.39.26-.42.06-.05.2-.04.24.03.06.09,0,.67.02.84.1,1.26.65,2.52-.9,3.17-.78.33-1.34.44-1.96,1.09-.13.14-.58.77-.69.8-.15.04-.15-.13-.11-.23.17-.52,1.01-1.37,1.48-1.65.61-.35,1.49-.41,1.84-1.05.33-.6-.07-1.6-.02-2.26-.2.22-.47.36-.68.55-.07.07-.14.26-.27.23-.23-.06-.12-.89-.15-1.09-.14-.06-.32.07-.43-.06.5-.6,1.16-1.1,1.51-1.82.45-.91.02-2.2-.55-2.97-.15-.21-.39-.39-.52-.62-.52-.91.32-1.98.31-2.89,0-.54-.47-2.05-.84-2.44-.14-.15-.39-.26-.51-.47-.04.47-.36,1.07-.28,1.53.06.34.59.64.78.94.28.44.21,1.07.03,1.53-.35.87-1.04,1.14-1,2.23,0,.26.34.83-.16.88.05-.24.04-.45-.1-.66s-.42-.27-.62-.43c-.53-.43-.14-1-.04-1.52.07-.35.04-.52-.09-.85-.02-.06.02-.11-.09-.09,0,.32,0,.68-.14.98-.18.4-.64.74-.87,1.12-.73,1.24.6,1.84.29,3.06-.17.66-.87.7-1.06,1.56-.05.21,0,.52-.18.61l.04.13c-.35,0-.36-.25-.59-.45-.2-.17-.36-.19-.57-.29-.55-.26-.24-.48-.45-.88-.24-.46-1.33-.91-.87-1.55.08-.11.18-.1.23-.24.13-.38-.08-1.14-.45-1.34-.12-.07-.26-.08-.38-.16-.5-.34-.12-.75-.01-1.14.16-.58-.18-1.37-.46-1.88-.07,0-.04.09-.04.14-.04.97-.08,1.88-.51,2.77-.53,1.09-1.66,1.26-1.68,2.67,0,.26.15.46.12.72-.04.06-.42-.1-.49-.14-.23-.13-.37-.6-.37-.85,0-.33.33-.58.02-.92-.36-.39-.71-.25-.87-.93s.21-.97.19-1.44c0-.17-.09-.28-.14-.06-.08.34-.11.68-.25,1-.12.28-.64.85-.59,1.12.02.1.13.21.15.33.07.51-.92.72-.9,1.31-.1.01-.06,0-.08-.06-.03-.09-.05-.26-.1-.33-.05-.06-.17-.08-.25-.18-.19-.21-.22-.59-.2-.86s.21-.65-.04-.84c.2.75-.68,1.16-.74,1.86-.05.54.22.67.33,1.11.18.72-.12.7-.44,1.2-.34.53-.47,1.24-.44,1.86-.23.22-.45-.17-.51-.38-.23-.76.09-1.63-.27-2.35-.28-.55-.97-.49-1.19-1.08s0-1.25-.06-1.86c-.02-.27-.15-.5-.2-.76-.1-.11-.08.25-.08.29.03.47.27,1.1-.03,1.53-.12.18-.73-.02-.76.36-.17.03-.24-.13-.4-.2-.17-.08-.36-.09-.53-.17-.66-.34-.09-.85-.14-1.35-.03-.31-.29-.75-.57-.9.15.46-.15,1.13-.45,1.48-.87.99-1.48,1.32-1.27,2.84.02.15.2.27-.09.33-.19-.22-.51-.45-.59-.74-.09-.34.08-.91-.07-1.14s-.7-.36-.94-.51c-.52-.33-.48-.8-.54-1.35l-.37.9c-.1.16,0,.59-.11.69-.11.11-.48-.1-.68-.11-.36-.01-.71.29-.9-.19-.1-.25-.05-.57-.23-.78-.2-.23-.63-.26-.89-.4-.46-.24-.65-.89-.75-1.36-.28.37-.81.97-.87,1.44-.08.55.52.9.25,1.53-.05.12-.18.19-.21.33-.34.11-.43-.48-.69-.53-.47-.09-.75.39-1.11.25-.15-.06-.27-.5-.34-.64-.12.3-.11.63-.3.91-.17.26-.52.39-.72.65-.11.15-.22.44-.29.61-.06.15-.15.61-.21.69-.01.02-.22.12-.25.14-.1.04-.06-.27-.05-.33.05-.43.09-.81-.17-1.21-.08-.12-.23-.21-.31-.32-.18-.25-.2-.59-.2-.88-.09.06-.14.22-.17.32-.04.17-.05.54-.14.64-.23.23-.76-.3-.84-.53-.13-.35.06-.77-.08-1.01-.13-.22-.53-.08-.66-.47,0-.03-.06-.24-.06-.25v-.63s.1-.17,0-.18c-.12.46-.31.95-.65,1.29-.25.26-.6.39-.79.73-.15.27-.16.54-.24.83-.06.01-.08-.01-.11-.07-.1-.23-.05-.71-.19-.95-.09-.16-.45-.27-.51-.47s-.04-.58-.06-.8c0-.04-.02-.22-.07-.22-.06.18-.17.37-.27.53-.2.29-.67.67-.67,1.01.01.64.14.96,0,1.65-.02.11.04.25-.06.33-.1.04-.22-.24-.31-.31-.04-.04-.51-.35-.54-.36-.12-.05-.29,0-.36-.07-.1-.08-.15-.67-.45-.92-.35-.29-.64-.1-.98-.24-.45-.19-.35-.87-.39-1.25s-.09-.77-.12-1.15l-.08.06c-.12.56-.58,1.19-.65,1.73-.04.34.06.65.03.97-.04.4-.38.54-.31,1.01.03.16.22.36-.14.34-.23-.02-.49-.4-.49-.61,0-.1.07-.16.08-.24.02-.15.04-.44.04-.58,0-.63-.98-1.07-.98-1.41v-.72l-.22.31c-.14.27-.3.73-.29,1.03,0,.08.17.37.02.41-.1.03-.27-.21-.36-.27-.27-.19-.6-.36-.87-.53-.52-.35-.41-.94-.24-1.45.19-.57.43-.61.06-1.23-.12-.21-.31-.35-.39-.59-.09-.28-.05-.57-.1-.86l-.71.95c-.17.22-.21.41-.1.67.05.13.36.47.19.6-.08.06-.72-.12-.84-.19-.5-.27-.84-.91-.7-1.47.09-.38.6-.63.64-1,.04-.42-.32-.78-.43-1.17-.16-.56-.09-1.12.24-1.6,0-.03-.04-.03-.06-.02-.09.04-.39.44-.47.55-.6.88-.07,1.49-.9,2.42-.98,1.08-2.2,1.86-2.36,3.5-.15,1.46.09,2.38,1.17,3.36.19.17.78.52.78.78,0,.13.03.5,0,.59Z"/>
      <path d="M5.62,8.61c.11-.1.26,0,.34-.03.26-.1.27-.41.72-.37.49.04,1.84.94,2.32,1.25.42.27,1.59.97,1.84,1.33.23.33.09.45.1.76.05,1.65.17,3.31.16,4.96,0,.2-.07.55-.2.7-.06.07-.19.13-.22.17-.04.08,0,.17-.03.25-.13.43-1.68,1.59-2.11,1.92-.28.22-1.47,1.18-1.71,1.23-.11.02-.21,0-.33.03-.15.04-.37.28-.59.35-.88.28-.77-.48-.83-1.08-.18-1.63.06-3.69.13-5.36s.02-3.74.24-5.47c.02-.14.07-.56.16-.64ZM6.04,8.99c0,.11.04.21.04.33.04,1.3-.05,2.65-.08,3.95-.02.87,0,1.75-.08,2.62-.08,1.25.06,2.64-.08,3.87,0,.08-.03.14-.06.22,0,.02-.18.24-.04.23s.57-.56.72-.65c-.09-.15-.15-.3-.18-.47-.22-1.14-.06-2.79-.05-3.98.02-1.8-.01-3.61.12-5.4,0-.11.08-.3.07-.39s-.26-.36-.39-.33ZM9.9,11.81l-.65-.39-1.73-1.22c.01.08-.03.26,0,.31.01.02.33.19.4.25.21.16.49.44.69.56.16.09.39.1.45.29.03.08,0,.18.03.25.2.6.31,1.01.38,1.65.14,1.24.16,2.49.16,3.73l.28-.14-.08-.42.07-4.86ZM8.42,11.86c-.35-.19-.58-.54-.89-.79-.13,2.67-.14,5.36-.43,8.01l1.52-1.16c-.12-.68-.04-1.38-.07-2.07-.03-.92-.14-1.85-.16-2.77-.01-.41,0-.82.03-1.23Z"/>
      <path d="M46.9,9.73s.33.28.4.36c.8.89,1.45,1.69,2.31,2.54.2.2.41.47.6.65.03.03.05.06.1.06.08,0,.36-.5.42-.6.46-.8.83-1.7,1.29-2.5.1-.17.48-.8.6-.89.36-.25.52.07.74.08.15,0,.42-.07.59-.08.28-.01.89-.03.8.41-.02.08-.09.11-.11.17-.52,1.68-1.85,2.97-2.8,4.4-.22.34-.4.62-.38,1.02.03.84.04,1.67.04,2.5,0,.18-.02.53-.04.71-.03.25-.25.46-.49.49s-.38-.11-.59-.14c-.19-.04-.37-.02-.59-.08-.59-.15-.74-.25-.83-.86-.17-1.12-.09-2.32-.27-3.45-.57-.74-1.3-1.33-1.89-2.06-.62-.77-1.11-1.65-1.72-2.43-.16-.26,0-.47.27-.54s1.18-.2,1.4-.1c.21.09.08.26.14.35ZM49.71,13.92c-.63-.68-1.36-1.27-1.96-1.97-.54-.64-.95-1.37-1.43-2.06l-.37.04c.67.65,1.16,1.46,1.78,2.15.45.5,1.26,1.33,1.78,1.74.06.05.12.11.2.1ZM54.06,10.05h-.84c-.68,1.02-1.15,2.23-1.87,3.22-.34.48-.77,1.09-1.44.81.02.11.1.17.11.3.05.35.07.85.08,1.21.03.8.02,1.65-.15,2.43l.32.1c.04-.5.03-1.01.06-1.51.05-.81.07-1.98.64-2.6.23-.25.54-.45.76-.72.6-.71,1.01-1.66,1.7-2.33l.61-.9Z"/>
      <path d="M24.62,16.47l-1.28.2c-.02.29-.36.74-.36,1,0,.16.34.36.06.64-.15.15-.97.17-1.13.07s-.23-.61-.21-.79c.09-1.02.72-2.8,1.04-3.85.16-.54.6-2.19.84-2.56.05-.08.23-.19.23-.21.02-.09-.03-.18.02-.28.12-.27.64-.34.9-.31.1,0,.25.09.31.07.05-.01.05-.09.09-.11.8-.5,1.17,1.32,1.28,1.8.33,1.42.57,3.44.64,4.91.02.31.04.9-.31,1.02-.2.06-.73.2-.93.2-.08,0-.49-.08-.57-.11-.2-.06-.26-.44-.33-.61-.03-.06-.1-.11-.13-.18-.11-.26-.07-.61-.16-.88ZM25.1,11.1l-.47.06c.31.29.32.74.38,1.14.19,1.12.35,2.31.47,3.44.06.54.06,1.16.12,1.68.02.13.1.01.19-.01.09-.02.19-.05.28-.05.04-.04-.12-.55-.14-.66-.14-.68-.16-1.37-.25-2.06-.15-1.19-.3-2.38-.59-3.54ZM24.55,15.64l-.27-2.54-.67,2.78.94-.24ZM22.4,17.59c.08.09.22-.33.24-.37.17-.42.31-.9.39-1.35l-.63,1.72Z"/>
      <path d="M42.39,16.35l-1.28.2c-.02.3-.36.72-.36,1,0,.16.34.36.06.64-.15.15-.97.17-1.13.07s-.23-.61-.21-.79c.09-1.02.72-2.8,1.04-3.85.16-.54.59-2.19.84-2.56.05-.08.23-.19.23-.21.02-.09-.03-.18.02-.28.13-.28.63-.33.9-.31.09,0,.27.08.31.07s.05-.09.09-.11c.81-.49,1.17,1.32,1.28,1.8.33,1.44.56,3.42.64,4.91.02.3.04.9-.31,1.02-.2.06-.73.2-.93.2-.08,0-.49-.08-.57-.11-.2-.06-.26-.44-.33-.61-.03-.06-.1-.11-.13-.18-.06-.15-.12-.85-.16-.88ZM42.86,10.99l-.47.06c.31.29.32.74.38,1.14.21,1.23.38,2.55.51,3.79.04.43.03.93.08,1.33.02.13.1.01.19-.01.09-.02.19-.05.28-.05.04-.04-.12-.55-.14-.66-.14-.68-.16-1.37-.25-2.06-.15-1.19-.29-2.38-.59-3.54ZM42.31,15.52l-.27-2.54-.67,2.78.94-.24ZM40.16,17.48c.08.09.21-.31.22-.34.15-.38.28-.82.36-1.22l-.59,1.56Z"/>
      <path d="M18.95,12.59l-.22,1.09c.25.24.56.41.82.63s.77.69.94.98c.04.08.06.16.06.25-.26,1.14-.44,2.49-1.03,3.51-.24.41-.53.13-.88.12-.27,0-.33.14-.66-.09s-1.73-1.75-1.92-2.11c-.09-.18-.16-.34-.02-.53.07-.1.21-.12.25-.18.08-.12.04-.37.28-.42s.28.08.39.1c.07.01.17-.06.24-.02.01,0,.04.09.08.13.4.33.79.67,1.16,1.03.03.04.05.05.08,0,.06-.09.15-.43.21-.57.04-.1.22-.33.18-.4-.37-.35-.73-.7-1.12-1.04-.22-.19-.84-.59-.96-.8-.18-.32.05-1.31.16-1.67.17-.54.48-1.02.69-1.53.16-.38.3-1.15.57-1.42s.6-.07.84.13c.41.34.82.85,1.17,1.25.26.3.93.92.91,1.34-.02.27-.19.24-.34.36-.24.18-.44.68-.76.69-.45.01-.83-.58-1.15-.82ZM20.16,12.9l.22-.58-1.59-1.96-.67,2.15.31-.68c.73-.38,1.19.59,1.62,1.03.03.03.03.06.09.04ZM19.77,15.72l-.46-.24c.08.23.24.33.19.6-.02.11-.1.1-.12.15-.03.08-.01.28-.04.39-.06.27-.38,1.15-.62,1.26-.19.09-.35-.16-.55-.18.15.23.46.41.6.63.13.19.07.41.28.51.31-1.02.67-2.05.72-3.12ZM17.39,16.93c-.08-.06-.34-.48-.41-.47-.18.04.02.14.04.16.11.11.23.27.37.31Z"/>
      <path d="M31.36,14.12c-.04.06.26.49.31.59.12.22.23.45.34.68.2.4.81,1.63.86,1.99.1.74-.66.95-1.01.34-.3-.52-.6-1.41-.82-2-.13-.36-.27-.73-.36-1.1-.14.07-.26.21-.4.28-.1.05-.35.07-.37.14l-.04,2.14c-.05.2-.05.71-.27.78-.19.06-.8.09-1,.05-.27-.04-.28-.45-.3-.68-.13-2.01-.13-4.23-.08-6.26,0-.09.05-.19.04-.27,0-.12-.11-.17-.12-.28-.03-.42.7-.27.88-.33.07-.02.06-.15.14-.21.2-.16,1.05-.09,1.35-.1.21,0,.42-.12.61.09.06.07.07.17.11.24.37.54.76,1.12,1.09,1.69.18.3.55.87.26,1.19-.18.2-.49.49-.71.66-.16.13-.34.25-.52.36ZM31.67,12.67l-.95-1.88c-.29-.05-.6-.05-.88-.15l.08,3.17,1.76-1.14ZM28.89,10.83l-.12.06.12,1.08v-1.13ZM29.01,15.64v1.72h.16c-.05-.53-.1-1.05-.12-1.58,0-.05.03-.15-.04-.14Z"/>
      <path d="M36.84,14l.02.11c.25.37.45.76.64,1.16s.81,1.63.86,1.99c.08.57-.44.93-.86.55-.23-.21-.71-1.52-.85-1.89-.18-.47-.35-.94-.48-1.42-.14.07-.26.21-.4.28-.1.05-.35.07-.37.14l-.04,2.11c-.05.2-.04.75-.27.82-.19.06-.8.09-1,.05-.27-.04-.28-.45-.3-.68-.13-2.01-.13-4.23-.08-6.26,0-.09.05-.19.04-.27,0-.16-.24-.28-.04-.47.23-.21.6-.08.8-.14.07-.02.06-.15.14-.21.2-.16,1.05-.09,1.35-.1.21,0,.42-.12.61.09.06.07.07.17.11.24.38.53.76,1.12,1.09,1.69.18.3.55.87.26,1.19-.18.2-.49.49-.71.66-.16.13-.34.25-.52.36ZM37.15,12.55l-.95-1.88c-.29-.05-.6-.05-.88-.15l.08,3.17,1.76-1.14ZM34.37,10.71l-.12.06.12,1.11v-1.17ZM34.49,17.24h.16c-.05-.54-.1-1.08-.12-1.62,0-.05.03-.15-.04-.14"/>
      <path d="M13.35,11.38c.12.61.09,1.24.12,1.86.04,1.16.08,2.32.12,3.48,0,.17-.01.33-.02.49h.49c.01-.11-.04-.22-.04-.33-.05-1.29.01-2.58.04-3.87.01-.49-.07-1.21.01-1.66.11-.61.81-.54.85.06,0,.13-.04.23-.04.35-.02,1.67.09,3.56-.12,5.2-.11.86-.39.97-1.23.92-.3-.02-.73-.04-.88-.33-.21-.39-.1-1.64-.11-2.15-.02-1.14-.11-2.33-.04-3.48.01-.17.1-.83.18-.95.14-.21,1.21-.17,1.35.01.25.32-.48.4-.67.41Z"/>
      <path d="M5.37,7.08c-.07.1-.13-.27-.15-.3-.22-.46-.54-.28-.87-.42s-.2-.45-.25-.72c-.32.44-.75.81-.8,1.39-.03.33.08.97.29,1.23.07.09.28.12.21.23-.01.02-.16.05-.2.04-.3-.08-.48-.93-.49-1.19-.05-.82.38-1.11.77-1.68.07-.11.29-.59.37-.63.43-.25.16.89.24,1.01.31.11.5.09.72.37.18.23.19.39.16.68Z"/>
      <path d="M49.24,5.4c-.05-.07-.17-.04-.22-.27-.12-.6.12-.87.33-1.36.07-.18.1-.7.35-.37.02.41.27.91.24,1.31-.02.35-.32.58-.44.86-.06.15-.1.76-.31.64-.23-.14.06-.77.04-.8ZM49.4,5.16c.32-.4.26-.74.12-1.21-.26.33-.3.74-.28,1.15l.15.06Z"/>
      <path d="M.46,10.1c.13,0,.17.19.2.3.07.26.04.56.11.83.05.19.26.48.26.64,0,.2-.24.27-.41.21-.51-.19-.66-.76-.61-1.27.02-.2.22-.72.45-.71ZM.44,10.48c-.08-.1-.15.26-.15.3-.03.36.08.47.15.75.02.07-.04.13,0,.19.04.06.44.28.36.07-.05-.14-.16-.28-.21-.42-.1-.28-.16-.59-.15-.89Z"/>
      <path d="M53.66,13.73c.19.65.16,1.37-.62,1.54-.29.07-.45.02-.42-.3.02-.2.73-1.13.9-1.21.05-.02.09-.04.14-.03ZM52.96,14.97c.46-.17.62-.35.55-.86-.09.06-.58.82-.55.86Z"/>
      <path d="M55.04,9.5c.02-.32.03-.79-.06-1.1-.11-.36-.62-.62-.78-.98-.1.23-.12.72-.26.91-.03.04-.04.06-.09.06l-.09-.07.31-1.51c.25-.2.2.15.24.29.16.51.83.83.92,1.27.04.21.02.81-.07,1.01-.03.06-.04.11-.12.09Z"/>
      <path d="M3.84,15.68l-.43-.86c-.07,0-.04.13-.04.18,0,.12.1.43.08.5s-.15.09-.19.06c-.06-.04-.15-1.09-.12-1.23.03-.17.13-.17.22-.02.12.21.34.73.42.95.05.14.09.27.07.42Z"/>
      <path d="M46.86,8.72l-.1-.35c-.09-.15-.29-.18-.32-.38-.03-.17.07-.37.03-.56l-.28.48c-.12.14-.05.52-.25.5-.13-.02-.11-.15-.09-.25.03-.13.5-.89.6-.92.24-.06.02.58.09.72,0,.11.13.13.2.19.17.18.11.34.12.57Z"/>
      <path d="M49.75,9.38l-.08-.74c-.06,0-.07.14-.07.18-.01.09-.01.21,0,.31.02.14.2.37.02.37-.26,0-.17-.84-.05-.99.22-.31.38.44.38.59,0,.13-.03.32-.19.29Z"/>
      <path d="M16.49,10.95c.03-.19.21-.47,0-.61.33-.11.16.62.06.72-.25.26-.5-.6-.16-.51.12.03-.08.34.1.39Z"/>
      <path class="cls-1" d="M34.65,17.24h-.16"/>
    </g>
  </g>
</svg>