<?xml version="1.0" encoding="UTF-8"?>
<svg id="Layer_2" xmlns="http://www.w3.org/2000/svg" version="1.1" viewBox="0 0 280.2 114.5">
  <!-- Generator: Adobe Illustrator 29.0.0, SVG Export Plug-In . SVG Version: 2.1.0 Build 186)  -->
  <g id="Layer_1-2">
    <g id="Silkscreen">
      <g id="V1">
        <g>
          <path d="M270,80.9h0s-.9,3.1-.9,3.1h-.6s-.9-3.2-.9-3.2c0,0,0,0,0,0,0,0,.5,0,.5,0l.7,2.5.7-2.5c.1,0,.4,0,.5,0,0,0,0,0,0,0h0Z"/>
          <path d="M266.9,84h-1.7c0,0,0,0,0-.1s0-.4,0-.4h.6s0-2.7,0-2.7c0,0,0,0,0,0,.1,0,.3,0,.4,0l.8.4s0,0,0,0c0,0,0,.3,0,.4,0,0,0,0,0,0,0,0-.6-.3-.7-.3v2.2s.6,0,.6,0c0,0,0,0,0,0,0,0,0,.3,0,.3,0,0,0,0,0,0h0Z"/>
        </g>
      </g>
      <g id="traces_silkscreen">
        <path d="M134.7,20.8c-.2-.2-.2-.4,0-.6l5.7-5.7c.2-.2.4-.2.6,0s.2.4,0,.6l-5.7,5.7c0,0-.2.1-.3.1s-.2,0-.3-.1Z"/>
        <path d="M113.4,88.5v-5.7c0-.2.2-.4.4-.4s.4.2.4.4v5.7c0,.2-.2.4-.4.4s-.4-.2-.4-.4Z"/>
        <path d="M116.8,99.5v-7.6c0-.2.2-.4.4-.4s.4.2.4.4v7.6c0,.2-.2.4-.4.4s-.4-.2-.4-.4Z"/>
        <path d="M134.6,68.4V20.5c0-.2.2-.4.4-.4s.4.2.4.4v47.9c0,.2-.2.4-.4.4s-.4-.2-.4-.4Z"/>
        <path d="M123.9,72.7c-.2-.2-.2-.4,0-.6l4-4c.2-.2.4-.2.6,0s.2.4,0,.6l-4,4c0,0-.2.1-.3.1s-.2,0-.3-.1Z"/>
        <path d="M127.8,68.4c0-.2.2-.4.4-.4h6.8c.2,0,.4.2.4.4s-.2.4-.4.4h-6.8c-.2,0-.4-.2-.4-.4Z"/>
        <path d="M113.5,83.2c-.2-.2-.2-.4,0-.6l4.9-4.9c.2-.2.4-.2.6,0s.2.4,0,.6l-4.9,4.9c0,0-.2.1-.3.1s-.2,0-.3-.1Z"/>
        <path d="M116.9,92.2l-3.4-3.4c-.2-.2-.2-.4,0-.6s.4-.2.6,0l3.4,3.4c.2.2.2.4,0,.6s-.2.1-.3.1-.2,0-.3-.1Z"/>
        <path d="M123.8,77.9v-5.5c0-.2.2-.4.4-.4s.4.2.4.4v5.5c0,.2-.2.4-.4.4s-.4-.2-.4-.4Z"/>
        <path d="M118.3,77.9c0-.2.2-.4.4-.4h5.5c.2,0,.4.2.4.4s-.2.4-.4.4h-5.5c-.2,0-.4-.2-.4-.4Z"/>
        <path d="M167.3,20.8l-15.6-15.6c-.2-.2-.2-.4,0-.6s.4-.2.6,0l15.6,15.6c.2.2.2.4,0,.6,0,0-.2.1-.3.1s-.2,0-.3-.1Z"/>
        <path d="M223.9,70.1c0-.2.2-.4.4-.4h39.7c.2,0,.4.2.4.4s-.2.4-.4.4h-39.7c-.2,0-.4-.2-.4-.4Z"/>
        <path d="M167.2,20.5c0-.2.2-.4.4-.4h7.1c.2,0,.4.2.4.4s-.2.4-.4.4h-7.1c-.2,0-.4-.2-.4-.4Z"/>
        <path d="M263.7,70.4c-.2-.2-.2-.4,0-.6l3.5-3.5c.2-.2.4-.2.6,0s.2.4,0,.6l-3.5,3.5c0,0-.2.1-.3.1s-.2,0-.3-.1Z"/>
        <path d="M140.3.4c0-.2.2-.4.4-.4h11.3c.2,0,.4.2.4.4s-.2.4-.4.4h-11.3c-.2,0-.4-.2-.4-.4Z"/>
        <path d="M152.1,5.3c-.2,0-.4-.2-.4-.4V.4c0-.2.2-.4.4-.4s.4.2.4.4v4.5c0,.2-.2.4-.4.4h0Z"/>
        <path d="M267.1,66.6v-10.9c0-.2.2-.4.4-.4s.4.2.4.4v10.9c0,.2-.2.4-.4.4s-.4-.2-.4-.4Z"/>
        <path d="M224,70.4l-49.6-49.6c-.2-.2-.2-.4,0-.6s.4-.2.6,0l49.6,49.6c.2.2.2.4,0,.6,0,0-.2.1-.3.1s-.2,0-.3-.1Z"/>
        <path d="M267.3,56c-.2-.2-.2-.4,0-.6l3.5-3.5c.2-.2.4-.2.6,0s.2.4,0,.6l-3.5,3.5c0,0-.2.1-.3.1s-.2,0-.3-.1Z"/>
        <path d="M151.6,29.3v-14.5c0-.2.2-.4.4-.4s.4.2.4.4v14.5c0,.2-.2.4-.4.4s-.4-.2-.4-.4Z"/>
        <path d="M183.9,69c0-.2.2-.4.4-.4h7.4c.2,0,.4.2.4.4s-.2.4-.4.4h-7.4c-.2,0-.4-.2-.4-.4Z"/>
        <path d="M191.4,61.9l-2.7-2.7c-.2-.2-.2-.4,0-.6s.4-.2.6,0l2.7,2.7c.2.2.2.4,0,.6,0,0-.2.1-.3.1s-.2,0-.3-.1Z"/>
        <path d="M180.5,78.5v-6.1c0-.2.2-.4.4-.4s.4.2.4.4v6.1c0,.2-.2.4-.4.4-.2,0-.4-.2-.4-.4Z"/>
        <path d="M171.4,84.2c-.2-.2-.2-.4,0-.6l5.4-5.4c.2-.2.4-.2.6,0s.2.4,0,.6l-5.4,5.4c0,0-.2.1-.3.1s-.2,0-.3-.1Z"/>
        <path d="M173.6,92.3l-2.2-2.2c-.2-.2-.2-.4,0-.6s.4-.2.6,0l2.2,2.2c.2.2.2.4,0,.6s-.2.1-.3.1-.2,0-.3-.1Z"/>
        <path d="M173.5,100.1v-8.1c0-.2.2-.4.4-.4s.4.2.4.4v8.1c0,.2-.2.4-.4.4s-.4-.2-.4-.4Z"/>
        <path d="M191.3,69v-7.4c0-.2.2-.4.4-.4s.4.2.4.4v7.4c0,.2-.2.4-.4.4s-.4-.2-.4-.4Z"/>
        <path d="M171.3,89.7v-5.9c0-.2.2-.4.4-.4s.4.2.4.4v5.9c0,.2-.2.4-.4.4s-.4-.2-.4-.4Z"/>
        <path d="M181.2,58.9c0-.2.2-.4.4-.4h7.4c.2,0,.4.2.4.4s-.2.4-.4.4h-7.4c-.2,0-.4-.2-.4-.4Z"/>
        <path d="M180.6,72.7c-.2-.2-.2-.4,0-.6l3.4-3.4c.2-.2.4-.2.6,0s.2.4,0,.6l-3.4,3.4c0,0-.2.1-.3.1s-.2,0-.3-.1Z"/>
        <path d="M181.4,59.2l-29.6-29.6c-.2-.2-.2-.4,0-.6s.4-.2.6,0l29.6,29.6c.2.2.2.4,0,.6,0,0-.2.1-.3.1-.1,0-.2,0-.3-.1Z"/>
        <path d="M142.1,9.6c-.1,0-.2,0-.3-.1l-8.7-8.7c-.2-.2-.2-.4,0-.6.2-.2.4-.2.6,0l8.7,8.7c.2.2.2.4,0,.6,0,0-.2.1-.3.1h0Z"/>
        <path d="M268,71.8c-.2-.2-.2-.4,0-.6l2.8-2.8c.2-.2.4-.2.6,0s.2.4,0,.6l-2.8,2.8c0,0-.2.1-.3.1s-.2,0-.3-.1Z"/>
        <path d="M167.2,23.3c0-.2.2-.4.4-.4h7.1c.2,0,.4.2.4.4s-.2.4-.4.4h-7.1c-.2,0-.4-.2-.4-.4Z"/>
        <path d="M141.7,9.1c0-.2.2-.4.4-.4h11.3c.2,0,.4.2.4.4s-.2.4-.4.4h-11.3c-.2,0-.4-.2-.4-.4Z"/>
        <path d="M167.3,23.6l-14.2-14.2c-.2-.2-.2-.4,0-.6s.4-.2.6,0l14.2,14.2c.2.2.2.4,0,.6,0,0-.2.1-.3.1s-.2,0-.3-.1Z"/>
        <path d="M222.6,71.8l-48.2-48.2c-.2-.2-.2-.4,0-.6s.4-.2.6,0l48.2,48.2c.2.2.2.4,0,.6,0,0-.2.1-.3.1s-.2,0-.3-.1Z"/>
        <path d="M129,.4c0-.2.2-.4.4-.4h4c.2,0,.4.2.4.4s-.2.4-.4.4h-4c-.2,0-.4-.2-.4-.4Z"/>
        <path d="M270.7,68.7v-9.3c0-.2.2-.4.4-.4s.4.2.4.4v9.3c0,.2-.2.4-.4.4s-.4-.2-.4-.4Z"/>
        <path d="M117.6.4c0-.2.2-.4.4-.4h11.3c.2,0,.4.2.4.4s-.2.4-.4.4h-11.3c-.2,0-.4-.2-.4-.4Z"/>
        <path d="M222.5,71.5c0-.2.2-.4.4-.4h45.3c.2,0,.4.2.4.4s-.2.4-.4.4h-45.4c-.2,0-.4-.2-.4-.4Z"/>
        <path d="M82.6,55.5c0-.2.2-.4.4-.4h7.6c.2,0,.4.2.4.4s-.2.4-.4.4h-7.6c-.2,0-.4-.2-.4-.4Z"/>
        <path d="M90.4,55.8c-.2-.2-.2-.4,0-.6l38.7-38.7c.2-.2.4-.2.6,0s.2.4,0,.6l-38.7,38.7c0,0-.2.1-.3.1-.1,0-.2,0-.3-.1Z"/>
        <path d="M60.2,92.2l-4.2-4.2c-.2-.2-.2-.4,0-.6s.4-.2.6,0l4.2,4.2c.2.2.2.4,0,.6s-.2.1-.3.1-.2,0-.3-.1Z"/>
        <path d="M55.9,87.7v-5.5c0-.2.2-.4.4-.4s.4.2.4.4v5.5c0,.2-.2.4-.4.4s-.4-.2-.4-.4Z"/>
        <path d="M56,82.5c-.2-.2-.2-.4,0-.6l4.9-4.9c.2-.2.4-.2.6,0s.2.4,0,.6l-4.9,4.9c0,0-.2.1-.3.1s-.2,0-.3-.1Z"/>
        <path d="M60.8,77.3c0-.2.2-.4.4-.4h6.4c.2,0,.4.2.4.4s-.2.4-.4.4h-6.4c-.2,0-.4-.2-.4-.4Z"/>
        <path d="M60.1,98.9v-7c0-.2.2-.4.4-.4s.4.2.4.4v7c0,.2-.2.4-.4.4s-.4-.2-.4-.4Z"/>
        <path d="M78,60.5c-.2-.2-.2-.4,0-.6l4.7-4.7c.2-.2.4-.2.6,0s.2.4,0,.6l-4.7,4.7c0,0-.2.1-.3.1s-.2,0-.3-.1Z"/>
        <path d="M67.1,77.3v-6.4c0-.2.2-.4.4-.4s.4.2.4.4v6.4c0,.2-.2.4-.4.4s-.4-.2-.4-.4Z"/>
        <path d="M70.3,67.8c0-.2.2-.4.4-.4h7.6c.2,0,.4.2.4.4s-.2.4-.4.4h-7.6c-.2,0-.4-.2-.4-.4Z"/>
        <path d="M67.2,71.3c-.2-.2-.2-.4,0-.6l3.2-3.2c.2-.2.4-.2.6,0s.2.4,0,.6l-3.2,3.2c0,0-.2.1-.3.1s-.2,0-.3-.1Z"/>
        <path d="M77.9,67.8v-7.6c0-.2.2-.4.4-.4s.4.2.4.4v7.6c0,.2-.2.4-.4.4s-.4-.2-.4-.4Z"/>
        <path d="M0,87.1v-7.1c0-.2.2-.4.4-.4s.4.2.4.4v7.1c0,.2-.2.4-.4.4-.2,0-.4-.2-.4-.4Z"/>
        <path d="M10.8,71.4c-.1,0-.2,0-.3-.1-.2-.2-.2-.4,0-.6l3.7-3.7c.2-.2.4-.2.6,0s.2.4,0,.6l-3.7,3.7c0,0-.2.1-.3.1h0Z"/>
        <path d="M.4,80.4c-.1,0-.2,0-.3-.1-.2-.2-.2-.4,0-.6l3.2-3.2c.2-.2.4-.2.6,0s.2.4,0,.6l-3.2,3.2c0,0-.2.1-.3.1h0Z"/>
        <path d="M66.6,21.9c0-.2.2-.4.4-.4h44c.2,0,.4.2.4.4s-.2.4-.4.4h-44c-.2,0-.4-.2-.4-.4Z"/>
        <path d="M33.7,55.6c-.1,0-.2,0-.3-.1-.2-.2-.2-.4,0-.6l33.3-33.3c.2-.2.4-.2.6,0s.2.4,0,.6l-33.3,33.3c0,0-.2.1-.3.1h0Z"/>
        <path d="M21.2,67.3v-8.5c0-.2.2-.4.4-.4s.4.2.4.4v8.5c0,.2-.2.4-.4.4s-.4-.2-.4-.4Z"/>
        <path d="M14.2,67.3c0-.2.2-.4.4-.4h7.1c.2,0,.4.2.4.4s-.2.4-.4.4h-7.1c-.2,0-.4-.2-.4-.4Z"/>
        <path d="M10.4,76.8v-5.8c0-.2.2-.4.4-.4s.4.2.4.4v5.8c0,.2-.2.4-.4.4s-.4-.2-.4-.4Z"/>
        <path d="M24.8,55.2c0-.2.2-.4.4-.4h8.5c.2,0,.4.2.4.4s-.2.4-.4.4h-8.5c-.2,0-.4-.2-.4-.4Z"/>
        <path d="M3.2,76.8c0-.2.2-.4.4-.4h7.2c.2,0,.4.2.4.4s-.2.4-.4.4H3.6c-.2,0-.4-.2-.4-.4Z"/>
        <path d="M21.6,59.2c-.1,0-.2,0-.3-.1-.2-.2-.2-.4,0-.6l3.6-3.6c.2-.2.4-.2.6,0s.2.4,0,.6l-3.6,3.6c0,0-.2.1-.3.1h0Z"/>
        <path d="M3.4,98.4v-7.9c0-.2.2-.4.4-.4s.4.2.4.4v7.9c0,.2-.2.4-.4.4s-.4-.2-.4-.4Z"/>
        <path d="M3.8,90.9c-.1,0-.2,0-.3-.1l-3.4-3.4c-.2-.2-.2-.4,0-.6s.4-.2.6,0l3.4,3.4c.2.2.2.4,0,.6,0,0-.2.1-.3.1h0Z"/>
        <path d="M110.7,22.2c-.2-.2-.2-.4,0-.6l7.1-7.1c.2-.2.4-.2.6,0s.2.4,0,.6l-7.1,7.1c0,0-.2.1-.3.1s-.2,0-.3-.1Z"/>
        <path d="M34,21.9c0-.2.2-.4.4-.4h5.7c.2,0,.4.2.4.4s-.2.4-.4.4h-5.7c-.2,0-.4-.2-.4-.4Z"/>
        <path d="M49.7,32.1l-9.9-9.9c-.2-.2-.2-.4,0-.6s.4-.2.6,0l9.9,9.9c.2.2.2.4,0,.6,0,0-.2.1-.3.1s-.2,0-.3-.1Z"/>
        <path d="M20.2,8.2c-.2,0-.4-.2-.4-.4V2.1c0-.2.2-.4.4-.4s.4.2.4.4v5.7c0,.2-.2.4-.4.4h0Z"/>
        <path d="M34.1,22.2l-14.2-14.2c-.2-.2-.2-.4,0-.6s.4-.2.6,0l14.2,14.2c.2.2.2.4,0,.6,0,0-.2.1-.3.1s-.2,0-.3-.1Z"/>
        <path d="M208.3,20.5v-9.9c0-.2.2-.4.4-.4s.4.2.4.4v9.9c0,.2-.2.4-.4.4s-.4-.2-.4-.4Z"/>
        <path d="M178.6,4.9V.6c0-.2.2-.4.4-.4s.4.2.4.4v4.3c0,.2-.2.4-.4.4s-.4-.2-.4-.4Z"/>
        <path d="M208.4,10.9l-2.8-2.8c-.2-.2-.2-.4,0-.6s.4-.2.6,0l2.8,2.8c.2.2.2.4,0,.6,0,0-.2.1-.3.1s-.2,0-.3-.1Z"/>
        <path d="M181.5,8l-2.8-2.8c-.2-.2-.2-.4,0-.6s.4-.2.6,0l2.8,2.8c.2.2.2.4,0,.6,0,0-.2.1-.3.1s-.2,0-.3-.1Z"/>
        <path d="M181.4,7.7c0-.2.2-.4.4-.4h24.1c.2,0,.4.2.4.4s-.2.4-.4.4h-24.1c-.2,0-.4-.2-.4-.4Z"/>
        <path d="M208.3,25.8v-5.3c0-.2.2-.4.4-.4s.4.2.4.4v5.3c0,.2-.2.4-.4.4s-.4-.2-.4-.4Z"/>
        <path d="M227.6,45.2l-19.2-19.2c-.2-.2-.2-.4,0-.6s.4-.2.6,0l19.2,19.2c.2.2.2.4,0,.6s-.2.1-.3.1c-.1,0-.2,0-.3-.1Z"/>
        <path d="M227.6,38l-16.3-16.3c-.2-.2-.2-.4,0-.6.2-.2.4-.2.6,0l16.3,16.3c.2.2.2.4,0,.6s-.2.1-.3.1c-.1,0-.2,0-.3-.1Z"/>
        <path d="M194.4,5.2l-4.2-4.2c-.2-.2-.2-.4,0-.6.2-.2.4-.2.6,0l4.2,4.3c.2.2.2.4,0,.6,0,0-.2.1-.3.1s-.2,0-.3-.1Z"/>
        <path d="M211.3,8l-2.8-2.8c-.2-.2-.2-.4,0-.6s.4-.2.6,0l2.8,2.8c.2.2.2.4,0,.6,0,0-.2.1-.3.1s-.2,0-.3-.1Z"/>
        <path d="M194.3,4.9c0-.2.2-.4.4-.4h14c.2,0,.4.2.4.4s-.2.4-.4.4h-14c-.2,0-.4-.2-.4-.4Z"/>
        <path d="M211.2,21.4V7.7c0-.2.2-.4.4-.4s.4.2.4.4v13.7c0,.2-.2.4-.4.4s-.4-.2-.4-.4Z"/>
        <path d="M224,30.5c0-.2.2-.4.4-.4h3.5c.2,0,.4.2.4.4s-.2.4-.4.4h-3.5c-.2,0-.4-.2-.4-.4Z"/>
        <path d="M224.2,30.8l-10-10c-.2-.2-.2-.4,0-.6s.4-.2.6,0l10,10c.2.2.2.4,0,.6,0,0-.2.1-.3.1-.1,0-.2,0-.3-.1Z"/>
        <path d="M214,20.5V4.9c0-.2.2-.4.4-.4s.4.2.4.4v15.6c0,.2-.2.4-.4.4s-.4-.2-.4-.4Z"/>
        <path d="M214.1,5.2l-4.2-4.2c-.2-.2-.2-.4,0-.6.2-.2.4-.2.6,0l4.2,4.3c.2.2.2.4,0,.6,0,0-.2.1-.3.1s-.2,0-.3-.1Z"/>
        <path d="M201.5.7c0-.2.2-.4.4-.4h8.2c.2,0,.4.2.4.4s-.2.4-.4.4h-8.2c-.2,0-.4-.2-.4-.4Z"/>
        <path d="M190.2,33.6c0-.2.2-.4.4-.4h15.4c.2,0,.4.2.4.4s-.2.4-.4.4h-15.4c-.2,0-.4-.2-.4-.4Z"/>
        <path d="M167.6,5.3c-.2,0-.4-.2-.4-.4V.5c0-.2.2-.4.4-.4s.4.2.4.4v4.4c0,.2-.2.4-.4.4h0Z"/>
        <path d="M172.9,16.2v-5.7c0-.2.2-.4.4-.4s.4.2.4.4v5.7c0,.2-.2.4-.4.4s-.4-.2-.4-.4Z"/>
        <path d="M190.4,33.9l-17.4-17.4c-.2-.2-.2-.4,0-.6s.4-.2.6,0l17.4,17.4c.2.2.2.4,0,.6,0,0-.2.1-.3.1-.1,0-.2,0-.3-.1Z"/>
        <path d="M173,10.9l-5.7-5.7c-.2-.2-.2-.4,0-.6s.4-.2.6,0l5.7,5.7c.2.2.2.4,0,.6,0,0-.2.1-.3.1-.1,0-.2,0-.3-.1Z"/>
        <path d="M42.6,91.2v-15.3c0-.2.2-.4.4-.4s.4.2.4.4v15.3c0,.2-.2.4-.4.4s-.4-.2-.4-.4Z"/>
        <path d="M35.5,73.5l-3.6-3.6c-.2-.2-.2-.4,0-.6s.4-.2.6,0l3.6,3.6c.2.2.2.4,0,.6s-.2.1-.3.1-.2,0-.3-.1Z"/>
        <path d="M279.6,53.8c-.1,0-.2,0-.3-.1l-8.5-8.5c-.2-.2-.2-.4,0-.6s.4-.2.6,0l8.5,8.5c.2.2.2.4,0,.6,0,0-.2.1-.3.1h0Z"/>
        <path d="M156.2,77.6l-3-3c-.2-.2-.2-.4,0-.6s.4-.2.6,0l3,3c.2.2.2.4,0,.6s-.2.1-.3.1-.2,0-.3-.1Z"/>
        <path d="M56.7,114c0-.2.2-.4.4-.4h110.6c.2,0,.4.2.4.4s-.2.4-.4.4H57.1c-.2,0-.4-.2-.4-.4Z"/>
        <path d="M156,102.9v-10.5c0-.2.2-.4.4-.4s.4.2.4.4v10.5c0,.2-.2.4-.4.4s-.4-.2-.4-.4Z"/>
        <path d="M156,92.3v-15c0-.2.2-.4.4-.4s.4.2.4.4v15c0,.2-.2.4-.4.4-.2,0-.4-.2-.4-.4Z"/>
        <path d="M42.8,76.2l-2.7-2.7c-.2-.2-.2-.4,0-.6s.4-.2.6,0l2.7,2.7c.2.2.2.4,0,.6s-.2.1-.3.1-.2,0-.3-.1Z"/>
        <path d="M148.8,74.3c0-.2.2-.4.4-.4h4.3c.2,0,.4.2.4.4s-.2.4-.4.4h-4.3c-.2,0-.4-.2-.4-.4Z"/>
        <path d="M167.3,114.3l-11.2-11.2c-.2-.2-.2-.4,0-.6s.4-.2.6,0l11.2,11.2c.2.2.2.4,0,.6s-.2.1-.3.1-.2,0-.3-.1Z"/>
        <path d="M279.2,92.8v-39.3c0-.2.2-.4.4-.4s.4.2.4.4v39.3c0,.2-.2.4-.4.4s-.4-.2-.4-.4Z"/>
        <path d="M42.6,100v-8.8c0-.2.2-.4.4-.4s.4.2.4.4v8.8c0,.2-.2.4-.4.4s-.4-.2-.4-.4Z"/>
        <path d="M167.2,114c0-.2.2-.4.4-.4h90.7c.2,0,.4.2.4.4s-.2.4-.4.4h-90.7c-.2,0-.4-.2-.4-.4Z"/>
        <path d="M148.9,74.7l-3.6-3.6c-.2-.2-.2-.4,0-.6.2-.2.4-.2.6,0l3.6,3.6c.2.2.2.4,0,.6s-.2.1-.3.1-.2,0-.3-.1Z"/>
        <path d="M56.8,114.3l-14-14c-.2-.2-.2-.4,0-.6s.4-.2.6,0l14,14c.2.2.2.4,0,.6s-.2.1-.3.1-.2,0-.3-.1Z"/>
        <path d="M258.1,114.3c-.2-.2-.2-.4,0-.6l21.3-21.3c.2-.2.4-.2.6,0,.2.2.2.4,0,.6l-21.3,21.3c0,0-.2.1-.3.1-.1,0-.2,0-.3-.1Z"/>
        <path d="M205.5,74.9c0-.2.2-.4.4-.4h4.8c.2,0,.4.2.4.4s-.2.4-.4.4h-4.8c-.2,0-.4-.2-.4-.4Z"/>
        <path d="M99.5,76.2l-2.1-2.1c-.2-.2-.2-.4,0-.6s.4-.2.6,0l2.1,2.1c.2.2.2.4,0,.6s-.2.1-.3.1-.2,0-.3-.1Z"/>
        <path d="M205.6,75.2l-3.6-3.6c-.2-.2-.2-.4,0-.6s.4-.2.6,0l3.6,3.6c.2.2.2.4,0,.6s-.2.1-.3.1-.2,0-.3-.1Z"/>
        <path d="M88.9,74.1l-3.6-3.6c-.2-.2-.2-.4,0-.6s.4-.2.6,0l3.6,3.6c.2.2.2.4,0,.6s-.2.1-.3.1-.2,0-.3-.1Z"/>
        <path d="M99.3,91.7v-15.8c0-.2.2-.4.4-.4s.4.2.4.4v15.8c0,.2-.2.4-.4.4s-.4-.2-.4-.4Z"/>
        <path d="M92.1,73.8c0-.2.2-.4.4-.4h5.1c.2,0,.4.2.4.4s-.2.4-.4.4h-5.1c-.2,0-.4-.2-.4-.4Z"/>
        <path d="M212.7,92.9v-15.5c0-.2.2-.4.4-.4s.4.2.4.4v15.5c0,.2-.2.4-.4.4s-.4-.2-.4-.4Z"/>
        <path d="M212.7,77.5l-2.3-2.3c-.2-.2-.2-.4,0-.6s.4-.2.6,0l2.3,2.3c.2.2.2.4,0,.6s-.2.1-.3.1-.2,0-.3-.1Z"/>
      </g>
      <g id="tangle">
        <g>
          <path d="M280.2,90v.3c-.1.1-.2.2-.4.2-.7,0-1.9-.2-2.7-.2s-2,.9-2.7,1.5c-1.3,1.1-1.8,2.4-3.9,1.3-.2-1.6-.7-2.7-2.5-2.1-1.5.4-2.2,2.6-2.9,3.9-.4.7-.9,1.4-1.3,2.2-.4.8-1.2,2.8-2.1,2.9-.9,0-2.1-.7-2.7-1.3-.6-.6-1-1.5-1.4-2,0,0,0-.2-.2-.1l-1.4,1c1.5,2.3-.6,4-2.7,4.7-.8.3-2.4.6-3.2.7-2.9.2-6.8-1.5-8.2-4.1-1.7.3-3.7.3-5.2-.6-1.6-1-2.1-2.1-1.9-4,.1-1.1.5-2.3,1.2-3.2-.7-.6-1.6-.6-2.5-.4-2.2.4-2.5,3-4.5,4-2.6,1.3-3.4-2-5.6-2.2-1,0-2.5.6-3.6.7-.4,0-1.5.2-1.4-.3,0-.4.9-.2,1.2-.2,1.5-.2,3.4-.9,4.8-.5,1.2.4,2.6,2.4,3.6,2.3.6,0,1.6-.8,2-1.2.8-.9,1.3-2.2,2.4-2.8,1.5-.7,2.9-.4,4.4-.1,0,0-.2-.7.2-.6h0c-.4-.1-.9-.8-1.1-1.1-1.3-1.7-1.8-4.3-.4-6.1,2.5-3.2,11.6-3.5,15.2-2.4,3,.9,6.3,4.1,6.2,7.3,0,.5-.3.9-.3,1.3,0,.3.8,1.9,1,2.2s.5.6.7.9c.7,1.1.8,2.3.2,3.5-.1.3-.4.5-.5.7.7,1.1,1.4,2.3,2.6,2.9.9.6,1.2.6,1.8-.3,1.4-1.9,2.4-4.7,3.8-6.7.8-1.2,1.5-1.7,3-1.7,1.6,0,1.9,1.2,2.1,2.5,1.4.7,2-.6,2.9-1.4,1.8-1.6,2.9-1.8,5.3-1.6.3,0,.7,0,.9.3h0ZM236.2,82.6c-.3.4-.7,1.1-.9,1.6-.5,1.9.8,4.1,2.3,5.2,1-.7,2.1-1.1,3.3-1.4.2-.7.2-1.1.6-1.7.8-1.2,2.1-2.4,3.6-2.7.6-.1,1.2,0,1.7-.2,0-1,0-2,.7-2.8l.6-.3c-.5,0-.9,0-1.3,0-2.9-.1-8.5.3-10.6,2.5h0ZM250.6,81.3c2,2,3.7,4.3,5.3,6.6.3-.5.2-1.3,0-1.8-.7-2.7-3.8-5.2-6.5-5.7,0,0,1.1.9,1.1.9ZM253.7,87.2c.3.5.6.9.8,1.4h.8s0,.5,0,.5c.1,0,.3-.2.3-.4-.6-.9-1.2-1.9-1.9-2.8-.9-1.3-2.3-3-3.4-4-.3-.3-1.4-1.2-1.8-1.2-.8,0-1.1,2.1-.9,2.6,1.8.3,3.6,1.3,5,2.5.5.4.8.8,1.1,1.3h0ZM247.5,85.3c0,0,.2.7.2.7,2.1.3,4,1.2,5.9,2,0-.2-.2-.3-.3-.5-1.3-1.7-3.7-3.2-5.8-3.6v1.4ZM244,84.6c-.4.2-.8.5-1,.9,1.4,0,2.7.3,4,.4v-1.9c-1.1,0-2.1.2-3,.7h0ZM243,87.6c.4,0,.7-.5,1.1-.7.5-.2,1-.2,1.5-.3-1.1-.8-3.3-.3-3.6,1.1.3-.1.7,0,1-.1ZM247.8,87.7c.7.2,1.3.2,2,.5,1.1.5,2.3,1.8,2,3.1.4-.1,1-.2,1.3-.4.5-.3,1.1-1,.9-1.6-.2-.6-5.5-2.4-6.3-2.5v1ZM242.9,89.1c.5.3,1,.7,1.6.8.6-.8,1.4-1.5,2.4-1.8,0-.1-.2-.1-.3-.1-.4,0-2.5,0-2.8,0-.2,0-.9.9-.8,1.1h0ZM250.5,91.1c.2.2.6,0,.9.1,0-1.3-1.1-2.4-2.3-2.8-.1,1,1,1.7,1.4,2.6ZM245.1,90.2c.3,0,.7,0,1,0,0,0,1.2-.6,1.3-.7.2-.2,0-.7,0-1.1-.9.3-1.7.9-2.3,1.7h0ZM238.5,89.5l2.7.2-.2-1.1c-.9.2-1.6.6-2.5.9h0ZM249.6,90.9c-.3-.4-.5-.8-.9-1.2v1.1c0,0,.9,0,.9,0ZM257,92.7c.2,0,.5.4.4-.2-.2-1.2-.9-1.7-1.8-2.4-.2.2-.3.2-.3.5,0,.1.7,1.8.7,1.9.2.2.7.2,1,.3ZM238.9,90.1l1.9.7c.3,0,.6-.6.2-.6-.6,0-1.5,0-2.1,0h0ZM238.6,91.9c.7-.2,1.5,0,2.2-.3-.5-.3-1.1-.3-1.7-.6-.3-.1-1.3-.8-1.4-.8-.2,0-.6.5-.6.5.4,0,1.2,1,1.5,1.1ZM242.3,90.4l.2.7c.5,0,1.2,0,1.4-.4-.6,0-1.1-.3-1.7-.2h0ZM255.3,92.3v-.4c0,0-.5-1.1-.5-1.1l-.2,1.2h.1c0,.1.6.3.6.3h0ZM244.2,91.5l1,.6c.9-.3,1.8-.2,2.7,0v-.4c-.2,0-1.2-.2-1.4-.2-.2,0-.4-.2-.7-.3-.6-.1-1,.2-1.6.3h0ZM236.3,91.9s-.1,0-.1.1c-.2.3-.2.7-.4,1,.5-.4,1.2-.7,1.8-.8.1-.1-.9-.8-1-.9,0,0-.3.5-.4.6h0ZM248.8,91.9c-.2.7.4.7.9,1,.1,0,.2.3.5.3.6-.1,0-.9,0-1.3h-1.4s0,0,0,0ZM241.1,96.2c-.2-1.4,0-3,1.2-3.9-.3,0-.9-.3-1.2,0-.3.2-.6,1.7-.8,2.1.2.6.4,1.3.8,1.8h0ZM239.1,92.3s.4.6.4.6c0,0,0,.2.2.1,0-.3,0-.5.2-.7h-.8,0ZM248.1,93.3c0-.8-1.5-.7-2.1-.7l2.1.7ZM238.1,92.6c-.9.2-2.8,1.1-2.6,2.2.2,1.6,2.3,2.6,3.7,2.6h1.8c-1.2-1.5-1.2-3.7-2.9-4.8ZM254.3,93.3l1.4.3v-.5s-1.1-.3-1.1-.3h-.2c0,0-.1.5-.1.5h0ZM256.3,94s.5.4.6.5.5.8.6.7c.4-.7.8-1.3.5-2.2-.2,0-.1.3-.3.4-.4.3-1.1-.2-1.6-.2.1.2,0,.7.1.8ZM241.7,94.8l.5-.8.7-.6v-.3c-.8,0-1.1,1.1-1.2,1.7h0ZM248.8,93.2c0,.6.1.9.7.6.1-.2-.6-.5-.7-.6ZM252.5,93.9c-.1,0-.3.4-.5.5v.4c0,0,1.4.5,1.4.5l.3-1.6c-.4,0-.8,0-1.2.2h0ZM246.8,94.3c.1.2.7.1.9.1l.2-.3-1.3-.4s.2.5.2.5h0ZM254.3,93.8c0,.8-.6,1.9.4,2.2.4-.5.8-1.1,1-1.8-.5-.1-.9-.5-1.4-.4h0ZM244.2,96.6c-.5-.8-.9-1.6-.9-2.6-1.4.5-1.2,2-.7,3.1,0,0,1.6-.6,1.6-.6ZM257,95.7l-.8-1.1-1,1.8c.4.5.5.4,1,0,.1,0,.9-.7.8-.8ZM247,97c0,.1.2.2.3.2.7,0,2.7-1.2,3.2-1.8l-.2-.2h-.1s0,.1,0,.2M253.2,96.8v-.8c0,0-.9-.4-.9-.4.2.5.5.9.9,1.2ZM247.8,97.7c.7.6,2.6,1.2,3.4,1,.4-.1,1-.7,1.5-.8-.5-.8-.7-1.6-1.6-2-1,.8-2,1.6-3.3,1.8h0ZM254,97.6c0,.1,0,.2,0,.2l1-.5c.1-.1-.2-.5-.4-.4,0,.3-.5.4-.6.7ZM243.4,98.2c0,0,.4.6.5.6.8.6,2.7,1,3.7.9.7,0,1.7-.3,2.3-.6-.7-.1-1.4-.3-2-.6-.3-.2-.8-.7-1.1-.8,0,0-1.4-.4-1.5-.4-.4,0-1.4.9-1.9.8h0ZM237.1,97.6l.6.3c1.3.5,2.5.5,3.9.2,0-.2-.2-.2-.3-.2-.5,0-1.1.1-1.7,0-.9,0-1.7-.3-2.5-.5h0ZM255.5,97.9l-1.3.6c.3.9.1,1.7-.2,2.5,1.3-.5,2.4-1.8,1.5-3.1ZM245.8,100.2c0,.2.2.3.3.3,1.1.7,3.3,1.4,4.6,1.4,1.5,0,3.8-1.6,3-3.2,0,0-.5,0-.7.1-1.2.3-3.8,1.4-4.9,1.4s-1.3,0-1.9,0c0,0-.2-.2-.4,0ZM243.9,100c.3.3.8.7,1.3.8l-1.6-1.2c0,0,.3.3.3.4Z"/>
          <path d="M247.8,108.6v-.4c-.2,0-.6,0-.6,0v.4h-.4l.5-1.7h.3s.5,1.7.5,1.7c0,0-.3,0-.3,0Z"/>
          <path d="M252,108.6v-.4c-.2,0-.6,0-.6,0v.4h-.4l.5-1.7h.3s.5,1.7.5,1.7c0,0-.3,0-.3,0Z"/>
          <path d="M249.1,108.6c.2-1.1-.5-.7-.6,0h-.3l.4-.8c-.3,0-.2-.4-.2-.6.1-.3.7-.2,1-.2v1.7s-.3,0-.3,0ZM248.6,107.7h.5c0,0,0-.6,0-.6h-.5c0,.1,0,.6,0,.6Z"/>
          <path d="M250.5,108.6c.2-1.1-.5-.7-.6,0h-.3l.4-.8c-.3,0-.2-.4-.2-.6.1-.3.7-.2,1-.2v1.7s-.3,0-.3,0ZM250,107.7h.5c0,0,0-.6,0-.6h-.5c0,.1,0,.6,0,.6Z"/>
          <path d="M242.1,108.6h-.5l-.2-.3c.4.2.7.2.8-.2,0-.2,0-.1-.2-.1-.2,0-.5,0-.7,0,.2-1.4,1.9-.2.7.6h0Z"/>
          <path d="M233.7,108.6h-.5l-.2-.3c.4.1.9.1.8-.4h-.9c.3-1.4,1.9-.1.7.6h0Z"/>
          <path d="M243.6,108.6h-.7v-1.9s.1,0,.1,0v.7c.9-.4,1.1.7.6,1.2h0ZM243.2,107.6c-.3.2-.2.8.2.8.4,0,.4-.8,0-.9h-.3Z"/>
          <path d="M256.3,107v1.7h-.5c-.9-.5-.6-1.9.5-1.7ZM256.1,108.4v-1.3c-.9-.2-.9,1.5,0,1.3Z"/>
          <path d="M238.8,107.4c.2-.2.6,0,.8,0v1.3s-.2,0-.2,0c.2-1.5-.6-1.5-.5,0h-.3c0-.3,0-1,.1-1.2Z"/>
          <path d="M252.8,108.6c-.3-.1-.4-.3-.3-.7.1-.4,1-.1.8-.7h0c-.3-.3-.6,0-.6,0v-.2c.4-.4,1.4.1.9.6-.2.2-1.1.1-.5.7h.7c0,0-.3.2-.3.2,0,0-.5,0-.5,0Z"/>
          <path d="M238.1,108.6h-.8c0-.6-.2-1.5.7-1.2.2,0,.2,0,.2.2-.3-.2-.6-.2-.7.2.3,0,.6,0,.8.2v.6c-.1,0-.1,0-.1,0ZM237.7,108.4c.8,0,.4-.6-.2-.4l.2.4Z"/>
          <path d="M253.9,108.6l.4-.2v-1.2c0,0-.5.2-.4-.2h.9v.2s-.2,0-.2,0v1.2s.3.2.3.2c0,0-.9,0-.9,0Z"/>
          <path d="M246.2,108.6h-.2c.1-.7-.2-1.1-.5-1.6.4-.3.4.5.6.5.3,0,.3-.7.7-.6-.3.6-.7,1-.5,1.7h0Z"/>
          <path d="M240.8,108.6h-.5c-.3-.2-.4-.4-.1-.7.2-.2.6,0,.5-.4h-.5c0-.5,1-.2.8.3l-.7.4.2.2h.6c0,0-.2.2-.2.2h0Z"/>
          <path d="M232.5,108.6h-.3c0-.5.1-1.3-.6-1,0-.4.4-.3.6,0,0-.2,0-.2.3-.2v1.3s0,0,0,0Z"/>
          <path d="M236.7,108.6h-.3c0-.5.1-1.3-.6-1,0-.4.4-.3.6,0,0-.2,0-.2.3-.2v1.3s0,0,0,0Z"/>
          <path d="M234.4,108.6l.5-.3v-1.4c.3,0,.6-.1.6.2h-.4c-.1.1.2,1.4-.2,1.6,0,0-.5,0-.5,0Z"/>
        </g>
      </g>
      <g id="arrow">
        <path d="M20.3,28c0,.3-.2.6-.3.9,0,0-.3-.1-.4-.1l-.2.8h-.4c0,.1,0,.3-.1.4-.1,0-.2-.1-.4-.1v-.5c0,0-.3-.1-.3-.1v-.5c.1,0,.5,0,.5,0l.3-.9h.4c0,.1.2-.8.2-.8h.4c0,0,.3-.9.3-.9l-2-.5v-.4c.1,0,.5,0,.5,0v-.5c.1,0,.5.1.5.1v-.5c.1,0,.6.1.6.1v-.5c.1,0,.5,0,.5,0l.2-.4h.4c0,0,.1-.4.1-.4h.4c0,0,.1-.4.1-.4h.4c0,0,.1-.3.1-.3h.4c0,0,.1-.3.1-.3h.4s.1-.4.1-.4h.4s.1-.4.1-.4c.4.1.5.1.5-.3h.4s-1.9,7.6-1.9,7.6h-.4c0-.1,0-.6,0-.6h-.4c0-.1.1-.6.1-.6h-.4c0-.1.1-.5.1-.5h-.4c0-.1.1-.5.1-.5h-.4c0,.2-.1.5-.2.8"/>
      </g>
    </g>
  </g>
</svg>