  0
SECTION
  2
HEADER
  9
$ANGBASE
  50
0.0
  9
$ANGDIR
  70
1
  9
$MEASUREMENT
  70
1
  9
$INSUNITS
  70
4
  0
ENDSEC
  0
SECTION
  2
TABLES
  0
TABLE
  2
LTYPE
  70
4
  0
LTYPE
  5
40F
  2
CONTINUOUS
  70
0
  3
Solid line
  72
65
  73
0
  40
0.0
  0
LTYPE
  5
410
  2
DASHDOT
 70
0
  3
Dash Dot ____ _ ____ _
 72
65
 73
4
 40
2.0
 49
1.25
 49
-0.25
 49
0.25
 49
-0.25
  0
LTYPE
  5
411
  2
DASHED
 70
0
  3
Dashed __ __ __ __ __
 72
65
 73
2
 40
0.75
 49
0.5
 49
-0.25
  0
LTYPE
  5
43B
  2
DOTTED
 70
0
  3
Dotted .  .  .  .
 72
65
 73
2
 40
0.2
 49
0.0
 49
-0.2
  0
ENDTAB
  0
TABLE
  2
STYLE
  70
4
  0
STYLE
  2
KICAD
  70
0
  40
0
  41
1
  42
1
  50
0
  71
0
  3
isocp.shx
  0
STYLE
  2
KICADB
  70
0
  40
0
  41
1
  42
1
  50
0
  71
0
  3
isocp.shx
  0
STYLE
  2
KICADI
  70
0
  40
0
  41
1
  42
1
  50
15
  71
0
  3
isocp.shx
  0
STYLE
  2
KICADBI
  70
0
  40
0
  41
1
  42
1
  50
15
  71
0
  3
isocp.shx
  0
ENDTAB
  0
TABLE
  2
LAYER
  70
13
  0
LAYER
  2
Front
  70
0
  62
13
  420
13120564
  6
CONTINUOUS
  0
LAYER
  2
Back
  70
0
  62
153
  420
5078980
  6
CONTINUOUS
  0
LAYER
  2
F.Paste
  70
0
  62
253
  420
11837594
  6
CONTINUOUS
  0
LAYER
  2
B.Paste
  70
0
  62
132
  420
49858
  6
CONTINUOUS
  0
LAYER
  2
F.Silkscreen
  70
0
  62
41
  420
15920545
  6
CONTINUOUS
  0
LAYER
  2
B.Silkscreen
  70
0
  62
31
  420
15250087
  6
CONTINUOUS
  0
LAYER
  2
F.Mask
  70
0
  62
201
  420
14181631
  6
CONTINUOUS
  0
LAYER
  2
B.Mask
  70
0
  62
4
  420
196590
  6
CONTINUOUS
  0
LAYER
  2
Edge.Cuts
  70
0
  62
254
  420
13685453
  6
CONTINUOUS
  0
LAYER
  2
Margin
  70
0
  62
6
  420
16721634
  6
CONTINUOUS
  0
LAYER
  2
F.Courtyard
  70
0
  62
6
  420
16721634
  6
CONTINUOUS
  0
LAYER
  2
B.Courtyard
  70
0
  62
4
  420
2550271
  6
CONTINUOUS
  0
LAYER
  2
F.Fab
  70
0
  62
9
  420
11513775
  6
CONTINUOUS
  0
ENDTAB
  0
ENDSEC
  0
SECTION
  2
ENTITIES
0
LINE
8
B.Paste
6
CONTINUOUS
10
130.4891000000000076
20
-149.1089999999999804
11
127.9390999999999963
21
-149.1089999999999804
0
LINE
8
B.Paste
6
CONTINUOUS
10
127.9390999999999963
20
-149.1089999999999804
11
127.9390999999999963
21
-146.6089999999999804
0
LINE
8
B.Paste
6
CONTINUOUS
10
127.9390999999999963
20
-146.6089999999999804
11
130.4891000000000076
21
-146.6089999999999804
0
LINE
8
B.Paste
6
CONTINUOUS
10
130.4891000000000076
20
-146.6089999999999804
11
130.4891000000000076
21
-149.1089999999999804
0
LINE
8
B.Paste
6
CONTINUOUS
10
92.8589999999999947
20
-149.0509999999999877
11
90.3089999999999975
21
-149.0509999999999877
0
LINE
8
B.Paste
6
CONTINUOUS
10
90.3089999999999975
20
-149.0509999999999877
11
90.3089999999999975
21
-146.5509999999999877
0
LINE
8
B.Paste
6
CONTINUOUS
10
90.3089999999999975
20
-146.5509999999999877
11
92.8589999999999947
21
-146.5509999999999877
0
LINE
8
B.Paste
6
CONTINUOUS
10
92.8589999999999947
20
-146.5509999999999877
11
92.8589999999999947
21
-149.0509999999999877
0
LINE
8
B.Paste
6
CONTINUOUS
10
73.8089999999999975
20
-148.9819999999999993
11
71.2590000000000003
21
-148.9819999999999993
0
LINE
8
B.Paste
6
CONTINUOUS
10
71.2590000000000003
20
-148.9819999999999993
11
71.2590000000000003
21
-146.4819999999999993
0
LINE
8
B.Paste
6
CONTINUOUS
10
71.2590000000000003
20
-146.4819999999999993
11
73.8089999999999975
21
-146.4819999999999993
0
LINE
8
B.Paste
6
CONTINUOUS
10
73.8089999999999975
20
-146.4819999999999993
11
73.8089999999999975
21
-148.9819999999999993
0
LINE
8
B.Paste
6
CONTINUOUS
10
111.6550000000000011
20
-148.9819999999999993
11
109.1049999999999898
21
-148.9819999999999993
0
LINE
8
B.Paste
6
CONTINUOUS
10
109.1049999999999898
20
-148.9819999999999993
11
109.1049999999999898
21
-146.4819999999999993
0
LINE
8
B.Paste
6
CONTINUOUS
10
109.1049999999999898
20
-146.4819999999999993
11
111.6550000000000011
21
-146.4819999999999993
0
LINE
8
B.Paste
6
CONTINUOUS
10
111.6550000000000011
20
-146.4819999999999993
11
111.6550000000000011
21
-148.9819999999999993
0
LINE
8
B.Paste
6
CONTINUOUS
10
144.339100000000002
20
-146.5689999999999884
11
141.7890999999999906
21
-146.5689999999999884
0
LINE
8
B.Paste
6
CONTINUOUS
10
141.7890999999999906
20
-146.5689999999999884
11
141.7890999999999906
21
-144.0689999999999884
0
LINE
8
B.Paste
6
CONTINUOUS
10
141.7890999999999906
20
-144.0689999999999884
11
144.339100000000002
21
-144.0689999999999884
0
LINE
8
B.Paste
6
CONTINUOUS
10
144.339100000000002
20
-144.0689999999999884
11
144.339100000000002
21
-146.5689999999999884
0
LINE
8
B.Paste
6
CONTINUOUS
10
106.708999999999989
20
-146.5109999999999957
11
104.1589999999999918
21
-146.5109999999999957
0
LINE
8
B.Paste
6
CONTINUOUS
10
104.1589999999999918
20
-146.5109999999999957
11
104.1589999999999918
21
-144.0109999999999957
0
LINE
8
B.Paste
6
CONTINUOUS
10
104.1589999999999918
20
-144.0109999999999957
11
106.708999999999989
21
-144.0109999999999957
0
LINE
8
B.Paste
6
CONTINUOUS
10
106.708999999999989
20
-144.0109999999999957
11
106.708999999999989
21
-146.5109999999999957
0
LINE
8
B.Paste
6
CONTINUOUS
10
87.6589999999999918
20
-146.4420000000000073
11
85.1089999999999947
21
-146.4420000000000073
0
LINE
8
B.Paste
6
CONTINUOUS
10
85.1089999999999947
20
-146.4420000000000073
11
85.1089999999999947
21
-143.9420000000000073
0
LINE
8
B.Paste
6
CONTINUOUS
10
85.1089999999999947
20
-143.9420000000000073
11
87.6589999999999918
21
-143.9420000000000073
0
LINE
8
B.Paste
6
CONTINUOUS
10
87.6589999999999918
20
-143.9420000000000073
11
87.6589999999999918
21
-146.4420000000000073
0
LINE
8
B.Paste
6
CONTINUOUS
10
125.5049999999999955
20
-146.4420000000000073
11
122.9549999999999983
21
-146.4420000000000073
0
LINE
8
B.Paste
6
CONTINUOUS
10
122.9549999999999983
20
-146.4420000000000073
11
122.9549999999999983
21
-143.9420000000000073
0
LINE
8
B.Paste
6
CONTINUOUS
10
122.9549999999999983
20
-143.9420000000000073
11
125.5049999999999955
21
-143.9420000000000073
0
LINE
8
B.Paste
6
CONTINUOUS
10
125.5049999999999955
20
-143.9420000000000073
11
125.5049999999999955
21
-146.4420000000000073
0
LINE
8
B.Paste
6
CONTINUOUS
10
111.69789999999999
20
-130.091399999999993
11
109.1478999999999928
21
-130.091399999999993
0
LINE
8
B.Paste
6
CONTINUOUS
10
109.1478999999999928
20
-130.091399999999993
11
109.1478999999999928
21
-127.591399999999993
0
LINE
8
B.Paste
6
CONTINUOUS
10
109.1478999999999928
20
-127.591399999999993
11
111.69789999999999
21
-127.591399999999993
0
LINE
8
B.Paste
6
CONTINUOUS
10
111.69789999999999
20
-127.591399999999993
11
111.69789999999999
21
-130.091399999999993
0
LINE
8
B.Paste
6
CONTINUOUS
10
130.5508999999999844
20
-130.0799999999999841
11
128.0009000000000015
21
-130.0799999999999841
0
LINE
8
B.Paste
6
CONTINUOUS
10
128.0009000000000015
20
-130.0799999999999841
11
128.0009000000000015
21
-127.5799999999999983
0
LINE
8
B.Paste
6
CONTINUOUS
10
128.0009000000000015
20
-127.5799999999999983
11
130.5508999999999844
21
-127.5799999999999983
0
LINE
8
B.Paste
6
CONTINUOUS
10
130.5508999999999844
20
-127.5799999999999983
11
130.5508999999999844
21
-130.0799999999999841
0
LINE
8
B.Paste
6
CONTINUOUS
10
73.8406999999999982
20
-130.0502999999999929
11
71.2907000000000011
21
-130.0502999999999929
0
LINE
8
B.Paste
6
CONTINUOUS
10
71.2907000000000011
20
-130.0502999999999929
11
71.2907000000000011
21
-127.5502999999999929
0
LINE
8
B.Paste
6
CONTINUOUS
10
71.2907000000000011
20
-127.5502999999999929
11
73.8406999999999982
21
-127.5502999999999929
0
LINE
8
B.Paste
6
CONTINUOUS
10
73.8406999999999982
20
-127.5502999999999929
11
73.8406999999999982
21
-130.0502999999999929
0
LINE
8
B.Paste
6
CONTINUOUS
10
92.7946000000000026
20
-130.0267000000000053
11
90.2445999999999913
21
-130.0267000000000053
0
LINE
8
B.Paste
6
CONTINUOUS
10
90.2445999999999913
20
-130.0267000000000053
11
90.2445999999999913
21
-127.5266999999999911
0
LINE
8
B.Paste
6
CONTINUOUS
10
90.2445999999999913
20
-127.5266999999999911
11
92.7946000000000026
21
-127.5266999999999911
0
LINE
8
B.Paste
6
CONTINUOUS
10
92.7946000000000026
20
-127.5266999999999911
11
92.7946000000000026
21
-130.0267000000000053
0
LINE
8
B.Paste
6
CONTINUOUS
10
125.5478999999999985
20
-127.551400000000001
11
122.9979000000000013
21
-127.551400000000001
0
LINE
8
B.Paste
6
CONTINUOUS
10
122.9979000000000013
20
-127.551400000000001
11
122.9979000000000013
21
-125.051400000000001
0
LINE
8
B.Paste
6
CONTINUOUS
10
122.9979000000000013
20
-125.051400000000001
11
125.5478999999999985
21
-125.051400000000001
0
LINE
8
B.Paste
6
CONTINUOUS
10
125.5478999999999985
20
-125.051400000000001
11
125.5478999999999985
21
-127.551400000000001
0
LINE
8
B.Paste
6
CONTINUOUS
10
144.4009000000000071
20
-127.539999999999992
11
141.8508999999999958
21
-127.539999999999992
0
LINE
8
B.Paste
6
CONTINUOUS
10
141.8508999999999958
20
-127.539999999999992
11
141.8508999999999958
21
-125.039999999999992
0
LINE
8
B.Paste
6
CONTINUOUS
10
141.8508999999999958
20
-125.039999999999992
11
144.4009000000000071
21
-125.039999999999992
0
LINE
8
B.Paste
6
CONTINUOUS
10
144.4009000000000071
20
-125.039999999999992
11
144.4009000000000071
21
-127.539999999999992
0
LINE
8
B.Paste
6
CONTINUOUS
10
87.6906999999999925
20
-127.5103000000000009
11
85.1406999999999954
21
-127.5103000000000009
0
LINE
8
B.Paste
6
CONTINUOUS
10
85.1406999999999954
20
-127.5103000000000009
11
85.1406999999999954
21
-125.0103000000000009
0
LINE
8
B.Paste
6
CONTINUOUS
10
85.1406999999999954
20
-125.0103000000000009
11
87.6906999999999925
21
-125.0103000000000009
0
LINE
8
B.Paste
6
CONTINUOUS
10
87.6906999999999925
20
-125.0103000000000009
11
87.6906999999999925
21
-127.5103000000000009
0
LINE
8
B.Paste
6
CONTINUOUS
10
106.644599999999997
20
-127.486699999999999
11
104.0945999999999998
21
-127.486699999999999
0
LINE
8
B.Paste
6
CONTINUOUS
10
104.0945999999999998
20
-127.486699999999999
11
104.0945999999999998
21
-124.986699999999999
0
LINE
8
B.Paste
6
CONTINUOUS
10
104.0945999999999998
20
-124.986699999999999
11
106.644599999999997
21
-124.986699999999999
0
LINE
8
B.Paste
6
CONTINUOUS
10
106.644599999999997
20
-124.986699999999999
11
106.644599999999997
21
-127.486699999999999
  0
ENDSEC
  0
EOF
