  0
SECTION
  2
HEADER
  9
$ANGBASE
  50
0.0
  9
$ANGDIR
  70
1
  9
$MEASUREMENT
  70
1
  9
$INSUNITS
  70
4
  0
ENDSEC
  0
SECTION
  2
TABLES
  0
TABLE
  2
LTYPE
  70
4
  0
LTYPE
  5
40F
  2
CONTINUOUS
  70
0
  3
Solid line
  72
65
  73
0
  40
0.0
  0
LTYPE
  5
410
  2
DASHDOT
 70
0
  3
Dash Dot ____ _ ____ _
 72
65
 73
4
 40
2.0
 49
1.25
 49
-0.25
 49
0.25
 49
-0.25
  0
LTYPE
  5
411
  2
DASHED
 70
0
  3
Dashed __ __ __ __ __
 72
65
 73
2
 40
0.75
 49
0.5
 49
-0.25
  0
LTYPE
  5
43B
  2
DOTTED
 70
0
  3
Dotted .  .  .  .
 72
65
 73
2
 40
0.2
 49
0.0
 49
-0.2
  0
ENDTAB
  0
TABLE
  2
STYLE
  70
4
  0
STYLE
  2
KICAD
  70
0
  40
0
  41
1
  42
1
  50
0
  71
0
  3
isocp.shx
  0
STYLE
  2
KICADB
  70
0
  40
0
  41
1
  42
1
  50
0
  71
0
  3
isocp.shx
  0
STYLE
  2
KICADI
  70
0
  40
0
  41
1
  42
1
  50
15
  71
0
  3
isocp.shx
  0
STYLE
  2
KICADBI
  70
0
  40
0
  41
1
  42
1
  50
15
  71
0
  3
isocp.shx
  0
ENDTAB
  0
TABLE
  2
LAYER
  70
13
  0
LAYER
  2
Front
  70
0
  62
13
  420
13120564
  6
CONTINUOUS
  0
LAYER
  2
Back
  70
0
  62
153
  420
5078980
  6
CONTINUOUS
  0
LAYER
  2
F.Paste
  70
0
  62
253
  420
11837594
  6
CONTINUOUS
  0
LAYER
  2
B.Paste
  70
0
  62
132
  420
49858
  6
CONTINUOUS
  0
LAYER
  2
F.Silkscreen
  70
0
  62
41
  420
15920545
  6
CONTINUOUS
  0
LAYER
  2
B.Silkscreen
  70
0
  62
31
  420
15250087
  6
CONTINUOUS
  0
LAYER
  2
F.Mask
  70
0
  62
201
  420
14181631
  6
CONTINUOUS
  0
LAYER
  2
B.Mask
  70
0
  62
4
  420
196590
  6
CONTINUOUS
  0
LAYER
  2
Edge.Cuts
  70
0
  62
254
  420
13685453
  6
CONTINUOUS
  0
LAYER
  2
Margin
  70
0
  62
6
  420
16721634
  6
CONTINUOUS
  0
LAYER
  2
F.Courtyard
  70
0
  62
6
  420
16721634
  6
CONTINUOUS
  0
LAYER
  2
B.Courtyard
  70
0
  62
4
  420
2550271
  6
CONTINUOUS
  0
LAYER
  2
F.Fab
  70
0
  62
9
  420
11513775
  6
CONTINUOUS
  0
ENDTAB
  0
ENDSEC
  0
SECTION
  2
ENTITIES
0
LINE
8
F.Courtyard
6
CONTINUOUS
10
154.4095669999999814
20
-156.0069029999999941
11
154.4230969999999843
21
-156.020432999999997
0
LINE
8
F.Courtyard
6
CONTINUOUS
10
154.4230969999999843
20
-156.020432999999997
11
154.4249999999999829
21
-156.0300000000000011
0
LINE
8
F.Courtyard
6
CONTINUOUS
10
154.4249999999999829
20
-156.0300000000000011
11
154.4249999999999829
21
-158.2299999999999898
0
LINE
8
F.Courtyard
6
CONTINUOUS
10
154.4249999999999829
20
-158.2299999999999898
11
154.4230969999999843
21
-158.2395669999999939
0
LINE
8
F.Courtyard
6
CONTINUOUS
10
154.4230969999999843
20
-158.2395669999999939
11
154.4095669999999814
21
-158.2530969999999968
0
LINE
8
F.Courtyard
6
CONTINUOUS
10
154.4095669999999814
20
-158.2530969999999968
11
154.4000000000000057
21
-158.2549999999999955
0
LINE
8
F.Courtyard
6
CONTINUOUS
10
154.4000000000000057
20
-158.2549999999999955
11
149.0999999999999943
21
-158.2549999999999955
0
LINE
8
F.Courtyard
6
CONTINUOUS
10
149.0999999999999943
20
-158.2549999999999955
11
149.0904329999999902
21
-158.2530969999999968
0
LINE
8
F.Courtyard
6
CONTINUOUS
10
149.0904329999999902
20
-158.2530969999999968
11
149.0769029999999873
21
-158.2395669999999939
0
LINE
8
F.Courtyard
6
CONTINUOUS
10
149.0769029999999873
20
-158.2395669999999939
11
149.0749999999999886
21
-158.2299999999999898
0
LINE
8
F.Courtyard
6
CONTINUOUS
10
149.0749999999999886
20
-158.2299999999999898
11
149.0749999999999886
21
-156.0300000000000011
0
LINE
8
F.Courtyard
6
CONTINUOUS
10
149.0749999999999886
20
-156.0300000000000011
11
149.0769029999999873
21
-156.020432999999997
0
LINE
8
F.Courtyard
6
CONTINUOUS
10
149.0769029999999873
20
-156.020432999999997
11
149.0904329999999902
21
-156.0069029999999941
0
LINE
8
F.Courtyard
6
CONTINUOUS
10
149.0904329999999902
20
-156.0069029999999941
11
149.0999999999999943
21
-156.0049999999999955
0
LINE
8
F.Courtyard
6
CONTINUOUS
10
149.0999999999999943
20
-156.0049999999999955
11
154.4000000000000057
21
-156.0049999999999955
0
LINE
8
F.Courtyard
6
CONTINUOUS
10
154.4000000000000057
20
-156.0049999999999955
11
154.4095669999999814
21
-156.0069029999999941
0
LINE
8
F.Courtyard
6
CONTINUOUS
10
149.125
20
-156.0550000000000068
11
149.125
21
-158.2049999999999841
0
LINE
8
F.Courtyard
6
CONTINUOUS
10
149.125
20
-158.2049999999999841
11
154.375
21
-158.2049999999999841
0
LINE
8
F.Courtyard
6
CONTINUOUS
10
154.375
20
-158.2049999999999841
11
154.375
21
-156.0550000000000068
0
LINE
8
F.Courtyard
6
CONTINUOUS
10
154.375
20
-156.0550000000000068
11
149.125
21
-156.0550000000000068
0
LINE
8
F.Courtyard
6
CONTINUOUS
10
161.2395669999999939
20
-156.0069029999999941
11
161.2530969999999968
21
-156.020432999999997
0
LINE
8
F.Courtyard
6
CONTINUOUS
10
161.2530969999999968
20
-156.020432999999997
11
161.2549999999999955
21
-156.0300000000000011
0
LINE
8
F.Courtyard
6
CONTINUOUS
10
161.2549999999999955
20
-156.0300000000000011
11
161.2549999999999955
21
-158.2299999999999898
0
LINE
8
F.Courtyard
6
CONTINUOUS
10
161.2549999999999955
20
-158.2299999999999898
11
161.2530969999999968
21
-158.2395669999999939
0
LINE
8
F.Courtyard
6
CONTINUOUS
10
161.2530969999999968
20
-158.2395669999999939
11
161.2395669999999939
21
-158.2530969999999968
0
LINE
8
F.Courtyard
6
CONTINUOUS
10
161.2395669999999939
20
-158.2530969999999968
11
161.2299999999999898
21
-158.2549999999999955
0
LINE
8
F.Courtyard
6
CONTINUOUS
10
161.2299999999999898
20
-158.2549999999999955
11
155.9300000000000068
21
-158.2549999999999955
0
LINE
8
F.Courtyard
6
CONTINUOUS
10
155.9300000000000068
20
-158.2549999999999955
11
155.9204330000000027
21
-158.2530969999999968
0
LINE
8
F.Courtyard
6
CONTINUOUS
10
155.9204330000000027
20
-158.2530969999999968
11
155.9069029999999998
21
-158.2395669999999939
0
LINE
8
F.Courtyard
6
CONTINUOUS
10
155.9069029999999998
20
-158.2395669999999939
11
155.9050000000000011
21
-158.2299999999999898
0
LINE
8
F.Courtyard
6
CONTINUOUS
10
155.9050000000000011
20
-158.2299999999999898
11
155.9050000000000011
21
-156.0300000000000011
0
LINE
8
F.Courtyard
6
CONTINUOUS
10
155.9050000000000011
20
-156.0300000000000011
11
155.9069029999999998
21
-156.020432999999997
0
LINE
8
F.Courtyard
6
CONTINUOUS
10
155.9069029999999998
20
-156.020432999999997
11
155.9204330000000027
21
-156.0069029999999941
0
LINE
8
F.Courtyard
6
CONTINUOUS
10
155.9204330000000027
20
-156.0069029999999941
11
155.9300000000000068
21
-156.0049999999999955
0
LINE
8
F.Courtyard
6
CONTINUOUS
10
155.9300000000000068
20
-156.0049999999999955
11
161.2299999999999898
21
-156.0049999999999955
0
LINE
8
F.Courtyard
6
CONTINUOUS
10
161.2299999999999898
20
-156.0049999999999955
11
161.2395669999999939
21
-156.0069029999999941
0
LINE
8
F.Courtyard
6
CONTINUOUS
10
155.9549999999999841
20
-156.0550000000000068
11
155.9549999999999841
21
-158.2049999999999841
0
LINE
8
F.Courtyard
6
CONTINUOUS
10
155.9549999999999841
20
-158.2049999999999841
11
161.2049999999999841
21
-158.2049999999999841
0
LINE
8
F.Courtyard
6
CONTINUOUS
10
161.2049999999999841
20
-158.2049999999999841
11
161.2049999999999841
21
-156.0550000000000068
0
LINE
8
F.Courtyard
6
CONTINUOUS
10
161.2049999999999841
20
-156.0550000000000068
11
155.9549999999999841
21
-156.0550000000000068
0
LINE
8
F.Courtyard
6
CONTINUOUS
10
154.4095669999999814
20
-152.1969029999999918
11
154.4230969999999843
21
-152.2104329999999948
0
LINE
8
F.Courtyard
6
CONTINUOUS
10
154.4230969999999843
20
-152.2104329999999948
11
154.4249999999999829
21
-152.2199999999999989
0
LINE
8
F.Courtyard
6
CONTINUOUS
10
154.4249999999999829
20
-152.2199999999999989
11
154.4249999999999829
21
-154.4199999999999875
0
LINE
8
F.Courtyard
6
CONTINUOUS
10
154.4249999999999829
20
-154.4199999999999875
11
154.4230969999999843
21
-154.4295669999999916
0
LINE
8
F.Courtyard
6
CONTINUOUS
10
154.4230969999999843
20
-154.4295669999999916
11
154.4095669999999814
21
-154.4430969999999945
0
LINE
8
F.Courtyard
6
CONTINUOUS
10
154.4095669999999814
20
-154.4430969999999945
11
154.4000000000000057
21
-154.4449999999999932
0
LINE
8
F.Courtyard
6
CONTINUOUS
10
154.4000000000000057
20
-154.4449999999999932
11
149.0999999999999943
21
-154.4449999999999932
0
LINE
8
F.Courtyard
6
CONTINUOUS
10
149.0999999999999943
20
-154.4449999999999932
11
149.0904329999999902
21
-154.4430969999999945
0
LINE
8
F.Courtyard
6
CONTINUOUS
10
149.0904329999999902
20
-154.4430969999999945
11
149.0769029999999873
21
-154.4295669999999916
0
LINE
8
F.Courtyard
6
CONTINUOUS
10
149.0769029999999873
20
-154.4295669999999916
11
149.0749999999999886
21
-154.4199999999999875
0
LINE
8
F.Courtyard
6
CONTINUOUS
10
149.0749999999999886
20
-154.4199999999999875
11
149.0749999999999886
21
-152.2199999999999989
0
LINE
8
F.Courtyard
6
CONTINUOUS
10
149.0749999999999886
20
-152.2199999999999989
11
149.0769029999999873
21
-152.2104329999999948
0
LINE
8
F.Courtyard
6
CONTINUOUS
10
149.0769029999999873
20
-152.2104329999999948
11
149.0904329999999902
21
-152.1969029999999918
0
LINE
8
F.Courtyard
6
CONTINUOUS
10
149.0904329999999902
20
-152.1969029999999918
11
149.0999999999999943
21
-152.1949999999999932
0
LINE
8
F.Courtyard
6
CONTINUOUS
10
149.0999999999999943
20
-152.1949999999999932
11
154.4000000000000057
21
-152.1949999999999932
0
LINE
8
F.Courtyard
6
CONTINUOUS
10
154.4000000000000057
20
-152.1949999999999932
11
154.4095669999999814
21
-152.1969029999999918
0
LINE
8
F.Courtyard
6
CONTINUOUS
10
149.125
20
-152.2450000000000045
11
149.125
21
-154.3949999999999818
0
LINE
8
F.Courtyard
6
CONTINUOUS
10
149.125
20
-154.3949999999999818
11
154.375
21
-154.3949999999999818
0
LINE
8
F.Courtyard
6
CONTINUOUS
10
154.375
20
-154.3949999999999818
11
154.375
21
-152.2450000000000045
0
LINE
8
F.Courtyard
6
CONTINUOUS
10
154.375
20
-152.2450000000000045
11
149.125
21
-152.2450000000000045
0
LINE
8
F.Courtyard
6
CONTINUOUS
10
161.2395669999999939
20
-152.1969029999999918
11
161.2530969999999968
21
-152.2104329999999948
0
LINE
8
F.Courtyard
6
CONTINUOUS
10
161.2530969999999968
20
-152.2104329999999948
11
161.2549999999999955
21
-152.2199999999999989
0
LINE
8
F.Courtyard
6
CONTINUOUS
10
161.2549999999999955
20
-152.2199999999999989
11
161.2549999999999955
21
-154.4199999999999875
0
LINE
8
F.Courtyard
6
CONTINUOUS
10
161.2549999999999955
20
-154.4199999999999875
11
161.2530969999999968
21
-154.4295669999999916
0
LINE
8
F.Courtyard
6
CONTINUOUS
10
161.2530969999999968
20
-154.4295669999999916
11
161.2395669999999939
21
-154.4430969999999945
0
LINE
8
F.Courtyard
6
CONTINUOUS
10
161.2395669999999939
20
-154.4430969999999945
11
161.2299999999999898
21
-154.4449999999999932
0
LINE
8
F.Courtyard
6
CONTINUOUS
10
161.2299999999999898
20
-154.4449999999999932
11
155.9300000000000068
21
-154.4449999999999932
0
LINE
8
F.Courtyard
6
CONTINUOUS
10
155.9300000000000068
20
-154.4449999999999932
11
155.9204330000000027
21
-154.4430969999999945
0
LINE
8
F.Courtyard
6
CONTINUOUS
10
155.9204330000000027
20
-154.4430969999999945
11
155.9069029999999998
21
-154.4295669999999916
0
LINE
8
F.Courtyard
6
CONTINUOUS
10
155.9069029999999998
20
-154.4295669999999916
11
155.9050000000000011
21
-154.4199999999999875
0
LINE
8
F.Courtyard
6
CONTINUOUS
10
155.9050000000000011
20
-154.4199999999999875
11
155.9050000000000011
21
-152.2199999999999989
0
LINE
8
F.Courtyard
6
CONTINUOUS
10
155.9050000000000011
20
-152.2199999999999989
11
155.9069029999999998
21
-152.2104329999999948
0
LINE
8
F.Courtyard
6
CONTINUOUS
10
155.9069029999999998
20
-152.2104329999999948
11
155.9204330000000027
21
-152.1969029999999918
0
LINE
8
F.Courtyard
6
CONTINUOUS
10
155.9204330000000027
20
-152.1969029999999918
11
155.9300000000000068
21
-152.1949999999999932
0
LINE
8
F.Courtyard
6
CONTINUOUS
10
155.9300000000000068
20
-152.1949999999999932
11
161.2299999999999898
21
-152.1949999999999932
0
LINE
8
F.Courtyard
6
CONTINUOUS
10
161.2299999999999898
20
-152.1949999999999932
11
161.2395669999999939
21
-152.1969029999999918
0
LINE
8
F.Courtyard
6
CONTINUOUS
10
155.9549999999999841
20
-152.2450000000000045
11
155.9549999999999841
21
-154.3949999999999818
0
LINE
8
F.Courtyard
6
CONTINUOUS
10
155.9549999999999841
20
-154.3949999999999818
11
161.2049999999999841
21
-154.3949999999999818
0
LINE
8
F.Courtyard
6
CONTINUOUS
10
161.2049999999999841
20
-154.3949999999999818
11
161.2049999999999841
21
-152.2450000000000045
0
LINE
8
F.Courtyard
6
CONTINUOUS
10
161.2049999999999841
20
-152.2450000000000045
11
155.9549999999999841
21
-152.2450000000000045
0
LINE
8
F.Courtyard
6
CONTINUOUS
10
154.2545669999999802
20
-148.3869029999999896
11
154.2680969999999832
21
-148.4004329999999925
0
LINE
8
F.Courtyard
6
CONTINUOUS
10
154.2680969999999832
20
-148.4004329999999925
11
154.2699999999999818
21
-148.4099999999999966
0
LINE
8
F.Courtyard
6
CONTINUOUS
10
154.2699999999999818
20
-148.4099999999999966
11
154.2699999999999818
21
-150.6099999999999852
0
LINE
8
F.Courtyard
6
CONTINUOUS
10
154.2699999999999818
20
-150.6099999999999852
11
154.2680969999999832
21
-150.6195669999999893
0
LINE
8
F.Courtyard
6
CONTINUOUS
10
154.2680969999999832
20
-150.6195669999999893
11
154.2545669999999802
21
-150.6330969999999922
0
LINE
8
F.Courtyard
6
CONTINUOUS
10
154.2545669999999802
20
-150.6330969999999922
11
154.2450000000000045
21
-150.6349999999999909
0
LINE
8
F.Courtyard
6
CONTINUOUS
10
154.2450000000000045
20
-150.6349999999999909
11
148.9449999999999932
21
-150.6349999999999909
0
LINE
8
F.Courtyard
6
CONTINUOUS
10
148.9449999999999932
20
-150.6349999999999909
11
148.9354329999999891
21
-150.6330969999999922
0
LINE
8
F.Courtyard
6
CONTINUOUS
10
148.9354329999999891
20
-150.6330969999999922
11
148.9219029999999862
21
-150.6195669999999893
0
LINE
8
F.Courtyard
6
CONTINUOUS
10
148.9219029999999862
20
-150.6195669999999893
11
148.9199999999999875
21
-150.6099999999999852
0
LINE
8
F.Courtyard
6
CONTINUOUS
10
148.9199999999999875
20
-150.6099999999999852
11
148.9199999999999875
21
-148.4099999999999966
0
LINE
8
F.Courtyard
6
CONTINUOUS
10
148.9199999999999875
20
-148.4099999999999966
11
148.9219029999999862
21
-148.4004329999999925
0
LINE
8
F.Courtyard
6
CONTINUOUS
10
148.9219029999999862
20
-148.4004329999999925
11
148.9354329999999891
21
-148.3869029999999896
0
LINE
8
F.Courtyard
6
CONTINUOUS
10
148.9354329999999891
20
-148.3869029999999896
11
148.9449999999999932
21
-148.3849999999999909
0
LINE
8
F.Courtyard
6
CONTINUOUS
10
148.9449999999999932
20
-148.3849999999999909
11
154.2450000000000045
21
-148.3849999999999909
0
LINE
8
F.Courtyard
6
CONTINUOUS
10
154.2450000000000045
20
-148.3849999999999909
11
154.2545669999999802
21
-148.3869029999999896
0
LINE
8
F.Courtyard
6
CONTINUOUS
10
148.9699999999999989
20
-148.4350000000000023
11
148.9699999999999989
21
-150.5849999999999795
0
LINE
8
F.Courtyard
6
CONTINUOUS
10
148.9699999999999989
20
-150.5849999999999795
11
154.2199999999999989
21
-150.5849999999999795
0
LINE
8
F.Courtyard
6
CONTINUOUS
10
154.2199999999999989
20
-150.5849999999999795
11
154.2199999999999989
21
-148.4350000000000023
0
LINE
8
F.Courtyard
6
CONTINUOUS
10
154.2199999999999989
20
-148.4350000000000023
11
148.9699999999999989
21
-148.4350000000000023
0
LINE
8
F.Courtyard
6
CONTINUOUS
10
161.2395669999999939
20
-148.3869029999999896
11
161.2530969999999968
21
-148.4004329999999925
0
LINE
8
F.Courtyard
6
CONTINUOUS
10
161.2530969999999968
20
-148.4004329999999925
11
161.2549999999999955
21
-148.4099999999999966
0
LINE
8
F.Courtyard
6
CONTINUOUS
10
161.2549999999999955
20
-148.4099999999999966
11
161.2549999999999955
21
-150.6099999999999852
0
LINE
8
F.Courtyard
6
CONTINUOUS
10
161.2549999999999955
20
-150.6099999999999852
11
161.2530969999999968
21
-150.6195669999999893
0
LINE
8
F.Courtyard
6
CONTINUOUS
10
161.2530969999999968
20
-150.6195669999999893
11
161.2395669999999939
21
-150.6330969999999922
0
LINE
8
F.Courtyard
6
CONTINUOUS
10
161.2395669999999939
20
-150.6330969999999922
11
161.2299999999999898
21
-150.6349999999999909
0
LINE
8
F.Courtyard
6
CONTINUOUS
10
161.2299999999999898
20
-150.6349999999999909
11
155.9300000000000068
21
-150.6349999999999909
0
LINE
8
F.Courtyard
6
CONTINUOUS
10
155.9300000000000068
20
-150.6349999999999909
11
155.9204330000000027
21
-150.6330969999999922
0
LINE
8
F.Courtyard
6
CONTINUOUS
10
155.9204330000000027
20
-150.6330969999999922
11
155.9069029999999998
21
-150.6195669999999893
0
LINE
8
F.Courtyard
6
CONTINUOUS
10
155.9069029999999998
20
-150.6195669999999893
11
155.9050000000000011
21
-150.6099999999999852
0
LINE
8
F.Courtyard
6
CONTINUOUS
10
155.9050000000000011
20
-150.6099999999999852
11
155.9050000000000011
21
-148.4099999999999966
0
LINE
8
F.Courtyard
6
CONTINUOUS
10
155.9050000000000011
20
-148.4099999999999966
11
155.9069029999999998
21
-148.4004329999999925
0
LINE
8
F.Courtyard
6
CONTINUOUS
10
155.9069029999999998
20
-148.4004329999999925
11
155.9204330000000027
21
-148.3869029999999896
0
LINE
8
F.Courtyard
6
CONTINUOUS
10
155.9204330000000027
20
-148.3869029999999896
11
155.9300000000000068
21
-148.3849999999999909
0
LINE
8
F.Courtyard
6
CONTINUOUS
10
155.9300000000000068
20
-148.3849999999999909
11
161.2299999999999898
21
-148.3849999999999909
0
LINE
8
F.Courtyard
6
CONTINUOUS
10
161.2299999999999898
20
-148.3849999999999909
11
161.2395669999999939
21
-148.3869029999999896
0
LINE
8
F.Courtyard
6
CONTINUOUS
10
155.9549999999999841
20
-148.4350000000000023
11
155.9549999999999841
21
-150.5849999999999795
0
LINE
8
F.Courtyard
6
CONTINUOUS
10
155.9549999999999841
20
-150.5849999999999795
11
161.2049999999999841
21
-150.5849999999999795
0
LINE
8
F.Courtyard
6
CONTINUOUS
10
161.2049999999999841
20
-150.5849999999999795
11
161.2049999999999841
21
-148.4350000000000023
0
LINE
8
F.Courtyard
6
CONTINUOUS
10
161.2049999999999841
20
-148.4350000000000023
11
155.9549999999999841
21
-148.4350000000000023
0
LINE
8
F.Courtyard
6
CONTINUOUS
10
154.2545669999999802
20
-144.5769029999999873
11
154.2680969999999832
21
-144.5904329999999902
0
LINE
8
F.Courtyard
6
CONTINUOUS
10
154.2680969999999832
20
-144.5904329999999902
11
154.2699999999999818
21
-144.5999999999999943
0
LINE
8
F.Courtyard
6
CONTINUOUS
10
154.2699999999999818
20
-144.5999999999999943
11
154.2699999999999818
21
-146.7999999999999829
0
LINE
8
F.Courtyard
6
CONTINUOUS
10
154.2699999999999818
20
-146.7999999999999829
11
154.2680969999999832
21
-146.809566999999987
0
LINE
8
F.Courtyard
6
CONTINUOUS
10
154.2680969999999832
20
-146.809566999999987
11
154.2545669999999802
21
-146.82309699999999
0
LINE
8
F.Courtyard
6
CONTINUOUS
10
154.2545669999999802
20
-146.82309699999999
11
154.2450000000000045
21
-146.8249999999999886
0
LINE
8
F.Courtyard
6
CONTINUOUS
10
154.2450000000000045
20
-146.8249999999999886
11
148.9449999999999932
21
-146.8249999999999886
0
LINE
8
F.Courtyard
6
CONTINUOUS
10
148.9449999999999932
20
-146.8249999999999886
11
148.9354329999999891
21
-146.82309699999999
0
LINE
8
F.Courtyard
6
CONTINUOUS
10
148.9354329999999891
20
-146.82309699999999
11
148.9219029999999862
21
-146.809566999999987
0
LINE
8
F.Courtyard
6
CONTINUOUS
10
148.9219029999999862
20
-146.809566999999987
11
148.9199999999999875
21
-146.7999999999999829
0
LINE
8
F.Courtyard
6
CONTINUOUS
10
148.9199999999999875
20
-146.7999999999999829
11
148.9199999999999875
21
-144.5999999999999943
0
LINE
8
F.Courtyard
6
CONTINUOUS
10
148.9199999999999875
20
-144.5999999999999943
11
148.9219029999999862
21
-144.5904329999999902
0
LINE
8
F.Courtyard
6
CONTINUOUS
10
148.9219029999999862
20
-144.5904329999999902
11
148.9354329999999891
21
-144.5769029999999873
0
LINE
8
F.Courtyard
6
CONTINUOUS
10
148.9354329999999891
20
-144.5769029999999873
11
148.9449999999999932
21
-144.5749999999999886
0
LINE
8
F.Courtyard
6
CONTINUOUS
10
148.9449999999999932
20
-144.5749999999999886
11
154.2450000000000045
21
-144.5749999999999886
0
LINE
8
F.Courtyard
6
CONTINUOUS
10
154.2450000000000045
20
-144.5749999999999886
11
154.2545669999999802
21
-144.5769029999999873
0
LINE
8
F.Courtyard
6
CONTINUOUS
10
148.9699999999999989
20
-144.625
11
148.9699999999999989
21
-146.7750000000000057
0
LINE
8
F.Courtyard
6
CONTINUOUS
10
148.9699999999999989
20
-146.7750000000000057
11
154.2199999999999989
21
-146.7750000000000057
0
LINE
8
F.Courtyard
6
CONTINUOUS
10
154.2199999999999989
20
-146.7750000000000057
11
154.2199999999999989
21
-144.625
0
LINE
8
F.Courtyard
6
CONTINUOUS
10
154.2199999999999989
20
-144.625
11
148.9699999999999989
21
-144.625
0
LINE
8
F.Courtyard
6
CONTINUOUS
10
161.2395669999999939
20
-144.5769029999999873
11
161.2530969999999968
21
-144.5904329999999902
0
LINE
8
F.Courtyard
6
CONTINUOUS
10
161.2530969999999968
20
-144.5904329999999902
11
161.2549999999999955
21
-144.5999999999999943
0
LINE
8
F.Courtyard
6
CONTINUOUS
10
161.2549999999999955
20
-144.5999999999999943
11
161.2549999999999955
21
-146.7999999999999829
0
LINE
8
F.Courtyard
6
CONTINUOUS
10
161.2549999999999955
20
-146.7999999999999829
11
161.2530969999999968
21
-146.809566999999987
0
LINE
8
F.Courtyard
6
CONTINUOUS
10
161.2530969999999968
20
-146.809566999999987
11
161.2395669999999939
21
-146.82309699999999
0
LINE
8
F.Courtyard
6
CONTINUOUS
10
161.2395669999999939
20
-146.82309699999999
11
161.2299999999999898
21
-146.8249999999999886
0
LINE
8
F.Courtyard
6
CONTINUOUS
10
161.2299999999999898
20
-146.8249999999999886
11
155.9300000000000068
21
-146.8249999999999886
0
LINE
8
F.Courtyard
6
CONTINUOUS
10
155.9300000000000068
20
-146.8249999999999886
11
155.9204330000000027
21
-146.82309699999999
0
LINE
8
F.Courtyard
6
CONTINUOUS
10
155.9204330000000027
20
-146.82309699999999
11
155.9069029999999998
21
-146.809566999999987
0
LINE
8
F.Courtyard
6
CONTINUOUS
10
155.9069029999999998
20
-146.809566999999987
11
155.9050000000000011
21
-146.7999999999999829
0
LINE
8
F.Courtyard
6
CONTINUOUS
10
155.9050000000000011
20
-146.7999999999999829
11
155.9050000000000011
21
-144.5999999999999943
0
LINE
8
F.Courtyard
6
CONTINUOUS
10
155.9050000000000011
20
-144.5999999999999943
11
155.9069029999999998
21
-144.5904329999999902
0
LINE
8
F.Courtyard
6
CONTINUOUS
10
155.9069029999999998
20
-144.5904329999999902
11
155.9204330000000027
21
-144.5769029999999873
0
LINE
8
F.Courtyard
6
CONTINUOUS
10
155.9204330000000027
20
-144.5769029999999873
11
155.9300000000000068
21
-144.5749999999999886
0
LINE
8
F.Courtyard
6
CONTINUOUS
10
155.9300000000000068
20
-144.5749999999999886
11
161.2299999999999898
21
-144.5749999999999886
0
LINE
8
F.Courtyard
6
CONTINUOUS
10
161.2299999999999898
20
-144.5749999999999886
11
161.2395669999999939
21
-144.5769029999999873
0
LINE
8
F.Courtyard
6
CONTINUOUS
10
155.9549999999999841
20
-144.625
11
155.9549999999999841
21
-146.7750000000000057
0
LINE
8
F.Courtyard
6
CONTINUOUS
10
155.9549999999999841
20
-146.7750000000000057
11
161.2049999999999841
21
-146.7750000000000057
0
LINE
8
F.Courtyard
6
CONTINUOUS
10
161.2049999999999841
20
-146.7750000000000057
11
161.2049999999999841
21
-144.625
0
LINE
8
F.Courtyard
6
CONTINUOUS
10
161.2049999999999841
20
-144.625
11
155.9549999999999841
21
-144.625
0
LINE
8
F.Courtyard
6
CONTINUOUS
10
125.0689670000000007
20
-122.3526029999999878
11
125.0824969999999894
21
-122.3661329999999907
0
LINE
8
F.Courtyard
6
CONTINUOUS
10
125.0824969999999894
20
-122.3661329999999907
11
125.084399999999988
21
-122.3756999999999948
0
LINE
8
F.Courtyard
6
CONTINUOUS
10
125.084399999999988
20
-122.3756999999999948
11
125.084399999999988
21
-139.8756999999999948
0
LINE
8
F.Courtyard
6
CONTINUOUS
10
125.084399999999988
20
-139.8756999999999948
11
125.0824969999999894
21
-139.8852669999999989
0
LINE
8
F.Courtyard
6
CONTINUOUS
10
125.0824969999999894
20
-139.8852669999999989
11
125.0689670000000007
21
-139.8987970000000018
0
LINE
8
F.Courtyard
6
CONTINUOUS
10
125.0689670000000007
20
-139.8987970000000018
11
125.0593999999999966
21
-139.9007000000000005
0
LINE
8
F.Courtyard
6
CONTINUOUS
10
125.0593999999999966
20
-139.9007000000000005
11
110.8593999999999937
21
-139.9007000000000005
0
LINE
8
F.Courtyard
6
CONTINUOUS
10
110.8593999999999937
20
-139.9007000000000005
11
110.8498329999999896
21
-139.8987970000000018
0
LINE
8
F.Courtyard
6
CONTINUOUS
10
110.8498329999999896
20
-139.8987970000000018
11
110.8363030000000009
21
-139.8852669999999989
0
LINE
8
F.Courtyard
6
CONTINUOUS
10
110.8363030000000009
20
-139.8852669999999989
11
110.834399999999988
21
-139.8756999999999948
0
LINE
8
F.Courtyard
6
CONTINUOUS
10
110.834399999999988
20
-139.8756999999999948
11
110.834399999999988
21
-122.3756999999999948
0
LINE
8
F.Courtyard
6
CONTINUOUS
10
110.834399999999988
20
-122.3756999999999948
11
110.8363030000000009
21
-122.3661329999999907
0
LINE
8
F.Courtyard
6
CONTINUOUS
10
110.8363030000000009
20
-122.3661329999999907
11
110.8498329999999896
21
-122.3526029999999878
0
LINE
8
F.Courtyard
6
CONTINUOUS
10
110.8498329999999896
20
-122.3526029999999878
11
110.8593999999999937
21
-122.3506999999999891
0
LINE
8
F.Courtyard
6
CONTINUOUS
10
110.8593999999999937
20
-122.3506999999999891
11
125.0593999999999966
21
-122.3506999999999891
0
LINE
8
F.Courtyard
6
CONTINUOUS
10
125.0593999999999966
20
-122.3506999999999891
11
125.0689670000000007
21
-122.3526029999999878
0
LINE
8
F.Courtyard
6
CONTINUOUS
10
110.8843999999999994
20
-122.4007000000000005
11
110.8843999999999994
21
-139.8506999999999891
0
LINE
8
F.Courtyard
6
CONTINUOUS
10
110.8843999999999994
20
-139.8506999999999891
11
125.0343999999999909
21
-139.8506999999999891
0
LINE
8
F.Courtyard
6
CONTINUOUS
10
125.0343999999999909
20
-139.8506999999999891
11
125.0343999999999909
21
-122.4007000000000005
0
LINE
8
F.Courtyard
6
CONTINUOUS
10
125.0343999999999909
20
-122.4007000000000005
11
110.8843999999999994
21
-122.4007000000000005
0
LINE
8
F.Courtyard
6
CONTINUOUS
10
143.9219669999999951
20
-122.341202999999993
11
143.935496999999998
21
-122.354732999999996
0
LINE
8
F.Courtyard
6
CONTINUOUS
10
143.935496999999998
20
-122.354732999999996
11
143.9373999999999967
21
-122.3643000000000001
0
LINE
8
F.Courtyard
6
CONTINUOUS
10
143.9373999999999967
20
-122.3643000000000001
11
143.9373999999999967
21
-139.8642999999999859
0
LINE
8
F.Courtyard
6
CONTINUOUS
10
143.9373999999999967
20
-139.8642999999999859
11
143.935496999999998
21
-139.87386699999999
0
LINE
8
F.Courtyard
6
CONTINUOUS
10
143.935496999999998
20
-139.87386699999999
11
143.9219669999999951
21
-139.8873969999999929
0
LINE
8
F.Courtyard
6
CONTINUOUS
10
143.9219669999999951
20
-139.8873969999999929
11
143.912399999999991
21
-139.8892999999999915
0
LINE
8
F.Courtyard
6
CONTINUOUS
10
143.912399999999991
20
-139.8892999999999915
11
129.7124000000000024
21
-139.8892999999999915
0
LINE
8
F.Courtyard
6
CONTINUOUS
10
129.7124000000000024
20
-139.8892999999999915
11
129.7028329999999983
21
-139.8873969999999929
0
LINE
8
F.Courtyard
6
CONTINUOUS
10
129.7028329999999983
20
-139.8873969999999929
11
129.6893029999999953
21
-139.87386699999999
0
LINE
8
F.Courtyard
6
CONTINUOUS
10
129.6893029999999953
20
-139.87386699999999
11
129.6873999999999967
21
-139.8642999999999859
0
LINE
8
F.Courtyard
6
CONTINUOUS
10
129.6873999999999967
20
-139.8642999999999859
11
129.6873999999999967
21
-122.3643000000000001
0
LINE
8
F.Courtyard
6
CONTINUOUS
10
129.6873999999999967
20
-122.3643000000000001
11
129.6893029999999953
21
-122.354732999999996
0
LINE
8
F.Courtyard
6
CONTINUOUS
10
129.6893029999999953
20
-122.354732999999996
11
129.7028329999999983
21
-122.341202999999993
0
LINE
8
F.Courtyard
6
CONTINUOUS
10
129.7028329999999983
20
-122.341202999999993
11
129.7124000000000024
21
-122.3392999999999944
0
LINE
8
F.Courtyard
6
CONTINUOUS
10
129.7124000000000024
20
-122.3392999999999944
11
143.912399999999991
21
-122.3392999999999944
0
LINE
8
F.Courtyard
6
CONTINUOUS
10
143.912399999999991
20
-122.3392999999999944
11
143.9219669999999951
21
-122.341202999999993
0
LINE
8
F.Courtyard
6
CONTINUOUS
10
129.737400000000008
20
-122.3892999999999915
11
129.737400000000008
21
-139.8392999999999802
0
LINE
8
F.Courtyard
6
CONTINUOUS
10
129.737400000000008
20
-139.8392999999999802
11
143.8873999999999853
21
-139.8392999999999802
0
LINE
8
F.Courtyard
6
CONTINUOUS
10
143.8873999999999853
20
-139.8392999999999802
11
143.8873999999999853
21
-122.3892999999999915
0
LINE
8
F.Courtyard
6
CONTINUOUS
10
143.8873999999999853
20
-122.3892999999999915
11
129.737400000000008
21
-122.3892999999999915
0
LINE
8
F.Courtyard
6
CONTINUOUS
10
87.2117669999999947
20
-122.3115029999999877
11
87.2252969999999976
21
-122.3250329999999906
0
LINE
8
F.Courtyard
6
CONTINUOUS
10
87.2252969999999976
20
-122.3250329999999906
11
87.2271999999999963
21
-122.3345999999999947
0
LINE
8
F.Courtyard
6
CONTINUOUS
10
87.2271999999999963
20
-122.3345999999999947
11
87.2271999999999963
21
-139.8345999999999947
0
LINE
8
F.Courtyard
6
CONTINUOUS
10
87.2271999999999963
20
-139.8345999999999947
11
87.2252969999999976
21
-139.8441669999999988
0
LINE
8
F.Courtyard
6
CONTINUOUS
10
87.2252969999999976
20
-139.8441669999999988
11
87.2117669999999947
21
-139.8576970000000017
0
LINE
8
F.Courtyard
6
CONTINUOUS
10
87.2117669999999947
20
-139.8576970000000017
11
87.2021999999999906
21
-139.8596000000000004
0
LINE
8
F.Courtyard
6
CONTINUOUS
10
87.2021999999999906
20
-139.8596000000000004
11
73.002200000000002
21
-139.8596000000000004
0
LINE
8
F.Courtyard
6
CONTINUOUS
10
73.002200000000002
20
-139.8596000000000004
11
72.9926329999999979
21
-139.8576970000000017
0
LINE
8
F.Courtyard
6
CONTINUOUS
10
72.9926329999999979
20
-139.8576970000000017
11
72.9791029999999949
21
-139.8441669999999988
0
LINE
8
F.Courtyard
6
CONTINUOUS
10
72.9791029999999949
20
-139.8441669999999988
11
72.9771999999999963
21
-139.8345999999999947
0
LINE
8
F.Courtyard
6
CONTINUOUS
10
72.9771999999999963
20
-139.8345999999999947
11
72.9771999999999963
21
-122.3345999999999947
0
LINE
8
F.Courtyard
6
CONTINUOUS
10
72.9771999999999963
20
-122.3345999999999947
11
72.9791029999999949
21
-122.3250329999999906
0
LINE
8
F.Courtyard
6
CONTINUOUS
10
72.9791029999999949
20
-122.3250329999999906
11
72.9926329999999979
21
-122.3115029999999877
0
LINE
8
F.Courtyard
6
CONTINUOUS
10
72.9926329999999979
20
-122.3115029999999877
11
73.002200000000002
21
-122.309599999999989
0
LINE
8
F.Courtyard
6
CONTINUOUS
10
73.002200000000002
20
-122.309599999999989
11
87.2021999999999906
21
-122.309599999999989
0
LINE
8
F.Courtyard
6
CONTINUOUS
10
87.2021999999999906
20
-122.309599999999989
11
87.2117669999999947
21
-122.3115029999999877
0
LINE
8
F.Courtyard
6
CONTINUOUS
10
73.0271999999999935
20
-122.3596000000000004
11
73.0271999999999935
21
-139.809599999999989
0
LINE
8
F.Courtyard
6
CONTINUOUS
10
73.0271999999999935
20
-139.809599999999989
11
87.1771999999999991
21
-139.809599999999989
0
LINE
8
F.Courtyard
6
CONTINUOUS
10
87.1771999999999991
20
-139.809599999999989
11
87.1771999999999991
21
-122.3596000000000004
0
LINE
8
F.Courtyard
6
CONTINUOUS
10
87.1771999999999991
20
-122.3596000000000004
11
73.0271999999999935
21
-122.3596000000000004
0
LINE
8
F.Courtyard
6
CONTINUOUS
10
106.1656669999999991
20
-122.287903
11
106.179197000000002
21
-122.3014329999999887
0
LINE
8
F.Courtyard
6
CONTINUOUS
10
106.179197000000002
20
-122.3014329999999887
11
106.1811000000000007
21
-122.3109999999999928
0
LINE
8
F.Courtyard
6
CONTINUOUS
10
106.1811000000000007
20
-122.3109999999999928
11
106.1811000000000007
21
-139.811000000000007
0
LINE
8
F.Courtyard
6
CONTINUOUS
10
106.1811000000000007
20
-139.811000000000007
11
106.179197000000002
21
-139.8205669999999827
0
LINE
8
F.Courtyard
6
CONTINUOUS
10
106.179197000000002
20
-139.8205669999999827
11
106.1656669999999991
21
-139.8340969999999857
0
LINE
8
F.Courtyard
6
CONTINUOUS
10
106.1656669999999991
20
-139.8340969999999857
11
106.156099999999995
21
-139.8359999999999843
0
LINE
8
F.Courtyard
6
CONTINUOUS
10
106.156099999999995
20
-139.8359999999999843
11
91.9560999999999922
21
-139.8359999999999843
0
LINE
8
F.Courtyard
6
CONTINUOUS
10
91.9560999999999922
20
-139.8359999999999843
11
91.9465330000000023
21
-139.8340969999999857
0
LINE
8
F.Courtyard
6
CONTINUOUS
10
91.9465330000000023
20
-139.8340969999999857
11
91.9330029999999994
21
-139.8205669999999827
0
LINE
8
F.Courtyard
6
CONTINUOUS
10
91.9330029999999994
20
-139.8205669999999827
11
91.9311000000000007
21
-139.811000000000007
0
LINE
8
F.Courtyard
6
CONTINUOUS
10
91.9311000000000007
20
-139.811000000000007
11
91.9311000000000007
21
-122.3109999999999928
0
LINE
8
F.Courtyard
6
CONTINUOUS
10
91.9311000000000007
20
-122.3109999999999928
11
91.9330029999999994
21
-122.3014329999999887
0
LINE
8
F.Courtyard
6
CONTINUOUS
10
91.9330029999999994
20
-122.3014329999999887
11
91.9465330000000023
21
-122.287903
0
LINE
8
F.Courtyard
6
CONTINUOUS
10
91.9465330000000023
20
-122.287903
11
91.9560999999999922
21
-122.2860000000000014
0
LINE
8
F.Courtyard
6
CONTINUOUS
10
91.9560999999999922
20
-122.2860000000000014
11
106.156099999999995
21
-122.2860000000000014
0
LINE
8
F.Courtyard
6
CONTINUOUS
10
106.156099999999995
20
-122.2860000000000014
11
106.1656669999999991
21
-122.287903
0
LINE
8
F.Courtyard
6
CONTINUOUS
10
91.9810999999999979
20
-122.3359999999999985
11
91.9810999999999979
21
-139.7860000000000014
0
LINE
8
F.Courtyard
6
CONTINUOUS
10
91.9810999999999979
20
-139.7860000000000014
11
106.1310999999999893
21
-139.7860000000000014
0
LINE
8
F.Courtyard
6
CONTINUOUS
10
106.1310999999999893
20
-139.7860000000000014
11
106.1310999999999893
21
-122.3359999999999985
0
LINE
8
F.Courtyard
6
CONTINUOUS
10
106.1310999999999893
20
-122.3359999999999985
11
91.9810999999999979
21
-122.3359999999999985
0
LINE
8
F.Courtyard
6
CONTINUOUS
10
111.4049669999999992
20
-110.5909029999999973
11
111.4184969999999879
21
-110.6044330000000002
0
LINE
8
F.Courtyard
6
CONTINUOUS
10
111.4184969999999879
20
-110.6044330000000002
11
111.4204000000000008
21
-110.6139999999999901
0
LINE
8
F.Courtyard
6
CONTINUOUS
10
111.4204000000000008
20
-110.6139999999999901
11
111.4204000000000008
21
-111.7389999999999901
0
LINE
8
F.Courtyard
6
CONTINUOUS
10
111.4204000000000008
20
-111.7389999999999901
11
113.8953999999999951
21
-111.7389999999999901
0
LINE
8
F.Courtyard
6
CONTINUOUS
10
113.8953999999999951
20
-111.7389999999999901
11
113.9049669999999992
21
-111.7409029999999888
0
LINE
8
F.Courtyard
6
CONTINUOUS
10
113.9049669999999992
20
-111.7409029999999888
11
113.9184969999999879
21
-111.7544329999999917
0
LINE
8
F.Courtyard
6
CONTINUOUS
10
113.9184969999999879
20
-111.7544329999999917
11
113.9204000000000008
21
-111.7639999999999958
0
LINE
8
F.Courtyard
6
CONTINUOUS
10
113.9204000000000008
20
-111.7639999999999958
11
113.9204000000000008
21
-117.7139999999999986
0
LINE
8
F.Courtyard
6
CONTINUOUS
10
113.9204000000000008
20
-117.7139999999999986
11
113.9184969999999879
21
-117.7235669999999885
0
LINE
8
F.Courtyard
6
CONTINUOUS
10
113.9184969999999879
20
-117.7235669999999885
11
113.9130779999999987
21
-117.7316769999999906
0
LINE
8
F.Courtyard
6
CONTINUOUS
10
113.9130779999999987
20
-117.7316769999999906
11
112.763077999999993
21
-118.8816779999999937
0
LINE
8
F.Courtyard
6
CONTINUOUS
10
112.763077999999993
20
-118.8816779999999937
11
112.7549669999999935
21
-118.8870969999999971
0
LINE
8
F.Courtyard
6
CONTINUOUS
10
112.7549669999999935
20
-118.8870969999999971
11
112.7453999999999894
21
-118.8889999999999958
0
LINE
8
F.Courtyard
6
CONTINUOUS
10
112.7453999999999894
20
-118.8889999999999958
11
111.4204000000000008
21
-118.8889999999999958
0
LINE
8
F.Courtyard
6
CONTINUOUS
10
111.4204000000000008
20
-118.8889999999999958
11
111.4204000000000008
21
-120.0139999999999958
0
LINE
8
F.Courtyard
6
CONTINUOUS
10
111.4204000000000008
20
-120.0139999999999958
11
111.4184969999999879
21
-120.0235669999999999
0
LINE
8
F.Courtyard
6
CONTINUOUS
10
111.4184969999999879
20
-120.0235669999999999
11
111.4049669999999992
21
-120.0370969999999886
0
LINE
8
F.Courtyard
6
CONTINUOUS
10
111.4049669999999992
20
-120.0370969999999886
11
111.3953999999999951
21
-120.0390000000000015
0
LINE
8
F.Courtyard
6
CONTINUOUS
10
111.3953999999999951
20
-120.0390000000000015
11
109.2954000000000008
21
-120.0390000000000015
0
LINE
8
F.Courtyard
6
CONTINUOUS
10
109.2954000000000008
20
-120.0390000000000015
11
109.2858329999999967
21
-120.0370969999999886
0
LINE
8
F.Courtyard
6
CONTINUOUS
10
109.2858329999999967
20
-120.0370969999999886
11
109.2723029999999937
21
-120.0235669999999999
0
LINE
8
F.Courtyard
6
CONTINUOUS
10
109.2723029999999937
20
-120.0235669999999999
11
109.2703999999999951
21
-120.0139999999999958
0
LINE
8
F.Courtyard
6
CONTINUOUS
10
109.2703999999999951
20
-120.0139999999999958
11
109.2703999999999951
21
-118.8889999999999958
0
LINE
8
F.Courtyard
6
CONTINUOUS
10
109.2703999999999951
20
-118.8889999999999958
11
107.9453999999999922
21
-118.8889999999999958
0
LINE
8
F.Courtyard
6
CONTINUOUS
10
107.9453999999999922
20
-118.8889999999999958
11
107.9358329999999881
21
-118.8870969999999971
0
LINE
8
F.Courtyard
6
CONTINUOUS
10
107.9358329999999881
20
-118.8870969999999971
11
107.9277230000000003
21
-118.8816779999999937
0
LINE
8
F.Courtyard
6
CONTINUOUS
10
107.9277230000000003
20
-118.8816779999999937
11
106.7777219999999971
21
-117.7316779999999881
0
LINE
8
F.Courtyard
6
CONTINUOUS
10
106.7777219999999971
20
-117.7316779999999881
11
106.7723029999999937
21
-117.7235669999999885
0
LINE
8
F.Courtyard
6
CONTINUOUS
10
106.7723029999999937
20
-117.7235669999999885
11
106.7703999999999951
21
-117.7139999999999986
0
LINE
8
F.Courtyard
6
CONTINUOUS
10
106.7703999999999951
20
-117.7139999999999986
11
106.7703999999999951
21
-111.7639999999999958
0
LINE
8
F.Courtyard
6
CONTINUOUS
10
106.7703999999999951
20
-111.7639999999999958
11
106.7723029999999937
21
-111.7544329999999917
0
LINE
8
F.Courtyard
6
CONTINUOUS
10
106.7723029999999937
20
-111.7544329999999917
11
106.7858329999999967
21
-111.7409029999999888
0
LINE
8
F.Courtyard
6
CONTINUOUS
10
106.7858329999999967
20
-111.7409029999999888
11
106.7954000000000008
21
-111.7389999999999901
0
LINE
8
F.Courtyard
6
CONTINUOUS
10
106.7954000000000008
20
-111.7389999999999901
11
109.2703999999999951
21
-111.7389999999999901
0
LINE
8
F.Courtyard
6
CONTINUOUS
10
109.2703999999999951
20
-111.7389999999999901
11
109.2703999999999951
21
-110.6139999999999901
0
LINE
8
F.Courtyard
6
CONTINUOUS
10
109.2703999999999951
20
-110.6139999999999901
11
109.2723029999999937
21
-110.6044330000000002
0
LINE
8
F.Courtyard
6
CONTINUOUS
10
109.2723029999999937
20
-110.6044330000000002
11
109.2858329999999967
21
-110.5909029999999973
0
LINE
8
F.Courtyard
6
CONTINUOUS
10
109.2858329999999967
20
-110.5909029999999973
11
109.2954000000000008
21
-110.5889999999999986
0
LINE
8
F.Courtyard
6
CONTINUOUS
10
109.2954000000000008
20
-110.5889999999999986
11
111.3953999999999951
21
-110.5889999999999986
0
LINE
8
F.Courtyard
6
CONTINUOUS
10
111.3953999999999951
20
-110.5889999999999986
11
111.4049669999999992
21
-110.5909029999999973
0
LINE
8
F.Courtyard
6
CONTINUOUS
10
109.3203999999999922
20
-110.6389999999999958
11
109.3203999999999922
21
-111.7639999999999958
0
LINE
8
F.Courtyard
6
CONTINUOUS
10
109.3203999999999922
20
-111.7639999999999958
11
109.3184969999999936
21
-111.7735669999999999
0
LINE
8
F.Courtyard
6
CONTINUOUS
10
109.3184969999999936
20
-111.7735669999999999
11
109.3049669999999907
21
-111.7870969999999886
0
LINE
8
F.Courtyard
6
CONTINUOUS
10
109.3049669999999907
20
-111.7870969999999886
11
109.2954000000000008
21
-111.7890000000000015
0
LINE
8
F.Courtyard
6
CONTINUOUS
10
109.2954000000000008
20
-111.7890000000000015
11
106.8203999999999922
21
-111.7890000000000015
0
LINE
8
F.Courtyard
6
CONTINUOUS
10
106.8203999999999922
20
-111.7890000000000015
11
106.8203999999999922
21
-117.703643999999997
0
LINE
8
F.Courtyard
6
CONTINUOUS
10
106.8203999999999922
20
-117.703643999999997
11
107.9557549999999964
21
-118.8389999999999986
0
LINE
8
F.Courtyard
6
CONTINUOUS
10
107.9557549999999964
20
-118.8389999999999986
11
109.2954000000000008
21
-118.8389999999999986
0
LINE
8
F.Courtyard
6
CONTINUOUS
10
109.2954000000000008
20
-118.8389999999999986
11
109.3049669999999907
21
-118.8409029999999973
0
LINE
8
F.Courtyard
6
CONTINUOUS
10
109.3049669999999907
20
-118.8409029999999973
11
109.3184969999999936
21
-118.8544330000000002
0
LINE
8
F.Courtyard
6
CONTINUOUS
10
109.3184969999999936
20
-118.8544330000000002
11
109.3203999999999922
21
-118.8639999999999901
0
LINE
8
F.Courtyard
6
CONTINUOUS
10
109.3203999999999922
20
-118.8639999999999901
11
109.3203999999999922
21
-119.9889999999999901
0
LINE
8
F.Courtyard
6
CONTINUOUS
10
109.3203999999999922
20
-119.9889999999999901
11
111.3703999999999894
21
-119.9889999999999901
0
LINE
8
F.Courtyard
6
CONTINUOUS
10
111.3703999999999894
20
-119.9889999999999901
11
111.3703999999999894
21
-118.8639999999999901
0
LINE
8
F.Courtyard
6
CONTINUOUS
10
111.3703999999999894
20
-118.8639999999999901
11
111.3723029999999881
21
-118.8544330000000002
0
LINE
8
F.Courtyard
6
CONTINUOUS
10
111.3723029999999881
20
-118.8544330000000002
11
111.385832999999991
21
-118.8409029999999973
0
LINE
8
F.Courtyard
6
CONTINUOUS
10
111.385832999999991
20
-118.8409029999999973
11
111.3953999999999951
21
-118.8389999999999986
0
LINE
8
F.Courtyard
6
CONTINUOUS
10
111.3953999999999951
20
-118.8389999999999986
11
112.7350439999999878
21
-118.8389999999999986
0
LINE
8
F.Courtyard
6
CONTINUOUS
10
112.7350439999999878
20
-118.8389999999999986
11
113.8703999999999894
21
-117.703643999999997
0
LINE
8
F.Courtyard
6
CONTINUOUS
10
113.8703999999999894
20
-117.703643999999997
11
113.8703999999999894
21
-111.7890000000000015
0
LINE
8
F.Courtyard
6
CONTINUOUS
10
113.8703999999999894
20
-111.7890000000000015
11
111.3953999999999951
21
-111.7890000000000015
0
LINE
8
F.Courtyard
6
CONTINUOUS
10
111.3953999999999951
20
-111.7890000000000015
11
111.385832999999991
21
-111.7870969999999886
0
LINE
8
F.Courtyard
6
CONTINUOUS
10
111.385832999999991
20
-111.7870969999999886
11
111.3723029999999881
21
-111.7735669999999999
0
LINE
8
F.Courtyard
6
CONTINUOUS
10
111.3723029999999881
20
-111.7735669999999999
11
111.3703999999999894
21
-111.7639999999999958
0
LINE
8
F.Courtyard
6
CONTINUOUS
10
111.3703999999999894
20
-111.7639999999999958
11
111.3703999999999894
21
-110.6389999999999958
0
LINE
8
F.Courtyard
6
CONTINUOUS
10
111.3703999999999894
20
-110.6389999999999958
11
109.3203999999999922
21
-110.6389999999999958
0
LINE
8
F.Courtyard
6
CONTINUOUS
10
80.2845669999999956
20
-113.9709029999999927
11
80.2980969999999985
21
-113.9844329999999957
0
LINE
8
F.Courtyard
6
CONTINUOUS
10
80.2980969999999985
20
-113.9844329999999957
11
80.2999999999999972
21
-113.9939999999999998
0
LINE
8
F.Courtyard
6
CONTINUOUS
10
80.2999999999999972
20
-113.9939999999999998
11
80.2999999999999972
21
-119.4939999999999998
0
LINE
8
F.Courtyard
6
CONTINUOUS
10
80.2999999999999972
20
-119.4939999999999998
11
80.2980969999999985
21
-119.5035669999999897
0
LINE
8
F.Courtyard
6
CONTINUOUS
10
80.2980969999999985
20
-119.5035669999999897
11
80.2845669999999956
21
-119.5170969999999926
0
LINE
8
F.Courtyard
6
CONTINUOUS
10
80.2845669999999956
20
-119.5170969999999926
11
80.2749999999999915
21
-119.5189999999999912
0
LINE
8
F.Courtyard
6
CONTINUOUS
10
80.2749999999999915
20
-119.5189999999999912
11
73.375
21
-119.5189999999999912
0
LINE
8
F.Courtyard
6
CONTINUOUS
10
73.375
20
-119.5189999999999912
11
73.3654329999999959
21
-119.5170969999999926
0
LINE
8
F.Courtyard
6
CONTINUOUS
10
73.3654329999999959
20
-119.5170969999999926
11
73.351902999999993
21
-119.5035669999999897
0
LINE
8
F.Courtyard
6
CONTINUOUS
10
73.351902999999993
20
-119.5035669999999897
11
73.3499999999999943
21
-119.4939999999999998
0
LINE
8
F.Courtyard
6
CONTINUOUS
10
73.3499999999999943
20
-119.4939999999999998
11
73.3499999999999943
21
-113.9939999999999998
0
LINE
8
F.Courtyard
6
CONTINUOUS
10
73.3499999999999943
20
-113.9939999999999998
11
73.351902999999993
21
-113.9844329999999957
0
LINE
8
F.Courtyard
6
CONTINUOUS
10
73.351902999999993
20
-113.9844329999999957
11
73.3654329999999959
21
-113.9709029999999927
0
LINE
8
F.Courtyard
6
CONTINUOUS
10
73.3654329999999959
20
-113.9709029999999927
11
73.375
21
-113.9689999999999941
0
LINE
8
F.Courtyard
6
CONTINUOUS
10
73.375
20
-113.9689999999999941
11
80.2749999999999915
21
-113.9689999999999941
0
LINE
8
F.Courtyard
6
CONTINUOUS
10
80.2749999999999915
20
-113.9689999999999941
11
80.2845669999999956
21
-113.9709029999999927
0
LINE
8
F.Courtyard
6
CONTINUOUS
10
73.3999999999999915
20
-114.0189999999999912
11
73.3999999999999915
21
-119.4689999999999941
0
LINE
8
F.Courtyard
6
CONTINUOUS
10
73.3999999999999915
20
-119.4689999999999941
11
80.25
21
-119.4689999999999941
0
LINE
8
F.Courtyard
6
CONTINUOUS
10
80.25
20
-119.4689999999999941
11
80.25
21
-114.0189999999999912
0
LINE
8
F.Courtyard
6
CONTINUOUS
10
80.25
20
-114.0189999999999912
11
73.3999999999999915
21
-114.0189999999999912
0
LINE
8
F.Courtyard
6
CONTINUOUS
10
88.2525669999999991
20
-113.9709029999999927
11
88.266097000000002
21
-113.9844329999999957
0
LINE
8
F.Courtyard
6
CONTINUOUS
10
88.266097000000002
20
-113.9844329999999957
11
88.2680000000000007
21
-113.9939999999999998
0
LINE
8
F.Courtyard
6
CONTINUOUS
10
88.2680000000000007
20
-113.9939999999999998
11
88.2680000000000007
21
-119.4939999999999998
0
LINE
8
F.Courtyard
6
CONTINUOUS
10
88.2680000000000007
20
-119.4939999999999998
11
88.266097000000002
21
-119.5035669999999897
0
LINE
8
F.Courtyard
6
CONTINUOUS
10
88.266097000000002
20
-119.5035669999999897
11
88.2525669999999991
21
-119.5170969999999926
0
LINE
8
F.Courtyard
6
CONTINUOUS
10
88.2525669999999991
20
-119.5170969999999926
11
88.242999999999995
21
-119.5189999999999912
0
LINE
8
F.Courtyard
6
CONTINUOUS
10
88.242999999999995
20
-119.5189999999999912
11
81.3429999999999893
21
-119.5189999999999912
0
LINE
8
F.Courtyard
6
CONTINUOUS
10
81.3429999999999893
20
-119.5189999999999912
11
81.3334329999999994
21
-119.5170969999999926
0
LINE
8
F.Courtyard
6
CONTINUOUS
10
81.3334329999999994
20
-119.5170969999999926
11
81.3199029999999965
21
-119.5035669999999897
0
LINE
8
F.Courtyard
6
CONTINUOUS
10
81.3199029999999965
20
-119.5035669999999897
11
81.3179999999999978
21
-119.4939999999999998
0
LINE
8
F.Courtyard
6
CONTINUOUS
10
81.3179999999999978
20
-119.4939999999999998
11
81.3179999999999978
21
-113.9939999999999998
0
LINE
8
F.Courtyard
6
CONTINUOUS
10
81.3179999999999978
20
-113.9939999999999998
11
81.3199029999999965
21
-113.9844329999999957
0
LINE
8
F.Courtyard
6
CONTINUOUS
10
81.3199029999999965
20
-113.9844329999999957
11
81.3334329999999994
21
-113.9709029999999927
0
LINE
8
F.Courtyard
6
CONTINUOUS
10
81.3334329999999994
20
-113.9709029999999927
11
81.3429999999999893
21
-113.9689999999999941
0
LINE
8
F.Courtyard
6
CONTINUOUS
10
81.3429999999999893
20
-113.9689999999999941
11
88.242999999999995
21
-113.9689999999999941
0
LINE
8
F.Courtyard
6
CONTINUOUS
10
88.242999999999995
20
-113.9689999999999941
11
88.2525669999999991
21
-113.9709029999999927
0
LINE
8
F.Courtyard
6
CONTINUOUS
10
81.367999999999995
20
-114.0189999999999912
11
81.367999999999995
21
-119.4689999999999941
0
LINE
8
F.Courtyard
6
CONTINUOUS
10
81.367999999999995
20
-119.4689999999999941
11
88.2179999999999893
21
-119.4689999999999941
0
LINE
8
F.Courtyard
6
CONTINUOUS
10
88.2179999999999893
20
-119.4689999999999941
11
88.2179999999999893
21
-114.0189999999999912
0
LINE
8
F.Courtyard
6
CONTINUOUS
10
88.2179999999999893
20
-114.0189999999999912
11
81.367999999999995
21
-114.0189999999999912
0
LINE
8
F.Courtyard
6
CONTINUOUS
10
96.3805669999999992
20
-113.9709029999999927
11
96.3940970000000021
21
-113.9844329999999957
0
LINE
8
F.Courtyard
6
CONTINUOUS
10
96.3940970000000021
20
-113.9844329999999957
11
96.3960000000000008
21
-113.9939999999999998
0
LINE
8
F.Courtyard
6
CONTINUOUS
10
96.3960000000000008
20
-113.9939999999999998
11
96.3960000000000008
21
-119.4939999999999998
0
LINE
8
F.Courtyard
6
CONTINUOUS
10
96.3960000000000008
20
-119.4939999999999998
11
96.3940970000000021
21
-119.5035669999999897
0
LINE
8
F.Courtyard
6
CONTINUOUS
10
96.3940970000000021
20
-119.5035669999999897
11
96.3805669999999992
21
-119.5170969999999926
0
LINE
8
F.Courtyard
6
CONTINUOUS
10
96.3805669999999992
20
-119.5170969999999926
11
96.3709999999999951
21
-119.5189999999999912
0
LINE
8
F.Courtyard
6
CONTINUOUS
10
96.3709999999999951
20
-119.5189999999999912
11
89.4709999999999894
21
-119.5189999999999912
0
LINE
8
F.Courtyard
6
CONTINUOUS
10
89.4709999999999894
20
-119.5189999999999912
11
89.4614329999999995
21
-119.5170969999999926
0
LINE
8
F.Courtyard
6
CONTINUOUS
10
89.4614329999999995
20
-119.5170969999999926
11
89.4479029999999966
21
-119.5035669999999897
0
LINE
8
F.Courtyard
6
CONTINUOUS
10
89.4479029999999966
20
-119.5035669999999897
11
89.445999999999998
21
-119.4939999999999998
0
LINE
8
F.Courtyard
6
CONTINUOUS
10
89.445999999999998
20
-119.4939999999999998
11
89.445999999999998
21
-113.9939999999999998
0
LINE
8
F.Courtyard
6
CONTINUOUS
10
89.445999999999998
20
-113.9939999999999998
11
89.4479029999999966
21
-113.9844329999999957
0
LINE
8
F.Courtyard
6
CONTINUOUS
10
89.4479029999999966
20
-113.9844329999999957
11
89.4614329999999995
21
-113.9709029999999927
0
LINE
8
F.Courtyard
6
CONTINUOUS
10
89.4614329999999995
20
-113.9709029999999927
11
89.4709999999999894
21
-113.9689999999999941
0
LINE
8
F.Courtyard
6
CONTINUOUS
10
89.4709999999999894
20
-113.9689999999999941
11
96.3709999999999951
21
-113.9689999999999941
0
LINE
8
F.Courtyard
6
CONTINUOUS
10
96.3709999999999951
20
-113.9689999999999941
11
96.3805669999999992
21
-113.9709029999999927
0
LINE
8
F.Courtyard
6
CONTINUOUS
10
89.4959999999999951
20
-114.0189999999999912
11
89.4959999999999951
21
-119.4689999999999941
0
LINE
8
F.Courtyard
6
CONTINUOUS
10
89.4959999999999951
20
-119.4689999999999941
11
96.3459999999999894
21
-119.4689999999999941
0
LINE
8
F.Courtyard
6
CONTINUOUS
10
96.3459999999999894
20
-119.4689999999999941
11
96.3459999999999894
21
-114.0189999999999912
0
LINE
8
F.Courtyard
6
CONTINUOUS
10
96.3459999999999894
20
-114.0189999999999912
11
89.4959999999999951
21
-114.0189999999999912
0
LINE
8
F.Courtyard
6
CONTINUOUS
10
104.5085669999999993
20
-113.9709029999999927
11
104.5220970000000023
21
-113.9844329999999957
0
LINE
8
F.Courtyard
6
CONTINUOUS
10
104.5220970000000023
20
-113.9844329999999957
11
104.5240000000000009
21
-113.9939999999999998
0
LINE
8
F.Courtyard
6
CONTINUOUS
10
104.5240000000000009
20
-113.9939999999999998
11
104.5240000000000009
21
-119.4939999999999998
0
LINE
8
F.Courtyard
6
CONTINUOUS
10
104.5240000000000009
20
-119.4939999999999998
11
104.5220970000000023
21
-119.5035669999999897
0
LINE
8
F.Courtyard
6
CONTINUOUS
10
104.5220970000000023
20
-119.5035669999999897
11
104.5085669999999993
21
-119.5170969999999926
0
LINE
8
F.Courtyard
6
CONTINUOUS
10
104.5085669999999993
20
-119.5170969999999926
11
104.4989999999999952
21
-119.5189999999999912
0
LINE
8
F.Courtyard
6
CONTINUOUS
10
104.4989999999999952
20
-119.5189999999999912
11
97.5989999999999895
21
-119.5189999999999912
0
LINE
8
F.Courtyard
6
CONTINUOUS
10
97.5989999999999895
20
-119.5189999999999912
11
97.5894329999999997
21
-119.5170969999999926
0
LINE
8
F.Courtyard
6
CONTINUOUS
10
97.5894329999999997
20
-119.5170969999999926
11
97.5759029999999967
21
-119.5035669999999897
0
LINE
8
F.Courtyard
6
CONTINUOUS
10
97.5759029999999967
20
-119.5035669999999897
11
97.5739999999999981
21
-119.4939999999999998
0
LINE
8
F.Courtyard
6
CONTINUOUS
10
97.5739999999999981
20
-119.4939999999999998
11
97.5739999999999981
21
-113.9939999999999998
0
LINE
8
F.Courtyard
6
CONTINUOUS
10
97.5739999999999981
20
-113.9939999999999998
11
97.5759029999999967
21
-113.9844329999999957
0
LINE
8
F.Courtyard
6
CONTINUOUS
10
97.5759029999999967
20
-113.9844329999999957
11
97.5894329999999997
21
-113.9709029999999927
0
LINE
8
F.Courtyard
6
CONTINUOUS
10
97.5894329999999997
20
-113.9709029999999927
11
97.5989999999999895
21
-113.9689999999999941
0
LINE
8
F.Courtyard
6
CONTINUOUS
10
97.5989999999999895
20
-113.9689999999999941
11
104.4989999999999952
21
-113.9689999999999941
0
LINE
8
F.Courtyard
6
CONTINUOUS
10
104.4989999999999952
20
-113.9689999999999941
11
104.5085669999999993
21
-113.9709029999999927
0
LINE
8
F.Courtyard
6
CONTINUOUS
10
97.6239999999999952
20
-114.0189999999999912
11
97.6239999999999952
21
-119.4689999999999941
0
LINE
8
F.Courtyard
6
CONTINUOUS
10
97.6239999999999952
20
-119.4689999999999941
11
104.4739999999999895
21
-119.4689999999999941
0
LINE
8
F.Courtyard
6
CONTINUOUS
10
104.4739999999999895
20
-119.4689999999999941
11
104.4739999999999895
21
-114.0189999999999912
0
LINE
8
F.Courtyard
6
CONTINUOUS
10
104.4739999999999895
20
-114.0189999999999912
11
97.6239999999999952
21
-114.0189999999999912
0
LINE
8
F.Courtyard
6
CONTINUOUS
10
80.2845669999999956
20
-107.3669029999999935
11
80.2980969999999985
21
-107.3804329999999965
0
LINE
8
F.Courtyard
6
CONTINUOUS
10
80.2980969999999985
20
-107.3804329999999965
11
80.2999999999999972
21
-107.3900000000000006
0
LINE
8
F.Courtyard
6
CONTINUOUS
10
80.2999999999999972
20
-107.3900000000000006
11
80.2999999999999972
21
-112.8900000000000006
0
LINE
8
F.Courtyard
6
CONTINUOUS
10
80.2999999999999972
20
-112.8900000000000006
11
80.2980969999999985
21
-112.8995669999999905
0
LINE
8
F.Courtyard
6
CONTINUOUS
10
80.2980969999999985
20
-112.8995669999999905
11
80.2845669999999956
21
-112.9130969999999934
0
LINE
8
F.Courtyard
6
CONTINUOUS
10
80.2845669999999956
20
-112.9130969999999934
11
80.2749999999999915
21
-112.914999999999992
0
LINE
8
F.Courtyard
6
CONTINUOUS
10
80.2749999999999915
20
-112.914999999999992
11
73.375
21
-112.914999999999992
0
LINE
8
F.Courtyard
6
CONTINUOUS
10
73.375
20
-112.914999999999992
11
73.3654329999999959
21
-112.9130969999999934
0
LINE
8
F.Courtyard
6
CONTINUOUS
10
73.3654329999999959
20
-112.9130969999999934
11
73.351902999999993
21
-112.8995669999999905
0
LINE
8
F.Courtyard
6
CONTINUOUS
10
73.351902999999993
20
-112.8995669999999905
11
73.3499999999999943
21
-112.8900000000000006
0
LINE
8
F.Courtyard
6
CONTINUOUS
10
73.3499999999999943
20
-112.8900000000000006
11
73.3499999999999943
21
-107.3900000000000006
0
LINE
8
F.Courtyard
6
CONTINUOUS
10
73.3499999999999943
20
-107.3900000000000006
11
73.351902999999993
21
-107.3804329999999965
0
LINE
8
F.Courtyard
6
CONTINUOUS
10
73.351902999999993
20
-107.3804329999999965
11
73.3654329999999959
21
-107.3669029999999935
0
LINE
8
F.Courtyard
6
CONTINUOUS
10
73.3654329999999959
20
-107.3669029999999935
11
73.375
21
-107.3649999999999949
0
LINE
8
F.Courtyard
6
CONTINUOUS
10
73.375
20
-107.3649999999999949
11
80.2749999999999915
21
-107.3649999999999949
0
LINE
8
F.Courtyard
6
CONTINUOUS
10
80.2749999999999915
20
-107.3649999999999949
11
80.2845669999999956
21
-107.3669029999999935
0
LINE
8
F.Courtyard
6
CONTINUOUS
10
73.3999999999999915
20
-107.414999999999992
11
73.3999999999999915
21
-112.8649999999999949
0
LINE
8
F.Courtyard
6
CONTINUOUS
10
73.3999999999999915
20
-112.8649999999999949
11
80.25
21
-112.8649999999999949
0
LINE
8
F.Courtyard
6
CONTINUOUS
10
80.25
20
-112.8649999999999949
11
80.25
21
-107.414999999999992
0
LINE
8
F.Courtyard
6
CONTINUOUS
10
80.25
20
-107.414999999999992
11
73.3999999999999915
21
-107.414999999999992
0
LINE
8
F.Courtyard
6
CONTINUOUS
10
88.2525669999999991
20
-107.3669029999999935
11
88.266097000000002
21
-107.3804329999999965
0
LINE
8
F.Courtyard
6
CONTINUOUS
10
88.266097000000002
20
-107.3804329999999965
11
88.2680000000000007
21
-107.3900000000000006
0
LINE
8
F.Courtyard
6
CONTINUOUS
10
88.2680000000000007
20
-107.3900000000000006
11
88.2680000000000007
21
-112.8900000000000006
0
LINE
8
F.Courtyard
6
CONTINUOUS
10
88.2680000000000007
20
-112.8900000000000006
11
88.266097000000002
21
-112.8995669999999905
0
LINE
8
F.Courtyard
6
CONTINUOUS
10
88.266097000000002
20
-112.8995669999999905
11
88.2525669999999991
21
-112.9130969999999934
0
LINE
8
F.Courtyard
6
CONTINUOUS
10
88.2525669999999991
20
-112.9130969999999934
11
88.242999999999995
21
-112.914999999999992
0
LINE
8
F.Courtyard
6
CONTINUOUS
10
88.242999999999995
20
-112.914999999999992
11
81.3429999999999893
21
-112.914999999999992
0
LINE
8
F.Courtyard
6
CONTINUOUS
10
81.3429999999999893
20
-112.914999999999992
11
81.3334329999999994
21
-112.9130969999999934
0
LINE
8
F.Courtyard
6
CONTINUOUS
10
81.3334329999999994
20
-112.9130969999999934
11
81.3199029999999965
21
-112.8995669999999905
0
LINE
8
F.Courtyard
6
CONTINUOUS
10
81.3199029999999965
20
-112.8995669999999905
11
81.3179999999999978
21
-112.8900000000000006
0
LINE
8
F.Courtyard
6
CONTINUOUS
10
81.3179999999999978
20
-112.8900000000000006
11
81.3179999999999978
21
-107.3900000000000006
0
LINE
8
F.Courtyard
6
CONTINUOUS
10
81.3179999999999978
20
-107.3900000000000006
11
81.3199029999999965
21
-107.3804329999999965
0
LINE
8
F.Courtyard
6
CONTINUOUS
10
81.3199029999999965
20
-107.3804329999999965
11
81.3334329999999994
21
-107.3669029999999935
0
LINE
8
F.Courtyard
6
CONTINUOUS
10
81.3334329999999994
20
-107.3669029999999935
11
81.3429999999999893
21
-107.3649999999999949
0
LINE
8
F.Courtyard
6
CONTINUOUS
10
81.3429999999999893
20
-107.3649999999999949
11
88.242999999999995
21
-107.3649999999999949
0
LINE
8
F.Courtyard
6
CONTINUOUS
10
88.242999999999995
20
-107.3649999999999949
11
88.2525669999999991
21
-107.3669029999999935
0
LINE
8
F.Courtyard
6
CONTINUOUS
10
81.367999999999995
20
-107.414999999999992
11
81.367999999999995
21
-112.8649999999999949
0
LINE
8
F.Courtyard
6
CONTINUOUS
10
81.367999999999995
20
-112.8649999999999949
11
88.2179999999999893
21
-112.8649999999999949
0
LINE
8
F.Courtyard
6
CONTINUOUS
10
88.2179999999999893
20
-112.8649999999999949
11
88.2179999999999893
21
-107.414999999999992
0
LINE
8
F.Courtyard
6
CONTINUOUS
10
88.2179999999999893
20
-107.414999999999992
11
81.367999999999995
21
-107.414999999999992
0
LINE
8
F.Courtyard
6
CONTINUOUS
10
96.3805669999999992
20
-107.3669029999999935
11
96.3940970000000021
21
-107.3804329999999965
0
LINE
8
F.Courtyard
6
CONTINUOUS
10
96.3940970000000021
20
-107.3804329999999965
11
96.3960000000000008
21
-107.3900000000000006
0
LINE
8
F.Courtyard
6
CONTINUOUS
10
96.3960000000000008
20
-107.3900000000000006
11
96.3960000000000008
21
-112.8900000000000006
0
LINE
8
F.Courtyard
6
CONTINUOUS
10
96.3960000000000008
20
-112.8900000000000006
11
96.3940970000000021
21
-112.8995669999999905
0
LINE
8
F.Courtyard
6
CONTINUOUS
10
96.3940970000000021
20
-112.8995669999999905
11
96.3805669999999992
21
-112.9130969999999934
0
LINE
8
F.Courtyard
6
CONTINUOUS
10
96.3805669999999992
20
-112.9130969999999934
11
96.3709999999999951
21
-112.914999999999992
0
LINE
8
F.Courtyard
6
CONTINUOUS
10
96.3709999999999951
20
-112.914999999999992
11
89.4709999999999894
21
-112.914999999999992
0
LINE
8
F.Courtyard
6
CONTINUOUS
10
89.4709999999999894
20
-112.914999999999992
11
89.4614329999999995
21
-112.9130969999999934
0
LINE
8
F.Courtyard
6
CONTINUOUS
10
89.4614329999999995
20
-112.9130969999999934
11
89.4479029999999966
21
-112.8995669999999905
0
LINE
8
F.Courtyard
6
CONTINUOUS
10
89.4479029999999966
20
-112.8995669999999905
11
89.445999999999998
21
-112.8900000000000006
0
LINE
8
F.Courtyard
6
CONTINUOUS
10
89.445999999999998
20
-112.8900000000000006
11
89.445999999999998
21
-107.3900000000000006
0
LINE
8
F.Courtyard
6
CONTINUOUS
10
89.445999999999998
20
-107.3900000000000006
11
89.4479029999999966
21
-107.3804329999999965
0
LINE
8
F.Courtyard
6
CONTINUOUS
10
89.4479029999999966
20
-107.3804329999999965
11
89.4614329999999995
21
-107.3669029999999935
0
LINE
8
F.Courtyard
6
CONTINUOUS
10
89.4614329999999995
20
-107.3669029999999935
11
89.4709999999999894
21
-107.3649999999999949
0
LINE
8
F.Courtyard
6
CONTINUOUS
10
89.4709999999999894
20
-107.3649999999999949
11
96.3709999999999951
21
-107.3649999999999949
0
LINE
8
F.Courtyard
6
CONTINUOUS
10
96.3709999999999951
20
-107.3649999999999949
11
96.3805669999999992
21
-107.3669029999999935
0
LINE
8
F.Courtyard
6
CONTINUOUS
10
89.4959999999999951
20
-107.414999999999992
11
89.4959999999999951
21
-112.8649999999999949
0
LINE
8
F.Courtyard
6
CONTINUOUS
10
89.4959999999999951
20
-112.8649999999999949
11
96.3459999999999894
21
-112.8649999999999949
0
LINE
8
F.Courtyard
6
CONTINUOUS
10
96.3459999999999894
20
-112.8649999999999949
11
96.3459999999999894
21
-107.414999999999992
0
LINE
8
F.Courtyard
6
CONTINUOUS
10
96.3459999999999894
20
-107.414999999999992
11
89.4959999999999951
21
-107.414999999999992
0
LINE
8
F.Courtyard
6
CONTINUOUS
10
104.4185669999999959
20
-107.2409029999999888
11
104.4320969999999988
21
-107.2544329999999917
0
LINE
8
F.Courtyard
6
CONTINUOUS
10
104.4320969999999988
20
-107.2544329999999917
11
104.4339999999999975
21
-107.2639999999999958
0
LINE
8
F.Courtyard
6
CONTINUOUS
10
104.4339999999999975
20
-107.2639999999999958
11
104.4339999999999975
21
-112.7639999999999958
0
LINE
8
F.Courtyard
6
CONTINUOUS
10
104.4339999999999975
20
-112.7639999999999958
11
104.4320969999999988
21
-112.7735669999999999
0
LINE
8
F.Courtyard
6
CONTINUOUS
10
104.4320969999999988
20
-112.7735669999999999
11
104.4185669999999959
21
-112.7870969999999886
0
LINE
8
F.Courtyard
6
CONTINUOUS
10
104.4185669999999959
20
-112.7870969999999886
11
104.4089999999999918
21
-112.7890000000000015
0
LINE
8
F.Courtyard
6
CONTINUOUS
10
104.4089999999999918
20
-112.7890000000000015
11
97.5090000000000003
21
-112.7890000000000015
0
LINE
8
F.Courtyard
6
CONTINUOUS
10
97.5090000000000003
20
-112.7890000000000015
11
97.4994329999999962
21
-112.7870969999999886
0
LINE
8
F.Courtyard
6
CONTINUOUS
10
97.4994329999999962
20
-112.7870969999999886
11
97.4859029999999933
21
-112.7735669999999999
0
LINE
8
F.Courtyard
6
CONTINUOUS
10
97.4859029999999933
20
-112.7735669999999999
11
97.4839999999999947
21
-112.7639999999999958
0
LINE
8
F.Courtyard
6
CONTINUOUS
10
97.4839999999999947
20
-112.7639999999999958
11
97.4839999999999947
21
-107.2639999999999958
0
LINE
8
F.Courtyard
6
CONTINUOUS
10
97.4839999999999947
20
-107.2639999999999958
11
97.4859029999999933
21
-107.2544329999999917
0
LINE
8
F.Courtyard
6
CONTINUOUS
10
97.4859029999999933
20
-107.2544329999999917
11
97.4994329999999962
21
-107.2409029999999888
0
LINE
8
F.Courtyard
6
CONTINUOUS
10
97.4994329999999962
20
-107.2409029999999888
11
97.5090000000000003
21
-107.2389999999999901
0
LINE
8
F.Courtyard
6
CONTINUOUS
10
97.5090000000000003
20
-107.2389999999999901
11
104.4089999999999918
21
-107.2389999999999901
0
LINE
8
F.Courtyard
6
CONTINUOUS
10
104.4089999999999918
20
-107.2389999999999901
11
104.4185669999999959
21
-107.2409029999999888
0
LINE
8
F.Courtyard
6
CONTINUOUS
10
97.5339999999999918
20
-107.2890000000000015
11
97.5339999999999918
21
-112.7389999999999901
0
LINE
8
F.Courtyard
6
CONTINUOUS
10
97.5339999999999918
20
-112.7389999999999901
11
104.3840000000000003
21
-112.7389999999999901
0
LINE
8
F.Courtyard
6
CONTINUOUS
10
104.3840000000000003
20
-112.7389999999999901
11
104.3840000000000003
21
-107.2890000000000015
0
LINE
8
F.Courtyard
6
CONTINUOUS
10
104.3840000000000003
20
-107.2890000000000015
11
97.5339999999999918
21
-107.2890000000000015
0
LINE
8
F.Courtyard
6
CONTINUOUS
10
155.1440120000000036
20
-106.246902999999989
11
155.1575420000000065
21
-106.2604329999999919
0
LINE
8
F.Courtyard
6
CONTINUOUS
10
155.1575420000000065
20
-106.2604329999999919
11
155.1594450000000052
21
-106.269999999999996
0
LINE
8
F.Courtyard
6
CONTINUOUS
10
155.1594450000000052
20
-106.269999999999996
11
155.1594450000000052
21
-110.269999999999996
0
LINE
8
F.Courtyard
6
CONTINUOUS
10
155.1594450000000052
20
-110.269999999999996
11
155.1575420000000065
21
-110.2795670000000001
0
LINE
8
F.Courtyard
6
CONTINUOUS
10
155.1575420000000065
20
-110.2795670000000001
11
155.1440120000000036
21
-110.2930969999999888
0
LINE
8
F.Courtyard
6
CONTINUOUS
10
155.1440120000000036
20
-110.2930969999999888
11
155.1344449999999995
21
-110.2950000000000017
0
LINE
8
F.Courtyard
6
CONTINUOUS
10
155.1344449999999995
20
-110.2950000000000017
11
151.1344449999999995
21
-110.2950000000000017
0
LINE
8
F.Courtyard
6
CONTINUOUS
10
151.1344449999999995
20
-110.2950000000000017
11
151.1248779999999954
21
-110.2930969999999888
0
LINE
8
F.Courtyard
6
CONTINUOUS
10
151.1248779999999954
20
-110.2930969999999888
11
151.1113479999999925
21
-110.2795670000000001
0
LINE
8
F.Courtyard
6
CONTINUOUS
10
151.1113479999999925
20
-110.2795670000000001
11
151.1094449999999938
21
-110.269999999999996
0
LINE
8
F.Courtyard
6
CONTINUOUS
10
151.1094449999999938
20
-110.269999999999996
11
151.1094449999999938
21
-106.269999999999996
0
LINE
8
F.Courtyard
6
CONTINUOUS
10
151.1094449999999938
20
-106.269999999999996
11
151.1113479999999925
21
-106.2604329999999919
0
LINE
8
F.Courtyard
6
CONTINUOUS
10
151.1113479999999925
20
-106.2604329999999919
11
151.1248779999999954
21
-106.246902999999989
0
LINE
8
F.Courtyard
6
CONTINUOUS
10
151.1248779999999954
20
-106.246902999999989
11
151.1344449999999995
21
-106.2449999999999903
0
LINE
8
F.Courtyard
6
CONTINUOUS
10
151.1344449999999995
20
-106.2449999999999903
11
155.1344449999999995
21
-106.2449999999999903
0
LINE
8
F.Courtyard
6
CONTINUOUS
10
155.1344449999999995
20
-106.2449999999999903
11
155.1440120000000036
21
-106.246902999999989
0
LINE
8
F.Courtyard
6
CONTINUOUS
10
151.1594450000000052
20
-106.2950000000000017
11
151.1594450000000052
21
-110.2449999999999903
0
LINE
8
F.Courtyard
6
CONTINUOUS
10
151.1594450000000052
20
-110.2449999999999903
11
155.1094449999999938
21
-110.2449999999999903
0
LINE
8
F.Courtyard
6
CONTINUOUS
10
155.1094449999999938
20
-110.2449999999999903
11
155.1094449999999938
21
-106.2950000000000017
0
LINE
8
F.Courtyard
6
CONTINUOUS
10
155.1094449999999938
20
-106.2950000000000017
11
151.1594450000000052
21
-106.2950000000000017
0
LINE
8
F.Courtyard
6
CONTINUOUS
10
160.5317900000000009
20
-106.246902999999989
11
160.5453200000000038
21
-106.2604329999999919
0
LINE
8
F.Courtyard
6
CONTINUOUS
10
160.5453200000000038
20
-106.2604329999999919
11
160.5472230000000025
21
-106.269999999999996
0
LINE
8
F.Courtyard
6
CONTINUOUS
10
160.5472230000000025
20
-106.269999999999996
11
160.5472230000000025
21
-110.269999999999996
0
LINE
8
F.Courtyard
6
CONTINUOUS
10
160.5472230000000025
20
-110.269999999999996
11
160.5453200000000038
21
-110.2795670000000001
0
LINE
8
F.Courtyard
6
CONTINUOUS
10
160.5453200000000038
20
-110.2795670000000001
11
160.5317900000000009
21
-110.2930969999999888
0
LINE
8
F.Courtyard
6
CONTINUOUS
10
160.5317900000000009
20
-110.2930969999999888
11
160.5222229999999968
21
-110.2950000000000017
0
LINE
8
F.Courtyard
6
CONTINUOUS
10
160.5222229999999968
20
-110.2950000000000017
11
156.5222229999999968
21
-110.2950000000000017
0
LINE
8
F.Courtyard
6
CONTINUOUS
10
156.5222229999999968
20
-110.2950000000000017
11
156.5126559999999927
21
-110.2930969999999888
0
LINE
8
F.Courtyard
6
CONTINUOUS
10
156.5126559999999927
20
-110.2930969999999888
11
156.4991259999999897
21
-110.2795670000000001
0
LINE
8
F.Courtyard
6
CONTINUOUS
10
156.4991259999999897
20
-110.2795670000000001
11
156.4972229999999911
21
-110.269999999999996
0
LINE
8
F.Courtyard
6
CONTINUOUS
10
156.4972229999999911
20
-110.269999999999996
11
156.4972229999999911
21
-106.269999999999996
0
LINE
8
F.Courtyard
6
CONTINUOUS
10
156.4972229999999911
20
-106.269999999999996
11
156.4991259999999897
21
-106.2604329999999919
0
LINE
8
F.Courtyard
6
CONTINUOUS
10
156.4991259999999897
20
-106.2604329999999919
11
156.5126559999999927
21
-106.246902999999989
0
LINE
8
F.Courtyard
6
CONTINUOUS
10
156.5126559999999927
20
-106.246902999999989
11
156.5222229999999968
21
-106.2449999999999903
0
LINE
8
F.Courtyard
6
CONTINUOUS
10
156.5222229999999968
20
-106.2449999999999903
11
160.5222229999999968
21
-106.2449999999999903
0
LINE
8
F.Courtyard
6
CONTINUOUS
10
160.5222229999999968
20
-106.2449999999999903
11
160.5317900000000009
21
-106.246902999999989
0
LINE
8
F.Courtyard
6
CONTINUOUS
10
156.5472230000000025
20
-106.2950000000000017
11
156.5472230000000025
21
-110.2449999999999903
0
LINE
8
F.Courtyard
6
CONTINUOUS
10
156.5472230000000025
20
-110.2449999999999903
11
160.4972229999999911
21
-110.2449999999999903
0
LINE
8
F.Courtyard
6
CONTINUOUS
10
160.4972229999999911
20
-110.2449999999999903
11
160.4972229999999911
21
-106.2950000000000017
0
LINE
8
F.Courtyard
6
CONTINUOUS
10
160.4972229999999911
20
-106.2950000000000017
11
156.5472230000000025
21
-106.2950000000000017
0
LINE
8
F.Courtyard
6
CONTINUOUS
10
165.9195670000000007
20
-106.246902999999989
11
165.9330970000000036
21
-106.2604329999999919
0
LINE
8
F.Courtyard
6
CONTINUOUS
10
165.9330970000000036
20
-106.2604329999999919
11
165.9350000000000023
21
-106.269999999999996
0
LINE
8
F.Courtyard
6
CONTINUOUS
10
165.9350000000000023
20
-106.269999999999996
11
165.9350000000000023
21
-110.269999999999996
0
LINE
8
F.Courtyard
6
CONTINUOUS
10
165.9350000000000023
20
-110.269999999999996
11
165.9330970000000036
21
-110.2795670000000001
0
LINE
8
F.Courtyard
6
CONTINUOUS
10
165.9330970000000036
20
-110.2795670000000001
11
165.9195670000000007
21
-110.2930969999999888
0
LINE
8
F.Courtyard
6
CONTINUOUS
10
165.9195670000000007
20
-110.2930969999999888
11
165.9099999999999966
21
-110.2950000000000017
0
LINE
8
F.Courtyard
6
CONTINUOUS
10
165.9099999999999966
20
-110.2950000000000017
11
161.9099999999999966
21
-110.2950000000000017
0
LINE
8
F.Courtyard
6
CONTINUOUS
10
161.9099999999999966
20
-110.2950000000000017
11
161.9004329999999925
21
-110.2930969999999888
0
LINE
8
F.Courtyard
6
CONTINUOUS
10
161.9004329999999925
20
-110.2930969999999888
11
161.8869029999999896
21
-110.2795670000000001
0
LINE
8
F.Courtyard
6
CONTINUOUS
10
161.8869029999999896
20
-110.2795670000000001
11
161.8849999999999909
21
-110.269999999999996
0
LINE
8
F.Courtyard
6
CONTINUOUS
10
161.8849999999999909
20
-110.269999999999996
11
161.8849999999999909
21
-106.269999999999996
0
LINE
8
F.Courtyard
6
CONTINUOUS
10
161.8849999999999909
20
-106.269999999999996
11
161.8869029999999896
21
-106.2604329999999919
0
LINE
8
F.Courtyard
6
CONTINUOUS
10
161.8869029999999896
20
-106.2604329999999919
11
161.9004329999999925
21
-106.246902999999989
0
LINE
8
F.Courtyard
6
CONTINUOUS
10
161.9004329999999925
20
-106.246902999999989
11
161.9099999999999966
21
-106.2449999999999903
0
LINE
8
F.Courtyard
6
CONTINUOUS
10
161.9099999999999966
20
-106.2449999999999903
11
165.9099999999999966
21
-106.2449999999999903
0
LINE
8
F.Courtyard
6
CONTINUOUS
10
165.9099999999999966
20
-106.2449999999999903
11
165.9195670000000007
21
-106.246902999999989
0
LINE
8
F.Courtyard
6
CONTINUOUS
10
161.9350000000000023
20
-106.2950000000000017
11
161.9350000000000023
21
-110.2449999999999903
0
LINE
8
F.Courtyard
6
CONTINUOUS
10
161.9350000000000023
20
-110.2449999999999903
11
165.8849999999999909
21
-110.2449999999999903
0
LINE
8
F.Courtyard
6
CONTINUOUS
10
165.8849999999999909
20
-110.2449999999999903
11
165.8849999999999909
21
-106.2950000000000017
0
LINE
8
F.Courtyard
6
CONTINUOUS
10
165.8849999999999909
20
-106.2950000000000017
11
161.9350000000000023
21
-106.2950000000000017
0
LINE
8
F.Courtyard
6
CONTINUOUS
10
171.307344999999998
20
-106.246902999999989
11
171.3208750000000009
21
-106.2604329999999919
0
LINE
8
F.Courtyard
6
CONTINUOUS
10
171.3208750000000009
20
-106.2604329999999919
11
171.3227779999999996
21
-106.269999999999996
0
LINE
8
F.Courtyard
6
CONTINUOUS
10
171.3227779999999996
20
-106.269999999999996
11
171.3227779999999996
21
-110.269999999999996
0
LINE
8
F.Courtyard
6
CONTINUOUS
10
171.3227779999999996
20
-110.269999999999996
11
171.3208750000000009
21
-110.2795670000000001
0
LINE
8
F.Courtyard
6
CONTINUOUS
10
171.3208750000000009
20
-110.2795670000000001
11
171.307344999999998
21
-110.2930969999999888
0
LINE
8
F.Courtyard
6
CONTINUOUS
10
171.307344999999998
20
-110.2930969999999888
11
171.2977779999999939
21
-110.2950000000000017
0
LINE
8
F.Courtyard
6
CONTINUOUS
10
171.2977779999999939
20
-110.2950000000000017
11
167.2977779999999939
21
-110.2950000000000017
0
LINE
8
F.Courtyard
6
CONTINUOUS
10
167.2977779999999939
20
-110.2950000000000017
11
167.2882109999999898
21
-110.2930969999999888
0
LINE
8
F.Courtyard
6
CONTINUOUS
10
167.2882109999999898
20
-110.2930969999999888
11
167.2746809999999869
21
-110.2795670000000001
0
LINE
8
F.Courtyard
6
CONTINUOUS
10
167.2746809999999869
20
-110.2795670000000001
11
167.2727779999999882
21
-110.269999999999996
0
LINE
8
F.Courtyard
6
CONTINUOUS
10
167.2727779999999882
20
-110.269999999999996
11
167.2727779999999882
21
-106.269999999999996
0
LINE
8
F.Courtyard
6
CONTINUOUS
10
167.2727779999999882
20
-106.269999999999996
11
167.2746809999999869
21
-106.2604329999999919
0
LINE
8
F.Courtyard
6
CONTINUOUS
10
167.2746809999999869
20
-106.2604329999999919
11
167.2882109999999898
21
-106.246902999999989
0
LINE
8
F.Courtyard
6
CONTINUOUS
10
167.2882109999999898
20
-106.246902999999989
11
167.2977779999999939
21
-106.2449999999999903
0
LINE
8
F.Courtyard
6
CONTINUOUS
10
167.2977779999999939
20
-106.2449999999999903
11
171.2977779999999939
21
-106.2449999999999903
0
LINE
8
F.Courtyard
6
CONTINUOUS
10
171.2977779999999939
20
-106.2449999999999903
11
171.307344999999998
21
-106.246902999999989
0
LINE
8
F.Courtyard
6
CONTINUOUS
10
167.3227779999999996
20
-106.2950000000000017
11
167.3227779999999996
21
-110.2449999999999903
0
LINE
8
F.Courtyard
6
CONTINUOUS
10
167.3227779999999996
20
-110.2449999999999903
11
171.2727779999999882
21
-110.2449999999999903
0
LINE
8
F.Courtyard
6
CONTINUOUS
10
171.2727779999999882
20
-110.2449999999999903
11
171.2727779999999882
21
-106.2950000000000017
0
LINE
8
F.Courtyard
6
CONTINUOUS
10
171.2727779999999882
20
-106.2950000000000017
11
167.3227779999999996
21
-106.2950000000000017
0
LINE
8
F.Courtyard
6
CONTINUOUS
10
80.2845669999999956
20
-100.7629029999999943
11
80.2980969999999985
21
-100.7764329999999973
0
LINE
8
F.Courtyard
6
CONTINUOUS
10
80.2980969999999985
20
-100.7764329999999973
11
80.2999999999999972
21
-100.7860000000000014
0
LINE
8
F.Courtyard
6
CONTINUOUS
10
80.2999999999999972
20
-100.7860000000000014
11
80.2999999999999972
21
-106.2860000000000014
0
LINE
8
F.Courtyard
6
CONTINUOUS
10
80.2999999999999972
20
-106.2860000000000014
11
80.2980969999999985
21
-106.2955669999999913
0
LINE
8
F.Courtyard
6
CONTINUOUS
10
80.2980969999999985
20
-106.2955669999999913
11
80.2845669999999956
21
-106.3090969999999942
0
LINE
8
F.Courtyard
6
CONTINUOUS
10
80.2845669999999956
20
-106.3090969999999942
11
80.2749999999999915
21
-106.3109999999999928
0
LINE
8
F.Courtyard
6
CONTINUOUS
10
80.2749999999999915
20
-106.3109999999999928
11
73.375
21
-106.3109999999999928
0
LINE
8
F.Courtyard
6
CONTINUOUS
10
73.375
20
-106.3109999999999928
11
73.3654329999999959
21
-106.3090969999999942
0
LINE
8
F.Courtyard
6
CONTINUOUS
10
73.3654329999999959
20
-106.3090969999999942
11
73.351902999999993
21
-106.2955669999999913
0
LINE
8
F.Courtyard
6
CONTINUOUS
10
73.351902999999993
20
-106.2955669999999913
11
73.3499999999999943
21
-106.2860000000000014
0
LINE
8
F.Courtyard
6
CONTINUOUS
10
73.3499999999999943
20
-106.2860000000000014
11
73.3499999999999943
21
-100.7860000000000014
0
LINE
8
F.Courtyard
6
CONTINUOUS
10
73.3499999999999943
20
-100.7860000000000014
11
73.351902999999993
21
-100.7764329999999973
0
LINE
8
F.Courtyard
6
CONTINUOUS
10
73.351902999999993
20
-100.7764329999999973
11
73.3654329999999959
21
-100.7629029999999943
0
LINE
8
F.Courtyard
6
CONTINUOUS
10
73.3654329999999959
20
-100.7629029999999943
11
73.375
21
-100.7609999999999957
0
LINE
8
F.Courtyard
6
CONTINUOUS
10
73.375
20
-100.7609999999999957
11
80.2749999999999915
21
-100.7609999999999957
0
LINE
8
F.Courtyard
6
CONTINUOUS
10
80.2749999999999915
20
-100.7609999999999957
11
80.2845669999999956
21
-100.7629029999999943
0
LINE
8
F.Courtyard
6
CONTINUOUS
10
73.3999999999999915
20
-100.8109999999999928
11
73.3999999999999915
21
-106.2609999999999957
0
LINE
8
F.Courtyard
6
CONTINUOUS
10
73.3999999999999915
20
-106.2609999999999957
11
80.25
21
-106.2609999999999957
0
LINE
8
F.Courtyard
6
CONTINUOUS
10
80.25
20
-106.2609999999999957
11
80.25
21
-100.8109999999999928
0
LINE
8
F.Courtyard
6
CONTINUOUS
10
80.25
20
-100.8109999999999928
11
73.3999999999999915
21
-100.8109999999999928
0
LINE
8
F.Courtyard
6
CONTINUOUS
10
88.2525669999999991
20
-100.7629029999999943
11
88.266097000000002
21
-100.7764329999999973
0
LINE
8
F.Courtyard
6
CONTINUOUS
10
88.266097000000002
20
-100.7764329999999973
11
88.2680000000000007
21
-100.7860000000000014
0
LINE
8
F.Courtyard
6
CONTINUOUS
10
88.2680000000000007
20
-100.7860000000000014
11
88.2680000000000007
21
-106.2860000000000014
0
LINE
8
F.Courtyard
6
CONTINUOUS
10
88.2680000000000007
20
-106.2860000000000014
11
88.266097000000002
21
-106.2955669999999913
0
LINE
8
F.Courtyard
6
CONTINUOUS
10
88.266097000000002
20
-106.2955669999999913
11
88.2525669999999991
21
-106.3090969999999942
0
LINE
8
F.Courtyard
6
CONTINUOUS
10
88.2525669999999991
20
-106.3090969999999942
11
88.242999999999995
21
-106.3109999999999928
0
LINE
8
F.Courtyard
6
CONTINUOUS
10
88.242999999999995
20
-106.3109999999999928
11
81.3429999999999893
21
-106.3109999999999928
0
LINE
8
F.Courtyard
6
CONTINUOUS
10
81.3429999999999893
20
-106.3109999999999928
11
81.3334329999999994
21
-106.3090969999999942
0
LINE
8
F.Courtyard
6
CONTINUOUS
10
81.3334329999999994
20
-106.3090969999999942
11
81.3199029999999965
21
-106.2955669999999913
0
LINE
8
F.Courtyard
6
CONTINUOUS
10
81.3199029999999965
20
-106.2955669999999913
11
81.3179999999999978
21
-106.2860000000000014
0
LINE
8
F.Courtyard
6
CONTINUOUS
10
81.3179999999999978
20
-106.2860000000000014
11
81.3179999999999978
21
-100.7860000000000014
0
LINE
8
F.Courtyard
6
CONTINUOUS
10
81.3179999999999978
20
-100.7860000000000014
11
81.3199029999999965
21
-100.7764329999999973
0
LINE
8
F.Courtyard
6
CONTINUOUS
10
81.3199029999999965
20
-100.7764329999999973
11
81.3334329999999994
21
-100.7629029999999943
0
LINE
8
F.Courtyard
6
CONTINUOUS
10
81.3334329999999994
20
-100.7629029999999943
11
81.3429999999999893
21
-100.7609999999999957
0
LINE
8
F.Courtyard
6
CONTINUOUS
10
81.3429999999999893
20
-100.7609999999999957
11
88.242999999999995
21
-100.7609999999999957
0
LINE
8
F.Courtyard
6
CONTINUOUS
10
88.242999999999995
20
-100.7609999999999957
11
88.2525669999999991
21
-100.7629029999999943
0
LINE
8
F.Courtyard
6
CONTINUOUS
10
81.367999999999995
20
-100.8109999999999928
11
81.367999999999995
21
-106.2609999999999957
0
LINE
8
F.Courtyard
6
CONTINUOUS
10
81.367999999999995
20
-106.2609999999999957
11
88.2179999999999893
21
-106.2609999999999957
0
LINE
8
F.Courtyard
6
CONTINUOUS
10
88.2179999999999893
20
-106.2609999999999957
11
88.2179999999999893
21
-100.8109999999999928
0
LINE
8
F.Courtyard
6
CONTINUOUS
10
88.2179999999999893
20
-100.8109999999999928
11
81.367999999999995
21
-100.8109999999999928
0
LINE
8
F.Courtyard
6
CONTINUOUS
10
96.3805669999999992
20
-100.7629029999999943
11
96.3940970000000021
21
-100.7764329999999973
0
LINE
8
F.Courtyard
6
CONTINUOUS
10
96.3940970000000021
20
-100.7764329999999973
11
96.3960000000000008
21
-100.7860000000000014
0
LINE
8
F.Courtyard
6
CONTINUOUS
10
96.3960000000000008
20
-100.7860000000000014
11
96.3960000000000008
21
-106.2860000000000014
0
LINE
8
F.Courtyard
6
CONTINUOUS
10
96.3960000000000008
20
-106.2860000000000014
11
96.3940970000000021
21
-106.2955669999999913
0
LINE
8
F.Courtyard
6
CONTINUOUS
10
96.3940970000000021
20
-106.2955669999999913
11
96.3805669999999992
21
-106.3090969999999942
0
LINE
8
F.Courtyard
6
CONTINUOUS
10
96.3805669999999992
20
-106.3090969999999942
11
96.3709999999999951
21
-106.3109999999999928
0
LINE
8
F.Courtyard
6
CONTINUOUS
10
96.3709999999999951
20
-106.3109999999999928
11
89.4709999999999894
21
-106.3109999999999928
0
LINE
8
F.Courtyard
6
CONTINUOUS
10
89.4709999999999894
20
-106.3109999999999928
11
89.4614329999999995
21
-106.3090969999999942
0
LINE
8
F.Courtyard
6
CONTINUOUS
10
89.4614329999999995
20
-106.3090969999999942
11
89.4479029999999966
21
-106.2955669999999913
0
LINE
8
F.Courtyard
6
CONTINUOUS
10
89.4479029999999966
20
-106.2955669999999913
11
89.445999999999998
21
-106.2860000000000014
0
LINE
8
F.Courtyard
6
CONTINUOUS
10
89.445999999999998
20
-106.2860000000000014
11
89.445999999999998
21
-100.7860000000000014
0
LINE
8
F.Courtyard
6
CONTINUOUS
10
89.445999999999998
20
-100.7860000000000014
11
89.4479029999999966
21
-100.7764329999999973
0
LINE
8
F.Courtyard
6
CONTINUOUS
10
89.4479029999999966
20
-100.7764329999999973
11
89.4614329999999995
21
-100.7629029999999943
0
LINE
8
F.Courtyard
6
CONTINUOUS
10
89.4614329999999995
20
-100.7629029999999943
11
89.4709999999999894
21
-100.7609999999999957
0
LINE
8
F.Courtyard
6
CONTINUOUS
10
89.4709999999999894
20
-100.7609999999999957
11
96.3709999999999951
21
-100.7609999999999957
0
LINE
8
F.Courtyard
6
CONTINUOUS
10
96.3709999999999951
20
-100.7609999999999957
11
96.3805669999999992
21
-100.7629029999999943
0
LINE
8
F.Courtyard
6
CONTINUOUS
10
89.4959999999999951
20
-100.8109999999999928
11
89.4959999999999951
21
-106.2609999999999957
0
LINE
8
F.Courtyard
6
CONTINUOUS
10
89.4959999999999951
20
-106.2609999999999957
11
96.3459999999999894
21
-106.2609999999999957
0
LINE
8
F.Courtyard
6
CONTINUOUS
10
96.3459999999999894
20
-106.2609999999999957
11
96.3459999999999894
21
-100.8109999999999928
0
LINE
8
F.Courtyard
6
CONTINUOUS
10
96.3459999999999894
20
-100.8109999999999928
11
89.4959999999999951
21
-100.8109999999999928
0
LINE
8
F.Courtyard
6
CONTINUOUS
10
104.5085669999999993
20
-100.7629029999999943
11
104.5220970000000023
21
-100.7764329999999973
0
LINE
8
F.Courtyard
6
CONTINUOUS
10
104.5220970000000023
20
-100.7764329999999973
11
104.5240000000000009
21
-100.7860000000000014
0
LINE
8
F.Courtyard
6
CONTINUOUS
10
104.5240000000000009
20
-100.7860000000000014
11
104.5240000000000009
21
-106.2860000000000014
0
LINE
8
F.Courtyard
6
CONTINUOUS
10
104.5240000000000009
20
-106.2860000000000014
11
104.5220970000000023
21
-106.2955669999999913
0
LINE
8
F.Courtyard
6
CONTINUOUS
10
104.5220970000000023
20
-106.2955669999999913
11
104.5085669999999993
21
-106.3090969999999942
0
LINE
8
F.Courtyard
6
CONTINUOUS
10
104.5085669999999993
20
-106.3090969999999942
11
104.4989999999999952
21
-106.3109999999999928
0
LINE
8
F.Courtyard
6
CONTINUOUS
10
104.4989999999999952
20
-106.3109999999999928
11
97.5989999999999895
21
-106.3109999999999928
0
LINE
8
F.Courtyard
6
CONTINUOUS
10
97.5989999999999895
20
-106.3109999999999928
11
97.5894329999999997
21
-106.3090969999999942
0
LINE
8
F.Courtyard
6
CONTINUOUS
10
97.5894329999999997
20
-106.3090969999999942
11
97.5759029999999967
21
-106.2955669999999913
0
LINE
8
F.Courtyard
6
CONTINUOUS
10
97.5759029999999967
20
-106.2955669999999913
11
97.5739999999999981
21
-106.2860000000000014
0
LINE
8
F.Courtyard
6
CONTINUOUS
10
97.5739999999999981
20
-106.2860000000000014
11
97.5739999999999981
21
-100.7860000000000014
0
LINE
8
F.Courtyard
6
CONTINUOUS
10
97.5739999999999981
20
-100.7860000000000014
11
97.5759029999999967
21
-100.7764329999999973
0
LINE
8
F.Courtyard
6
CONTINUOUS
10
97.5759029999999967
20
-100.7764329999999973
11
97.5894329999999997
21
-100.7629029999999943
0
LINE
8
F.Courtyard
6
CONTINUOUS
10
97.5894329999999997
20
-100.7629029999999943
11
97.5989999999999895
21
-100.7609999999999957
0
LINE
8
F.Courtyard
6
CONTINUOUS
10
97.5989999999999895
20
-100.7609999999999957
11
104.4989999999999952
21
-100.7609999999999957
0
LINE
8
F.Courtyard
6
CONTINUOUS
10
104.4989999999999952
20
-100.7609999999999957
11
104.5085669999999993
21
-100.7629029999999943
0
LINE
8
F.Courtyard
6
CONTINUOUS
10
97.6239999999999952
20
-100.8109999999999928
11
97.6239999999999952
21
-106.2609999999999957
0
LINE
8
F.Courtyard
6
CONTINUOUS
10
97.6239999999999952
20
-106.2609999999999957
11
104.4739999999999895
21
-106.2609999999999957
0
LINE
8
F.Courtyard
6
CONTINUOUS
10
104.4739999999999895
20
-106.2609999999999957
11
104.4739999999999895
21
-100.8109999999999928
0
LINE
8
F.Courtyard
6
CONTINUOUS
10
104.4739999999999895
20
-100.8109999999999928
11
97.6239999999999952
21
-100.8109999999999928
0
LINE
8
F.Courtyard
6
CONTINUOUS
10
155.1540119999999945
20
-101.7869029999999952
11
155.1675419999999974
21
-101.8004329999999982
0
LINE
8
F.Courtyard
6
CONTINUOUS
10
155.1675419999999974
20
-101.8004329999999982
11
155.1694449999999961
21
-101.8100000000000023
0
LINE
8
F.Courtyard
6
CONTINUOUS
10
155.1694449999999961
20
-101.8100000000000023
11
155.1694449999999961
21
-105.8100000000000023
0
LINE
8
F.Courtyard
6
CONTINUOUS
10
155.1694449999999961
20
-105.8100000000000023
11
155.1675419999999974
21
-105.8195669999999922
0
LINE
8
F.Courtyard
6
CONTINUOUS
10
155.1675419999999974
20
-105.8195669999999922
11
155.1540119999999945
21
-105.8330969999999951
0
LINE
8
F.Courtyard
6
CONTINUOUS
10
155.1540119999999945
20
-105.8330969999999951
11
155.1444449999999904
21
-105.8349999999999937
0
LINE
8
F.Courtyard
6
CONTINUOUS
10
155.1444449999999904
20
-105.8349999999999937
11
151.1444449999999904
21
-105.8349999999999937
0
LINE
8
F.Courtyard
6
CONTINUOUS
10
151.1444449999999904
20
-105.8349999999999937
11
151.1348779999999863
21
-105.8330969999999951
0
LINE
8
F.Courtyard
6
CONTINUOUS
10
151.1348779999999863
20
-105.8330969999999951
11
151.1213479999999834
21
-105.8195669999999922
0
LINE
8
F.Courtyard
6
CONTINUOUS
10
151.1213479999999834
20
-105.8195669999999922
11
151.1194449999999847
21
-105.8100000000000023
0
LINE
8
F.Courtyard
6
CONTINUOUS
10
151.1194449999999847
20
-105.8100000000000023
11
151.1194449999999847
21
-101.8100000000000023
0
LINE
8
F.Courtyard
6
CONTINUOUS
10
151.1194449999999847
20
-101.8100000000000023
11
151.1213479999999834
21
-101.8004329999999982
0
LINE
8
F.Courtyard
6
CONTINUOUS
10
151.1213479999999834
20
-101.8004329999999982
11
151.1348779999999863
21
-101.7869029999999952
0
LINE
8
F.Courtyard
6
CONTINUOUS
10
151.1348779999999863
20
-101.7869029999999952
11
151.1444449999999904
21
-101.7849999999999966
0
LINE
8
F.Courtyard
6
CONTINUOUS
10
151.1444449999999904
20
-101.7849999999999966
11
155.1444449999999904
21
-101.7849999999999966
0
LINE
8
F.Courtyard
6
CONTINUOUS
10
155.1444449999999904
20
-101.7849999999999966
11
155.1540119999999945
21
-101.7869029999999952
0
LINE
8
F.Courtyard
6
CONTINUOUS
10
151.1694449999999961
20
-101.8349999999999937
11
151.1694449999999961
21
-105.7849999999999966
0
LINE
8
F.Courtyard
6
CONTINUOUS
10
151.1694449999999961
20
-105.7849999999999966
11
155.1194449999999847
21
-105.7849999999999966
0
LINE
8
F.Courtyard
6
CONTINUOUS
10
155.1194449999999847
20
-105.7849999999999966
11
155.1194449999999847
21
-101.8349999999999937
0
LINE
8
F.Courtyard
6
CONTINUOUS
10
155.1194449999999847
20
-101.8349999999999937
11
151.1694449999999961
21
-101.8349999999999937
0
LINE
8
F.Courtyard
6
CONTINUOUS
10
160.5417899999999918
20
-101.7869029999999952
11
160.5553199999999947
21
-101.8004329999999982
0
LINE
8
F.Courtyard
6
CONTINUOUS
10
160.5553199999999947
20
-101.8004329999999982
11
160.5572229999999934
21
-101.8100000000000023
0
LINE
8
F.Courtyard
6
CONTINUOUS
10
160.5572229999999934
20
-101.8100000000000023
11
160.5572229999999934
21
-105.8100000000000023
0
LINE
8
F.Courtyard
6
CONTINUOUS
10
160.5572229999999934
20
-105.8100000000000023
11
160.5553199999999947
21
-105.8195669999999922
0
LINE
8
F.Courtyard
6
CONTINUOUS
10
160.5553199999999947
20
-105.8195669999999922
11
160.5417899999999918
21
-105.8330969999999951
0
LINE
8
F.Courtyard
6
CONTINUOUS
10
160.5417899999999918
20
-105.8330969999999951
11
160.5322229999999877
21
-105.8349999999999937
0
LINE
8
F.Courtyard
6
CONTINUOUS
10
160.5322229999999877
20
-105.8349999999999937
11
156.5322229999999877
21
-105.8349999999999937
0
LINE
8
F.Courtyard
6
CONTINUOUS
10
156.5322229999999877
20
-105.8349999999999937
11
156.5226559999999836
21
-105.8330969999999951
0
LINE
8
F.Courtyard
6
CONTINUOUS
10
156.5226559999999836
20
-105.8330969999999951
11
156.5091259999999806
21
-105.8195669999999922
0
LINE
8
F.Courtyard
6
CONTINUOUS
10
156.5091259999999806
20
-105.8195669999999922
11
156.507222999999982
21
-105.8100000000000023
0
LINE
8
F.Courtyard
6
CONTINUOUS
10
156.507222999999982
20
-105.8100000000000023
11
156.507222999999982
21
-101.8100000000000023
0
LINE
8
F.Courtyard
6
CONTINUOUS
10
156.507222999999982
20
-101.8100000000000023
11
156.5091259999999806
21
-101.8004329999999982
0
LINE
8
F.Courtyard
6
CONTINUOUS
10
156.5091259999999806
20
-101.8004329999999982
11
156.5226559999999836
21
-101.7869029999999952
0
LINE
8
F.Courtyard
6
CONTINUOUS
10
156.5226559999999836
20
-101.7869029999999952
11
156.5322229999999877
21
-101.7849999999999966
0
LINE
8
F.Courtyard
6
CONTINUOUS
10
156.5322229999999877
20
-101.7849999999999966
11
160.5322229999999877
21
-101.7849999999999966
0
LINE
8
F.Courtyard
6
CONTINUOUS
10
160.5322229999999877
20
-101.7849999999999966
11
160.5417899999999918
21
-101.7869029999999952
0
LINE
8
F.Courtyard
6
CONTINUOUS
10
156.5572229999999934
20
-101.8349999999999937
11
156.5572229999999934
21
-105.7849999999999966
0
LINE
8
F.Courtyard
6
CONTINUOUS
10
156.5572229999999934
20
-105.7849999999999966
11
160.507222999999982
21
-105.7849999999999966
0
LINE
8
F.Courtyard
6
CONTINUOUS
10
160.507222999999982
20
-105.7849999999999966
11
160.507222999999982
21
-101.8349999999999937
0
LINE
8
F.Courtyard
6
CONTINUOUS
10
160.507222999999982
20
-101.8349999999999937
11
156.5572229999999934
21
-101.8349999999999937
0
LINE
8
F.Courtyard
6
CONTINUOUS
10
165.9295669999999916
20
-101.7869029999999952
11
165.9430969999999945
21
-101.8004329999999982
0
LINE
8
F.Courtyard
6
CONTINUOUS
10
165.9430969999999945
20
-101.8004329999999982
11
165.9449999999999932
21
-101.8100000000000023
0
LINE
8
F.Courtyard
6
CONTINUOUS
10
165.9449999999999932
20
-101.8100000000000023
11
165.9449999999999932
21
-105.8100000000000023
0
LINE
8
F.Courtyard
6
CONTINUOUS
10
165.9449999999999932
20
-105.8100000000000023
11
165.9430969999999945
21
-105.8195669999999922
0
LINE
8
F.Courtyard
6
CONTINUOUS
10
165.9430969999999945
20
-105.8195669999999922
11
165.9295669999999916
21
-105.8330969999999951
0
LINE
8
F.Courtyard
6
CONTINUOUS
10
165.9295669999999916
20
-105.8330969999999951
11
165.9199999999999875
21
-105.8349999999999937
0
LINE
8
F.Courtyard
6
CONTINUOUS
10
165.9199999999999875
20
-105.8349999999999937
11
161.9199999999999875
21
-105.8349999999999937
0
LINE
8
F.Courtyard
6
CONTINUOUS
10
161.9199999999999875
20
-105.8349999999999937
11
161.9104329999999834
21
-105.8330969999999951
0
LINE
8
F.Courtyard
6
CONTINUOUS
10
161.9104329999999834
20
-105.8330969999999951
11
161.8969029999999805
21
-105.8195669999999922
0
LINE
8
F.Courtyard
6
CONTINUOUS
10
161.8969029999999805
20
-105.8195669999999922
11
161.8949999999999818
21
-105.8100000000000023
0
LINE
8
F.Courtyard
6
CONTINUOUS
10
161.8949999999999818
20
-105.8100000000000023
11
161.8949999999999818
21
-101.8100000000000023
0
LINE
8
F.Courtyard
6
CONTINUOUS
10
161.8949999999999818
20
-101.8100000000000023
11
161.8969029999999805
21
-101.8004329999999982
0
LINE
8
F.Courtyard
6
CONTINUOUS
10
161.8969029999999805
20
-101.8004329999999982
11
161.9104329999999834
21
-101.7869029999999952
0
LINE
8
F.Courtyard
6
CONTINUOUS
10
161.9104329999999834
20
-101.7869029999999952
11
161.9199999999999875
21
-101.7849999999999966
0
LINE
8
F.Courtyard
6
CONTINUOUS
10
161.9199999999999875
20
-101.7849999999999966
11
165.9199999999999875
21
-101.7849999999999966
0
LINE
8
F.Courtyard
6
CONTINUOUS
10
165.9199999999999875
20
-101.7849999999999966
11
165.9295669999999916
21
-101.7869029999999952
0
LINE
8
F.Courtyard
6
CONTINUOUS
10
161.9449999999999932
20
-101.8349999999999937
11
161.9449999999999932
21
-105.7849999999999966
0
LINE
8
F.Courtyard
6
CONTINUOUS
10
161.9449999999999932
20
-105.7849999999999966
11
165.8949999999999818
21
-105.7849999999999966
0
LINE
8
F.Courtyard
6
CONTINUOUS
10
165.8949999999999818
20
-105.7849999999999966
11
165.8949999999999818
21
-101.8349999999999937
0
LINE
8
F.Courtyard
6
CONTINUOUS
10
165.8949999999999818
20
-101.8349999999999937
11
161.9449999999999932
21
-101.8349999999999937
0
LINE
8
F.Courtyard
6
CONTINUOUS
10
171.3173449999999889
20
-101.7869029999999952
11
171.3308749999999918
21
-101.8004329999999982
0
LINE
8
F.Courtyard
6
CONTINUOUS
10
171.3308749999999918
20
-101.8004329999999982
11
171.3327779999999905
21
-101.8100000000000023
0
LINE
8
F.Courtyard
6
CONTINUOUS
10
171.3327779999999905
20
-101.8100000000000023
11
171.3327779999999905
21
-105.8100000000000023
0
LINE
8
F.Courtyard
6
CONTINUOUS
10
171.3327779999999905
20
-105.8100000000000023
11
171.3308749999999918
21
-105.8195669999999922
0
LINE
8
F.Courtyard
6
CONTINUOUS
10
171.3308749999999918
20
-105.8195669999999922
11
171.3173449999999889
21
-105.8330969999999951
0
LINE
8
F.Courtyard
6
CONTINUOUS
10
171.3173449999999889
20
-105.8330969999999951
11
171.3077779999999848
21
-105.8349999999999937
0
LINE
8
F.Courtyard
6
CONTINUOUS
10
171.3077779999999848
20
-105.8349999999999937
11
167.3077779999999848
21
-105.8349999999999937
0
LINE
8
F.Courtyard
6
CONTINUOUS
10
167.3077779999999848
20
-105.8349999999999937
11
167.2982109999999807
21
-105.8330969999999951
0
LINE
8
F.Courtyard
6
CONTINUOUS
10
167.2982109999999807
20
-105.8330969999999951
11
167.2846810000000062
21
-105.8195669999999922
0
LINE
8
F.Courtyard
6
CONTINUOUS
10
167.2846810000000062
20
-105.8195669999999922
11
167.2827779999999791
21
-105.8100000000000023
0
LINE
8
F.Courtyard
6
CONTINUOUS
10
167.2827779999999791
20
-105.8100000000000023
11
167.2827779999999791
21
-101.8100000000000023
0
LINE
8
F.Courtyard
6
CONTINUOUS
10
167.2827779999999791
20
-101.8100000000000023
11
167.2846810000000062
21
-101.8004329999999982
0
LINE
8
F.Courtyard
6
CONTINUOUS
10
167.2846810000000062
20
-101.8004329999999982
11
167.2982109999999807
21
-101.7869029999999952
0
LINE
8
F.Courtyard
6
CONTINUOUS
10
167.2982109999999807
20
-101.7869029999999952
11
167.3077779999999848
21
-101.7849999999999966
0
LINE
8
F.Courtyard
6
CONTINUOUS
10
167.3077779999999848
20
-101.7849999999999966
11
171.3077779999999848
21
-101.7849999999999966
0
LINE
8
F.Courtyard
6
CONTINUOUS
10
171.3077779999999848
20
-101.7849999999999966
11
171.3173449999999889
21
-101.7869029999999952
0
LINE
8
F.Courtyard
6
CONTINUOUS
10
167.3327779999999905
20
-101.8349999999999937
11
167.3327779999999905
21
-105.7849999999999966
0
LINE
8
F.Courtyard
6
CONTINUOUS
10
167.3327779999999905
20
-105.7849999999999966
11
171.2827779999999791
21
-105.7849999999999966
0
LINE
8
F.Courtyard
6
CONTINUOUS
10
171.2827779999999791
20
-105.7849999999999966
11
171.2827779999999791
21
-101.8349999999999937
0
LINE
8
F.Courtyard
6
CONTINUOUS
10
171.2827779999999791
20
-101.8349999999999937
11
167.3327779999999905
21
-101.8349999999999937
0
LINE
8
F.Courtyard
6
CONTINUOUS
10
80.2845669999999956
20
-94.1589029999999951
11
80.2980969999999985
21
-94.1724329999999981
0
LINE
8
F.Courtyard
6
CONTINUOUS
10
80.2980969999999985
20
-94.1724329999999981
11
80.2999999999999972
21
-94.1820000000000022
0
LINE
8
F.Courtyard
6
CONTINUOUS
10
80.2999999999999972
20
-94.1820000000000022
11
80.2999999999999972
21
-99.6820000000000022
0
LINE
8
F.Courtyard
6
CONTINUOUS
10
80.2999999999999972
20
-99.6820000000000022
11
80.2980969999999985
21
-99.691566999999992
0
LINE
8
F.Courtyard
6
CONTINUOUS
10
80.2980969999999985
20
-99.691566999999992
11
80.2845669999999956
21
-99.705096999999995
0
LINE
8
F.Courtyard
6
CONTINUOUS
10
80.2845669999999956
20
-99.705096999999995
11
80.2749999999999915
21
-99.7069999999999936
0
LINE
8
F.Courtyard
6
CONTINUOUS
10
80.2749999999999915
20
-99.7069999999999936
11
73.375
21
-99.7069999999999936
0
LINE
8
F.Courtyard
6
CONTINUOUS
10
73.375
20
-99.7069999999999936
11
73.3654329999999959
21
-99.705096999999995
0
LINE
8
F.Courtyard
6
CONTINUOUS
10
73.3654329999999959
20
-99.705096999999995
11
73.351902999999993
21
-99.691566999999992
0
LINE
8
F.Courtyard
6
CONTINUOUS
10
73.351902999999993
20
-99.691566999999992
11
73.3499999999999943
21
-99.6820000000000022
0
LINE
8
F.Courtyard
6
CONTINUOUS
10
73.3499999999999943
20
-99.6820000000000022
11
73.3499999999999943
21
-94.1820000000000022
0
LINE
8
F.Courtyard
6
CONTINUOUS
10
73.3499999999999943
20
-94.1820000000000022
11
73.351902999999993
21
-94.1724329999999981
0
LINE
8
F.Courtyard
6
CONTINUOUS
10
73.351902999999993
20
-94.1724329999999981
11
73.3654329999999959
21
-94.1589029999999951
0
LINE
8
F.Courtyard
6
CONTINUOUS
10
73.3654329999999959
20
-94.1589029999999951
11
73.375
21
-94.1569999999999965
0
LINE
8
F.Courtyard
6
CONTINUOUS
10
73.375
20
-94.1569999999999965
11
80.2749999999999915
21
-94.1569999999999965
0
LINE
8
F.Courtyard
6
CONTINUOUS
10
80.2749999999999915
20
-94.1569999999999965
11
80.2845669999999956
21
-94.1589029999999951
0
LINE
8
F.Courtyard
6
CONTINUOUS
10
73.3999999999999915
20
-94.2069999999999936
11
73.3999999999999915
21
-99.6569999999999965
0
LINE
8
F.Courtyard
6
CONTINUOUS
10
73.3999999999999915
20
-99.6569999999999965
11
80.25
21
-99.6569999999999965
0
LINE
8
F.Courtyard
6
CONTINUOUS
10
80.25
20
-99.6569999999999965
11
80.25
21
-94.2069999999999936
0
LINE
8
F.Courtyard
6
CONTINUOUS
10
80.25
20
-94.2069999999999936
11
73.3999999999999915
21
-94.2069999999999936
0
LINE
8
F.Courtyard
6
CONTINUOUS
10
88.3425670000000025
20
-94.1589029999999951
11
88.3560969999999912
21
-94.1724329999999981
0
LINE
8
F.Courtyard
6
CONTINUOUS
10
88.3560969999999912
20
-94.1724329999999981
11
88.3579999999999899
21
-94.1820000000000022
0
LINE
8
F.Courtyard
6
CONTINUOUS
10
88.3579999999999899
20
-94.1820000000000022
11
88.3579999999999899
21
-99.6820000000000022
0
LINE
8
F.Courtyard
6
CONTINUOUS
10
88.3579999999999899
20
-99.6820000000000022
11
88.3560969999999912
21
-99.691566999999992
0
LINE
8
F.Courtyard
6
CONTINUOUS
10
88.3560969999999912
20
-99.691566999999992
11
88.3425670000000025
21
-99.705096999999995
0
LINE
8
F.Courtyard
6
CONTINUOUS
10
88.3425670000000025
20
-99.705096999999995
11
88.3329999999999984
21
-99.7069999999999936
0
LINE
8
F.Courtyard
6
CONTINUOUS
10
88.3329999999999984
20
-99.7069999999999936
11
81.4329999999999927
21
-99.7069999999999936
0
LINE
8
F.Courtyard
6
CONTINUOUS
10
81.4329999999999927
20
-99.7069999999999936
11
81.4234330000000028
21
-99.705096999999995
0
LINE
8
F.Courtyard
6
CONTINUOUS
10
81.4234330000000028
20
-99.705096999999995
11
81.4099029999999999
21
-99.691566999999992
0
LINE
8
F.Courtyard
6
CONTINUOUS
10
81.4099029999999999
20
-99.691566999999992
11
81.4080000000000013
21
-99.6820000000000022
0
LINE
8
F.Courtyard
6
CONTINUOUS
10
81.4080000000000013
20
-99.6820000000000022
11
81.4080000000000013
21
-94.1820000000000022
0
LINE
8
F.Courtyard
6
CONTINUOUS
10
81.4080000000000013
20
-94.1820000000000022
11
81.4099029999999999
21
-94.1724329999999981
0
LINE
8
F.Courtyard
6
CONTINUOUS
10
81.4099029999999999
20
-94.1724329999999981
11
81.4234330000000028
21
-94.1589029999999951
0
LINE
8
F.Courtyard
6
CONTINUOUS
10
81.4234330000000028
20
-94.1589029999999951
11
81.4329999999999927
21
-94.1569999999999965
0
LINE
8
F.Courtyard
6
CONTINUOUS
10
81.4329999999999927
20
-94.1569999999999965
11
88.3329999999999984
21
-94.1569999999999965
0
LINE
8
F.Courtyard
6
CONTINUOUS
10
88.3329999999999984
20
-94.1569999999999965
11
88.3425670000000025
21
-94.1589029999999951
0
LINE
8
F.Courtyard
6
CONTINUOUS
10
81.4579999999999984
20
-94.2069999999999936
11
81.4579999999999984
21
-99.6569999999999965
0
LINE
8
F.Courtyard
6
CONTINUOUS
10
81.4579999999999984
20
-99.6569999999999965
11
88.3079999999999927
21
-99.6569999999999965
0
LINE
8
F.Courtyard
6
CONTINUOUS
10
88.3079999999999927
20
-99.6569999999999965
11
88.3079999999999927
21
-94.2069999999999936
0
LINE
8
F.Courtyard
6
CONTINUOUS
10
88.3079999999999927
20
-94.2069999999999936
11
81.4579999999999984
21
-94.2069999999999936
0
LINE
8
F.Courtyard
6
CONTINUOUS
10
96.3805669999999992
20
-94.1589029999999951
11
96.3940970000000021
21
-94.1724329999999981
0
LINE
8
F.Courtyard
6
CONTINUOUS
10
96.3940970000000021
20
-94.1724329999999981
11
96.3960000000000008
21
-94.1820000000000022
0
LINE
8
F.Courtyard
6
CONTINUOUS
10
96.3960000000000008
20
-94.1820000000000022
11
96.3960000000000008
21
-99.6820000000000022
0
LINE
8
F.Courtyard
6
CONTINUOUS
10
96.3960000000000008
20
-99.6820000000000022
11
96.3940970000000021
21
-99.691566999999992
0
LINE
8
F.Courtyard
6
CONTINUOUS
10
96.3940970000000021
20
-99.691566999999992
11
96.3805669999999992
21
-99.705096999999995
0
LINE
8
F.Courtyard
6
CONTINUOUS
10
96.3805669999999992
20
-99.705096999999995
11
96.3709999999999951
21
-99.7069999999999936
0
LINE
8
F.Courtyard
6
CONTINUOUS
10
96.3709999999999951
20
-99.7069999999999936
11
89.4709999999999894
21
-99.7069999999999936
0
LINE
8
F.Courtyard
6
CONTINUOUS
10
89.4709999999999894
20
-99.7069999999999936
11
89.4614329999999995
21
-99.705096999999995
0
LINE
8
F.Courtyard
6
CONTINUOUS
10
89.4614329999999995
20
-99.705096999999995
11
89.4479029999999966
21
-99.691566999999992
0
LINE
8
F.Courtyard
6
CONTINUOUS
10
89.4479029999999966
20
-99.691566999999992
11
89.445999999999998
21
-99.6820000000000022
0
LINE
8
F.Courtyard
6
CONTINUOUS
10
89.445999999999998
20
-99.6820000000000022
11
89.445999999999998
21
-94.1820000000000022
0
LINE
8
F.Courtyard
6
CONTINUOUS
10
89.445999999999998
20
-94.1820000000000022
11
89.4479029999999966
21
-94.1724329999999981
0
LINE
8
F.Courtyard
6
CONTINUOUS
10
89.4479029999999966
20
-94.1724329999999981
11
89.4614329999999995
21
-94.1589029999999951
0
LINE
8
F.Courtyard
6
CONTINUOUS
10
89.4614329999999995
20
-94.1589029999999951
11
89.4709999999999894
21
-94.1569999999999965
0
LINE
8
F.Courtyard
6
CONTINUOUS
10
89.4709999999999894
20
-94.1569999999999965
11
96.3709999999999951
21
-94.1569999999999965
0
LINE
8
F.Courtyard
6
CONTINUOUS
10
96.3709999999999951
20
-94.1569999999999965
11
96.3805669999999992
21
-94.1589029999999951
0
LINE
8
F.Courtyard
6
CONTINUOUS
10
89.4959999999999951
20
-94.2069999999999936
11
89.4959999999999951
21
-99.6569999999999965
0
LINE
8
F.Courtyard
6
CONTINUOUS
10
89.4959999999999951
20
-99.6569999999999965
11
96.3459999999999894
21
-99.6569999999999965
0
LINE
8
F.Courtyard
6
CONTINUOUS
10
96.3459999999999894
20
-99.6569999999999965
11
96.3459999999999894
21
-94.2069999999999936
0
LINE
8
F.Courtyard
6
CONTINUOUS
10
96.3459999999999894
20
-94.2069999999999936
11
89.4959999999999951
21
-94.2069999999999936
0
LINE
8
F.Courtyard
6
CONTINUOUS
10
104.5085669999999993
20
-94.1589029999999951
11
104.5220970000000023
21
-94.1724329999999981
0
LINE
8
F.Courtyard
6
CONTINUOUS
10
104.5220970000000023
20
-94.1724329999999981
11
104.5240000000000009
21
-94.1820000000000022
0
LINE
8
F.Courtyard
6
CONTINUOUS
10
104.5240000000000009
20
-94.1820000000000022
11
104.5240000000000009
21
-99.6820000000000022
0
LINE
8
F.Courtyard
6
CONTINUOUS
10
104.5240000000000009
20
-99.6820000000000022
11
104.5220970000000023
21
-99.691566999999992
0
LINE
8
F.Courtyard
6
CONTINUOUS
10
104.5220970000000023
20
-99.691566999999992
11
104.5085669999999993
21
-99.705096999999995
0
LINE
8
F.Courtyard
6
CONTINUOUS
10
104.5085669999999993
20
-99.705096999999995
11
104.4989999999999952
21
-99.7069999999999936
0
LINE
8
F.Courtyard
6
CONTINUOUS
10
104.4989999999999952
20
-99.7069999999999936
11
97.5989999999999895
21
-99.7069999999999936
0
LINE
8
F.Courtyard
6
CONTINUOUS
10
97.5989999999999895
20
-99.7069999999999936
11
97.5894329999999997
21
-99.705096999999995
0
LINE
8
F.Courtyard
6
CONTINUOUS
10
97.5894329999999997
20
-99.705096999999995
11
97.5759029999999967
21
-99.691566999999992
0
LINE
8
F.Courtyard
6
CONTINUOUS
10
97.5759029999999967
20
-99.691566999999992
11
97.5739999999999981
21
-99.6820000000000022
0
LINE
8
F.Courtyard
6
CONTINUOUS
10
97.5739999999999981
20
-99.6820000000000022
11
97.5739999999999981
21
-94.1820000000000022
0
LINE
8
F.Courtyard
6
CONTINUOUS
10
97.5739999999999981
20
-94.1820000000000022
11
97.5759029999999967
21
-94.1724329999999981
0
LINE
8
F.Courtyard
6
CONTINUOUS
10
97.5759029999999967
20
-94.1724329999999981
11
97.5894329999999997
21
-94.1589029999999951
0
LINE
8
F.Courtyard
6
CONTINUOUS
10
97.5894329999999997
20
-94.1589029999999951
11
97.5989999999999895
21
-94.1569999999999965
0
LINE
8
F.Courtyard
6
CONTINUOUS
10
97.5989999999999895
20
-94.1569999999999965
11
104.4989999999999952
21
-94.1569999999999965
0
LINE
8
F.Courtyard
6
CONTINUOUS
10
104.4989999999999952
20
-94.1569999999999965
11
104.5085669999999993
21
-94.1589029999999951
0
LINE
8
F.Courtyard
6
CONTINUOUS
10
97.6239999999999952
20
-94.2069999999999936
11
97.6239999999999952
21
-99.6569999999999965
0
LINE
8
F.Courtyard
6
CONTINUOUS
10
97.6239999999999952
20
-99.6569999999999965
11
104.4739999999999895
21
-99.6569999999999965
0
LINE
8
F.Courtyard
6
CONTINUOUS
10
104.4739999999999895
20
-99.6569999999999965
11
104.4739999999999895
21
-94.2069999999999936
0
LINE
8
F.Courtyard
6
CONTINUOUS
10
104.4739999999999895
20
-94.2069999999999936
11
97.6239999999999952
21
-94.2069999999999936
0
LINE
8
F.Courtyard
6
CONTINUOUS
10
172.9640119999999968
20
-94.4102359999999976
11
172.9775419999999997
21
-94.4237660000000005
0
LINE
8
F.Courtyard
6
CONTINUOUS
10
172.9775419999999997
20
-94.4237660000000005
11
172.9794449999999983
21
-94.4333329999999904
0
LINE
8
F.Courtyard
6
CONTINUOUS
10
172.9794449999999983
20
-94.4333329999999904
11
172.9794449999999983
21
-99.2333330000000018
0
LINE
8
F.Courtyard
6
CONTINUOUS
10
172.9794449999999983
20
-99.2333330000000018
11
172.9775419999999997
21
-99.2428999999999917
0
LINE
8
F.Courtyard
6
CONTINUOUS
10
172.9775419999999997
20
-99.2428999999999917
11
172.9640119999999968
21
-99.2564299999999946
0
LINE
8
F.Courtyard
6
CONTINUOUS
10
172.9640119999999968
20
-99.2564299999999946
11
172.9544449999999927
21
-99.2583329999999933
0
LINE
8
F.Courtyard
6
CONTINUOUS
10
172.9544449999999927
20
-99.2583329999999933
11
149.4544449999999927
21
-99.2583329999999933
0
LINE
8
F.Courtyard
6
CONTINUOUS
10
149.4544449999999927
20
-99.2583329999999933
11
149.4448779999999886
21
-99.2564299999999946
0
LINE
8
F.Courtyard
6
CONTINUOUS
10
149.4448779999999886
20
-99.2564299999999946
11
149.4313479999999856
21
-99.2428999999999917
0
LINE
8
F.Courtyard
6
CONTINUOUS
10
149.4313479999999856
20
-99.2428999999999917
11
149.429444999999987
21
-99.2333330000000018
0
LINE
8
F.Courtyard
6
CONTINUOUS
10
149.429444999999987
20
-99.2333330000000018
11
149.429444999999987
21
-94.4333329999999904
0
LINE
8
F.Courtyard
6
CONTINUOUS
10
149.429444999999987
20
-94.4333329999999904
11
149.4313479999999856
21
-94.4237660000000005
0
LINE
8
F.Courtyard
6
CONTINUOUS
10
149.4313479999999856
20
-94.4237660000000005
11
149.4448779999999886
21
-94.4102359999999976
0
LINE
8
F.Courtyard
6
CONTINUOUS
10
149.4448779999999886
20
-94.4102359999999976
11
149.4544449999999927
21
-94.4083329999999989
0
LINE
8
F.Courtyard
6
CONTINUOUS
10
149.4544449999999927
20
-94.4083329999999989
11
172.9544449999999927
21
-94.4083329999999989
0
LINE
8
F.Courtyard
6
CONTINUOUS
10
172.9544449999999927
20
-94.4083329999999989
11
172.9640119999999968
21
-94.4102359999999976
0
LINE
8
F.Courtyard
6
CONTINUOUS
10
149.4794449999999983
20
-94.4583329999999961
11
149.4794449999999983
21
-99.2083329999999961
0
LINE
8
F.Courtyard
6
CONTINUOUS
10
149.4794449999999983
20
-99.2083329999999961
11
172.929444999999987
21
-99.2083329999999961
0
LINE
8
F.Courtyard
6
CONTINUOUS
10
172.929444999999987
20
-99.2083329999999961
11
172.929444999999987
21
-94.4583329999999961
0
LINE
8
F.Courtyard
6
CONTINUOUS
10
172.929444999999987
20
-94.4583329999999961
11
149.4794449999999983
21
-94.4583329999999961
  0
ENDSEC
  0
EOF
