<?xml version="1.0" encoding="UTF-8"?>
<svg id="svg1" xmlns="http://www.w3.org/2000/svg" xmlns:svg="http://www.w3.org/2000/svg" xmlns:sodipodi="http://sodipodi.sourceforge.net/DTD/sodipodi-0.dtd" xmlns:inkscape="http://www.inkscape.org/namespaces/inkscape" version="1.1" viewBox="0 0 300.5 130.4">
  <!-- Generator: Adobe Illustrator 29.0.0, SVG Export Plug-In . SVG Version: 2.1.0 Build 186)  -->
  <defs>
    <style>
      .st0 {
        fill: #fff;
      }

      .st1 {
        stroke-width: 0px;
      }

      .st1, .st2 {
        fill: none;
        stroke: red;
        stroke-miterlimit: 11.3;
      }

      .st2 {
        stroke-width: 0px;
      }
    </style>
  </defs>
  <sodipodi:namedview id="namedview1" bordercolor="#000000" borderopacity="0.25" inkscape:current-layer="Layer_1-2-4" inkscape:cx="210.37567" inkscape:cy="67.157644" inkscape:deskcolor="#d1d1d1" inkscape:document-units="mm" inkscape:pagecheckerboard="0" inkscape:pageopacity="0.0" inkscape:showpageshadow="2" inkscape:window-height="1403" inkscape:window-maximized="1" inkscape:window-width="2560" inkscape:window-x="0" inkscape:window-y="0" inkscape:zoom="2.5834736" pagecolor="#ffffff">
    <inkscape:page id="page2" x="-8.2075893e-14" y="0" width="106.00999" height="46.009998" bleed="0" margin="0"/>
  </sodipodi:namedview>
  <g id="layer2" inkscape:groupmode="layer" inkscape:label="Layer 2">
    <rect id="rect2" class="st1" x="0" y="0" width="300.5" height="130.4" rx="8.5" ry="8.5"/>
    <circle id="path27614" class="st2" cx="55.3" cy="12" r="4.5"/>
    <circle id="path27614-2-6" class="st2" cx="288" cy="119.8" r="4.5"/>
    <rect id="rect27615" class="st1" x="7.2" y="64.7" width="222.5" height="55.2"/>
    <rect id="rect27616" class="st1" x="24" y="43.2" width="192.2" height="5.1"/>
    <g id="Layer_1-2">
      <g id="LOGO-5">
        <g id="g3">
          <path id="path10-7-9" d="M-.5,64.9c-.4,1.4-2.9-1.1-3.2-.8l1,11c-1.5,2.9-4.4-1.1-5-3.1-.8-2.3-.5-5.4-2.4-7-.7,5.2-6.6,11.1-6.7,16s3.1,7.4,5.2,10.8c2.6,4.2,0,5.2,0,8.6,0,2.8,2.3,6.4,4,8.2,1,1.1,3.6,2.8,4.3,3.7,1,1.6-.1,2-1.4,1.6-4.7-1.5-10-9.6-9.2-15.4.3-2.2,1.3-2.3,0-4.7-1.4-2.4-2.9-3.8-3.9-6.6-3.2-8.7,1-12.1,3.9-19.1.5-1.3,1.8-6.1,2.4-6.6,1.5-1.4,1.7.8,2.2,1.7.5.9,1.3,1.7,1.8,2.8,1.1,2.4,1,5.3,2.6,7.2,0-3.6-1.2-7.3.3-10.8.7-.6,1.7.6,2.3,1.1.3-3.5-4-5.8-6.1-8-9.6-10.4-8-28.9-.6-40.5C-5.9,10.2-2.5,7.5,1,3.4,5.7-1.9,3.8-6.4,6.3-11.8c1.6-3.3,4.7-8.5,8.3-8.4,0,.7.5,1.2.5,1.8,0,.9-1.8,4.2-2.2,5.6C10.7-4.2,18.3-.7,15.7,6.6c-1.5,4.1-5.2,3.7-4.6,9.6.3,2.4,2.9,5.2,5,5.2-3.6-7.7,4.7-10.6,6.3-17.7.3-1.4.3-3.9.7-4.8.2-.5.8-.7,1.2-.3,1.4,1.2.7,11,1.4,13.8.9,3.5,3.9,5.2,3.9,10.3,0,3.2-3.5,6.4-3.6,9.9,1.7,2.2,3.3,4.4,5.4,6.1l.3-.9,1.4,1.5c0-4.8,3.1-8.4,5.2-12.1,2.3-.2,1.1,3.1,1.1,4.7s-.1,2.6,0,3.7c.2,3.5,4.7,5.3,5.3,9.2.6,3.3-1.3,6.2,0,9.2-.3-2.4,1.5-4,1.9-5.9.5-2.1,0-4.6.1-6.9.5-5.8,4.5-11,5.2-17.4,0-.6-.5-2,.5-2.3,1.3-.5,1.9,2.1,2.1,3.2,1,4.9.5,10.2,1.1,15.1.6,5.5,2.9,3.2,6.1,4.4,2.9,1.2,4.5,5,4.2,8.3,2.3-.4,3.7,2.1,5.6,3,1.1-4.1-1.2-10.2.6-13.7,1.6-3.2,4.7-5.5,5.8-9.4.3-1.2.2-5.2,1.7-3.5,1.2,1.4,1.8,5.9,2,7.8.1,1.3-.2,3,.1,4,.2.5,1.8,1.7,2.3,2.3.5.7.6,1.6,1.2,2.2,1.1-3,4-4.1,5.7-6.7,2.4-3.5,2.7-7.6,4.4-11.1,1.1-2.3,2.1-.2,2.2,1.6.2,2.3-.7,9.7.3,10.9.9,1.1,2.7.4,3.6,2.6,1.2,2.9-1.1,9.1,2.9,10.1.2-1.5.4-3,.9-4.4.6-1.6,2.1-3.2,2.6-4.8.4-1.2,0-3.4,1.7-2.7.9.7.1,8.4.4,10.3s1.5,2.5,2.2,4c.6,1.2.9,2.7,1,4.1,1-1.2,1.4-3,2.4-4.3,1.1-1.4,3.2-2.3,4.1-3.8,1-1.7,1.8-9.1,2.8-9.5,2.6-1,2.5,5.8,4,7.2,3.3-2.6,7.8-3.5,9.4,1.9.6,1.1,1.2-2,1.2-2.7,0-1.7-.8-2.2-1.4-3.5-3.2-8,3.1-14.2,6.6-20.3,2.8-2.2,2.2,1.7,2.4,3.4.3,2.2.8,5,1.8,6.9,2.2,3.9,6.9,2.3,8.6,7.8.4,1.1.5,4.9,1.1,5.2,1.4.6,4.3-.4,5.9.7,0-2.2.6-4.3,1.4-6.3.4-1,2.4-5.4,3.1-5.6.3,0,.6,0,.8,0,.4,2.6.5,6.7,1.7,8.9,1.5,2.8,4.6,2.9,6.7,4.8,3.6,3.3,1.4,5.9,1.7,10.2,0,.6.2,1.8.7,2.1-.2-6.5,2-11.3,5.4-16.1,2.6-3.6,8.5-9.3,5.4-14.5-.5-.8-2-1.7-.9-2.6,1.7-1.3,5.3,2.4,6.4,4,1.7,2.7,2.5,6.5,1.8,9.8-.5,2-2.1,3.8,0,5.3,1.4.9,3.4.7,4.5,2.5.3-.7,1.1-1.5,1.7-1.7,2-.8,2.8,1,3.2-2.8.3-2.8-.7-7.9,0-10,1.6-4.8,3.9,5,3.9,6.6.3,4.3-1,11.1,1.7,14.4,2,2.3,4.2,2.2,5.5,5.9,2,5.3.7,10.7,1.8,16,.9-3,1.3-6.3,2.6-9.2.7-1.5,3-4.3,3.2-5.2.6-2.8-1.9-6.2-2.1-9.2-.7-7.6,4.1-9.1,5.1-15.1.2-1.1-.2-4.3,1.8-3.1.1,0,1.3,2,1.5,2.3,1.5,3.6-1.9,9.7,2.1,11.9.7-1.2,3.7-2.5,4.1-3.5.5-1-.8-2.7-.8-3.9,0-2.2,3.3-6.7,4.3-9.1.7-1.7,1.9-8,3-8.3,1-.3,2.4,1.9,2.5,3,.2,3.2-1.7,6.4-1.4,10s1.5,3.3,3.4,5.2c.7.7,1.9,2.2,2.3,3.1,1,2.7-.2,4.6-.1,7.4,0,.3.7,4.5,1.4,3.6-1-4.7.2-10.2,2.8-14,1.7-2.5,4.5-4.5,6.3-7,3.6-5.3,3.8-14.3,4.5-20.9.2-1.8-.4-7.1,2.6-5.4,2.1,1.2,4,11.5,4.1,14.2.2,4.5-1,4.6-1.5,7.7s1.4,2.6,3.1,4c2.3,1.7,3.7,6.2,3.4,9.3-.2,2-2.3,5.1-1.9,6.5.4,1.3,2.5,2.7,3.3,3.7,1.2,1.4,2.9,3.6,3.2,5.7.2,1-.1,2.3.3,3.1.3.4,2.5,1.5,3.2,2,1.1.8,1.8,2,2.8,2.9.2-2.9.9-6.1,2.6-8.4,1.3-1.7,3.6-2.8,4-5.4.7-5.1-2.7-8.5-3.3-13.4-1.3-11.2,8.3-12.7,9.2-22.6,0-1.2-.3-4.9.8-5.3,3.2,1,4.1,6.8,3.8,10.2-.3,2.4-2.8,7.6-2.1,9.5.5,1.3,3.6,2.2,4.5,3.4.3-1.2.3-2.6.5-3.8,1.3-7.1,6.7-10.2,6.2-18.3-.3-4.7-4.3-5.3-5.5-9.3-1.1-4,1.4-10.5,2.2-14.7.3-1.4.2-5.7,1.7-5.5,1.3.2.9,2.8,1.1,3.8.4,2.9,3,4,4.3,6.4,3.2,5.4,5.9,14.9,5.1,21.4-.5,4.5-4,10.8-2.9,15.3.5,2,2.7,4.3,3.7,6.2,5.9,10.4,4.8,21.7-1.6,31.4-1.4,2.2-3.1,2.8-3.4,5.8,0,1.1,0,2.2,0,3.3.2.4,3.8-3.5,4.2-3.9.5-.6,1.5-2.8,1.7-3,.4-.4,1.3-.3,1.5.3.4.7,0,4.9,0,6.2.4,9.3,3.7,18.6-6.1,23.1-4.9,2.3-8.5,3-12.4,7.7-.8,1-3.7,5.6-4.4,5.8-.9.3-.9-1-.7-1.7,1.1-3.8,6.5-9.9,9.5-11.9,3.9-2.5,9.4-2.8,11.7-7.4,2.2-4.3-.2-11.7.2-16.6-1.3,1.6-3,2.6-4.3,3.9-.4.5-.9,1.9-1.7,1.6-1.4-.5-.6-6.5-.8-8-.9-.5-2,.5-2.7-.5,3.2-4.3,7.4-7.9,9.7-13.1,3-6.6.4-16.1-3-21.9-.9-1.6-2.4-2.9-3.2-4.6-3.1-6.8,2.3-14.5,2.4-21.1,0-4-2.7-15.1-4.9-18-.9-1.1-2.4-2-3.1-3.5-.3,3.4-2.4,7.8-2,11.2.3,2.5,3.6,4.8,4.8,7,1.7,3.3,1.2,7.9,0,11.2-2.3,6.3-6.7,8.2-6.6,16.2,0,1.9,2,6.1-1.1,6.4.3-1.8.3-3.3-.5-4.9s-2.6-2.1-3.8-3.3c-3.3-3.2-.7-7.4,0-11.2.5-2.6.3-3.8-.4-6.3-.1-.4.1-.8-.6-.7,0,2.3,0,5-1,7.2-1.2,2.9-4.1,5.3-5.6,8.1-4.8,9,3.5,13.6,1.4,22.5-1.2,4.8-5.6,5-6.9,11.3-.3,1.5,0,3.8-1.2,4.4l.2,1c-2.2,0-2.2-1.9-3.6-3.4-1.2-1.3-2.2-1.5-3.5-2.2-3.4-2-1.4-3.6-2.7-6.5-1.4-3.4-8.2-6.9-5.2-11.5.5-.8,1.1-.7,1.5-1.7.9-2.8-.3-8.4-2.6-9.9-.7-.5-1.6-.6-2.4-1.2-3.1-2.6-.6-5.5.1-8.4,1.1-4.2-.9-10.1-2.6-13.9-.4,0-.3.7-.3,1-.4,7.1-.8,13.8-3.6,20.2-3.5,7.9-10.6,9-10.9,19.3,0,1.9.9,3.4.6,5.3-.3.4-2.6-.8-3.1-1.1-1.4-1-2.2-4.5-2.2-6.3s2.2-4.2.3-6.7c-2.2-2.9-4.4-2-5.3-7-.9-5,1.5-7.1,1.4-10.5,0-1.2-.5-2.1-.9-.5-.6,2.5-.8,5-1.7,7.3-.8,2-4.1,6.1-3.9,8.1.1.7.8,1.6.9,2.4.4,3.8-5.9,5.1-5.8,9.5-.6,0-.4,0-.5-.5-.2-.7-.3-1.9-.6-2.4-.3-.4-1.1-.6-1.5-1.4-1.2-1.6-1.3-4.4-1.1-6.3.2-2,1.4-4.7-.1-6.2,1.1,5.5-4.4,8.4-4.9,13.5-.4,4,1.3,5,1.9,8.2,1,5.3-.9,5.1-2.9,8.7-2.2,3.8-3.1,9-3,13.6-1.5,1.6-2.8-1.3-3.1-2.9-1.3-5.6.8-11.9-1.4-17.3-1.7-4.1-6-3.8-7.3-8.1-1.3-4.4.2-9.2-.1-13.7,0-2-.9-3.7-1.1-5.6-.6-.8-.5,1.8-.5,2.1.1,3.5,1.5,8.1-.4,11.2-.8,1.3-4.6-.3-4.8,2.5-1.1.2-1.5-1-2.5-1.5-1.1-.6-2.2-.7-3.3-1.3-4.1-2.6-.4-6.3-.7-9.9-.1-2.3-1.7-5.6-3.4-6.7.9,3.4-1.1,8.3-3,10.8-5.6,7.1-9.5,9.4-8.4,20.6.1,1.1,1.2,2-.6,2.4-1.2-1.6-3.1-3.4-3.6-5.5-.5-2.5.6-6.7-.3-8.4-.9-1.7-4.3-2.8-5.8-3.9-3.2-2.5-2.9-6-3.2-10l-2.5,6.5c-.7,1.2,0,4.3-.8,5-.7.8-3-.8-4.2-.9-2.3-.1-4.5,2-5.6-1.5-.6-1.9-.2-4.2-1.3-5.8-1.2-1.7-3.9-2-5.5-3.1-2.8-1.8-3.9-6.6-4.5-10.1-1.8,2.7-5.2,7-5.7,10.4-.6,4,3.1,6.7,1.3,11.3-.3.9-1.2,1.4-1.4,2.4-2.1.7-2.6-3.6-4.3-4-2.9-.7-4.8,2.7-7,1.6-.9-.5-1.6-3.7-2-4.8-.8,2.2-.8,4.6-2,6.6-1.1,1.9-3.3,2.8-4.6,4.6-.7,1.1-1.4,3.2-1.9,4.4-.4,1.1-1,4.4-1.4,5,0,.1-1.4.8-1.6,1-.6.3-.3-2-.3-2.4.4-3.1.7-5.9-.9-8.9-.5-.9-1.4-1.6-1.9-2.4-1.1-1.9-1.2-4.4-1.1-6.5-.6.4-.9,1.6-1.1,2.3-.3,1.2-.4,4-1,4.7-1.5,1.6-4.7-2.3-5.2-4-.8-2.6.5-5.6-.4-7.4-.8-1.6-3.3-.7-4.1-3.6,0-.2-.3-1.8-.3-1.8v-4.6c0,0,.7-1.2.1-1.3-.8,3.4-2.1,6.9-4.3,9.4-1.6,1.9-3.8,2.8-5.1,5.2-1,2-1.1,3.9-1.6,6-.4,0-.5,0-.7-.5-.6-1.7-.2-5.2-1.1-7-.5-1.2-2.8-2.1-3.1-3.5-.3-1.5-.2-4.3-.3-5.9,0-.3,0-1.6-.4-1.6-.4,1.3-1.1,2.7-1.8,3.8-1.3,2.1-4.3,4.8-4.3,7.3,0,4.7.7,7.1-.2,12.1-.1.8.2,1.8-.4,2.4-.6.3-1.3-1.8-1.9-2.3-.2-.3-3.1-2.7-3.3-2.7-.7-.4-1.8,0-2.2-.6-.6-.6-.8-4.9-2.7-6.8-2.2-2.2-4-.8-6.1-1.9-2.8-1.5-2.1-6.4-2.3-9.2s-.5-5.7-.6-8.5l-.5.4c-.8,4.1-3.8,8.6-4.3,12.6-.3,2.5.3,4.8,0,7.1-.3,2.9-2.5,3.9-2.1,7.4.2,1.2,1.3,2.7-.9,2.5-1.4-.2-3-3-3-4.6s.5-1.2.5-1.7c.1-1.1.3-3.2.3-4.2,0-4.6-6-8-5.9-10.5v-5.3c.1,0-1.3,2.2-1.3,2.2-.9,2-2,5.3-2,7.5,0,.6,1,2.7,0,3-.6.2-1.7-1.6-2.2-2-1.7-1.4-3.7-2.7-5.4-4-3.2-2.7-2.4-7-1.3-10.7,1.3-4.1,2.8-4.4.6-9-.7-1.6-1.9-2.6-2.4-4.4-.5-2.1-.2-4.2-.5-6.3l-4.6,6.8c-1.1,1.6-1.4,3-.7,4.9.3,1,2.2,3.5,1.1,4.4-.5.4-4.5-1-5.2-1.5-3.1-2.1-5.1-6.8-4.2-10.9.6-2.8,3.9-4.5,4.2-7.2.3-3.1-1.9-5.8-2.5-8.7-.9-4.1-.4-8.2,1.7-11.7,0-.2-.2-.2-.4-.2-.6.3-2.5,3.2-3,4C5.5-6.3,8.7-1.8,3.4,4.9c-6.3,7.8-14.1,13.3-15.3,25.3-1.2,10.7.2,17.5,6.9,24.8,1.2,1.3,4.8,3.9,4.8,5.9s.1,3.7,0,4.3v-.3Z"/>
          <path id="path19-1-1" d="M8,30.9c-.5.7-.8-2-.9-2.2-1.3-3.4-3.3-2.1-5.4-3.2-2-1.1-1.2-3.3-1.5-5.3-2.1,3.2-4.8,5.8-5.2,10.1-.2,2.4.4,7.1,1.6,9.1.4.7,1.7.9,1.3,1.7,0,.1-1,.3-1.3.3-1.9-.6-2.9-6.9-2.9-8.8-.2-6,2.5-8.1,5.1-12.2.5-.8,1.9-4.3,2.4-4.6,2.7-1.8.9,6.6,1.4,7.5,1.9.9,3.1.7,4.5,2.8,1.1,1.7,1.1,2.9.9,5h0Z"/>
          <path id="path20-8-5" d="M283.3,26c-.3-.5-1.1-.3-1.3-2-.7-4.4.9-6.4,2.3-9.9.5-1.3.7-5.1,2.2-2.7,0,3,1.6,6.7,1.3,9.7-.2,2.6-2.1,4.2-2.9,6.2-.4,1.1-.7,5.6-2,4.6-1.4-1.1.5-5.6.4-5.9h0ZM284.4,24.2c2.1-2.9,1.7-5.4.9-8.9-1.7,2.4-2,5.4-1.9,8.4l.9.5h0Z"/>
          <path id="path21-7-9" d="M-23.2,52.2c.8,0,1,1.4,1.2,2.2.4,1.9.2,4.1.6,6.1.3,1.4,1.6,3.6,1.5,4.7s-1.5,1.9-2.6,1.5c-3.2-1.5-4-5.7-3.6-9.4.2-1.5,1.5-5.2,2.9-5.1ZM-23.4,55c-.5-.7-1,1.9-1,2.2-.2,2.6.4,3.5.8,5.5.1.5-.3.9,0,1.4s2.7,2.1,2.2.6c-.3-1-1-2.1-1.3-3.1-.6-2.1-.9-4.4-.8-6.6Z"/>
          <path id="path21-7-9-1" d="M11.3,41.7c.8,0,1,1.4,1.2,2.2.4,1.9.2,4.1.6,6.1.3,1.4,1.6,3.6,1.5,4.7s-1.5,1.9-2.6,1.5c-3.2-1.5-4-5.7-3.6-9.4.2-1.5,1.5-5.2,2.9-5.1ZM11.1,44.5c-.5-.7-1,1.9-1,2.2-.2,2.6.4,3.5.8,5.5.1.5-.3.9,0,1.4s2.7,2.1,2.2.6c-.3-1-1-2.1-1.3-3.1-.6-2.1-.9-4.4-.8-6.6Z"/>
          <path id="path22-9-7" d="M309.9,87.8c1.1,4.8.8,10.1-4.1,11.2-1.8.5-2.8,0-2.6-2.3.2-1.5,4.7-8.2,5.8-8.7.3-.1.6-.3.9-.2h0ZM305.3,96.8c2.9-1.2,3.9-2.5,3.6-6.2-.6.4-3.8,5.9-3.6,6.2Z"/>
          <path id="path23-2-7" d="M319.1,57c.2-2.3.3-5.8-.2-8.1-.6-2.7-3.8-4.7-4.7-7.3-.7,1.7-.9,5.3-1.8,6.6-.2.3-.3.4-.6.4l-.6-.5,2.2-11c1.6-1.4,1.2,1.1,1.5,2.2.9,3.8,5.1,6.2,5.6,9.5.2,1.5,0,5.9-.6,7.4-.2.4-.3.8-.8.6v.2Z"/>
          <path id="path24-0-6" d="M-2.8,93.7l-2.6-6.4c-.4,0-.3.9-.3,1.3,0,.9.6,3.2.4,3.7s-1,.6-1.2.4c-.4-.3-.8-8-.6-9,.2-1.2.8-1.2,1.4-.1.7,1.6,2,5.4,2.5,7,.3,1,.5,2,.4,3.1h0Z"/>
          <path id="path25-2-7" d="M267.9,49.9l-.6-2.6c-.5-1.1-1.8-1.4-2-2.8-.2-1.3.5-2.7.3-4.1l-1.8,3.5c-.8,1-.4,3.8-1.6,3.6-.8-.2-.7-1.1-.5-1.8.2-.9,3.3-6.4,3.9-6.6,1.5-.4,0,4.3.5,5.3,0,.8.8,1,1.2,1.4,1,1.3.6,2.5.7,4.2Z"/>
          <path id="path26-3-3" d="M286,55.2l-.4-5.4c-.4,0-.5,1-.5,1.3,0,.7,0,1.5,0,2.3.1,1,1.2,2.7,0,2.7-1.6,0-.9-6.2-.2-7.3,1.4-2.2,2.3,3.3,2.3,4.4s-.2,2.3-1.2,2.1h0Z"/>
          <path id="path27-7-6" d="M77.2,61.1c.2-1.4,1.4-3.4,0-4.5,2.1-.8.9,4.6.3,5.3-1.6,1.9-3-4.5-.9-3.8.7.2-.6,2.5.6,2.9h0Z"/>
        </g>
      </g>
      <g id="Layer_1-2-4">
        <g id="g9-3">
          <path id="path1-3" d="M250.7,103.6h1v3.3h0c0,.2,0,.3,0,.3,0,0,0,.1,0,.2,0,0,0,.1,0,.2h.4v.4h-.8v-.5h0c0,.2-.2.3-.4.4-.2.1-.4.2-.6.2-.5,0-.8-.1-1-.4s-.3-.7-.3-1.2,0-.5.1-.7c0-.2.2-.4.3-.5.1-.1.3-.2.5-.3.2,0,.4-.1.6-.1h.2c0,0,.1,0,.2,0,0,0,.1,0,.2,0s.1,0,.2,0v-.9h-.5v-.4h0ZM250.4,107.6c.3,0,.4,0,.6-.2.1-.1.2-.3.3-.6v-1.4c0,0-.2-.1-.3-.1-.1,0-.3,0-.4,0-.3,0-.6,0-.8.3-.2.2-.3.5-.3.9s0,.3,0,.5c0,.1,0,.3.2.4,0,.1.2.2.3.3.1,0,.3,0,.4,0h0Z"/>
          <path id="path2" d="M255.5,107.5c0,0-.2.1-.3.2s-.2.1-.3.2c-.1,0-.2,0-.4,0s-.3,0-.4,0c-.3,0-.5,0-.7-.1-.2,0-.3-.2-.5-.3s-.2-.3-.3-.5c0-.2,0-.4,0-.7s0-.5.1-.7c0-.2.2-.4.3-.5.1-.1.3-.2.5-.3.2,0,.4-.1.6-.1s.3,0,.5,0c.2,0,.3.1.4.3.1.1.2.3.3.5,0,.2,0,.5,0,.8h-2.4c0,.4,0,.6.3.8s.5.3.8.3.2,0,.3,0c.1,0,.2,0,.3,0,0,0,.2,0,.3-.1s.1,0,.2-.1l.2.3h0ZM254.2,105.2c-.1,0-.3,0-.4,0s-.2,0-.3.1c0,0-.2.2-.2.3,0,.1,0,.2-.1.4h1.9c0-.3-.1-.5-.3-.6s-.4-.2-.6-.2h0Z"/>
          <path id="path3" d="M258.7,107.1c0-.1,0-.2-.2-.3,0,0-.2-.1-.4-.2-.2,0-.3,0-.5-.1s-.3,0-.5-.2c-.2,0-.3-.1-.4-.3s-.2-.3-.2-.4,0-.3,0-.4.2-.2.3-.3.2-.1.4-.2c.2,0,.3,0,.5,0,.3,0,.5,0,.7.1s.4.1.5.2l-.2.4c-.1,0-.3-.1-.4-.2-.2,0-.4,0-.6,0s-.2,0-.3,0c0,0-.2,0-.2,0,0,0-.1,0-.2.1,0,0,0,.1,0,.2s0,.2.2.3.2.1.4.1c.2,0,.3,0,.5.1s.3,0,.5.2c.2,0,.3.2.4.3,0,.1.2.3.2.4,0,.3-.1.5-.3.7s-.6.3-1,.3-.3,0-.4,0-.3,0-.4,0-.2,0-.3-.1-.2-.1-.2-.2l.3-.4s.1,0,.2.2.2,0,.3.1c0,0,.2,0,.3,0s.2,0,.3,0,.2,0,.3,0c0,0,.2,0,.3,0,0,0,.1,0,.2-.2,0,0,0-.1,0-.2h0Z"/>
          <path id="path4" d="M260.2,105.9h0v-.3c0,0,0-.1,0-.2,0,0,0-.1,0-.2h-.4v-.4h.8v.5h0c0,0,0-.1.2-.2,0,0,.1-.1.2-.2,0,0,.2,0,.3-.1.1,0,.2,0,.3,0,.2,0,.4,0,.5,0,.1,0,.3.1.4.2s.2.3.2.4c0,.2,0,.4,0,.7v1.8h-.5v-1.7c0-.3,0-.6-.2-.8-.1-.2-.3-.3-.6-.3s-.2,0-.3,0c0,0-.2,0-.3.2s-.2.2-.2.2c0,0-.1.2-.1.3v1.9h-.5v-2h0Z"/>
          <path id="path5-3" d="M264,105.1c.2,0,.4-.2.6-.2.2,0,.4,0,.7,0s.4,0,.5,0c.1,0,.2.2.3.3,0,.1.1.2.2.4,0,.1,0,.3,0,.4s0,.3,0,.5c0,.2,0,.3,0,.5,0,.2,0,.4,0,.6h.4v.4h-.8v-.5h0s0,0-.1.1-.1.1-.2.2c0,0-.2.1-.3.1-.1,0-.3,0-.4,0-.3,0-.5,0-.7-.2s-.3-.4-.3-.6,0-.4.1-.5c0-.1.2-.3.4-.3.2,0,.4-.1.6-.1s.5,0,.8,0c0-.2,0-.3,0-.5,0-.1,0-.2,0-.3,0,0-.1-.1-.2-.2,0,0-.2,0-.3,0s-.4,0-.5,0-.3.1-.4.2l-.2-.4h0ZM264.9,107.6c.1,0,.2,0,.3,0,0,0,.2,0,.3-.1s.1-.1.2-.2c0,0,0-.1.1-.2v-.4c-.2,0-.4,0-.6,0s-.3,0-.5,0c-.1,0-.2,0-.3.2,0,0-.1.2-.1.3s0,.3.1.3c0,0,.3.2.5.2h0Z"/>
          <path id="path6-8" d="M267.5,107.9v-.4h.8v-2.3h-.8v-.4h1.2v.4h.1c.1-.1.3-.2.5-.3s.4-.1.6-.1.3,0,.3,0,.2.1.2.2c0,0,0,.2,0,.4,0,.1,0,.3,0,.5h-.4c0-.3,0-.4,0-.6s-.1-.2-.3-.2-.2,0-.3,0c0,0-.2,0-.3.1,0,0-.1.1-.2.2s0,0-.1.1v1.8h1.2v.4h-2.5,0Z"/>
          <path id="path7-6" d="M271.5,103.6h1v3.3c0,.3,0,.4.1.5,0,0,.2.2.4.2s.2,0,.3,0c.1,0,.2-.1.3-.2l.2.3c0,0-.1.1-.2.2,0,0-.2,0-.2.1,0,0-.2,0-.3,0,0,0-.2,0-.2,0-.2,0-.3,0-.4,0-.1,0-.2,0-.3-.2,0,0-.1-.2-.2-.3,0-.1,0-.3,0-.5v-2.9h-.5v-.4h0Z"/>
          <path id="path8-0" d="M277.7,107.5c0,0-.2.1-.3.2s-.2.1-.3.2c-.1,0-.2,0-.4,0s-.3,0-.4,0c-.3,0-.5,0-.7-.1-.2,0-.3-.2-.5-.3s-.2-.3-.3-.5c0-.2,0-.4,0-.7s0-.5.1-.7c0-.2.2-.4.3-.5.1-.1.3-.2.5-.3.2,0,.4-.1.6-.1s.3,0,.5,0c.2,0,.3.1.4.3.1.1.2.3.3.5,0,.2,0,.5,0,.8h-2.4c0,.4,0,.6.3.8s.5.3.8.3.2,0,.3,0c.1,0,.2,0,.3,0,0,0,.2,0,.3-.1,0,0,.1,0,.2-.1l.2.3h0ZM276.4,105.2c-.1,0-.3,0-.4,0-.1,0-.2,0-.3.1s-.2.2-.2.3c0,.1,0,.2-.1.4h1.9c0-.3-.1-.5-.3-.6-.2-.2-.4-.2-.6-.2h0Z"/>
          <path id="path9-4" d="M278.5,107.9v-.4h.8v-2.3h-.8v-.4h1.2v.4h.1c.1-.1.3-.2.5-.3s.4-.1.6-.1.3,0,.3,0,.2.1.2.2c0,0,0,.2,0,.4,0,.1,0,.3,0,.5h-.4c0-.3,0-.4,0-.6s-.1-.2-.3-.2-.2,0-.3,0c0,0-.2,0-.3.1,0,0-.1.1-.2.2s0,0-.1.1v1.8h1.2v.4h-2.5,0Z"/>
        </g>
        <g id="g9-3-0">
          <path id="path3-0" d="M80.3,23.5c-.1,0-.2,0-.3.2,0,0-.1.2-.2.4,0,.2,0,.3-.1.5s0,.3-.2.5c0,.2-.1.3-.3.4s-.3.2-.4.1-.3,0-.4-.1-.2-.2-.3-.3-.1-.2-.2-.4c0-.2,0-.3,0-.5,0-.3,0-.5.1-.7s.1-.4.2-.5l.4.2c0,.1-.1.3-.2.4,0,.2-.1.4-.1.6s0,.2,0,.3c0,0,0,.2,0,.2,0,0,0,.1.1.2,0,0,.1,0,.2,0s.2,0,.3-.2.1-.2.1-.4c0-.2,0-.3.1-.5s0-.3.2-.5c0-.2.2-.3.3-.4.1,0,.3-.2.4-.1.3,0,.5.1.7.3s.3.6.3,1,0,.3,0,.4,0,.3-.1.4,0,.2-.1.3-.1.2-.2.2l-.4-.3s0-.1.2-.2,0-.2.1-.3c0,0,0-.2.1-.3s0-.2,0-.3,0-.2,0-.3c0,0,0-.2,0-.3,0,0,0-.1-.2-.2,0,0-.1,0-.2,0h0Z"/>
          <path id="path4-5" d="M79.1,22h-.1c0,0-.1,0-.2,0s-.1,0-.2,0c0,0-.1,0-.2,0v.4s-.4,0-.4,0v-.8s.5,0,.5,0h0c0,0-.1-.1-.2-.2,0,0-.1-.1-.2-.2,0,0,0-.2-.1-.3,0-.1,0-.2,0-.3,0-.2,0-.4,0-.5,0-.1.1-.3.2-.4s.3-.2.4-.2c.2,0,.4,0,.7,0h1.8s0,.5,0,.5h-1.7c-.3,0-.6,0-.8.1-.2.1-.3.3-.3.6s0,.2,0,.3c0,0,0,.2.2.3s.2.2.2.2c0,0,.2.1.3.1h1.9s0,.5,0,.5h-2s0,0,0,0Z"/>
          <path id="path5-3-1" d="M78.3,18.2c0-.2-.2-.4-.2-.6,0-.2,0-.4,0-.7s0-.4.1-.5c0-.1.2-.2.3-.3.1,0,.2-.1.4-.1.1,0,.3,0,.4,0s.3,0,.5,0c.2,0,.3,0,.5,0,.2,0,.4,0,.6,0v-.4s.4,0,.4,0v.8s-.5,0-.5,0h0s0,0,.1.1.1.1.2.2c0,0,.1.2.1.3,0,.1,0,.3,0,.4,0,.3,0,.5-.2.7s-.4.3-.6.3-.4,0-.5-.1c-.1,0-.2-.2-.3-.4,0-.2-.1-.4-.1-.6s0-.5,0-.8c-.2,0-.3,0-.5,0-.1,0-.2,0-.3,0,0,0-.1.1-.2.2,0,0,0,.2,0,.3s0,.4,0,.5.1.3.1.4h-.4c0,.1,0,.2,0,.2ZM80.8,17.3c0-.1,0-.2,0-.3,0,0,0-.2-.1-.3s-.1-.1-.2-.2c0,0-.1,0-.2-.1h-.4c0,.2,0,.4,0,.6s0,.3,0,.5c0,.1,0,.2.2.3,0,0,.2.1.3.1s.3,0,.3-.1c0,0,.2-.2.2-.5h0Z"/>
          <path id="path6-8-1" d="M81.2,14.8h-.4s0-.8,0-.8h-2.3s0,.8,0,.8h-.4s0-1.2,0-1.2h.4c0,0,0-.1,0-.1-.1-.1-.2-.3-.3-.5s-.1-.4-.1-.6,0-.3,0-.3.1-.2.2-.2c0,0,.2,0,.4,0,.1,0,.3,0,.5,0v.4c-.3,0-.4,0-.6,0s-.2.1-.2.3,0,.2,0,.3c0,0,0,.2.1.3,0,0,.1.1.2.2s0,0,.1.1h1.8s0-1.2,0-1.2h.4s0,2.5,0,2.5h0Z"/>
          <path id="path7-6-0" d="M76.9,10.7v-1s3.3,0,3.3,0c.3,0,.4,0,.5-.1,0,0,.2-.2.2-.4s0-.2,0-.3c0-.1-.1-.2-.2-.4l.3-.2c0,0,.1.1.2.2,0,0,0,.2.1.2,0,0,0,.2,0,.3,0,0,0,.2,0,.2,0,.2,0,.3,0,.4,0,.1,0,.2-.2.3,0,0-.2.1-.3.2-.1,0-.3,0-.5,0h-2.9s0,.5,0,.5h-.4s0,0,0,0Z"/>
        </g>
        <g id="g9-3-0-0">
          <path id="path3-0-4" d="M182.3,39.4c-.1,0-.2,0-.2.1,0,0-.1.2-.1.3,0,.1,0,.2,0,.4s0,.3-.1.4c0,.1-.1.2-.2.3s-.2.1-.3.1-.2,0-.3,0-.2-.1-.2-.2,0-.2-.1-.3c0-.1,0-.2,0-.4,0-.2,0-.4,0-.6s.1-.3.2-.4l.3.2c0,0-.1.2-.2.3,0,.1,0,.3,0,.5s0,.1,0,.2c0,0,0,.1,0,.2,0,0,0,.1.1.1,0,0,.1,0,.2,0s.1,0,.2-.1,0-.2.1-.3c0-.1,0-.2,0-.4s0-.3.1-.4c0-.1.1-.2.2-.3,0,0,.2-.1.3-.1.2,0,.4,0,.5.3s.2.4.2.8,0,.2,0,.3,0,.2,0,.3,0,.2-.1.2,0,.1-.1.2l-.3-.2s0,0,.1-.1,0-.1.1-.2c0,0,0-.2,0-.2s0-.2,0-.3,0-.2,0-.2c0,0,0-.1,0-.2,0,0,0-.1-.1-.1,0,0-.1,0-.2,0h0Z"/>
          <path id="path4-5-6" d="M181.4,38.1h-.1s0,0-.1,0-.1,0-.1,0c0,0,0,0-.1,0v.3s-.3,0-.3,0v-.6s.4,0,.4,0h0c0,0-.1-.1-.2-.2,0,0,0-.1-.1-.2,0,0,0-.1,0-.2,0,0,0-.2,0-.3,0-.1,0-.3,0-.4,0-.1,0-.2.2-.3s.2-.1.3-.2c.1,0,.3,0,.5,0h1.4s0,.4,0,.4h-1.3c-.3,0-.5,0-.6.1-.1,0-.2.2-.2.5s0,.2,0,.2c0,0,0,.2.1.2s.1.1.2.2c0,0,.1,0,.2.1h1.5s0,.4,0,.4h-1.5s0,0,0,0Z"/>
          <path id="path5-3-1-2" d="M180.8,35.2c0-.1-.1-.3-.2-.5,0-.2,0-.3,0-.5s0-.3,0-.4c0-.1.1-.2.2-.2,0,0,.2,0,.3-.1.1,0,.2,0,.3,0s.3,0,.4,0c.1,0,.3,0,.4,0,.2,0,.3,0,.5,0v-.3s.3,0,.3,0v.6s-.4,0-.4,0h0s0,0,.1.1,0,0,.1.2c0,0,0,.1.1.2,0,0,0,.2,0,.3,0,.2,0,.4-.2.6s-.3.2-.5.2-.3,0-.4-.1c-.1,0-.2-.2-.2-.3,0-.1,0-.3,0-.5s0-.4,0-.6c-.1,0-.3,0-.4,0-.1,0-.2,0-.2,0,0,0-.1,0-.1.2,0,0,0,.2,0,.3s0,.3,0,.4,0,.2.1.3h-.3c0,.1,0,.1,0,.1ZM182.7,34.6c0,0,0-.2,0-.2,0,0,0-.1-.1-.2s0-.1-.1-.1c0,0,0,0-.1,0h-.3c0,.2,0,.3,0,.4s0,.3,0,.4c0,.1,0,.2.1.2,0,0,.1,0,.2,0s.2,0,.3-.1c0,0,.1-.2.1-.4h0Z"/>
          <path id="path6-8-1-6" d="M183,32.6h-.3s0-.6,0-.6h-1.7s0,.6,0,.6h-.3s0-.9,0-.9h.3c0,0,0,0,0,0,0-.1-.2-.2-.2-.4s0-.3,0-.5,0-.2,0-.3.1-.1.2-.1c0,0,.2,0,.3,0,.1,0,.2,0,.4,0v.3c-.2,0-.3,0-.4,0s-.1.1-.1.2,0,.2,0,.3c0,0,0,.2,0,.2,0,0,0,.1.1.2s0,0,0,0h1.4s0-.9,0-.9h.3s0,1.9,0,1.9h0Z"/>
          <path id="path7-6-0-7" d="M179.7,29.5v-.8s2.5,0,2.5,0c.2,0,.3,0,.4,0,0,0,.1-.2.1-.3s0-.2,0-.3c0,0,0-.2-.2-.3l.3-.2c0,0,0,.1.1.2,0,0,0,.1,0,.2,0,0,0,.1,0,.2,0,0,0,.1,0,.2,0,.1,0,.2,0,.3,0,0,0,.2-.1.2,0,0-.2.1-.3.1-.1,0-.2,0-.4,0h-2.2s0,.4,0,.4h-.3s0,0,0,0Z"/>
        </g>
        <g id="g9-3-0-0-7">
          <path id="path3-0-4-2" d="M200.4,26.3c-.2,0-.3,0-.4.2,0,.1-.2.3-.2.4,0,.2-.1.4-.1.6s-.1.4-.2.6c0,.2-.2.3-.3.4s-.3.2-.5.2-.3,0-.5-.1-.2-.2-.3-.3-.1-.3-.2-.5c0-.2,0-.4,0-.5,0-.3,0-.6.1-.9s.2-.4.3-.6l.5.2c0,.2-.2.3-.3.5,0,.2-.1.4-.1.7s0,.2,0,.3c0,.1,0,.2.1.3,0,0,.1.2.2.2,0,0,.2,0,.3,0s.2,0,.3-.2.1-.3.2-.4c0-.2,0-.4.1-.6s.1-.4.2-.6c0-.2.2-.3.3-.4.1-.1.3-.2.5-.2.3,0,.6.1.8.4s.3.7.3,1.2,0,.3,0,.5,0,.3-.1.4-.1.3-.2.4-.1.2-.2.3l-.5-.3s.1-.1.2-.2.1-.2.2-.3c0-.1,0-.2.1-.4s0-.3,0-.4,0-.3,0-.4c0-.1,0-.2-.1-.3,0,0-.1-.2-.2-.2,0,0-.2,0-.3,0h0Z"/>
          <path id="path4-5-6-8" d="M199.1,24.4h-.2c0,0-.1,0-.2,0s-.2,0-.2,0c0,0-.1,0-.2,0v.5s-.5,0-.5,0v-1s.6,0,.6,0h0c0,0-.2-.2-.2-.2,0,0-.2-.2-.2-.3,0-.1-.1-.2-.2-.4,0-.1,0-.3,0-.4,0-.2,0-.4,0-.6,0-.2.1-.3.3-.4s.3-.2.5-.3c.2,0,.5,0,.8,0h2.1s0,.6,0,.6h-2c-.4,0-.7,0-.9.2-.2.1-.3.4-.3.7s0,.2,0,.4c0,.1.1.2.2.3s.2.2.3.3c.1,0,.2.1.3.2h2.3s0,.6,0,.6h-2.4s0,0,0,0Z"/>
          <path id="path5-3-1-2-2" d="M198.1,20c-.1-.2-.2-.4-.3-.7,0-.3,0-.5,0-.8s0-.4.1-.6c0-.2.2-.3.3-.4.1,0,.3-.2.4-.2.2,0,.3,0,.5,0s.4,0,.6,0c.2,0,.4,0,.6,0,.2,0,.5,0,.7,0v-.5s.5,0,.5,0v1s-.5,0-.5,0h0s.1.1.2.2.1.1.2.2c0,0,.1.2.2.3,0,.1,0,.3,0,.5,0,.4,0,.6-.3.8s-.4.3-.8.3-.4,0-.6-.2c-.2-.1-.3-.3-.4-.5,0-.2-.1-.4-.1-.7s0-.6,0-1c-.2,0-.4,0-.6,0-.2,0-.3,0-.3.1,0,0-.2.1-.2.3,0,.1,0,.2,0,.4s0,.4,0,.6.1.4.2.5l-.4.2h0ZM201,18.9c0-.1,0-.3,0-.4,0-.1-.1-.2-.2-.3s-.1-.2-.2-.2c0,0-.2-.1-.2-.1h-.5c0,.3,0,.5,0,.7s0,.4,0,.6c0,.2.1.3.2.4.1,0,.2.1.4.1s.3,0,.4-.2c.1-.1.2-.3.2-.5h0Z"/>
          <path id="path6-8-1-6-9" d="M201.5,15.9h-.5s0-1,0-1h-2.7s0,1,0,1h-.5s0-1.4,0-1.4h.5c0-.1,0-.2,0-.2-.2-.2-.3-.3-.4-.6s-.2-.4-.1-.7,0-.3,0-.4.2-.2.3-.2c.1,0,.3,0,.4-.1.2,0,.4,0,.6,0v.5c-.3,0-.5,0-.7,0s-.2.2-.2.3,0,.3,0,.4c0,.1.1.2.2.3,0,0,.1.2.2.2s.1.1.2.1h2.1s0-1.4,0-1.4h.5s0,2.9,0,2.9h0Z"/>
          <path id="path7-6-0-7-9" d="M196.5,11.2v-1.2s3.9,0,3.9,0c.3,0,.5,0,.6-.1.1-.1.2-.2.2-.4s0-.3,0-.4c0-.1-.1-.3-.2-.4l.4-.3c0,0,.1.2.2.3,0,0,.1.2.1.3,0,.1,0,.2,0,.3,0,.1,0,.2,0,.3,0,.2,0,.3,0,.5,0,.1-.1.3-.2.4-.1.1-.2.2-.4.2-.2,0-.4,0-.6,0h-3.4s0,.6,0,.6h-.5s0,0,0,0Z"/>
        </g>
        <g id="g9-3-0-0-7-6">
          <path id="path3-0-4-2-1" d="M233.5,24.7c-.2,0-.3,0-.4.2,0,.1-.2.3-.2.4,0,.2-.1.4-.1.6s-.1.4-.2.6c0,.2-.2.3-.3.4s-.3.2-.5.2-.3,0-.5-.1-.2-.2-.3-.3-.1-.3-.2-.5c0-.2,0-.4,0-.5,0-.3,0-.6.1-.9s.2-.4.3-.6l.5.2c0,.2-.2.3-.3.5,0,.2-.1.4-.1.7s0,.2,0,.3c0,.1,0,.2.1.3,0,0,.1.2.2.2,0,0,.2,0,.3,0s.2,0,.3-.2.1-.3.2-.4c0-.2,0-.4.1-.6s.1-.4.2-.6c0-.2.2-.3.3-.4.1-.1.3-.2.5-.2.3,0,.6.1.8.4s.3.7.3,1.2,0,.3,0,.5,0,.3-.1.4-.1.3-.2.4-.1.2-.2.3l-.5-.3s.1-.1.2-.2.1-.2.2-.3c0-.1,0-.2.1-.4s0-.3,0-.4,0-.3,0-.4c0-.1,0-.2-.1-.3,0,0-.1-.2-.2-.2,0,0-.2,0-.3,0h0Z"/>
          <path id="path4-5-6-8-3" d="M232.1,22.8h-.2c0,0-.1,0-.2,0s-.2,0-.2,0c0,0-.1,0-.2,0v.5s-.5,0-.5,0v-1s.6,0,.6,0h0c0,0-.2-.2-.2-.2,0,0-.2-.2-.2-.3,0-.1-.1-.2-.2-.4,0-.1,0-.3,0-.4,0-.2,0-.4,0-.6,0-.2.1-.3.3-.4s.3-.2.5-.3c.2,0,.5,0,.8,0h2.1s0,.6,0,.6h-2c-.4,0-.7,0-.9.2-.2.1-.3.4-.3.7s0,.2,0,.4c0,.1.1.2.2.3s.2.2.3.3c.1,0,.2.1.3.2h2.3s0,.6,0,.6h-2.4s0,0,0,0Z"/>
          <path id="path5-3-1-2-2-2" d="M231.2,18.4c-.1-.2-.2-.4-.3-.7,0-.3,0-.5,0-.8s0-.4.1-.6c0-.2.2-.3.3-.4.1,0,.3-.2.4-.2.2,0,.3,0,.5,0s.4,0,.6,0c.2,0,.4,0,.6,0,.2,0,.5,0,.7,0v-.5s.5,0,.5,0v1s-.5,0-.5,0h0s.1.1.2.2.1.1.2.2c0,0,.1.2.2.3,0,.1,0,.3,0,.5,0,.4,0,.6-.3.8s-.4.3-.8.3-.4,0-.6-.2c-.2-.1-.3-.3-.4-.5,0-.2-.1-.4-.1-.7s0-.6,0-1c-.2,0-.4,0-.6,0-.2,0-.3,0-.3.1,0,0-.2.1-.2.3,0,.1,0,.2,0,.4s0,.4,0,.6.1.4.2.5l-.4.2h0ZM234.1,17.3c0-.1,0-.3,0-.4,0-.1-.1-.2-.2-.3s-.1-.2-.2-.2c0,0-.2-.1-.2-.1h-.5c0,.3,0,.5,0,.7s0,.4,0,.6c0,.2.1.3.2.4.1,0,.2.1.4.1s.3,0,.4-.2c.1-.1.2-.3.2-.5h0Z"/>
          <path id="path6-8-1-6-9-1" d="M234.5,14.3h-.5s0-1,0-1h-2.7s0,1,0,1h-.5s0-1.4,0-1.4h.5c0-.1,0-.2,0-.2-.2-.2-.3-.3-.4-.6s-.2-.4-.1-.7,0-.3,0-.4.2-.2.3-.2c.1,0,.3,0,.4-.1.2,0,.4,0,.6,0v.5c-.3,0-.5,0-.7,0s-.2.2-.2.3,0,.3,0,.4c0,.1.1.2.2.3,0,0,.1.2.2.2s.1.1.2.1h2.1s0-1.4,0-1.4h.5s0,2.9,0,2.9h0Z"/>
          <path id="path7-6-0-7-9-5" d="M229.5,9.6v-1.2s3.9,0,3.9,0c.3,0,.5,0,.6-.1.1-.1.2-.2.2-.4s0-.3,0-.4c0-.1-.1-.3-.2-.4l.4-.3c0,0,.1.2.2.3,0,0,.1.2.1.3,0,.1,0,.2,0,.3,0,.1,0,.2,0,.3,0,.2,0,.3,0,.5,0,.1-.1.3-.2.4-.1.1-.2.2-.4.2-.2,0-.4,0-.6,0h-3.4s0,.6,0,.6h-.5s0,0,0,0Z"/>
        </g>
        <g id="g9-3-0-0-7-6-9">
          <path id="path3-0-4-2-1-1" d="M254.3,25c-.1,0-.2,0-.2.1,0,0-.1.2-.1.3,0,.1,0,.2,0,.4s0,.3-.1.4c0,.1-.1.2-.2.3s-.2.1-.3.1-.2,0-.3,0-.2-.1-.2-.2,0-.2-.1-.3c0-.1,0-.2,0-.4,0-.2,0-.4,0-.6s.1-.3.2-.4l.3.2c0,.1-.1.2-.2.3,0,.1,0,.3,0,.5s0,.1,0,.2c0,0,0,.1,0,.2,0,0,0,.1.1.1,0,0,.1,0,.2,0s.1,0,.2-.1,0-.2.1-.3c0-.1,0-.2,0-.4s0-.3.1-.4c0-.1.1-.2.2-.3,0,0,.2-.1.3-.1.2,0,.4,0,.5.3s.2.4.2.8,0,.2,0,.3,0,.2,0,.3,0,.2-.1.2,0,.1-.1.2l-.3-.2s0,0,.1-.2,0-.1.1-.2c0,0,0-.2,0-.2s0-.2,0-.3,0-.2,0-.2c0,0,0-.1,0-.2,0,0,0-.1-.1-.1,0,0-.1,0-.2,0h0Z"/>
          <path id="path4-5-6-8-3-0" d="M253.4,23.8h-.1s0,0-.1,0-.1,0-.1,0c0,0,0,0-.1,0v.3s-.3,0-.3,0v-.6s.4,0,.4,0h0c0,0-.1-.1-.2-.2,0,0-.1-.1-.1-.2,0,0,0-.1-.1-.2,0,0,0-.2,0-.3,0-.1,0-.3,0-.4,0-.1,0-.2.2-.3s.2-.1.3-.2c.1,0,.3,0,.5,0h1.4s0,.4,0,.4h-1.3c-.3,0-.5,0-.6.1-.1,0-.2.2-.2.5s0,.2,0,.2c0,0,0,.2.1.2s.1.1.2.2c0,0,.1,0,.2.1h1.5s0,.4,0,.4h-1.6s0,0,0,0Z"/>
          <path id="path5-3-1-2-2-2-7" d="M252.8,20.8c0-.1-.1-.3-.2-.5,0-.2,0-.3,0-.5s0-.3,0-.4c0-.1.1-.2.2-.2,0,0,.2-.1.3-.1.1,0,.2,0,.3,0s.3,0,.4,0c.1,0,.3,0,.4,0,.2,0,.3,0,.5,0v-.3s.3,0,.3,0v.6s-.4,0-.4,0h0s0,0,.1.1,0,0,.1.2c0,0,0,.1.1.2,0,0,0,.2,0,.3,0,.2,0,.4-.2.6s-.3.2-.5.2-.3,0-.4-.1c-.1,0-.2-.2-.2-.3,0-.1,0-.3,0-.5s0-.4,0-.6c-.1,0-.3,0-.4,0-.1,0-.2,0-.2,0,0,0-.1,0-.1.2,0,0,0,.2,0,.3s0,.3,0,.4,0,.2.1.3h-.3c0,.1,0,.1,0,.1ZM254.7,20.1c0,0,0-.2,0-.2,0,0,0-.1-.1-.2s0-.1-.1-.1c0,0-.1,0-.2,0h-.3c0,.2,0,.3,0,.5s0,.3,0,.4c0,.1,0,.2.1.2,0,0,.1,0,.2,0s.2,0,.3-.1c0,0,.1-.2.1-.4h0Z"/>
          <path id="path6-8-1-6-9-1-5" d="M255,18.1h-.3s0-.6,0-.6h-1.8s0,.6,0,.6h-.3s0-.9,0-.9h.3c0,0,0,0,0,0-.1-.1-.2-.2-.3-.4s0-.3,0-.5,0-.2,0-.3.1-.1.2-.2c0,0,.2,0,.3,0,.1,0,.2,0,.4,0v.3c-.2,0-.4,0-.4,0s-.1.1-.1.2,0,.2,0,.3c0,0,0,.2.1.2,0,0,0,.1.1.2s0,0,.1,0h1.4s0-.9,0-.9h.3s0,1.9,0,1.9h0Z"/>
          <path id="path7-6-0-7-9-5-8" d="M251.7,15v-.8s2.6,0,2.6,0c.2,0,.3,0,.4,0,0,0,.1-.2.1-.3s0-.2,0-.3c0,0,0-.2-.2-.3l.3-.2c0,0,0,.1.1.2,0,0,0,.1,0,.2,0,0,0,.1,0,.2,0,0,0,.1,0,.2,0,.1,0,.2,0,.3,0,0,0,.2-.1.2,0,0-.2.1-.3.1-.1,0-.2,0-.4,0h-2.2s0,.4,0,.4h-.3s0,0,0,0Z"/>
        </g>
        <g id="g9-3-0-2">
          <path id="path3-0-5" d="M98.2,22.1c-.2,0-.3,0-.4.2,0,.1-.2.3-.2.5,0,.2-.1.4-.2.6s-.1.4-.2.6c0,.2-.2.4-.3.5s-.3.2-.6.2-.4,0-.5-.1-.3-.2-.3-.3-.2-.3-.2-.5c0-.2,0-.4,0-.6,0-.4,0-.7.1-.9s.2-.5.3-.6l.5.3c0,.2-.2.4-.3.6,0,.2-.1.5-.1.7s0,.2,0,.3c0,.1,0,.2.1.3,0,0,.1.2.2.2,0,0,.2,0,.3,0s.2,0,.3-.2.1-.3.2-.5c0-.2.1-.4.1-.6s.1-.4.2-.6c0-.2.2-.3.3-.5.1-.1.3-.2.6-.2.4,0,.7.1.9.4s.3.7.3,1.3,0,.3,0,.5,0,.3-.1.5-.1.3-.2.4-.1.2-.2.3l-.5-.3s.1-.2.2-.2.1-.2.2-.3c0-.1,0-.3.1-.4s0-.3,0-.4,0-.3,0-.4c0-.1,0-.2-.1-.3,0,0-.1-.2-.2-.2,0,0-.2,0-.3,0h0Z"/>
          <path id="path4-5-8" d="M96.8,20.1h-.2c0,0-.2,0-.2,0s-.2,0-.2,0c0,0-.2,0-.2,0v.5s-.5,0-.5,0v-1.1s.6,0,.6,0h0c0,0-.2-.2-.3-.3,0,0-.2-.2-.2-.3,0-.1-.1-.2-.2-.4,0-.1,0-.3,0-.4,0-.2,0-.5,0-.6,0-.2.1-.3.3-.5s.3-.2.5-.3c.2,0,.5,0,.9,0h2.2s0,.6,0,.6h-2.1c-.4,0-.8,0-1,.2-.2.1-.3.4-.3.8s0,.3,0,.4c0,.1.1.3.2.3s.2.2.3.3c.1,0,.2.1.4.2h2.5s0,.6,0,.6h-2.6s0,0,0,0Z"/>
          <path id="path5-3-1-6" d="M95.7,15.3c-.1-.2-.2-.5-.3-.8,0-.3,0-.6,0-.8s0-.5.1-.7c0-.2.2-.3.3-.4.1,0,.3-.2.5-.2.2,0,.3,0,.5,0s.4,0,.6,0c.2,0,.4,0,.7,0,.3,0,.5,0,.8,0v-.5s.5,0,.5,0v1s-.6,0-.6,0h0s.1.1.2.2.1.1.2.3c0,0,.1.2.2.4,0,.2,0,.3,0,.5,0,.4-.1.7-.3.9s-.5.3-.8.3-.5,0-.7-.2c-.2-.1-.3-.3-.4-.5,0-.2-.1-.5-.2-.8s0-.7,0-1.1c-.2,0-.4,0-.6,0-.2,0-.3,0-.4.1,0,0-.2.2-.2.3,0,.1,0,.3,0,.4s0,.5,0,.7.1.4.2.6l-.5.2h0ZM98.9,14.1c0-.2,0-.3,0-.4,0-.1-.1-.2-.2-.3s-.2-.2-.2-.2c0,0-.2-.1-.2-.1h-.6c0,.3,0,.5,0,.7s0,.4,0,.6c0,.2.1.3.2.4.1,0,.2.1.4.1s.3,0,.4-.2c.1-.1.2-.3.2-.6h0Z"/>
          <path id="path6-8-1-2" d="M99.4,10.9h-.5s0-1.1,0-1.1h-2.9s0,1,0,1h-.5s0-1.5,0-1.5h.5c0-.1,0-.2,0-.2-.2-.2-.3-.4-.4-.6s-.2-.5-.2-.8,0-.3.1-.4.2-.2.3-.2c.1,0,.3,0,.5-.1.2,0,.4,0,.6,0v.6c-.3,0-.6,0-.7,0s-.2.2-.2.4,0,.3,0,.4c0,.1.1.3.2.3,0,0,.1.2.2.3s.1.1.2.2h2.3s0-1.5,0-1.5h.5s0,3.2,0,3.2h0Z"/>
          <path id="path7-6-0-8" d="M93.9,5.7v-1.3s4.2,0,4.2,0c.3,0,.5,0,.7-.2.1-.1.2-.3.2-.5s0-.3,0-.4c0-.1-.1-.3-.3-.4l.4-.3c0,0,.1.2.2.3,0,0,.1.2.1.3,0,.1,0,.2,0,.3,0,.1,0,.2,0,.3,0,.2,0,.4,0,.5,0,.2-.1.3-.2.4-.1.1-.3.2-.4.2-.2,0-.4,0-.7,0h-3.7s0,.7,0,.7h-.5s0,0,0,0Z"/>
        </g>
        <g id="g9-3-0-2-9">
          <path id="path3-0-5-3" d="M160.4,36.7c-.2,0-.3,0-.4.2,0,.1-.2.3-.2.5,0,.2-.1.4-.2.6s-.1.4-.2.6c0,.2-.2.4-.3.5s-.3.2-.6.2-.4,0-.5-.1-.3-.2-.3-.3-.2-.3-.2-.5c0-.2,0-.4,0-.6,0-.4,0-.7.1-.9s.2-.5.3-.6l.5.3c0,.2-.2.4-.3.6,0,.2-.1.5-.1.7s0,.2,0,.3c0,.1,0,.2.1.3,0,0,.1.2.2.2,0,0,.2,0,.3,0s.2,0,.3-.2.1-.3.2-.5c0-.2.1-.4.1-.6s.1-.4.2-.6c0-.2.2-.3.3-.5.1-.1.3-.2.6-.2.4,0,.7.1.9.4s.3.7.3,1.3,0,.3,0,.5,0,.3-.1.5-.1.3-.2.4-.1.2-.2.3l-.5-.3s.1-.2.2-.2.1-.2.2-.3c0-.1,0-.3.1-.4s0-.3,0-.4,0-.3,0-.4c0-.1,0-.2-.1-.3,0,0-.1-.2-.2-.2,0,0-.2,0-.3,0h0Z"/>
          <path id="path4-5-8-3" d="M158.9,34.7h-.2c0,0-.2,0-.2,0s-.2,0-.2,0c0,0-.2,0-.2,0v.5s-.5,0-.5,0v-1.1s.6,0,.6,0h0c0,0-.2-.2-.3-.3,0,0-.2-.2-.2-.3,0-.1-.1-.2-.2-.4,0-.1,0-.3,0-.4,0-.2,0-.5,0-.6,0-.2.1-.3.3-.5s.3-.2.5-.3c.2,0,.5,0,.9,0h2.2s0,.6,0,.6h-2.1c-.4,0-.8,0-1,.2-.2.1-.3.4-.3.8s0,.3,0,.4c0,.1.1.3.2.3s.2.2.3.3c.1,0,.2.1.4.2h2.5s0,.6,0,.6h-2.6s0,0,0,0Z"/>
          <path id="path5-3-1-6-8" d="M157.9,29.9c-.1-.2-.2-.5-.3-.8,0-.3,0-.6,0-.8s0-.5.1-.7c0-.2.2-.3.3-.4.1,0,.3-.2.5-.2.2,0,.3,0,.5,0s.4,0,.6,0c.2,0,.4,0,.7,0,.3,0,.5,0,.8,0v-.5s.5,0,.5,0v1s-.6,0-.6,0h0s.1.1.2.2.1.1.2.3c0,0,.1.2.2.4,0,.2,0,.3,0,.5,0,.4-.1.7-.3.9s-.5.3-.8.3-.5,0-.7-.2c-.2-.1-.3-.3-.4-.5,0-.2-.1-.5-.2-.8s0-.7,0-1.1c-.2,0-.4,0-.6,0-.2,0-.3,0-.4.1,0,0-.2.2-.2.3,0,.1,0,.3,0,.4s0,.5,0,.7.1.4.2.6l-.5.2h0ZM161,28.7c0-.2,0-.3,0-.4,0-.1-.1-.2-.2-.3s-.2-.2-.2-.2c0,0-.2-.1-.2-.1h-.6c0,.3,0,.5,0,.7s0,.4,0,.6c0,.2.1.3.2.4.1,0,.2.1.4.1s.3,0,.4-.2c.1-.1.2-.3.2-.6h0Z"/>
          <path id="path6-8-1-2-0" d="M161.5,25.5h-.5s0-1.1,0-1.1h-2.9s0,1,0,1h-.5s0-1.5,0-1.5h.5c0-.1,0-.2,0-.2-.2-.2-.3-.4-.4-.6s-.2-.5-.2-.8,0-.3.1-.4.2-.2.3-.2c.1,0,.3,0,.5-.1.2,0,.4,0,.6,0v.6c-.3,0-.6,0-.7,0s-.2.2-.2.4,0,.3,0,.4c0,.1.1.3.2.3,0,0,.1.2.2.3s.1.1.2.2h2.3s0-1.5,0-1.5h.5s0,3.2,0,3.2h0Z"/>
          <path id="path7-6-0-8-5" d="M156.1,20.3v-1.3s4.2,0,4.2,0c.3,0,.5,0,.7-.2.1-.1.2-.3.2-.5s0-.3,0-.4c0-.1-.1-.3-.3-.4l.4-.3c0,0,.1.2.2.3,0,0,.1.2.1.3,0,.1,0,.2,0,.3,0,.1,0,.2,0,.3,0,.2,0,.4,0,.5,0,.2-.1.3-.2.4-.1.1-.3.2-.4.2-.2,0-.4,0-.7,0h-3.7s0,.7,0,.7h-.5s0,0,0,0Z"/>
        </g>
        <g id="g9-3-0-2-0">
          <path id="path3-0-5-6" d="M125.2,33.6c-.2,0-.4,0-.6.3-.1.2-.2.4-.3.7,0,.3-.2.6-.2.9s-.2.6-.3.9c-.1.3-.3.5-.5.7s-.5.3-.8.3-.5,0-.7-.2-.4-.3-.5-.5-.2-.4-.3-.7c0-.3,0-.6,0-.8,0-.5,0-1,.2-1.4s.3-.7.4-.9l.7.4c-.1.2-.3.5-.4.8-.1.3-.2.7-.2,1.1s0,.3,0,.5c0,.2,0,.3.2.4,0,.1.2.2.3.3,0,0,.2.1.4.1s.3,0,.5-.3.2-.4.3-.7c0-.3.1-.6.2-.9s.2-.6.3-.9c.1-.3.3-.5.5-.7.2-.2.5-.3.8-.3.5,0,.9.2,1.3.6s.5,1,.5,1.8,0,.5,0,.7-.1.5-.2.7-.2.4-.3.6-.2.3-.3.4l-.7-.5s.2-.2.3-.4.2-.3.3-.5c0-.2.1-.4.2-.6s0-.4,0-.6,0-.4,0-.6c0-.2,0-.3-.2-.5,0-.1-.2-.2-.3-.3-.1,0-.3-.1-.4-.1h0Z"/>
          <path id="path4-5-8-2" d="M123.1,30.7h-.3c-.1,0-.2,0-.3,0s-.2,0-.3,0c-.1,0-.2,0-.3,0v.8s-.7,0-.7,0v-1.5s.9,0,.9,0h0c-.1-.1-.3-.2-.4-.4-.1-.1-.2-.3-.3-.4,0-.2-.2-.3-.2-.6,0-.2,0-.4,0-.6,0-.3,0-.7.1-.9,0-.3.2-.5.4-.7s.5-.3.8-.4c.3,0,.7-.1,1.2-.1h3.3s0,.9,0,.9h-3.1c-.6,0-1.1,0-1.4.3-.3.2-.5.6-.5,1.1s0,.4.1.6c0,.2.2.4.3.5s.3.3.4.4c.2.1.3.2.5.2h3.6s0,.9,0,.9h-3.7s0,0,0,0Z"/>
          <path id="path5-3-1-6-9" d="M121.6,23.8c-.2-.3-.3-.7-.4-1.1,0-.4-.1-.8-.1-1.2s0-.7.2-.9c.1-.2.3-.4.5-.6.2-.1.4-.2.7-.3.2,0,.5,0,.7,0s.6,0,.9,0c.3,0,.6,0,1,0,.4,0,.7,0,1.1,0v-.8s.7,0,.7,0v1.5s-.9,0-.9,0h0c0,0,.2.2.3.3s.2.2.3.4c0,.1.2.3.3.5,0,.2.1.5.1.7,0,.6-.1,1-.4,1.3s-.7.5-1.2.5-.7,0-1-.3c-.3-.2-.5-.4-.6-.7-.1-.3-.2-.7-.2-1.2s0-1,.1-1.5c-.3,0-.6,0-.9,0-.2,0-.4,0-.5.2-.1,0-.2.2-.3.4,0,.2,0,.4,0,.6s0,.7.1,1,.2.6.3.8l-.7.3h0ZM126.2,22.1c0-.2,0-.4,0-.6,0-.2-.2-.3-.3-.5s-.2-.2-.3-.3c-.1,0-.2-.2-.4-.2h-.8c0,.4-.1.8-.1,1.1s0,.6,0,.9c0,.2.2.4.3.6.2.1.3.2.6.2s.5,0,.6-.3c.2-.2.3-.5.3-.9h0Z"/>
          <path id="path6-8-1-2-9" d="M126.9,17.5h-.8s0-1.5,0-1.5h-4.2s0,1.5,0,1.5h-.8s0-2.1,0-2.1l.7-.2h0c-.2-.3-.4-.6-.6-.9s-.2-.7-.2-1.1,0-.5.1-.6.2-.3.4-.4c.2,0,.4-.1.7-.2.3,0,.6,0,.9,0v.8c-.5,0-.8,0-1.1.1s-.3.3-.3.5,0,.4,0,.6c0,.2.2.4.2.5,0,.1.2.3.3.4s.2.2.2.2h3.3s0-2.1,0-2.1h.8s0,4.6,0,4.6h0Z"/>
          <path id="path7-6-0-8-0" d="M119,10v-1.9s6.1,0,6.1,0c.5,0,.8,0,1-.2.2-.2.3-.4.3-.7s0-.4-.1-.6c0-.2-.2-.4-.4-.6l.6-.4c0,.1.2.3.3.4,0,.1.2.3.2.4,0,.2,0,.3.1.5,0,.2,0,.3,0,.4,0,.3,0,.5-.1.7,0,.2-.2.4-.3.6-.2.2-.4.3-.6.3-.3,0-.6.1-1,.1h-5.3s0,1,0,1h-.8s0,0,0,0Z"/>
        </g>
        <g id="g9-3-0-2-0-1">
          <path id="path3-0-5-6-0" d="M222.4,38.4c-.2,0-.4,0-.6.3-.1.2-.2.4-.3.7,0,.3-.2.6-.2.9s-.2.6-.3.9c-.1.3-.3.5-.5.7s-.5.3-.8.3-.5,0-.7-.2-.4-.3-.5-.5-.2-.4-.3-.7c0-.3,0-.6,0-.8,0-.5,0-1,.2-1.4s.3-.7.4-.9l.7.4c-.1.2-.3.5-.4.8-.1.3-.2.7-.2,1.1s0,.3,0,.5c0,.2,0,.3.2.4,0,.1.2.2.3.3,0,0,.2.1.4.1s.3,0,.5-.3.2-.4.3-.7c0-.3.1-.6.2-.9s.2-.6.3-.9c.1-.3.3-.5.5-.7.2-.2.5-.3.8-.3.5,0,.9.2,1.3.6s.5,1,.5,1.8,0,.5,0,.7-.1.5-.2.7-.2.4-.3.6-.2.3-.3.4l-.7-.5s.2-.2.3-.4.2-.3.3-.5c0-.2.1-.4.2-.6s0-.4,0-.6,0-.4,0-.6c0-.2,0-.3-.2-.5,0-.1-.2-.2-.3-.3-.1,0-.3-.1-.4-.1h0Z"/>
          <path id="path4-5-8-2-3" d="M220.3,35.5h-.3c-.1,0-.2,0-.3,0s-.2,0-.3,0c-.1,0-.2,0-.3,0v.8s-.7,0-.7,0v-1.5s.9,0,.9,0h0c-.1-.1-.3-.2-.4-.4-.1-.1-.2-.3-.3-.4,0-.2-.2-.3-.2-.6,0-.2,0-.4,0-.6,0-.3,0-.7.1-.9,0-.3.2-.5.4-.7s.5-.3.8-.4c.3,0,.7-.1,1.2-.1h3.3s0,.9,0,.9h-3.1c-.6,0-1.1,0-1.4.3-.3.2-.5.6-.5,1.1s0,.4.1.6c0,.2.2.4.3.5s.3.3.4.4c.2.1.3.2.5.2h3.6s0,.9,0,.9h-3.7s0,0,0,0Z"/>
          <path id="path5-3-1-6-9-4" d="M218.8,28.5c-.2-.3-.3-.7-.4-1.1,0-.4-.1-.8-.1-1.2s0-.7.2-.9c.1-.2.3-.4.5-.6.2-.1.4-.2.7-.3.2,0,.5,0,.7,0s.6,0,.9,0c.3,0,.6,0,1,0,.4,0,.7,0,1.1,0v-.8s.7,0,.7,0v1.5s-.9,0-.9,0h0c0,0,.2.2.3.3s.2.2.3.4c0,.1.2.3.3.5,0,.2.1.5.1.7,0,.6-.1,1-.4,1.3s-.7.5-1.2.5-.7,0-1-.3c-.3-.2-.5-.4-.6-.7-.1-.3-.2-.7-.2-1.2s0-1,.1-1.5c-.3,0-.6,0-.9,0-.2,0-.4,0-.5.2-.1,0-.2.2-.3.4,0,.2,0,.4,0,.6s0,.7.1,1,.2.6.3.8l-.7.3h0ZM223.4,26.9c0-.2,0-.4,0-.6,0-.2-.2-.3-.3-.5s-.2-.2-.3-.3c-.1,0-.2-.2-.4-.2h-.8c0,.4-.1.8-.1,1.1s0,.6,0,.9c0,.2.2.4.3.6.2.1.3.2.6.2s.5,0,.6-.3c.2-.2.3-.5.3-.9h0Z"/>
          <path id="path6-8-1-2-9-0" d="M224.1,22.2h-.8s0-1.5,0-1.5h-4.2s0,1.5,0,1.5h-.8s0-2.1,0-2.1l.7-.2h0c-.2-.3-.4-.6-.6-.9s-.2-.7-.2-1.1,0-.5.1-.6.2-.3.4-.4c.2,0,.4-.1.7-.2.3,0,.6,0,.9,0v.8c-.5,0-.8,0-1.1.1s-.3.3-.3.5,0,.4,0,.6c0,.2.2.4.2.5,0,.1.2.3.3.4s.2.2.2.2h3.3s0-2.1,0-2.1h.8s0,4.6,0,4.6h0Z"/>
          <path id="path7-6-0-8-0-3" d="M216.2,14.8v-1.9s6.1,0,6.1,0c.5,0,.8,0,1-.2.2-.2.3-.4.3-.7s0-.4-.1-.6c0-.2-.2-.4-.4-.6l.6-.4c0,.1.2.3.3.4,0,.1.2.3.2.4,0,.2,0,.3.1.5,0,.2,0,.3,0,.4,0,.3,0,.5-.1.7,0,.2-.2.4-.3.6-.2.2-.4.3-.6.3-.3,0-.6.1-1,.1h-5.3s0,1,0,1h-.8s0,0,0,0Z"/>
        </g>
        <g id="LOGO-8">
          <path id="path11-8" d="M239,90.3c.1-.1.3,0,.4,0,.3-.1.3-.4.8-.4.5,0,2,1,2.5,1.4.5.3,1.7,1.1,2,1.4.3.4,0,.5.1.8,0,1.8.2,3.6.2,5.4,0,.2,0,.6-.2.8,0,0-.2.1-.2.2,0,0,0,.2,0,.3-.1.5-1.8,1.7-2.3,2.1-.3.2-1.6,1.3-1.9,1.3-.1,0-.2,0-.4,0-.2,0-.4.3-.6.4-1,.3-.8-.5-.9-1.2-.2-1.8,0-4,.1-5.8,0-1.8,0-4.1.3-6,0-.2,0-.6.2-.7h0ZM239.5,90.7c0,.1,0,.2,0,.4,0,1.4,0,2.9,0,4.3,0,.9,0,1.9,0,2.9,0,1.4,0,2.9,0,4.2,0,0,0,.2,0,.2,0,0-.2.3,0,.3.2,0,.6-.6.8-.7,0-.2-.2-.3-.2-.5-.2-1.2,0-3,0-4.3,0-2,0-3.9.1-5.9,0-.1,0-.3,0-.4,0,0-.3-.4-.4-.4h0ZM243.7,93.7l-.7-.4-1.9-1.3c0,0,0,.3,0,.3,0,0,.4.2.4.3.2.2.5.5.8.6.2,0,.4.1.5.3,0,0,0,.2,0,.3.2.7.3,1.1.4,1.8.2,1.4.2,2.7.2,4.1l.3-.2v-.5c0,0,0-5.3,0-5.3h0ZM242.1,93.8c-.4-.2-.6-.6-1-.9-.1,2.9-.2,5.8-.5,8.7l1.7-1.3c-.1-.7,0-1.5,0-2.3,0-1-.2-2-.2-3,0-.4,0-.9,0-1.3h0Z"/>
          <path id="path12-97" d="M284,91.5s.4.3.4.4c.9,1,1.6,1.8,2.5,2.8.2.2.4.5.7.7,0,0,0,0,.1,0,0,0,.4-.5.5-.7.5-.9.9-1.9,1.4-2.7.1-.2.5-.9.7-1,.4-.3.6,0,.8,0,.2,0,.5,0,.6,0,.3,0,1,0,.9.4,0,0,0,.1-.1.2-.6,1.8-2,3.2-3,4.8-.2.4-.4.7-.4,1.1,0,.9,0,1.8,0,2.7s0,.6,0,.8c0,.3-.3.5-.5.5s-.4-.1-.6-.2c-.2,0-.4,0-.6,0-.6-.2-.8-.3-.9-.9-.2-1.2,0-2.5-.3-3.8-.6-.8-1.4-1.4-2.1-2.2-.7-.8-1.2-1.8-1.9-2.6-.2-.3,0-.5.3-.6s1.3-.2,1.5-.1c.2,0,0,.3.2.4h0ZM287,96c-.7-.7-1.5-1.4-2.1-2.1-.6-.7-1-1.5-1.6-2.2h-.4c.7.8,1.3,1.6,1.9,2.4.5.5,1.4,1.4,1.9,1.9,0,0,.1.1.2.1ZM291.8,91.8h-.9c-.7,1.1-1.3,2.4-2,3.5-.4.5-.8,1.2-1.6.9,0,.1.1.2.1.3,0,.4,0,.9,0,1.3,0,.9,0,1.8-.2,2.6h.3c0-.4,0-1,0-1.5,0-.9,0-2.2.7-2.8.3-.3.6-.5.8-.8.7-.8,1.1-1.8,1.9-2.5l.7-1h0Z"/>
          <path id="path13-7" d="M259.7,98.8l-1.4.2c0,.3-.4.8-.4,1.1s.4.4,0,.7c-.2.2-1.1.2-1.2,0s-.3-.7-.2-.9c0-1.1.8-3,1.1-4.2.2-.6.7-2.4.9-2.8,0,0,.3-.2.3-.2,0,0,0-.2,0-.3.1-.3.7-.4,1-.3.1,0,.3,0,.3,0,0,0,0,0,0-.1.9-.5,1.3,1.4,1.4,2,.4,1.5.6,3.7.7,5.3,0,.3,0,1-.3,1.1-.2,0-.8.2-1,.2s-.5,0-.6-.1c-.2,0-.3-.5-.4-.7,0,0-.1-.1-.1-.2-.1-.3,0-.7-.2-1h0ZM260.2,93h-.5c.3.4.3.9.4,1.3.2,1.2.4,2.5.5,3.7,0,.6,0,1.3.1,1.8,0,.1.1,0,.2,0s.2,0,.3,0c0,0-.1-.6-.2-.7-.2-.7-.2-1.5-.3-2.2-.2-1.3-.3-2.6-.6-3.9h0ZM259.6,97.9l-.3-2.8-.7,3,1-.3ZM257.3,100c0,0,.2-.4.3-.4.2-.5.3-1,.4-1.5l-.7,1.9Z"/>
          <path id="path14-64" d="M279.1,98.7l-1.4.2c0,.3-.4.8-.4,1.1s.4.4,0,.7c-.2.2-1.1.2-1.2,0s-.3-.7-.2-.9c0-1.1.8-3,1.1-4.2.2-.6.6-2.4.9-2.8,0,0,.3-.2.3-.2,0,0,0-.2,0-.3.1-.3.7-.4,1-.3,0,0,.3,0,.3,0s0,0,0-.1c.9-.5,1.3,1.4,1.4,2,.4,1.6.6,3.7.7,5.3,0,.3,0,1-.3,1.1-.2,0-.8.2-1,.2s-.5,0-.6-.1c-.2,0-.3-.5-.4-.7,0,0-.1-.1-.1-.2,0-.2-.1-.9-.2-1h0ZM279.6,92.8h-.5c.3.4.3.9.4,1.3.2,1.3.4,2.8.6,4.1,0,.5,0,1,0,1.4,0,.1.1,0,.2,0s.2,0,.3,0c0,0-.1-.6-.2-.7-.2-.7-.2-1.5-.3-2.2-.2-1.3-.3-2.6-.6-3.9h0ZM279,97.8l-.3-2.8-.7,3,1-.3ZM276.6,99.9c0,0,.2-.3.2-.4.2-.4.3-.9.4-1.3l-.6,1.7h0Z"/>
          <path id="path15-3" d="M253.5,94.6l-.2,1.2c.3.3.6.4.9.7s.8.8,1,1.1c0,0,0,.2,0,.3-.3,1.2-.5,2.7-1.1,3.8-.3.4-.6.1-1,.1-.3,0-.4.2-.7,0s-1.9-1.9-2.1-2.3c0-.2-.2-.4,0-.6,0-.1.2-.1.3-.2,0-.1,0-.4.3-.5s.3,0,.4.1c0,0,.2,0,.3,0,0,0,0,0,0,.1.4.4.9.7,1.3,1.1,0,0,0,0,0,0,0,0,.2-.5.2-.6,0-.1.2-.4.2-.4-.4-.4-.8-.8-1.2-1.1-.2-.2-.9-.6-1-.9-.2-.3,0-1.4.2-1.8.2-.6.5-1.1.8-1.7.2-.4.3-1.3.6-1.5s.7,0,.9.1c.4.4.9.9,1.3,1.4.3.3,1,1,1,1.5,0,.3-.2.3-.4.4-.3.2-.5.7-.8.8-.5,0-.9-.6-1.3-.9h0ZM254.9,94.9l.2-.6-1.7-2.1-.7,2.3.3-.7c.8-.4,1.3.6,1.8,1.1,0,0,0,0,0,0h0ZM254.4,98l-.5-.3c0,.3.3.4.2.7,0,.1-.1.1-.1.2,0,0,0,.3,0,.4,0,.3-.4,1.3-.7,1.4-.2,0-.4-.2-.6-.2.2.3.5.4.7.7.1.2,0,.4.3.6.3-1.1.7-2.2.8-3.4ZM251.8,99.3c0,0-.4-.5-.4-.5-.2,0,0,.2,0,.2.1.1.3.3.4.3Z"/>
          <path id="path16-0" d="M267,96.3c0,0,.3.5.3.6.1.2.3.5.4.7.2.4.9,1.8.9,2.2.1.8-.7,1-1.1.4-.3-.6-.7-1.5-.9-2.2-.1-.4-.3-.8-.4-1.2-.2,0-.3.2-.4.3s-.4,0-.4.2v2.3c0,.2,0,.8-.3.8-.2,0-.9,0-1.1,0-.3,0-.3-.5-.3-.7-.1-2.2-.1-4.6,0-6.8,0,0,0-.2,0-.3,0-.1-.1-.2-.1-.3,0-.5.8-.3,1-.4,0,0,0-.2.2-.2.2-.2,1.1,0,1.5-.1.2,0,.5-.1.7,0,0,0,0,.2.1.3.4.6.8,1.2,1.2,1.8.2.3.6.9.3,1.3-.2.2-.5.5-.8.7-.2.1-.4.3-.6.4h0ZM267.4,94.7l-1-2c-.3,0-.7,0-1-.2v3.5c0,0,2-1.2,2-1.2h0ZM264.4,92.7h-.1c0,0,.1,1.2.1,1.2v-1.2h0ZM264.5,97.9v1.9h.2c0-.6-.1-1.1-.1-1.7,0,0,0-.2,0-.2Z"/>
          <path id="path17-3" d="M273,96.1h0c.3.5.5.9.7,1.4s.9,1.8.9,2.2c0,.6-.5,1-.9.6-.3-.2-.8-1.7-.9-2.1-.2-.5-.4-1-.5-1.5-.2,0-.3.2-.4.3-.1,0-.4,0-.4.2v2.3c0,.2,0,.8-.3.9-.2,0-.9,0-1.1,0-.3,0-.3-.5-.3-.7-.1-2.2-.1-4.6,0-6.8,0,0,0-.2,0-.3,0-.2-.3-.3,0-.5.3-.2.7,0,.9-.2,0,0,0-.2.2-.2.2-.2,1.1,0,1.5-.1.2,0,.5-.1.7,0,0,0,0,.2.1.3.4.6.8,1.2,1.2,1.8.2.3.6.9.3,1.3-.2.2-.5.5-.8.7-.2.1-.4.3-.6.4ZM273.4,94.5l-1-2c-.3,0-.7,0-1-.2v3.5c0,0,2-1.2,2-1.2h0ZM270.3,92.5h-.1c0,0,.1,1.3.1,1.3v-1.3ZM270.5,99.6h.2c0-.6-.1-1.2-.1-1.8,0,0,0-.2,0-.2"/>
          <path id="path18-0" d="M247.4,93.3c.1.7,0,1.4.1,2v3.8c.1.2.1.4.1.5h.5c0-.1,0-.2,0-.4,0-1.4,0-2.8,0-4.2,0-.5,0-1.3,0-1.8.1-.7.9-.6.9,0,0,.1,0,.3,0,.4,0,1.8,0,3.9-.1,5.7-.1.9-.4,1.1-1.3,1-.3,0-.8,0-1-.4-.2-.4-.1-1.8-.1-2.3,0-1.2-.1-2.5,0-3.8,0-.2.1-.9.2-1,.2-.2,1.3-.2,1.5,0,.3.3-.5.4-.7.4h0Z"/>
          <path id="path28-9" class="st0" d="M270.6,99.6h-.2"/>
        </g>
        <g id="g9-3-0-2-04">
          <path id="path3-0-5-2" d="M66.8,33.3c-.2,0-.3,0-.4.2,0,.1-.2.3-.2.5,0,.2-.1.4-.2.6s-.1.4-.2.6c0,.2-.2.4-.3.5s-.3.2-.6.2-.4,0-.5-.1-.3-.2-.3-.3-.2-.3-.2-.5c0-.2,0-.4,0-.6,0-.4,0-.7.1-.9s.2-.5.3-.6l.5.3c0,.2-.2.4-.3.6,0,.2-.1.5-.1.7s0,.2,0,.3c0,.1,0,.2.1.3,0,0,.1.2.2.2,0,0,.2,0,.3,0s.2,0,.3-.2.1-.3.2-.5c0-.2.1-.4.1-.6s.1-.4.2-.6c0-.2.2-.3.3-.5.1-.1.3-.2.6-.2.4,0,.7.1.9.4s.3.7.3,1.3,0,.3,0,.5,0,.3-.1.5-.1.3-.2.4-.1.2-.2.3l-.5-.3s.1-.2.2-.2.1-.2.2-.3c0-.1,0-.3.1-.4s0-.3,0-.4,0-.3,0-.4c0-.1,0-.2-.1-.3,0,0-.1-.2-.2-.2,0,0-.2,0-.3,0h0Z"/>
          <path id="path4-5-8-9" d="M65.4,31.2h-.2c0,0-.2,0-.2,0s-.2,0-.2,0c0,0-.2,0-.2,0v.5s-.5,0-.5,0v-1.1s.6,0,.6,0h0c0,0-.2-.2-.3-.3,0,0-.2-.2-.2-.3,0-.1-.1-.2-.2-.4,0-.1,0-.3,0-.4,0-.2,0-.5,0-.6,0-.2.1-.3.3-.5s.3-.2.5-.3c.2,0,.5,0,.9,0h2.2s0,.6,0,.6h-2.1c-.4,0-.8,0-1,.2-.2.1-.3.4-.3.8s0,.3,0,.4c0,.1.1.3.2.3s.2.2.3.3c.1,0,.2.1.4.2h2.5s0,.6,0,.6h-2.6s0,0,0,0Z"/>
          <path id="path5-3-1-6-6" d="M64.3,26.4c-.1-.2-.2-.5-.3-.8,0-.3,0-.6,0-.8s0-.5.1-.7c0-.2.2-.3.3-.4.1,0,.3-.2.5-.2.2,0,.3,0,.5,0s.4,0,.6,0c.2,0,.4,0,.7,0,.3,0,.5,0,.8,0v-.5s.5,0,.5,0v1s-.6,0-.6,0h0s.1.1.2.2.1.1.2.3c0,0,.1.2.2.4,0,.2,0,.3,0,.5,0,.4-.1.7-.3.9s-.5.3-.8.3-.5,0-.7-.2c-.2-.1-.3-.3-.4-.5,0-.2-.1-.5-.2-.8s0-.7,0-1.1c-.2,0-.4,0-.6,0-.2,0-.3,0-.4.1,0,0-.2.2-.2.3,0,.1,0,.3,0,.4s0,.5,0,.7.1.4.2.6l-.5.2h0ZM67.5,25.3c0-.2,0-.3,0-.4,0-.1-.1-.2-.2-.3s-.2-.2-.2-.2c0,0-.2-.1-.2-.1h-.6c0,.3,0,.5,0,.7s0,.4,0,.6c0,.2.1.3.2.4.1,0,.2.1.4.1s.3,0,.4-.2c.1-.1.2-.3.2-.6h0Z"/>
          <path id="path6-8-1-2-1" d="M68,22h-.5s0-1.1,0-1.1h-2.9s0,1,0,1h-.5s0-1.5,0-1.5h.5c0-.1,0-.2,0-.2-.2-.2-.3-.4-.4-.6s-.2-.5-.2-.8,0-.3.1-.4.2-.2.3-.2c.1,0,.3,0,.5-.1.2,0,.4,0,.6,0v.6c-.3,0-.6,0-.7,0s-.2.2-.2.4,0,.3,0,.4c0,.1.1.3.2.3,0,0,.1.2.2.3s.1.1.2.2h2.3s0-1.5,0-1.5h.5s0,3.2,0,3.2h0Z"/>
          <path id="path7-6-0-8-04" d="M62.5,16.9v-1.3s4.2,0,4.2,0c.3,0,.5,0,.7-.2.1-.1.2-.3.2-.5s0-.3,0-.4c0-.1-.1-.3-.3-.4l.4-.3c0,0,.1.2.2.3,0,0,.1.2.1.3,0,.1,0,.2,0,.3,0,.1,0,.2,0,.3,0,.2,0,.4,0,.5,0,.2-.1.3-.2.4-.1.1-.3.2-.4.2-.2,0-.4,0-.7,0h-3.7s0,.7,0,.7h-.5s0,0,0,0Z"/>
        </g>
      </g>
    </g>
  </g>
</svg>