M48
; DRILL file KiCad 10.0.1 date 2026-08-19T17:31:39
; FORMAT={-:-/ absolute / metric / decimal}
; #@! TF.CreationDate,2026-08-19T17:31:39+02:00
; #@! TF.GenerationSoftware,Kicad,Pcbnew,10.0.1
; #@! TF.FileFunction,NonPlated,1,2,NPTH
FMAT,2
METRIC
; #@! TA.AperFunction,NonPlated,NPTH,ComponentDrill
T1C1.702
; #@! TA.AperFunction,NonPlated,NPTH,ComponentDrill
T2C3.000
; #@! TA.AperFunction,NonPlated,NPTH,ComponentDrill
T3C3.988
%
G90
G05
T2
X76.284Y-147.732
X76.316Y-128.8
X82.634Y-145.192
X82.666Y-126.26
X95.27Y-128.777
X95.334Y-147.801
X101.62Y-126.237
X101.684Y-145.261
X114.13Y-147.732
X114.173Y-128.841
X120.48Y-145.192
X120.523Y-126.301
X132.964Y-147.859
X133.026Y-128.83
X139.314Y-145.319
X139.376Y-126.29
T3
X80.094Y-150.272
X80.126Y-131.34
X99.08Y-131.317
X99.144Y-150.341
X117.94Y-150.272
X117.983Y-131.381
X136.774Y-150.399
X136.836Y-131.37
T1
G00X74.587Y-150.272
M15
G01X75.035Y-150.272
M16
G05
G00X74.618Y-131.34
M15
G01X75.067Y-131.34
M16
G05
G00X85.166Y-150.272
M15
G01X85.614Y-150.272
M16
G05
G00X85.197Y-131.34
M15
G01X85.646Y-131.34
M16
G05
G00X93.572Y-131.317
M15
G01X94.02Y-131.317
M16
G05
G00X93.637Y-150.341
M15
G01X94.085Y-150.341
M16
G05
G00X104.151Y-131.317
M15
G01X104.6Y-131.317
M16
G05
G00X104.216Y-150.341
M15
G01X104.664Y-150.341
M16
G05
G00X112.433Y-150.272
M15
G01X112.881Y-150.272
M16
G05
G00X112.476Y-131.381
M15
G01X112.924Y-131.381
M16
G05
G00X123.012Y-150.272
M15
G01X123.46Y-150.272
M16
G05
G00X123.055Y-131.381
M15
G01X123.503Y-131.381
M16
G05
G00X131.267Y-150.399
M15
G01X131.715Y-150.399
M16
G05
G00X131.329Y-131.37
M15
G01X131.777Y-131.37
M16
G05
G00X141.846Y-150.399
M15
G01X142.294Y-150.399
M16
G05
G00X141.908Y-131.37
M15
G01X142.356Y-131.37
M16
G05
M30
