M48
; DRILL file KiCad 10.0.1 date 2026-08-19T17:31:39
; FORMAT={-:-/ absolute / metric / decimal}
; #@! TF.CreationDate,2026-08-19T17:31:39+02:00
; #@! TF.GenerationSoftware,Kicad,Pcbnew,10.0.1
; #@! TF.FileFunction,Plated,1,2,PTH
FMAT,2
METRIC
; #@! TA.AperFunction,Plated,PTH,ViaDrill
T1C0.300
; #@! TA.AperFunction,Plated,PTH,ComponentDrill
T2C0.800
; #@! TA.AperFunction,Plated,PTH,ComponentDrill
T3C0.950
; #@! TA.AperFunction,Plated,PTH,ComponentDrill
T4C1.000
; #@! TA.AperFunction,Plated,PTH,ComponentDrill
T5C1.270
; #@! TA.AperFunction,Plated,PTH,ComponentDrill
T6C1.499
%
G90
G05
T1
X75.776Y-101.25
X75.776Y-107.854
X75.776Y-114.458
X83.65Y-93.63
X84.666Y-115.22
X84.768Y-108.413
X84.818Y-102.114
X92.794Y-102.063
X92.794Y-115.271
X92.946Y-108.514
X100.922Y-107.905
X100.922Y-115.169
X101.49Y-100.56
X112.657Y-113.391
X151.112Y-99.828
X169.096Y-112.172
X173.058Y-111.715
T2
X109.802Y-95.616
X109.802Y-98.156
X109.802Y-100.696
X109.802Y-103.236
X109.802Y-105.776
X109.802Y-108.316
X112.342Y-95.616
X112.342Y-98.156
X112.342Y-100.696
X112.342Y-103.236
X112.342Y-105.776
X112.342Y-108.316
X114.882Y-95.616
X114.882Y-98.156
X114.882Y-100.696
X114.882Y-103.236
X114.882Y-105.776
X114.882Y-108.316
X117.422Y-95.616
X117.422Y-98.156
X117.422Y-100.696
X117.422Y-103.236
X117.422Y-105.776
X117.422Y-108.316
X117.422Y-110.856
X117.422Y-113.396
X117.422Y-115.936
X117.422Y-118.476
X119.962Y-95.616
X119.962Y-98.156
X119.962Y-100.696
X119.962Y-103.236
X119.962Y-105.776
X119.962Y-108.316
X119.962Y-110.856
X119.962Y-113.396
X119.962Y-115.936
X119.962Y-118.476
X122.502Y-95.616
X122.502Y-98.156
X122.502Y-100.696
X122.502Y-103.236
X122.502Y-105.776
X122.502Y-108.316
X122.502Y-110.856
X122.502Y-113.396
X122.502Y-115.936
X122.502Y-118.476
X125.042Y-95.616
X125.042Y-98.156
X125.042Y-100.696
X125.042Y-103.236
X125.042Y-105.776
X125.042Y-108.316
X125.042Y-110.856
X125.042Y-113.396
X125.042Y-115.936
X125.042Y-118.476
X127.582Y-95.616
X127.582Y-98.156
X127.582Y-100.696
X127.582Y-103.236
X127.582Y-105.776
X127.582Y-108.316
X127.582Y-110.856
X127.582Y-113.396
X127.582Y-115.936
X127.582Y-118.476
X130.122Y-95.616
X130.122Y-98.156
X130.122Y-100.696
X130.122Y-103.236
X130.122Y-105.776
X130.122Y-108.316
X130.122Y-110.856
X130.122Y-113.396
X130.122Y-115.936
X130.122Y-118.476
X132.662Y-95.616
X132.662Y-98.156
X132.662Y-100.696
X132.662Y-103.236
X132.662Y-105.776
X132.662Y-108.316
X132.662Y-110.856
X132.662Y-113.396
X132.662Y-115.936
X132.662Y-118.476
X135.202Y-95.616
X135.202Y-98.156
X135.202Y-100.696
X135.202Y-103.236
X135.202Y-105.776
X135.202Y-108.316
X135.202Y-110.856
X135.202Y-113.396
X135.202Y-115.936
X135.202Y-118.476
X137.742Y-95.616
X137.742Y-98.156
X137.742Y-100.696
X137.742Y-103.236
X137.742Y-105.776
X137.742Y-108.316
X137.742Y-110.856
X137.742Y-113.396
X137.742Y-115.936
X137.742Y-118.476
X140.282Y-95.616
X140.282Y-98.156
X140.282Y-100.696
X140.282Y-103.236
X140.282Y-105.776
X140.282Y-108.316
X140.282Y-110.856
X140.282Y-113.396
X140.282Y-115.936
X140.282Y-118.476
X142.822Y-95.616
X142.822Y-98.156
X142.822Y-100.696
X142.822Y-103.236
X142.822Y-105.776
X142.822Y-108.316
X142.822Y-110.856
X142.822Y-113.396
X142.822Y-115.936
X142.822Y-118.476
X145.362Y-95.618
X145.362Y-98.158
X145.362Y-100.698
X145.362Y-103.238
X145.362Y-105.778
X145.362Y-108.318
X145.362Y-110.858
X145.362Y-113.398
X145.362Y-115.938
X145.372Y-118.486
X152.3Y-116.1
X152.3Y-118.64
X152.3Y-121.18
X152.3Y-123.72
X152.3Y-126.26
X152.3Y-128.8
X152.3Y-131.34
X154.84Y-116.1
X154.84Y-131.34
X157.38Y-116.1
X157.38Y-131.34
X159.92Y-116.1
X159.92Y-131.34
X162.46Y-116.1
X162.46Y-131.34
X165.0Y-116.1
X165.0Y-131.34
X167.54Y-116.1
X167.54Y-131.34
X170.08Y-116.1
X170.08Y-131.34
X172.62Y-116.1
X172.62Y-131.34
T3
X152.454Y-97.133
X154.954Y-97.133
X157.454Y-97.133
X159.954Y-97.133
X162.454Y-97.133
X164.954Y-97.133
X167.454Y-97.133
X169.954Y-97.133
T4
X77.602Y-123.835
X77.602Y-138.335
X80.102Y-123.835
X82.602Y-123.835
X82.602Y-138.335
X96.556Y-123.811
X96.556Y-138.311
X99.056Y-123.811
X101.556Y-123.811
X101.556Y-138.311
X115.459Y-123.876
X115.459Y-138.376
X117.959Y-123.876
X120.459Y-123.876
X120.459Y-138.376
X134.312Y-123.864
X134.312Y-138.364
X136.812Y-123.864
X139.312Y-123.864
X139.312Y-138.364
T5
X75.094Y-154.072
X75.126Y-135.14
X80.094Y-156.172
X80.126Y-137.24
X94.08Y-135.117
X94.144Y-154.141
X99.08Y-137.217
X99.144Y-156.241
X112.94Y-154.072
X112.983Y-135.181
X117.94Y-156.172
X117.983Y-137.281
X131.774Y-154.199
X131.836Y-135.17
X136.774Y-156.299
X136.836Y-137.27
T6
X77.554Y-155.352
X77.586Y-136.42
X83.904Y-152.812
X83.936Y-133.88
X96.54Y-136.397
X96.604Y-155.421
X102.89Y-133.857
X102.954Y-152.881
X115.4Y-155.352
X115.443Y-136.461
X121.75Y-152.812
X121.793Y-133.921
X134.234Y-155.479
X134.296Y-136.45
X140.584Y-152.939
X140.646Y-133.91
M30
