%TF.GenerationSoftware,KiCad,Pcbnew,10.0.1*%
%TF.CreationDate,2026-08-19T17:31:48+02:00*%
%TF.ProjectId,chaos_array,6368616f-735f-4617-9272-61792e6b6963,rev?*%
%TF.SameCoordinates,Original*%
%TF.FileFunction,Paste,Top*%
%TF.FilePolarity,Positive*%
%FSLAX46Y46*%
G04 Gerber Fmt 4.6, Leading zero omitted, Abs format (unit mm)*
G04 Created by KiCad (PCBNEW 10.0.1) date 2026-08-19 17:31:48*
%MOMM*%
%LPD*%
G01*
G04 APERTURE LIST*
G04 Aperture macros list*
%AMRoundRect*
0 Rectangle with rounded corners*
0 $1 Rounding radius*
0 $2 $3 $4 $5 $6 $7 $8 $9 X,Y pos of 4 corners*
0 Add a 4 corners polygon primitive as box body*
4,1,4,$2,$3,$4,$5,$6,$7,$8,$9,$2,$3,0*
0 Add four circle primitives for the rounded corners*
1,1,$1+$1,$2,$3*
1,1,$1+$1,$4,$5*
1,1,$1+$1,$6,$7*
1,1,$1+$1,$8,$9*
0 Add four rect primitives between the rounded corners*
20,1,$1+$1,$2,$3,$4,$5,0*
20,1,$1+$1,$4,$5,$6,$7,0*
20,1,$1+$1,$6,$7,$8,$9,0*
20,1,$1+$1,$8,$9,$2,$3,0*%
G04 Aperture macros list end*
%ADD10RoundRect,0.090000X0.660000X0.360000X-0.660000X0.360000X-0.660000X-0.360000X0.660000X-0.360000X0*%
%ADD11RoundRect,0.250000X0.400000X0.600000X-0.400000X0.600000X-0.400000X-0.600000X0.400000X-0.600000X0*%
%ADD12RoundRect,0.250000X0.550000X-1.500000X0.550000X1.500000X-0.550000X1.500000X-0.550000X-1.500000X0*%
G04 APERTURE END LIST*
D10*
%TO.C,D16*%
X79275000Y-105186000D03*
X79275000Y-101886000D03*
X74375000Y-101886000D03*
X74375000Y-105186000D03*
%TD*%
%TO.C,D12*%
X79275000Y-98582000D03*
X79275000Y-95282000D03*
X74375000Y-95282000D03*
X74375000Y-98582000D03*
%TD*%
D11*
%TO.C,D11*%
X153345000Y-145700000D03*
X149845000Y-145700000D03*
%TD*%
D10*
%TO.C,D24*%
X79275000Y-118394000D03*
X79275000Y-115094000D03*
X74375000Y-115094000D03*
X74375000Y-118394000D03*
%TD*%
%TO.C,D22*%
X95371000Y-111790000D03*
X95371000Y-108490000D03*
X90471000Y-108490000D03*
X90471000Y-111790000D03*
%TD*%
D12*
%TO.C,C1*%
X110345400Y-118014000D03*
X110345400Y-112614000D03*
%TD*%
D10*
%TO.C,D14*%
X95371000Y-98582000D03*
X95371000Y-95282000D03*
X90471000Y-95282000D03*
X90471000Y-98582000D03*
%TD*%
%TO.C,D23*%
X103409000Y-111664000D03*
X103409000Y-108364000D03*
X98509000Y-108364000D03*
X98509000Y-111664000D03*
%TD*%
%TO.C,D20*%
X79275000Y-111790000D03*
X79275000Y-108490000D03*
X74375000Y-108490000D03*
X74375000Y-111790000D03*
%TD*%
%TO.C,D17*%
X87243000Y-105186000D03*
X87243000Y-101886000D03*
X82343000Y-101886000D03*
X82343000Y-105186000D03*
%TD*%
%TO.C,D19*%
X103499000Y-105186000D03*
X103499000Y-101886000D03*
X98599000Y-101886000D03*
X98599000Y-105186000D03*
%TD*%
D11*
%TO.C,D5*%
X160330000Y-145700000D03*
X156830000Y-145700000D03*
%TD*%
D10*
%TO.C,D25*%
X87243000Y-118394000D03*
X87243000Y-115094000D03*
X82343000Y-115094000D03*
X82343000Y-118394000D03*
%TD*%
D11*
%TO.C,D7*%
X153345000Y-149510000D03*
X149845000Y-149510000D03*
%TD*%
D10*
%TO.C,D26*%
X95371000Y-118394000D03*
X95371000Y-115094000D03*
X90471000Y-115094000D03*
X90471000Y-118394000D03*
%TD*%
D11*
%TO.C,D10*%
X160330000Y-149510000D03*
X156830000Y-149510000D03*
%TD*%
D10*
%TO.C,D21*%
X87243000Y-111790000D03*
X87243000Y-108490000D03*
X82343000Y-108490000D03*
X82343000Y-111790000D03*
%TD*%
%TO.C,D27*%
X103499000Y-118394000D03*
X103499000Y-115094000D03*
X98599000Y-115094000D03*
X98599000Y-118394000D03*
%TD*%
%TO.C,D15*%
X103499000Y-98582000D03*
X103499000Y-95282000D03*
X98599000Y-95282000D03*
X98599000Y-98582000D03*
%TD*%
%TO.C,D13*%
X87333000Y-98582000D03*
X87333000Y-95282000D03*
X82433000Y-95282000D03*
X82433000Y-98582000D03*
%TD*%
D11*
%TO.C,D3*%
X153500000Y-157130000D03*
X150000000Y-157130000D03*
%TD*%
%TO.C,D2*%
X160330000Y-153320000D03*
X156830000Y-153320000D03*
%TD*%
%TO.C,D4*%
X153500000Y-153320000D03*
X150000000Y-153320000D03*
%TD*%
D10*
%TO.C,D18*%
X95371000Y-105186000D03*
X95371000Y-101886000D03*
X90471000Y-101886000D03*
X90471000Y-105186000D03*
%TD*%
D11*
%TO.C,D1*%
X160330000Y-157130000D03*
X156830000Y-157130000D03*
%TD*%
M02*
