%TF.GenerationSoftware,KiCad,Pcbnew,9.0.4-1.fc42app3*%
%TF.CreationDate,2025-10-31T17:54:04+01:00*%
%TF.ProjectId,ccc_macropad,6363635f-6d61-4637-926f-7061642e6b69,rev?*%
%TF.SameCoordinates,Original*%
%TF.FileFunction,Copper,L2,Bot*%
%TF.FilePolarity,Positive*%
%FSLAX46Y46*%
G04 Gerber Fmt 4.6, Leading zero omitted, Abs format (unit mm)*
G04 Created by KiCad (PCBNEW 9.0.4-1.fc42app3) date 2025-10-31 17:54:04*
%MOMM*%
%LPD*%
G01*
G04 APERTURE LIST*
%TA.AperFunction,ComponentPad*%
%ADD10R,1.800000X1.800000*%
%TD*%
%TA.AperFunction,ComponentPad*%
%ADD11C,1.800000*%
%TD*%
%TA.AperFunction,ComponentPad*%
%ADD12C,2.286000*%
%TD*%
%TA.AperFunction,ComponentPad*%
%ADD13C,2.032000*%
%TD*%
%TA.AperFunction,SMDPad,CuDef*%
%ADD14R,2.550000X2.500000*%
%TD*%
%TA.AperFunction,ComponentPad*%
%ADD15C,1.400000*%
%TD*%
%TA.AperFunction,ComponentPad*%
%ADD16C,2.000000*%
%TD*%
%TA.AperFunction,ComponentPad*%
%ADD17C,4.000000*%
%TD*%
%TA.AperFunction,ComponentPad*%
%ADD18R,1.600000X1.600000*%
%TD*%
%TA.AperFunction,ComponentPad*%
%ADD19O,1.600000X1.600000*%
%TD*%
%TA.AperFunction,ComponentPad*%
%ADD20C,1.700000*%
%TD*%
%TA.AperFunction,ViaPad*%
%ADD21C,0.600000*%
%TD*%
%TA.AperFunction,Conductor*%
%ADD22C,0.200000*%
%TD*%
%TA.AperFunction,Conductor*%
%ADD23C,0.127000*%
%TD*%
G04 APERTURE END LIST*
D10*
%TO.P,D8,1,K*%
%TO.N,GND*%
X146500000Y-40730000D03*
D11*
%TO.P,D8,2,A*%
%TO.N,Net-(D8-A)*%
X146500000Y-43270000D03*
%TD*%
D12*
%TO.P,SW1,1,1*%
%TO.N,Net-(U1-GP6)*%
X122030000Y-64320000D03*
D13*
X124490000Y-65600000D03*
D14*
X127050000Y-71940000D03*
%TO.P,SW1,2,2*%
%TO.N,Net-(D7-A)*%
X113200000Y-74480000D03*
D12*
X115680000Y-66860000D03*
D13*
X119490000Y-63500000D03*
%TD*%
D12*
%TO.P,SW5,1,1*%
%TO.N,Net-(U1-GP5)*%
X182040000Y-64920000D03*
D13*
X184500000Y-66200000D03*
D14*
X187060000Y-72540000D03*
%TO.P,SW5,2,2*%
%TO.N,Net-(D2-A)*%
X173210000Y-75080000D03*
D12*
X175690000Y-67460000D03*
D13*
X179500000Y-64100000D03*
%TD*%
D15*
%TO.P,R2,1*%
%TO.N,Net-(D8-A)*%
X179050000Y-45080000D03*
%TO.P,R2,2*%
%TO.N,Net-(U1-GP27)*%
X179050000Y-40000000D03*
%TD*%
%TO.P,R3,1*%
%TO.N,Net-(D9-A)*%
X183100000Y-45080000D03*
%TO.P,R3,2*%
%TO.N,Net-(U1-GP28)*%
X183100000Y-40000000D03*
%TD*%
D12*
%TO.P,SW4,1,1*%
%TO.N,Net-(U1-GP6)*%
X162036667Y-64720000D03*
D13*
X164496667Y-66000000D03*
D14*
X167056667Y-72340000D03*
%TO.P,SW4,2,2*%
%TO.N,Net-(D1-A)*%
X153206667Y-74880000D03*
D12*
X155686667Y-67260000D03*
D13*
X159496667Y-63900000D03*
%TD*%
D16*
%TO.P,RV1,1,1*%
%TO.N,GND*%
X114560000Y-51625000D03*
%TO.P,RV1,1'*%
%TO.N,N/C*%
X114560000Y-56625000D03*
%TO.P,RV1,2,2*%
%TO.N,Net-(U1-GP29)*%
X114560000Y-49125000D03*
%TO.P,RV1,2'*%
%TO.N,N/C*%
X114560000Y-54125000D03*
%TO.P,RV1,3,3*%
%TO.N,Net-(U1-3V3)*%
X185560000Y-51625000D03*
%TO.P,RV1,3'*%
%TO.N,N/C*%
X185560000Y-56625000D03*
D17*
%TO.P,RV1,MP*%
X124560000Y-52875000D03*
X173560000Y-52875000D03*
%TD*%
D18*
%TO.P,D2,1,K*%
%TO.N,Net-(D1-K)*%
X165500000Y-39920000D03*
D19*
%TO.P,D2,2,A*%
%TO.N,Net-(D2-A)*%
X165500000Y-45000000D03*
%TD*%
D20*
%TO.P,U1,1,5V*%
%TO.N,unconnected-(U1-5V-Pad1)_1*%
X192260000Y-40380000D03*
%TO.P,U1,2,GND*%
%TO.N,GND*%
X192260000Y-42920000D03*
%TO.P,U1,3,3V3*%
%TO.N,Net-(U1-3V3)*%
X192260000Y-45460000D03*
%TO.P,U1,4,GP29*%
%TO.N,Net-(U1-GP29)*%
X192260000Y-48000000D03*
%TO.P,U1,5,GP28*%
%TO.N,Net-(U1-GP28)*%
X192260000Y-50540000D03*
%TO.P,U1,6,GP27*%
%TO.N,Net-(U1-GP27)*%
X192260000Y-53080000D03*
%TO.P,U1,7,GP26*%
%TO.N,Net-(U1-GP26)*%
X192260000Y-55620000D03*
%TO.P,U1,8,GP15*%
%TO.N,unconnected-(U1-GP15-Pad8)_1*%
X192260000Y-58160000D03*
%TO.P,U1,9,GP14*%
%TO.N,unconnected-(U1-GP14-Pad9)_1*%
X192260000Y-60700000D03*
%TO.P,U1,10,GP0*%
%TO.N,Net-(SW3-B)*%
X207500000Y-40380000D03*
%TO.P,U1,11,GP1*%
%TO.N,unconnected-(U1-GP1-Pad11)*%
X207500000Y-42920000D03*
%TO.P,U1,12,GP2*%
%TO.N,unconnected-(U1-GP2-Pad12)_1*%
X207500000Y-45460000D03*
%TO.P,U1,13,GP3*%
%TO.N,unconnected-(U1-GP3-Pad13)*%
X207500000Y-48000000D03*
%TO.P,U1,14,GP4*%
%TO.N,unconnected-(U1-GP4-Pad14)*%
X207500000Y-50540000D03*
%TO.P,U1,15,GP5*%
%TO.N,Net-(U1-GP5)*%
X207500000Y-53080000D03*
%TO.P,U1,16,GP6*%
%TO.N,Net-(U1-GP6)*%
X207500000Y-55620000D03*
%TO.P,U1,17,GP7*%
%TO.N,Net-(D1-K)*%
X207500000Y-58160000D03*
%TO.P,U1,18,GP8*%
%TO.N,Net-(D3-K)*%
X207500000Y-60700000D03*
%TO.P,U1,19,GP13*%
%TO.N,unconnected-(U1-GP13-Pad19)_1*%
X194800000Y-60700000D03*
%TO.P,U1,20,GP12*%
%TO.N,unconnected-(U1-GP12-Pad20)*%
X197340000Y-60700000D03*
%TO.P,U1,21,GP11*%
%TO.N,unconnected-(U1-GP11-Pad21)*%
X199880000Y-60700000D03*
%TO.P,U1,22,GP10*%
%TO.N,unconnected-(U1-GP10-Pad22)*%
X202420000Y-60700000D03*
%TO.P,U1,23,GP9*%
%TO.N,unconnected-(U1-GP9-Pad23)_1*%
X204960000Y-60700000D03*
%TD*%
D10*
%TO.P,D9,1,K*%
%TO.N,GND*%
X139365000Y-40730000D03*
D11*
%TO.P,D9,2,A*%
%TO.N,Net-(D9-A)*%
X139365000Y-43270000D03*
%TD*%
D15*
%TO.P,R1,1*%
%TO.N,Net-(D6-A)*%
X175000000Y-45080000D03*
%TO.P,R1,2*%
%TO.N,Net-(U1-GP26)*%
X175000000Y-40000000D03*
%TD*%
%TO.P,R4,1*%
%TO.N,Net-(SW3-C)*%
X171000000Y-45040000D03*
%TO.P,R4,2*%
%TO.N,Net-(U1-3V3)*%
X171000000Y-39960000D03*
%TD*%
D10*
%TO.P,D6,1,K*%
%TO.N,GND*%
X132230000Y-40730000D03*
D11*
%TO.P,D6,2,A*%
%TO.N,Net-(D6-A)*%
X132230000Y-43270000D03*
%TD*%
D18*
%TO.P,D1,1,K*%
%TO.N,Net-(D1-K)*%
X161500000Y-39920000D03*
D19*
%TO.P,D1,2,A*%
%TO.N,Net-(D1-A)*%
X161500000Y-45000000D03*
%TD*%
D12*
%TO.P,SW2,1,1*%
%TO.N,Net-(U1-GP5)*%
X142033333Y-64520000D03*
D13*
X144493333Y-65800000D03*
D14*
X147053333Y-72140000D03*
%TO.P,SW2,2,2*%
%TO.N,Net-(D3-A)*%
X133203333Y-74680000D03*
D12*
X135683333Y-67060000D03*
D13*
X139493333Y-63700000D03*
%TD*%
D18*
%TO.P,D3,1,K*%
%TO.N,Net-(D3-K)*%
X157500000Y-39920000D03*
D19*
%TO.P,D3,2,A*%
%TO.N,Net-(D3-A)*%
X157500000Y-45000000D03*
%TD*%
D18*
%TO.P,D7,1,K*%
%TO.N,Net-(D3-K)*%
X153500000Y-39920000D03*
D19*
%TO.P,D7,2,A*%
%TO.N,Net-(D7-A)*%
X153500000Y-45000000D03*
%TD*%
D21*
%TO.N,GND*%
X210750000Y-49250000D03*
X193000000Y-63750000D03*
X188000000Y-39500000D03*
X201400000Y-72000000D03*
X154900000Y-52400000D03*
X181000000Y-46500000D03*
%TO.N,Net-(SW3-B)*%
X129500000Y-51000000D03*
%TD*%
D22*
%TO.N,Net-(D1-A)*%
X159496667Y-47003333D02*
X161500000Y-45000000D01*
X152000000Y-71000000D02*
X152000000Y-69000000D01*
X153206667Y-74880000D02*
X153206667Y-72206667D01*
X159496667Y-63900000D02*
X159496667Y-47003333D01*
X155686667Y-65313333D02*
X157100000Y-63900000D01*
X157100000Y-63900000D02*
X159496667Y-63900000D01*
X152000000Y-69000000D02*
X153740000Y-67260000D01*
X153206667Y-72206667D02*
X152000000Y-71000000D01*
X155876767Y-67450100D02*
X155686667Y-67260000D01*
X155686667Y-67260000D02*
X155686667Y-65313333D01*
X153740000Y-67260000D02*
X155686667Y-67260000D01*
%TO.N,Net-(D1-K)*%
X165500000Y-41500000D02*
X171000000Y-47000000D01*
X191000000Y-64500000D02*
X205000000Y-64500000D01*
X171000000Y-47000000D02*
X173500000Y-47000000D01*
X205000000Y-64500000D02*
X206250000Y-63250000D01*
X161500000Y-39920000D02*
X165500000Y-39920000D01*
X165500000Y-39920000D02*
X165500000Y-41500000D01*
X206250000Y-63250000D02*
X206250000Y-59410000D01*
X173500000Y-47000000D02*
X191000000Y-64500000D01*
X206250000Y-59410000D02*
X207500000Y-58160000D01*
%TO.N,Net-(D2-A)*%
X175690000Y-67460000D02*
X174325282Y-67460000D01*
X165500000Y-50100000D02*
X165500000Y-45000000D01*
X176900000Y-64100000D02*
X179500000Y-64100000D01*
X178550000Y-60550000D02*
X179500000Y-61500000D01*
X175690000Y-67460000D02*
X175690000Y-65310000D01*
X174325282Y-67460000D02*
X172428100Y-69357182D01*
X172428100Y-71428100D02*
X173210000Y-72210000D01*
X173210000Y-72210000D02*
X173210000Y-75080000D01*
X179500000Y-61500000D02*
X179500000Y-64100000D01*
X172428100Y-69357182D02*
X172428100Y-71428100D01*
X175950000Y-60550000D02*
X178550000Y-60550000D01*
X175880100Y-67650100D02*
X175690000Y-67460000D01*
X175690000Y-65310000D02*
X176900000Y-64100000D01*
X175950000Y-60550000D02*
X165500000Y-50100000D01*
%TO.N,Net-(D3-K)*%
X158920000Y-39920000D02*
X162000000Y-43000000D01*
X206500000Y-65000000D02*
X207500000Y-64000000D01*
X171000000Y-48000000D02*
X173500000Y-48000000D01*
X162000000Y-43000000D02*
X166000000Y-43000000D01*
X166000000Y-43000000D02*
X171000000Y-48000000D01*
X173500000Y-48000000D02*
X190500000Y-65000000D01*
X157500000Y-39920000D02*
X158920000Y-39920000D01*
X207500000Y-64000000D02*
X207500000Y-60700000D01*
X153500000Y-39920000D02*
X157500000Y-39920000D01*
X190500000Y-65000000D02*
X206500000Y-65000000D01*
%TO.N,Net-(D3-A)*%
X141153333Y-59346667D02*
X143846667Y-59346667D01*
X143846667Y-59346667D02*
X157500000Y-45693333D01*
X131723973Y-70723973D02*
X133203333Y-72203333D01*
X131723973Y-68776027D02*
X131723973Y-70723973D01*
X133440000Y-67060000D02*
X131723973Y-68776027D01*
X135683333Y-67060000D02*
X133440000Y-67060000D01*
X133203333Y-72203333D02*
X133203333Y-74680000D01*
X135873433Y-67250100D02*
X135683333Y-67060000D01*
X139493333Y-61006667D02*
X141153333Y-59346667D01*
X157500000Y-45693333D02*
X157500000Y-45000000D01*
X135683333Y-67060000D02*
X135683333Y-64816667D01*
X136800000Y-63700000D02*
X139493333Y-63700000D01*
X135683333Y-64816667D02*
X136800000Y-63700000D01*
X139493333Y-63700000D02*
X139493333Y-61006667D01*
%TO.N,Net-(D7-A)*%
X112000000Y-68000000D02*
X112000000Y-70500000D01*
X115680000Y-64820000D02*
X117000000Y-63500000D01*
X113140000Y-66860000D02*
X112000000Y-68000000D01*
X135490000Y-47500000D02*
X151000000Y-47500000D01*
X123745000Y-59245000D02*
X135490000Y-47500000D01*
X119490000Y-63500000D02*
X119490000Y-60510000D01*
X117000000Y-63500000D02*
X119490000Y-63500000D01*
X115680000Y-66860000D02*
X115680000Y-64820000D01*
X120755000Y-59245000D02*
X123745000Y-59245000D01*
X115870100Y-67050100D02*
X115680000Y-66860000D01*
X115680000Y-66860000D02*
X113140000Y-66860000D01*
X119490000Y-60510000D02*
X120755000Y-59245000D01*
X113200000Y-71700000D02*
X113200000Y-74480000D01*
X112000000Y-70500000D02*
X113200000Y-71700000D01*
X151000000Y-47500000D02*
X153500000Y-45000000D01*
D23*
%TO.N,GND*%
X188000000Y-39750000D02*
X188000000Y-39500000D01*
X181000000Y-46250000D02*
X181000000Y-46500000D01*
D22*
%TO.N,Net-(SW3-B)*%
X126000000Y-47500000D02*
X124000000Y-47500000D01*
X129500000Y-51000000D02*
X126000000Y-47500000D01*
X119000000Y-42500000D02*
X119000000Y-40500000D01*
X124000000Y-47500000D02*
X119000000Y-42500000D01*
%TO.N,Net-(U1-GP26)*%
X185500000Y-47000000D02*
X185500000Y-43500000D01*
X175000000Y-41500000D02*
X175000000Y-40000000D01*
X185500000Y-43500000D02*
X184500000Y-42500000D01*
X176000000Y-42500000D02*
X175000000Y-41500000D01*
X184500000Y-42500000D02*
X176000000Y-42500000D01*
X185500000Y-48860000D02*
X185500000Y-47000000D01*
X192260000Y-55620000D02*
X185500000Y-48860000D01*
%TO.N,Net-(U1-GP27)*%
X192260000Y-53080000D02*
X186500000Y-47320000D01*
X180550000Y-41500000D02*
X179050000Y-40000000D01*
X186500000Y-42500000D02*
X185500000Y-41500000D01*
X185500000Y-41500000D02*
X180550000Y-41500000D01*
X186500000Y-47320000D02*
X186500000Y-42500000D01*
%TO.N,Net-(U1-GP28)*%
X191040000Y-50540000D02*
X192260000Y-50540000D01*
X187500000Y-47000000D02*
X191040000Y-50540000D01*
X187500000Y-41500000D02*
X187500000Y-47000000D01*
X186000000Y-40000000D02*
X187500000Y-41500000D01*
X183100000Y-40000000D02*
X186000000Y-40000000D01*
%TO.N,Net-(U1-3V3)*%
X179125000Y-51625000D02*
X184560000Y-51625000D01*
X171000000Y-39960000D02*
X171000000Y-41500000D01*
X173000000Y-43500000D02*
X173000000Y-45500000D01*
X173000000Y-45500000D02*
X179125000Y-51625000D01*
X171000000Y-41500000D02*
X173000000Y-43500000D01*
%TO.N,Net-(U1-GP6)*%
X127050000Y-66550000D02*
X127050000Y-71940000D01*
X124490000Y-65600000D02*
X123210000Y-64320000D01*
X163216667Y-64720000D02*
X162036667Y-64720000D01*
X210500000Y-58620000D02*
X207500000Y-55620000D01*
X166000000Y-66000000D02*
X167056667Y-67056667D01*
X132000000Y-80000000D02*
X171000000Y-80000000D01*
X167056667Y-72340000D02*
X167056667Y-76056667D01*
X167056667Y-67056667D02*
X167056667Y-72340000D01*
X126100000Y-65600000D02*
X127050000Y-66550000D01*
X164496667Y-66000000D02*
X166000000Y-66000000D01*
X167056667Y-76056667D02*
X171000000Y-80000000D01*
X124490000Y-65600000D02*
X126100000Y-65600000D01*
X123210000Y-64320000D02*
X122030000Y-64320000D01*
X210500000Y-72500000D02*
X210500000Y-58620000D01*
X127050000Y-71940000D02*
X127050000Y-75050000D01*
X171000000Y-80000000D02*
X203000000Y-80000000D01*
X164496667Y-66000000D02*
X163216667Y-64720000D01*
X127050000Y-75050000D02*
X132000000Y-80000000D01*
X203000000Y-80000000D02*
X210500000Y-72500000D01*
%TO.N,Net-(U1-GP5)*%
X184500000Y-66200000D02*
X186200000Y-66200000D01*
X187000000Y-67000000D02*
X187060000Y-67060000D01*
X143313333Y-65800000D02*
X144493333Y-65800000D01*
X146300000Y-65800000D02*
X147053333Y-66553333D01*
X183220000Y-64920000D02*
X182040000Y-64920000D01*
X184500000Y-66200000D02*
X183220000Y-64920000D01*
X142033333Y-64520000D02*
X143313333Y-65800000D01*
X147053333Y-66553333D02*
X147053333Y-72140000D01*
X144493333Y-65800000D02*
X146300000Y-65800000D01*
X187060000Y-67060000D02*
X187060000Y-72540000D01*
X186200000Y-66200000D02*
X187000000Y-67000000D01*
%TD*%
%TA.AperFunction,Conductor*%
%TO.N,GND*%
G36*
X152386862Y-38520185D02*
G01*
X152432617Y-38572989D01*
X152442561Y-38642147D01*
X152413536Y-38705703D01*
X152394137Y-38723763D01*
X152342454Y-38762454D01*
X152342453Y-38762455D01*
X152342452Y-38762456D01*
X152256206Y-38877664D01*
X152256202Y-38877671D01*
X152205908Y-39012517D01*
X152199501Y-39072116D01*
X152199501Y-39072123D01*
X152199500Y-39072135D01*
X152199500Y-40767870D01*
X152199501Y-40767876D01*
X152205908Y-40827483D01*
X152256202Y-40962328D01*
X152256206Y-40962335D01*
X152342452Y-41077544D01*
X152342455Y-41077547D01*
X152457664Y-41163793D01*
X152457671Y-41163797D01*
X152592517Y-41214091D01*
X152592516Y-41214091D01*
X152599444Y-41214835D01*
X152652127Y-41220500D01*
X154347872Y-41220499D01*
X154407483Y-41214091D01*
X154542331Y-41163796D01*
X154657546Y-41077546D01*
X154743796Y-40962331D01*
X154794091Y-40827483D01*
X154800500Y-40767873D01*
X154800500Y-40644500D01*
X154820185Y-40577461D01*
X154872989Y-40531706D01*
X154924500Y-40520500D01*
X156075501Y-40520500D01*
X156142540Y-40540185D01*
X156188295Y-40592989D01*
X156199501Y-40644500D01*
X156199501Y-40767876D01*
X156205908Y-40827483D01*
X156256202Y-40962328D01*
X156256206Y-40962335D01*
X156342452Y-41077544D01*
X156342455Y-41077547D01*
X156457664Y-41163793D01*
X156457671Y-41163797D01*
X156592517Y-41214091D01*
X156592516Y-41214091D01*
X156599444Y-41214835D01*
X156652127Y-41220500D01*
X158347872Y-41220499D01*
X158407483Y-41214091D01*
X158542331Y-41163796D01*
X158657546Y-41077546D01*
X158743796Y-40962331D01*
X158744499Y-40960446D01*
X158776690Y-40874138D01*
X158818561Y-40818204D01*
X158884025Y-40793786D01*
X158952298Y-40808637D01*
X158980553Y-40829789D01*
X161637031Y-43486267D01*
X161635012Y-43488285D01*
X161668067Y-43533569D01*
X161672212Y-43603316D01*
X161637991Y-43664231D01*
X161576269Y-43696975D01*
X161551372Y-43699500D01*
X161397648Y-43699500D01*
X161373329Y-43703351D01*
X161195465Y-43731522D01*
X161000776Y-43794781D01*
X160818386Y-43887715D01*
X160652786Y-44008028D01*
X160508028Y-44152786D01*
X160387715Y-44318386D01*
X160294781Y-44500776D01*
X160231522Y-44695465D01*
X160201969Y-44882058D01*
X160199500Y-44897648D01*
X160199500Y-45102352D01*
X160210924Y-45174481D01*
X160231523Y-45304535D01*
X160236172Y-45318845D01*
X160238165Y-45388687D01*
X160205921Y-45444841D01*
X159127953Y-46522811D01*
X159016148Y-46634615D01*
X159016147Y-46634617D01*
X158971726Y-46711557D01*
X158937090Y-46771548D01*
X158896166Y-46924276D01*
X158896166Y-46924278D01*
X158896166Y-47092379D01*
X158896167Y-47092392D01*
X158896167Y-62427974D01*
X158876482Y-62495013D01*
X158828463Y-62538458D01*
X158701849Y-62602971D01*
X158600647Y-62676500D01*
X158508734Y-62743279D01*
X158508732Y-62743281D01*
X158508731Y-62743281D01*
X158339948Y-62912064D01*
X158339948Y-62912065D01*
X158339946Y-62912067D01*
X158304923Y-62960272D01*
X158199640Y-63105180D01*
X158135127Y-63231795D01*
X158087152Y-63282591D01*
X158024642Y-63299500D01*
X157186670Y-63299500D01*
X157186654Y-63299499D01*
X157179058Y-63299499D01*
X157020943Y-63299499D01*
X156952402Y-63317865D01*
X156868214Y-63340423D01*
X156868209Y-63340426D01*
X156731290Y-63419475D01*
X156731282Y-63419481D01*
X155206148Y-64944615D01*
X155206142Y-64944623D01*
X155171181Y-65005179D01*
X155171181Y-65005181D01*
X155127090Y-65081547D01*
X155120845Y-65104854D01*
X155086166Y-65234276D01*
X155086166Y-65234278D01*
X155086166Y-65402379D01*
X155086167Y-65402392D01*
X155086167Y-65645439D01*
X155066482Y-65712478D01*
X155018462Y-65755924D01*
X154825284Y-65854353D01*
X154615996Y-66006410D01*
X154433077Y-66189329D01*
X154281020Y-66398617D01*
X154182591Y-66591795D01*
X154172141Y-66602859D01*
X154165819Y-66616703D01*
X154148638Y-66627744D01*
X154134616Y-66642591D01*
X154118936Y-66646832D01*
X154107041Y-66654477D01*
X154072106Y-66659500D01*
X153826670Y-66659500D01*
X153826654Y-66659499D01*
X153819058Y-66659499D01*
X153660943Y-66659499D01*
X153602549Y-66675146D01*
X153508214Y-66700423D01*
X153508209Y-66700426D01*
X153371290Y-66779475D01*
X153371282Y-66779481D01*
X151519481Y-68631282D01*
X151519475Y-68631290D01*
X151474149Y-68709799D01*
X151474149Y-68709800D01*
X151440423Y-68768215D01*
X151399499Y-68920943D01*
X151399499Y-68920945D01*
X151399499Y-69089046D01*
X151399500Y-69089059D01*
X151399500Y-70913330D01*
X151399499Y-70913348D01*
X151399499Y-71079054D01*
X151399498Y-71079054D01*
X151405797Y-71102561D01*
X151436108Y-71215683D01*
X151440424Y-71231788D01*
X151446392Y-71242124D01*
X151446394Y-71242127D01*
X151519477Y-71368712D01*
X151519481Y-71368717D01*
X151638349Y-71487585D01*
X151638355Y-71487590D01*
X152569848Y-72419083D01*
X152603333Y-72480406D01*
X152606167Y-72506764D01*
X152606167Y-73005500D01*
X152586482Y-73072539D01*
X152533678Y-73118294D01*
X152482167Y-73129500D01*
X151883796Y-73129500D01*
X151883790Y-73129501D01*
X151824183Y-73135908D01*
X151689338Y-73186202D01*
X151689331Y-73186206D01*
X151574122Y-73272452D01*
X151574119Y-73272455D01*
X151487873Y-73387664D01*
X151487869Y-73387671D01*
X151437575Y-73522517D01*
X151431168Y-73582116D01*
X151431168Y-73582123D01*
X151431167Y-73582135D01*
X151431167Y-76177870D01*
X151431168Y-76177876D01*
X151437575Y-76237483D01*
X151487869Y-76372328D01*
X151487873Y-76372335D01*
X151574119Y-76487544D01*
X151574122Y-76487547D01*
X151689331Y-76573793D01*
X151689338Y-76573797D01*
X151824184Y-76624091D01*
X151824183Y-76624091D01*
X151831111Y-76624835D01*
X151883794Y-76630500D01*
X154529539Y-76630499D01*
X154589150Y-76624091D01*
X154723998Y-76573796D01*
X154839213Y-76487546D01*
X154925463Y-76372331D01*
X154975758Y-76237483D01*
X154982167Y-76177873D01*
X154982166Y-75185148D01*
X155001850Y-75118112D01*
X155054654Y-75072357D01*
X155123813Y-75062413D01*
X155187369Y-75091438D01*
X155225143Y-75150216D01*
X155229105Y-75168964D01*
X155236119Y-75222238D01*
X155288765Y-75418716D01*
X155295509Y-75443887D01*
X155383317Y-75655876D01*
X155383324Y-75655890D01*
X155498059Y-75854617D01*
X155637748Y-76036661D01*
X155637756Y-76036670D01*
X155799997Y-76198911D01*
X155800005Y-76198918D01*
X155800006Y-76198919D01*
X155802129Y-76200548D01*
X155982049Y-76338607D01*
X155982052Y-76338608D01*
X155982055Y-76338611D01*
X156180779Y-76453344D01*
X156180784Y-76453346D01*
X156180790Y-76453349D01*
X156263345Y-76487544D01*
X156392780Y-76541158D01*
X156614429Y-76600548D01*
X156830979Y-76629057D01*
X156841917Y-76630498D01*
X156841933Y-76630500D01*
X156841940Y-76630500D01*
X157071394Y-76630500D01*
X157071401Y-76630500D01*
X157298905Y-76600548D01*
X157520554Y-76541158D01*
X157732555Y-76453344D01*
X157931279Y-76338611D01*
X158113328Y-76198919D01*
X158113332Y-76198914D01*
X158113337Y-76198911D01*
X158275578Y-76036670D01*
X158275581Y-76036665D01*
X158275586Y-76036661D01*
X158415278Y-75854612D01*
X158530011Y-75655888D01*
X158617825Y-75443887D01*
X158677215Y-75222238D01*
X158707167Y-74994734D01*
X158707167Y-74765266D01*
X158677215Y-74537762D01*
X158617825Y-74316113D01*
X158554398Y-74162987D01*
X158530016Y-74104123D01*
X158530013Y-74104117D01*
X158530011Y-74104112D01*
X158415278Y-73905388D01*
X158415275Y-73905385D01*
X158415274Y-73905382D01*
X158304547Y-73761081D01*
X158275586Y-73723339D01*
X158275585Y-73723338D01*
X158275578Y-73723330D01*
X158113337Y-73561089D01*
X158113328Y-73561081D01*
X157931284Y-73421392D01*
X157872877Y-73387671D01*
X157761449Y-73323338D01*
X157732557Y-73306657D01*
X157732543Y-73306650D01*
X157520554Y-73218842D01*
X157470760Y-73205500D01*
X157298905Y-73159452D01*
X157260882Y-73154446D01*
X157071408Y-73129500D01*
X157071401Y-73129500D01*
X156841933Y-73129500D01*
X156841925Y-73129500D01*
X156625382Y-73158009D01*
X156614429Y-73159452D01*
X156608320Y-73161089D01*
X156392779Y-73218842D01*
X156180790Y-73306650D01*
X156180776Y-73306657D01*
X155982049Y-73421392D01*
X155800005Y-73561081D01*
X155637748Y-73723338D01*
X155498059Y-73905382D01*
X155383324Y-74104109D01*
X155383317Y-74104123D01*
X155295509Y-74316112D01*
X155282337Y-74365272D01*
X155247783Y-74494233D01*
X155236120Y-74537759D01*
X155236118Y-74537769D01*
X155229105Y-74591036D01*
X155200838Y-74654932D01*
X155142513Y-74693402D01*
X155072648Y-74694233D01*
X155013425Y-74657160D01*
X154983647Y-74593954D01*
X154982166Y-74574849D01*
X154982166Y-73582129D01*
X154982165Y-73582123D01*
X154982164Y-73582116D01*
X154975758Y-73522517D01*
X154972811Y-73514617D01*
X154925464Y-73387671D01*
X154925460Y-73387664D01*
X154839214Y-73272455D01*
X154839211Y-73272452D01*
X154724002Y-73186206D01*
X154723995Y-73186202D01*
X154589149Y-73135908D01*
X154589150Y-73135908D01*
X154529550Y-73129501D01*
X154529548Y-73129500D01*
X154529540Y-73129500D01*
X154529532Y-73129500D01*
X153931167Y-73129500D01*
X153864128Y-73109815D01*
X153818373Y-73057011D01*
X153807167Y-73005500D01*
X153807167Y-72295726D01*
X153807168Y-72295713D01*
X153807168Y-72127612D01*
X153807168Y-72127610D01*
X153766244Y-71974882D01*
X153722721Y-71899499D01*
X153687187Y-71837951D01*
X153575383Y-71726147D01*
X153575382Y-71726146D01*
X153571052Y-71721816D01*
X153571041Y-71721806D01*
X152636819Y-70787584D01*
X152603334Y-70726261D01*
X152600500Y-70699903D01*
X152600500Y-69300097D01*
X152620185Y-69233058D01*
X152636819Y-69212416D01*
X153952417Y-67896819D01*
X153979344Y-67882115D01*
X154005163Y-67865523D01*
X154011363Y-67864631D01*
X154013740Y-67863334D01*
X154040098Y-67860500D01*
X154072106Y-67860500D01*
X154139145Y-67880185D01*
X154182591Y-67928205D01*
X154183427Y-67929845D01*
X154281020Y-68121382D01*
X154433075Y-68330668D01*
X154433077Y-68330670D01*
X154589326Y-68486919D01*
X154622811Y-68548242D01*
X154617827Y-68617934D01*
X154575955Y-68673867D01*
X154510491Y-68698284D01*
X154501645Y-68698600D01*
X153889980Y-68698600D01*
X153718753Y-68725720D01*
X153553878Y-68779290D01*
X153553875Y-68779291D01*
X153399406Y-68857998D01*
X153373718Y-68876662D01*
X153259153Y-68959899D01*
X153259151Y-68959901D01*
X153259150Y-68959901D01*
X153136568Y-69082483D01*
X153136568Y-69082484D01*
X153136566Y-69082486D01*
X153105391Y-69125395D01*
X153034665Y-69222739D01*
X152955958Y-69377208D01*
X152955957Y-69377211D01*
X152902387Y-69542086D01*
X152875267Y-69713312D01*
X152875267Y-69886687D01*
X152902387Y-70057913D01*
X152955957Y-70222788D01*
X152955958Y-70222791D01*
X153016700Y-70342002D01*
X153034665Y-70377260D01*
X153136566Y-70517514D01*
X153259153Y-70640101D01*
X153399407Y-70742002D01*
X153447793Y-70766656D01*
X153553875Y-70820708D01*
X153553878Y-70820709D01*
X153619813Y-70842132D01*
X153718755Y-70874280D01*
X153798058Y-70886840D01*
X153889980Y-70901400D01*
X153889985Y-70901400D01*
X154511554Y-70901400D01*
X154594562Y-70888252D01*
X154682779Y-70874280D01*
X154847658Y-70820708D01*
X155002127Y-70742002D01*
X155142381Y-70640101D01*
X155264968Y-70517514D01*
X155366869Y-70377260D01*
X155445575Y-70222791D01*
X155499147Y-70057912D01*
X155516698Y-69947099D01*
X155526267Y-69886687D01*
X155526267Y-69713312D01*
X155519127Y-69668233D01*
X155516698Y-69652900D01*
X157252267Y-69652900D01*
X157252267Y-69947099D01*
X157252268Y-69947116D01*
X157288121Y-70219453D01*
X157290669Y-70238800D01*
X157361117Y-70501716D01*
X157366819Y-70522994D01*
X157479401Y-70794794D01*
X157479409Y-70794810D01*
X157626507Y-71049589D01*
X157626518Y-71049605D01*
X157805615Y-71283009D01*
X157805621Y-71283016D01*
X158013650Y-71491045D01*
X158013657Y-71491051D01*
X158110527Y-71565382D01*
X158247070Y-71670155D01*
X158247077Y-71670159D01*
X158501856Y-71817257D01*
X158501872Y-71817265D01*
X158773672Y-71929847D01*
X158773674Y-71929847D01*
X158773680Y-71929850D01*
X159057867Y-72005998D01*
X159349561Y-72044400D01*
X159349568Y-72044400D01*
X159643766Y-72044400D01*
X159643773Y-72044400D01*
X159935467Y-72005998D01*
X160219654Y-71929850D01*
X160363772Y-71870155D01*
X160491461Y-71817265D01*
X160491464Y-71817263D01*
X160491470Y-71817261D01*
X160746264Y-71670155D01*
X160979678Y-71491050D01*
X161187717Y-71283011D01*
X161366822Y-71049597D01*
X161513928Y-70794803D01*
X161519018Y-70782516D01*
X161626514Y-70522994D01*
X161626513Y-70522994D01*
X161626517Y-70522987D01*
X161702665Y-70238800D01*
X161741067Y-69947106D01*
X161741067Y-69652894D01*
X161702665Y-69361200D01*
X161626517Y-69077013D01*
X161620726Y-69063032D01*
X161513932Y-68805205D01*
X161513924Y-68805189D01*
X161366826Y-68550410D01*
X161366822Y-68550403D01*
X161255408Y-68405205D01*
X161187718Y-68316990D01*
X161187712Y-68316983D01*
X160979683Y-68108954D01*
X160979676Y-68108948D01*
X160746272Y-67929851D01*
X160746270Y-67929849D01*
X160746264Y-67929845D01*
X160746259Y-67929842D01*
X160746256Y-67929840D01*
X160491477Y-67782742D01*
X160491461Y-67782734D01*
X160219661Y-67670152D01*
X160183639Y-67660500D01*
X159935467Y-67594002D01*
X159935466Y-67594001D01*
X159935463Y-67594001D01*
X159643783Y-67555601D01*
X159643778Y-67555600D01*
X159643773Y-67555600D01*
X159349561Y-67555600D01*
X159349555Y-67555600D01*
X159349550Y-67555601D01*
X159057870Y-67594001D01*
X158773672Y-67670152D01*
X158501872Y-67782734D01*
X158501856Y-67782742D01*
X158247077Y-67929840D01*
X158247061Y-67929851D01*
X158013657Y-68108948D01*
X158013650Y-68108954D01*
X157805621Y-68316983D01*
X157805615Y-68316990D01*
X157626518Y-68550394D01*
X157626507Y-68550410D01*
X157479409Y-68805189D01*
X157479401Y-68805205D01*
X157366819Y-69077005D01*
X157290668Y-69361203D01*
X157252268Y-69652883D01*
X157252267Y-69652900D01*
X155516698Y-69652900D01*
X155504710Y-69577211D01*
X155499147Y-69542088D01*
X155468005Y-69446241D01*
X155445576Y-69377211D01*
X155445575Y-69377208D01*
X155394793Y-69277544D01*
X155366869Y-69222740D01*
X155264968Y-69082486D01*
X155264959Y-69082477D01*
X155261804Y-69078782D01*
X155263253Y-69077544D01*
X155233650Y-69023330D01*
X155238634Y-68953638D01*
X155280506Y-68897705D01*
X155345970Y-68873288D01*
X155374214Y-68874499D01*
X155557316Y-68903500D01*
X155557321Y-68903500D01*
X155816018Y-68903500D01*
X155972078Y-68878782D01*
X156071521Y-68863032D01*
X156317552Y-68783091D01*
X156548049Y-68665647D01*
X156757335Y-68513592D01*
X156940259Y-68330668D01*
X157092314Y-68121382D01*
X157209758Y-67890885D01*
X157289699Y-67644854D01*
X157313112Y-67497027D01*
X157330167Y-67389351D01*
X157330167Y-67130648D01*
X157298490Y-66930654D01*
X157289699Y-66875146D01*
X157209758Y-66629115D01*
X157092314Y-66398618D01*
X156940259Y-66189332D01*
X156757335Y-66006408D01*
X156548049Y-65854353D01*
X156508944Y-65834428D01*
X156354872Y-65755924D01*
X156343807Y-65745474D01*
X156329964Y-65739152D01*
X156318922Y-65721971D01*
X156304076Y-65707949D01*
X156299834Y-65692269D01*
X156292190Y-65680374D01*
X156287167Y-65645439D01*
X156287167Y-65613430D01*
X156306852Y-65546391D01*
X156323486Y-65525749D01*
X157312417Y-64536819D01*
X157373740Y-64503334D01*
X157400098Y-64500500D01*
X158024642Y-64500500D01*
X158091681Y-64520185D01*
X158135127Y-64568205D01*
X158148579Y-64594606D01*
X158199640Y-64694819D01*
X158339946Y-64887933D01*
X158508734Y-65056721D01*
X158701848Y-65197027D01*
X158914533Y-65305395D01*
X159141552Y-65379158D01*
X159377316Y-65416500D01*
X159377317Y-65416500D01*
X159616017Y-65416500D01*
X159616018Y-65416500D01*
X159851782Y-65379158D01*
X160078801Y-65305395D01*
X160291486Y-65197027D01*
X160292625Y-65196199D01*
X160293135Y-65196017D01*
X160295642Y-65194481D01*
X160295964Y-65195007D01*
X160358426Y-65172709D01*
X160426482Y-65188524D01*
X160475185Y-65238621D01*
X160483456Y-65258187D01*
X160513577Y-65350888D01*
X160619481Y-65558735D01*
X160631020Y-65581382D01*
X160783075Y-65790668D01*
X160965999Y-65973592D01*
X161175285Y-66125647D01*
X161405782Y-66243091D01*
X161651813Y-66323032D01*
X161740238Y-66337037D01*
X161907316Y-66363500D01*
X161907321Y-66363500D01*
X162166018Y-66363500D01*
X162307961Y-66341017D01*
X162421521Y-66323032D01*
X162667552Y-66243091D01*
X162822889Y-66163942D01*
X162891556Y-66151046D01*
X162956297Y-66177322D01*
X162996555Y-66234428D01*
X163001656Y-66255028D01*
X163017508Y-66355112D01*
X163017509Y-66355115D01*
X163089002Y-66575149D01*
X163091273Y-66582136D01*
X163146888Y-66691287D01*
X163199640Y-66794819D01*
X163339946Y-66987933D01*
X163508734Y-67156721D01*
X163701848Y-67297027D01*
X163914533Y-67405395D01*
X164141552Y-67479158D01*
X164377316Y-67516500D01*
X164377317Y-67516500D01*
X164616017Y-67516500D01*
X164616018Y-67516500D01*
X164851782Y-67479158D01*
X165078801Y-67405395D01*
X165291486Y-67297027D01*
X165484600Y-67156721D01*
X165653388Y-66987933D01*
X165772273Y-66824302D01*
X165827602Y-66781637D01*
X165897215Y-66775658D01*
X165959010Y-66808264D01*
X165960271Y-66809507D01*
X166419848Y-67269083D01*
X166453333Y-67330406D01*
X166456167Y-67356764D01*
X166456167Y-70465500D01*
X166436482Y-70532539D01*
X166383678Y-70578294D01*
X166332167Y-70589500D01*
X166035131Y-70589500D01*
X165968092Y-70569815D01*
X165922337Y-70517011D01*
X165912393Y-70447853D01*
X165934812Y-70392615D01*
X165945969Y-70377260D01*
X166024675Y-70222791D01*
X166078247Y-70057912D01*
X166095798Y-69947099D01*
X166105367Y-69886687D01*
X166105367Y-69713312D01*
X166083810Y-69577211D01*
X166078247Y-69542088D01*
X166047105Y-69446241D01*
X166024676Y-69377211D01*
X166024675Y-69377208D01*
X165973893Y-69277544D01*
X165945969Y-69222740D01*
X165844068Y-69082486D01*
X165721481Y-68959899D01*
X165581227Y-68857998D01*
X165575508Y-68855084D01*
X165426758Y-68779291D01*
X165426755Y-68779290D01*
X165261880Y-68725720D01*
X165090654Y-68698600D01*
X165090649Y-68698600D01*
X164469085Y-68698600D01*
X164469080Y-68698600D01*
X164297853Y-68725720D01*
X164132978Y-68779290D01*
X164132975Y-68779291D01*
X163978506Y-68857998D01*
X163952818Y-68876662D01*
X163838253Y-68959899D01*
X163838251Y-68959901D01*
X163838250Y-68959901D01*
X163715668Y-69082483D01*
X163715668Y-69082484D01*
X163715666Y-69082486D01*
X163684491Y-69125395D01*
X163613765Y-69222739D01*
X163535058Y-69377208D01*
X163535057Y-69377211D01*
X163481487Y-69542086D01*
X163454367Y-69713312D01*
X163454367Y-69886687D01*
X163481487Y-70057913D01*
X163535057Y-70222788D01*
X163535058Y-70222791D01*
X163613766Y-70377262D01*
X163634977Y-70406457D01*
X163658456Y-70472263D01*
X163642630Y-70540317D01*
X163592524Y-70589011D01*
X163524046Y-70602886D01*
X163518477Y-70602280D01*
X163506135Y-70600655D01*
X163421408Y-70589500D01*
X163421401Y-70589500D01*
X163191933Y-70589500D01*
X163191925Y-70589500D01*
X162975382Y-70618009D01*
X162964429Y-70619452D01*
X162897740Y-70637321D01*
X162742779Y-70678842D01*
X162530790Y-70766650D01*
X162530776Y-70766657D01*
X162332049Y-70881392D01*
X162150005Y-71021081D01*
X161987748Y-71183338D01*
X161848059Y-71365382D01*
X161733324Y-71564109D01*
X161733317Y-71564123D01*
X161645509Y-71776112D01*
X161629831Y-71834623D01*
X161599549Y-71947642D01*
X161586120Y-71997759D01*
X161586118Y-71997770D01*
X161556167Y-72225258D01*
X161556167Y-72454741D01*
X161576016Y-72605500D01*
X161586119Y-72682238D01*
X161613977Y-72786206D01*
X161645509Y-72903887D01*
X161733317Y-73115876D01*
X161733324Y-73115890D01*
X161771567Y-73182129D01*
X161845286Y-73309815D01*
X161848059Y-73314617D01*
X161987748Y-73496661D01*
X161987756Y-73496670D01*
X162149997Y-73658911D01*
X162150005Y-73658918D01*
X162150006Y-73658919D01*
X162152129Y-73660548D01*
X162332049Y-73798607D01*
X162332052Y-73798608D01*
X162332055Y-73798611D01*
X162530779Y-73913344D01*
X162530784Y-73913346D01*
X162530790Y-73913349D01*
X162613345Y-73947544D01*
X162742780Y-74001158D01*
X162964429Y-74060548D01*
X163180979Y-74089057D01*
X163191917Y-74090498D01*
X163191933Y-74090500D01*
X163191940Y-74090500D01*
X163421394Y-74090500D01*
X163421401Y-74090500D01*
X163648905Y-74060548D01*
X163870554Y-74001158D01*
X164082555Y-73913344D01*
X164281279Y-73798611D01*
X164463328Y-73658919D01*
X164463332Y-73658914D01*
X164463337Y-73658911D01*
X164625578Y-73496670D01*
X164625581Y-73496665D01*
X164625586Y-73496661D01*
X164765278Y-73314612D01*
X164880011Y-73115888D01*
X164967825Y-72903887D01*
X165027215Y-72682238D01*
X165034228Y-72628964D01*
X165062494Y-72565069D01*
X165120818Y-72526597D01*
X165190683Y-72525765D01*
X165249906Y-72562837D01*
X165279686Y-72626043D01*
X165281167Y-72645150D01*
X165281167Y-73637870D01*
X165281168Y-73637876D01*
X165287575Y-73697483D01*
X165337869Y-73832328D01*
X165337873Y-73832335D01*
X165424119Y-73947544D01*
X165424122Y-73947547D01*
X165539331Y-74033793D01*
X165539338Y-74033797D01*
X165584285Y-74050561D01*
X165674184Y-74084091D01*
X165733794Y-74090500D01*
X166332167Y-74090499D01*
X166399206Y-74110183D01*
X166444961Y-74162987D01*
X166456167Y-74214499D01*
X166456167Y-75969997D01*
X166456166Y-75970015D01*
X166456166Y-76135721D01*
X166456165Y-76135721D01*
X166497090Y-76288452D01*
X166526025Y-76338567D01*
X166526026Y-76338571D01*
X166526027Y-76338571D01*
X166576146Y-76425381D01*
X166576148Y-76425384D01*
X166695016Y-76544252D01*
X166695022Y-76544257D01*
X169338584Y-79187819D01*
X169372069Y-79249142D01*
X169367085Y-79318834D01*
X169325213Y-79374767D01*
X169259749Y-79399184D01*
X169250903Y-79399500D01*
X132300097Y-79399500D01*
X132233058Y-79379815D01*
X132212416Y-79363181D01*
X127686819Y-74837584D01*
X127653334Y-74776261D01*
X127650500Y-74749903D01*
X127650500Y-73814499D01*
X127670185Y-73747460D01*
X127722989Y-73701705D01*
X127774500Y-73690499D01*
X128372871Y-73690499D01*
X128372872Y-73690499D01*
X128432483Y-73684091D01*
X128567331Y-73633796D01*
X128682546Y-73547546D01*
X128768796Y-73432331D01*
X128819091Y-73297483D01*
X128825500Y-73237873D01*
X128825499Y-70803027D01*
X131123471Y-70803027D01*
X131135040Y-70846202D01*
X131164396Y-70955758D01*
X131179845Y-70982517D01*
X131180319Y-70983337D01*
X131180320Y-70983339D01*
X131243450Y-71092685D01*
X131243454Y-71092690D01*
X131362322Y-71211558D01*
X131362328Y-71211563D01*
X132566514Y-72415749D01*
X132599999Y-72477072D01*
X132602833Y-72503430D01*
X132602833Y-72805500D01*
X132583148Y-72872539D01*
X132530344Y-72918294D01*
X132478833Y-72929500D01*
X131880462Y-72929500D01*
X131880456Y-72929501D01*
X131820849Y-72935908D01*
X131686004Y-72986202D01*
X131685997Y-72986206D01*
X131570788Y-73072452D01*
X131570785Y-73072455D01*
X131484539Y-73187664D01*
X131484535Y-73187671D01*
X131434241Y-73322517D01*
X131427834Y-73382116D01*
X131427834Y-73382123D01*
X131427833Y-73382135D01*
X131427833Y-75977870D01*
X131427834Y-75977876D01*
X131434241Y-76037483D01*
X131484535Y-76172328D01*
X131484539Y-76172335D01*
X131570785Y-76287544D01*
X131570788Y-76287547D01*
X131685997Y-76373793D01*
X131686004Y-76373797D01*
X131820850Y-76424091D01*
X131820849Y-76424091D01*
X131827777Y-76424835D01*
X131880460Y-76430500D01*
X134526205Y-76430499D01*
X134585816Y-76424091D01*
X134720664Y-76373796D01*
X134835879Y-76287546D01*
X134922129Y-76172331D01*
X134972424Y-76037483D01*
X134978833Y-75977873D01*
X134978832Y-74985148D01*
X134998516Y-74918112D01*
X135051320Y-74872357D01*
X135120479Y-74862413D01*
X135184035Y-74891438D01*
X135221809Y-74950216D01*
X135225771Y-74968964D01*
X135232785Y-75022238D01*
X135251327Y-75091438D01*
X135292175Y-75243887D01*
X135379983Y-75455876D01*
X135379990Y-75455890D01*
X135494725Y-75654617D01*
X135634414Y-75836661D01*
X135634422Y-75836670D01*
X135796663Y-75998911D01*
X135796671Y-75998918D01*
X135978715Y-76138607D01*
X135978718Y-76138608D01*
X135978721Y-76138611D01*
X136177445Y-76253344D01*
X136177450Y-76253346D01*
X136177456Y-76253349D01*
X136260011Y-76287544D01*
X136389446Y-76341158D01*
X136611095Y-76400548D01*
X136827645Y-76429057D01*
X136838583Y-76430498D01*
X136838599Y-76430500D01*
X136838606Y-76430500D01*
X137068060Y-76430500D01*
X137068067Y-76430500D01*
X137295571Y-76400548D01*
X137517220Y-76341158D01*
X137729221Y-76253344D01*
X137927945Y-76138611D01*
X138109994Y-75998919D01*
X138109998Y-75998914D01*
X138110003Y-75998911D01*
X138272244Y-75836670D01*
X138272247Y-75836665D01*
X138272252Y-75836661D01*
X138411944Y-75654612D01*
X138526677Y-75455888D01*
X138614491Y-75243887D01*
X138673881Y-75022238D01*
X138703833Y-74794734D01*
X138703833Y-74565266D01*
X138673881Y-74337762D01*
X138614491Y-74116113D01*
X138564523Y-73995480D01*
X138526682Y-73904123D01*
X138526679Y-73904117D01*
X138526677Y-73904112D01*
X138411944Y-73705388D01*
X138411941Y-73705385D01*
X138411940Y-73705382D01*
X138301213Y-73561081D01*
X138272252Y-73523339D01*
X138272251Y-73523338D01*
X138272244Y-73523330D01*
X138110003Y-73361089D01*
X138109994Y-73361081D01*
X137927950Y-73221392D01*
X137869543Y-73187671D01*
X137756693Y-73122517D01*
X137729223Y-73106657D01*
X137729209Y-73106650D01*
X137517220Y-73018842D01*
X137467426Y-73005500D01*
X137295571Y-72959452D01*
X137257548Y-72954446D01*
X137068074Y-72929500D01*
X137068067Y-72929500D01*
X136838599Y-72929500D01*
X136838591Y-72929500D01*
X136622048Y-72958009D01*
X136611095Y-72959452D01*
X136517409Y-72984554D01*
X136389445Y-73018842D01*
X136177456Y-73106650D01*
X136177442Y-73106657D01*
X135978715Y-73221392D01*
X135796671Y-73361081D01*
X135634414Y-73523338D01*
X135494725Y-73705382D01*
X135379990Y-73904109D01*
X135379983Y-73904123D01*
X135292175Y-74116112D01*
X135265813Y-74214499D01*
X135241799Y-74304123D01*
X135232786Y-74337759D01*
X135232784Y-74337769D01*
X135225771Y-74391036D01*
X135197504Y-74454932D01*
X135139179Y-74493402D01*
X135069314Y-74494233D01*
X135010091Y-74457160D01*
X134980313Y-74393954D01*
X134978832Y-74374849D01*
X134978832Y-73382129D01*
X134978831Y-73382123D01*
X134978830Y-73382116D01*
X134972424Y-73322517D01*
X134969952Y-73315890D01*
X134922130Y-73187671D01*
X134922126Y-73187664D01*
X134835880Y-73072455D01*
X134835877Y-73072452D01*
X134720668Y-72986206D01*
X134720661Y-72986202D01*
X134585815Y-72935908D01*
X134585816Y-72935908D01*
X134526216Y-72929501D01*
X134526214Y-72929500D01*
X134526206Y-72929500D01*
X134526198Y-72929500D01*
X133927833Y-72929500D01*
X133860794Y-72909815D01*
X133815039Y-72857011D01*
X133803833Y-72805500D01*
X133803833Y-72292392D01*
X133803834Y-72292379D01*
X133803834Y-72124278D01*
X133803834Y-72124276D01*
X133762910Y-71971548D01*
X133721312Y-71899499D01*
X133721312Y-71899497D01*
X133683857Y-71834623D01*
X133683854Y-71834619D01*
X133683853Y-71834617D01*
X133572049Y-71722813D01*
X133572048Y-71722812D01*
X133567718Y-71718482D01*
X133567707Y-71718472D01*
X132360792Y-70511557D01*
X132327307Y-70450234D01*
X132324473Y-70423876D01*
X132324473Y-69076124D01*
X132344158Y-69009085D01*
X132360792Y-68988443D01*
X133652417Y-67696819D01*
X133713740Y-67663334D01*
X133740098Y-67660500D01*
X134068772Y-67660500D01*
X134135811Y-67680185D01*
X134179257Y-67728205D01*
X134271351Y-67908948D01*
X134277686Y-67921382D01*
X134429741Y-68130668D01*
X134429743Y-68130670D01*
X134585992Y-68286919D01*
X134619477Y-68348242D01*
X134614493Y-68417934D01*
X134572621Y-68473867D01*
X134507157Y-68498284D01*
X134498311Y-68498600D01*
X133886646Y-68498600D01*
X133715419Y-68525720D01*
X133550544Y-68579290D01*
X133550541Y-68579291D01*
X133396072Y-68657998D01*
X133342433Y-68696970D01*
X133255819Y-68759899D01*
X133255817Y-68759901D01*
X133255816Y-68759901D01*
X133133234Y-68882483D01*
X133133234Y-68882484D01*
X133133232Y-68882486D01*
X133105291Y-68920943D01*
X133031331Y-69022739D01*
X132952624Y-69177208D01*
X132952623Y-69177211D01*
X132899053Y-69342086D01*
X132871933Y-69513312D01*
X132871933Y-69686687D01*
X132899053Y-69857913D01*
X132952623Y-70022788D01*
X132952624Y-70022791D01*
X133015963Y-70147099D01*
X133031331Y-70177260D01*
X133133232Y-70317514D01*
X133255819Y-70440101D01*
X133396073Y-70542002D01*
X133444459Y-70566656D01*
X133550541Y-70620708D01*
X133550544Y-70620709D01*
X133616479Y-70642132D01*
X133715421Y-70674280D01*
X133794724Y-70686840D01*
X133886646Y-70701400D01*
X133886651Y-70701400D01*
X134508220Y-70701400D01*
X134591228Y-70688252D01*
X134679445Y-70674280D01*
X134844324Y-70620708D01*
X134998793Y-70542002D01*
X135139047Y-70440101D01*
X135261634Y-70317514D01*
X135363535Y-70177260D01*
X135442241Y-70022791D01*
X135495813Y-69857912D01*
X135514158Y-69742086D01*
X135522933Y-69686687D01*
X135522933Y-69513312D01*
X135515793Y-69468233D01*
X135513364Y-69452900D01*
X137248933Y-69452900D01*
X137248933Y-69747099D01*
X137248934Y-69747116D01*
X137279232Y-69977257D01*
X137287335Y-70038800D01*
X137357081Y-70299096D01*
X137363485Y-70322994D01*
X137476067Y-70594794D01*
X137476075Y-70594810D01*
X137623173Y-70849589D01*
X137623184Y-70849605D01*
X137802281Y-71083009D01*
X137802287Y-71083016D01*
X138010316Y-71291045D01*
X138010323Y-71291051D01*
X138130594Y-71383338D01*
X138243736Y-71470155D01*
X138243743Y-71470159D01*
X138498522Y-71617257D01*
X138498538Y-71617265D01*
X138770338Y-71729847D01*
X138770340Y-71729847D01*
X138770346Y-71729850D01*
X139054533Y-71805998D01*
X139346227Y-71844400D01*
X139346234Y-71844400D01*
X139640432Y-71844400D01*
X139640439Y-71844400D01*
X139932133Y-71805998D01*
X140216320Y-71729850D01*
X140360438Y-71670155D01*
X140488127Y-71617265D01*
X140488130Y-71617263D01*
X140488136Y-71617261D01*
X140742930Y-71470155D01*
X140976344Y-71291050D01*
X141184383Y-71083011D01*
X141363488Y-70849597D01*
X141510594Y-70594803D01*
X141515684Y-70582516D01*
X141623180Y-70322994D01*
X141623179Y-70322994D01*
X141623183Y-70322987D01*
X141699331Y-70038800D01*
X141737733Y-69747106D01*
X141737733Y-69452894D01*
X141699331Y-69161200D01*
X141623183Y-68877013D01*
X141618475Y-68865646D01*
X141510598Y-68605205D01*
X141510590Y-68605189D01*
X141363492Y-68350410D01*
X141363488Y-68350403D01*
X141210028Y-68150410D01*
X141184384Y-68116990D01*
X141184378Y-68116983D01*
X140976349Y-67908954D01*
X140976342Y-67908948D01*
X140742938Y-67729851D01*
X140742936Y-67729849D01*
X140742930Y-67729845D01*
X140742925Y-67729842D01*
X140742922Y-67729840D01*
X140488143Y-67582742D01*
X140488127Y-67582734D01*
X140216327Y-67470152D01*
X140180305Y-67460500D01*
X139932133Y-67394002D01*
X139932132Y-67394001D01*
X139932129Y-67394001D01*
X139640449Y-67355601D01*
X139640444Y-67355600D01*
X139640439Y-67355600D01*
X139346227Y-67355600D01*
X139346221Y-67355600D01*
X139346216Y-67355601D01*
X139054536Y-67394001D01*
X138770338Y-67470152D01*
X138498538Y-67582734D01*
X138498522Y-67582742D01*
X138243743Y-67729840D01*
X138243727Y-67729851D01*
X138010323Y-67908948D01*
X138010316Y-67908954D01*
X137802287Y-68116983D01*
X137802281Y-68116990D01*
X137623184Y-68350394D01*
X137623173Y-68350410D01*
X137476075Y-68605189D01*
X137476067Y-68605205D01*
X137363485Y-68877005D01*
X137287334Y-69161203D01*
X137248934Y-69452883D01*
X137248933Y-69452900D01*
X135513364Y-69452900D01*
X135501376Y-69377211D01*
X135495813Y-69342088D01*
X135460387Y-69233058D01*
X135442242Y-69177211D01*
X135442241Y-69177208D01*
X135393976Y-69082483D01*
X135363535Y-69022740D01*
X135261634Y-68882486D01*
X135261625Y-68882477D01*
X135258470Y-68878782D01*
X135259919Y-68877544D01*
X135230316Y-68823330D01*
X135235300Y-68753638D01*
X135277172Y-68697705D01*
X135342636Y-68673288D01*
X135370880Y-68674499D01*
X135553982Y-68703500D01*
X135553987Y-68703500D01*
X135812684Y-68703500D01*
X135968744Y-68678782D01*
X136068187Y-68663032D01*
X136314218Y-68583091D01*
X136544715Y-68465647D01*
X136754001Y-68313592D01*
X136936925Y-68130668D01*
X137088980Y-67921382D01*
X137206424Y-67690885D01*
X137286365Y-67444854D01*
X137309778Y-67297027D01*
X137326833Y-67189351D01*
X137326833Y-66930648D01*
X137295156Y-66730654D01*
X137286365Y-66675146D01*
X137206424Y-66429115D01*
X137088980Y-66198618D01*
X136936925Y-65989332D01*
X136754001Y-65806408D01*
X136544715Y-65654353D01*
X136513311Y-65638352D01*
X136351538Y-65555924D01*
X136300742Y-65507949D01*
X136283833Y-65445439D01*
X136283833Y-65116764D01*
X136303518Y-65049725D01*
X136320152Y-65029083D01*
X137012417Y-64336819D01*
X137073740Y-64303334D01*
X137100098Y-64300500D01*
X138021308Y-64300500D01*
X138088347Y-64320185D01*
X138131793Y-64368205D01*
X138172425Y-64447949D01*
X138196306Y-64494819D01*
X138336612Y-64687933D01*
X138505400Y-64856721D01*
X138698514Y-64997027D01*
X138911199Y-65105395D01*
X139138218Y-65179158D01*
X139373982Y-65216500D01*
X139373983Y-65216500D01*
X139612683Y-65216500D01*
X139612684Y-65216500D01*
X139848448Y-65179158D01*
X140075467Y-65105395D01*
X140288152Y-64997027D01*
X140289291Y-64996199D01*
X140289801Y-64996017D01*
X140292308Y-64994481D01*
X140292630Y-64995007D01*
X140355092Y-64972709D01*
X140423148Y-64988524D01*
X140471851Y-65038621D01*
X140480122Y-65058187D01*
X140510243Y-65150888D01*
X140616028Y-65358501D01*
X140627686Y-65381382D01*
X140779741Y-65590668D01*
X140962665Y-65773592D01*
X141171951Y-65925647D01*
X141402448Y-66043091D01*
X141648479Y-66123032D01*
X141744294Y-66138207D01*
X141903982Y-66163500D01*
X141903987Y-66163500D01*
X142162684Y-66163500D01*
X142304627Y-66141017D01*
X142418187Y-66123032D01*
X142624383Y-66056033D01*
X142639595Y-66055599D01*
X142653855Y-66050281D01*
X142673810Y-66054622D01*
X142694224Y-66054039D01*
X142708310Y-66062127D01*
X142722128Y-66065133D01*
X142750382Y-66086284D01*
X142828472Y-66164374D01*
X142828482Y-66164385D01*
X142832812Y-66168715D01*
X142832813Y-66168716D01*
X142944617Y-66280520D01*
X142944619Y-66280521D01*
X142944623Y-66280524D01*
X143042507Y-66337037D01*
X143090723Y-66387603D01*
X143090937Y-66388021D01*
X143196306Y-66594819D01*
X143336612Y-66787933D01*
X143505400Y-66956721D01*
X143698514Y-67097027D01*
X143911199Y-67205395D01*
X144138218Y-67279158D01*
X144373982Y-67316500D01*
X144373983Y-67316500D01*
X144612683Y-67316500D01*
X144612684Y-67316500D01*
X144848448Y-67279158D01*
X145075467Y-67205395D01*
X145288152Y-67097027D01*
X145481266Y-66956721D01*
X145650054Y-66787933D01*
X145790360Y-66594819D01*
X145851779Y-66474277D01*
X145854873Y-66468205D01*
X145865322Y-66457140D01*
X145871645Y-66443297D01*
X145888825Y-66432255D01*
X145902848Y-66417409D01*
X145918527Y-66413167D01*
X145930423Y-66405523D01*
X145965358Y-66400500D01*
X145999903Y-66400500D01*
X146066942Y-66420185D01*
X146087584Y-66436819D01*
X146416514Y-66765749D01*
X146449999Y-66827072D01*
X146452833Y-66853430D01*
X146452833Y-70265500D01*
X146433148Y-70332539D01*
X146380344Y-70378294D01*
X146328833Y-70389500D01*
X146031797Y-70389500D01*
X145964758Y-70369815D01*
X145919003Y-70317011D01*
X145909059Y-70247853D01*
X145931478Y-70192615D01*
X145942635Y-70177260D01*
X146021341Y-70022791D01*
X146074913Y-69857912D01*
X146093258Y-69742086D01*
X146102033Y-69686687D01*
X146102033Y-69513312D01*
X146080476Y-69377211D01*
X146074913Y-69342088D01*
X146039487Y-69233058D01*
X146021342Y-69177211D01*
X146021341Y-69177208D01*
X145973076Y-69082483D01*
X145942635Y-69022740D01*
X145840734Y-68882486D01*
X145718147Y-68759899D01*
X145577893Y-68657998D01*
X145525476Y-68631290D01*
X145423424Y-68579291D01*
X145423421Y-68579290D01*
X145258546Y-68525720D01*
X145087320Y-68498600D01*
X145087315Y-68498600D01*
X144465751Y-68498600D01*
X144465746Y-68498600D01*
X144294519Y-68525720D01*
X144129644Y-68579290D01*
X144129641Y-68579291D01*
X143975172Y-68657998D01*
X143921533Y-68696970D01*
X143834919Y-68759899D01*
X143834917Y-68759901D01*
X143834916Y-68759901D01*
X143712334Y-68882483D01*
X143712334Y-68882484D01*
X143712332Y-68882486D01*
X143684391Y-68920943D01*
X143610431Y-69022739D01*
X143531724Y-69177208D01*
X143531723Y-69177211D01*
X143478153Y-69342086D01*
X143451033Y-69513312D01*
X143451033Y-69686687D01*
X143478153Y-69857913D01*
X143531723Y-70022788D01*
X143531724Y-70022791D01*
X143610432Y-70177262D01*
X143631643Y-70206457D01*
X143655122Y-70272263D01*
X143639296Y-70340317D01*
X143589190Y-70389011D01*
X143520712Y-70402886D01*
X143515143Y-70402280D01*
X143502801Y-70400655D01*
X143418074Y-70389500D01*
X143418067Y-70389500D01*
X143188599Y-70389500D01*
X143188591Y-70389500D01*
X142972048Y-70418009D01*
X142961095Y-70419452D01*
X142884042Y-70440098D01*
X142739445Y-70478842D01*
X142527456Y-70566650D01*
X142527442Y-70566657D01*
X142328715Y-70681392D01*
X142146671Y-70821081D01*
X141984422Y-70983330D01*
X141984416Y-70983337D01*
X141984414Y-70983339D01*
X141955740Y-71020708D01*
X141844725Y-71165382D01*
X141729990Y-71364109D01*
X141729983Y-71364123D01*
X141642175Y-71576112D01*
X141631148Y-71617265D01*
X141583039Y-71796816D01*
X141582786Y-71797759D01*
X141582784Y-71797770D01*
X141552833Y-72025258D01*
X141552833Y-72254741D01*
X141574715Y-72420942D01*
X141582785Y-72482238D01*
X141615813Y-72605500D01*
X141642175Y-72703887D01*
X141729983Y-72915876D01*
X141729990Y-72915890D01*
X141741548Y-72935909D01*
X141841952Y-73109815D01*
X141844725Y-73114617D01*
X141984414Y-73296661D01*
X141984422Y-73296670D01*
X142146663Y-73458911D01*
X142146671Y-73458918D01*
X142146672Y-73458919D01*
X142195858Y-73496661D01*
X142328715Y-73598607D01*
X142328718Y-73598608D01*
X142328721Y-73598611D01*
X142527445Y-73713344D01*
X142527450Y-73713346D01*
X142527456Y-73713349D01*
X142609808Y-73747460D01*
X142739446Y-73801158D01*
X142961095Y-73860548D01*
X143177645Y-73889057D01*
X143188583Y-73890498D01*
X143188599Y-73890500D01*
X143188606Y-73890500D01*
X143418060Y-73890500D01*
X143418067Y-73890500D01*
X143645571Y-73860548D01*
X143867220Y-73801158D01*
X144079221Y-73713344D01*
X144277945Y-73598611D01*
X144459994Y-73458919D01*
X144459998Y-73458914D01*
X144460003Y-73458911D01*
X144622244Y-73296670D01*
X144622247Y-73296665D01*
X144622252Y-73296661D01*
X144761944Y-73114612D01*
X144876677Y-72915888D01*
X144964491Y-72703887D01*
X145023881Y-72482238D01*
X145030894Y-72428964D01*
X145059160Y-72365069D01*
X145117484Y-72326597D01*
X145187349Y-72325765D01*
X145246572Y-72362837D01*
X145276352Y-72426043D01*
X145277833Y-72445150D01*
X145277833Y-73437870D01*
X145277834Y-73437876D01*
X145284241Y-73497483D01*
X145334535Y-73632328D01*
X145334539Y-73632335D01*
X145420785Y-73747544D01*
X145420788Y-73747547D01*
X145535997Y-73833793D01*
X145536004Y-73833797D01*
X145670850Y-73884091D01*
X145670849Y-73884091D01*
X145677777Y-73884835D01*
X145730460Y-73890500D01*
X148376205Y-73890499D01*
X148435816Y-73884091D01*
X148570664Y-73833796D01*
X148685879Y-73747546D01*
X148772129Y-73632331D01*
X148822424Y-73497483D01*
X148828833Y-73437873D01*
X148828832Y-70842128D01*
X148822424Y-70782517D01*
X148817686Y-70769815D01*
X148772130Y-70647671D01*
X148772126Y-70647664D01*
X148685880Y-70532455D01*
X148685877Y-70532452D01*
X148570668Y-70446206D01*
X148570661Y-70446202D01*
X148435815Y-70395908D01*
X148435816Y-70395908D01*
X148376216Y-70389501D01*
X148376214Y-70389500D01*
X148376206Y-70389500D01*
X148376198Y-70389500D01*
X147777833Y-70389500D01*
X147710794Y-70369815D01*
X147665039Y-70317011D01*
X147653833Y-70265500D01*
X147653833Y-66642393D01*
X147653834Y-66642380D01*
X147653834Y-66474277D01*
X147652207Y-66468205D01*
X147612910Y-66321549D01*
X147600713Y-66300423D01*
X147533857Y-66184623D01*
X147533851Y-66184615D01*
X146787590Y-65438355D01*
X146787588Y-65438352D01*
X146668717Y-65319481D01*
X146668716Y-65319480D01*
X146560442Y-65256968D01*
X146560440Y-65256967D01*
X146531785Y-65240423D01*
X146531784Y-65240422D01*
X146531783Y-65240422D01*
X146475881Y-65225443D01*
X146379057Y-65199499D01*
X146220943Y-65199499D01*
X146213347Y-65199499D01*
X146213331Y-65199500D01*
X145965358Y-65199500D01*
X145898319Y-65179815D01*
X145854873Y-65131795D01*
X145829270Y-65081547D01*
X145790360Y-65005181D01*
X145650054Y-64812067D01*
X145481266Y-64643279D01*
X145288152Y-64502973D01*
X145075467Y-64394605D01*
X144848448Y-64320842D01*
X144848446Y-64320841D01*
X144848444Y-64320841D01*
X144648116Y-64289112D01*
X144612684Y-64283500D01*
X144373982Y-64283500D01*
X144338550Y-64289112D01*
X144138221Y-64320841D01*
X144138220Y-64320841D01*
X143911193Y-64394607D01*
X143846982Y-64427324D01*
X143778313Y-64440220D01*
X143713573Y-64413943D01*
X143673316Y-64356836D01*
X143668215Y-64336237D01*
X143641370Y-64166748D01*
X143636365Y-64135146D01*
X143556424Y-63889115D01*
X143438980Y-63658618D01*
X143286925Y-63449332D01*
X143104001Y-63266408D01*
X142894715Y-63114353D01*
X142820424Y-63076500D01*
X142664220Y-62996910D01*
X142664219Y-62996909D01*
X142664218Y-62996909D01*
X142418187Y-62916968D01*
X142418185Y-62916967D01*
X142418183Y-62916967D01*
X142162684Y-62876500D01*
X142162679Y-62876500D01*
X141903987Y-62876500D01*
X141903982Y-62876500D01*
X141648482Y-62916967D01*
X141402445Y-62996910D01*
X141171951Y-63114352D01*
X141088061Y-63175302D01*
X141022254Y-63198781D01*
X140954200Y-63182955D01*
X140905506Y-63132849D01*
X140901010Y-63122192D01*
X140900592Y-63122366D01*
X140898730Y-63117872D01*
X140898728Y-63117866D01*
X140790360Y-62905181D01*
X140650054Y-62712067D01*
X140481266Y-62543279D01*
X140322563Y-62427974D01*
X140288150Y-62402971D01*
X140161537Y-62338458D01*
X140110742Y-62290484D01*
X140093833Y-62227974D01*
X140093833Y-61306764D01*
X140113518Y-61239725D01*
X140130152Y-61219083D01*
X141365750Y-59983486D01*
X141427073Y-59950001D01*
X141453431Y-59947167D01*
X143759998Y-59947167D01*
X143760014Y-59947168D01*
X143767610Y-59947168D01*
X143925721Y-59947168D01*
X143925724Y-59947168D01*
X144078452Y-59906244D01*
X144128571Y-59877306D01*
X144215383Y-59827187D01*
X144327187Y-59715383D01*
X144327187Y-59715381D01*
X144337395Y-59705174D01*
X144337397Y-59705170D01*
X157739873Y-46302693D01*
X157799880Y-46269927D01*
X157799805Y-46269612D01*
X157800969Y-46269332D01*
X157801194Y-46269210D01*
X157802501Y-46268964D01*
X157804530Y-46268477D01*
X157804534Y-46268477D01*
X157999219Y-46205220D01*
X158181610Y-46112287D01*
X158274590Y-46044732D01*
X158347213Y-45991971D01*
X158347215Y-45991968D01*
X158347219Y-45991966D01*
X158491966Y-45847219D01*
X158491968Y-45847215D01*
X158491971Y-45847213D01*
X158575833Y-45731785D01*
X158612287Y-45681610D01*
X158705220Y-45499219D01*
X158768477Y-45304534D01*
X158800500Y-45102352D01*
X158800500Y-44897648D01*
X158778339Y-44757730D01*
X158768477Y-44695465D01*
X158730688Y-44579163D01*
X158705220Y-44500781D01*
X158705218Y-44500778D01*
X158705218Y-44500776D01*
X158659372Y-44410800D01*
X158612287Y-44318390D01*
X158597420Y-44297927D01*
X158491971Y-44152786D01*
X158347213Y-44008028D01*
X158181613Y-43887715D01*
X158181612Y-43887714D01*
X158181610Y-43887713D01*
X158078126Y-43834985D01*
X157999223Y-43794781D01*
X157804534Y-43731522D01*
X157629995Y-43703878D01*
X157602352Y-43699500D01*
X157397648Y-43699500D01*
X157373329Y-43703351D01*
X157195465Y-43731522D01*
X157000776Y-43794781D01*
X156818386Y-43887715D01*
X156652786Y-44008028D01*
X156508028Y-44152786D01*
X156387715Y-44318386D01*
X156294781Y-44500776D01*
X156231522Y-44695465D01*
X156199500Y-44897648D01*
X156199500Y-45102351D01*
X156231522Y-45304534D01*
X156294781Y-45499223D01*
X156387712Y-45681608D01*
X156387713Y-45681610D01*
X156441090Y-45755079D01*
X156464569Y-45820886D01*
X156448743Y-45888939D01*
X156428452Y-45915644D01*
X143634251Y-58709848D01*
X143572928Y-58743333D01*
X143546570Y-58746167D01*
X141240003Y-58746167D01*
X141239987Y-58746166D01*
X141232391Y-58746166D01*
X141074276Y-58746166D01*
X141019282Y-58760902D01*
X140921547Y-58787090D01*
X140921542Y-58787093D01*
X140784623Y-58866142D01*
X140784615Y-58866148D01*
X139012814Y-60637949D01*
X139012813Y-60637951D01*
X138964048Y-60722416D01*
X138962694Y-60724761D01*
X138962692Y-60724763D01*
X138933758Y-60774876D01*
X138933757Y-60774877D01*
X138933756Y-60774882D01*
X138892832Y-60927610D01*
X138892832Y-60927612D01*
X138892832Y-61095713D01*
X138892833Y-61095726D01*
X138892833Y-62227974D01*
X138873148Y-62295013D01*
X138825129Y-62338458D01*
X138698515Y-62402971D01*
X138578066Y-62490484D01*
X138505400Y-62543279D01*
X138505398Y-62543281D01*
X138505397Y-62543281D01*
X138336614Y-62712064D01*
X138336614Y-62712065D01*
X138336612Y-62712067D01*
X138317438Y-62738458D01*
X138196306Y-62905180D01*
X138131793Y-63031795D01*
X138083818Y-63082591D01*
X138021308Y-63099500D01*
X136886670Y-63099500D01*
X136886654Y-63099499D01*
X136879058Y-63099499D01*
X136720943Y-63099499D01*
X136652402Y-63117865D01*
X136568214Y-63140423D01*
X136568209Y-63140426D01*
X136431290Y-63219475D01*
X136431282Y-63219481D01*
X135202814Y-64447949D01*
X135202812Y-64447952D01*
X135200888Y-64451285D01*
X135161516Y-64519480D01*
X135123756Y-64584882D01*
X135082832Y-64737610D01*
X135082832Y-64737612D01*
X135082832Y-64905713D01*
X135082833Y-64905726D01*
X135082833Y-65445439D01*
X135063148Y-65512478D01*
X135015128Y-65555924D01*
X134821950Y-65654353D01*
X134612662Y-65806410D01*
X134429743Y-65989329D01*
X134277686Y-66198617D01*
X134179257Y-66391795D01*
X134131282Y-66442591D01*
X134068772Y-66459500D01*
X133526670Y-66459500D01*
X133526654Y-66459499D01*
X133519058Y-66459499D01*
X133360943Y-66459499D01*
X133302549Y-66475146D01*
X133208214Y-66500423D01*
X133208209Y-66500426D01*
X133071290Y-66579475D01*
X133071282Y-66579481D01*
X131243452Y-68407311D01*
X131224169Y-68440713D01*
X131211283Y-68463032D01*
X131164396Y-68544242D01*
X131123472Y-68696970D01*
X131123472Y-68855084D01*
X131123472Y-68855086D01*
X131123473Y-68865080D01*
X131123473Y-70637303D01*
X131123472Y-70637321D01*
X131123472Y-70803027D01*
X131123471Y-70803027D01*
X128825499Y-70803027D01*
X128825499Y-70642128D01*
X128819091Y-70582517D01*
X128817799Y-70579054D01*
X128768797Y-70447671D01*
X128768793Y-70447664D01*
X128682547Y-70332455D01*
X128682544Y-70332452D01*
X128567335Y-70246206D01*
X128567328Y-70246202D01*
X128432482Y-70195908D01*
X128432483Y-70195908D01*
X128372883Y-70189501D01*
X128372881Y-70189500D01*
X128372873Y-70189500D01*
X128372865Y-70189500D01*
X127774500Y-70189500D01*
X127707461Y-70169815D01*
X127661706Y-70117011D01*
X127650500Y-70065500D01*
X127650500Y-66639059D01*
X127650501Y-66639046D01*
X127650501Y-66470945D01*
X127650501Y-66470943D01*
X127609577Y-66318215D01*
X127566204Y-66243091D01*
X127530520Y-66181284D01*
X127418716Y-66069480D01*
X127418715Y-66069479D01*
X127414385Y-66065149D01*
X127414374Y-66065139D01*
X126587590Y-65238355D01*
X126587588Y-65238352D01*
X126468717Y-65119481D01*
X126468716Y-65119480D01*
X126364960Y-65059577D01*
X126364959Y-65059576D01*
X126331783Y-65040422D01*
X126247602Y-65017866D01*
X126179057Y-64999499D01*
X126020943Y-64999499D01*
X126013347Y-64999499D01*
X126013331Y-64999500D01*
X125962025Y-64999500D01*
X125894986Y-64979815D01*
X125851540Y-64931795D01*
X125799407Y-64829478D01*
X125787027Y-64805181D01*
X125646721Y-64612067D01*
X125477933Y-64443279D01*
X125284819Y-64302973D01*
X125072134Y-64194605D01*
X124845115Y-64120842D01*
X124845113Y-64120841D01*
X124845111Y-64120841D01*
X124644783Y-64089112D01*
X124609351Y-64083500D01*
X124370649Y-64083500D01*
X124335217Y-64089112D01*
X124134883Y-64120842D01*
X124134880Y-64120842D01*
X123999737Y-64164753D01*
X123984524Y-64165187D01*
X123970265Y-64170506D01*
X123950309Y-64166164D01*
X123929895Y-64166748D01*
X123915808Y-64158659D01*
X123901992Y-64155654D01*
X123873738Y-64134503D01*
X123697590Y-63958355D01*
X123697588Y-63958352D01*
X123634179Y-63894943D01*
X123603930Y-63845581D01*
X123553091Y-63689115D01*
X123435647Y-63458618D01*
X123283592Y-63249332D01*
X123100668Y-63066408D01*
X122891382Y-62914353D01*
X122660885Y-62796909D01*
X122414854Y-62716968D01*
X122414852Y-62716967D01*
X122414850Y-62716967D01*
X122159351Y-62676500D01*
X122159346Y-62676500D01*
X121900654Y-62676500D01*
X121900649Y-62676500D01*
X121645149Y-62716967D01*
X121399112Y-62796910D01*
X121168618Y-62914352D01*
X121084728Y-62975302D01*
X121018921Y-62998781D01*
X120950867Y-62982955D01*
X120902173Y-62932849D01*
X120897677Y-62922192D01*
X120897259Y-62922366D01*
X120895397Y-62917872D01*
X120895395Y-62917866D01*
X120787027Y-62705181D01*
X120646721Y-62512067D01*
X120477933Y-62343279D01*
X120319230Y-62227974D01*
X120284817Y-62202971D01*
X120158204Y-62138458D01*
X120107409Y-62090484D01*
X120090500Y-62027974D01*
X120090500Y-60810097D01*
X120110185Y-60743058D01*
X120126819Y-60722416D01*
X120967416Y-59881819D01*
X121028739Y-59848334D01*
X121055097Y-59845500D01*
X123658331Y-59845500D01*
X123658347Y-59845501D01*
X123665943Y-59845501D01*
X123824054Y-59845501D01*
X123824057Y-59845501D01*
X123976785Y-59804577D01*
X124026904Y-59775639D01*
X124113716Y-59725520D01*
X124225520Y-59613716D01*
X124225520Y-59613714D01*
X124235728Y-59603507D01*
X124235729Y-59603504D01*
X135702416Y-48136819D01*
X135763739Y-48103334D01*
X135790097Y-48100500D01*
X150913331Y-48100500D01*
X150913347Y-48100501D01*
X150920943Y-48100501D01*
X151079054Y-48100501D01*
X151079057Y-48100501D01*
X151231785Y-48059577D01*
X151281904Y-48030639D01*
X151368716Y-47980520D01*
X151480520Y-47868716D01*
X151480520Y-47868714D01*
X151490728Y-47858507D01*
X151490730Y-47858504D01*
X153055158Y-46294075D01*
X153116479Y-46260592D01*
X153181151Y-46263825D01*
X153195466Y-46268477D01*
X153195471Y-46268477D01*
X153195472Y-46268478D01*
X153200094Y-46269210D01*
X153397648Y-46300500D01*
X153397649Y-46300500D01*
X153602351Y-46300500D01*
X153602352Y-46300500D01*
X153804534Y-46268477D01*
X153999219Y-46205220D01*
X154181610Y-46112287D01*
X154274590Y-46044732D01*
X154347213Y-45991971D01*
X154347215Y-45991968D01*
X154347219Y-45991966D01*
X154491966Y-45847219D01*
X154491968Y-45847215D01*
X154491971Y-45847213D01*
X154575833Y-45731785D01*
X154612287Y-45681610D01*
X154705220Y-45499219D01*
X154768477Y-45304534D01*
X154800500Y-45102352D01*
X154800500Y-44897648D01*
X154778339Y-44757730D01*
X154768477Y-44695465D01*
X154730688Y-44579163D01*
X154705220Y-44500781D01*
X154705218Y-44500778D01*
X154705218Y-44500776D01*
X154659372Y-44410800D01*
X154612287Y-44318390D01*
X154597420Y-44297927D01*
X154491971Y-44152786D01*
X154347213Y-44008028D01*
X154181613Y-43887715D01*
X154181612Y-43887714D01*
X154181610Y-43887713D01*
X154078126Y-43834985D01*
X153999223Y-43794781D01*
X153804534Y-43731522D01*
X153629995Y-43703878D01*
X153602352Y-43699500D01*
X153397648Y-43699500D01*
X153373329Y-43703351D01*
X153195465Y-43731522D01*
X153000776Y-43794781D01*
X152818386Y-43887715D01*
X152652786Y-44008028D01*
X152508028Y-44152786D01*
X152387715Y-44318386D01*
X152294781Y-44500776D01*
X152231522Y-44695465D01*
X152199500Y-44897648D01*
X152199500Y-45102351D01*
X152231522Y-45304534D01*
X152236173Y-45318848D01*
X152238165Y-45388690D01*
X152205921Y-45444842D01*
X150787584Y-46863181D01*
X150726261Y-46896666D01*
X150699903Y-46899500D01*
X135569057Y-46899500D01*
X135410942Y-46899500D01*
X135258215Y-46940423D01*
X135258214Y-46940423D01*
X135258212Y-46940424D01*
X135258209Y-46940425D01*
X135208096Y-46969359D01*
X135208095Y-46969360D01*
X135207167Y-46969896D01*
X135121285Y-47019479D01*
X135121282Y-47019481D01*
X135009478Y-47131286D01*
X123532584Y-58608181D01*
X123471261Y-58641666D01*
X123444903Y-58644500D01*
X120675943Y-58644500D01*
X120523214Y-58685423D01*
X120499599Y-58699058D01*
X120499598Y-58699058D01*
X120386287Y-58764477D01*
X120386282Y-58764481D01*
X119009481Y-60141282D01*
X119009477Y-60141287D01*
X118986385Y-60181286D01*
X118986211Y-60181588D01*
X118930423Y-60278215D01*
X118889499Y-60430943D01*
X118889499Y-60430945D01*
X118889499Y-60599046D01*
X118889500Y-60599059D01*
X118889500Y-62027974D01*
X118869815Y-62095013D01*
X118821796Y-62138458D01*
X118695182Y-62202971D01*
X118574733Y-62290484D01*
X118502067Y-62343279D01*
X118502065Y-62343281D01*
X118502064Y-62343281D01*
X118333281Y-62512064D01*
X118333281Y-62512065D01*
X118333279Y-62512067D01*
X118314105Y-62538458D01*
X118192973Y-62705180D01*
X118128460Y-62831795D01*
X118080485Y-62882591D01*
X118017975Y-62899500D01*
X117086669Y-62899500D01*
X117086653Y-62899499D01*
X117079057Y-62899499D01*
X116920943Y-62899499D01*
X116835604Y-62922366D01*
X116768214Y-62940423D01*
X116733836Y-62960272D01*
X116733835Y-62960272D01*
X116631287Y-63019477D01*
X116631282Y-63019481D01*
X115199481Y-64451282D01*
X115199480Y-64451284D01*
X115159321Y-64520842D01*
X115120423Y-64588215D01*
X115079499Y-64740943D01*
X115079499Y-64740945D01*
X115079499Y-64909046D01*
X115079500Y-64909059D01*
X115079500Y-65245439D01*
X115059815Y-65312478D01*
X115011795Y-65355924D01*
X114818617Y-65454353D01*
X114609329Y-65606410D01*
X114426410Y-65789329D01*
X114274353Y-65998617D01*
X114175924Y-66191795D01*
X114127949Y-66242591D01*
X114065439Y-66259500D01*
X113060941Y-66259500D01*
X113037068Y-66265896D01*
X113037069Y-66265897D01*
X112908214Y-66300423D01*
X112908209Y-66300426D01*
X112771290Y-66379475D01*
X112771282Y-66379481D01*
X111519479Y-67631284D01*
X111511645Y-67644854D01*
X111490266Y-67681885D01*
X111440423Y-67768215D01*
X111399499Y-67920943D01*
X111399499Y-67920945D01*
X111399499Y-68089046D01*
X111399500Y-68089059D01*
X111399500Y-70413330D01*
X111399499Y-70413348D01*
X111399499Y-70579054D01*
X111399498Y-70579054D01*
X111405722Y-70602280D01*
X111440423Y-70731785D01*
X111440424Y-70731787D01*
X111440423Y-70731787D01*
X111446322Y-70742003D01*
X111446323Y-70742004D01*
X111519477Y-70868712D01*
X111519481Y-70868717D01*
X111638349Y-70987585D01*
X111638355Y-70987590D01*
X112563181Y-71912416D01*
X112596666Y-71973739D01*
X112599500Y-72000097D01*
X112599500Y-72605500D01*
X112579815Y-72672539D01*
X112527011Y-72718294D01*
X112475500Y-72729500D01*
X111877129Y-72729500D01*
X111877123Y-72729501D01*
X111817516Y-72735908D01*
X111682671Y-72786202D01*
X111682664Y-72786206D01*
X111567455Y-72872452D01*
X111567452Y-72872455D01*
X111481206Y-72987664D01*
X111481202Y-72987671D01*
X111430908Y-73122517D01*
X111424501Y-73182116D01*
X111424501Y-73182123D01*
X111424500Y-73182135D01*
X111424500Y-75777870D01*
X111424501Y-75777876D01*
X111430908Y-75837483D01*
X111481202Y-75972328D01*
X111481206Y-75972335D01*
X111567452Y-76087544D01*
X111567455Y-76087547D01*
X111682664Y-76173793D01*
X111682671Y-76173797D01*
X111817517Y-76224091D01*
X111817516Y-76224091D01*
X111824444Y-76224835D01*
X111877127Y-76230500D01*
X114522872Y-76230499D01*
X114582483Y-76224091D01*
X114717331Y-76173796D01*
X114832546Y-76087546D01*
X114918796Y-75972331D01*
X114969091Y-75837483D01*
X114975500Y-75777873D01*
X114975499Y-74785148D01*
X114995183Y-74718112D01*
X115047987Y-74672357D01*
X115117146Y-74662413D01*
X115180702Y-74691438D01*
X115218476Y-74750216D01*
X115222438Y-74768964D01*
X115229452Y-74822238D01*
X115268767Y-74968964D01*
X115288842Y-75043887D01*
X115376650Y-75255876D01*
X115376657Y-75255890D01*
X115391610Y-75281789D01*
X115470664Y-75418716D01*
X115491392Y-75454617D01*
X115631081Y-75636661D01*
X115631089Y-75636670D01*
X115793330Y-75798911D01*
X115793338Y-75798918D01*
X115975382Y-75938607D01*
X115975385Y-75938608D01*
X115975388Y-75938611D01*
X116174112Y-76053344D01*
X116174117Y-76053346D01*
X116174123Y-76053349D01*
X116256678Y-76087544D01*
X116386113Y-76141158D01*
X116607762Y-76200548D01*
X116824312Y-76229057D01*
X116835250Y-76230498D01*
X116835266Y-76230500D01*
X116835273Y-76230500D01*
X117064727Y-76230500D01*
X117064734Y-76230500D01*
X117292238Y-76200548D01*
X117513887Y-76141158D01*
X117725888Y-76053344D01*
X117924612Y-75938611D01*
X118106661Y-75798919D01*
X118106665Y-75798914D01*
X118106670Y-75798911D01*
X118268911Y-75636670D01*
X118268914Y-75636665D01*
X118268919Y-75636661D01*
X118408611Y-75454612D01*
X118523344Y-75255888D01*
X118611158Y-75043887D01*
X118670548Y-74822238D01*
X118700500Y-74594734D01*
X118700500Y-74365266D01*
X118670548Y-74137762D01*
X118611158Y-73916113D01*
X118546945Y-73761089D01*
X118523349Y-73704123D01*
X118523346Y-73704117D01*
X118523344Y-73704112D01*
X118408611Y-73505388D01*
X118408608Y-73505385D01*
X118408607Y-73505382D01*
X118278564Y-73335909D01*
X118268919Y-73323339D01*
X118268918Y-73323338D01*
X118268911Y-73323330D01*
X118106670Y-73161089D01*
X118106661Y-73161081D01*
X117924617Y-73021392D01*
X117866210Y-72987671D01*
X117741882Y-72915890D01*
X117725890Y-72906657D01*
X117725876Y-72906650D01*
X117513887Y-72818842D01*
X117464093Y-72805500D01*
X117292238Y-72759452D01*
X117254215Y-72754446D01*
X117064741Y-72729500D01*
X117064734Y-72729500D01*
X116835266Y-72729500D01*
X116835258Y-72729500D01*
X116618715Y-72758009D01*
X116607762Y-72759452D01*
X116595129Y-72762837D01*
X116386112Y-72818842D01*
X116174123Y-72906650D01*
X116174109Y-72906657D01*
X115975382Y-73021392D01*
X115793338Y-73161081D01*
X115631081Y-73323338D01*
X115491392Y-73505382D01*
X115376657Y-73704109D01*
X115376650Y-73704123D01*
X115288842Y-73916112D01*
X115257703Y-74032328D01*
X115235994Y-74113349D01*
X115229453Y-74137759D01*
X115229451Y-74137769D01*
X115222438Y-74191036D01*
X115194171Y-74254932D01*
X115135846Y-74293402D01*
X115065981Y-74294233D01*
X115006758Y-74257160D01*
X114976980Y-74193954D01*
X114975499Y-74174849D01*
X114975499Y-73182129D01*
X114975498Y-73182123D01*
X114975497Y-73182116D01*
X114969091Y-73122517D01*
X114966619Y-73115890D01*
X114918797Y-72987671D01*
X114918793Y-72987664D01*
X114832547Y-72872455D01*
X114832544Y-72872452D01*
X114717335Y-72786206D01*
X114717328Y-72786202D01*
X114582482Y-72735908D01*
X114582483Y-72735908D01*
X114522883Y-72729501D01*
X114522881Y-72729500D01*
X114522873Y-72729500D01*
X114522865Y-72729500D01*
X113924500Y-72729500D01*
X113857461Y-72709815D01*
X113811706Y-72657011D01*
X113800500Y-72605500D01*
X113800500Y-71620945D01*
X113800499Y-71620940D01*
X113799516Y-71617270D01*
X113796496Y-71605998D01*
X113759577Y-71468215D01*
X113747142Y-71446679D01*
X113730158Y-71417260D01*
X113730158Y-71417259D01*
X113680524Y-71331290D01*
X113680521Y-71331286D01*
X113680520Y-71331284D01*
X113568716Y-71219480D01*
X113568715Y-71219479D01*
X113564385Y-71215149D01*
X113564374Y-71215139D01*
X112636819Y-70287584D01*
X112603334Y-70226261D01*
X112600500Y-70199903D01*
X112600500Y-68300097D01*
X112620185Y-68233058D01*
X112636819Y-68212416D01*
X113352416Y-67496819D01*
X113413739Y-67463334D01*
X113440097Y-67460500D01*
X114065439Y-67460500D01*
X114132478Y-67480185D01*
X114175924Y-67528205D01*
X114268018Y-67708948D01*
X114274353Y-67721382D01*
X114426408Y-67930668D01*
X114426410Y-67930670D01*
X114582659Y-68086919D01*
X114616144Y-68148242D01*
X114611160Y-68217934D01*
X114569288Y-68273867D01*
X114503824Y-68298284D01*
X114494978Y-68298600D01*
X113883313Y-68298600D01*
X113712086Y-68325720D01*
X113547211Y-68379290D01*
X113547208Y-68379291D01*
X113392739Y-68457998D01*
X113338088Y-68497705D01*
X113252486Y-68559899D01*
X113252484Y-68559901D01*
X113252483Y-68559901D01*
X113129901Y-68682483D01*
X113129901Y-68682484D01*
X113129899Y-68682486D01*
X113107299Y-68713592D01*
X113027998Y-68822739D01*
X112949291Y-68977208D01*
X112949290Y-68977211D01*
X112895720Y-69142086D01*
X112868600Y-69313312D01*
X112868600Y-69486687D01*
X112895720Y-69657913D01*
X112949290Y-69822788D01*
X112949291Y-69822791D01*
X113012630Y-69947099D01*
X113027998Y-69977260D01*
X113129899Y-70117514D01*
X113252486Y-70240101D01*
X113392740Y-70342002D01*
X113441126Y-70366656D01*
X113547208Y-70420708D01*
X113547211Y-70420709D01*
X113606895Y-70440101D01*
X113712088Y-70474280D01*
X113791391Y-70486840D01*
X113883313Y-70501400D01*
X113883318Y-70501400D01*
X114504887Y-70501400D01*
X114587895Y-70488252D01*
X114676112Y-70474280D01*
X114840991Y-70420708D01*
X114995460Y-70342002D01*
X115135714Y-70240101D01*
X115258301Y-70117514D01*
X115360202Y-69977260D01*
X115438908Y-69822791D01*
X115492480Y-69657912D01*
X115510825Y-69542086D01*
X115519600Y-69486687D01*
X115519600Y-69313312D01*
X115512460Y-69268233D01*
X115510031Y-69252900D01*
X117245600Y-69252900D01*
X117245600Y-69547099D01*
X117245601Y-69547116D01*
X117271931Y-69747116D01*
X117284002Y-69838800D01*
X117350423Y-70086687D01*
X117360152Y-70122994D01*
X117472734Y-70394794D01*
X117472742Y-70394810D01*
X117619840Y-70649589D01*
X117619851Y-70649605D01*
X117798948Y-70883009D01*
X117798954Y-70883016D01*
X118006983Y-71091045D01*
X118006990Y-71091051D01*
X118154831Y-71204493D01*
X118240403Y-71270155D01*
X118240410Y-71270159D01*
X118495189Y-71417257D01*
X118495205Y-71417265D01*
X118767005Y-71529847D01*
X118767007Y-71529847D01*
X118767013Y-71529850D01*
X119051200Y-71605998D01*
X119342894Y-71644400D01*
X119342901Y-71644400D01*
X119637099Y-71644400D01*
X119637106Y-71644400D01*
X119928800Y-71605998D01*
X120212987Y-71529850D01*
X120306671Y-71491045D01*
X120484794Y-71417265D01*
X120484797Y-71417263D01*
X120484803Y-71417261D01*
X120739597Y-71270155D01*
X120973011Y-71091050D01*
X121181050Y-70883011D01*
X121360155Y-70649597D01*
X121507261Y-70394803D01*
X121514528Y-70377260D01*
X121600453Y-70169815D01*
X121619850Y-70122987D01*
X121695998Y-69838800D01*
X121734400Y-69547106D01*
X121734400Y-69252894D01*
X121695998Y-68961200D01*
X121619850Y-68677013D01*
X121595379Y-68617934D01*
X121507265Y-68405205D01*
X121507257Y-68405189D01*
X121360159Y-68150410D01*
X121360155Y-68150403D01*
X121191546Y-67930668D01*
X121181051Y-67916990D01*
X121181045Y-67916983D01*
X120973016Y-67708954D01*
X120973009Y-67708948D01*
X120739605Y-67529851D01*
X120739603Y-67529849D01*
X120739597Y-67529845D01*
X120739592Y-67529842D01*
X120739589Y-67529840D01*
X120484810Y-67382742D01*
X120484794Y-67382734D01*
X120212994Y-67270152D01*
X120209004Y-67269083D01*
X119928800Y-67194002D01*
X119928799Y-67194001D01*
X119928796Y-67194001D01*
X119637116Y-67155601D01*
X119637111Y-67155600D01*
X119637106Y-67155600D01*
X119342894Y-67155600D01*
X119342888Y-67155600D01*
X119342883Y-67155601D01*
X119051203Y-67194001D01*
X118767005Y-67270152D01*
X118495205Y-67382734D01*
X118495189Y-67382742D01*
X118240410Y-67529840D01*
X118240394Y-67529851D01*
X118006990Y-67708948D01*
X118006983Y-67708954D01*
X117798954Y-67916983D01*
X117798948Y-67916990D01*
X117619851Y-68150394D01*
X117619840Y-68150410D01*
X117472742Y-68405189D01*
X117472734Y-68405205D01*
X117360152Y-68677005D01*
X117284001Y-68961203D01*
X117245601Y-69252883D01*
X117245600Y-69252900D01*
X115510031Y-69252900D01*
X115498043Y-69177211D01*
X115492480Y-69142088D01*
X115454359Y-69024762D01*
X115438909Y-68977211D01*
X115438908Y-68977208D01*
X115388126Y-68877544D01*
X115360202Y-68822740D01*
X115258301Y-68682486D01*
X115258292Y-68682477D01*
X115255137Y-68678782D01*
X115256586Y-68677544D01*
X115226983Y-68623330D01*
X115231967Y-68553638D01*
X115273839Y-68497705D01*
X115339303Y-68473288D01*
X115367547Y-68474499D01*
X115550649Y-68503500D01*
X115550654Y-68503500D01*
X115809351Y-68503500D01*
X115951294Y-68481017D01*
X116064854Y-68463032D01*
X116310885Y-68383091D01*
X116541382Y-68265647D01*
X116750668Y-68113592D01*
X116933592Y-67930668D01*
X117085647Y-67721382D01*
X117203091Y-67490885D01*
X117283032Y-67244854D01*
X117306445Y-67097027D01*
X117323500Y-66989351D01*
X117323500Y-66730648D01*
X117283032Y-66475149D01*
X117283032Y-66475146D01*
X117203091Y-66229115D01*
X117085647Y-65998618D01*
X116933592Y-65789332D01*
X116750668Y-65606408D01*
X116541382Y-65454353D01*
X116509978Y-65438352D01*
X116348205Y-65355924D01*
X116337140Y-65345474D01*
X116323297Y-65339152D01*
X116312255Y-65321971D01*
X116297409Y-65307949D01*
X116293167Y-65292269D01*
X116285523Y-65280374D01*
X116280500Y-65245439D01*
X116280500Y-65120097D01*
X116300185Y-65053058D01*
X116316819Y-65032416D01*
X117212416Y-64136819D01*
X117273739Y-64103334D01*
X117300097Y-64100500D01*
X118017975Y-64100500D01*
X118085014Y-64120185D01*
X118128460Y-64168205D01*
X118182311Y-64273893D01*
X118192973Y-64294819D01*
X118333279Y-64487933D01*
X118502067Y-64656721D01*
X118695181Y-64797027D01*
X118907866Y-64905395D01*
X119134885Y-64979158D01*
X119370649Y-65016500D01*
X119370650Y-65016500D01*
X119609350Y-65016500D01*
X119609351Y-65016500D01*
X119845115Y-64979158D01*
X120072134Y-64905395D01*
X120284819Y-64797027D01*
X120285958Y-64796199D01*
X120286468Y-64796017D01*
X120288975Y-64794481D01*
X120289297Y-64795007D01*
X120351759Y-64772709D01*
X120419815Y-64788524D01*
X120468518Y-64838621D01*
X120476789Y-64858187D01*
X120506910Y-64950888D01*
X120619934Y-65172709D01*
X120624353Y-65181382D01*
X120776408Y-65390668D01*
X120959332Y-65573592D01*
X121168618Y-65725647D01*
X121399115Y-65843091D01*
X121645146Y-65923032D01*
X121732763Y-65936909D01*
X121900649Y-65963500D01*
X121900654Y-65963500D01*
X122159351Y-65963500D01*
X122313075Y-65939152D01*
X122414854Y-65923032D01*
X122660885Y-65843091D01*
X122816222Y-65763942D01*
X122884889Y-65751046D01*
X122949630Y-65777322D01*
X122989888Y-65834428D01*
X122994989Y-65855028D01*
X123010841Y-65955112D01*
X123010842Y-65955115D01*
X123084329Y-66181286D01*
X123084606Y-66182136D01*
X123177015Y-66363500D01*
X123192973Y-66394819D01*
X123333279Y-66587933D01*
X123502067Y-66756721D01*
X123695181Y-66897027D01*
X123907866Y-67005395D01*
X124134885Y-67079158D01*
X124370649Y-67116500D01*
X124370650Y-67116500D01*
X124609350Y-67116500D01*
X124609351Y-67116500D01*
X124845115Y-67079158D01*
X125072134Y-67005395D01*
X125284819Y-66897027D01*
X125477933Y-66756721D01*
X125646721Y-66587933D01*
X125787027Y-66394819D01*
X125796816Y-66375604D01*
X125844790Y-66324809D01*
X125912611Y-66308013D01*
X125978746Y-66330549D01*
X125994983Y-66344218D01*
X126413181Y-66762416D01*
X126446666Y-66823739D01*
X126449500Y-66850097D01*
X126449500Y-70065500D01*
X126429815Y-70132539D01*
X126377011Y-70178294D01*
X126325500Y-70189500D01*
X126028464Y-70189500D01*
X125961425Y-70169815D01*
X125915670Y-70117011D01*
X125905726Y-70047853D01*
X125928145Y-69992615D01*
X125939302Y-69977260D01*
X126018008Y-69822791D01*
X126071580Y-69657912D01*
X126089925Y-69542086D01*
X126098700Y-69486687D01*
X126098700Y-69313312D01*
X126077143Y-69177211D01*
X126071580Y-69142088D01*
X126033459Y-69024762D01*
X126018009Y-68977211D01*
X126018008Y-68977208D01*
X125967226Y-68877544D01*
X125939302Y-68822740D01*
X125837401Y-68682486D01*
X125714814Y-68559899D01*
X125574560Y-68457998D01*
X125565075Y-68453165D01*
X125420091Y-68379291D01*
X125420088Y-68379290D01*
X125255213Y-68325720D01*
X125083987Y-68298600D01*
X125083982Y-68298600D01*
X124462418Y-68298600D01*
X124462413Y-68298600D01*
X124291186Y-68325720D01*
X124126311Y-68379290D01*
X124126308Y-68379291D01*
X123971839Y-68457998D01*
X123917188Y-68497705D01*
X123831586Y-68559899D01*
X123831584Y-68559901D01*
X123831583Y-68559901D01*
X123709001Y-68682483D01*
X123709001Y-68682484D01*
X123708999Y-68682486D01*
X123686399Y-68713592D01*
X123607098Y-68822739D01*
X123528391Y-68977208D01*
X123528390Y-68977211D01*
X123474820Y-69142086D01*
X123447700Y-69313312D01*
X123447700Y-69486687D01*
X123474820Y-69657913D01*
X123528390Y-69822788D01*
X123528391Y-69822791D01*
X123607099Y-69977262D01*
X123628310Y-70006457D01*
X123651789Y-70072263D01*
X123635963Y-70140317D01*
X123585857Y-70189011D01*
X123517379Y-70202886D01*
X123511810Y-70202280D01*
X123499468Y-70200655D01*
X123414741Y-70189500D01*
X123414734Y-70189500D01*
X123185266Y-70189500D01*
X123185258Y-70189500D01*
X122968715Y-70218009D01*
X122957762Y-70219452D01*
X122880709Y-70240098D01*
X122736112Y-70278842D01*
X122524123Y-70366650D01*
X122524109Y-70366657D01*
X122325382Y-70481392D01*
X122143338Y-70621081D01*
X121981081Y-70783338D01*
X121841392Y-70965382D01*
X121726657Y-71164109D01*
X121726650Y-71164123D01*
X121638842Y-71376112D01*
X121608972Y-71487590D01*
X121588127Y-71565388D01*
X121579453Y-71597759D01*
X121579451Y-71597770D01*
X121549500Y-71825258D01*
X121549500Y-72054741D01*
X121571950Y-72225258D01*
X121579452Y-72282238D01*
X121614582Y-72413347D01*
X121638842Y-72503887D01*
X121726650Y-72715876D01*
X121726657Y-72715890D01*
X121767252Y-72786202D01*
X121838619Y-72909815D01*
X121841392Y-72914617D01*
X121981081Y-73096661D01*
X121981089Y-73096670D01*
X122143330Y-73258911D01*
X122143338Y-73258918D01*
X122143339Y-73258919D01*
X122161089Y-73272539D01*
X122325382Y-73398607D01*
X122325385Y-73398608D01*
X122325388Y-73398611D01*
X122524112Y-73513344D01*
X122524117Y-73513346D01*
X122524123Y-73513349D01*
X122606678Y-73547544D01*
X122736113Y-73601158D01*
X122957762Y-73660548D01*
X123174312Y-73689057D01*
X123185250Y-73690498D01*
X123185266Y-73690500D01*
X123185273Y-73690500D01*
X123414727Y-73690500D01*
X123414734Y-73690500D01*
X123642238Y-73660548D01*
X123863887Y-73601158D01*
X124075888Y-73513344D01*
X124274612Y-73398611D01*
X124456661Y-73258919D01*
X124456665Y-73258914D01*
X124456670Y-73258911D01*
X124618911Y-73096670D01*
X124618914Y-73096665D01*
X124618919Y-73096661D01*
X124758611Y-72914612D01*
X124873344Y-72715888D01*
X124961158Y-72503887D01*
X125020548Y-72282238D01*
X125027561Y-72228964D01*
X125055827Y-72165069D01*
X125114151Y-72126597D01*
X125184016Y-72125765D01*
X125243239Y-72162837D01*
X125273019Y-72226043D01*
X125274500Y-72245150D01*
X125274500Y-73237870D01*
X125274501Y-73237876D01*
X125280908Y-73297483D01*
X125331202Y-73432328D01*
X125331206Y-73432335D01*
X125417452Y-73547544D01*
X125417455Y-73547547D01*
X125532664Y-73633793D01*
X125532671Y-73633797D01*
X125577618Y-73650561D01*
X125667517Y-73684091D01*
X125727127Y-73690500D01*
X126325500Y-73690499D01*
X126392539Y-73710183D01*
X126438294Y-73762987D01*
X126449500Y-73814499D01*
X126449500Y-74963330D01*
X126449499Y-74963348D01*
X126449499Y-75129054D01*
X126449498Y-75129054D01*
X126490424Y-75281789D01*
X126490425Y-75281790D01*
X126507742Y-75311783D01*
X126507743Y-75311784D01*
X126569477Y-75418712D01*
X126569481Y-75418717D01*
X126688349Y-75537585D01*
X126688355Y-75537590D01*
X131515139Y-80364374D01*
X131515149Y-80364385D01*
X131519479Y-80368715D01*
X131519480Y-80368716D01*
X131631284Y-80480520D01*
X131718095Y-80530639D01*
X131718097Y-80530641D01*
X131756151Y-80552611D01*
X131768215Y-80559577D01*
X131920943Y-80600500D01*
X131920945Y-80600500D01*
X170920939Y-80600500D01*
X170920943Y-80600501D01*
X171079057Y-80600501D01*
X171079061Y-80600500D01*
X202913331Y-80600500D01*
X202913347Y-80600501D01*
X202920943Y-80600501D01*
X203079054Y-80600501D01*
X203079057Y-80600501D01*
X203231785Y-80559577D01*
X203281904Y-80530639D01*
X203368716Y-80480520D01*
X203480520Y-80368716D01*
X203480520Y-80368714D01*
X203490728Y-80358507D01*
X203490729Y-80358504D01*
X204986902Y-78862332D01*
X206899500Y-78862332D01*
X206899500Y-79137667D01*
X206899501Y-79137684D01*
X206935438Y-79410655D01*
X206935439Y-79410660D01*
X206935440Y-79410666D01*
X206935441Y-79410668D01*
X207006704Y-79676630D01*
X207112075Y-79931017D01*
X207112080Y-79931028D01*
X207191809Y-80069121D01*
X207249751Y-80169479D01*
X207249753Y-80169482D01*
X207249754Y-80169483D01*
X207417370Y-80387926D01*
X207417376Y-80387933D01*
X207612066Y-80582623D01*
X207612073Y-80582629D01*
X207701923Y-80651573D01*
X207830521Y-80750249D01*
X207983778Y-80838732D01*
X208068971Y-80887919D01*
X208068976Y-80887921D01*
X208068979Y-80887923D01*
X208323368Y-80993295D01*
X208589334Y-81064560D01*
X208862326Y-81100500D01*
X208862333Y-81100500D01*
X209137667Y-81100500D01*
X209137674Y-81100500D01*
X209410666Y-81064560D01*
X209676632Y-80993295D01*
X209931021Y-80887923D01*
X210169479Y-80750249D01*
X210387928Y-80582628D01*
X210582628Y-80387928D01*
X210750249Y-80169479D01*
X210887923Y-79931021D01*
X210993295Y-79676632D01*
X211064560Y-79410666D01*
X211100500Y-79137674D01*
X211100500Y-78862326D01*
X211064560Y-78589334D01*
X210993295Y-78323368D01*
X210887923Y-78068979D01*
X210887921Y-78068976D01*
X210887919Y-78068971D01*
X210838732Y-77983778D01*
X210750249Y-77830521D01*
X210582628Y-77612072D01*
X210582623Y-77612066D01*
X210387933Y-77417376D01*
X210387926Y-77417370D01*
X210169483Y-77249754D01*
X210169482Y-77249753D01*
X210169479Y-77249751D01*
X210074407Y-77194861D01*
X209931028Y-77112080D01*
X209931017Y-77112075D01*
X209676630Y-77006704D01*
X209543649Y-76971072D01*
X209410666Y-76935440D01*
X209410660Y-76935439D01*
X209410655Y-76935438D01*
X209137684Y-76899501D01*
X209137679Y-76899500D01*
X209137674Y-76899500D01*
X208862326Y-76899500D01*
X208862320Y-76899500D01*
X208862315Y-76899501D01*
X208589344Y-76935438D01*
X208589337Y-76935439D01*
X208589334Y-76935440D01*
X208533125Y-76950500D01*
X208323369Y-77006704D01*
X208068982Y-77112075D01*
X208068971Y-77112080D01*
X207830516Y-77249754D01*
X207612073Y-77417370D01*
X207612066Y-77417376D01*
X207417376Y-77612066D01*
X207417370Y-77612073D01*
X207249754Y-77830516D01*
X207112080Y-78068971D01*
X207112075Y-78068982D01*
X207006704Y-78323369D01*
X206935441Y-78589331D01*
X206935438Y-78589344D01*
X206899501Y-78862315D01*
X206899500Y-78862332D01*
X204986902Y-78862332D01*
X210980520Y-72868716D01*
X211059577Y-72731784D01*
X211100501Y-72579057D01*
X211100501Y-72420942D01*
X211100501Y-72413347D01*
X211100500Y-72413329D01*
X211100500Y-58709060D01*
X211100501Y-58709047D01*
X211100501Y-58540944D01*
X211083165Y-58476247D01*
X211059577Y-58388216D01*
X210989182Y-58266287D01*
X210980524Y-58251290D01*
X210980518Y-58251282D01*
X208833757Y-56104522D01*
X208800272Y-56043199D01*
X208803507Y-55978523D01*
X208817246Y-55936243D01*
X208850500Y-55726287D01*
X208850500Y-55513713D01*
X208817246Y-55303757D01*
X208751557Y-55101588D01*
X208655051Y-54912184D01*
X208655049Y-54912181D01*
X208655048Y-54912179D01*
X208530109Y-54740213D01*
X208379786Y-54589890D01*
X208207820Y-54464951D01*
X208207115Y-54464591D01*
X208199054Y-54460485D01*
X208148259Y-54412512D01*
X208131463Y-54344692D01*
X208153999Y-54278556D01*
X208199054Y-54239515D01*
X208207816Y-54235051D01*
X208229789Y-54219086D01*
X208379786Y-54110109D01*
X208379788Y-54110106D01*
X208379792Y-54110104D01*
X208530104Y-53959792D01*
X208530106Y-53959788D01*
X208530109Y-53959786D01*
X208655048Y-53787820D01*
X208655047Y-53787820D01*
X208655051Y-53787816D01*
X208751557Y-53598412D01*
X208817246Y-53396243D01*
X208850500Y-53186287D01*
X208850500Y-52973713D01*
X208817246Y-52763757D01*
X208751557Y-52561588D01*
X208655051Y-52372184D01*
X208655049Y-52372181D01*
X208655048Y-52372179D01*
X208530109Y-52200213D01*
X208379786Y-52049890D01*
X208207820Y-51924951D01*
X208207115Y-51924591D01*
X208199054Y-51920485D01*
X208148259Y-51872512D01*
X208131463Y-51804692D01*
X208153999Y-51738556D01*
X208199054Y-51699515D01*
X208207816Y-51695051D01*
X208251167Y-51663555D01*
X208379786Y-51570109D01*
X208379788Y-51570106D01*
X208379792Y-51570104D01*
X208530104Y-51419792D01*
X208530106Y-51419788D01*
X208530109Y-51419786D01*
X208655048Y-51247820D01*
X208655047Y-51247820D01*
X208655051Y-51247816D01*
X208751557Y-51058412D01*
X208817246Y-50856243D01*
X208850500Y-50646287D01*
X208850500Y-50433713D01*
X208817246Y-50223757D01*
X208751557Y-50021588D01*
X208655051Y-49832184D01*
X208655049Y-49832181D01*
X208655048Y-49832179D01*
X208530109Y-49660213D01*
X208379786Y-49509890D01*
X208207820Y-49384951D01*
X208207115Y-49384591D01*
X208199054Y-49380485D01*
X208148259Y-49332512D01*
X208131463Y-49264692D01*
X208153999Y-49198556D01*
X208199054Y-49159515D01*
X208207816Y-49155051D01*
X208294895Y-49091785D01*
X208379786Y-49030109D01*
X208379788Y-49030106D01*
X208379792Y-49030104D01*
X208530104Y-48879792D01*
X208530106Y-48879788D01*
X208530109Y-48879786D01*
X208655048Y-48707820D01*
X208655047Y-48707820D01*
X208655051Y-48707816D01*
X208751557Y-48518412D01*
X208817246Y-48316243D01*
X208850500Y-48106287D01*
X208850500Y-47893713D01*
X208817246Y-47683757D01*
X208751557Y-47481588D01*
X208655051Y-47292184D01*
X208655049Y-47292181D01*
X208655048Y-47292179D01*
X208530109Y-47120213D01*
X208379786Y-46969890D01*
X208207820Y-46844951D01*
X208207115Y-46844591D01*
X208199054Y-46840485D01*
X208148259Y-46792512D01*
X208131463Y-46724692D01*
X208153999Y-46658556D01*
X208199054Y-46619515D01*
X208207816Y-46615051D01*
X208334772Y-46522813D01*
X208379786Y-46490109D01*
X208379788Y-46490106D01*
X208379792Y-46490104D01*
X208530104Y-46339792D01*
X208530106Y-46339788D01*
X208530109Y-46339786D01*
X208655048Y-46167820D01*
X208655047Y-46167820D01*
X208655051Y-46167816D01*
X208751557Y-45978412D01*
X208817246Y-45776243D01*
X208850500Y-45566287D01*
X208850500Y-45353713D01*
X208817246Y-45143757D01*
X208751557Y-44941588D01*
X208655051Y-44752184D01*
X208655049Y-44752181D01*
X208655048Y-44752179D01*
X208530109Y-44580213D01*
X208379786Y-44429890D01*
X208207820Y-44304951D01*
X208207115Y-44304591D01*
X208199054Y-44300485D01*
X208148259Y-44252512D01*
X208131463Y-44184692D01*
X208153999Y-44118556D01*
X208199054Y-44079515D01*
X208207816Y-44075051D01*
X208229789Y-44059086D01*
X208379786Y-43950109D01*
X208379788Y-43950106D01*
X208379792Y-43950104D01*
X208530104Y-43799792D01*
X208530106Y-43799788D01*
X208530109Y-43799786D01*
X208655048Y-43627820D01*
X208655047Y-43627820D01*
X208655051Y-43627816D01*
X208751557Y-43438412D01*
X208817246Y-43236243D01*
X208850500Y-43026287D01*
X208850500Y-42813713D01*
X208817246Y-42603757D01*
X208751557Y-42401588D01*
X208655051Y-42212184D01*
X208655049Y-42212181D01*
X208655048Y-42212179D01*
X208530109Y-42040213D01*
X208379786Y-41889890D01*
X208207820Y-41764951D01*
X208199600Y-41760763D01*
X208199054Y-41760485D01*
X208148259Y-41712512D01*
X208131463Y-41644692D01*
X208153999Y-41578556D01*
X208199054Y-41539515D01*
X208207816Y-41535051D01*
X208349407Y-41432180D01*
X208379786Y-41410109D01*
X208379788Y-41410106D01*
X208379792Y-41410104D01*
X208530104Y-41259792D01*
X208530106Y-41259788D01*
X208530109Y-41259786D01*
X208655048Y-41087820D01*
X208655047Y-41087820D01*
X208655051Y-41087816D01*
X208751557Y-40898412D01*
X208817246Y-40696243D01*
X208850500Y-40486287D01*
X208850500Y-40273713D01*
X208817246Y-40063757D01*
X208751557Y-39861588D01*
X208655051Y-39672184D01*
X208655049Y-39672181D01*
X208655048Y-39672179D01*
X208530109Y-39500213D01*
X208379786Y-39349890D01*
X208207820Y-39224951D01*
X208018414Y-39128444D01*
X208018413Y-39128443D01*
X208018412Y-39128443D01*
X207816243Y-39062754D01*
X207816241Y-39062753D01*
X207816240Y-39062753D01*
X207654957Y-39037208D01*
X207606287Y-39029500D01*
X207393713Y-39029500D01*
X207345042Y-39037208D01*
X207183760Y-39062753D01*
X206981585Y-39128444D01*
X206792179Y-39224951D01*
X206620213Y-39349890D01*
X206469890Y-39500213D01*
X206344951Y-39672179D01*
X206248444Y-39861585D01*
X206182753Y-40063760D01*
X206149500Y-40273713D01*
X206149500Y-40486286D01*
X206174558Y-40644500D01*
X206182754Y-40696243D01*
X206247785Y-40896388D01*
X206248444Y-40898414D01*
X206344951Y-41087820D01*
X206469890Y-41259786D01*
X206620213Y-41410109D01*
X206792182Y-41535050D01*
X206800946Y-41539516D01*
X206851742Y-41587491D01*
X206868536Y-41655312D01*
X206845998Y-41721447D01*
X206800946Y-41760484D01*
X206792182Y-41764949D01*
X206620213Y-41889890D01*
X206469890Y-42040213D01*
X206344951Y-42212179D01*
X206248444Y-42401585D01*
X206182753Y-42603760D01*
X206159552Y-42750245D01*
X206149500Y-42813713D01*
X206149500Y-43026287D01*
X206154773Y-43059577D01*
X206182734Y-43236122D01*
X206182754Y-43236243D01*
X206209968Y-43320000D01*
X206248444Y-43438414D01*
X206344951Y-43627820D01*
X206469890Y-43799786D01*
X206620213Y-43950109D01*
X206792182Y-44075050D01*
X206800946Y-44079516D01*
X206851742Y-44127491D01*
X206868536Y-44195312D01*
X206845998Y-44261447D01*
X206800946Y-44300484D01*
X206792182Y-44304949D01*
X206620213Y-44429890D01*
X206469890Y-44580213D01*
X206344951Y-44752179D01*
X206248444Y-44941585D01*
X206182753Y-45143760D01*
X206149500Y-45353713D01*
X206149500Y-45566286D01*
X206182143Y-45772390D01*
X206182754Y-45776243D01*
X206241059Y-45955687D01*
X206248444Y-45978414D01*
X206344951Y-46167820D01*
X206469890Y-46339786D01*
X206620213Y-46490109D01*
X206792182Y-46615050D01*
X206800946Y-46619516D01*
X206851742Y-46667491D01*
X206868536Y-46735312D01*
X206845998Y-46801447D01*
X206800946Y-46840484D01*
X206792182Y-46844949D01*
X206620213Y-46969890D01*
X206469890Y-47120213D01*
X206344951Y-47292179D01*
X206248444Y-47481585D01*
X206182753Y-47683760D01*
X206169136Y-47769736D01*
X206149500Y-47893713D01*
X206149500Y-48106287D01*
X206182754Y-48316243D01*
X206198396Y-48364385D01*
X206248444Y-48518414D01*
X206344951Y-48707820D01*
X206469890Y-48879786D01*
X206620213Y-49030109D01*
X206792182Y-49155050D01*
X206800946Y-49159516D01*
X206851742Y-49207491D01*
X206868536Y-49275312D01*
X206845998Y-49341447D01*
X206800946Y-49380484D01*
X206792182Y-49384949D01*
X206620213Y-49509890D01*
X206469890Y-49660213D01*
X206344951Y-49832179D01*
X206248444Y-50021585D01*
X206182753Y-50223760D01*
X206149500Y-50433713D01*
X206149500Y-50646286D01*
X206179995Y-50838828D01*
X206182754Y-50856243D01*
X206237424Y-51024500D01*
X206248444Y-51058414D01*
X206344951Y-51247820D01*
X206469890Y-51419786D01*
X206620213Y-51570109D01*
X206792182Y-51695050D01*
X206800946Y-51699516D01*
X206851742Y-51747491D01*
X206868536Y-51815312D01*
X206845998Y-51881447D01*
X206800946Y-51920484D01*
X206792182Y-51924949D01*
X206620213Y-52049890D01*
X206469890Y-52200213D01*
X206344951Y-52372179D01*
X206248444Y-52561585D01*
X206182753Y-52763760D01*
X206168418Y-52854271D01*
X206149500Y-52973713D01*
X206149500Y-53186287D01*
X206182754Y-53396243D01*
X206238668Y-53568329D01*
X206248444Y-53598414D01*
X206344951Y-53787820D01*
X206469890Y-53959786D01*
X206620213Y-54110109D01*
X206792182Y-54235050D01*
X206800946Y-54239516D01*
X206851742Y-54287491D01*
X206868536Y-54355312D01*
X206845998Y-54421447D01*
X206800946Y-54460484D01*
X206792182Y-54464949D01*
X206620213Y-54589890D01*
X206469890Y-54740213D01*
X206344951Y-54912179D01*
X206248444Y-55101585D01*
X206182753Y-55303760D01*
X206149500Y-55513713D01*
X206149500Y-55726286D01*
X206182753Y-55936239D01*
X206182753Y-55936241D01*
X206182754Y-55936243D01*
X206237431Y-56104522D01*
X206248444Y-56138414D01*
X206344951Y-56327820D01*
X206469890Y-56499786D01*
X206620213Y-56650109D01*
X206792182Y-56775050D01*
X206800946Y-56779516D01*
X206851742Y-56827491D01*
X206868536Y-56895312D01*
X206845998Y-56961447D01*
X206800946Y-57000484D01*
X206792182Y-57004949D01*
X206620213Y-57129890D01*
X206469890Y-57280213D01*
X206344951Y-57452179D01*
X206248444Y-57641585D01*
X206182753Y-57843760D01*
X206149500Y-58053713D01*
X206149500Y-58266286D01*
X206182754Y-58476244D01*
X206182754Y-58476247D01*
X206196491Y-58518523D01*
X206198486Y-58588364D01*
X206166241Y-58644522D01*
X205962181Y-58848583D01*
X205900858Y-58882068D01*
X205831167Y-58877084D01*
X205775233Y-58835213D01*
X205750816Y-58769748D01*
X205750500Y-58760902D01*
X205750500Y-38624500D01*
X205770185Y-38557461D01*
X205822989Y-38511706D01*
X205874500Y-38500500D01*
X208934108Y-38500500D01*
X208996249Y-38500500D01*
X209003736Y-38500726D01*
X209293796Y-38518271D01*
X209308657Y-38520075D01*
X209400017Y-38536818D01*
X209590798Y-38571780D01*
X209605335Y-38575363D01*
X209879172Y-38660695D01*
X209893163Y-38666000D01*
X210154743Y-38783727D01*
X210167989Y-38790680D01*
X210413465Y-38939075D01*
X210425776Y-38947573D01*
X210651573Y-39124473D01*
X210662781Y-39134403D01*
X210865596Y-39337218D01*
X210875526Y-39348426D01*
X211039992Y-39558352D01*
X211052422Y-39574217D01*
X211060926Y-39586537D01*
X211201633Y-39819295D01*
X211209316Y-39832004D01*
X211216275Y-39845263D01*
X211333997Y-40106831D01*
X211339306Y-40120832D01*
X211424635Y-40394663D01*
X211428219Y-40409201D01*
X211479923Y-40691340D01*
X211481728Y-40706205D01*
X211499274Y-40996263D01*
X211499500Y-41003750D01*
X211499500Y-78996249D01*
X211499274Y-79003736D01*
X211481728Y-79293794D01*
X211479923Y-79308659D01*
X211428219Y-79590798D01*
X211424635Y-79605336D01*
X211339306Y-79879167D01*
X211333997Y-79893168D01*
X211216275Y-80154736D01*
X211209316Y-80167995D01*
X211060928Y-80413459D01*
X211052422Y-80425782D01*
X210875526Y-80651573D01*
X210865596Y-80662781D01*
X210662781Y-80865596D01*
X210651573Y-80875526D01*
X210425782Y-81052422D01*
X210413459Y-81060928D01*
X210167995Y-81209316D01*
X210154736Y-81216275D01*
X209893168Y-81333997D01*
X209879167Y-81339306D01*
X209605336Y-81424635D01*
X209590798Y-81428219D01*
X209308659Y-81479923D01*
X209293794Y-81481728D01*
X209003736Y-81499274D01*
X208996249Y-81499500D01*
X113503751Y-81499500D01*
X113496264Y-81499274D01*
X113206205Y-81481728D01*
X113191340Y-81479923D01*
X112909201Y-81428219D01*
X112894663Y-81424635D01*
X112620832Y-81339306D01*
X112606831Y-81333997D01*
X112345263Y-81216275D01*
X112332004Y-81209316D01*
X112086540Y-81060928D01*
X112074217Y-81052422D01*
X111848426Y-80875526D01*
X111837218Y-80865596D01*
X111634403Y-80662781D01*
X111624473Y-80651573D01*
X111529729Y-80530641D01*
X111447573Y-80425776D01*
X111439075Y-80413465D01*
X111290680Y-80167989D01*
X111283727Y-80154743D01*
X111166000Y-79893163D01*
X111160693Y-79879167D01*
X111147262Y-79836066D01*
X111075363Y-79605335D01*
X111071780Y-79590798D01*
X111020076Y-79308659D01*
X111018271Y-79293794D01*
X111000726Y-79003736D01*
X111000500Y-78996249D01*
X111000500Y-78862332D01*
X111399500Y-78862332D01*
X111399500Y-79137667D01*
X111399501Y-79137684D01*
X111435438Y-79410655D01*
X111435439Y-79410660D01*
X111435440Y-79410666D01*
X111435441Y-79410668D01*
X111506704Y-79676630D01*
X111612075Y-79931017D01*
X111612080Y-79931028D01*
X111691809Y-80069121D01*
X111749751Y-80169479D01*
X111749753Y-80169482D01*
X111749754Y-80169483D01*
X111917370Y-80387926D01*
X111917376Y-80387933D01*
X112112066Y-80582623D01*
X112112073Y-80582629D01*
X112201923Y-80651573D01*
X112330521Y-80750249D01*
X112483778Y-80838732D01*
X112568971Y-80887919D01*
X112568976Y-80887921D01*
X112568979Y-80887923D01*
X112823368Y-80993295D01*
X113089334Y-81064560D01*
X113362326Y-81100500D01*
X113362333Y-81100500D01*
X113637667Y-81100500D01*
X113637674Y-81100500D01*
X113910666Y-81064560D01*
X114176632Y-80993295D01*
X114431021Y-80887923D01*
X114669479Y-80750249D01*
X114887928Y-80582628D01*
X115082628Y-80387928D01*
X115250249Y-80169479D01*
X115387923Y-79931021D01*
X115493295Y-79676632D01*
X115564560Y-79410666D01*
X115600500Y-79137674D01*
X115600500Y-78862326D01*
X115564560Y-78589334D01*
X115493295Y-78323368D01*
X115387923Y-78068979D01*
X115387921Y-78068976D01*
X115387919Y-78068971D01*
X115338732Y-77983778D01*
X115250249Y-77830521D01*
X115082628Y-77612072D01*
X115082623Y-77612066D01*
X114887933Y-77417376D01*
X114887926Y-77417370D01*
X114669483Y-77249754D01*
X114669482Y-77249753D01*
X114669479Y-77249751D01*
X114574407Y-77194861D01*
X114431028Y-77112080D01*
X114431017Y-77112075D01*
X114176630Y-77006704D01*
X114043649Y-76971072D01*
X113910666Y-76935440D01*
X113910660Y-76935439D01*
X113910655Y-76935438D01*
X113637684Y-76899501D01*
X113637679Y-76899500D01*
X113637674Y-76899500D01*
X113362326Y-76899500D01*
X113362320Y-76899500D01*
X113362315Y-76899501D01*
X113089344Y-76935438D01*
X113089337Y-76935439D01*
X113089334Y-76935440D01*
X113033125Y-76950500D01*
X112823369Y-77006704D01*
X112568982Y-77112075D01*
X112568971Y-77112080D01*
X112330516Y-77249754D01*
X112112073Y-77417370D01*
X112112066Y-77417376D01*
X111917376Y-77612066D01*
X111917370Y-77612073D01*
X111749754Y-77830516D01*
X111612080Y-78068971D01*
X111612075Y-78068982D01*
X111506704Y-78323369D01*
X111435441Y-78589331D01*
X111435438Y-78589344D01*
X111399501Y-78862315D01*
X111399500Y-78862332D01*
X111000500Y-78862332D01*
X111000500Y-49006902D01*
X113059500Y-49006902D01*
X113059500Y-49243097D01*
X113096446Y-49476368D01*
X113169433Y-49700996D01*
X113245999Y-49851264D01*
X113276657Y-49911433D01*
X113415483Y-50102510D01*
X113582490Y-50269517D01*
X113638739Y-50310384D01*
X113681403Y-50365713D01*
X113686095Y-50397542D01*
X114348941Y-51060387D01*
X114328409Y-51065889D01*
X114191592Y-51144881D01*
X114079881Y-51256592D01*
X114000889Y-51393409D01*
X113995387Y-51413941D01*
X113337340Y-50755894D01*
X113277084Y-50838830D01*
X113169897Y-51049197D01*
X113096934Y-51273752D01*
X113060000Y-51506947D01*
X113060000Y-51743052D01*
X113096934Y-51976247D01*
X113169897Y-52200802D01*
X113277087Y-52411174D01*
X113337338Y-52494104D01*
X113337340Y-52494105D01*
X113995387Y-51836058D01*
X114000889Y-51856591D01*
X114079881Y-51993408D01*
X114191592Y-52105119D01*
X114328409Y-52184111D01*
X114348940Y-52189612D01*
X113684280Y-52854271D01*
X113675105Y-52897947D01*
X113638739Y-52939615D01*
X113582490Y-52980482D01*
X113415485Y-53147487D01*
X113415485Y-53147488D01*
X113415483Y-53147490D01*
X113386094Y-53187941D01*
X113276657Y-53338566D01*
X113169433Y-53549003D01*
X113096446Y-53773631D01*
X113059500Y-54006902D01*
X113059500Y-54243097D01*
X113096446Y-54476368D01*
X113169433Y-54700996D01*
X113276657Y-54911433D01*
X113415483Y-55102510D01*
X113415485Y-55102512D01*
X113582490Y-55269517D01*
X113589603Y-55274685D01*
X113632266Y-55330017D01*
X113638242Y-55399630D01*
X113605634Y-55461424D01*
X113589603Y-55475315D01*
X113582490Y-55480482D01*
X113415485Y-55647487D01*
X113415485Y-55647488D01*
X113415483Y-55647490D01*
X113358234Y-55726286D01*
X113276657Y-55838566D01*
X113169433Y-56049003D01*
X113096446Y-56273631D01*
X113059500Y-56506902D01*
X113059500Y-56743097D01*
X113096446Y-56976368D01*
X113169433Y-57200996D01*
X113276657Y-57411433D01*
X113415483Y-57602510D01*
X113582490Y-57769517D01*
X113773567Y-57908343D01*
X113872991Y-57959002D01*
X113984003Y-58015566D01*
X113984005Y-58015566D01*
X113984008Y-58015568D01*
X114096312Y-58052058D01*
X114208631Y-58088553D01*
X114441903Y-58125500D01*
X114441908Y-58125500D01*
X114678097Y-58125500D01*
X114911368Y-58088553D01*
X115135992Y-58015568D01*
X115346433Y-57908343D01*
X115537510Y-57769517D01*
X115704517Y-57602510D01*
X115843343Y-57411433D01*
X115950568Y-57200992D01*
X116023553Y-56976368D01*
X116036391Y-56895312D01*
X116060500Y-56743097D01*
X116060500Y-56506902D01*
X116023553Y-56273631D01*
X115979617Y-56138412D01*
X115950568Y-56049008D01*
X115950566Y-56049005D01*
X115950566Y-56049003D01*
X115843342Y-55838566D01*
X115704517Y-55647490D01*
X115537510Y-55480483D01*
X115530401Y-55475318D01*
X115487735Y-55419988D01*
X115481756Y-55350375D01*
X115514362Y-55288580D01*
X115530401Y-55274682D01*
X115530500Y-55274609D01*
X115537510Y-55269517D01*
X115704517Y-55102510D01*
X115843343Y-54911433D01*
X115950568Y-54700992D01*
X116023553Y-54476368D01*
X116040647Y-54368443D01*
X116060500Y-54243097D01*
X116060500Y-54006902D01*
X116023553Y-53773631D01*
X115966620Y-53598412D01*
X115950568Y-53549008D01*
X115950566Y-53549005D01*
X115950566Y-53549003D01*
X115843342Y-53338566D01*
X115811335Y-53294512D01*
X115704517Y-53147490D01*
X115537510Y-52980483D01*
X115481259Y-52939614D01*
X115448390Y-52904041D01*
X115389824Y-52808377D01*
X115316015Y-52734568D01*
X122059500Y-52734568D01*
X122059500Y-53015431D01*
X122090942Y-53294494D01*
X122090945Y-53294512D01*
X122153439Y-53568317D01*
X122153443Y-53568329D01*
X122246200Y-53833411D01*
X122368053Y-54086442D01*
X122368055Y-54086445D01*
X122517477Y-54324248D01*
X122692584Y-54543825D01*
X122891175Y-54742416D01*
X123110752Y-54917523D01*
X123348555Y-55066945D01*
X123601592Y-55188801D01*
X123732001Y-55234433D01*
X123866670Y-55281556D01*
X123866682Y-55281560D01*
X124140491Y-55344055D01*
X124140497Y-55344055D01*
X124140505Y-55344057D01*
X124326547Y-55365018D01*
X124419569Y-55375499D01*
X124419572Y-55375500D01*
X124419575Y-55375500D01*
X124700428Y-55375500D01*
X124700429Y-55375499D01*
X124843055Y-55359429D01*
X124979494Y-55344057D01*
X124979499Y-55344056D01*
X124979509Y-55344055D01*
X125253318Y-55281560D01*
X125518408Y-55188801D01*
X125771445Y-55066945D01*
X126009248Y-54917523D01*
X126228825Y-54742416D01*
X126427416Y-54543825D01*
X126602523Y-54324248D01*
X126751945Y-54086445D01*
X126873801Y-53833408D01*
X126966560Y-53568318D01*
X127029055Y-53294509D01*
X127038737Y-53208583D01*
X127048616Y-53120902D01*
X127060500Y-53015425D01*
X127060500Y-52734575D01*
X127045620Y-52602510D01*
X127029057Y-52455505D01*
X127029054Y-52455487D01*
X126966560Y-52181682D01*
X126966556Y-52181670D01*
X126895482Y-51978554D01*
X126873801Y-51916592D01*
X126751945Y-51663555D01*
X126602523Y-51425752D01*
X126427416Y-51206175D01*
X126228825Y-51007584D01*
X126204494Y-50988181D01*
X126120450Y-50921158D01*
X126009248Y-50832477D01*
X125771445Y-50683055D01*
X125771442Y-50683053D01*
X125518411Y-50561200D01*
X125253329Y-50468443D01*
X125253317Y-50468439D01*
X124979512Y-50405945D01*
X124979494Y-50405942D01*
X124700431Y-50374500D01*
X124700425Y-50374500D01*
X124419575Y-50374500D01*
X124419568Y-50374500D01*
X124140505Y-50405942D01*
X124140487Y-50405945D01*
X123866682Y-50468439D01*
X123866670Y-50468443D01*
X123601588Y-50561200D01*
X123348557Y-50683053D01*
X123110753Y-50832476D01*
X122891175Y-51007583D01*
X122692583Y-51206175D01*
X122517476Y-51425753D01*
X122368053Y-51663557D01*
X122246200Y-51916588D01*
X122153443Y-52181670D01*
X122153439Y-52181682D01*
X122090945Y-52455487D01*
X122090942Y-52455505D01*
X122059500Y-52734568D01*
X115316015Y-52734568D01*
X114771058Y-52189612D01*
X114791591Y-52184111D01*
X114928408Y-52105119D01*
X115040119Y-51993408D01*
X115119111Y-51856591D01*
X115124612Y-51836059D01*
X115782658Y-52494105D01*
X115782658Y-52494104D01*
X115842914Y-52411169D01*
X115842918Y-52411163D01*
X115950102Y-52200802D01*
X116023065Y-51976247D01*
X116060000Y-51743052D01*
X116060000Y-51506947D01*
X116023065Y-51273752D01*
X115950102Y-51049197D01*
X115842914Y-50838828D01*
X115782658Y-50755894D01*
X115782658Y-50755893D01*
X115124612Y-51413940D01*
X115119111Y-51393409D01*
X115040119Y-51256592D01*
X114928408Y-51144881D01*
X114791591Y-51065889D01*
X114771059Y-51060387D01*
X115435716Y-50395729D01*
X115444891Y-50352054D01*
X115481257Y-50310386D01*
X115537510Y-50269517D01*
X115704517Y-50102510D01*
X115843343Y-49911433D01*
X115950568Y-49700992D01*
X116023553Y-49476368D01*
X116038032Y-49384951D01*
X116060500Y-49243097D01*
X116060500Y-49006902D01*
X116023553Y-48773631D01*
X115962672Y-48586260D01*
X115950568Y-48549008D01*
X115950566Y-48549005D01*
X115950566Y-48549003D01*
X115894002Y-48437991D01*
X115843343Y-48338567D01*
X115704517Y-48147490D01*
X115537510Y-47980483D01*
X115346433Y-47841657D01*
X115135996Y-47734433D01*
X114911368Y-47661446D01*
X114678097Y-47624500D01*
X114678092Y-47624500D01*
X114441908Y-47624500D01*
X114441903Y-47624500D01*
X114208631Y-47661446D01*
X113984003Y-47734433D01*
X113773566Y-47841657D01*
X113701918Y-47893713D01*
X113582490Y-47980483D01*
X113582488Y-47980485D01*
X113582487Y-47980485D01*
X113415485Y-48147487D01*
X113415485Y-48147488D01*
X113415483Y-48147490D01*
X113355862Y-48229550D01*
X113276657Y-48338566D01*
X113169433Y-48549003D01*
X113096446Y-48773631D01*
X113059500Y-49006902D01*
X111000500Y-49006902D01*
X111000500Y-42579054D01*
X118399498Y-42579054D01*
X118440424Y-42731789D01*
X118440425Y-42731790D01*
X118461455Y-42768214D01*
X118461456Y-42768216D01*
X118519475Y-42868709D01*
X118519481Y-42868717D01*
X118638349Y-42987585D01*
X118638355Y-42987590D01*
X123515139Y-47864374D01*
X123515149Y-47864385D01*
X123519479Y-47868715D01*
X123519480Y-47868716D01*
X123631284Y-47980520D01*
X123668590Y-48002058D01*
X123718095Y-48030639D01*
X123718097Y-48030641D01*
X123756151Y-48052611D01*
X123768215Y-48059577D01*
X123920943Y-48100501D01*
X123920946Y-48100501D01*
X124086653Y-48100501D01*
X124086669Y-48100500D01*
X125699903Y-48100500D01*
X125766942Y-48120185D01*
X125787584Y-48136819D01*
X128665425Y-51014660D01*
X128698910Y-51075983D01*
X128699361Y-51078149D01*
X128730261Y-51233491D01*
X128730264Y-51233501D01*
X128790602Y-51379172D01*
X128790609Y-51379185D01*
X128878210Y-51510288D01*
X128878213Y-51510292D01*
X128989707Y-51621786D01*
X128989711Y-51621789D01*
X129120814Y-51709390D01*
X129120827Y-51709397D01*
X129266498Y-51769735D01*
X129266503Y-51769737D01*
X129376199Y-51791557D01*
X129421153Y-51800499D01*
X129421156Y-51800500D01*
X129421158Y-51800500D01*
X129578844Y-51800500D01*
X129578845Y-51800499D01*
X129733497Y-51769737D01*
X129879179Y-51709394D01*
X130010289Y-51621789D01*
X130121789Y-51510289D01*
X130209394Y-51379179D01*
X130269737Y-51233497D01*
X130300500Y-51078842D01*
X130300500Y-50921158D01*
X130300500Y-50921155D01*
X130300499Y-50921153D01*
X130269737Y-50766503D01*
X130220440Y-50647488D01*
X130209397Y-50620827D01*
X130209390Y-50620814D01*
X130121789Y-50489711D01*
X130121786Y-50489707D01*
X130010292Y-50378213D01*
X130010288Y-50378210D01*
X129879185Y-50290609D01*
X129879172Y-50290602D01*
X129733501Y-50230264D01*
X129733491Y-50230261D01*
X129578149Y-50199361D01*
X129516238Y-50166976D01*
X129514660Y-50165425D01*
X126487590Y-47138355D01*
X126487588Y-47138352D01*
X126368717Y-47019481D01*
X126368716Y-47019480D01*
X126281904Y-46969360D01*
X126281904Y-46969359D01*
X126281900Y-46969358D01*
X126231785Y-46940423D01*
X126079057Y-46899499D01*
X125920943Y-46899499D01*
X125913347Y-46899499D01*
X125913331Y-46899500D01*
X124300097Y-46899500D01*
X124233058Y-46879815D01*
X124212416Y-46863181D01*
X120509013Y-43159778D01*
X130829500Y-43159778D01*
X130829500Y-43380221D01*
X130863985Y-43597952D01*
X130932103Y-43807603D01*
X130932104Y-43807606D01*
X130968737Y-43879500D01*
X131013552Y-43967454D01*
X131032187Y-44004025D01*
X131161752Y-44182358D01*
X131161756Y-44182363D01*
X131317636Y-44338243D01*
X131317641Y-44338247D01*
X131472559Y-44450800D01*
X131495978Y-44467815D01*
X131624375Y-44533237D01*
X131692393Y-44567895D01*
X131692396Y-44567896D01*
X131730305Y-44580213D01*
X131902049Y-44636015D01*
X132119778Y-44670500D01*
X132119779Y-44670500D01*
X132340221Y-44670500D01*
X132340222Y-44670500D01*
X132557951Y-44636015D01*
X132767606Y-44567895D01*
X132964022Y-44467815D01*
X133142365Y-44338242D01*
X133298242Y-44182365D01*
X133427815Y-44004022D01*
X133527895Y-43807606D01*
X133596015Y-43597951D01*
X133630500Y-43380222D01*
X133630500Y-43159778D01*
X137964500Y-43159778D01*
X137964500Y-43380221D01*
X137998985Y-43597952D01*
X138067103Y-43807603D01*
X138067104Y-43807606D01*
X138103737Y-43879500D01*
X138148552Y-43967454D01*
X138167187Y-44004025D01*
X138296752Y-44182358D01*
X138296756Y-44182363D01*
X138452636Y-44338243D01*
X138452641Y-44338247D01*
X138607559Y-44450800D01*
X138630978Y-44467815D01*
X138759375Y-44533237D01*
X138827393Y-44567895D01*
X138827396Y-44567896D01*
X138865305Y-44580213D01*
X139037049Y-44636015D01*
X139254778Y-44670500D01*
X139254779Y-44670500D01*
X139475221Y-44670500D01*
X139475222Y-44670500D01*
X139692951Y-44636015D01*
X139902606Y-44567895D01*
X140099022Y-44467815D01*
X140277365Y-44338242D01*
X140433242Y-44182365D01*
X140562815Y-44004022D01*
X140662895Y-43807606D01*
X140731015Y-43597951D01*
X140765500Y-43380222D01*
X140765500Y-43159778D01*
X145099500Y-43159778D01*
X145099500Y-43380221D01*
X145133985Y-43597952D01*
X145202103Y-43807603D01*
X145202104Y-43807606D01*
X145238737Y-43879500D01*
X145283552Y-43967454D01*
X145302187Y-44004025D01*
X145431752Y-44182358D01*
X145431756Y-44182363D01*
X145587636Y-44338243D01*
X145587641Y-44338247D01*
X145742559Y-44450800D01*
X145765978Y-44467815D01*
X145894375Y-44533237D01*
X145962393Y-44567895D01*
X145962396Y-44567896D01*
X146000305Y-44580213D01*
X146172049Y-44636015D01*
X146389778Y-44670500D01*
X146389779Y-44670500D01*
X146610221Y-44670500D01*
X146610222Y-44670500D01*
X146827951Y-44636015D01*
X147037606Y-44567895D01*
X147234022Y-44467815D01*
X147412365Y-44338242D01*
X147568242Y-44182365D01*
X147697815Y-44004022D01*
X147797895Y-43807606D01*
X147866015Y-43597951D01*
X147900500Y-43380222D01*
X147900500Y-43159778D01*
X147866015Y-42942049D01*
X147809534Y-42768215D01*
X147797896Y-42732396D01*
X147797895Y-42732393D01*
X147732409Y-42603872D01*
X147697815Y-42535978D01*
X147608707Y-42413330D01*
X147568247Y-42357641D01*
X147568243Y-42357636D01*
X147517683Y-42307076D01*
X147484198Y-42245753D01*
X147489182Y-42176061D01*
X147531054Y-42120128D01*
X147562031Y-42103213D01*
X147642086Y-42073354D01*
X147642093Y-42073350D01*
X147757187Y-41987190D01*
X147757190Y-41987187D01*
X147843350Y-41872093D01*
X147843354Y-41872086D01*
X147893596Y-41737379D01*
X147893598Y-41737372D01*
X147899999Y-41677844D01*
X147900000Y-41677827D01*
X147900000Y-40980000D01*
X146875278Y-40980000D01*
X146919333Y-40903694D01*
X146950000Y-40789244D01*
X146950000Y-40670756D01*
X146919333Y-40556306D01*
X146875278Y-40480000D01*
X147900000Y-40480000D01*
X147900000Y-39782172D01*
X147899999Y-39782155D01*
X147893598Y-39722627D01*
X147893596Y-39722620D01*
X147843354Y-39587913D01*
X147843350Y-39587906D01*
X147757190Y-39472812D01*
X147757187Y-39472809D01*
X147642093Y-39386649D01*
X147642086Y-39386645D01*
X147507379Y-39336403D01*
X147507372Y-39336401D01*
X147447844Y-39330000D01*
X146750000Y-39330000D01*
X146750000Y-40354722D01*
X146673694Y-40310667D01*
X146559244Y-40280000D01*
X146440756Y-40280000D01*
X146326306Y-40310667D01*
X146250000Y-40354722D01*
X146250000Y-39330000D01*
X145552155Y-39330000D01*
X145492627Y-39336401D01*
X145492620Y-39336403D01*
X145357913Y-39386645D01*
X145357906Y-39386649D01*
X145242812Y-39472809D01*
X145242809Y-39472812D01*
X145156649Y-39587906D01*
X145156645Y-39587913D01*
X145106403Y-39722620D01*
X145106401Y-39722627D01*
X145100000Y-39782155D01*
X145100000Y-40480000D01*
X146124722Y-40480000D01*
X146080667Y-40556306D01*
X146050000Y-40670756D01*
X146050000Y-40789244D01*
X146080667Y-40903694D01*
X146124722Y-40980000D01*
X145100000Y-40980000D01*
X145100000Y-41677844D01*
X145106401Y-41737372D01*
X145106403Y-41737379D01*
X145156645Y-41872086D01*
X145156649Y-41872093D01*
X145242809Y-41987187D01*
X145242812Y-41987190D01*
X145357906Y-42073350D01*
X145357913Y-42073354D01*
X145437968Y-42103213D01*
X145493902Y-42145084D01*
X145518319Y-42210549D01*
X145503467Y-42278822D01*
X145482317Y-42307075D01*
X145431756Y-42357636D01*
X145431752Y-42357641D01*
X145302187Y-42535974D01*
X145202104Y-42732393D01*
X145202103Y-42732396D01*
X145133985Y-42942047D01*
X145099500Y-43159778D01*
X140765500Y-43159778D01*
X140731015Y-42942049D01*
X140674534Y-42768215D01*
X140662896Y-42732396D01*
X140662895Y-42732393D01*
X140597409Y-42603872D01*
X140562815Y-42535978D01*
X140473707Y-42413330D01*
X140433247Y-42357641D01*
X140433243Y-42357636D01*
X140382683Y-42307076D01*
X140349198Y-42245753D01*
X140354182Y-42176061D01*
X140396054Y-42120128D01*
X140427031Y-42103213D01*
X140507086Y-42073354D01*
X140507093Y-42073350D01*
X140622187Y-41987190D01*
X140622190Y-41987187D01*
X140708350Y-41872093D01*
X140708354Y-41872086D01*
X140758596Y-41737379D01*
X140758598Y-41737372D01*
X140764999Y-41677844D01*
X140765000Y-41677827D01*
X140765000Y-40980000D01*
X139740278Y-40980000D01*
X139784333Y-40903694D01*
X139815000Y-40789244D01*
X139815000Y-40670756D01*
X139784333Y-40556306D01*
X139740278Y-40480000D01*
X140765000Y-40480000D01*
X140765000Y-39782172D01*
X140764999Y-39782155D01*
X140758598Y-39722627D01*
X140758596Y-39722620D01*
X140708354Y-39587913D01*
X140708350Y-39587906D01*
X140622190Y-39472812D01*
X140622187Y-39472809D01*
X140507093Y-39386649D01*
X140507086Y-39386645D01*
X140372379Y-39336403D01*
X140372372Y-39336401D01*
X140312844Y-39330000D01*
X139615000Y-39330000D01*
X139615000Y-40354722D01*
X139538694Y-40310667D01*
X139424244Y-40280000D01*
X139305756Y-40280000D01*
X139191306Y-40310667D01*
X139115000Y-40354722D01*
X139115000Y-39330000D01*
X138417155Y-39330000D01*
X138357627Y-39336401D01*
X138357620Y-39336403D01*
X138222913Y-39386645D01*
X138222906Y-39386649D01*
X138107812Y-39472809D01*
X138107809Y-39472812D01*
X138021649Y-39587906D01*
X138021645Y-39587913D01*
X137971403Y-39722620D01*
X137971401Y-39722627D01*
X137965000Y-39782155D01*
X137965000Y-40480000D01*
X138989722Y-40480000D01*
X138945667Y-40556306D01*
X138915000Y-40670756D01*
X138915000Y-40789244D01*
X138945667Y-40903694D01*
X138989722Y-40980000D01*
X137965000Y-40980000D01*
X137965000Y-41677844D01*
X137971401Y-41737372D01*
X137971403Y-41737379D01*
X138021645Y-41872086D01*
X138021649Y-41872093D01*
X138107809Y-41987187D01*
X138107812Y-41987190D01*
X138222906Y-42073350D01*
X138222913Y-42073354D01*
X138302968Y-42103213D01*
X138358902Y-42145084D01*
X138383319Y-42210549D01*
X138368467Y-42278822D01*
X138347317Y-42307075D01*
X138296756Y-42357636D01*
X138296752Y-42357641D01*
X138167187Y-42535974D01*
X138067104Y-42732393D01*
X138067103Y-42732396D01*
X137998985Y-42942047D01*
X137964500Y-43159778D01*
X133630500Y-43159778D01*
X133596015Y-42942049D01*
X133539534Y-42768215D01*
X133527896Y-42732396D01*
X133527895Y-42732393D01*
X133462409Y-42603872D01*
X133427815Y-42535978D01*
X133338707Y-42413330D01*
X133298247Y-42357641D01*
X133298243Y-42357636D01*
X133247683Y-42307076D01*
X133214198Y-42245753D01*
X133219182Y-42176061D01*
X133261054Y-42120128D01*
X133292031Y-42103213D01*
X133372086Y-42073354D01*
X133372093Y-42073350D01*
X133487187Y-41987190D01*
X133487190Y-41987187D01*
X133573350Y-41872093D01*
X133573354Y-41872086D01*
X133623596Y-41737379D01*
X133623598Y-41737372D01*
X133629999Y-41677844D01*
X133630000Y-41677827D01*
X133630000Y-40980000D01*
X132605278Y-40980000D01*
X132649333Y-40903694D01*
X132680000Y-40789244D01*
X132680000Y-40670756D01*
X132649333Y-40556306D01*
X132605278Y-40480000D01*
X133630000Y-40480000D01*
X133630000Y-39782172D01*
X133629999Y-39782155D01*
X133623598Y-39722627D01*
X133623596Y-39722620D01*
X133573354Y-39587913D01*
X133573350Y-39587906D01*
X133487190Y-39472812D01*
X133487187Y-39472809D01*
X133372093Y-39386649D01*
X133372086Y-39386645D01*
X133237379Y-39336403D01*
X133237372Y-39336401D01*
X133177844Y-39330000D01*
X132480000Y-39330000D01*
X132480000Y-40354722D01*
X132403694Y-40310667D01*
X132289244Y-40280000D01*
X132170756Y-40280000D01*
X132056306Y-40310667D01*
X131980000Y-40354722D01*
X131980000Y-39330000D01*
X131282155Y-39330000D01*
X131222627Y-39336401D01*
X131222620Y-39336403D01*
X131087913Y-39386645D01*
X131087906Y-39386649D01*
X130972812Y-39472809D01*
X130972809Y-39472812D01*
X130886649Y-39587906D01*
X130886645Y-39587913D01*
X130836403Y-39722620D01*
X130836401Y-39722627D01*
X130830000Y-39782155D01*
X130830000Y-40480000D01*
X131854722Y-40480000D01*
X131810667Y-40556306D01*
X131780000Y-40670756D01*
X131780000Y-40789244D01*
X131810667Y-40903694D01*
X131854722Y-40980000D01*
X130830000Y-40980000D01*
X130830000Y-41677844D01*
X130836401Y-41737372D01*
X130836403Y-41737379D01*
X130886645Y-41872086D01*
X130886649Y-41872093D01*
X130972809Y-41987187D01*
X130972812Y-41987190D01*
X131087906Y-42073350D01*
X131087913Y-42073354D01*
X131167968Y-42103213D01*
X131223902Y-42145084D01*
X131248319Y-42210549D01*
X131233467Y-42278822D01*
X131212317Y-42307075D01*
X131161756Y-42357636D01*
X131161752Y-42357641D01*
X131032187Y-42535974D01*
X130932104Y-42732393D01*
X130932103Y-42732396D01*
X130863985Y-42942047D01*
X130829500Y-43159778D01*
X120509013Y-43159778D01*
X119636819Y-42287584D01*
X119603334Y-42226261D01*
X119600500Y-42199903D01*
X119600500Y-40862332D01*
X124799500Y-40862332D01*
X124799500Y-41137667D01*
X124799501Y-41137684D01*
X124835438Y-41410655D01*
X124835439Y-41410660D01*
X124835440Y-41410666D01*
X124841205Y-41432180D01*
X124906704Y-41676630D01*
X125012075Y-41931017D01*
X125012080Y-41931028D01*
X125075116Y-42040208D01*
X125149751Y-42169479D01*
X125149753Y-42169482D01*
X125149754Y-42169483D01*
X125317370Y-42387926D01*
X125317376Y-42387933D01*
X125512066Y-42582623D01*
X125512072Y-42582628D01*
X125730521Y-42750249D01*
X125883778Y-42838732D01*
X125968971Y-42887919D01*
X125968976Y-42887921D01*
X125968979Y-42887923D01*
X126223368Y-42993295D01*
X126489334Y-43064560D01*
X126762326Y-43100500D01*
X126762333Y-43100500D01*
X127037667Y-43100500D01*
X127037674Y-43100500D01*
X127310666Y-43064560D01*
X127576632Y-42993295D01*
X127831021Y-42887923D01*
X128069479Y-42750249D01*
X128287928Y-42582628D01*
X128482628Y-42387928D01*
X128650249Y-42169479D01*
X128787923Y-41931021D01*
X128893295Y-41676632D01*
X128964560Y-41410666D01*
X129000500Y-41137674D01*
X129000500Y-40862326D01*
X128964560Y-40589334D01*
X128893295Y-40323368D01*
X128787923Y-40068979D01*
X128650249Y-39830521D01*
X128650244Y-39830514D01*
X128650242Y-39830511D01*
X128482629Y-39612073D01*
X128482623Y-39612066D01*
X128287933Y-39417376D01*
X128287926Y-39417370D01*
X128069483Y-39249754D01*
X128069482Y-39249753D01*
X128069479Y-39249751D01*
X127974407Y-39194861D01*
X127831028Y-39112080D01*
X127831017Y-39112075D01*
X127576630Y-39006704D01*
X127443649Y-38971072D01*
X127310666Y-38935440D01*
X127310660Y-38935439D01*
X127310655Y-38935438D01*
X127037684Y-38899501D01*
X127037679Y-38899500D01*
X127037674Y-38899500D01*
X126762326Y-38899500D01*
X126762320Y-38899500D01*
X126762315Y-38899501D01*
X126489344Y-38935438D01*
X126489337Y-38935439D01*
X126489334Y-38935440D01*
X126475783Y-38939071D01*
X126223369Y-39006704D01*
X125968982Y-39112075D01*
X125968971Y-39112080D01*
X125730516Y-39249754D01*
X125512073Y-39417370D01*
X125512066Y-39417376D01*
X125317376Y-39612066D01*
X125317370Y-39612073D01*
X125149754Y-39830516D01*
X125012080Y-40068971D01*
X125012075Y-40068982D01*
X124906704Y-40323369D01*
X124835441Y-40589331D01*
X124835438Y-40589344D01*
X124799501Y-40862315D01*
X124799500Y-40862332D01*
X119600500Y-40862332D01*
X119600500Y-40420945D01*
X119600500Y-40420943D01*
X119559577Y-40268216D01*
X119504975Y-40173641D01*
X119480524Y-40131290D01*
X119480518Y-40131282D01*
X119368717Y-40019481D01*
X119368709Y-40019475D01*
X119231790Y-39940426D01*
X119231786Y-39940424D01*
X119231784Y-39940423D01*
X119079057Y-39899500D01*
X118920943Y-39899500D01*
X118768216Y-39940423D01*
X118768209Y-39940426D01*
X118631290Y-40019475D01*
X118631282Y-40019481D01*
X118519481Y-40131282D01*
X118519475Y-40131290D01*
X118440426Y-40268209D01*
X118440423Y-40268216D01*
X118399500Y-40420943D01*
X118399500Y-42413330D01*
X118399499Y-42413348D01*
X118399499Y-42579054D01*
X118399498Y-42579054D01*
X111000500Y-42579054D01*
X111000500Y-41003750D01*
X111000726Y-40996263D01*
X111002778Y-40962335D01*
X111018271Y-40706201D01*
X111020076Y-40691340D01*
X111027701Y-40649735D01*
X111071780Y-40409197D01*
X111075364Y-40394663D01*
X111160696Y-40120822D01*
X111165998Y-40106841D01*
X111283731Y-39845249D01*
X111290676Y-39832016D01*
X111439080Y-39586526D01*
X111447567Y-39574230D01*
X111624480Y-39348417D01*
X111634395Y-39337226D01*
X111837226Y-39134395D01*
X111848417Y-39124480D01*
X112074230Y-38947567D01*
X112086526Y-38939080D01*
X112332016Y-38790676D01*
X112345249Y-38783731D01*
X112606841Y-38665998D01*
X112620822Y-38660696D01*
X112894668Y-38575362D01*
X112909197Y-38571780D01*
X113191344Y-38520075D01*
X113206201Y-38518271D01*
X113496264Y-38500726D01*
X113503751Y-38500500D01*
X113565892Y-38500500D01*
X152319823Y-38500500D01*
X152386862Y-38520185D01*
G37*
%TD.AperFunction*%
%TA.AperFunction,Conductor*%
G36*
X164871691Y-43602294D02*
G01*
X164877953Y-43601119D01*
X164904812Y-43612020D01*
X164932618Y-43620185D01*
X164936788Y-43624998D01*
X164942694Y-43627395D01*
X164959399Y-43651092D01*
X164978373Y-43672989D01*
X164979279Y-43679292D01*
X164982951Y-43684501D01*
X164984192Y-43713460D01*
X164988317Y-43742147D01*
X164985670Y-43747942D01*
X164985943Y-43754307D01*
X164971333Y-43779336D01*
X164959292Y-43805703D01*
X164953126Y-43810527D01*
X164950721Y-43814649D01*
X164921874Y-43834985D01*
X164818386Y-43887715D01*
X164652786Y-44008028D01*
X164508028Y-44152786D01*
X164387715Y-44318386D01*
X164294781Y-44500776D01*
X164231522Y-44695465D01*
X164199500Y-44897648D01*
X164199500Y-45102351D01*
X164231522Y-45304534D01*
X164294781Y-45499223D01*
X164358691Y-45624653D01*
X164381389Y-45669199D01*
X164387715Y-45681613D01*
X164508028Y-45847213D01*
X164508034Y-45847219D01*
X164652781Y-45991966D01*
X164818390Y-46112287D01*
X164831793Y-46119116D01*
X164882589Y-46167088D01*
X164899500Y-46229601D01*
X164899500Y-50013330D01*
X164899499Y-50013348D01*
X164899499Y-50179054D01*
X164899498Y-50179054D01*
X164940423Y-50331787D01*
X164946118Y-50341648D01*
X164946120Y-50341659D01*
X164946123Y-50341658D01*
X165019475Y-50468709D01*
X165019481Y-50468717D01*
X165138349Y-50587585D01*
X165138354Y-50587589D01*
X175581284Y-61030520D01*
X175581286Y-61030521D01*
X175581290Y-61030524D01*
X175694225Y-61095726D01*
X175718216Y-61109577D01*
X175870943Y-61150501D01*
X175870945Y-61150501D01*
X176036654Y-61150501D01*
X176036670Y-61150500D01*
X178249903Y-61150500D01*
X178316942Y-61170185D01*
X178337584Y-61186819D01*
X178863181Y-61712416D01*
X178896666Y-61773739D01*
X178899500Y-61800097D01*
X178899500Y-62627974D01*
X178879815Y-62695013D01*
X178831796Y-62738458D01*
X178705182Y-62802971D01*
X178572325Y-62899499D01*
X178512067Y-62943279D01*
X178512065Y-62943281D01*
X178512064Y-62943281D01*
X178343281Y-63112064D01*
X178343281Y-63112065D01*
X178343279Y-63112067D01*
X178329317Y-63131284D01*
X178202973Y-63305180D01*
X178138460Y-63431795D01*
X178090485Y-63482591D01*
X178027975Y-63499500D01*
X176820940Y-63499500D01*
X176780019Y-63510464D01*
X176780019Y-63510465D01*
X176752399Y-63517866D01*
X176668214Y-63540423D01*
X176668209Y-63540426D01*
X176531290Y-63619475D01*
X176531282Y-63619481D01*
X175209481Y-64941282D01*
X175209477Y-64941287D01*
X175165266Y-65017865D01*
X175165266Y-65017866D01*
X175130423Y-65078214D01*
X175123140Y-65105395D01*
X175089499Y-65230943D01*
X175089499Y-65230945D01*
X175089499Y-65399046D01*
X175089500Y-65399059D01*
X175089500Y-65845439D01*
X175069815Y-65912478D01*
X175021795Y-65955924D01*
X174828617Y-66054353D01*
X174619329Y-66206410D01*
X174436410Y-66389329D01*
X174284353Y-66598617D01*
X174166902Y-66829129D01*
X174166104Y-66831056D01*
X174165606Y-66831673D01*
X174164698Y-66833456D01*
X174164323Y-66833264D01*
X174122252Y-66885450D01*
X174099015Y-66898136D01*
X174093501Y-66900420D01*
X173956569Y-66979477D01*
X173956564Y-66979481D01*
X171947581Y-68988464D01*
X171947580Y-68988466D01*
X171907436Y-69057998D01*
X171868523Y-69125397D01*
X171827599Y-69278125D01*
X171827599Y-69278127D01*
X171827599Y-69446228D01*
X171827600Y-69446241D01*
X171827600Y-71341430D01*
X171827599Y-71341448D01*
X171827599Y-71507154D01*
X171827598Y-71507154D01*
X171827599Y-71507157D01*
X171868523Y-71659885D01*
X171896427Y-71708216D01*
X171896427Y-71708217D01*
X171947575Y-71796809D01*
X171947581Y-71796817D01*
X172066449Y-71915685D01*
X172066455Y-71915690D01*
X172573181Y-72422416D01*
X172606666Y-72483739D01*
X172609500Y-72510097D01*
X172609500Y-73205500D01*
X172589815Y-73272539D01*
X172537011Y-73318294D01*
X172485500Y-73329500D01*
X171887129Y-73329500D01*
X171887123Y-73329501D01*
X171827516Y-73335908D01*
X171692671Y-73386202D01*
X171692664Y-73386206D01*
X171577455Y-73472452D01*
X171577452Y-73472455D01*
X171491206Y-73587664D01*
X171491202Y-73587671D01*
X171440908Y-73722517D01*
X171434501Y-73782116D01*
X171434501Y-73782123D01*
X171434500Y-73782135D01*
X171434500Y-76377870D01*
X171434501Y-76377876D01*
X171440908Y-76437483D01*
X171491202Y-76572328D01*
X171491206Y-76572335D01*
X171577452Y-76687544D01*
X171577455Y-76687547D01*
X171692664Y-76773793D01*
X171692671Y-76773797D01*
X171827517Y-76824091D01*
X171827516Y-76824091D01*
X171834444Y-76824835D01*
X171887127Y-76830500D01*
X174532872Y-76830499D01*
X174592483Y-76824091D01*
X174727331Y-76773796D01*
X174842546Y-76687546D01*
X174928796Y-76572331D01*
X174979091Y-76437483D01*
X174985500Y-76377873D01*
X174985499Y-75385148D01*
X175005183Y-75318112D01*
X175057987Y-75272357D01*
X175127146Y-75262413D01*
X175190702Y-75291438D01*
X175228476Y-75350216D01*
X175232438Y-75368964D01*
X175239452Y-75422238D01*
X175248469Y-75455890D01*
X175298842Y-75643887D01*
X175386650Y-75855876D01*
X175386656Y-75855888D01*
X175453886Y-75972335D01*
X175501392Y-76054617D01*
X175641081Y-76236661D01*
X175641089Y-76236670D01*
X175803330Y-76398911D01*
X175803338Y-76398918D01*
X175803339Y-76398919D01*
X175805462Y-76400548D01*
X175985382Y-76538607D01*
X175985385Y-76538608D01*
X175985388Y-76538611D01*
X176184112Y-76653344D01*
X176184117Y-76653346D01*
X176184123Y-76653349D01*
X176266678Y-76687544D01*
X176396113Y-76741158D01*
X176617762Y-76800548D01*
X176834312Y-76829057D01*
X176845250Y-76830498D01*
X176845266Y-76830500D01*
X176845273Y-76830500D01*
X177074727Y-76830500D01*
X177074734Y-76830500D01*
X177302238Y-76800548D01*
X177523887Y-76741158D01*
X177735888Y-76653344D01*
X177934612Y-76538611D01*
X178116661Y-76398919D01*
X178116665Y-76398914D01*
X178116670Y-76398911D01*
X178278911Y-76236670D01*
X178278914Y-76236665D01*
X178278919Y-76236661D01*
X178418611Y-76054612D01*
X178533344Y-75855888D01*
X178621158Y-75643887D01*
X178680548Y-75422238D01*
X178710500Y-75194734D01*
X178710500Y-74965266D01*
X178710247Y-74963348D01*
X178701148Y-74894233D01*
X178680548Y-74737762D01*
X178621158Y-74516113D01*
X178562644Y-74374849D01*
X178533349Y-74304123D01*
X178533346Y-74304117D01*
X178533344Y-74304112D01*
X178418611Y-74105388D01*
X178418608Y-74105385D01*
X178418607Y-74105382D01*
X178317764Y-73973962D01*
X178278919Y-73923339D01*
X178278918Y-73923338D01*
X178278911Y-73923330D01*
X178116670Y-73761089D01*
X178116661Y-73761081D01*
X177934617Y-73621392D01*
X177876210Y-73587671D01*
X177764782Y-73523338D01*
X177735890Y-73506657D01*
X177735876Y-73506650D01*
X177523887Y-73418842D01*
X177302238Y-73359452D01*
X177264215Y-73354446D01*
X177074741Y-73329500D01*
X177074734Y-73329500D01*
X176845266Y-73329500D01*
X176845258Y-73329500D01*
X176628715Y-73358009D01*
X176617762Y-73359452D01*
X176611653Y-73361089D01*
X176396112Y-73418842D01*
X176184123Y-73506650D01*
X176184109Y-73506657D01*
X175985382Y-73621392D01*
X175803338Y-73761081D01*
X175641081Y-73923338D01*
X175501392Y-74105382D01*
X175386657Y-74304109D01*
X175386650Y-74304123D01*
X175298842Y-74516112D01*
X175285670Y-74565272D01*
X175251116Y-74694233D01*
X175239453Y-74737759D01*
X175239451Y-74737769D01*
X175232438Y-74791036D01*
X175204171Y-74854932D01*
X175145846Y-74893402D01*
X175075981Y-74894233D01*
X175016758Y-74857160D01*
X174986980Y-74793954D01*
X174985499Y-74774849D01*
X174985499Y-73782129D01*
X174985498Y-73782123D01*
X174985497Y-73782116D01*
X174979091Y-73722517D01*
X174972702Y-73705388D01*
X174928797Y-73587671D01*
X174928793Y-73587664D01*
X174842547Y-73472455D01*
X174842544Y-73472452D01*
X174727335Y-73386206D01*
X174727328Y-73386202D01*
X174592482Y-73335908D01*
X174592483Y-73335908D01*
X174532883Y-73329501D01*
X174532881Y-73329500D01*
X174532873Y-73329500D01*
X174532865Y-73329500D01*
X173934500Y-73329500D01*
X173867461Y-73309815D01*
X173821706Y-73257011D01*
X173810500Y-73205500D01*
X173810500Y-72299060D01*
X173810501Y-72299047D01*
X173810501Y-72130944D01*
X173810207Y-72129847D01*
X173769577Y-71978216D01*
X173741653Y-71929850D01*
X173690524Y-71841290D01*
X173690518Y-71841282D01*
X173064919Y-71215683D01*
X173050215Y-71188755D01*
X173033623Y-71162937D01*
X173032731Y-71156736D01*
X173031434Y-71154360D01*
X173028600Y-71128002D01*
X173028600Y-70905577D01*
X173048285Y-70838538D01*
X173101089Y-70792783D01*
X173170247Y-70782839D01*
X173233803Y-70811864D01*
X173240281Y-70817896D01*
X173262486Y-70840101D01*
X173402740Y-70942002D01*
X173451126Y-70966656D01*
X173557208Y-71020708D01*
X173557211Y-71020709D01*
X173623146Y-71042132D01*
X173722088Y-71074280D01*
X173801391Y-71086840D01*
X173893313Y-71101400D01*
X173893318Y-71101400D01*
X174514887Y-71101400D01*
X174597895Y-71088252D01*
X174686112Y-71074280D01*
X174850991Y-71020708D01*
X175005460Y-70942002D01*
X175145714Y-70840101D01*
X175268301Y-70717514D01*
X175370202Y-70577260D01*
X175448908Y-70422791D01*
X175502480Y-70257912D01*
X175523850Y-70122987D01*
X175529600Y-70086687D01*
X175529600Y-69913312D01*
X175522460Y-69868233D01*
X175520031Y-69852900D01*
X177255600Y-69852900D01*
X177255600Y-70147099D01*
X177255601Y-70147116D01*
X177291650Y-70420939D01*
X177294002Y-70438800D01*
X177364450Y-70701716D01*
X177370152Y-70722994D01*
X177482734Y-70994794D01*
X177482742Y-70994810D01*
X177629840Y-71249589D01*
X177629851Y-71249605D01*
X177808948Y-71483009D01*
X177808954Y-71483016D01*
X178016983Y-71691045D01*
X178016990Y-71691051D01*
X178127844Y-71776112D01*
X178250403Y-71870155D01*
X178250410Y-71870159D01*
X178505189Y-72017257D01*
X178505205Y-72017265D01*
X178777005Y-72129847D01*
X178777007Y-72129847D01*
X178777013Y-72129850D01*
X179061200Y-72205998D01*
X179352894Y-72244400D01*
X179352901Y-72244400D01*
X179647099Y-72244400D01*
X179647106Y-72244400D01*
X179938800Y-72205998D01*
X180222987Y-72129850D01*
X180404318Y-72054741D01*
X180494794Y-72017265D01*
X180494797Y-72017263D01*
X180494803Y-72017261D01*
X180749597Y-71870155D01*
X180983011Y-71691050D01*
X181191050Y-71483011D01*
X181370155Y-71249597D01*
X181517261Y-70994803D01*
X181522011Y-70983337D01*
X181629847Y-70722994D01*
X181629846Y-70722994D01*
X181629850Y-70722987D01*
X181705998Y-70438800D01*
X181744400Y-70147106D01*
X181744400Y-69852894D01*
X181705998Y-69561200D01*
X181629850Y-69277013D01*
X181629847Y-69277005D01*
X181517265Y-69005205D01*
X181517257Y-69005189D01*
X181370159Y-68750410D01*
X181370155Y-68750403D01*
X181258741Y-68605205D01*
X181191051Y-68516990D01*
X181191045Y-68516983D01*
X180983016Y-68308954D01*
X180983009Y-68308948D01*
X180749605Y-68129851D01*
X180749603Y-68129849D01*
X180749597Y-68129845D01*
X180749592Y-68129842D01*
X180749589Y-68129840D01*
X180494810Y-67982742D01*
X180494794Y-67982734D01*
X180222994Y-67870152D01*
X180205718Y-67865523D01*
X179938800Y-67794002D01*
X179938799Y-67794001D01*
X179938796Y-67794001D01*
X179647116Y-67755601D01*
X179647111Y-67755600D01*
X179647106Y-67755600D01*
X179352894Y-67755600D01*
X179352888Y-67755600D01*
X179352883Y-67755601D01*
X179061203Y-67794001D01*
X178777005Y-67870152D01*
X178505205Y-67982734D01*
X178505189Y-67982742D01*
X178250410Y-68129840D01*
X178250394Y-68129851D01*
X178016990Y-68308948D01*
X178016983Y-68308954D01*
X177808954Y-68516983D01*
X177808948Y-68516990D01*
X177629851Y-68750394D01*
X177629840Y-68750410D01*
X177482742Y-69005189D01*
X177482734Y-69005205D01*
X177370152Y-69277005D01*
X177294001Y-69561203D01*
X177255601Y-69852883D01*
X177255600Y-69852900D01*
X175520031Y-69852900D01*
X175503276Y-69747116D01*
X175502480Y-69742088D01*
X175448908Y-69577209D01*
X175448908Y-69577208D01*
X175385566Y-69452894D01*
X175370202Y-69422740D01*
X175268301Y-69282486D01*
X175268292Y-69282477D01*
X175265137Y-69278782D01*
X175266586Y-69277544D01*
X175236983Y-69223330D01*
X175241967Y-69153638D01*
X175283839Y-69097705D01*
X175349303Y-69073288D01*
X175377547Y-69074499D01*
X175560649Y-69103500D01*
X175560654Y-69103500D01*
X175819351Y-69103500D01*
X175973656Y-69079060D01*
X176074854Y-69063032D01*
X176320885Y-68983091D01*
X176551382Y-68865647D01*
X176760668Y-68713592D01*
X176943592Y-68530668D01*
X177095647Y-68321382D01*
X177213091Y-68090885D01*
X177293032Y-67844854D01*
X177317418Y-67690885D01*
X177333500Y-67589351D01*
X177333500Y-67330648D01*
X177305775Y-67155601D01*
X177293032Y-67075146D01*
X177213091Y-66829115D01*
X177095647Y-66598618D01*
X176943592Y-66389332D01*
X176760668Y-66206408D01*
X176551382Y-66054353D01*
X176529275Y-66043089D01*
X176358205Y-65955924D01*
X176347140Y-65945474D01*
X176333297Y-65939152D01*
X176322255Y-65921971D01*
X176307409Y-65907949D01*
X176303167Y-65892269D01*
X176295523Y-65880374D01*
X176290500Y-65845439D01*
X176290500Y-65610097D01*
X176310185Y-65543058D01*
X176326819Y-65522416D01*
X177112416Y-64736819D01*
X177173739Y-64703334D01*
X177200097Y-64700500D01*
X178027975Y-64700500D01*
X178095014Y-64720185D01*
X178138460Y-64768205D01*
X178174339Y-64838621D01*
X178202973Y-64894819D01*
X178343279Y-65087933D01*
X178512067Y-65256721D01*
X178705181Y-65397027D01*
X178917866Y-65505395D01*
X179144885Y-65579158D01*
X179380649Y-65616500D01*
X179380650Y-65616500D01*
X179619350Y-65616500D01*
X179619351Y-65616500D01*
X179855115Y-65579158D01*
X180082134Y-65505395D01*
X180294819Y-65397027D01*
X180295958Y-65396199D01*
X180296468Y-65396017D01*
X180298975Y-65394481D01*
X180299297Y-65395007D01*
X180361759Y-65372709D01*
X180429815Y-65388524D01*
X180478518Y-65438621D01*
X180486789Y-65458187D01*
X180516910Y-65550888D01*
X180625467Y-65763943D01*
X180634353Y-65781382D01*
X180786408Y-65990668D01*
X180969332Y-66173592D01*
X181178618Y-66325647D01*
X181409115Y-66443091D01*
X181655146Y-66523032D01*
X181750961Y-66538207D01*
X181910649Y-66563500D01*
X181910654Y-66563500D01*
X182169351Y-66563500D01*
X182311294Y-66541017D01*
X182424854Y-66523032D01*
X182670885Y-66443091D01*
X182826222Y-66363942D01*
X182894889Y-66351046D01*
X182959630Y-66377322D01*
X182999888Y-66434428D01*
X183004989Y-66455028D01*
X183020841Y-66555112D01*
X183020842Y-66555115D01*
X183094605Y-66782134D01*
X183202973Y-66994819D01*
X183343279Y-67187933D01*
X183512067Y-67356721D01*
X183705181Y-67497027D01*
X183917866Y-67605395D01*
X184144885Y-67679158D01*
X184380649Y-67716500D01*
X184380650Y-67716500D01*
X184619350Y-67716500D01*
X184619351Y-67716500D01*
X184855115Y-67679158D01*
X185082134Y-67605395D01*
X185294819Y-67497027D01*
X185487933Y-67356721D01*
X185656721Y-67187933D01*
X185797027Y-66994819D01*
X185837196Y-66915981D01*
X185885168Y-66865187D01*
X185952989Y-66848391D01*
X186019124Y-66870927D01*
X186035361Y-66884596D01*
X186423181Y-67272416D01*
X186456666Y-67333739D01*
X186459500Y-67360097D01*
X186459500Y-70665500D01*
X186439815Y-70732539D01*
X186387011Y-70778294D01*
X186335500Y-70789500D01*
X186038464Y-70789500D01*
X185971425Y-70769815D01*
X185925670Y-70717011D01*
X185915726Y-70647853D01*
X185938145Y-70592615D01*
X185949302Y-70577260D01*
X186028008Y-70422791D01*
X186081580Y-70257912D01*
X186102950Y-70122987D01*
X186108700Y-70086687D01*
X186108700Y-69913312D01*
X186082376Y-69747116D01*
X186081580Y-69742088D01*
X186028008Y-69577209D01*
X186028008Y-69577208D01*
X185964666Y-69452894D01*
X185949302Y-69422740D01*
X185847401Y-69282486D01*
X185724814Y-69159899D01*
X185584560Y-69057998D01*
X185584558Y-69057997D01*
X185430091Y-68979291D01*
X185430088Y-68979290D01*
X185265213Y-68925720D01*
X185093987Y-68898600D01*
X185093982Y-68898600D01*
X184472418Y-68898600D01*
X184472413Y-68898600D01*
X184301186Y-68925720D01*
X184136311Y-68979290D01*
X184136308Y-68979291D01*
X183981839Y-69057998D01*
X183948139Y-69082483D01*
X183841586Y-69159899D01*
X183841584Y-69159901D01*
X183841583Y-69159901D01*
X183719001Y-69282483D01*
X183719001Y-69282484D01*
X183718999Y-69282486D01*
X183696598Y-69313318D01*
X183617098Y-69422739D01*
X183538391Y-69577208D01*
X183538390Y-69577211D01*
X183484820Y-69742086D01*
X183457700Y-69913312D01*
X183457700Y-70086687D01*
X183484820Y-70257913D01*
X183538390Y-70422788D01*
X183538391Y-70422791D01*
X183617099Y-70577262D01*
X183638310Y-70606457D01*
X183661789Y-70672263D01*
X183645963Y-70740317D01*
X183595857Y-70789011D01*
X183527379Y-70802886D01*
X183521810Y-70802280D01*
X183509468Y-70800655D01*
X183424741Y-70789500D01*
X183424734Y-70789500D01*
X183195266Y-70789500D01*
X183195258Y-70789500D01*
X182979581Y-70817896D01*
X182967762Y-70819452D01*
X182896531Y-70838538D01*
X182746112Y-70878842D01*
X182534123Y-70966650D01*
X182534109Y-70966657D01*
X182335382Y-71081392D01*
X182153338Y-71221081D01*
X181991081Y-71383338D01*
X181851392Y-71565382D01*
X181736657Y-71764109D01*
X181736650Y-71764123D01*
X181648842Y-71976112D01*
X181633104Y-72034848D01*
X181602882Y-72147642D01*
X181589453Y-72197759D01*
X181589451Y-72197770D01*
X181559500Y-72425258D01*
X181559500Y-72654741D01*
X181582054Y-72826043D01*
X181589452Y-72882238D01*
X181622480Y-73005500D01*
X181648842Y-73103887D01*
X181736650Y-73315876D01*
X181736657Y-73315890D01*
X181774900Y-73382129D01*
X181803886Y-73432335D01*
X181851392Y-73514617D01*
X181991081Y-73696661D01*
X181991089Y-73696670D01*
X182153330Y-73858911D01*
X182153338Y-73858918D01*
X182153339Y-73858919D01*
X182155462Y-73860548D01*
X182335382Y-73998607D01*
X182335385Y-73998608D01*
X182335388Y-73998611D01*
X182534112Y-74113344D01*
X182534117Y-74113346D01*
X182534123Y-74113349D01*
X182593062Y-74137762D01*
X182746113Y-74201158D01*
X182967762Y-74260548D01*
X183184312Y-74289057D01*
X183195250Y-74290498D01*
X183195266Y-74290500D01*
X183195273Y-74290500D01*
X183424727Y-74290500D01*
X183424734Y-74290500D01*
X183652238Y-74260548D01*
X183873887Y-74201158D01*
X184085888Y-74113344D01*
X184284612Y-73998611D01*
X184466661Y-73858919D01*
X184466665Y-73858914D01*
X184466670Y-73858911D01*
X184628911Y-73696670D01*
X184628914Y-73696665D01*
X184628919Y-73696661D01*
X184768611Y-73514612D01*
X184883344Y-73315888D01*
X184971158Y-73103887D01*
X185030548Y-72882238D01*
X185037561Y-72828964D01*
X185065827Y-72765069D01*
X185124151Y-72726597D01*
X185194016Y-72725765D01*
X185253239Y-72762837D01*
X185283019Y-72826043D01*
X185284500Y-72845150D01*
X185284500Y-73837870D01*
X185284501Y-73837876D01*
X185290908Y-73897483D01*
X185341202Y-74032328D01*
X185341206Y-74032335D01*
X185427452Y-74147544D01*
X185427455Y-74147547D01*
X185542664Y-74233793D01*
X185542671Y-74233797D01*
X185677517Y-74284091D01*
X185677516Y-74284091D01*
X185684444Y-74284835D01*
X185737127Y-74290500D01*
X188382872Y-74290499D01*
X188442483Y-74284091D01*
X188577331Y-74233796D01*
X188692546Y-74147546D01*
X188778796Y-74032331D01*
X188829091Y-73897483D01*
X188835500Y-73837873D01*
X188835499Y-71242128D01*
X188829091Y-71182517D01*
X188822702Y-71165388D01*
X188778797Y-71047671D01*
X188778793Y-71047664D01*
X188692547Y-70932455D01*
X188692544Y-70932452D01*
X188577335Y-70846206D01*
X188577328Y-70846202D01*
X188442482Y-70795908D01*
X188442483Y-70795908D01*
X188382883Y-70789501D01*
X188382881Y-70789500D01*
X188382873Y-70789500D01*
X188382865Y-70789500D01*
X187784500Y-70789500D01*
X187717461Y-70769815D01*
X187671706Y-70717011D01*
X187660500Y-70665500D01*
X187660500Y-67149059D01*
X187660501Y-67149046D01*
X187660501Y-66980945D01*
X187660501Y-66980943D01*
X187619577Y-66828215D01*
X187581139Y-66761639D01*
X187545796Y-66700423D01*
X187540522Y-66691287D01*
X187540521Y-66691286D01*
X187540520Y-66691284D01*
X187428716Y-66579480D01*
X187428715Y-66579479D01*
X187424385Y-66575149D01*
X187424374Y-66575139D01*
X186687590Y-65838355D01*
X186687588Y-65838352D01*
X186568717Y-65719481D01*
X186568709Y-65719475D01*
X186455913Y-65654353D01*
X186455912Y-65654352D01*
X186438953Y-65644561D01*
X186431785Y-65640423D01*
X186279057Y-65599499D01*
X186120943Y-65599499D01*
X186113347Y-65599499D01*
X186113331Y-65599500D01*
X185972025Y-65599500D01*
X185904986Y-65579815D01*
X185861540Y-65531795D01*
X185814984Y-65440424D01*
X185797027Y-65405181D01*
X185656721Y-65212067D01*
X185487933Y-65043279D01*
X185294819Y-64902973D01*
X185086887Y-64797027D01*
X185082136Y-64794606D01*
X185082135Y-64794605D01*
X185082134Y-64794605D01*
X184855115Y-64720842D01*
X184855113Y-64720841D01*
X184855111Y-64720841D01*
X184690498Y-64694768D01*
X184619351Y-64683500D01*
X184380649Y-64683500D01*
X184309185Y-64694819D01*
X184144883Y-64720842D01*
X184144880Y-64720842D01*
X184009737Y-64764753D01*
X183994524Y-64765187D01*
X183980265Y-64770506D01*
X183960309Y-64766164D01*
X183939895Y-64766748D01*
X183925808Y-64758659D01*
X183911992Y-64755654D01*
X183883738Y-64734503D01*
X183707590Y-64558355D01*
X183707588Y-64558352D01*
X183644179Y-64494943D01*
X183613930Y-64445581D01*
X183563091Y-64289115D01*
X183445647Y-64058618D01*
X183293592Y-63849332D01*
X183110668Y-63666408D01*
X182901382Y-63514353D01*
X182830500Y-63478237D01*
X182670887Y-63396910D01*
X182670886Y-63396909D01*
X182670885Y-63396909D01*
X182424854Y-63316968D01*
X182424852Y-63316967D01*
X182424850Y-63316967D01*
X182169351Y-63276500D01*
X182169346Y-63276500D01*
X181910654Y-63276500D01*
X181910649Y-63276500D01*
X181655149Y-63316967D01*
X181409112Y-63396910D01*
X181178618Y-63514352D01*
X181094728Y-63575302D01*
X181028921Y-63598781D01*
X180960867Y-63582955D01*
X180912173Y-63532849D01*
X180907677Y-63522192D01*
X180907259Y-63522366D01*
X180905397Y-63517872D01*
X180905395Y-63517866D01*
X180797027Y-63305181D01*
X180656721Y-63112067D01*
X180487933Y-62943279D01*
X180334489Y-62831795D01*
X180294817Y-62802971D01*
X180168204Y-62738458D01*
X180117409Y-62690484D01*
X180100500Y-62627974D01*
X180100500Y-61589059D01*
X180100501Y-61589046D01*
X180100501Y-61420945D01*
X180100501Y-61420943D01*
X180059577Y-61268215D01*
X180030639Y-61218095D01*
X179980520Y-61131284D01*
X179868716Y-61019480D01*
X179868715Y-61019479D01*
X179864385Y-61015149D01*
X179864374Y-61015139D01*
X179037590Y-60188355D01*
X179037588Y-60188352D01*
X178918717Y-60069481D01*
X178918716Y-60069480D01*
X178831904Y-60019360D01*
X178831904Y-60019359D01*
X178831900Y-60019358D01*
X178781785Y-59990423D01*
X178629057Y-59949499D01*
X178470943Y-59949499D01*
X178463347Y-59949499D01*
X178463331Y-59949500D01*
X176250098Y-59949500D01*
X176183059Y-59929815D01*
X176162417Y-59913181D01*
X168983804Y-52734568D01*
X171059500Y-52734568D01*
X171059500Y-53015431D01*
X171090942Y-53294494D01*
X171090945Y-53294512D01*
X171153439Y-53568317D01*
X171153443Y-53568329D01*
X171246200Y-53833411D01*
X171368053Y-54086442D01*
X171368055Y-54086445D01*
X171517477Y-54324248D01*
X171692584Y-54543825D01*
X171891175Y-54742416D01*
X172110752Y-54917523D01*
X172348555Y-55066945D01*
X172601592Y-55188801D01*
X172732001Y-55234433D01*
X172866670Y-55281556D01*
X172866682Y-55281560D01*
X173140491Y-55344055D01*
X173140497Y-55344055D01*
X173140505Y-55344057D01*
X173326547Y-55365018D01*
X173419569Y-55375499D01*
X173419572Y-55375500D01*
X173419575Y-55375500D01*
X173700428Y-55375500D01*
X173700429Y-55375499D01*
X173843055Y-55359429D01*
X173979494Y-55344057D01*
X173979499Y-55344056D01*
X173979509Y-55344055D01*
X174253318Y-55281560D01*
X174518408Y-55188801D01*
X174771445Y-55066945D01*
X175009248Y-54917523D01*
X175228825Y-54742416D01*
X175427416Y-54543825D01*
X175602523Y-54324248D01*
X175751945Y-54086445D01*
X175873801Y-53833408D01*
X175966560Y-53568318D01*
X176029055Y-53294509D01*
X176038737Y-53208583D01*
X176048616Y-53120902D01*
X176060500Y-53015425D01*
X176060500Y-52734575D01*
X176045620Y-52602510D01*
X176029057Y-52455505D01*
X176029054Y-52455487D01*
X175966560Y-52181682D01*
X175966556Y-52181670D01*
X175895482Y-51978554D01*
X175873801Y-51916592D01*
X175751945Y-51663555D01*
X175602523Y-51425752D01*
X175427416Y-51206175D01*
X175228825Y-51007584D01*
X175204494Y-50988181D01*
X175120450Y-50921158D01*
X175009248Y-50832477D01*
X174771445Y-50683055D01*
X174771442Y-50683053D01*
X174518411Y-50561200D01*
X174253329Y-50468443D01*
X174253317Y-50468439D01*
X173979512Y-50405945D01*
X173979494Y-50405942D01*
X173700431Y-50374500D01*
X173700425Y-50374500D01*
X173419575Y-50374500D01*
X173419568Y-50374500D01*
X173140505Y-50405942D01*
X173140487Y-50405945D01*
X172866682Y-50468439D01*
X172866670Y-50468443D01*
X172601588Y-50561200D01*
X172348557Y-50683053D01*
X172110753Y-50832476D01*
X171891175Y-51007583D01*
X171692583Y-51206175D01*
X171517476Y-51425753D01*
X171368053Y-51663557D01*
X171246200Y-51916588D01*
X171153443Y-52181670D01*
X171153439Y-52181682D01*
X171090945Y-52455487D01*
X171090942Y-52455505D01*
X171059500Y-52734568D01*
X168983804Y-52734568D01*
X166136819Y-49887583D01*
X166103334Y-49826260D01*
X166100500Y-49799902D01*
X166100500Y-46229601D01*
X166120185Y-46162562D01*
X166168206Y-46119116D01*
X166181610Y-46112287D01*
X166347219Y-45991966D01*
X166491966Y-45847219D01*
X166491968Y-45847215D01*
X166491971Y-45847213D01*
X166575833Y-45731785D01*
X166612287Y-45681610D01*
X166705220Y-45499219D01*
X166768477Y-45304534D01*
X166800500Y-45102352D01*
X166800500Y-44949097D01*
X166820185Y-44882058D01*
X166872989Y-44836303D01*
X166942147Y-44826359D01*
X167005703Y-44855384D01*
X167012181Y-44861416D01*
X170515139Y-48364374D01*
X170515149Y-48364385D01*
X170519479Y-48368715D01*
X170519480Y-48368716D01*
X170631284Y-48480520D01*
X170696917Y-48518412D01*
X170718095Y-48530639D01*
X170718097Y-48530641D01*
X170756151Y-48552611D01*
X170768215Y-48559577D01*
X170920943Y-48600501D01*
X170920946Y-48600501D01*
X171086653Y-48600501D01*
X171086669Y-48600500D01*
X173199903Y-48600500D01*
X173266942Y-48620185D01*
X173287583Y-48636818D01*
X190131284Y-65480520D01*
X190131286Y-65480521D01*
X190131290Y-65480524D01*
X190239604Y-65543058D01*
X190268216Y-65559577D01*
X190420943Y-65600501D01*
X190420945Y-65600501D01*
X190586654Y-65600501D01*
X190586670Y-65600500D01*
X206413331Y-65600500D01*
X206413347Y-65600501D01*
X206420943Y-65600501D01*
X206579054Y-65600501D01*
X206579057Y-65600501D01*
X206731785Y-65559577D01*
X206781904Y-65530639D01*
X206868716Y-65480520D01*
X206980520Y-65368716D01*
X206980520Y-65368714D01*
X206990728Y-65358507D01*
X206990729Y-65358504D01*
X207980520Y-64368716D01*
X208059577Y-64231784D01*
X208100501Y-64079057D01*
X208100501Y-63920942D01*
X208100501Y-63913347D01*
X208100500Y-63913329D01*
X208100500Y-61985718D01*
X208120185Y-61918679D01*
X208168207Y-61875233D01*
X208207815Y-61855052D01*
X208207815Y-61855051D01*
X208207816Y-61855051D01*
X208319733Y-61773739D01*
X208379786Y-61730109D01*
X208379788Y-61730106D01*
X208379792Y-61730104D01*
X208530104Y-61579792D01*
X208530106Y-61579788D01*
X208530109Y-61579786D01*
X208655048Y-61407820D01*
X208655047Y-61407820D01*
X208655051Y-61407816D01*
X208751557Y-61218412D01*
X208817246Y-61016243D01*
X208850500Y-60806287D01*
X208850500Y-60593713D01*
X208817246Y-60383757D01*
X208751557Y-60181588D01*
X208655051Y-59992184D01*
X208655049Y-59992181D01*
X208655048Y-59992179D01*
X208530109Y-59820213D01*
X208379786Y-59669890D01*
X208207820Y-59544951D01*
X208203814Y-59542910D01*
X208199054Y-59540485D01*
X208148259Y-59492512D01*
X208131463Y-59424692D01*
X208153999Y-59358556D01*
X208199054Y-59319515D01*
X208207816Y-59315051D01*
X208300092Y-59248009D01*
X208379786Y-59190109D01*
X208379788Y-59190106D01*
X208379792Y-59190104D01*
X208530104Y-59039792D01*
X208530106Y-59039788D01*
X208530109Y-59039786D01*
X208655048Y-58867820D01*
X208655047Y-58867820D01*
X208655051Y-58867816D01*
X208751557Y-58678412D01*
X208817246Y-58476243D01*
X208850500Y-58266287D01*
X208850500Y-58119097D01*
X208870185Y-58052058D01*
X208922989Y-58006303D01*
X208992147Y-57996359D01*
X209055703Y-58025384D01*
X209062170Y-58031405D01*
X209356154Y-58325389D01*
X209863181Y-58832416D01*
X209896666Y-58893739D01*
X209899500Y-58920097D01*
X209899500Y-72199902D01*
X209879815Y-72266941D01*
X209863181Y-72287583D01*
X202787584Y-79363181D01*
X202726261Y-79396666D01*
X202699903Y-79399500D01*
X171300097Y-79399500D01*
X171233058Y-79379815D01*
X171212416Y-79363181D01*
X167693486Y-75844251D01*
X167660001Y-75782928D01*
X167657167Y-75756570D01*
X167657167Y-74214499D01*
X167676852Y-74147460D01*
X167729656Y-74101705D01*
X167781167Y-74090499D01*
X168379538Y-74090499D01*
X168379539Y-74090499D01*
X168439150Y-74084091D01*
X168573998Y-74033796D01*
X168689213Y-73947546D01*
X168775463Y-73832331D01*
X168825758Y-73697483D01*
X168832167Y-73637873D01*
X168832166Y-71042128D01*
X168825758Y-70982517D01*
X168825013Y-70980520D01*
X168775464Y-70847671D01*
X168775460Y-70847664D01*
X168689214Y-70732455D01*
X168689211Y-70732452D01*
X168574002Y-70646206D01*
X168573995Y-70646202D01*
X168439149Y-70595908D01*
X168439150Y-70595908D01*
X168379550Y-70589501D01*
X168379548Y-70589500D01*
X168379540Y-70589500D01*
X168379532Y-70589500D01*
X167781167Y-70589500D01*
X167714128Y-70569815D01*
X167668373Y-70517011D01*
X167657167Y-70465500D01*
X167657167Y-67145727D01*
X167657168Y-67145714D01*
X167657168Y-66977612D01*
X167657168Y-66977610D01*
X167616244Y-66824882D01*
X167537187Y-66687951D01*
X166487589Y-65638354D01*
X166487588Y-65638352D01*
X166368717Y-65519481D01*
X166368709Y-65519475D01*
X166255913Y-65454353D01*
X166255912Y-65454352D01*
X166238953Y-65444561D01*
X166231785Y-65440423D01*
X166079057Y-65399499D01*
X165968691Y-65399499D01*
X165901652Y-65379814D01*
X165858206Y-65331794D01*
X165848364Y-65312478D01*
X165793694Y-65205181D01*
X165653388Y-65012067D01*
X165484600Y-64843279D01*
X165291486Y-64702973D01*
X165078801Y-64594605D01*
X164851782Y-64520842D01*
X164851779Y-64520841D01*
X164851778Y-64520841D01*
X164687165Y-64494768D01*
X164616018Y-64483500D01*
X164377316Y-64483500D01*
X164305852Y-64494819D01*
X164141550Y-64520842D01*
X164141547Y-64520842D01*
X164006404Y-64564753D01*
X163991191Y-64565187D01*
X163976932Y-64570506D01*
X163956976Y-64566164D01*
X163936562Y-64566748D01*
X163922475Y-64558659D01*
X163908659Y-64555654D01*
X163880405Y-64534503D01*
X163704257Y-64358355D01*
X163704255Y-64358352D01*
X163640846Y-64294943D01*
X163610597Y-64245581D01*
X163559758Y-64089115D01*
X163442314Y-63858618D01*
X163290259Y-63649332D01*
X163107335Y-63466408D01*
X162898049Y-63314353D01*
X162823758Y-63276500D01*
X162667554Y-63196910D01*
X162667553Y-63196909D01*
X162667552Y-63196909D01*
X162421521Y-63116968D01*
X162421519Y-63116967D01*
X162421517Y-63116967D01*
X162166018Y-63076500D01*
X162166013Y-63076500D01*
X161907321Y-63076500D01*
X161907316Y-63076500D01*
X161651816Y-63116967D01*
X161405779Y-63196910D01*
X161175285Y-63314352D01*
X161091395Y-63375302D01*
X161025588Y-63398781D01*
X160957534Y-63382955D01*
X160908840Y-63332849D01*
X160904344Y-63322192D01*
X160903926Y-63322366D01*
X160902064Y-63317872D01*
X160902062Y-63317866D01*
X160793694Y-63105181D01*
X160653388Y-62912067D01*
X160484600Y-62743279D01*
X160325897Y-62627974D01*
X160291484Y-62602971D01*
X160164871Y-62538458D01*
X160114076Y-62490484D01*
X160097167Y-62427974D01*
X160097167Y-47303430D01*
X160116852Y-47236391D01*
X160133486Y-47215749D01*
X160577689Y-46771546D01*
X161055159Y-46294075D01*
X161116480Y-46260592D01*
X161181154Y-46263826D01*
X161195466Y-46268477D01*
X161397648Y-46300500D01*
X161397649Y-46300500D01*
X161602351Y-46300500D01*
X161602352Y-46300500D01*
X161804534Y-46268477D01*
X161999219Y-46205220D01*
X162181610Y-46112287D01*
X162274590Y-46044732D01*
X162347213Y-45991971D01*
X162347215Y-45991968D01*
X162347219Y-45991966D01*
X162491966Y-45847219D01*
X162491968Y-45847215D01*
X162491971Y-45847213D01*
X162575833Y-45731785D01*
X162612287Y-45681610D01*
X162705220Y-45499219D01*
X162768477Y-45304534D01*
X162800500Y-45102352D01*
X162800500Y-44897648D01*
X162778339Y-44757730D01*
X162768477Y-44695465D01*
X162730688Y-44579163D01*
X162705220Y-44500781D01*
X162705218Y-44500778D01*
X162705218Y-44500776D01*
X162659372Y-44410800D01*
X162612287Y-44318390D01*
X162597420Y-44297927D01*
X162491971Y-44152786D01*
X162347213Y-44008028D01*
X162181613Y-43887715D01*
X162181612Y-43887714D01*
X162181610Y-43887713D01*
X162078126Y-43834985D01*
X162027330Y-43787010D01*
X162010535Y-43719189D01*
X162033073Y-43653054D01*
X162087788Y-43609603D01*
X162134421Y-43600500D01*
X164865579Y-43600500D01*
X164871691Y-43602294D01*
G37*
%TD.AperFunction*%
%TA.AperFunction,Conductor*%
G36*
X187265703Y-51475384D02*
G01*
X187272181Y-51481416D01*
X190926241Y-55135476D01*
X190959726Y-55196799D01*
X190956492Y-55261473D01*
X190942753Y-55303757D01*
X190909500Y-55513713D01*
X190909500Y-55726286D01*
X190942753Y-55936239D01*
X190942753Y-55936241D01*
X190942754Y-55936243D01*
X190997431Y-56104522D01*
X191008444Y-56138414D01*
X191104951Y-56327820D01*
X191229890Y-56499786D01*
X191380213Y-56650109D01*
X191552182Y-56775050D01*
X191560946Y-56779516D01*
X191611742Y-56827491D01*
X191628536Y-56895312D01*
X191605998Y-56961447D01*
X191560946Y-57000484D01*
X191552182Y-57004949D01*
X191380213Y-57129890D01*
X191229890Y-57280213D01*
X191104951Y-57452179D01*
X191008444Y-57641585D01*
X190942753Y-57843760D01*
X190909762Y-58052058D01*
X190909500Y-58053713D01*
X190909500Y-58266287D01*
X190942754Y-58476243D01*
X190997431Y-58644522D01*
X191008444Y-58678414D01*
X191104951Y-58867820D01*
X191229890Y-59039786D01*
X191380213Y-59190109D01*
X191552182Y-59315050D01*
X191560946Y-59319516D01*
X191611742Y-59367491D01*
X191628536Y-59435312D01*
X191605998Y-59501447D01*
X191560946Y-59540484D01*
X191552182Y-59544949D01*
X191380213Y-59669890D01*
X191229890Y-59820213D01*
X191104951Y-59992179D01*
X191008444Y-60181585D01*
X190942753Y-60383760D01*
X190935280Y-60430943D01*
X190909500Y-60593713D01*
X190909500Y-60806287D01*
X190919534Y-60869644D01*
X190942580Y-61015149D01*
X190942754Y-61016243D01*
X190986377Y-61150501D01*
X191008444Y-61218414D01*
X191104951Y-61407820D01*
X191229890Y-61579786D01*
X191380213Y-61730109D01*
X191552179Y-61855048D01*
X191552181Y-61855049D01*
X191552184Y-61855051D01*
X191741588Y-61951557D01*
X191943757Y-62017246D01*
X192153713Y-62050500D01*
X192153714Y-62050500D01*
X192366286Y-62050500D01*
X192366287Y-62050500D01*
X192576243Y-62017246D01*
X192778412Y-61951557D01*
X192967816Y-61855051D01*
X192989789Y-61839086D01*
X193139786Y-61730109D01*
X193139788Y-61730106D01*
X193139792Y-61730104D01*
X193290104Y-61579792D01*
X193290106Y-61579788D01*
X193290109Y-61579786D01*
X193415048Y-61407820D01*
X193415047Y-61407820D01*
X193415051Y-61407816D01*
X193419514Y-61399054D01*
X193467488Y-61348259D01*
X193535308Y-61331463D01*
X193601444Y-61353999D01*
X193640486Y-61399056D01*
X193644951Y-61407820D01*
X193769890Y-61579786D01*
X193920213Y-61730109D01*
X194092179Y-61855048D01*
X194092181Y-61855049D01*
X194092184Y-61855051D01*
X194281588Y-61951557D01*
X194483757Y-62017246D01*
X194693713Y-62050500D01*
X194693714Y-62050500D01*
X194906286Y-62050500D01*
X194906287Y-62050500D01*
X195116243Y-62017246D01*
X195318412Y-61951557D01*
X195507816Y-61855051D01*
X195529789Y-61839086D01*
X195679786Y-61730109D01*
X195679788Y-61730106D01*
X195679792Y-61730104D01*
X195830104Y-61579792D01*
X195830106Y-61579788D01*
X195830109Y-61579786D01*
X195955048Y-61407820D01*
X195955047Y-61407820D01*
X195955051Y-61407816D01*
X195959514Y-61399054D01*
X196007488Y-61348259D01*
X196075308Y-61331463D01*
X196141444Y-61353999D01*
X196180486Y-61399056D01*
X196184951Y-61407820D01*
X196309890Y-61579786D01*
X196460213Y-61730109D01*
X196632179Y-61855048D01*
X196632181Y-61855049D01*
X196632184Y-61855051D01*
X196821588Y-61951557D01*
X197023757Y-62017246D01*
X197233713Y-62050500D01*
X197233714Y-62050500D01*
X197446286Y-62050500D01*
X197446287Y-62050500D01*
X197656243Y-62017246D01*
X197858412Y-61951557D01*
X198047816Y-61855051D01*
X198069789Y-61839086D01*
X198219786Y-61730109D01*
X198219788Y-61730106D01*
X198219792Y-61730104D01*
X198370104Y-61579792D01*
X198370106Y-61579788D01*
X198370109Y-61579786D01*
X198495048Y-61407820D01*
X198495047Y-61407820D01*
X198495051Y-61407816D01*
X198499514Y-61399054D01*
X198547488Y-61348259D01*
X198615308Y-61331463D01*
X198681444Y-61353999D01*
X198720486Y-61399056D01*
X198724951Y-61407820D01*
X198849890Y-61579786D01*
X199000213Y-61730109D01*
X199172179Y-61855048D01*
X199172181Y-61855049D01*
X199172184Y-61855051D01*
X199361588Y-61951557D01*
X199563757Y-62017246D01*
X199773713Y-62050500D01*
X199773714Y-62050500D01*
X199986286Y-62050500D01*
X199986287Y-62050500D01*
X200196243Y-62017246D01*
X200398412Y-61951557D01*
X200587816Y-61855051D01*
X200609789Y-61839086D01*
X200759786Y-61730109D01*
X200759788Y-61730106D01*
X200759792Y-61730104D01*
X200910104Y-61579792D01*
X200910106Y-61579788D01*
X200910109Y-61579786D01*
X201035048Y-61407820D01*
X201035047Y-61407820D01*
X201035051Y-61407816D01*
X201039514Y-61399054D01*
X201087488Y-61348259D01*
X201155308Y-61331463D01*
X201221444Y-61353999D01*
X201260486Y-61399056D01*
X201264951Y-61407820D01*
X201389890Y-61579786D01*
X201540213Y-61730109D01*
X201712179Y-61855048D01*
X201712181Y-61855049D01*
X201712184Y-61855051D01*
X201901588Y-61951557D01*
X202103757Y-62017246D01*
X202313713Y-62050500D01*
X202313714Y-62050500D01*
X202526286Y-62050500D01*
X202526287Y-62050500D01*
X202736243Y-62017246D01*
X202938412Y-61951557D01*
X203127816Y-61855051D01*
X203149789Y-61839086D01*
X203299786Y-61730109D01*
X203299788Y-61730106D01*
X203299792Y-61730104D01*
X203450104Y-61579792D01*
X203450106Y-61579788D01*
X203450109Y-61579786D01*
X203575048Y-61407820D01*
X203575047Y-61407820D01*
X203575051Y-61407816D01*
X203579514Y-61399054D01*
X203627488Y-61348259D01*
X203695308Y-61331463D01*
X203761444Y-61353999D01*
X203800486Y-61399056D01*
X203804951Y-61407820D01*
X203929890Y-61579786D01*
X204080213Y-61730109D01*
X204252179Y-61855048D01*
X204252181Y-61855049D01*
X204252184Y-61855051D01*
X204441588Y-61951557D01*
X204643757Y-62017246D01*
X204853713Y-62050500D01*
X204853714Y-62050500D01*
X205066286Y-62050500D01*
X205066287Y-62050500D01*
X205276243Y-62017246D01*
X205478412Y-61951557D01*
X205478413Y-61951556D01*
X205483046Y-61950051D01*
X205483397Y-61951131D01*
X205547521Y-61944240D01*
X205609999Y-61975517D01*
X205645649Y-62035608D01*
X205649500Y-62066269D01*
X205649500Y-62949903D01*
X205629815Y-63016942D01*
X205613181Y-63037584D01*
X204787584Y-63863181D01*
X204726261Y-63896666D01*
X204699903Y-63899500D01*
X191300097Y-63899500D01*
X191233058Y-63879815D01*
X191212416Y-63863181D01*
X185674624Y-58325389D01*
X185641139Y-58264066D01*
X185646123Y-58194374D01*
X185687995Y-58138441D01*
X185742907Y-58115235D01*
X185911368Y-58088553D01*
X186135992Y-58015568D01*
X186346433Y-57908343D01*
X186537510Y-57769517D01*
X186704517Y-57602510D01*
X186843343Y-57411433D01*
X186950568Y-57200992D01*
X187023553Y-56976368D01*
X187036391Y-56895312D01*
X187060500Y-56743097D01*
X187060500Y-56506902D01*
X187023553Y-56273631D01*
X186979617Y-56138412D01*
X186950568Y-56049008D01*
X186950566Y-56049005D01*
X186950566Y-56049003D01*
X186843342Y-55838566D01*
X186704517Y-55647490D01*
X186537510Y-55480483D01*
X186346433Y-55341657D01*
X186323588Y-55330017D01*
X186135996Y-55234433D01*
X185911368Y-55161446D01*
X185678097Y-55124500D01*
X185678092Y-55124500D01*
X185441908Y-55124500D01*
X185441903Y-55124500D01*
X185208631Y-55161446D01*
X184984003Y-55234433D01*
X184773566Y-55341657D01*
X184726986Y-55375500D01*
X184582490Y-55480483D01*
X184582488Y-55480485D01*
X184582487Y-55480485D01*
X184415485Y-55647487D01*
X184415485Y-55647488D01*
X184415483Y-55647490D01*
X184358234Y-55726286D01*
X184276657Y-55838566D01*
X184169433Y-56049003D01*
X184096447Y-56273630D01*
X184069764Y-56442093D01*
X184039834Y-56505227D01*
X183980522Y-56542158D01*
X183910660Y-56541160D01*
X183859610Y-56510375D01*
X179786416Y-52437181D01*
X179752931Y-52375858D01*
X179757915Y-52306166D01*
X179799787Y-52250233D01*
X179865251Y-52225816D01*
X179874097Y-52225500D01*
X184105932Y-52225500D01*
X184172971Y-52245185D01*
X184216416Y-52293203D01*
X184276657Y-52411433D01*
X184415483Y-52602510D01*
X184582490Y-52769517D01*
X184773567Y-52908343D01*
X184834942Y-52939615D01*
X184984003Y-53015566D01*
X184984005Y-53015566D01*
X184984008Y-53015568D01*
X185104412Y-53054689D01*
X185208631Y-53088553D01*
X185441903Y-53125500D01*
X185441908Y-53125500D01*
X185678097Y-53125500D01*
X185911368Y-53088553D01*
X186135992Y-53015568D01*
X186346433Y-52908343D01*
X186537510Y-52769517D01*
X186704517Y-52602510D01*
X186843343Y-52411433D01*
X186950568Y-52200992D01*
X187023553Y-51976368D01*
X187051408Y-51800499D01*
X187060500Y-51743097D01*
X187060500Y-51569097D01*
X187080185Y-51502058D01*
X187132989Y-51456303D01*
X187202147Y-51446359D01*
X187265703Y-51475384D01*
G37*
%TD.AperFunction*%
%TA.AperFunction,Conductor*%
G36*
X193942686Y-38520185D02*
G01*
X193988441Y-38572989D01*
X193999647Y-38624471D01*
X194004500Y-59248009D01*
X194004500Y-59315898D01*
X194004512Y-59315994D01*
X194004515Y-59316008D01*
X194004516Y-59316010D01*
X194021634Y-59379840D01*
X194038608Y-59443186D01*
X194038636Y-59443236D01*
X194038653Y-59443296D01*
X194039978Y-59445591D01*
X194040561Y-59447992D01*
X194040652Y-59448214D01*
X194041232Y-59449399D01*
X194041607Y-59450284D01*
X194041510Y-59450324D01*
X194041514Y-59450334D01*
X194041165Y-59450475D01*
X194056467Y-59513484D01*
X194033631Y-59579517D01*
X194005492Y-59607933D01*
X193920209Y-59669894D01*
X193769890Y-59820213D01*
X193644949Y-59992182D01*
X193640484Y-60000946D01*
X193592509Y-60051742D01*
X193524688Y-60068536D01*
X193458553Y-60045998D01*
X193419516Y-60000946D01*
X193415050Y-59992182D01*
X193290109Y-59820213D01*
X193139786Y-59669890D01*
X192967820Y-59544951D01*
X192963814Y-59542910D01*
X192959054Y-59540485D01*
X192908259Y-59492512D01*
X192891463Y-59424692D01*
X192913999Y-59358556D01*
X192959054Y-59319515D01*
X192967816Y-59315051D01*
X193060092Y-59248009D01*
X193139786Y-59190109D01*
X193139788Y-59190106D01*
X193139792Y-59190104D01*
X193290104Y-59039792D01*
X193290106Y-59039788D01*
X193290109Y-59039786D01*
X193415048Y-58867820D01*
X193415047Y-58867820D01*
X193415051Y-58867816D01*
X193511557Y-58678412D01*
X193577246Y-58476243D01*
X193610500Y-58266287D01*
X193610500Y-58053713D01*
X193577246Y-57843757D01*
X193511557Y-57641588D01*
X193415051Y-57452184D01*
X193415049Y-57452181D01*
X193415048Y-57452179D01*
X193290109Y-57280213D01*
X193139786Y-57129890D01*
X192967820Y-57004951D01*
X192967115Y-57004591D01*
X192959054Y-57000485D01*
X192908259Y-56952512D01*
X192891463Y-56884692D01*
X192913999Y-56818556D01*
X192959054Y-56779515D01*
X192967816Y-56775051D01*
X193056987Y-56710265D01*
X193139786Y-56650109D01*
X193139788Y-56650106D01*
X193139792Y-56650104D01*
X193290104Y-56499792D01*
X193290106Y-56499788D01*
X193290109Y-56499786D01*
X193415048Y-56327820D01*
X193415047Y-56327820D01*
X193415051Y-56327816D01*
X193511557Y-56138412D01*
X193577246Y-55936243D01*
X193610500Y-55726287D01*
X193610500Y-55513713D01*
X193577246Y-55303757D01*
X193511557Y-55101588D01*
X193415051Y-54912184D01*
X193415049Y-54912181D01*
X193415048Y-54912179D01*
X193290109Y-54740213D01*
X193139786Y-54589890D01*
X192967820Y-54464951D01*
X192967115Y-54464591D01*
X192959054Y-54460485D01*
X192908259Y-54412512D01*
X192891463Y-54344692D01*
X192913999Y-54278556D01*
X192959054Y-54239515D01*
X192967816Y-54235051D01*
X192989789Y-54219086D01*
X193139786Y-54110109D01*
X193139788Y-54110106D01*
X193139792Y-54110104D01*
X193290104Y-53959792D01*
X193290106Y-53959788D01*
X193290109Y-53959786D01*
X193415048Y-53787820D01*
X193415047Y-53787820D01*
X193415051Y-53787816D01*
X193511557Y-53598412D01*
X193577246Y-53396243D01*
X193610500Y-53186287D01*
X193610500Y-52973713D01*
X193577246Y-52763757D01*
X193511557Y-52561588D01*
X193415051Y-52372184D01*
X193415049Y-52372181D01*
X193415048Y-52372179D01*
X193290109Y-52200213D01*
X193139786Y-52049890D01*
X192967820Y-51924951D01*
X192967115Y-51924591D01*
X192959054Y-51920485D01*
X192908259Y-51872512D01*
X192891463Y-51804692D01*
X192913999Y-51738556D01*
X192959054Y-51699515D01*
X192967816Y-51695051D01*
X193011167Y-51663555D01*
X193139786Y-51570109D01*
X193139788Y-51570106D01*
X193139792Y-51570104D01*
X193290104Y-51419792D01*
X193290106Y-51419788D01*
X193290109Y-51419786D01*
X193415048Y-51247820D01*
X193415047Y-51247820D01*
X193415051Y-51247816D01*
X193511557Y-51058412D01*
X193577246Y-50856243D01*
X193610500Y-50646287D01*
X193610500Y-50433713D01*
X193577246Y-50223757D01*
X193511557Y-50021588D01*
X193415051Y-49832184D01*
X193415049Y-49832181D01*
X193415048Y-49832179D01*
X193290109Y-49660213D01*
X193139786Y-49509890D01*
X192967820Y-49384951D01*
X192967115Y-49384591D01*
X192959054Y-49380485D01*
X192908259Y-49332512D01*
X192891463Y-49264692D01*
X192913999Y-49198556D01*
X192959054Y-49159515D01*
X192967816Y-49155051D01*
X193054895Y-49091785D01*
X193139786Y-49030109D01*
X193139788Y-49030106D01*
X193139792Y-49030104D01*
X193290104Y-48879792D01*
X193290106Y-48879788D01*
X193290109Y-48879786D01*
X193415048Y-48707820D01*
X193415047Y-48707820D01*
X193415051Y-48707816D01*
X193511557Y-48518412D01*
X193577246Y-48316243D01*
X193610500Y-48106287D01*
X193610500Y-47893713D01*
X193577246Y-47683757D01*
X193511557Y-47481588D01*
X193415051Y-47292184D01*
X193415049Y-47292181D01*
X193415048Y-47292179D01*
X193290109Y-47120213D01*
X193139786Y-46969890D01*
X192967820Y-46844951D01*
X192967115Y-46844591D01*
X192959054Y-46840485D01*
X192908259Y-46792512D01*
X192891463Y-46724692D01*
X192913999Y-46658556D01*
X192959054Y-46619515D01*
X192967816Y-46615051D01*
X193094772Y-46522813D01*
X193139786Y-46490109D01*
X193139788Y-46490106D01*
X193139792Y-46490104D01*
X193290104Y-46339792D01*
X193290106Y-46339788D01*
X193290109Y-46339786D01*
X193415048Y-46167820D01*
X193415047Y-46167820D01*
X193415051Y-46167816D01*
X193511557Y-45978412D01*
X193577246Y-45776243D01*
X193610500Y-45566287D01*
X193610500Y-45353713D01*
X193577246Y-45143757D01*
X193511557Y-44941588D01*
X193415051Y-44752184D01*
X193415049Y-44752181D01*
X193415048Y-44752179D01*
X193290109Y-44580213D01*
X193139786Y-44429890D01*
X192967817Y-44304949D01*
X192958504Y-44300204D01*
X192907707Y-44252230D01*
X192890912Y-44184409D01*
X192913449Y-44118274D01*
X192958507Y-44079232D01*
X192967555Y-44074622D01*
X193021716Y-44035270D01*
X193021717Y-44035270D01*
X192306446Y-43320000D01*
X192312661Y-43320000D01*
X192414394Y-43292741D01*
X192505606Y-43240080D01*
X192580080Y-43165606D01*
X192632741Y-43074394D01*
X192660000Y-42972661D01*
X192660000Y-42966447D01*
X193375270Y-43681717D01*
X193375270Y-43681716D01*
X193414622Y-43627554D01*
X193511095Y-43438217D01*
X193576757Y-43236130D01*
X193576759Y-43236122D01*
X193610000Y-43026246D01*
X193610000Y-42813753D01*
X193576757Y-42603872D01*
X193576757Y-42603869D01*
X193511095Y-42401782D01*
X193414624Y-42212449D01*
X193375270Y-42158282D01*
X193375269Y-42158282D01*
X192660000Y-42873552D01*
X192660000Y-42867339D01*
X192632741Y-42765606D01*
X192580080Y-42674394D01*
X192505606Y-42599920D01*
X192414394Y-42547259D01*
X192312661Y-42520000D01*
X192306447Y-42520000D01*
X193021716Y-41804728D01*
X192967547Y-41765373D01*
X192967547Y-41765372D01*
X192958500Y-41760763D01*
X192907706Y-41712788D01*
X192890912Y-41644966D01*
X192913451Y-41578832D01*
X192958508Y-41539793D01*
X192967816Y-41535051D01*
X193109407Y-41432180D01*
X193139786Y-41410109D01*
X193139788Y-41410106D01*
X193139792Y-41410104D01*
X193290104Y-41259792D01*
X193290106Y-41259788D01*
X193290109Y-41259786D01*
X193415048Y-41087820D01*
X193415047Y-41087820D01*
X193415051Y-41087816D01*
X193511557Y-40898412D01*
X193577246Y-40696243D01*
X193610500Y-40486287D01*
X193610500Y-40273713D01*
X193577246Y-40063757D01*
X193511557Y-39861588D01*
X193415051Y-39672184D01*
X193415049Y-39672181D01*
X193415048Y-39672179D01*
X193290109Y-39500213D01*
X193139786Y-39349890D01*
X192967820Y-39224951D01*
X192778414Y-39128444D01*
X192778413Y-39128443D01*
X192778412Y-39128443D01*
X192576243Y-39062754D01*
X192576241Y-39062753D01*
X192576240Y-39062753D01*
X192414957Y-39037208D01*
X192366287Y-39029500D01*
X192153713Y-39029500D01*
X192105042Y-39037208D01*
X191943760Y-39062753D01*
X191741585Y-39128444D01*
X191552179Y-39224951D01*
X191380213Y-39349890D01*
X191229890Y-39500213D01*
X191104951Y-39672179D01*
X191008444Y-39861585D01*
X190942753Y-40063760D01*
X190909500Y-40273713D01*
X190909500Y-40486286D01*
X190934558Y-40644500D01*
X190942754Y-40696243D01*
X191007785Y-40896388D01*
X191008444Y-40898414D01*
X191104951Y-41087820D01*
X191229890Y-41259786D01*
X191380213Y-41410109D01*
X191552179Y-41535048D01*
X191552181Y-41535049D01*
X191552184Y-41535051D01*
X191561493Y-41539794D01*
X191612290Y-41587766D01*
X191629087Y-41655587D01*
X191606552Y-41721722D01*
X191561505Y-41760760D01*
X191552446Y-41765376D01*
X191552440Y-41765380D01*
X191498282Y-41804727D01*
X191498282Y-41804728D01*
X192213554Y-42520000D01*
X192207339Y-42520000D01*
X192105606Y-42547259D01*
X192014394Y-42599920D01*
X191939920Y-42674394D01*
X191887259Y-42765606D01*
X191860000Y-42867339D01*
X191860000Y-42873554D01*
X191144728Y-42158282D01*
X191144727Y-42158282D01*
X191105380Y-42212439D01*
X191008904Y-42401782D01*
X190943242Y-42603869D01*
X190943242Y-42603872D01*
X190910000Y-42813753D01*
X190910000Y-43026246D01*
X190943241Y-43236122D01*
X190943242Y-43236130D01*
X191008904Y-43438217D01*
X191105375Y-43627550D01*
X191144728Y-43681716D01*
X191860000Y-42966444D01*
X191860000Y-42972661D01*
X191887259Y-43074394D01*
X191939920Y-43165606D01*
X192014394Y-43240080D01*
X192105606Y-43292741D01*
X192207339Y-43320000D01*
X192213554Y-43320000D01*
X191498282Y-44035269D01*
X191498282Y-44035270D01*
X191552452Y-44074626D01*
X191552451Y-44074626D01*
X191561495Y-44079234D01*
X191612292Y-44127208D01*
X191629087Y-44195029D01*
X191606550Y-44261164D01*
X191561499Y-44300202D01*
X191552182Y-44304949D01*
X191380213Y-44429890D01*
X191229890Y-44580213D01*
X191104951Y-44752179D01*
X191008444Y-44941585D01*
X190942753Y-45143760D01*
X190909500Y-45353713D01*
X190909500Y-45566286D01*
X190942143Y-45772390D01*
X190942754Y-45776243D01*
X191001059Y-45955687D01*
X191008444Y-45978414D01*
X191104951Y-46167820D01*
X191229890Y-46339786D01*
X191380213Y-46490109D01*
X191552182Y-46615050D01*
X191560946Y-46619516D01*
X191611742Y-46667491D01*
X191628536Y-46735312D01*
X191605998Y-46801447D01*
X191560946Y-46840484D01*
X191552182Y-46844949D01*
X191380213Y-46969890D01*
X191229890Y-47120213D01*
X191104951Y-47292179D01*
X191008444Y-47481585D01*
X190942753Y-47683760D01*
X190929136Y-47769736D01*
X190909500Y-47893713D01*
X190909500Y-48106287D01*
X190942754Y-48316243D01*
X190958396Y-48364385D01*
X191008444Y-48518414D01*
X191104951Y-48707820D01*
X191229890Y-48879786D01*
X191380213Y-49030109D01*
X191552182Y-49155050D01*
X191560946Y-49159516D01*
X191611742Y-49207491D01*
X191628536Y-49275312D01*
X191605998Y-49341447D01*
X191560946Y-49380484D01*
X191552182Y-49384949D01*
X191380213Y-49509890D01*
X191229894Y-49660209D01*
X191222460Y-49670441D01*
X191167127Y-49713103D01*
X191097513Y-49719078D01*
X191035720Y-49686468D01*
X191034465Y-49685230D01*
X188136819Y-46787584D01*
X188103334Y-46726261D01*
X188100500Y-46699903D01*
X188100500Y-41420945D01*
X188100500Y-41420943D01*
X188059577Y-41268216D01*
X188055212Y-41260655D01*
X187980524Y-41131290D01*
X187980521Y-41131286D01*
X187980520Y-41131284D01*
X187868716Y-41019480D01*
X187868715Y-41019479D01*
X187864385Y-41015149D01*
X187864374Y-41015139D01*
X186487590Y-39638355D01*
X186487588Y-39638352D01*
X186368717Y-39519481D01*
X186368716Y-39519480D01*
X186261948Y-39457838D01*
X186261947Y-39457837D01*
X186231783Y-39440422D01*
X186175881Y-39425443D01*
X186079057Y-39399499D01*
X185920943Y-39399499D01*
X185913347Y-39399499D01*
X185913331Y-39399500D01*
X184210792Y-39399500D01*
X184143753Y-39379815D01*
X184110474Y-39348386D01*
X184101768Y-39336403D01*
X184015690Y-39217927D01*
X183882073Y-39084310D01*
X183729199Y-38973240D01*
X183560836Y-38887454D01*
X183381118Y-38829059D01*
X183194486Y-38799500D01*
X183194481Y-38799500D01*
X183005519Y-38799500D01*
X183005514Y-38799500D01*
X182818881Y-38829059D01*
X182639163Y-38887454D01*
X182470800Y-38973240D01*
X182416742Y-39012516D01*
X182317927Y-39084310D01*
X182317925Y-39084312D01*
X182317924Y-39084312D01*
X182184312Y-39217924D01*
X182184312Y-39217925D01*
X182184310Y-39217927D01*
X182136610Y-39283579D01*
X182073240Y-39370800D01*
X181987454Y-39539163D01*
X181929059Y-39718881D01*
X181899500Y-39905513D01*
X181899500Y-40094486D01*
X181929059Y-40281118D01*
X181987454Y-40460836D01*
X182052859Y-40589199D01*
X182073240Y-40629199D01*
X182126580Y-40702615D01*
X182150060Y-40768420D01*
X182134235Y-40836474D01*
X182084130Y-40885169D01*
X182026262Y-40899500D01*
X180850097Y-40899500D01*
X180783058Y-40879815D01*
X180762416Y-40863181D01*
X180260066Y-40360831D01*
X180226581Y-40299508D01*
X180225274Y-40253752D01*
X180250500Y-40094486D01*
X180250500Y-39905513D01*
X180220940Y-39718881D01*
X180166484Y-39551286D01*
X180162547Y-39539168D01*
X180162545Y-39539165D01*
X180162545Y-39539163D01*
X180112234Y-39440423D01*
X180076760Y-39370801D01*
X179965690Y-39217927D01*
X179832073Y-39084310D01*
X179679199Y-38973240D01*
X179510836Y-38887454D01*
X179331118Y-38829059D01*
X179144486Y-38799500D01*
X179144481Y-38799500D01*
X178955519Y-38799500D01*
X178955514Y-38799500D01*
X178768881Y-38829059D01*
X178589163Y-38887454D01*
X178420800Y-38973240D01*
X178366742Y-39012516D01*
X178267927Y-39084310D01*
X178267925Y-39084312D01*
X178267924Y-39084312D01*
X178134312Y-39217924D01*
X178134312Y-39217925D01*
X178134310Y-39217927D01*
X178086610Y-39283579D01*
X178023240Y-39370800D01*
X177937454Y-39539163D01*
X177879059Y-39718881D01*
X177849500Y-39905513D01*
X177849500Y-40094486D01*
X177879059Y-40281118D01*
X177937454Y-40460836D01*
X178002859Y-40589199D01*
X178023240Y-40629199D01*
X178134310Y-40782073D01*
X178267927Y-40915690D01*
X178420801Y-41026760D01*
X178454150Y-41043752D01*
X178589163Y-41112545D01*
X178589165Y-41112545D01*
X178589168Y-41112547D01*
X178666531Y-41137684D01*
X178768881Y-41170940D01*
X178955514Y-41200500D01*
X178955519Y-41200500D01*
X179144486Y-41200500D01*
X179261017Y-41182042D01*
X179303753Y-41175274D01*
X179373045Y-41184228D01*
X179410831Y-41210066D01*
X179888584Y-41687819D01*
X179922069Y-41749142D01*
X179917085Y-41818834D01*
X179875213Y-41874767D01*
X179809749Y-41899184D01*
X179800903Y-41899500D01*
X176300098Y-41899500D01*
X176233059Y-41879815D01*
X176212417Y-41863181D01*
X175636819Y-41287583D01*
X175622115Y-41260655D01*
X175605523Y-41234837D01*
X175604631Y-41228636D01*
X175603334Y-41226260D01*
X175600500Y-41199902D01*
X175600500Y-41110791D01*
X175620185Y-41043752D01*
X175651612Y-41010475D01*
X175782073Y-40915690D01*
X175915690Y-40782073D01*
X176026760Y-40629199D01*
X176112547Y-40460832D01*
X176170940Y-40281118D01*
X176172113Y-40273713D01*
X176200500Y-40094486D01*
X176200500Y-39905513D01*
X176170940Y-39718881D01*
X176116484Y-39551286D01*
X176112547Y-39539168D01*
X176112545Y-39539165D01*
X176112545Y-39539163D01*
X176062234Y-39440423D01*
X176026760Y-39370801D01*
X175915690Y-39217927D01*
X175782073Y-39084310D01*
X175629199Y-38973240D01*
X175460836Y-38887454D01*
X175281118Y-38829059D01*
X175094486Y-38799500D01*
X175094481Y-38799500D01*
X174905519Y-38799500D01*
X174905514Y-38799500D01*
X174718881Y-38829059D01*
X174539163Y-38887454D01*
X174370800Y-38973240D01*
X174316742Y-39012516D01*
X174217927Y-39084310D01*
X174217925Y-39084312D01*
X174217924Y-39084312D01*
X174084312Y-39217924D01*
X174084312Y-39217925D01*
X174084310Y-39217927D01*
X174036610Y-39283579D01*
X173973240Y-39370800D01*
X173887454Y-39539163D01*
X173829059Y-39718881D01*
X173799500Y-39905513D01*
X173799500Y-40094486D01*
X173829059Y-40281118D01*
X173887454Y-40460836D01*
X173952859Y-40589199D01*
X173973240Y-40629199D01*
X174084310Y-40782073D01*
X174217927Y-40915690D01*
X174348386Y-41010474D01*
X174391051Y-41065803D01*
X174399500Y-41110791D01*
X174399500Y-41413330D01*
X174399499Y-41413348D01*
X174399499Y-41579054D01*
X174399498Y-41579054D01*
X174425965Y-41677827D01*
X174440423Y-41731785D01*
X174459817Y-41765376D01*
X174469358Y-41781900D01*
X174469359Y-41781904D01*
X174469360Y-41781904D01*
X174516284Y-41863181D01*
X174519479Y-41868714D01*
X174519481Y-41868717D01*
X174638349Y-41987585D01*
X174638354Y-41987589D01*
X175631284Y-42980520D01*
X175631286Y-42980521D01*
X175631290Y-42980524D01*
X175710555Y-43026287D01*
X175768216Y-43059577D01*
X175920943Y-43100501D01*
X175920945Y-43100501D01*
X176086654Y-43100501D01*
X176086670Y-43100500D01*
X184199903Y-43100500D01*
X184266942Y-43120185D01*
X184287584Y-43136819D01*
X184863181Y-43712416D01*
X184896666Y-43773739D01*
X184899500Y-43800097D01*
X184899500Y-48773330D01*
X184899499Y-48773348D01*
X184899499Y-48939054D01*
X184899498Y-48939054D01*
X184940423Y-49091785D01*
X184969358Y-49141900D01*
X184969359Y-49141904D01*
X184969360Y-49141904D01*
X185002067Y-49198556D01*
X185019479Y-49228714D01*
X185019481Y-49228717D01*
X185138349Y-49347585D01*
X185138355Y-49347590D01*
X185703584Y-49912819D01*
X185737069Y-49974142D01*
X185732085Y-50043834D01*
X185690213Y-50099767D01*
X185624749Y-50124184D01*
X185615903Y-50124500D01*
X185441903Y-50124500D01*
X185208631Y-50161446D01*
X184984003Y-50234433D01*
X184773566Y-50341657D01*
X184685082Y-50405945D01*
X184582490Y-50480483D01*
X184582488Y-50480485D01*
X184582487Y-50480485D01*
X184415485Y-50647487D01*
X184415485Y-50647488D01*
X184415483Y-50647490D01*
X184355862Y-50729550D01*
X184276657Y-50838566D01*
X184216417Y-50956795D01*
X184168442Y-51007591D01*
X184105932Y-51024500D01*
X179425097Y-51024500D01*
X179358058Y-51004815D01*
X179337416Y-50988181D01*
X174841416Y-46492181D01*
X174807931Y-46430858D01*
X174812915Y-46361166D01*
X174854787Y-46305233D01*
X174920251Y-46280816D01*
X174929097Y-46280500D01*
X175094486Y-46280500D01*
X175281118Y-46250940D01*
X175286652Y-46249142D01*
X175460832Y-46192547D01*
X175629199Y-46106760D01*
X175782073Y-45995690D01*
X175915690Y-45862073D01*
X176026760Y-45709199D01*
X176112547Y-45540832D01*
X176170940Y-45361118D01*
X176177635Y-45318845D01*
X176200500Y-45174486D01*
X176200500Y-44985513D01*
X177849500Y-44985513D01*
X177849500Y-45174486D01*
X177879059Y-45361118D01*
X177937454Y-45540836D01*
X178002859Y-45669199D01*
X178023240Y-45709199D01*
X178134310Y-45862073D01*
X178267927Y-45995690D01*
X178420801Y-46106760D01*
X178500347Y-46147290D01*
X178589163Y-46192545D01*
X178589165Y-46192545D01*
X178589168Y-46192547D01*
X178685497Y-46223846D01*
X178768881Y-46250940D01*
X178955514Y-46280500D01*
X178955519Y-46280500D01*
X179144486Y-46280500D01*
X179331118Y-46250940D01*
X179336652Y-46249142D01*
X179510832Y-46192547D01*
X179679199Y-46106760D01*
X179832073Y-45995690D01*
X179965690Y-45862073D01*
X180076760Y-45709199D01*
X180162547Y-45540832D01*
X180220940Y-45361118D01*
X180227635Y-45318845D01*
X180250500Y-45174486D01*
X180250500Y-44985513D01*
X181899500Y-44985513D01*
X181899500Y-45174486D01*
X181929059Y-45361118D01*
X181987454Y-45540836D01*
X182052859Y-45669199D01*
X182073240Y-45709199D01*
X182184310Y-45862073D01*
X182317927Y-45995690D01*
X182470801Y-46106760D01*
X182550347Y-46147290D01*
X182639163Y-46192545D01*
X182639165Y-46192545D01*
X182639168Y-46192547D01*
X182735497Y-46223846D01*
X182818881Y-46250940D01*
X183005514Y-46280500D01*
X183005519Y-46280500D01*
X183194486Y-46280500D01*
X183381118Y-46250940D01*
X183386652Y-46249142D01*
X183560832Y-46192547D01*
X183729199Y-46106760D01*
X183882073Y-45995690D01*
X184015690Y-45862073D01*
X184126760Y-45709199D01*
X184212547Y-45540832D01*
X184270940Y-45361118D01*
X184277635Y-45318845D01*
X184300500Y-45174486D01*
X184300500Y-44985513D01*
X184270940Y-44798881D01*
X184237338Y-44695466D01*
X184212547Y-44619168D01*
X184212545Y-44619165D01*
X184212545Y-44619163D01*
X184135429Y-44467815D01*
X184126760Y-44450801D01*
X184015690Y-44297927D01*
X183882073Y-44164310D01*
X183729199Y-44053240D01*
X183693929Y-44035269D01*
X183560836Y-43967454D01*
X183381118Y-43909059D01*
X183194486Y-43879500D01*
X183194481Y-43879500D01*
X183005519Y-43879500D01*
X183005514Y-43879500D01*
X182818881Y-43909059D01*
X182639163Y-43967454D01*
X182470800Y-44053240D01*
X182434638Y-44079514D01*
X182317927Y-44164310D01*
X182317925Y-44164312D01*
X182317924Y-44164312D01*
X182184312Y-44297924D01*
X182184312Y-44297925D01*
X182184310Y-44297927D01*
X182155019Y-44338243D01*
X182073240Y-44450800D01*
X181987454Y-44619163D01*
X181929059Y-44798881D01*
X181899500Y-44985513D01*
X180250500Y-44985513D01*
X180220940Y-44798881D01*
X180187338Y-44695466D01*
X180162547Y-44619168D01*
X180162545Y-44619165D01*
X180162545Y-44619163D01*
X180085429Y-44467815D01*
X180076760Y-44450801D01*
X179965690Y-44297927D01*
X179832073Y-44164310D01*
X179679199Y-44053240D01*
X179643929Y-44035269D01*
X179510836Y-43967454D01*
X179331118Y-43909059D01*
X179144486Y-43879500D01*
X179144481Y-43879500D01*
X178955519Y-43879500D01*
X178955514Y-43879500D01*
X178768881Y-43909059D01*
X178589163Y-43967454D01*
X178420800Y-44053240D01*
X178384638Y-44079514D01*
X178267927Y-44164310D01*
X178267925Y-44164312D01*
X178267924Y-44164312D01*
X178134312Y-44297924D01*
X178134312Y-44297925D01*
X178134310Y-44297927D01*
X178105019Y-44338243D01*
X178023240Y-44450800D01*
X177937454Y-44619163D01*
X177879059Y-44798881D01*
X177849500Y-44985513D01*
X176200500Y-44985513D01*
X176170940Y-44798881D01*
X176137338Y-44695466D01*
X176112547Y-44619168D01*
X176112545Y-44619165D01*
X176112545Y-44619163D01*
X176035429Y-44467815D01*
X176026760Y-44450801D01*
X175915690Y-44297927D01*
X175782073Y-44164310D01*
X175629199Y-44053240D01*
X175593929Y-44035269D01*
X175460836Y-43967454D01*
X175281118Y-43909059D01*
X175094486Y-43879500D01*
X175094481Y-43879500D01*
X174905519Y-43879500D01*
X174905514Y-43879500D01*
X174718881Y-43909059D01*
X174539163Y-43967454D01*
X174370800Y-44053240D01*
X174334638Y-44079514D01*
X174217927Y-44164310D01*
X174217925Y-44164312D01*
X174217924Y-44164312D01*
X174084312Y-44297924D01*
X174084312Y-44297925D01*
X174084310Y-44297927D01*
X174055019Y-44338243D01*
X173973240Y-44450800D01*
X173887454Y-44619163D01*
X173842431Y-44757730D01*
X173802993Y-44815405D01*
X173738634Y-44842603D01*
X173669788Y-44830688D01*
X173618312Y-44783444D01*
X173600500Y-44719411D01*
X173600500Y-43420945D01*
X173600500Y-43420943D01*
X173559577Y-43268216D01*
X173559577Y-43268215D01*
X173506558Y-43176384D01*
X173480520Y-43131284D01*
X173368716Y-43019480D01*
X173368715Y-43019479D01*
X173364385Y-43015149D01*
X173364374Y-43015139D01*
X171636819Y-41287584D01*
X171622115Y-41260656D01*
X171605523Y-41234838D01*
X171604631Y-41228637D01*
X171603334Y-41226261D01*
X171600500Y-41199903D01*
X171600500Y-41070791D01*
X171620185Y-41003752D01*
X171620187Y-41003750D01*
X171651612Y-40970475D01*
X171782073Y-40875690D01*
X171915690Y-40742073D01*
X172026760Y-40589199D01*
X172112547Y-40420832D01*
X172170940Y-40241118D01*
X172183202Y-40163697D01*
X172200500Y-40054486D01*
X172200500Y-39865513D01*
X172170940Y-39678881D01*
X172129481Y-39551286D01*
X172112547Y-39499168D01*
X172112545Y-39499165D01*
X172112545Y-39499163D01*
X172035720Y-39348386D01*
X172026760Y-39330801D01*
X171915690Y-39177927D01*
X171782073Y-39044310D01*
X171629199Y-38933240D01*
X171460836Y-38847454D01*
X171281118Y-38789059D01*
X171094486Y-38759500D01*
X171094481Y-38759500D01*
X170905519Y-38759500D01*
X170905514Y-38759500D01*
X170718881Y-38789059D01*
X170539163Y-38847454D01*
X170370800Y-38933240D01*
X170315746Y-38973240D01*
X170217927Y-39044310D01*
X170217925Y-39044312D01*
X170217924Y-39044312D01*
X170084312Y-39177924D01*
X170084312Y-39177925D01*
X170084310Y-39177927D01*
X170050145Y-39224951D01*
X169973240Y-39330800D01*
X169887454Y-39499163D01*
X169829059Y-39678881D01*
X169799500Y-39865513D01*
X169799500Y-40054486D01*
X169829059Y-40241118D01*
X169887454Y-40420836D01*
X169938236Y-40520500D01*
X169973240Y-40589199D01*
X170084310Y-40742073D01*
X170217927Y-40875690D01*
X170348386Y-40970474D01*
X170391051Y-41025803D01*
X170399500Y-41070791D01*
X170399500Y-41413330D01*
X170399499Y-41413348D01*
X170399499Y-41579054D01*
X170399498Y-41579054D01*
X170425965Y-41677827D01*
X170440423Y-41731785D01*
X170459817Y-41765376D01*
X170469358Y-41781900D01*
X170469359Y-41781904D01*
X170469360Y-41781904D01*
X170516284Y-41863181D01*
X170519479Y-41868714D01*
X170519481Y-41868717D01*
X170638349Y-41987585D01*
X170638355Y-41987590D01*
X172363181Y-43712416D01*
X172396666Y-43773739D01*
X172399500Y-43800097D01*
X172399500Y-44679411D01*
X172379815Y-44746450D01*
X172327011Y-44792205D01*
X172257853Y-44802149D01*
X172194297Y-44773124D01*
X172157569Y-44717730D01*
X172131018Y-44636015D01*
X172112547Y-44579168D01*
X172112545Y-44579165D01*
X172112545Y-44579163D01*
X172026759Y-44410800D01*
X171915690Y-44257927D01*
X171782073Y-44124310D01*
X171629199Y-44013240D01*
X171618970Y-44008028D01*
X171460836Y-43927454D01*
X171281118Y-43869059D01*
X171094486Y-43839500D01*
X171094481Y-43839500D01*
X170905519Y-43839500D01*
X170905514Y-43839500D01*
X170718881Y-43869059D01*
X170539163Y-43927454D01*
X170370800Y-44013240D01*
X170340479Y-44035270D01*
X170217927Y-44124310D01*
X170217925Y-44124312D01*
X170217924Y-44124312D01*
X170084312Y-44257924D01*
X170084312Y-44257925D01*
X170084310Y-44257927D01*
X170050145Y-44304951D01*
X169973240Y-44410800D01*
X169887455Y-44579162D01*
X169887453Y-44579167D01*
X169887453Y-44579168D01*
X169887089Y-44580288D01*
X169837405Y-44733196D01*
X169797966Y-44790871D01*
X169733607Y-44818068D01*
X169664761Y-44806153D01*
X169631793Y-44782557D01*
X166280001Y-41430765D01*
X166246516Y-41369442D01*
X166251500Y-41299750D01*
X166293372Y-41243817D01*
X166354428Y-41219794D01*
X166407483Y-41214091D01*
X166542331Y-41163796D01*
X166657546Y-41077546D01*
X166743796Y-40962331D01*
X166794091Y-40827483D01*
X166800500Y-40767873D01*
X166800499Y-39072128D01*
X166794091Y-39012517D01*
X166791923Y-39006705D01*
X166743797Y-38877671D01*
X166743793Y-38877664D01*
X166677463Y-38789060D01*
X166657546Y-38762454D01*
X166605864Y-38723765D01*
X166563995Y-38667833D01*
X166559011Y-38598141D01*
X166592496Y-38536818D01*
X166653820Y-38503334D01*
X166680177Y-38500500D01*
X193875647Y-38500500D01*
X193942686Y-38520185D01*
G37*
%TD.AperFunction*%
%TD*%
M02*
