M48
; DRILL file {KiCad 9.0.4-1.fc42app3} date 2025-10-31T17:53:58+0100
; FORMAT={-:-/ absolute / metric / decimal}
; #@! TF.CreationDate,2025-10-31T17:53:58+01:00
; #@! TF.GenerationSoftware,Kicad,Pcbnew,9.0.4-1.fc42app3
; #@! TF.FileFunction,Plated,1,2,PTH
FMAT,2
METRIC
; #@! TA.AperFunction,Plated,PTH,ViaDrill
T1C0.300
; #@! TA.AperFunction,Plated,PTH,ComponentDrill
T2C0.700
; #@! TA.AperFunction,Plated,PTH,ComponentDrill
T3C0.800
; #@! TA.AperFunction,Plated,PTH,ComponentDrill
T4C0.900
; #@! TA.AperFunction,Plated,PTH,ComponentDrill
T5C1.200
; #@! TA.AperFunction,Plated,PTH,ComponentDrill
T6C1.270
; #@! TA.AperFunction,Plated,PTH,ComponentDrill
T7C1.499
; #@! TA.AperFunction,Plated,PTH,ComponentDrill
T8C2.400
%
G90
G05
T1
X129.5Y-51.0
X154.9Y-52.4
X181.0Y-46.5
X188.0Y-39.5
X193.0Y-63.75
X201.4Y-72.0
X210.75Y-49.25
T2
X171.0Y-39.96
X171.0Y-45.04
X175.0Y-40.0
X175.0Y-45.08
X179.05Y-40.0
X179.05Y-45.08
X183.1Y-40.0
X183.1Y-45.08
T3
X153.5Y-39.92
X153.5Y-45.0
X157.5Y-39.92
X157.5Y-45.0
X161.5Y-39.92
X161.5Y-45.0
X165.5Y-39.92
X165.5Y-45.0
X192.26Y-40.38
X192.26Y-42.92
X192.26Y-45.46
X192.26Y-48.0
X192.26Y-50.54
X192.26Y-53.08
X192.26Y-55.62
X192.26Y-58.16
X192.26Y-60.7
X194.8Y-60.7
X197.34Y-60.7
X199.88Y-60.7
X202.42Y-60.7
X204.96Y-60.7
X207.5Y-40.38
X207.5Y-42.92
X207.5Y-45.46
X207.5Y-48.0
X207.5Y-50.54
X207.5Y-53.08
X207.5Y-55.62
X207.5Y-58.16
X207.5Y-60.7
T4
X132.23Y-40.73
X132.23Y-43.27
X139.365Y-40.73
X139.365Y-43.27
X146.5Y-40.73
X146.5Y-43.27
T5
X114.56Y-49.125
X114.56Y-51.625
X114.56Y-54.125
X114.56Y-56.625
X185.56Y-51.625
X185.56Y-56.625
T6
X119.49Y-63.5
X124.49Y-65.6
X139.493Y-63.7
X144.493Y-65.8
X159.497Y-63.9
X164.497Y-66.0
X179.5Y-64.1
X184.5Y-66.2
T7
X115.68Y-66.86
X122.03Y-64.32
X135.683Y-67.06
X142.033Y-64.52
X155.687Y-67.26
X162.037Y-64.72
X175.69Y-67.46
X182.04Y-64.92
T8
X124.56Y-52.875
X173.56Y-52.875
M30
