M48
; DRILL file {KiCad 9.0.4-1.fc42app3} date 2025-10-17T06:38:27+0200
; FORMAT={-:-/ absolute / metric / decimal}
; #@! TF.CreationDate,2025-10-17T06:38:27+02:00
; #@! TF.GenerationSoftware,Kicad,Pcbnew,9.0.4-1.fc42app3
; #@! TF.FileFunction,NonPlated,1,2,NPTH
FMAT,2
METRIC
; #@! TA.AperFunction,NonPlated,NPTH,ComponentDrill
T1C1.702
; #@! TA.AperFunction,NonPlated,NPTH,ComponentDrill
T2C3.000
; #@! TA.AperFunction,NonPlated,NPTH,ComponentDrill
T3C3.988
%
G90
G05
T2
X116.95Y-74.48
X123.3Y-71.94
X136.953Y-74.68
X143.303Y-72.14
X156.957Y-74.88
X163.307Y-72.34
X176.96Y-75.08
X183.31Y-72.54
T3
X119.49Y-69.4
X139.493Y-69.6
X159.497Y-69.8
X179.5Y-70.0
T1
X114.418Y-69.4G85X113.97Y-69.4
G05
X124.997Y-69.4G85X124.549Y-69.4
G05
X134.422Y-69.6G85X133.973Y-69.6
G05
X145.001Y-69.6G85X144.552Y-69.6
G05
X154.425Y-69.8G85X153.977Y-69.8
G05
X165.004Y-69.8G85X164.556Y-69.8
G05
X174.428Y-70.0G85X173.98Y-70.0
G05
X185.007Y-70.0G85X184.559Y-70.0
G05
M30
