%TF.GenerationSoftware,KiCad,Pcbnew,9.0.6*%
%TF.CreationDate,2025-11-24T11:08:08+01:00*%
%TF.ProjectId,ccc_macropad,6363635f-6d61-4637-926f-7061642e6b69,rev?*%
%TF.SameCoordinates,Original*%
%TF.FileFunction,Profile,NP*%
%FSLAX46Y46*%
G04 Gerber Fmt 4.6, Leading zero omitted, Abs format (unit mm)*
G04 Created by KiCad (PCBNEW 9.0.6) date 2025-11-24 11:08:08*
%MOMM*%
%LPD*%
G01*
G04 APERTURE LIST*
%TA.AperFunction,Profile*%
%ADD10C,0.038100*%
%TD*%
G04 APERTURE END LIST*
D10*
X107500000Y-41000000D02*
G75*
G02*
X104300000Y-41000000I-1600000J0D01*
G01*
X104300000Y-41000000D02*
G75*
G02*
X107500000Y-41000000I1600000J0D01*
G01*
X215500000Y-79000000D02*
G75*
G02*
X212300000Y-79000000I-1600000J0D01*
G01*
X212300000Y-79000000D02*
G75*
G02*
X215500000Y-79000000I1600000J0D01*
G01*
X215500000Y-41000000D02*
G75*
G02*
X212300000Y-41000000I-1600000J0D01*
G01*
X212300000Y-41000000D02*
G75*
G02*
X215500000Y-41000000I1600000J0D01*
G01*
X194505000Y-59250000D02*
X205255000Y-59250000D01*
X216878680Y-79000000D02*
X216878680Y-41000000D01*
X213878680Y-38000000D02*
G75*
G02*
X216878700Y-41000000I20J-3000000D01*
G01*
X102900000Y-79000000D02*
X102900000Y-41000000D01*
X194500000Y-38000000D02*
X194505000Y-59250000D01*
X102900000Y-41000000D02*
G75*
G02*
X105900000Y-38000000I3000000J0D01*
G01*
X205250000Y-59250000D02*
X205250000Y-38000000D01*
X213878680Y-38000000D02*
X205250000Y-38000000D01*
X107500000Y-79000000D02*
G75*
G02*
X104300000Y-79000000I-1600000J0D01*
G01*
X104300000Y-79000000D02*
G75*
G02*
X107500000Y-79000000I1600000J0D01*
G01*
X105900000Y-82000000D02*
G75*
G02*
X102900000Y-79000000I0J3000000D01*
G01*
X213878680Y-82000000D02*
X105900000Y-82000000D01*
X194500000Y-38000000D02*
X105900000Y-38000000D01*
X216878680Y-79000000D02*
G75*
G02*
X213878680Y-81999980I-2999980J0D01*
G01*
M02*
