<?xml version="1.0" standalone="no"?>
 <!DOCTYPE svg PUBLIC "-//W3C//DTD SVG 1.1//EN" 
 "http://www.w3.org/Graphics/SVG/1.1/DTD/svg11.dtd"> 
<svg
  xmlns:svg="http://www.w3.org/2000/svg"
  xmlns="http://www.w3.org/2000/svg"
  xmlns:xlink="http://www.w3.org/1999/xlink"
  version="1.1"
  width="297.0022mm" height="210.0072mm" viewBox="0.0000 0.0000 297.0022 210.0072">
<title>SVG Image created as ccc_macropad-Edge_Cuts.svg date 2025/11/05 19:57:52 </title>
  <desc>Image generated by PCBNEW </desc>
<g style="fill:#000000; fill-opacity:1.0000;stroke:#000000; stroke-opacity:1.0000;
stroke-linecap:round; stroke-linejoin:round;"
 transform="translate(0 0) scale(1 1)">
</g>
<g style="fill:none; 
stroke:#000000; stroke-width:0.0381; stroke-opacity:1; 
stroke-linecap:round; stroke-linejoin:round;">
<circle cx="209.0000" cy="79.0000" r="1.6000" /> 
<path d="M194.5050 59.2500
L205.2550 59.2500
" />
<path d="M212.0000 79.0000
L212.0000 41.0000
" />
<circle cx="126.9000" cy="41.0000" r="1.6000" /> 
<path d="M212.0000 41.0000 A3.0000 3.0000 0.0 0 0 209.0000 38.0000" />
<path d="M110.5000 79.0000
L110.5000 41.0000
" />
<path d="M194.5000 38.0000
L194.5050 59.2500
" />
<path d="M113.5000 38.0000 A3.0000 3.0000 0.0 0 0 110.5000 41.0000" />
<path d="M205.2500 59.2500
L205.2500 38.0000
" />
<path d="M209.0000 38.0000
L205.2500 38.0000
" />
<circle cx="113.5000" cy="79.0000" r="1.6000" /> 
<path d="M110.5000 79.0000 A3.0000 3.0000 0.0 0 0 113.5000 82.0000" />
<path d="M209.0000 82.0000
L113.5000 82.0000
" />
<path d="M209.0000 82.0000 A3.0000 3.0000 0.0 0 0 212.0000 79.0000" />
<path d="M113.5000 38.0000
L194.5000 38.0000
" />
</g> 
</svg>
