<?xml version="1.0" encoding="UTF-8"?>
<svg id="Layer_2" data-name="Layer 2" xmlns="http://www.w3.org/2000/svg" viewBox="0 0 285.63 103.81">
  <g id="Layer_1-2" data-name="Layer 1">
    <g>
      <path d="M211.37,29.25c-5.05-2.95-10.28-5.99-15.46-5.99s-10.41,3.05-15.46,5.99c-5.02,2.92-10.2,5.95-15.26,5.95s-10.24-3.02-15.26-5.95c-5.05-2.95-10.28-5.99-15.46-5.99h0s-.01,0-.02,0c-5.18,0-10.41,3.05-15.46,5.99-4.97,2.9-10.1,5.89-15.11,5.95h0c-5.06,0-10.24-3.03-15.26-5.95-2.54-1.48-5.12-2.98-7.71-4.12.17-.07.34-.14.51-.21l-.2-.1c-.17.07-.35.14-.52.21-2.51-1.07-5.03-1.79-7.54-1.79-5.18,0-10.41,3.05-15.46,5.99-5.02,2.92-10.2,5.95-15.26,5.95s-10.24-3.02-15.26-5.95c-2.58-1.51-5.21-3.04-7.85-4.17.13-.06.27-.11.4-.17l-.2-.1c-.14.06-.28.11-.42.17-2.46-1.04-4.94-1.73-7.4-1.73v.11c2.39,0,4.8.67,7.22,1.69,0,0-.01,0-.02,0l.21.09s.02,0,.02,0c2.63,1.13,5.25,2.66,7.83,4.16,5.05,2.95,10.28,5.99,15.46,5.99,2.47,0,4.94-.69,7.41-1.73.17.07.34.15.52.22l.2-.1c-.17-.07-.34-.14-.51-.21,2.64-1.14,5.26-2.67,7.84-4.17,4.97-2.9,10.1-5.89,15.11-5.95h0c5.06,0,10.24,3.03,15.26,5.95,5.05,2.95,10.28,5.99,15.46,5.99s10.41-3.05,15.46-5.99c5.02-2.92,10.2-5.95,15.26-5.95s10.24,3.02,15.26,5.95c5.05,2.95,10.28,5.99,15.46,5.99h0s.01,0,.02,0c5.18,0,10.41-3.05,15.46-5.99,5.02-2.92,10.2-5.95,15.26-5.95s10.24,3.02,15.26,5.95c5.05,2.95,10.28,5.99,15.46,5.99v-.11c-5.06,0-10.24-3.02-15.26-5.95Z"/>
      <path d="M21.01,24.43l-.18-.1c-.22.07-.44.15-.66.23l.19.1c.22-.08.44-.16.65-.23Z"/>
      <path d="M22.38,24.02l-.16-.11c-.23.06-.47.13-.71.2l.17.11c.23-.07.47-.14.7-.2Z"/>
      <polygon points="11.29 29.03 11.53 29.11 12.04 28.81 11.8 28.74 11.29 29.03"/>
      <path d="M28.79,23.49c-.28-.04-.55-.08-.83-.11l-.07.13c.26.03.53.06.79.1l.1-.12Z"/>
      <polygon points="12.31 28.44 12.55 28.52 13.06 28.23 12.83 28.15 12.31 28.44"/>
      <path d="M27.09,23.45l.03-.13c-.29-.01-.58-.02-.86-.01v.13c.28,0,.56,0,.83.01Z"/>
      <path d="M25.45,23.48l-.05-.13c-.28.02-.56.05-.84.09l.09.12c.27-.04.54-.06.8-.08Z"/>
      <path d="M55.3,35.22c.28.04.56.08.83.1l.06-.13c-.26-.02-.53-.06-.8-.1l-.1.12Z"/>
      <path d="M52.3,34.5c.24.08.47.15.7.21l.16-.11c-.23-.06-.46-.13-.69-.21l-.18.1Z"/>
      <path d="M30.35,23.81c-.25-.06-.51-.12-.76-.17l-.13.12c.24.05.49.11.74.17l.15-.11Z"/>
      <path d="M17.7,25.59l.22.09c.19-.09.39-.18.58-.26l-.21-.09c-.2.09-.39.18-.59.27Z"/>
      <path d="M50.97,34.04c.22.08.43.16.65.24l.19-.1c-.21-.08-.43-.15-.64-.24l-.2.1Z"/>
      <path d="M53.74,34.91c.26.06.51.12.76.17l.12-.12c-.24-.05-.49-.1-.74-.16l-.15.11Z"/>
      <path d="M14.39,27.27l.23.08c.18-.1.35-.19.53-.29l-.23-.08c-.18.1-.35.19-.53.29Z"/>
      <path d="M16.56,26.14l.22.09c.19-.09.37-.18.56-.27l-.22-.09c-.19.09-.38.18-.56.28Z"/>
      <path d="M13.35,27.85l.24.08c.17-.1.35-.19.52-.29l-.23-.08c-.17.1-.35.19-.52.29Z"/>
      <path d="M15.46,26.7l.23.08c.18-.1.36-.19.54-.28l-.23-.08c-.18.09-.36.19-.55.28Z"/>
      <path d="M23.86,23.68l-.11-.12c-.25.05-.52.1-.78.16l.14.12c.25-.06.51-.11.75-.15Z"/>
      <path d="M44.98,30.93c-.17-.1-.35-.19-.52-.29l-.24.08c.17.1.35.2.52.29l.24-.08Z"/>
      <polygon points="41.9 29.17 41.39 28.88 41.16 28.96 41.67 29.25 41.9 29.17"/>
      <polygon points="42.92 29.76 42.41 29.47 42.17 29.54 42.68 29.84 42.92 29.76"/>
      <path d="M46.03,31.51c-.18-.1-.35-.19-.53-.29l-.23.08c.18.1.35.19.53.29l.23-.08Z"/>
      <path d="M43.95,30.35c-.17-.1-.34-.2-.51-.29l-.24.08c.17.1.34.2.51.29l.24-.08Z"/>
      <path d="M47.1,32.08c-.18-.09-.36-.19-.54-.28l-.23.08c.18.1.36.19.54.28l.23-.08Z"/>
      <path d="M49.35,33.18c-.19-.09-.39-.18-.58-.27l-.22.09c.19.09.39.18.58.27l.22-.09Z"/>
      <path d="M48.2,32.64c-.19-.09-.37-.18-.56-.28l-.23.09c.19.09.37.19.56.28l.22-.09Z"/>
      <path d="M31.78,24.22c-.23-.08-.47-.15-.7-.21l-.16.11c.23.06.46.13.69.21l.18-.1Z"/>
      <polygon points="40.88 28.58 40.37 28.29 40.13 28.37 40.65 28.66 40.88 28.58"/>
      <path d="M33.1,24.68c-.22-.08-.43-.16-.65-.24l-.19.1c.21.08.43.15.64.24l.2-.1Z"/>
      <path d="M35.53,25.72c-.19-.09-.39-.18-.58-.27l-.21.09c.19.09.39.18.58.27l.22-.09Z"/>
      <path d="M34.35,25.19c-.2-.09-.41-.17-.61-.26l-.2.1c.2.08.4.17.61.25l.21-.09Z"/>
      <path d="M39.86,28c-.17-.1-.35-.19-.52-.29l-.24.08c.17.1.34.19.52.29l.24-.08Z"/>
      <path d="M36.66,26.27c-.19-.09-.37-.19-.56-.28l-.22.09c.19.09.37.18.56.28l.23-.09Z"/>
      <path d="M38.81,27.42c-.18-.1-.35-.19-.53-.29l-.23.08c.18.1.35.19.53.29l.23-.08Z"/>
      <path d="M37.75,26.84c-.18-.1-.36-.19-.54-.28l-.23.08c.18.09.36.19.54.28l.23-.08Z"/>
      <path d="M106.66,30.95c-.17-.1-.35-.19-.52-.29l-.24.08c.17.1.35.2.52.29l.24-.08Z"/>
      <path d="M105.63,30.36c-.17-.1-.34-.2-.51-.29l-.24.08c.17.1.34.2.51.29l.24-.08Z"/>
      <path d="M107.71,31.53c-.18-.1-.35-.19-.53-.29l-.23.08c.18.1.35.19.53.29l.23-.08Z"/>
      <polygon points="102.57 28.6 102.05 28.3 101.82 28.38 102.33 28.68 102.57 28.6"/>
      <polygon points="104.61 29.78 104.1 29.48 103.86 29.56 104.37 29.85 104.61 29.78"/>
      <path d="M108.78,32.1c-.18-.09-.36-.19-.54-.28l-.23.08c.18.1.36.19.54.28l.23-.08Z"/>
      <polygon points="103.59 29.19 103.08 28.89 102.84 28.97 103.35 29.27 103.59 29.19"/>
      <path d="M111.03,33.19c-.19-.09-.39-.18-.58-.27l-.22.09c.19.09.39.18.58.27l.22-.09Z"/>
      <path d="M60.37,34.9l.13.12c.25-.05.5-.12.75-.18l-.15-.11c-.24.06-.49.12-.73.18Z"/>
      <path d="M64.38,33.59l.21.09c.2-.08.4-.17.6-.26l-.21-.09c-.2.09-.4.17-.6.26Z"/>
      <path d="M63.13,34.08l.19.1c.21-.08.43-.16.64-.24l-.2-.1c-.21.08-.42.16-.63.24Z"/>
      <path d="M109.89,32.65c-.19-.09-.37-.18-.56-.28l-.23.09c.19.09.37.19.56.28l.22-.09Z"/>
      <path d="M58.83,35.16l.08.13c.27-.03.54-.07.81-.12l-.11-.12c-.26.05-.53.08-.78.12Z"/>
      <path d="M101.54,28.01c-.17-.1-.35-.19-.52-.29l-.24.08c.17.1.34.19.52.29l.24-.08Z"/>
      <path d="M57.43,35.26h0c-.14-.01-.28-.01-.42-.02l-.02.13c.07,0,.15,0,.22,0v.02c.28,0,.57,0,.86-.03l-.04-.13c-.2.01-.4.02-.6.02Z"/>
      <path d="M61.8,34.52l.17.11c.23-.07.46-.14.69-.22l-.18-.1c-.23.08-.45.15-.68.22Z"/>
      <path d="M88.77,23.47l.03-.13c-.29-.01-.58-.02-.86-.01v.13c.28,0,.56,0,.83.01Z"/>
      <path d="M87.13,23.49l-.05-.13c-.28.02-.56.05-.84.09l.09.12c.27-.04.54-.06.8-.08Z"/>
      <path d="M90.48,23.51c-.28-.04-.55-.08-.83-.11l-.07.13c.26.03.53.06.79.1l.1-.12Z"/>
      <path d="M85.54,23.7l-.11-.12c-.25.05-.52.1-.78.16l.14.12c.25-.06.51-.11.75-.15Z"/>
      <path d="M92.03,23.82c-.25-.06-.51-.12-.76-.17l-.13.12c.24.05.49.11.74.17l.15-.11Z"/>
      <path d="M82.69,24.45l-.18-.1c-.22.07-.44.15-.66.23l.19.1c.22-.08.44-.16.65-.23Z"/>
      <path d="M84.06,24.03l-.16-.11c-.23.06-.47.13-.71.2l.17.11c.23-.07.47-.14.7-.2Z"/>
      <path d="M100.5,27.43c-.18-.1-.35-.19-.53-.29l-.23.08c.18.1.35.19.53.29l.23-.08Z"/>
      <path d="M98.34,26.29c-.19-.09-.37-.19-.56-.28l-.22.09c.19.09.37.18.56.28l.23-.09Z"/>
      <path d="M97.21,25.74c-.19-.09-.39-.18-.58-.27l-.21.09c.19.09.39.18.58.27l.22-.09Z"/>
      <path d="M99.43,26.85c-.18-.1-.36-.19-.54-.28l-.23.08c.18.09.36.19.54.28l.23-.08Z"/>
      <path d="M96.03,25.2c-.2-.09-.41-.17-.61-.26l-.2.1c.2.08.4.17.61.25l.21-.09Z"/>
      <path d="M93.46,24.23c-.23-.08-.47-.15-.7-.21l-.16.11c.23.06.46.13.69.21l.18-.1Z"/>
      <path d="M94.79,24.7c-.22-.08-.43-.16-.65-.24l-.19.1c.21.08.43.15.64.24l.2-.1Z"/>
      <path d="M76.08,27.29l.23.08c.18-.1.35-.19.53-.29l-.23-.08c-.18.1-.35.19-.53.29Z"/>
      <path d="M75.03,27.87l.24.08c.17-.1.35-.19.52-.29l-.23-.08c-.17.1-.35.19-.52.29Z"/>
      <path d="M74,28.46l.24.08c.17-.1.34-.2.51-.29l-.24-.08c-.17.1-.34.2-.52.29Z"/>
      <path d="M77.15,26.71l.23.08c.18-.1.36-.19.54-.28l-.23-.08c-.18.09-.36.19-.55.28Z"/>
      <path d="M116.98,35.23c.28.04.56.08.83.1l.06-.13c-.26-.02-.53-.06-.8-.1l-.1.12Z"/>
      <polygon points="71.95 29.63 72.19 29.71 72.71 29.42 72.46 29.34 71.95 29.63"/>
      <polygon points="70.93 30.22 71.17 30.3 71.68 30.01 71.44 29.93 70.93 30.22"/>
      <polygon points="72.97 29.04 73.21 29.12 73.72 28.83 73.48 28.75 72.97 29.04"/>
      <path d="M112.66,34.05c.22.08.43.16.65.24l.19-.1c-.21-.08-.43-.15-.64-.24l-.2.1Z"/>
      <path d="M113.99,34.52c.24.08.47.15.7.21l.16-.11c-.23-.06-.46-.13-.69-.21l-.18.1Z"/>
      <path d="M78.25,26.15l.22.09c.19-.09.37-.18.56-.27l-.22-.09c-.19.09-.38.18-.57.28Z"/>
      <path d="M79.39,25.6l.22.09c.19-.09.39-.18.58-.26l-.21-.09c-.2.09-.39.18-.59.27Z"/>
      <path d="M111.41,33.55c.2.09.41.17.61.26l.2-.1c-.2-.08-.4-.17-.61-.25l-.21.09Z"/>
      <path d="M69.9,30.81l.24.08c.17-.1.34-.19.52-.29l-.24-.08c-.17.1-.34.19-.52.29Z"/>
      <path d="M68.86,31.39l.23.08c.18-.1.35-.19.53-.29l-.23-.08c-.17.1-.35.19-.52.29Z"/>
      <path d="M115.42,34.92c.26.06.51.12.76.17l.12-.12c-.24-.05-.49-.1-.74-.16l-.15.11Z"/>
      <path d="M65.57,33.06l.22.09c.19-.09.38-.18.58-.27l-.22-.09c-.19.09-.38.18-.57.27Z"/>
      <path d="M66.7,32.52l.22.09c.18-.09.37-.19.55-.28l-.23-.08c-.18.09-.37.19-.55.28Z"/>
      <path d="M67.79,31.96l.23.08c.18-.09.36-.19.54-.29l-.23-.08c-.18.1-.36.19-.54.28Z"/>
      <polygon points="165.35 29.19 164.84 28.89 164.6 28.97 165.11 29.27 165.35 29.19"/>
      <path d="M158.97,25.74c-.19-.09-.39-.18-.58-.27l-.21.09c.19.09.39.18.58.27l.22-.09Z"/>
      <polygon points="166.37 29.78 165.86 29.48 165.62 29.56 166.13 29.85 166.37 29.78"/>
      <path d="M160.1,26.29c-.19-.09-.37-.19-.56-.28l-.22.09c.19.09.37.18.56.28l.23-.09Z"/>
      <path d="M157.79,25.2c-.2-.09-.41-.17-.61-.26l-.2.1c.2.08.4.17.61.25l.21-.09Z"/>
      <path d="M161.19,26.85c-.18-.1-.36-.19-.54-.28l-.23.08c.18.09.36.19.54.28l.23-.08Z"/>
      <path d="M163.3,28.01c-.17-.1-.35-.19-.52-.29l-.24.08c.17.1.34.19.52.29l.24-.08Z"/>
      <polygon points="164.33 28.6 163.81 28.3 163.58 28.38 164.09 28.68 164.33 28.6"/>
      <path d="M162.26,27.43c-.18-.1-.35-.19-.53-.29l-.23.08c.18.1.35.19.53.29l.23-.08Z"/>
      <path d="M167.39,30.36c-.17-.1-.34-.2-.51-.29l-.24.08c.17.1.34.2.51.29l.24-.08Z"/>
      <path d="M153.79,23.82c-.25-.06-.51-.12-.76-.17l-.13.12c.24.05.49.11.74.17l.15-.11Z"/>
      <path d="M152.24,23.51c-.28-.04-.55-.08-.83-.11l-.07.13c.26.03.53.06.79.1l.1-.12Z"/>
      <path d="M156.55,24.7c-.22-.08-.43-.16-.65-.24l-.19.1c.21.08.43.15.64.24l.2-.1Z"/>
      <path d="M169.47,31.53c-.18-.1-.35-.19-.53-.29l-.23.08c.18.1.35.19.53.29l.23-.08Z"/>
      <path d="M155.22,24.23c-.23-.08-.47-.15-.7-.21l-.16.11c.23.06.46.13.69.21l.18-.1Z"/>
      <path d="M150.53,23.47l.03-.13c-.29-.01-.58-.02-.86-.01v.13c.28,0,.56,0,.83.01Z"/>
      <path d="M144.45,24.45l-.18-.1c-.22.07-.44.15-.66.23l.19.1c.22-.08.44-.16.65-.23Z"/>
      <path d="M148.89,23.49l-.05-.13c-.28.02-.56.05-.84.09l.09.12c.27-.04.54-.06.8-.08Z"/>
      <path d="M143.17,24.92l-.2-.1c-.21.08-.41.17-.62.25l.21.09c.2-.09.41-.17.61-.25Z"/>
      <path d="M147.31,23.7l-.11-.12c-.25.05-.52.1-.78.16l.14.12c.25-.06.51-.11.75-.15Z"/>
      <path d="M145.83,24.03l-.16-.11c-.23.06-.47.13-.71.2l.17.11c.23-.07.47-.14.7-.2Z"/>
      <polygon points="134.73 29.04 134.97 29.12 135.48 28.83 135.24 28.75 134.73 29.04"/>
      <path d="M135.76,28.46l.24.08c.17-.1.34-.2.51-.29l-.24-.08c-.17.1-.34.2-.52.29Z"/>
      <path d="M136.79,27.87l.24.08c.17-.1.35-.19.52-.29l-.23-.08c-.17.1-.35.19-.52.29Z"/>
      <polygon points="133.72 29.63 133.95 29.71 134.47 29.42 134.22 29.34 133.72 29.63"/>
      <path d="M168.42,30.95c-.17-.1-.35-.19-.52-.29l-.24.08c.17.1.35.2.52.29l.24-.08Z"/>
      <path d="M137.84,27.29l.23.08c.18-.1.35-.19.53-.29l-.23-.08c-.18.1-.35.19-.53.29Z"/>
      <path d="M141.15,25.6l.22.09c.19-.09.39-.18.58-.26l-.21-.09c-.2.09-.39.18-.59.27Z"/>
      <path d="M174.42,34.05c.22.08.43.16.65.24l.19-.1c-.21-.08-.43-.15-.64-.24l-.2.1Z"/>
      <path d="M173.18,33.55c.2.09.41.17.61.26l.2-.1c-.2-.08-.4-.17-.61-.25l-.21.09Z"/>
      <path d="M140.01,26.15l.22.09c.19-.09.37-.18.56-.27l-.22-.09c-.19.09-.38.18-.57.28Z"/>
      <polygon points="132.69 30.22 132.93 30.3 133.44 30.01 133.21 29.93 132.69 30.22"/>
      <path d="M138.91,26.71l.23.08c.18-.1.36-.19.54-.28l-.23-.08c-.18.09-.36.19-.55.28Z"/>
      <path d="M130.62,31.39l.23.08c.18-.1.35-.19.53-.29l-.23-.08c-.17.1-.35.19-.52.29Z"/>
      <path d="M126.14,33.59l.21.09c.2-.08.4-.17.6-.26l-.21-.09c-.2.09-.4.17-.6.26Z"/>
      <path d="M128.46,32.52l.22.09c.18-.09.37-.19.55-.28l-.23-.08c-.18.09-.37.19-.55.28Z"/>
      <path d="M127.33,33.06l.22.09c.19-.09.38-.18.58-.27l-.22-.09c-.19.09-.38.18-.57.27Z"/>
      <path d="M175.75,34.52c.23.07.47.15.7.21l.16-.11c-.23-.06-.46-.13-.69-.21l-.18.1Z"/>
      <path d="M129.56,31.96l.23.08c.18-.09.36-.19.54-.29l-.23-.08c-.18.1-.36.19-.54.28Z"/>
      <path d="M122.13,34.9l.13.12c.25-.05.5-.12.75-.18l-.15-.11c-.24.06-.49.12-.73.18Z"/>
      <path d="M120.59,35.16l.08.13c.27-.03.54-.07.81-.12l-.11-.12c-.26.05-.53.08-.78.12Z"/>
      <path d="M119.79,35.24c-.25.02-.5.02-.75.03-.12,0-.23,0-.35,0l-.02.13c.1,0,.2,0,.3,0h0s.04,0,.07,0c.02,0,.04,0,.07,0h.01,0c.24,0,.48-.01.72-.03l-.04-.13Z"/>
      <path d="M170.55,32.1c-.18-.09-.36-.19-.54-.28l-.23.08c.18.1.36.19.54.28l.23-.08Z"/>
      <path d="M124.89,34.08l.19.1c.21-.08.43-.16.64-.24l-.2-.1c-.21.08-.42.16-.63.24Z"/>
      <path d="M123.56,34.52l.17.11c.23-.07.46-.14.69-.22l-.18-.1c-.23.08-.45.15-.68.22Z"/>
      <path d="M172.79,33.19c-.19-.09-.39-.18-.58-.27l-.22.09c.19.09.39.18.58.27l.22-.09Z"/>
      <path d="M171.65,32.65c-.19-.09-.37-.18-.56-.28l-.23.09c.19.09.37.19.56.28l.22-.09Z"/>
      <path d="M131.67,30.81l.24.08c.17-.1.34-.19.52-.29l-.24-.08c-.17.1-.34.19-.52.29Z"/>
      <path d="M178.74,35.23c.28.04.56.08.83.1l.06-.13c-.26-.02-.53-.06-.8-.1l-.1.12Z"/>
      <path d="M177.18,34.92c.26.06.51.12.76.17l.12-.12c-.24-.05-.49-.1-.74-.16l-.15.11Z"/>
      <path d="M207.59,24.03l-.16-.11c-.23.06-.47.13-.71.2l.17.11c.24-.07.47-.14.7-.2Z"/>
      <path d="M209.07,23.7l-.11-.12c-.26.05-.52.1-.78.16l.14.12c.25-.06.51-.11.75-.15Z"/>
      <path d="M210.65,23.49l-.05-.13c-.28.02-.56.05-.84.09l.09.12c.27-.04.54-.06.8-.08Z"/>
      <path d="M212.29,23.47l.03-.13c-.29-.01-.58-.02-.86-.01v.13c.28,0,.56,0,.83.01Z"/>
      <path d="M206.21,24.45l-.18-.1c-.22.07-.44.15-.66.23l.19.1c.22-.08.44-.16.65-.23Z"/>
      <path d="M226.09,28.6c-.17-.1-.34-.2-.51-.29l-.24.08c.17.1.34.2.51.29l.24-.08Z"/>
      <path d="M204.93,24.92l-.2-.1c-.21.08-.41.17-.62.25l.21.09c.2-.09.41-.17.61-.25Z"/>
      <path d="M222.96,26.85c-.18-.1-.36-.19-.54-.28l-.23.08c.18.09.36.19.54.28l.23-.08Z"/>
      <path d="M219.55,25.2c-.2-.09-.41-.17-.61-.26l-.2.1c.2.08.4.17.61.25l.21-.09Z"/>
      <path d="M225.06,28.01c-.17-.1-.35-.19-.52-.29l-.23.08c.17.1.34.19.52.29l.24-.08Z"/>
      <path d="M220.73,25.74c-.19-.09-.39-.18-.58-.27l-.22.09c.19.09.39.18.58.27l.22-.09Z"/>
      <path d="M224.02,27.43c-.18-.1-.35-.19-.53-.29l-.23.08c.18.1.35.19.53.29l.23-.08Z"/>
      <path d="M214,23.51c-.28-.04-.55-.08-.82-.11l-.07.13c.26.03.53.06.79.1l.1-.12Z"/>
      <path d="M215.55,23.82c-.25-.06-.51-.12-.76-.17l-.13.12c.24.05.49.11.74.17l.15-.11Z"/>
      <path d="M218.31,24.7c-.22-.08-.43-.16-.65-.24l-.19.1c.21.08.43.15.64.24l.2-.1Z"/>
      <path d="M216.98,24.23c-.23-.08-.47-.15-.7-.21l-.16.11c.23.06.46.13.69.21l.18-.1Z"/>
      <path d="M221.86,26.29c-.19-.09-.37-.19-.56-.28l-.22.09c.19.09.37.18.56.28l.23-.09Z"/>
      <path d="M187.9,33.59l.21.09c.2-.08.4-.17.6-.26l-.21-.09c-.2.09-.4.17-.6.26Z"/>
      <path d="M186.66,34.08l.19.1c.21-.08.43-.16.64-.24l-.2-.1c-.21.08-.42.16-.63.24Z"/>
      <path d="M189.09,33.06l.22.09c.19-.09.38-.18.58-.27l-.22-.09c-.19.09-.38.18-.57.27Z"/>
      <path d="M190.22,32.52l.22.09c.19-.09.37-.19.55-.28l-.23-.08c-.18.09-.37.19-.55.28Z"/>
      <path d="M191.32,31.96l.23.08c.18-.09.36-.19.54-.29l-.23-.08c-.18.1-.36.19-.54.28Z"/>
      <path d="M181.55,35.24c-.26.02-.53.03-.79.03-.1,0-.21,0-.31,0l-.02.13c.1,0,.2,0,.3,0h0s.04,0,.07,0c.02,0,.04,0,.07,0h.01,0c.24,0,.48-.01.72-.03l-.04-.13Z"/>
      <path d="M182.35,35.16l.08.13c.27-.03.54-.07.82-.12l-.11-.12c-.26.05-.53.08-.78.12Z"/>
      <path d="M192.38,31.39l.23.08c.18-.1.35-.19.53-.29l-.23-.08c-.18.1-.35.19-.52.29Z"/>
      <path d="M183.9,34.9l.13.12c.24-.05.5-.12.75-.18l-.15-.11c-.25.06-.49.12-.73.18Z"/>
      <polygon points="226.36 28.97 226.87 29.27 227.11 29.19 226.6 28.89 226.36 28.97"/>
      <path d="M185.33,34.52l.17.11c.23-.07.46-.14.69-.22l-.18-.1c-.23.08-.45.15-.68.22Z"/>
      <path d="M193.43,30.81l.24.08c.17-.1.34-.19.52-.29l-.24-.08c-.17.1-.34.19-.52.29Z"/>
      <path d="M198.55,27.87l.24.08c.17-.1.35-.19.52-.29l-.23-.08c-.17.1-.35.19-.52.29Z"/>
      <path d="M199.6,27.29l.23.08c.18-.1.35-.19.53-.29l-.23-.08c-.18.1-.35.19-.53.29Z"/>
      <path d="M202.91,25.6l.22.09c.19-.09.39-.18.58-.26l-.21-.09c-.2.09-.39.18-.59.27Z"/>
      <path d="M201.77,26.15l.22.09c.19-.09.37-.18.56-.27l-.22-.09c-.19.09-.38.18-.56.28Z"/>
      <path d="M200.67,26.71l.23.08c.18-.1.36-.19.54-.28l-.23-.08c-.18.09-.36.19-.55.28Z"/>
      <path d="M197.52,28.46l.24.08c.17-.1.34-.2.51-.29l-.24-.08c-.17.1-.34.2-.52.29Z"/>
      <polygon points="195.48 29.63 195.72 29.71 196.22 29.42 195.98 29.34 195.48 29.63"/>
      <polygon points="194.46 30.22 194.69 30.3 195.2 30.01 194.97 29.93 194.46 30.22"/>
      <polygon points="196.5 29.04 196.73 29.12 197.24 28.83 197.01 28.75 196.5 29.04"/>
    </g>
    <g>
      <path d="M19.7,0l1.48,1.35v2.8l-1.48,1.35-1.48-1.35V1.35l1.48-1.35ZM19.96,3.92v-.47c0-.11.02-.21.05-.29.03-.07.11-.17.24-.3l.24-.24c.17-.17.29-.32.35-.44.06-.12.09-.25.09-.39,0-.3-.1-.53-.31-.71-.2-.18-.48-.27-.82-.27-.19,0-.38.03-.55.08-.18.05-.35.13-.52.24v.52c.18-.13.35-.22.52-.28.16-.06.32-.1.46-.1.2,0,.36.05.48.15.12.1.18.23.18.4,0,.09-.02.18-.06.26-.04.08-.12.18-.24.29l-.25.25c-.16.16-.26.29-.32.42-.06.13-.09.28-.09.46v.43h.53ZM19.42,4.32v.7h.56v-.7h-.56Z"/>
      <path d="M23.38,0l1.48,1.35v2.8l-1.48,1.35-1.48-1.35V1.35l1.48-1.35ZM23.65,3.92v-.47c0-.11.02-.21.05-.29.03-.07.11-.17.24-.3l.24-.24c.17-.17.29-.32.35-.44.06-.12.09-.25.09-.39,0-.3-.1-.53-.31-.71-.2-.18-.48-.27-.82-.27-.19,0-.38.03-.55.08-.18.05-.35.13-.52.24v.52c.18-.13.35-.22.52-.28.16-.06.32-.1.46-.1.2,0,.36.05.48.15.12.1.18.23.18.4,0,.09-.02.18-.06.26-.04.08-.12.18-.24.29l-.25.25c-.16.16-.26.29-.32.42-.06.13-.09.28-.09.46v.43h.53ZM23.1,4.32v.7h.56v-.7h-.56Z"/>
      <path d="M27.07,0l1.48,1.35v2.8l-1.48,1.35-1.48-1.35V1.35l1.48-1.35ZM27.33,3.92v-.47c0-.11.02-.21.05-.29.03-.07.11-.17.24-.3l.24-.24c.17-.17.29-.32.35-.44.06-.12.09-.25.09-.39,0-.3-.1-.53-.31-.71-.2-.18-.48-.27-.82-.27-.19,0-.38.03-.55.08-.18.05-.35.13-.52.24v.52c.18-.13.35-.22.52-.28.16-.06.32-.1.46-.1.2,0,.36.05.48.15.12.1.18.23.18.4,0,.09-.02.18-.06.26-.04.08-.12.18-.24.29l-.25.25c-.16.16-.26.29-.32.42-.06.13-.09.28-.09.46v.43h.53ZM26.79,4.32v.7h.56v-.7h-.56Z"/>
      <path d="M31.1.71v1.72h-.62V.71h.62Z"/>
      <path d="M33.11.89h.56v1.58h1.53V.89h.56v4.13h-.56v-2.08h-1.53v2.08h-.56V.89Z"/>
      <path d="M38.12,0l1.48,1.35v2.8l-1.48,1.35-1.48-1.35V1.35l1.48-1.35ZM38.39,3.92v-.47c0-.11.02-.21.05-.29.03-.07.11-.17.24-.3l.24-.24c.17-.17.29-.32.35-.44.06-.12.09-.25.09-.39,0-.3-.1-.53-.31-.71-.2-.18-.48-.27-.82-.27-.19,0-.38.03-.55.08-.18.05-.35.13-.52.24v.52c.18-.13.35-.22.52-.28.16-.06.32-.1.46-.1.2,0,.36.05.48.15.12.1.18.23.18.4,0,.09-.02.18-.06.26-.04.08-.12.18-.24.29l-.25.25c-.16.16-.26.29-.32.42-.06.13-.09.28-.09.46v.43h.53ZM37.84,4.32v.7h.56v-.7h-.56Z"/>
      <path d="M41.81,0l1.48,1.35v2.8l-1.48,1.35-1.48-1.35V1.35l1.48-1.35ZM42.07,3.92v-.47c0-.11.02-.21.05-.29.03-.07.11-.17.24-.3l.24-.24c.17-.17.29-.32.35-.44.06-.12.09-.25.09-.39,0-.3-.1-.53-.31-.71-.2-.18-.48-.27-.82-.27-.19,0-.38.03-.55.08-.18.05-.35.13-.52.24v.52c.18-.13.35-.22.52-.28.16-.06.32-.1.46-.1.2,0,.36.05.48.15.12.1.18.23.18.4,0,.09-.02.18-.06.26-.04.08-.12.18-.24.29l-.25.25c-.16.16-.26.29-.32.42-.06.13-.09.28-.09.46v.43h.53ZM41.53,4.32v.7h.56v-.7h-.56Z"/>
      <path d="M45.5,0l1.48,1.35v2.8l-1.48,1.35-1.48-1.35V1.35l1.48-1.35ZM45.76,3.92v-.47c0-.11.02-.21.05-.29.03-.07.11-.17.24-.3l.24-.24c.17-.17.29-.32.35-.44.06-.12.09-.25.09-.39,0-.3-.1-.53-.31-.71-.2-.18-.48-.27-.82-.27-.19,0-.38.03-.55.08-.18.05-.35.13-.52.24v.52c.18-.13.35-.22.52-.28.16-.06.32-.1.46-.1.2,0,.36.05.48.15.12.1.18.23.18.4,0,.09-.02.18-.06.26-.04.08-.12.18-.24.29l-.25.25c-.16.16-.26.29-.32.42-.06.13-.09.28-.09.46v.43h.53ZM45.21,4.32v.7h.56v-.7h-.56Z"/>
      <path d="M49.18,0l1.48,1.35v2.8l-1.48,1.35-1.48-1.35V1.35l1.48-1.35ZM49.44,3.92v-.47c0-.11.02-.21.05-.29.03-.07.11-.17.24-.3l.24-.24c.17-.17.29-.32.35-.44.06-.12.09-.25.09-.39,0-.3-.1-.53-.31-.71-.2-.18-.48-.27-.82-.27-.19,0-.38.03-.55.08-.18.05-.35.13-.52.24v.52c.18-.13.35-.22.52-.28.16-.06.32-.1.46-.1.2,0,.36.05.48.15.12.1.18.23.18.4,0,.09-.02.18-.06.26-.04.08-.12.18-.24.29l-.25.25c-.16.16-.26.29-.32.42-.06.13-.09.28-.09.46v.43h.53ZM48.9,4.32v.7h.56v-.7h-.56Z"/>
      <path d="M51.16,1.05h2.84v3.97h-2.84V1.05ZM51.44,4.49l.97-1.45-.97-1.45v2.9ZM53.54,1.34h-1.93l.96,1.45.96-1.45ZM53.54,4.74l-.96-1.45-.96,1.45h1.93ZM53.71,4.49V1.59l-.96,1.45.96,1.45Z"/>
      <path d="M55.23.45h.44c.28.44.49.86.62,1.28.14.42.2.83.2,1.24s-.07.83-.2,1.25c-.14.42-.34.84-.62,1.28h-.44c.25-.43.43-.85.55-1.27.12-.42.18-.84.18-1.26s-.06-.84-.18-1.26c-.12-.42-.3-.84-.55-1.26Z"/>
      <path d="M59.66,0l1.48,1.35v2.8l-1.48,1.35-1.48-1.35V1.35l1.48-1.35ZM59.92,3.92v-.47c0-.11.02-.21.05-.29.03-.07.11-.17.24-.3l.24-.24c.17-.17.29-.32.35-.44.06-.12.09-.25.09-.39,0-.3-.1-.53-.31-.71-.2-.18-.48-.27-.82-.27-.19,0-.38.03-.55.08-.18.05-.35.13-.52.24v.52c.18-.13.35-.22.52-.28.16-.06.32-.1.46-.1.2,0,.36.05.48.15.12.1.18.23.18.4,0,.09-.02.18-.06.26-.04.08-.12.18-.24.29l-.25.25c-.16.16-.26.29-.32.42-.06.13-.09.28-.09.46v.43h.53ZM59.38,4.32v.7h.56v-.7h-.56Z"/>
      <path d="M19.7,4.82l1.48,1.35v2.8l-1.48,1.35-1.48-1.35v-2.8l1.48-1.35ZM19.96,8.74v-.47c0-.11.02-.21.05-.29.03-.07.11-.17.24-.3l.24-.24c.17-.17.29-.32.35-.44.06-.12.09-.25.09-.39,0-.3-.1-.53-.31-.71-.2-.18-.48-.27-.82-.27-.19,0-.38.03-.55.08-.18.05-.35.13-.52.24v.52c.18-.13.35-.22.52-.28.16-.06.32-.1.46-.1.2,0,.36.05.48.15.12.1.18.23.18.4,0,.09-.02.18-.06.26-.04.08-.12.18-.24.29l-.25.25c-.16.16-.26.29-.32.42-.06.13-.09.28-.09.46v.43h.53ZM19.42,9.14v.7h.56v-.7h-.56Z"/>
      <path d="M23.38,4.82l1.48,1.35v2.8l-1.48,1.35-1.48-1.35v-2.8l1.48-1.35ZM23.65,8.74v-.47c0-.11.02-.21.05-.29.03-.07.11-.17.24-.3l.24-.24c.17-.17.29-.32.35-.44.06-.12.09-.25.09-.39,0-.3-.1-.53-.31-.71-.2-.18-.48-.27-.82-.27-.19,0-.38.03-.55.08-.18.05-.35.13-.52.24v.52c.18-.13.35-.22.52-.28.16-.06.32-.1.46-.1.2,0,.36.05.48.15.12.1.18.23.18.4,0,.09-.02.18-.06.26-.04.08-.12.18-.24.29l-.25.25c-.16.16-.26.29-.32.42-.06.13-.09.28-.09.46v.43h.53ZM23.1,9.14v.7h.56v-.7h-.56Z"/>
      <path d="M25.65,7.84h2.93v.47h-2.93v-.47Z"/>
      <path d="M30.75,4.82l1.48,1.35v2.8l-1.48,1.35-1.48-1.35v-2.8l1.48-1.35ZM31.02,8.74v-.47c0-.11.02-.21.05-.29.03-.07.11-.17.24-.3l.24-.24c.17-.17.29-.32.35-.44.06-.12.09-.25.09-.39,0-.3-.1-.53-.31-.71-.2-.18-.48-.27-.82-.27-.19,0-.38.03-.55.08-.18.05-.35.13-.52.24v.52c.18-.13.35-.22.52-.28.16-.06.32-.1.46-.1.2,0,.36.05.48.15.12.1.18.23.18.4,0,.09-.02.18-.06.26-.04.08-.12.18-.24.29l-.25.25c-.16.16-.26.29-.32.42-.06.13-.09.28-.09.46v.43h.53ZM30.47,9.14v.7h.56v-.7h-.56Z"/>
      <path d="M35.67,8.08v1.77h-.51v-.46c-.11.18-.25.32-.41.41-.17.09-.37.13-.6.13-.32,0-.57-.09-.76-.27-.19-.18-.28-.42-.28-.72,0-.35.12-.61.35-.79.23-.18.57-.27,1.02-.27h.68v-.08c0-.25-.06-.43-.19-.54-.12-.11-.32-.17-.59-.17-.17,0-.35.02-.53.07s-.35.12-.52.22v-.51c.19-.07.37-.13.54-.16.17-.04.34-.05.5-.05.26,0,.48.04.66.11.18.08.33.19.44.34.07.09.12.21.15.34s.04.34.04.61ZM34.68,8.29h-.17c-.3,0-.52.05-.67.16-.15.1-.23.26-.23.47,0,.19.06.33.17.43.11.1.27.15.47.15.28,0,.5-.1.66-.29.16-.19.24-.46.24-.81v-.11h-.48Z"/>
      <path d="M39.36,9.69c-.14.08-.28.14-.42.18-.15.04-.29.06-.44.06-.48,0-.85-.14-1.13-.43s-.41-.69-.41-1.2.13-.91.41-1.2c.27-.29.65-.43,1.13-.43.15,0,.29.02.44.06.14.04.29.1.43.18v.53c-.13-.12-.27-.21-.41-.26-.14-.05-.29-.08-.46-.08-.32,0-.56.1-.74.31-.17.21-.26.5-.26.89s.09.68.26.88c.17.21.42.31.74.31.18,0,.34-.03.48-.08.14-.05.27-.14.39-.25v.53Z"/>
      <path d="M40.76,5.54h.53v2.49l1.34-1.29h.62l-1.22,1.17,1.41,1.93h-.62l-1.15-1.6-.38.36v1.24h-.53v-4.31Z"/>
      <path d="M45.5,4.82l1.48,1.35v2.8l-1.48,1.35-1.48-1.35v-2.8l1.48-1.35ZM45.76,8.74v-.47c0-.11.02-.21.05-.29.03-.07.11-.17.24-.3l.24-.24c.17-.17.29-.32.35-.44.06-.12.09-.25.09-.39,0-.3-.1-.53-.31-.71-.2-.18-.48-.27-.82-.27-.19,0-.38.03-.55.08-.18.05-.35.13-.52.24v.52c.18-.13.35-.22.52-.28.16-.06.32-.1.46-.1.2,0,.36.05.48.15.12.1.18.23.18.4,0,.09-.02.18-.06.26-.04.08-.12.18-.24.29l-.25.25c-.16.16-.26.29-.32.42-.06.13-.09.28-.09.46v.43h.53ZM45.21,9.14v.7h.56v-.7h-.56Z"/>
      <path d="M49.18,4.82l1.48,1.35v2.8l-1.48,1.35-1.48-1.35v-2.8l1.48-1.35ZM49.44,8.74v-.47c0-.11.02-.21.05-.29.03-.07.11-.17.24-.3l.24-.24c.17-.17.29-.32.35-.44.06-.12.09-.25.09-.39,0-.3-.1-.53-.31-.71-.2-.18-.48-.27-.82-.27-.19,0-.38.03-.55.08-.18.05-.35.13-.52.24v.52c.18-.13.35-.22.52-.28.16-.06.32-.1.46-.1.2,0,.36.05.48.15.12.1.18.23.18.4,0,.09-.02.18-.06.26-.04.08-.12.18-.24.29l-.25.25c-.16.16-.26.29-.32.42-.06.13-.09.28-.09.46v.43h.53ZM48.9,9.14v.7h.56v-.7h-.56Z"/>
      <path d="M52.87,4.82l1.48,1.35v2.8l-1.48,1.35-1.48-1.35v-2.8l1.48-1.35ZM53.13,8.74v-.47c0-.11.02-.21.05-.29.03-.07.11-.17.24-.3l.24-.24c.17-.17.29-.32.35-.44.06-.12.09-.25.09-.39,0-.3-.1-.53-.31-.71-.2-.18-.48-.27-.82-.27-.19,0-.38.03-.55.08-.18.05-.35.13-.52.24v.52c.18-.13.35-.22.52-.28.16-.06.32-.1.46-.1.2,0,.36.05.48.15.12.1.18.23.18.4,0,.09-.02.18-.06.26-.04.08-.12.18-.24.29l-.25.25c-.16.16-.26.29-.32.42-.06.13-.09.28-.09.46v.43h.53ZM52.58,9.14v.7h.56v-.7h-.56Z"/>
      <path d="M56.84,5.26v5.05h-1.17v-.4h.66v-4.26h-.66v-.4h1.17Z"/>
      <path d="M60.24,4.82l1.48,1.35v2.8l-1.48,1.35-1.48-1.35v-2.8l1.48-1.35ZM60.5,8.74v-.47c0-.11.02-.21.05-.29.03-.07.11-.17.24-.3l.24-.24c.17-.17.29-.32.35-.44.06-.12.09-.25.09-.39,0-.3-.1-.53-.31-.71-.2-.18-.48-.27-.82-.27-.19,0-.38.03-.55.08-.18.05-.35.13-.52.24v.52c.18-.13.35-.22.52-.28.16-.06.32-.1.46-.1.2,0,.36.05.48.15.12.1.18.23.18.4,0,.09-.02.18-.06.26-.04.08-.12.18-.24.29l-.25.25c-.16.16-.26.29-.32.42-.06.13-.09.28-.09.46v.43h.53ZM59.95,9.14v.7h.56v-.7h-.56Z"/>
      <path d="M62.76,5.71h1.21c.46,0,.81.1,1.05.31.24.21.36.52.36.92s-.12.72-.36.92-.59.31-1.05.31h-.65v1.66h-.56v-4.13ZM63.32,6.17v1.55h.65c.26,0,.46-.07.6-.2.15-.14.22-.33.22-.57s-.07-.44-.22-.57c-.14-.14-.35-.2-.61-.2h-.65Z"/>
      <path d="M67.61,4.82l1.48,1.35v2.8l-1.48,1.35-1.48-1.35v-2.8l1.48-1.35ZM67.87,8.74v-.47c0-.11.02-.21.05-.29.03-.07.11-.17.24-.3l.24-.24c.17-.17.29-.32.35-.44.06-.12.09-.25.09-.39,0-.3-.1-.53-.31-.71-.2-.18-.48-.27-.82-.27-.19,0-.38.03-.55.08-.18.05-.35.13-.52.24v.52c.18-.13.35-.22.52-.28.16-.06.32-.1.46-.1.2,0,.36.05.48.15.12.1.18.23.18.4,0,.09-.02.18-.06.26-.04.08-.12.18-.24.29l-.25.25c-.16.16-.26.29-.32.42-.06.13-.09.28-.09.46v.43h.53ZM67.32,9.14v.7h.56v-.7h-.56Z"/>
      <path d="M71.29,4.82l1.48,1.35v2.8l-1.48,1.35-1.48-1.35v-2.8l1.48-1.35ZM71.55,8.74v-.47c0-.11.02-.21.05-.29.03-.07.11-.17.24-.3l.24-.24c.17-.17.29-.32.35-.44.06-.12.09-.25.09-.39,0-.3-.1-.53-.31-.71-.2-.18-.48-.27-.82-.27-.19,0-.38.03-.55.08-.18.05-.35.13-.52.24v.52c.18-.13.35-.22.52-.28.16-.06.32-.1.46-.1.2,0,.36.05.48.15.12.1.18.23.18.4,0,.09-.02.18-.06.26-.04.08-.12.18-.24.29l-.25.25c-.16.16-.26.29-.32.42-.06.13-.09.28-.09.46v.43h.53ZM71.01,9.14v.7h.56v-.7h-.56Z"/>
      <path d="M76.2,8.08v1.77h-.51v-.46c-.11.18-.25.32-.41.41-.17.09-.37.13-.6.13-.32,0-.57-.09-.76-.27-.19-.18-.28-.42-.28-.72,0-.35.12-.61.35-.79.23-.18.57-.27,1.02-.27h.68v-.08c0-.25-.06-.43-.19-.54-.12-.11-.32-.17-.59-.17-.17,0-.35.02-.53.07s-.35.12-.52.22v-.51c.19-.07.37-.13.54-.16.17-.04.34-.05.5-.05.26,0,.48.04.66.11.18.08.33.19.44.34.07.09.12.21.15.34s.04.34.04.61ZM75.22,8.29h-.17c-.3,0-.52.05-.67.16-.15.1-.23.26-.23.47,0,.19.06.33.17.43.11.1.27.15.47.15.28,0,.5-.1.66-.29.16-.19.24-.46.24-.81v-.11h-.48Z"/>
      <path d="M78.66,4.82l1.48,1.35v2.8l-1.48,1.35-1.48-1.35v-2.8l1.48-1.35ZM78.93,8.74v-.47c0-.11.02-.21.05-.29.03-.07.11-.17.24-.3l.24-.24c.17-.17.29-.32.35-.44.06-.12.09-.25.09-.39,0-.3-.1-.53-.31-.71-.2-.18-.48-.27-.82-.27-.19,0-.38.03-.55.08-.18.05-.35.13-.52.24v.52c.18-.13.35-.22.52-.28.16-.06.32-.1.46-.1.2,0,.36.05.48.15.12.1.18.23.18.4,0,.09-.02.18-.06.26-.04.08-.12.18-.24.29l-.25.25c-.16.16-.26.29-.32.42-.06.13-.09.28-.09.46v.43h.53ZM78.38,9.14v.7h.56v-.7h-.56Z"/>
      <path d="M83.02,7.14v-1.6h.51v4.31h-.51v-.39c-.08.15-.2.27-.34.35-.14.08-.3.12-.49.12-.37,0-.67-.15-.88-.44-.22-.29-.32-.69-.32-1.2s.11-.9.32-1.19c.22-.29.51-.43.88-.43.19,0,.35.04.49.12s.25.2.33.35ZM81.52,8.3c0,.4.06.69.19.89s.31.3.56.3.43-.1.56-.3c.13-.2.19-.5.19-.89s-.06-.69-.19-.89c-.13-.2-.31-.3-.56-.3s-.43.1-.56.3-.19.5-.19.89Z"/>
      <path d="M86.03,4.82l1.48,1.35v2.8l-1.48,1.35-1.48-1.35v-2.8l1.48-1.35ZM86.3,8.74v-.47c0-.11.02-.21.05-.29.03-.07.11-.17.24-.3l.24-.24c.17-.17.29-.32.35-.44.06-.12.09-.25.09-.39,0-.3-.1-.53-.31-.71-.2-.18-.48-.27-.82-.27-.19,0-.38.03-.55.08-.18.05-.35.13-.52.24v.52c.18-.13.35-.22.52-.28.16-.06.32-.1.46-.1.2,0,.36.05.48.15.12.1.18.23.18.4,0,.09-.02.18-.06.26-.04.08-.12.18-.24.29l-.25.25c-.16.16-.26.29-.32.42-.06.13-.09.28-.09.46v.43h.53ZM85.75,9.14v.7h.56v-.7h-.56Z"/>
      <path d="M89.72,4.82l1.48,1.35v2.8l-1.48,1.35-1.48-1.35v-2.8l1.48-1.35ZM89.98,8.74v-.47c0-.11.02-.21.05-.29.03-.07.11-.17.24-.3l.24-.24c.17-.17.29-.32.35-.44.06-.12.09-.25.09-.39,0-.3-.1-.53-.31-.71-.2-.18-.48-.27-.82-.27-.19,0-.38.03-.55.08-.18.05-.35.13-.52.24v.52c.18-.13.35-.22.52-.28.16-.06.32-.1.46-.1.2,0,.36.05.48.15.12.1.18.23.18.4,0,.09-.02.18-.06.26-.04.08-.12.18-.24.29l-.25.25c-.16.16-.26.29-.32.42-.06.13-.09.28-.09.46v.43h.53ZM89.44,9.14v.7h.56v-.7h-.56Z"/>
      <path d="M92.66,5.27h.44c.28.44.49.86.62,1.28.14.42.2.83.2,1.24s-.07.83-.2,1.25c-.14.42-.34.84-.62,1.28h-.44c.25-.43.43-.85.55-1.27.12-.42.18-.84.18-1.26s-.06-.84-.18-1.26c-.12-.42-.3-.84-.55-1.26Z"/>
      <path d="M97.38,6.58v1.23h1.23v.47h-1.23v1.23h-.47v-1.23h-1.23v-.47h1.23v-1.23h.47Z"/>
      <path d="M100.77,4.82l1.48,1.35v2.8l-1.48,1.35-1.48-1.35v-2.8l1.48-1.35ZM101.04,8.74v-.47c0-.11.02-.21.05-.29.03-.07.11-.17.24-.3l.24-.24c.17-.17.29-.32.35-.44.06-.12.09-.25.09-.39,0-.3-.1-.53-.31-.71-.2-.18-.48-.27-.82-.27-.19,0-.38.03-.55.08-.18.05-.35.13-.52.24v.52c.18-.13.35-.22.52-.28.16-.06.32-.1.46-.1.2,0,.36.05.48.15.12.1.18.23.18.4,0,.09-.02.18-.06.26-.04.08-.12.18-.24.29l-.25.25c-.16.16-.26.29-.32.42-.06.13-.09.28-.09.46v.43h.53ZM100.49,9.14v.7h.56v-.7h-.56Z"/>
      <path d="M106.01,9.47h-.4v-.31c-.07.12-.16.21-.28.27-.12.06-.26.09-.41.09-.3,0-.54-.11-.74-.33s-.29-.51-.29-.86.1-.63.29-.86c.19-.22.44-.33.74-.33.15,0,.28.03.41.1s.22.15.29.27v-.17c0-.29-.08-.52-.24-.69-.16-.18-.38-.26-.65-.26-.45,0-.81.18-1.08.53s-.4.83-.4,1.44.15,1.09.46,1.45c.3.36.72.54,1.25.54.1.02.24.02.42.02s.34,0,.48-.01v.4c-.12,0-.27.01-.46.02s-.34,0-.44-.02c-.64,0-1.15-.22-1.54-.65-.39-.43-.58-1.01-.58-1.74s.17-1.29.52-1.72c.35-.43.81-.64,1.4-.64.39,0,.69.12.92.37.23.25.35.58.35.99v2.13ZM105.63,8.34c0-.24-.06-.43-.18-.57-.12-.14-.28-.21-.47-.21s-.36.07-.47.21c-.12.14-.18.33-.18.57s.06.43.18.57.28.21.47.21.36-.07.47-.21.18-.33.18-.57Z"/>
      <path d="M107.52,8.73h.97v1.12h-.97v-1.12Z"/>
      <path d="M111.83,4.82l1.48,1.35v2.8l-1.48,1.35-1.48-1.35v-2.8l1.48-1.35ZM112.09,8.74v-.47c0-.11.02-.21.05-.29.03-.07.11-.17.24-.3l.24-.24c.17-.17.29-.32.35-.44.06-.12.09-.25.09-.39,0-.3-.1-.53-.31-.71-.2-.18-.48-.27-.82-.27-.19,0-.38.03-.55.08-.18.05-.35.13-.52.24v.52c.18-.13.35-.22.52-.28.16-.06.32-.1.46-.1.2,0,.36.05.48.15.12.1.18.23.18.4,0,.09-.02.18-.06.26-.04.08-.12.18-.24.29l-.25.25c-.16.16-.26.29-.32.42-.06.13-.09.28-.09.46v.43h.53ZM111.55,9.14v.7h.56v-.7h-.56Z"/>
      <path d="M19.7,9.64l1.48,1.35v2.8l-1.48,1.35-1.48-1.35v-2.8l1.48-1.35ZM19.96,13.55v-.47c0-.11.02-.21.05-.29.03-.07.11-.17.24-.3l.24-.24c.17-.17.29-.32.35-.44.06-.12.09-.25.09-.39,0-.3-.1-.53-.31-.71-.2-.18-.48-.27-.82-.27-.19,0-.38.03-.55.08-.18.05-.35.13-.52.24v.52c.18-.13.35-.22.52-.28.16-.06.32-.1.46-.1.2,0,.36.05.48.15.12.1.18.23.18.4,0,.09-.02.18-.06.26-.04.08-.12.18-.24.29l-.25.25c-.16.16-.26.29-.32.42-.06.13-.09.28-.09.46v.43h.53ZM19.42,13.96v.7h.56v-.7h-.56Z"/>
      <path d="M23.38,9.64l1.48,1.35v2.8l-1.48,1.35-1.48-1.35v-2.8l1.48-1.35ZM23.65,13.55v-.47c0-.11.02-.21.05-.29.03-.07.11-.17.24-.3l.24-.24c.17-.17.29-.32.35-.44.06-.12.09-.25.09-.39,0-.3-.1-.53-.31-.71-.2-.18-.48-.27-.82-.27-.19,0-.38.03-.55.08-.18.05-.35.13-.52.24v.52c.18-.13.35-.22.52-.28.16-.06.32-.1.46-.1.2,0,.36.05.48.15.12.1.18.23.18.4,0,.09-.02.18-.06.26-.04.08-.12.18-.24.29l-.25.25c-.16.16-.26.29-.32.42-.06.13-.09.28-.09.46v.43h.53ZM23.1,13.96v.7h.56v-.7h-.56Z"/>
      <path d="M26.68,10.13l.78,1.04h-.43l-.9-1.04h.55Z"/>
      <path d="M31.51,10.53h.53l-2.18,4.66h-.53l2.18-4.66Z"/>
      <path d="M33.38,10.53h2.43v.47h-1.87v1.11h1.7v.47h-1.7v2.08h-.56v-4.13Z"/>
      <path d="M38.12,9.64l1.48,1.35v2.8l-1.48,1.35-1.48-1.35v-2.8l1.48-1.35ZM38.39,13.55v-.47c0-.11.02-.21.05-.29.03-.07.11-.17.24-.3l.24-.24c.17-.17.29-.32.35-.44.06-.12.09-.25.09-.39,0-.3-.1-.53-.31-.71-.2-.18-.48-.27-.82-.27-.19,0-.38.03-.55.08-.18.05-.35.13-.52.24v.52c.18-.13.35-.22.52-.28.16-.06.32-.1.46-.1.2,0,.36.05.48.15.12.1.18.23.18.4,0,.09-.02.18-.06.26-.04.08-.12.18-.24.29l-.25.25c-.16.16-.26.29-.32.42-.06.13-.09.28-.09.46v.43h.53ZM37.84,13.96v.7h.56v-.7h-.56Z"/>
      <path d="M40.7,10.53h.56v3.66h2v.47h-2.56v-4.13Z"/>
      <path d="M43.79,14.66v-2.82h2.01v2.82h-2.01ZM43.99,14.28l.68-1.03-.68-1.02v2.05ZM44.11,12.05l.68,1.03.69-1.03h-1.37ZM45.48,14.46l-.69-1.02-.68,1.02h1.37ZM45.6,12.23l-.68,1.02.68,1.03v-2.05Z"/>
      <path d="M46.08,14.66v-2.82h2.01v2.82h-2.01ZM46.28,14.28l.68-1.03-.68-1.02v2.05ZM46.4,12.05l.68,1.03.69-1.03h-1.37ZM47.77,14.46l-.69-1.02-.68,1.02h1.37ZM47.89,12.23l-.68,1.02.68,1.03v-2.05Z"/>
      <path d="M50.07,9.64l1.48,1.35v2.8l-1.48,1.35-1.48-1.35v-2.8l1.48-1.35ZM50.33,13.55v-.47c0-.11.02-.21.05-.29.03-.07.11-.17.24-.3l.24-.24c.17-.17.29-.32.35-.44.06-.12.09-.25.09-.39,0-.3-.1-.53-.31-.71-.2-.18-.48-.27-.82-.27-.19,0-.38.03-.55.08-.18.05-.35.13-.52.24v.52c.18-.13.35-.22.52-.28.16-.06.32-.1.46-.1.2,0,.36.05.48.15.12.1.18.23.18.4,0,.09-.02.18-.06.26-.04.08-.12.18-.24.29l-.25.25c-.16.16-.26.29-.32.42-.06.13-.09.28-.09.46v.43h.53ZM49.79,13.96v.7h.56v-.7h-.56Z"/>
      <path d="M53.75,9.64l1.48,1.35v2.8l-1.48,1.35-1.48-1.35v-2.8l1.48-1.35ZM54.02,13.55v-.47c0-.11.02-.21.05-.29.03-.07.11-.17.24-.3l.24-.24c.17-.17.29-.32.35-.44.06-.12.09-.25.09-.39,0-.3-.1-.53-.31-.71-.2-.18-.48-.27-.82-.27-.19,0-.38.03-.55.08-.18.05-.35.13-.52.24v.52c.18-.13.35-.22.52-.28.16-.06.32-.1.46-.1.2,0,.36.05.48.15.12.1.18.23.18.4,0,.09-.02.18-.06.26-.04.08-.12.18-.24.29l-.25.25c-.16.16-.26.29-.32.42-.06.13-.09.28-.09.46v.43h.53ZM53.47,13.96v.7h.56v-.7h-.56Z"/>
      <path d="M58.64,12.74v1.92h-.51v-1.92c0-.28-.05-.48-.15-.61s-.25-.2-.46-.2c-.24,0-.42.08-.55.25-.13.17-.19.41-.19.73v1.75h-.51v-3.1h.51v.47c.09-.18.21-.31.37-.4.15-.09.34-.14.55-.14.32,0,.55.1.71.31.16.21.23.52.23.94Z"/>
      <path d="M60.07,10.36h.53v2.49l1.34-1.29h.62l-1.22,1.17,1.41,1.93h-.62l-1.15-1.6-.38.36v1.24h-.53v-4.31Z"/>
      <path d="M66.11,12.49l.36.24c-.16.36-.31.61-.47.74-.15.13-.31.2-.47.2-.26-.01-.49-.15-.7-.4-.21-.25-.35-.43-.44-.54-.08-.11-.19-.16-.33-.16-.14,0-.25.07-.32.2s-.15.3-.23.51l-.37-.21c.11-.34.25-.59.42-.76.17-.16.34-.24.51-.24.31,0,.59.18.84.55.25.37.46.56.63.56.15,0,.26-.08.36-.24s.17-.31.22-.46Z"/>
      <path d="M68.5,9.64l1.48,1.35v2.8l-1.48,1.35-1.48-1.35v-2.8l1.48-1.35ZM68.76,13.55v-.47c0-.11.02-.21.05-.29.03-.07.11-.17.24-.3l.24-.24c.17-.17.29-.32.35-.44.06-.12.09-.25.09-.39,0-.3-.1-.53-.31-.71-.2-.18-.48-.27-.82-.27-.19,0-.38.03-.55.08-.18.05-.35.13-.52.24v.52c.18-.13.35-.22.52-.28.16-.06.32-.1.46-.1.2,0,.36.05.48.15.12.1.18.23.18.4,0,.09-.02.18-.06.26-.04.08-.12.18-.24.29l-.25.25c-.16.16-.26.29-.32.42-.06.13-.09.28-.09.46v.43h.53ZM68.21,13.96v.7h.56v-.7h-.56Z"/>
      <path d="M72.43,10.55l1.36,1.65h-.59s-1.02-1.09-1.02-1.09l-1.01,1.09h-.59s1.36-1.65,1.36-1.65h.49Z"/>
      <path d="M76.62,10.53h.53l-2.18,4.66h-.53l2.18-4.66Z"/>
      <path d="M79.55,9.64l1.48,1.35v2.8l-1.48,1.35-1.48-1.35v-2.8l1.48-1.35ZM79.81,13.55v-.47c0-.11.02-.21.05-.29.03-.07.11-.17.24-.3l.24-.24c.17-.17.29-.32.35-.44.06-.12.09-.25.09-.39,0-.3-.1-.53-.31-.71-.2-.18-.48-.27-.82-.27-.19,0-.38.03-.55.08-.18.05-.35.13-.52.24v.52c.18-.13.35-.22.52-.28.16-.06.32-.1.46-.1.2,0,.36.05.48.15.12.1.18.23.18.4,0,.09-.02.18-.06.26-.04.08-.12.18-.24.29l-.25.25c-.16.16-.26.29-.32.42-.06.13-.09.28-.09.46v.43h.53ZM79.27,13.96v.7h.56v-.7h-.56Z"/>
      <path d="M81.63,10.53h.6l1.01,1.82,1-1.82h.6l-1.33,2.28v1.85h-.56v-1.85l-1.32-2.28Z"/>
      <path d="M87.27,10.33v5.67h-.48v-5.67h.48Z"/>
      <path d="M90.61,9.64l1.48,1.35v2.8l-1.48,1.35-1.48-1.35v-2.8l1.48-1.35ZM90.87,13.55v-.47c0-.11.02-.21.05-.29.03-.07.11-.17.24-.3l.24-.24c.17-.17.29-.32.35-.44.06-.12.09-.25.09-.39,0-.3-.1-.53-.31-.71-.2-.18-.48-.27-.82-.27-.19,0-.38.03-.55.08-.18.05-.35.13-.52.24v.52c.18-.13.35-.22.52-.28.16-.06.32-.1.46-.1.2,0,.36.05.48.15.12.1.18.23.18.4,0,.09-.02.18-.06.26-.04.08-.12.18-.24.29l-.25.25c-.16.16-.26.29-.32.42-.06.13-.09.28-.09.46v.43h.53ZM90.32,13.96v.7h.56v-.7h-.56Z"/>
      <path d="M93.62,14.19h1.9v.47h-2.51v-.47c.34-.36.65-.68.91-.96.26-.28.44-.48.53-.59.18-.23.31-.41.37-.55s.1-.28.1-.43c0-.23-.07-.41-.2-.54s-.32-.2-.56-.2c-.17,0-.34.03-.53.09-.18.06-.38.15-.59.28v-.56c.19-.09.38-.16.56-.21.18-.05.36-.07.54-.07.4,0,.73.11.98.32.25.21.37.5.37.85,0,.18-.04.35-.12.53-.08.18-.22.37-.4.59-.1.12-.25.29-.45.5-.2.21-.5.53-.9.95Z"/>
      <path d="M99.53,14.29h-.4v-.31c-.07.12-.16.21-.28.27-.12.06-.26.09-.41.09-.3,0-.54-.11-.74-.33s-.29-.51-.29-.86.1-.63.29-.86c.19-.22.44-.33.74-.33.15,0,.28.03.41.1s.22.15.29.27v-.17c0-.29-.08-.52-.24-.69-.16-.18-.38-.26-.65-.26-.45,0-.81.18-1.08.53s-.4.83-.4,1.44.15,1.09.46,1.45c.3.36.72.54,1.25.54.1.02.24.02.42.02s.34,0,.48-.01v.4c-.12,0-.27.01-.46.02s-.34,0-.44-.02c-.64,0-1.15-.22-1.54-.65-.39-.43-.58-1.01-.58-1.74s.17-1.29.52-1.72c.35-.43.81-.64,1.4-.64.39,0,.69.12.92.37.23.25.35.58.35.99v2.13ZM99.15,13.16c0-.24-.06-.43-.18-.57-.12-.14-.28-.21-.47-.21s-.36.07-.47.21c-.12.14-.18.33-.18.57s.06.43.18.57.28.21.47.21.36-.07.47-.21.18-.33.18-.57Z"/>
      <path d="M100.99,14.19h1.9v.47h-2.51v-.47c.34-.36.65-.68.91-.96.26-.28.44-.48.53-.59.18-.23.31-.41.37-.55s.1-.28.1-.43c0-.23-.07-.41-.2-.54s-.32-.2-.56-.2c-.17,0-.34.03-.53.09-.18.06-.38.15-.59.28v-.56c.19-.09.38-.16.56-.21.18-.05.36-.07.54-.07.4,0,.73.11.98.32.25.21.37.5.37.85,0,.18-.04.35-.12.53-.08.18-.22.37-.4.59-.1.12-.25.29-.45.5-.2.21-.5.53-.9.95Z"/>
      <path d="M104.22,10.53h2.09v.47h-1.58v1.02c.08-.03.16-.05.24-.06s.16-.02.24-.02c.43,0,.77.13,1.02.38s.38.6.38,1.03-.13.78-.39,1.03c-.26.25-.62.38-1.08.38-.22,0-.42-.01-.6-.04-.18-.03-.34-.07-.49-.13v-.57c.17.09.34.16.51.21.17.04.35.07.53.07.31,0,.55-.08.71-.24.17-.16.25-.39.25-.69s-.09-.52-.26-.69c-.17-.16-.41-.25-.72-.25-.15,0-.3.02-.44.05s-.28.09-.41.15v-2.08Z"/>
      <path d="M110.34,12.49l.36.24c-.16.36-.31.61-.47.74-.15.13-.31.2-.47.2-.26-.01-.49-.15-.7-.4-.21-.25-.35-.43-.44-.54-.08-.11-.19-.16-.33-.16-.14,0-.25.07-.32.2s-.15.3-.23.51l-.37-.21c.11-.34.25-.59.42-.76.17-.16.34-.24.51-.24.31,0,.59.18.84.55.25.37.46.56.63.56.15,0,.26-.08.36-.24s.17-.31.22-.46Z"/>
    </g>
    <path d="M28.33,57.07l-.09.36h-2.14v.98s-.36,0-.36,0c-.03-.03.02-.61,0-.76-.02-.12.05-.16-.13-.13l-10.56,5.43c2.03-.02,4.07.02,6.11,0,4.59-.05,9.2-.13,13.81,0,.2-.09.55.48.48.54l-21.2.04v30.66l.67-.36.03.34-.56.28,29.35-.18v-6.76s.53.09.53.09v6.85l10.78-5.52-.71-.09v-.36c.25-.05,1.06.13,1.15-.15l.1-30.82-6.35,3.1-.24-.21,5.34-2.89h-10.11s-.35-.44-.31-.53h11.98l.12,31.89c-.03.09-1.2.71-1.41.82-3.53,1.89-7.16,3.71-10.73,5.48-1.78.08-3.58-.08-5.35-.1-7.6-.06-15.54.34-23.08,0-.48-.02-.99-.12-1.48-.14l-.08-17.17c-.2-4.75-.06-9.54-.07-14.31.15-.43.42-.6.78-.82,3.44-2.08,7.57-3.65,11.09-5.64.08,0,.15.08.18.08h2.45Z"/>
    <path d="M268.16,98.42c-.21.04-.8.3-.94.09l-.31-1.87-1.06.08-.36-2.04-.98.18.18,1.07-.88.19.08,1.06-.89.09.17,1.01-.14.13-.74.1.14.98-.86.22c-.21.14.02.47,0,.49l-.8.09-4-21.92c.04-.12.11-.12.22-.14.46-.1,1.01-.07,1.47-.27l.18,1.07.98-.09c.01.2.05.92.23.97l.84-.17.18,1.07.98-.18.18.98.89-.18.18,1.07.98-.18.18.98.89-.18.18,1.07.98-.18.09.98.98-.18.18,1.07.98-.18.17.94.99-.05.09.98.98-.18.19.97.87-.07.19.97.97-.08.36,1.9-4.52.95.35,2.04.98-.18.36,2.05.89-.18.54,3.12-.8.09.18,1.06-1.73.26c-.22-.08-.19-.75-.24-.97.29-.06.58-.19.89-.18l-.18-1.07.94-.17-.14-.98-.98.18-.36-2.05-.98.18-.36-2.04-.88.17-.36-2.14,4.54-.81-.08-.97-.98.18-.18-1.07-.89.14-.17-.94-.98.18-.18-1.07-.98.18-.19-.97c-.99.17-1.02.1-1.06-.9l-.98.18-.18-1.07-.98.18-.09-.98-.98.18-.19-.97-.97.08-.09-.98-.98.18-.18-1.07-.98.18-.19-.97-.88.08,3.21,17.44.88-.19-.17-1.06.98-.09-.18-1.07.89-.18-.17-.93.88-.23-.08-1.06.84-.1.41,1.96.89-.18.36,2.05.98-.18c.14.68.24,1.37.36,2.05Z"/>
    <path d="M268.16,98.42c.32-.06.65-.13.98-.18-.01.37.11.71.18,1.07-.32.07-.66.07-.98.18-.06-.36-.12-.71-.18-1.07Z"/>
    <path d="M165.88,76.19c.28.28.41,2.32.38,2.78-.06.84-.59,2.27-.96,3.04-.37.77-1.6,2.31-1.53,3.09.14,1.45.83,1.52,1.68,2.33.58.56,1.4,1.32,1.93,1.9,1.16,1.28.75,1.38-.78,1.68-1.01-.62-1.76-2.03-2.91-2.35-1.67-.46-6.77.06-8.54.56-1.37.38-2.72,1.22-4.03,1.76-.96.39-2.12.65-2.97,1.31-.56.43-.48,1.48-.88,2.15-1.32,2.24-3.64,2.7-5.66,3.78-.59.32-2,1.6-2.49,1.62-.83.03.04-1.67.22-2.02,1.09-2.15,3.05-3.92,5.24-4.91,1.04-.47,2.16-.7,3.24-1.08.02-.15-.2-.08-.31-.09-.78-.03-1.95-.17-2.67-.09-.47.05-.85.32-1.29.45l.36-1.16c1.25.45,2.61.4,3.92.49-.28-.19-.83-.66-1.13-.74-.48-.12-1.05-.06-1.63-.24-.53-.17-1.35-.44-1.02-1.11.75.55,1.6.85,2.54.89.06-2-1.04-3.38-2.45-4.63s-3.19-2.45-5.03-3.12l.89,1.56c-.12.09-.56-.06-.65-.13-.08-.06-.9-1.56-.93-1.67-.03-.13-.05-.24.07-.34.2-.14.69.08.92.16,2.51.84,6.79,3.92,7.52,6.54.13.47.15,1.59.34,1.88.1.15,1.12.88,1.31.92.59.14,3.4-1.42,4.11-1.74,2.34-1.06,4.67-1.5,7.23-1.67,1.03-.07,2.12.05,3.16,0l-2.75-2.55.12-.29c.19.16.34.37.54.53,1.4,1.13,2.97,2.15,4.36,3.3.52.43.98,1.15,1.66,1.37.22.07.4.11.44-.17-.73-.87-1.64-1.5-2.49-2.23-.42-.36-.87-.87-1.29-1.2-.92-.72-2.12-1.32-3.08-2.01.05-.13.1-.51.31-.47l2.73,1.77c-.16-.38-.18-.88-.31-1.25s-.41-.53-.57-.86c-1.04-2.09-.16-4.04,1.07-5.76.24-.33,1.4-1.88,1.63-2.03.15-.1.34-.1.47.03ZM163.5,84c0-.1.04-.21.1-.29,1.37-2,2.59-4.43,1.94-6.91l-1.91,2.5c-.72,1.2-1.02,2.15-.74,3.57.02.12.33,1.35.6,1.14ZM147.46,92.55c-3.58.69-6.86,3.11-8.11,6.58l1.75-1.23c1.84-.85,4.77-1.91,5.8-3.81.26-.48.29-1.07.55-1.54Z"/>
    <path d="M251.77,60.15c1.5.22,2.98.56,4.41,1.07-.02-.26-.6-1-.17-1.15h.33c.55.95,1.42,1.75,1.76,2.79-.2.87-1.1-.14-1.66-.22-.47-.07-1.02.18-1.4.06-.35-.11-.24-.41.03-.55.19-.1.52-.05.62-.23-1.45-.45-2.93-.84-4.45-.94l-.51.85h-.56s.36-.89.36-.89c-1.61-.04-3.26.01-4.81.49-.15.05-.74.21-.8.27-.17.15.08.41-.44.54-.31.07-.4.13-.36-.22h-.13c-1.13.49-2.2,1.08-3.2,1.8-.18.13-1.34.99-1.38,1.07-.13.24.16.35-.38.64-1,.53-1.87,1.74-2.57,2.7-5.32,7.42-6.09,17.76-5.18,26.59l-.09.18-.27.04c-.11-.87-.27-1.75-.36-2.63-.73-7.37.27-16.13,3.94-22.59,2.16-3.79,5.33-7.18,9.5-8.71l.06-1.15.75-.08-.09.89c2.06-.54,4.11-.84,6.26-.71l.65-.98.57.3-.44.76Z"/>
    <path d="M262.42,77.59l-.14-.22c-.01-.16.6-.86.76-1.03.11-.11.97-.91,1.03-.93.46-.2.43.5.4.76,1.33-.9,2.66-1.82,3.74-3.02.21-.23.98-1.13,1.07-1.34.13-.3-.26-.62.31-.92.07-.04.2.06.31-.05.1-.1.56-1.1.66-1.31.64-1.45,1.11-3.39,1.17-4.97.03-.73.12-1.07-.51-1.52l.15-.58.27.09c-.29-3.29-1.54-6.55-3.43-9.26l-.04.27c-.43-.03-.19-.56-.35-.94-.18-.43-1.17-1.61-1.52-2.04-3.88-4.72-9.3-8.26-14.9-10.63-.48-.69.9-.09,1.21.02.8.29,1.58.68,2.36,1.03.31.18.78-.44,1-.3l.36.49-.4.18c-.11,0,0,.09.05.13.74.53,1.94,1.05,2.78,1.58,3.67,2.3,6.84,5.19,9.4,8.68.16.22.85,1.39.92,1.44.03.02.67-.02.78.11.09.11.03.65-.25.63v.11c1.69,2.89,2.82,6.2,2.84,9.58.17,0,0-.27.3-.16.48.18.3.61.15.96l-.44-.27c.03,2.51-.71,5-1.98,7.15-.04.06-.67.92-.47.86l.31-.14.35.72-.57.31-.36-.62c-1.36,1.68-2.98,3.24-4.94,4.18l.27.98h-2.63ZM263.88,76.53c-.12-.09-.63.49-.71.62h.98s-.27-.62-.27-.62Z"/>
    <path d="M195.83,96.1l1.22-.51c.93-.95,2.38-1.1,3.61-1.63,2.41-1.05,4.6-2.79,6.71-4.35.33-.24,1.14-1.68,1.24-1.69.87.55.42.51.05.93-.08.09-.78.96-.71,1.02.34,0,.68.02,1.01-.01,1-.08,1.66-.6,2.6-.17.09.04.21.05.22.18-.43.09-.8.3-1.23.42-.74.21-1.62.34-2.39.37-.31.01-.53-.16-.93-.04-.2.06-1.64,1.29-2.02,1.55-.97.65-2.11,1.09-3.03,1.69-.09.06-.16,0-.11.2,1.61.64,3.3,1.24,5.04,1.41,5.22.51,11.91-2.2,12.76-7.96.27-1.8-.6-4.21-1.49-5.79-.21-.38-1.2-1.67-1.25-1.87-.02-.07-.03-.13-.01-.2l.57-.27c1.13,1.41,1.97,3,2.48,4.74,2.79,9.64-9.09,14.16-16.64,11.19-.77-.3-1.42-.79-2.21-1.05-1.67.98-3.57,1.61-5.49,1.85Z"/>
    <path d="M240.91,76.61c.24.17,1.37.17,1.24.58-.11.34-1.08-.11-1.37-.05-.61,2.04-.64,4.3-.32,6.4h.53s-.09.72-.09.72h-.36c.91,5.32,3.76,10.32,7.75,13.93.27.25,1.55,1.36,1.78,1.43.47.15.95-.8,1.33.16l-.53.32c1.39,1.21,3.2,1.89,4.86,2.67l-.04.23c-.31.2-2.06-.56-2.47-.74-4.23-1.9-7.77-5.51-10.18-9.4l-.88.03-.19-.7c.21,0,.47.07.62-.13-2.59-4.51-3.88-10.06-2.67-15.21l-.41-.23.05-.54.53.18c.5-1.9,1.55-3.98,2.94-5.39.3-.31,1.16-.92,1.15-.09,0,.2-1.17,1.47-1.4,1.8-.87,1.2-1.54,2.58-1.88,4.03Z"/>
    <path d="M262.46,53.3c-.04.14.04.15.09.22.24.36.84.85,1.16,1.25,1.36,1.7,2.33,3.7,2.94,5.79l.84.21.15.63-.8-.09c.14,1.28.27,2.58.18,3.87-.05.74-.27,1.45-.4,2.18-.02.1.12.17.09.27-.03.11-.25.37-.33.56-.11.29-.75,1.7-.76,1.81-.04.42.44.68.42.79-.22.25-.61.1-.92.15-.42.06-1.62.46-1.88.44-.62-.05.08-.67.17-.81.14-.22.37-.55.48-.77.15-.3.28-1.16.64-1.06.33.09.38.51.62.68,1.12-2.59,1.46-5.41.89-8.18h-.44c-.06-.3.27-.55.23-.81-.09-.71-.91-2.41-1.29-3.08s-2.49-3.72-3.11-3.84c-.13-.02-.3.1-.38.04-.05-.04-.33-.72-.67-1.03-2.35-2.14-7.98-4.19-11.14-4.17-.32,0-.27.26-.44.26-.5,0-1.27-.59-1.92-.36-.28-.24.92-.35,1.02-.35,4.44-.31,9.08,1.27,12.63,3.84.29.21.99.91,1.22,1.01.2.09.9-.16.98-.1l.16.53-.44.14ZM264.51,70.03c-.12-.03-.11-.02-.18.06-.06.07-.41.6-.35.65l.8-.09-.27-.62Z"/>
    <path d="M271.01,80.09l-.04-.27c-1.2.81-2.69,1.92-4.09,2.32-.21.06-.78.22-.66-.21.06-.21,2.13-1.1,2.51-1.32s2.24-1.45,2.29-1.72c.09-.51-.2-.64.57-.76l.06.17c.09.06.11,0,.17-.03.08-.05.93-1,1.07-1.16,3.45-4.06,5.03-9.95,5.08-15.21,0-.45-.04-2.41-.16-2.7-.07-.15-.28-.25-.29-.42,0-.2.26-.42.27-.71.02-1.11-.49-3.35-.74-4.51-.77-3.54-2.11-6.92-3.58-10.22l.09-.27c.57.02,2.77,5.65,3.05,6.48,1.1,3.3,1.39,6.02,1.91,9.4.34,2.22-.03,6.02-.48,8.35-.16.81-.61,1.99-.68,2.71-.02.23.11.42.02.63-.07.17-.3.3-.4.5-.29.55-.49,1.31-.77,1.9-.74,1.55-1.78,3.28-2.91,4.57-.34.39-1.37,1.21-1.57,1.55-.22.39.11.89-.71.94Z"/>
    <path d="M141.23,68.69c-1.82-2.17-2.7-5.05-4.76-7.03-1.13-1.09-2.56-2.07-3.97-2.76.34.76.77,1.5,1.05,2.29.18.52.24,1.08.47,1.58l-.52.03c-.13-.52-.23-1.09-.41-1.59-.26-.72-1.04-1.94-1.18-2.56-.03-.13-.03-.25-.02-.38.16-.16,1.83.71,2.11.87,2.54,1.51,3.94,3.3,5.45,5.77.43.71,1.4,2.82,1.93,3.23.32.25.7.13,1.05.2.32.06,1.92.55,2.03.42-.26-.32-.64-1.13-.89-1.37-.29-.27-1.36-.59-1.84-.92-1.93-1.32-3.29-5.3-3.58-7.55-.25-1.96-.37-3.77-.75-5.75-.17-.88-.62-2.16-.68-2.98s.76-.12,1.06.11c1.65,1.32,2.82,3.54,4.27,5.08.1.29-.06.36-.33.37-1.44-1.8-2.65-3.85-4.42-5.33-.07-.02-.05.07-.05.13.01.75.61,2.59.78,3.5.68,3.69.41,6.25,2.18,9.75.76,1.51,1.66,2.72,3.37,3.17v-3.38l.45.15c.12,1.62-.48,3.42.84,4.66l.49-2.8c-.25-.5-.6-.98-.62-1.56l.43.11.33,1.05c.57-.48.88-1.11,1.74-1.16-.16.57-.67.73-1.02,1.16-.73.91-.79,2.25-.96,3.36-.41.07-.9.41-1.29.45-.42.04-.83-.14-1.24-.17-1.08-.08-2.06.48-3.17.23l-.08-.49c.1-.03.19.09.22.09h1.56Z"/>
    <path d="M154.32,72.07c.17-.03.15-.19.18-.31.32-1.12.34-2.36,1.11-3.34.56.38.16.59.05,1.07l.65-.43c.33.03.25.29.29.34.14.18,3.42,1.37,3.83,1.41,1.51.18,2.99-.23,4.4-.7,0-.12-.13-.14-.22-.18-.54-.25-1.87-.53-2.28-.84-.14-.1,0-.48.05-.49l2.86.97c1.29.56-.5,1.11-1.06,1.29-3.22,1-5.14.23-8.08-1.06-.24-.08-.49.1-.63.27-.34.44-.68,3.07-.71,3.74-.06,1.14,0,2.39.09,3.52-.52-.35-1.06-.25-1.65-.27-.16,0-.44-.15-.56-.07-.04.03-.05.21-.16.25-.16.05-.42-.13-.53-.26l.06-.43c.34-.06.67.06,1.01.08.1,0,.49.06.49-.09-.46-.28-1.53-1.02-1.79-1.46-.2-.35-.09-.7.3-.49.18.1,1.92,1.9,2.11,1.68.02-.52-.03-1.04,0-1.56.05-.86.3-1.46,0-2.32-.09-.25-.63-1.29-.81-1.42-.21-.16-1.05-.38-1.39-.57-1.16-.63-2.45-2.53-3.37-3.58-.51-.58-1.71-1.41.06-1.22,1.9.2,4.4,1.71,5.06,3.58.34.95.17,1.96.62,2.9ZM153.43,70.65c-.04-2.51-2.54-4.19-4.81-4.54l2.81,3.38,2,1.16Z"/>
    <path d="M129.65,48.85c.6-.04.78.35.71.89,1.01-.4,1.76-.37,2.68.21.5.32,1.06,1.29.97,1.88-.06.4-1.18.55-1.34.9-.09.21.27.07.34.28l-.09.83h-.26s0-.44,0-.44c-.78-.23-.74.24-1.22.52-.3.18-1.13.3-1.29.5l-.06.1c.36,1.21-.67,1.32-.47.03l-.76.8-.22-.15.17-.48c-1.48.36-2.31.37-2.55-1.34-.61-.13-1.96-.65-2.52-.39-.18.08-.24.38-.33.4-.71.17-.55-.65-.02-.93.44-.23,1.56,0,2.04.17.34.12.56.31.89.4-.03-.18.06-.55-.02-.69-.06-.1-1.84-1-2.03-1.05-.24-.06-.47.1-.71.05.02-1.53,2.18.31,2.82.61l.46-.41c-.22-1.37.03-3.71,1.04-4.74,1.7-1.73,2.86.6,1.74,2.05ZM129.83,49.38c-1.82.3-.21-.9-.09-1.56.14-.78-.33-1.63-1.18-1.09-1.4.87-1.39,3.3-1.46,4.74l.64.68.27-.18c.09.36-.58.63-.71.18-.37.17-.28,1.81.04,2,.15.09.31.04.47.02.59-.07,1.87-.45,2.49-.63.27-.08,1.25-.37,1.21-.71,0-.08-.3-.89-.35-.98-.24-.41-1.07-.66-.84-1.04.16-.27.63,0,.85.13.53.3.83.66.89,1.29l1.24-.63c.05-.88-1.27-1.72-2.03-1.53-.21.05-.66.26-.88.37-.23.11-1.64,1.16-1.55.33.04-.37,1.08-.84.98-1.38Z"/>
    <path d="M138.88,78.4l.21.12c.07.26-.66.66-.85.84-.41.4-1.71,1.62-1.95,1.96-.27.38-.44,1.36-.85,1.91-1.92,2.59-7.28,2.09-10.25,2.67-.46.09-2.77.8-2.99.5-.29-.4.7-1.18.99-1.43,2.12-1.82,5.33-4.2,8.19-4.36,1.39-.08,3.11.4,4.41.14,1.12-.22,2.04-1.85,3.08-2.35ZM135.97,81.33c-1.79.18-3.6-.39-5.37-.07-2.29.42-5.48,2.72-7.24,4.25-.11.1-.25.21-.31.35,1.09-.21,2.16-.54,3.27-.7,2.63-.37,7.02.06,8.81-2.24.37-.48.55-1.08.84-1.6Z"/>
    <path d="M128.05,72.88c.02.2-.22.41-.4.44-.59.11-1.57-.04-2.23,0-1.22.07-3.44.45-4.58.85-.13.05-.32.05-.36.22,1.79.58,3.49,1.44,5.17,2.27,1.93.96,4.52,2.84,6.72,2.63,1.16-.11,3.07-1.05,3.78-1.99,0-.06-.52-.55-.62-.64-.43-.38-.96-.38-.71-1.11.06-.06.83.55.93.63.19.15.74.73.91.78.47.14,1.29,0,1.81.28-1.25-1.12-2.6-2.07-3.47-3.56.16.01.34-.03.49,0,.24.05.95,1.11,1.2,1.38.81.86,2.14,1.4,2.14,2.71-.8-.2-1.91-.7-2.59-.05-4.19,4.04-7.21,1.16-11.34-.86-.85-.41-1.81-.86-2.67-1.25-.34-.15-2.44-.89-2.47-1.02-.1-.4.26-.62.57-.76,1.51-.69,3.81-.77,5.45-1.05l2.27.09Z"/>
    <path d="M245.36,77.24c.05,6.52,4.46,12.74,9.84,16.11.8.5,1.69.88,2.45,1.42-1.88-.35-3.73-1.48-5.21-2.67-.62-.5-1.53-1.64-2.05-1.96-.21-.13-.46.15-.68-.39-.08-.18.01-.3-.03-.4-.09-.21-1.04-1.24-1.28-1.58-1.86-2.65-3.42-6.14-3.58-9.41-.02-.41.13-1.59.05-1.82-.02-.06-.24-.36-.26-.36-.35.26-.4.75-.94.62-.02-.18,0-.34.07-.51.1-.23,1.25-1.44,1.48-1.54.44-.2.54-.09.67.32.1.3.49,2.09.45,2.31-.04.23-.18.26-.4.23-.27-.04-.31-.37-.58-.36Z"/>
    <path d="M272.44,87.29c-.02-.15-.01-.2.09-.31.16-.17,1.33-.64,1.66-.83,5.79-3.32,9.63-10.5,10.53-16.98.19-1.35.25-2.7.3-4.07l.13-.14.31.03c.06.04.17.92.18,1.07.14,7.27-4.38,16.99-10.99,20.44-.3.16-2.01.97-2.2.79Z"/>
    <path d="M185.5,79.64l.26.65c-.8,1.17-1.5,2.44-1.9,3.8-1.63,5.55,1.32,10.03,6.84,11.24l1.76.96c-3.81-.22-7.69-2.18-9.13-5.87-1.08-2.77-.61-5.96.68-8.58.22-.45.97-1.78,1.29-2.1.07-.07.08-.13.22-.09Z"/>
    <path d="M262.19,63.09l.89-.09-.61,2.88-.35.04c-.05-.45-1.33-2.49-1.16-2.73l.88-.05c-.9-4.85-6.29-8.19-10.85-9-.85-.15-1.75-.14-2.55-.3-.51-.1-.08-.38.27-.43,1.73-.25,4.96.7,6.57,1.43,3.2,1.44,6.81,4.5,6.92,8.26ZM262.55,63.8h-.8s.45,1.07.45,1.07c.31-.21.14-.75.36-1.07Z"/>
    <path d="M43.85,68.07c.13.1.32.11.42.25l-1.24,1.65c.8-.32,1.02-1.83,2.05-1.29-.37.55-.94.89-1.38,1.38-.86.96-1.9,2.38-2.58,3.48-.18.29-.77,1.22-.85,1.46-.02.06-.02.15.04.13l3.03-1.33c.24-.07.11.37.05.47-.1.15-3,1.13-3.39,1.44-.12.08-.32.4-.36.53-.07.22.08.08.16.07,1.28-.24,2.39-.83,3.45-1.54l.12,1.24c-1.42.51-2.69,1.38-4.18,1.7-.02-.51.12-.71.62-.8l-.45-.09c.12-.5.03-1.05.1-1.55.09-.65,2.38-4.42,2.89-5.21.4-.61.87-1.21,1.37-1.74l-.04-.13c-.94.96-1.88,2.14-2.61,3.26-.31.48-1.28,2.46-1.53,2.66-.07.05-.1.05-.18.04-.02-.19,0-.33.07-.51.2-.51.89-1.68,1.21-2.17.82-1.27,1.92-2.55,2.95-3.64l.13.04c.05.05.07.16.11.19Z"/>
    <path d="M198.42,88.98c0-.23-.18-.5-.05-.71s1.89-.83,1.82-1.19c-1.57-1.56-2.86-3.53-3.47-5.66.24.31.9.55,1.11.81.15.19.32.75.48,1.03.64,1.11,1.38,2.3,2.36,3.13.37-.27.79-.45,1.16-.72,1.41-1.01,2.52-2.54,3.67-3.81.33-.37.64-.83,1.02-1.16-.3,1.01-.83,2.01-1.44,2.88-1.04,1.48-3.31,3.54-4.86,4.49-.22.13-1.72.98-1.81.91Z"/>
    <path d="M31.62,88.84l-.13-.27-.58.53c-.29-.9.09-1.03.53-1.69l-.67.53-.17-.36,3.55-4.01c.65-.57,1.03-2.04,1.53-2.57.23-.24,1.46-.66,1.82-.8.16.19-2.19,3.83-2.47,4.25-.57.84-1.26,1.85-1.93,2.61-.26.3-1.29,1.12-1.39,1.28s-.1.3-.08.49Z"/>
    <path d="M49.08,71.57c.95-.93,1.56-2.13,1.96-3.38l-.98,1.38c-.29.35-1.75,1.79-2.09,1.83l-.85-.05,2.58-3.56c.18-.12.05.15.03.21-.23.9-.78,1.75-1.37,2.46.32.06.61-.51.84-.76.62-.67,1.32-1.34,1.68-2.23.27-.65.11-.62-.38-1.03l.08-.39.67.44c.2-.34.37-.95.27-1.34-.04-.13-.79-1.23-.36-1.24.31-.01.8,1,.84,1.3.07.59-.24,1.31-.44,1.86l.17.66c.42-1.24,1.14-3.04-.04-4.09-.28-.25-.59-.13-.58-.66,0-.32.68.16.81.26,1.62,1.29.61,4.13-.22,5.66-.23.42-1.67,2.66-1.98,2.74-.23.06-.43-.07-.65-.08Z"/>
    <path d="M130.44,65.39c-1.7-.82-3.39-1.72-5.25-2.13,1.23.96,2.23,2.12,3.34,3.21.39.38,1.24.77.98,1.42-1.6-1.41-2.84-3.21-4.59-4.45l3.44,5.78c.55.85,1.16,1.68,1.91,2.37.07.18-.4.23-.47.21-.29-.07-1.42-1.58-1.65-1.92-1.46-2.16-2.44-4.71-4.16-6.7-.45-.96,1.8-.33,2.18-.22.99.28,2.42.89,3.36,1.36.18.09.92.5,1.01.6.18.21-.05.25-.1.48Z"/>
    <path d="M193.7,85.51h-.67s-1.16-2.58-1.16-2.58c-1.14,1.21-1.92,2.79-1.66,4.48l-.57.59c-.8-2.05.48-4.47,2.1-5.75-.28-.94-.54-1.9-.69-2.87-.08-.5-.38-2.93-.25-3.22.1-.21.61-.5.58-.89.15-.02.08.12.09.22.05.92,0,1.84.09,2.76.26,2.54,1.14,4.94,2.14,7.25Z"/>
    <path d="M23.87,82.16c1.51-.95,3.17-1.57,4.81-2.28l.54.36c-.92.27-1.7.79-2.45,1.38-.28.22-.64.49-.89.71-.33.29-1.25,1.43-1.53,1.61-.15.09-.4.07-.56.17-.06-.06.29-.49.36-.58.67-.81,1.53-1.49,2.31-2.18-1.71.59-3.14,1.69-4.17,3.17-.16.24-.22.56-.37.79-.17.25-.57.42-.63.75-.2-.05,0-.58.05-.71.9-2.38,2.73-4.5,5.06-5.54.26-.12,1.53-.64,1.69-.6.1.03.17.14.24.21-.34.32-.83.36-1.24.54-1.16.49-2.11.99-3.02,1.88-.1.09-.23.13-.19.3Z"/>
    <path d="M251.32,81.68c-.21.12-.88-.22-.79.05.91,1.28,1.72,2.7,2.94,3.69l.45-.94.36.1c.27.26-.4,1.11-.32,1.29.37.32.75.63,1.14.91s1.5.82,1.72,1.04c.11.12.16.19.13.36-.17.24-1.17-.31-1.4-.43-2.15-1.11-4.22-3.4-5.3-5.56-.09-.18-.15-.39-.16-.59-.27-.02-.15.26-.5.27-.13,0-.23-.02-.31-.13-.22-.27.26-1.86.2-2.31l.21-.15c.29-.03.55.65.72.89.19.26.96,1.09.98,1.3,0,.06-.05.15-.06.22ZM250.26,80.97c.07-.17-.4-.67-.44-.62l-.09.62h.53Z"/>
    <path d="M189.06,81.42l-1.25,2.76,1.31-.52.21.21c-.03.13-1.38.45-1.58.69-.38.47-.19,2.01.06,2.56l.44-.18c.04.23-.25.27-.26.48,0,.19.41,1.01.57,1.12.17.12.4,0,.41.17-.62.32-.8-.53-1.05-.95-.03-.05,0-.17-.15-.11-.45.18-1.3,2.05-1.3,2.54.02.86,1.3,1.66,2.02,1.9.14.05.25-.08.21.19-1.02.07-1.71-.74-2.31-1.42.01.39-.01.99.09,1.36.02.08.11.07.18.06.07.32-.29.16-.37-.04-.18-.46-.08-1.43-.18-1.95-.05-.24-.33-.62-.43-.91-.21-.6-.38-1.2-.49-1.83l-.13-.09c-.1.48-.44.93-.18,1.42h-.27c-.2-.75.35-1.36.44-2.01.07-.56-.04-1.21,0-1.78.06-.78.52-2.62,1.21-3.07.11-.07.2-.1.22.05.01.07-.59.91-.7,1.17-.38.91-.45,1.95-.46,2.92l.18.04c.12-.25.42-.65.62-.85.31-.3,1.2-.77,1.38-1.03.31-.44.48-1.58.85-2.09-.02-.21-1.04-.14-1.25-.09-.06.01-.76.44-.62.09.29-.73,1.68-.36,2.16-.49.11-.03.16-.42.42-.36ZM186.3,89.87c.13-1.03.8-1.8,1.34-2.63-.33-.82-.42-1.57-.27-2.44-.56.28-1.81,1.34-1.94,1.93-.1.48.36,2.09.56,2.6.06.15.17.46.31.53Z"/>
    <path d="M212.65,74.64l-.91.79-3.41-1.64-.19-.61c-.03-.14,0-.14.12-.12,1.12.15,2.6,1.15,3.7,1.51-.22-1.61-.67-3.18-1.35-4.66-.16-.36-.81-1.33-.86-1.55-.04-.16.02-.51.19-.58.09-.04.15-.06.24-.02.37.16,1.4,2.47,1.58,2.96.22.58,1.12,3.52.89,3.92Z"/>
    <path d="M148.71,55.34l-.61-.42c-.18-2.23-.68-4.42-1.09-6.61l-1.7,5.99-.61.24,1.76-6.57c.52-1.51.97-.07,1.16.67.26,1.02.46,2.32.64,3.37s.3,2.22.46,3.32Z"/>
    <path d="M247.31,68.17c.06.1.02.4-.03.52-.42.33-2.14,2.76-2.42,2.84-.57.16-.37-.46-.42-.7-.2-.92-.64-.76-1.39-.53-.36-1.16.53-.93,1.23-1.12.29-.08.67-.19.95-.3.35-.13,1.85-1.06,2.08-.7Z"/>
    <path d="M211.78,93.7l.09.36c-.36-.44-.88-.08-1.39-.01s-1.28.19-1.77.2c-.62,0-1.36-.23-2-.18v-.36c1.59.44,3.13.21,4.72-.09l-.36-1.69-2.62.27-.05-.22c.99-.18,1.98-.11,2.96-.33,1.44-.33,2.74-1.24,3.9-2.11.1.1-.24.37-.31.44-.57.52-1.34.88-1.96,1.34l.72,1.42c1.11-.56,2.15-1.24,2.98-2.18-.3-.53-.92-.78-1.29-1.2-.43-.49.08-.67.26-.18l1.25,1.15c.11-.04.61-.82.71-.99.18-.3.23-.69.5-.88-.74,2.75-3.72,4.53-6.32,5.25ZM211.6,93.52l1.86-.76c-.27-.35-.5-1.36-.99-1.28-.35.06-.89.43-1.31.43l.44,1.6Z"/>
    <path d="M245.36,101.53l.71-.05.27.58c-.66.17-1.33.26-2,.36-.12.02-.28.04-.13.17.4.13,2.02.4,1.97.93-.01.15-.14.24-.27.28-.16.04-2.88-.79-3.28-.92-.14-.04-.34-.07-.41-.23l-.02-.25c.03-.11.11-.18.2-.25.28-.22,2.14-1.23,2.44-1.31.41-.1.75.3.53.67Z"/>
    <path d="M149.82,83.64c-.88.08-1.9.45-2.74.74-.08.03-.68.17-.52.33,1.74.59,3.23,1.28,5.13,1.25.42,0,.86-.31,1.02.35-.35-.04-.68.08-1.02.09-2.12.11-3.97-.79-5.9-1.5l-.21-.24c-.01-.11.02-.19.09-.27.07-.09,1.93-.73,2.22-.81,1.03-.3,2.08-.52,3.17-.47l.24.54c-.48.03-1-.04-1.47,0Z"/>
    <path d="M27.79,78.96c-2.38.72-4.56,2.03-6.09,4.01-.86,1.11-1.75,3.18-1.83,4.59-.03.54.33.98.24,1.57-.01.08-.04.27-.16.24-.36-.78-.53-1.37-.42-2.25.39-3.09,2.53-5.85,5.2-7.35.45-.25,2.26-1.11,2.68-1.16.21-.02.39.13.38.34Z"/>
    <path d="M236.63,92.37h1.34l.09.36-.22-.18-.13.44h-1.34c.04.25.93.97.39,1.15-.49.16-1.29-.76-1.69-1.04-.35-.24-.71-.47-1.07-.71-.21-.14-.7-.15-.56-.58.1-.32.74-.06.94-.06.38,0,1.04-.04,1.41-.09.4-.05,1.01-.52,1.21.05l-.36.67Z"/>
    <path d="M202.16,66.29c0-.39-.35-.71-.71-.8l.04-.18c.72-.09.87.94,1.04,1.05.06.04.86.15,1.07.22,1.37.46,2.59,1.28,3.37,2.51.21.32.54.82.49,1.2-.37-.27-.55-.83-.82-1.22-.94-1.33-2.41-2.1-3.98-2.43l-.05,1.34c-.35-.18-.08-1.09-.28-1.32-.72-.23-1.49-.07-2.21.07.19.43.53.83.44,1.33h-.27c.13-.41-.24-.8-.35-1.19-.2-.26-1.24.36-1.52.39-.09.13.8,1.12.4,1.42-.21-.39-.32-.88-.73-1.14l-1.37.88.18-.31.98-.89c-.47-.44-.96-.56-1.6-.49-.03-.37.65-.3.91-.25.38.08.67.43,1,.6l1.47-.53-.31-.44-.93-.53c.58-.34,1.45.85,1.57.87.18.03.57-.16.7-.16h1.47Z"/>
    <path d="M97.14,87.11l-9.08,2.4-.09-.53,8.61-2.39c.13-.03.58.49.56.52Z"/>
    <path d="M129.92,91.21l4,1.56.19.57-5.34-1.93c-.04-.15.07-.26.17-.35.32-.28,2.82-.87,3.39-.97.19-.03.67-.19.81-.09s.13.43-.07.48l-3.14.73Z"/>
    <path d="M166.08,59.97l-3.72,1.41c-.15.06-.41-.15-.38-.3.06-.24,3.49-1.5,3.97-1.55.74-.08.74.1.6.77-.3,1.38-1.22,2.99-2.56,3.58l-.22-.48c1.32-.71,2-2.03,2.31-3.44Z"/>
    <path d="M34.12,81.36c-.55,1.08-1.08,2.17-1.74,3.2-.41.63-1.13,1.69-1.68,2.14-.1.08-.14.22-.31.18-.11-.56.47-.77.75-1.16l.67-1.06-1.47,1.6c-.17.03-.11-.02-.15-.11-.2-.41.04-.29.2-.47.37-.43.81-.98,1.16-1.43.69-.89,1.33-1.83,1.96-2.76l.63-.13Z"/>
    <path d="M258.1,39.95c-.16-.02-.04.16-.15.27-.04.04-.85.47-.92.49l-.54-.32.05-.18c.5-.18.88-.55,1.46-.44.02-.13-.25-.14-.34-.15-.25-.04-.5,0-.74-.06l-.03-.51c.4-.22.87.02,1.23,0,.38-.01,1.86-.36,2,.06.19.56-.3.41-.57.56-.31.18-1.05,1.48-1.25,1.51-.56-.15-.09-.8-.21-1.24Z"/>
    <path d="M278.14,75.28c.03.66.08,1.7-.71,1.82.64.72.58-.61,1.04-.74.23-.06.43.06.43.3.01.46-.73,1.72-.81,2.27-.64.36-.65-.62-.83-1.04-.13-.29-.78-1.25-.78-1.41,0-.6.79-.15,1.03.04.06-.53-.03-1.14.62-1.25Z"/>
    <path d="M193.61,78.48c-.11-1.07-.27-2.16-.18-3.25.01-.14.21-1.36.53-1.02-.69,2.59.23,5.31.98,7.79l1.6,3.78c-1.25-1.63-1.86-3.67-2.5-5.61l-.89.18v-.27s.79-.1.79-.1l-.27-1.23c-.33-.03-.66,0-.99-.04-.14-.02-.4-.02-.34-.24h1.25Z"/>
    <path d="M77.06,79.2c.18-.05.26,0,.39.12.22.19.95,1.57,1.17,1.94.72,1.22,1.41,2.46,2.08,3.7l-.1.27-.3-.14-3.33-5.31c-.09-.16-.14-.52.07-.59Z"/>
    <path d="M204.83,89.12c.01.1.14.25.09.4.08.11,1.83-1.66,1.96-1.83.22-.27.6-1.08.75-1.21.08-.06.26-.15.32-.04-1.24,2.57-3.7,4.3-6.26,5.4-.46.2-1.09.45-1.57.57-.12.03-.31.13-.27-.09l2.66-1.22-.16-1.85c.23-.02.15-.01.17.13.1.51.07,1.05.18,1.56.1.09,1.86-.98,2-1.25l-.13-1.91h.27c.04.42-.05.92,0,1.33Z"/>
    <path d="M78.85,78.96l2.9,4.98c.18.34.04.77-.38.56-.21-.11-2.1-3.63-2.36-4.14-.18-.34-1.06-1.8-.16-1.4Z"/>
    <path d="M204.65,70.47l-2.99-.63-2.89.23c1.65-1.38,4.52-1.42,5.88.4Z"/>
    <path d="M89.39,87.83l.09-.31,6.04-1.99c1.06.41-.36.75-.8.9-1.2.4-2.56.79-3.79,1.11-.23.06-1.43.4-1.53.29Z"/>
    <path d="M206.88,84.09s-.5.93-.53,1.12c-.09.59.6,1.63.09,2.35l-.11-1.53-.2-.51c-1.3,1.72-2.9,3.07-4.8,4.11-.48.26-1.05.58-1.57.7-.05-.24.06-.15.18-.22.77-.45,1.59-.82,2.28-1.38l-.5-1.07c.25-.26.5,1.06.74.97.41-.06,3.52-3.09,3.53-3.51.01-.31-.49-.58-.62-.85.17-.04.24.04.36.13.15.11.4.6.53.49.02-.14.46-.96.63-.8Z"/>
    <path d="M91.34,64.16c.52,1.68,1.13,3.38,1.43,5.11-.07.39-.48.27-.63-.08-.32-.74-1.13-3.85-1.22-4.66-.01-.12-.06-.25.07-.34l.35-.03Z"/>
    <path d="M198.5,63.97c-1.54.57-2.86,1.57-3.96,2.76l-.4-.49c.88-.94,1.88-1.8,3.02-2.4.59-.31,1.01-.7,1.34.13Z"/>
    <path d="M39.28,72.73c-.19.18-.28-.43-.25-.56.02-.09.62-.98.73-1.15.36-.54.85-1.16,1.26-1.68.23-.29,1.89-2.26,2.05-2.22l.18.36c-1.46,1.63-2.97,3.29-3.97,5.25Z"/>
    <path d="M100.25,68.78c.02.19.01.32-.08.49-.13.23-2.04,1.83-2.41,2.13-.22.18-1.15.98-1.31,1.01s-.2,0-.29-.12c-.02-.12,1.1-1.21,1.29-1.38.45-.43,1.89-1.81,2.31-2.05.17-.1.3-.1.49-.08Z"/>
    <path d="M88.13,88.17h-.26c-.1-.08.32-1.04.4-1.23.53-1.33,1.18-2.62,1.73-3.94.22-.22.46-.2.46.16l-2.33,5.02Z"/>
    <path d="M255,82.11c-.1-.38-1.64-1.92-1.36-2.2l1.54.1c.55.25-.07.69,0,1.08.05.31.59.55.51.89-.13.3-.44.3-.68.13Z"/>
    <path d="M87.61,87.03c-.01-.22,0-.43.02-.64.1-.83.52-2.7.8-3.47.09-.25.14-.39.46-.33.11.04.13.12.15.22.05.3-.78,3.31-.96,3.76-.1.25-.12.53-.47.46Z"/>
    <path d="M82.8,65.84c-.03-.17.03-.24.13-.36.46-.55,2.34-1.97,3-2.43.22-.15.57-.49.75-.14.13.25-.12.38-.27.53-.52.49-2.6,2.01-3.22,2.3-.13.06-.23.13-.39.1Z"/>
    <path d="M30.64,81.27c-.53.17-1.08.43-1.57.7-.9.49-1.98,1.45-2.8,1.83-.23.11-.44.17-.7.14-.04-.19.11-.2.2-.29.72-.67,2.66-1.89,3.57-2.31.41-.19,1.02-.58,1.31-.08Z"/>
    <path d="M82.59,74.51c.45.02.55.42.06.59-.84.29-2.3.11-3.2.37-.32-.03-.59-.28-.18-.46.28-.12,2.97-.51,3.32-.5Z"/>
    <path d="M96.34,74.57c-.08-.37.32-.4.59-.43.64-.09,1.57-.17,2.21-.19.26,0,1.87-.08,1.17.46-.08.06-1.27.16-1.52.17-.81.04-1.64-.04-2.45,0Z"/>
    <path d="M82.42,75.84c.15.17.08.6-.22.58-.94-.06-1.98.23-2.92.11-.17-.02-.3-.05-.37-.22l.12-.23c.99.07,2.05-.33,3.02-.35.1,0,.31.04.38.11Z"/>
    <path d="M84.22,66.47c-.04-.18.04-.24.13-.36.24-.32,2.06-1.93,2.4-2.14s.6-.03.45.36c-.31.19-2.81,2.32-2.99,2.13Z"/>
    <path d="M89.74,64.15v4.36c-.45-.05-.24-.93-.26-1.29-.07-1.02-.14-2.04-.09-3.07h.36Z"/>
    <path d="M275.29,94.33c.03.17-.03.24-.13.36-.24.29-2.43,1.17-2.63.97-.02-.13,0-.21.08-.32.09-.11,2.58-1.12,2.68-1.02Z"/>
    <path d="M104.4,69.58c.13-.03.24.14.29.25.09.22.29,1.59.3,1.85,0,.42-.34.72-.55.27-.1-.23-.21-1.76-.17-2.06.01-.1.03-.28.14-.31Z"/>
    <path d="M95.07,83.54l-.2.08c-.25-.02-.88-.78-1.11-.99-.16-.15-.93-.63-.89-.8.09-.46,1.25.47,1.38.58.17.14.89.79.9.93l-.08.2Z"/>
    <path d="M258.36,53.74l.09.71c-.29-.06-1.48.75-1.61.67l-.26-.58,1.78-.8Z"/>
    <path d="M210.51,76.5s-.2.03-.28.11c-.21.2-.52,1.34-.89,1.25-.13-.03-.12-.16-.1-.27.04-.23.68-1.35.86-1.55.11-.12.34-.45.49-.23.09.13.01.61-.07.69Z"/>
    <path d="M238.59,50.09l-.4,1.51c-.12.16-.49.07-.67.09.24-.68.1-1.67,1.07-1.6Z"/>
    <path d="M274.31,65.93c-.14.03-.14-.02-.22-.09-.11-.11-.7-.79-.73-.88-.08-.26.13-.43.28-.62l.92,1.04-.26.56Z"/>
    <polygon points="246.16 52.05 246.62 50.91 247.41 51.12 246.87 52.1 246.16 52.05"/>
    <polygon points="38.08 89.16 36.43 89.16 36.3 88.63 38.03 88.63 38.16 88.77 38.08 89.16"/>
    <path d="M237.79,53.65l-.17,1.37-.63.14.17-1.36c.1-.16.45-.15.63-.15Z"/>
    <path d="M43.74,72.28v-1.47s.42-.69.53-.76v1.82l-.53.4Z"/>
    <polygon points="250.52 46.27 249.82 47.2 249.1 46.98 249.81 46.04 250.52 46.27"/>
    <path d="M254.51,55.98c.24-.06.44.26.46.47l-.91.76-.41-.47.86-.76Z"/>
    <polygon points="26.1 75.93 26.1 77.76 25.95 77.88 25.65 77.89 25.65 75.93 26.1 75.93"/>
    <path d="M232.89,70.83l-.54-.94.4-.58.67,1.02c0,.15-.42.56-.53.49Z"/>
    <path d="M208.39,80.18c.06.21-.06.15-.11.2-.6.54-.8.2-1.49-.07l.33-.5,1.27.36Z"/>
    <path d="M254.35,41.73l.36.49c-.53.42-.82.97-1.42.27l1.06-.75Z"/>
    <polygon points="237.52 83.38 237.34 84.18 236.36 83.91 236.55 83.21 237.52 83.38"/>
    <path d="M35.23,89.16h-1.38c-.18,0-.18-.53,0-.53h1.34l.11.13-.07.4Z"/>
    <path d="M270.65,62.73c-.58-.38-1.17-.37-.98-1.25.62.23,1.35.45.98,1.25Z"/>
    <path d="M39.38,88.64l1.33.07.03.31c-.08.23-2.09.34-1.36-.38Z"/>
    <path d="M239.84,47.25c-.15.64-.47,1.02-1.16,1.07l.53-1.12.62.05Z"/>
    <polygon points="231.33 66.83 231.79 67.67 231.33 68.16 230.85 67.39 231.33 66.83"/>
    <path d="M252.63,43.07l.56.39-.67.65c-.13-.08-.61-.29-.58-.46l.68-.58Z"/>
    <path d="M43.25,88.63l-.04.45c-.12.18-1.04.04-1.3.08v-.53h1.34Z"/>
    <path d="M103.81,72.25l-.27-.05c-.03-.25-.31-1.76-.04-1.82.24-.05.25.46.28.61.04.22.19,1.15.02,1.26Z"/>
    <path d="M247.94,101.53l-.83.25c-.15-.03-.55-.57-.51-.61l.85-.24.49.59Z"/>
    <path d="M25.65,73.53l.39.08c.13.1.01,1.18.05,1.43l-.44.09v-1.6Z"/>
    <polygon points="271.28 74.83 271.46 75.76 270.83 76.08 270.67 75.15 271.28 74.83"/>
    <rect x="47.17" y="88.72" width="1.87" height=".36"/>
    <path d="M249.9,62.46c.17,0,.44.12.44.31l-.67,1.38c-.18-.12-.12-.2-.11-.37.03-.42.25-.9.34-1.31Z"/>
    <path d="M237.79,59.26l.08.97-.61.19-.08-.92c.06-.17.44-.23.61-.23Z"/>
    <polygon points="251.55 88.01 251.95 88.5 251.37 89.16 250.97 88.67 251.55 88.01"/>
    <rect x="25.65" y="60.8" width=".45" height="1.42"/>
    <polygon points="271.55 54.63 270.57 54.27 270.74 53.69 271.6 54.01 271.55 54.63"/>
    <path d="M218.08,86.43c-.08-.08-.3-.07-.33-.16l.05-.22c.5-.09,1.06.66,1.14,1.09.07.4-.33.25-.48.02-.1-.17-.09-.45-.37-.73Z"/>
    <path d="M26.1,72.73l-.44.09c0-.67-.16-1.25.44-1.69v1.6Z"/>
    <path d="M21.06,91.91c-.22.08-1.3.76-1.42.63-.34-.35,1.11-.9,1.29-1.07l.13.43Z"/>
    <path d="M270.74,84c-.17,1.25-1.16,1.59-.61,0h.61Z"/>
    <polygon points="237.61 57.48 237.57 58.37 236.99 58.55 236.99 57.57 237.61 57.48"/>
    <path d="M267.54,68.96c.64-.4.67-.04,1.07.4l-.49.38-.58-.78Z"/>
    <polygon points="253.53 97.54 254.09 97.93 253.42 98.42 252.93 98.02 253.53 97.54"/>
    <path d="M197.7,70.38l-.89-.93-.44-.14.09-.22c.45-.3,1.43.79,1.25,1.29Z"/>
    <polygon points="246.24 91.31 246.52 91.92 245.71 92.15 245.45 91.48 246.24 91.31"/>
    <path d="M245.71,66.38c-.24.24-.76-.84-.82-1.01-.12-.32.38-.31.51-.15.07.09.37,1.1.31,1.16Z"/>
    <path d="M239.56,92.38l.1.7c-.72.08-.69.01-.98-.58.01-.19.71-.15.88-.12Z"/>
    <polygon points="244.91 63.18 244.99 64.05 244.47 64.24 244.29 63.26 244.91 63.18"/>
    <path d="M94.17,81.16c.33-.1,1.08.57,1.01.84-.1.11-.11.16-.27.09-.19-.08-1.28-.77-.74-.93Z"/>
    <path d="M265.67,66.83l-.31.51-.85-.47c.22-.62.75-.15,1.16-.04Z"/>
    <path d="M229.91,78.93c.61.2.37.77.09,1.16l-.47-.49.38-.67Z"/>
    <path d="M265.48,52.51l.1.7c-.19-.02-.66.07-.76-.08l-.04-.63h.7Z"/>
    <path d="M249.54,100.91c-.6.26-.8.19-1.16-.35l.66-.25c.11.08.59.49.5.61Z"/>
    <rect x="50.19" y="88.72" width="1.51" height=".36"/>
    <path d="M237.78,75.54c-.08.06-.66-.3-.7-.41l.17-.56c.08-.06.75.35.7.64,0,.02-.16.32-.17.33Z"/>
    <polygon points="230.04 65.67 229.79 65 230.39 64.51 230.64 65.18 230.04 65.67"/>
    <path d="M260.06,53.83c-.58.2-.6.25-1.04-.15-.06-.05-.17,0-.11-.2l.89-.27.27.62Z"/>
    <path d="M234.4,83.11l-.62-.19.18-.79c.23-.02.43.1.58.26l-.14.72Z"/>
    <polygon points="245.45 56.15 245.34 56.66 244.56 56.77 244.65 56.06 245.45 56.15"/>
    <path d="M241.62,69.05c-.16.15-.93-.66-1-.83-.09-.21.12-.26.25-.41l.76,1.24Z"/>
    <polygon points="249 90.06 249.27 90.62 248.71 90.94 248.39 90.37 249 90.06"/>
    <path d="M273.82,55.17l.62.35c.06.12-.08.51-.19.53l-.65-.41.22-.48Z"/>
    <path d="M271.46,81.06l-.13.71-.58.17.13-.8c.13-.15.4-.08.58-.09Z"/>
    <path d="M256.14,95.75c.09.13-.39.52-.5.61l-.48-.31.49-.56.49.25Z"/>
    <path d="M250.7,45.11l.41-.62.57.41c-.2.56-.55.34-.98.21Z"/>
    <polygon points="234.72 72.07 235.19 72.49 234.89 73.05 234.42 72.64 234.72 72.07"/>
    <rect x="53.04" y="88.72" width="1.34" height=".36"/>
    <polygon points="243.4 82.93 243.48 83.55 242.78 83.73 242.82 83.11 243.4 82.93"/>
    <rect x="25.65" y="58.93" width=".45" height=".98"/>
    <path d="M263.17,61.57c-.03-.15.08-.22.18-.31.12-.11.82-.54.89-.26.14.54-.74.53-1.07.58Z"/>
    <path d="M241.17,92.99c-.63.09-.73-.06-.89-.62l.72.04.17.58Z"/>
    <path d="M257.92,92.99c-.84.06-.1-1.12.13-1.07.33.07-.14.88-.13,1.07Z"/>
    <path d="M275.2,67.09c-.55-.14-.52-.64-.13-.98.55.29.35.55.13.98Z"/>
    <polygon points="252.45 87.03 252.92 87.44 252.53 87.91 252.13 87.43 252.45 87.03"/>
    <polygon points="232.13 68.34 232.43 68.81 231.95 69.32 231.67 68.83 232.13 68.34"/>
    <path d="M243.84,82.67c1.11-.51,1.3-.13.31.53l-.31-.53Z"/>
    <path d="M238.23,64.07l-.16-.57.47-.32c.39.42.23.76-.31.89Z"/>
    <polygon points="237.61 55.88 237.6 56.58 236.99 56.68 237 56.07 237.61 55.88"/>
    <polygon points="238.85 76.26 238.24 75.98 238.41 75.37 239.03 75.78 238.85 76.26"/>
    <path d="M236.27,73.68c.53.24.69.46.21.88-.59-.05-.36-.51-.21-.88Z"/>
    <path d="M238.05,52.23l-.09.62-.53.06-.18-.1c.08-.59.2-.61.8-.58Z"/>
    <polygon points="240.1 66.65 239.57 66.82 239.3 66.25 239.7 65.94 240.1 66.65"/>
    <polygon points="240.28 66.82 240.63 67.42 240.33 67.8 239.84 67.13 240.28 66.82"/>
    <path d="M272.88,54.55l-.08.61c-.61-.05-.67-.28-.44-.8l.53.19Z"/>
    <path d="M238.32,62.02l.05.53c-.18.12-.35.3-.58.27l-.05-.54.59-.27Z"/>
    <polygon points="266.99 52.69 267.09 53.3 266.57 53.28 266.47 52.58 266.99 52.69"/>
    <path d="M16.61,94.06v-.34s.98-.46.98-.46c.09.58-.58.65-.98.8Z"/>
    <polygon points="235.83 82.84 235.56 83.61 235.2 83.55 235.38 82.75 235.83 82.84"/>
    <path d="M247.76,91.47l-.44.09-.27-.57.45-.18c.09.12.34.56.26.67Z"/>
    <path d="M229.01,77.95c.49.12,0,.64-.18.89l-.31-.39.48-.5Z"/>
    <path d="M257.55,93.54l-.17.61c-.08.06-.51-.21-.52-.31l.25-.49.43.19Z"/>
    <polygon points="245.89 54.45 245.89 54.81 245 54.9 245.1 54.47 245.89 54.45"/>
    <polygon points="271.54 76.71 271.6 77.15 271.01 77.42 270.96 76.88 271.54 76.71"/>
    <path d="M233.07,82.4l-.27-.04c-.21-.1.15-.83.23-.85.46.1,0,.59.04.89Z"/>
    <path d="M276.87,57.32c.04.51-.3.9-.57.25l.27-.44.3.19Z"/>
    <path d="M254.49,96.65l.45.34c.07.49-.59.23-.76-.04l.31-.3Z"/>
    <path d="M252.4,58.1l.4-.36c.13,0,.42.27.39.39l-.23.23-.57-.26Z"/>
    <path d="M276.18,69.23c-.26-.19.09-.68.31-.8.48.22-.15.92-.31.8Z"/>
    <path d="M230.93,65.85l.08.43-.61.28c-.15-.23.39-.82.53-.71Z"/>
    <path d="M18.31,93.26v-.43s.62-.28.62-.28c.1.47-.21.63-.62.71Z"/>
    <polygon points="252.85 86.57 253.06 86.14 253.54 86.54 253.33 86.85 252.85 86.57"/>
    <polygon points="242.06 83.29 242.05 83.94 241.98 84.05 241.71 84.09 241.72 83.39 242.06 83.29"/>
    <path d="M227.72,77.24c.31.12.59-.41.8-.13l-.49.58c-.17.04-.37-.28-.31-.44Z"/>
    <path d="M263.97,52.5v.67c-.38.2-.34-.27-.42-.54l.42-.13Z"/>
    <path d="M209.99,71.9c-.21-.04-.19-.34-.29-.42-.13-.11-.66-.07-.6-.38.55-.07.89.25.89.8Z"/>
    <path d="M230.13,63.97l-.62.27c-.14-.56.47-.85.62-.27Z"/>
    <polygon points="268.78 61.75 268.47 61.66 268.43 61.04 268.74 61.13 268.78 61.75"/>
    <path d="M238.04,61.38s-.55.3-.61.06c-.05-.22.45-.37.58-.49l.03.43Z"/>
    <path d="M244.56,91.74l.18.71c-.41.08-.33-.36-.53-.58l.35-.13Z"/>
    <path d="M238.93,49.37c-.15-.02-.71.15-.7-.12l.8-.31-.1.43Z"/>
    <path d="M251.86,98.69c.21-.24.57.27.71.4-.21.41-.8-.29-.71-.4Z"/>
    <path d="M277.25,72.16l-.05-.35.45-.36c.38.32-.17.51-.4.71Z"/>
    <polygon points="271.1 82.84 271 83.19 270.39 83.2 270.49 82.86 271.1 82.84"/>
    <path d="M275.38,56.23c.16-.03.26.07.27.22.06.67-.72.55-.27-.22Z"/>
    <path d="M250.26,80.97h-.53s.09-.62.09-.62c.05-.05.52.46.44.62Z"/>
    <path d="M129.22,51.51l.07-.3c.57-.4,1.69,1.2,1.61,1.78-.03.18-.16.34-.36.28-.41-.11-.61-1.64-1.32-1.76Z"/>
    <path d="M128.01,52.33c.3-.09.66.21.73.5.18.79-.58,1.02-.68.59-.03-.15.11-.32.06-.5-.03-.11-.52-.47-.11-.59Z"/>
    <path d="M128.64,51.4s.06-.16.12-.19c.63-.37.4.82-.38.74-.82-.09-.99-1.03-.48-.87.11.04.36.64.74.32Z"/>
    <path d="M228.52,36.33c-3.51-1.48-7.03-4.3-10.48-7.05-5.03-4.02-10.24-8.18-15.4-8.18h0s-.01,0-.02,0c-5.16,0-10.37,4.16-15.4,8.18-4.95,3.95-10.06,8.04-15.05,8.12h0c-5.03,0-10.2-4.13-15.19-8.12-1.51-1.21-3.03-2.42-4.57-3.54v.05c-3.64-2.66-7.33-4.76-11-4.76-5.16,0-10.37,4.16-15.4,8.18-4.99,3.99-10.16,8.12-15.19,8.12s-10.2-4.13-15.19-8.12c-5.03-4.02-10.24-8.18-15.4-8.18h0s-.01,0-.02,0c-5.16,0-10.37,4.16-15.4,8.18-4.95,3.95-10.06,8.04-15.05,8.12h0c-5.03,0-10.2-4.13-15.19-8.12-2.53-2.02-5.09-4.07-7.68-5.62l-.21-.12c-2.5-1.46-5.01-2.44-7.51-2.44-5.16,0-10.37,4.16-15.4,8.18-1.25,1-2.5,2-3.77,2.95v.24c1.33-.99,2.66-2.05,3.97-3.1,4.95-3.95,10.06-8.04,15.05-8.12h0c5.03,0,10.2,4.13,15.19,8.12,5.03,4.02,10.24,8.18,15.4,8.18s10.37-4.16,15.4-8.18c4.99-3.99,10.16-8.12,15.19-8.12s10.2,4.13,15.19,8.12c5.03,4.02,10.24,8.18,15.4,8.18h0s.01,0,.02,0c5.16,0,10.37-4.16,15.4-8.18,4.99-3.99,10.16-8.12,15.19-8.12,3.64,0,7.34,2.15,11,4.85v.07c1.42,1.04,2.82,2.16,4.22,3.28,5.03,4.02,10.24,8.18,15.4,8.18s10.37-4.16,15.4-8.18c4.99-3.99,10.16-8.12,15.19-8.12s10.2,4.13,15.19,8.12c3.51,2.8,7.1,5.67,10.7,7.15v-.19Z"/>
  </g>
</svg>