<?xml version="1.0" encoding="UTF-8"?>
<svg id="Layer_2" xmlns="http://www.w3.org/2000/svg" version="1.1" viewBox="0 0 287.7 124.7">
  <!-- Generator: Adobe Illustrator 29.0.0, SVG Export Plug-In . SVG Version: 2.1.0 Build 186)  -->
  <defs>
    <style>
      .st0 {
        fill: #383838;
      }
    </style>
  </defs>
  <g id="Layer_1-2">
    <path id="New_Mask" class="st0" d="M0,8.5v107.7c0,4.7,3.8,8.5,8.5,8.5h270.7c4.7,0,8.5-3.8,8.5-8.5V8.5C287.7,3.8,283.9,0,279.2,0h-10.6s0,60.2,0,60.2h-30.5V0S8.5,0,8.5,0C3.8,0,0,3.8,0,8.5ZM274.7,116.2c0-2.5,2-4.5,4.5-4.5s4.5,2,4.5,4.5-2,4.5-4.5,4.5-4.5-2-4.5-4.5ZM3.4,52.7h.9c0,0-1,.4-1,.4v-.3c.1,0,.2,0,.2,0ZM6.2,54c-1,0-1.9.5-3,.5v-.3l3-.5v.3ZM6.5,55l-3.2.6v-.3s3.1-.5,3.1-.5v.2ZM6.6,55.7c.2,0,.3,0,.4.1l-3.7.8v-.4c1,0,2.2-.5,3.3-.6h0ZM7.8,56.5l-4.5.9.2-.3c1.2-.2,2.3-.4,3.5-.6.3,0,.6-.4.9,0ZM8.2,57.3c.2,0,.2-.1.4,0l-5.4,1.2v-.3c.4,0,.6-.1.9-.2,1.1-.2,3-.6,4.1-.7h0ZM8.4,58.1c.5,0,.9-.4,1.5-.2v.2c-.1,0-6.6,1.3-6.6,1.3v-.4c1.7-.3,3.4-.7,5.2-1h0ZM14.8,57.8c.2.1-.4.3-.4.4-3.2.8-6.9,1.3-10.2,2-.3,0-.6.2-.9.3v-.4s11.5-2.2,11.5-2.2h0ZM15.4,58.2h.3c0,.1-.4.3-.5.3-3.2.8-6.8,1.3-10,2-.6.1-1.2.4-1.8.4s-.3,0-.2-.2l12.2-2.4h0ZM16,58.7c.1,0,.2-.1.4,0l-13,2.8v-.4c.3,0,.8-.2,1.2-.2,2.6-.5,5.3-1,7.9-1.5,1.1-.2,2.4-.7,3.5-.7h0ZM4.3,74.8l-1.1.3v-.8c.1-.1,1,.4,1.1.6ZM8.1,77.4l-4.9,1.3v-.4c.7,0,4.7-1.4,5-1l-.2.2h0ZM9.2,77.9l.4.3c-.3,0-.6.2-.8.2-.4,0-.9,0-1.3,0l1.7-.4ZM66.1,62.4l-26.2,6.7-.5-.3,27.1-6.8-.4.3h0ZM41.2,69.7c1.3-.3,2.6-.6,3.9-.9,7.1-1.8,14.2-4,21.3-5.6.5-.1,1.4-.4,1.9-.2-7.8,2.1-15.6,4.1-23.5,6.1-.9.2-2.4.8-3.3.9-.1,0-.5,0-.4-.3h0ZM39.5,68.3c-.4,0-1.1.4-1.4,0,5.6-1.4,11.1-2.8,16.7-4.2,2.8-.7,5.6-1.5,8.4-2.1.6-.1,1.2-.5,1.8-.3l-.6.3c-8.4,1.8-16.6,4.5-25,6.3h0ZM37.3,68l.3-.2c8-1.8,15.9-4,23.9-6,.5-.1,1.7-.5,2.2-.5.2,0,.3,0,.5,0l-26.8,6.7ZM37.9,67.4c-.3,0-.7.2-1,.2s-.4,0-.3-.2c.8,0,1.5-.4,2.3-.6,6.1-1.6,12.2-3,18.2-4.5,1.8-.4,3.7-1.1,5.5-1.4.2,0,.4,0,.6.1-.5.1-.9.3-1.4.4-4.4,1.1-8.8,2.1-13.2,3.2-3.5.9-7.1,1.9-10.6,2.7h0ZM54.5,58.8c.6-.1,1.3-.3,1.9-.2l-16.5,3.9c.3-.5.9-.4,1.4-.6,4.3-1.1,8.9-2.3,13.2-3.1h0ZM55.1,58.3l-14.4,3.4c.3-.5.9-.4,1.4-.6,3.8-1,7.7-1.9,11.5-2.7.4,0,1.1-.3,1.4,0h0ZM55.4,59.5c.6-.1,1.3-.4,1.9-.5.2,0,.3,0,.4.1l-25.7,6.1-.5-.3c5.8-1.3,11.5-2.7,17.3-4.1,2.2-.5,4.4-1,6.6-1.5h0ZM33.6,63c.4,0,.9,0,1.3,0l-5,1.2h-.1c.1-.2.2-.3.4-.4.6-.2,2.1-.5,2.8-.6.2,0,.5-.2.7-.2h0ZM36.3,56.8c-.3,0-1.1,0-1.4,0l1.7-.4c0,0-.3.4-.3.4h0ZM31.5,82c-.1,0-.5-.3-.4-.4.7,0,3-1,3.4-.9.2,0,.4.3,0,.4-1,.4-2.1.6-3.1.9h0ZM31.5,101.1c.3,0,.4.3.6.4l-6.5,2.4v-.7s5.9-2.2,5.9-2.2ZM32.2,82.7c.7,0,2.9-1,3.4-.9.2,0,.4.4,0,.4l-3,.9c-.2,0-.5-.3-.4-.4h0ZM33.1,83.7l3.4-1,.4.3-3.3,1.1c-.2,0-.5-.4-.5-.4h0ZM33.2,102.5l-7.6,2.7v-.8c1-.2,6.6-2.5,6.9-2.4.2,0,.5.4.6.5ZM25.8,102.4c-.3,0-.1-.7-.1-.8l4.8-1.7.6.5-5.2,2h0ZM28.5,80.3l-1.2-.2c.8,0,2-1,2.7-.2l-1.5.4h0ZM30.9,80.3c.5,0,1.1,0,1.6,0l-2.2.7-.7-.3c.4,0,.9-.3,1.3-.4ZM59.2,59.6l-.3.2c-7.6,1.7-15.2,3.7-22.8,5.5-.7.2-2.1.6-2.7.6-.1,0-.6,0-.6-.2l26.4-6.2ZM60.7,60.1c0,.2,0,.2-.1.2-7.3,1.7-14.6,3.5-21.9,5.3-1.2.3-2.8.9-4,1-.2,0-.5,0-.5-.3,0,0,26.5-6.2,26.5-6.2ZM58.1,61.5c1-.2,2.6-.8,3.6-.9.2,0,.3,0,.4.1l-26.6,6.4.3-.2c7.4-1.8,14.8-3.6,22.3-5.4h0ZM33.9,85.1l3.1-.9c-.6,1-1.9.9-2.8,1.4-.2,0-.2-.3-.2-.4h0ZM34.2,87v-.5l.8-.2c0,.5-.4.7-.8.7ZM34.3,88.5v-.4l.6-.2c.1.5-.2.6-.6.7h0ZM34.4,102.9h1.9s-11.5,4.3-11.5,4.3l.7-1.1,9-3.3h0ZM21.1,80.6v-.4s7-1.9,7-1.9l.3.3-7.3,2.1ZM21,79.1v-.5c.2,0,.5-.1.8-.2.8-.2,2.1-.7,2.9-.8s1.1,0,1.6,0c0,0-5.3,1.5-5.3,1.5ZM24.5,60c0,.1-.2.3-.4.3-.2,0-1.4.3-1.6.4-.1,0-.8,0-.6-.3l2.5-.5h0ZM20.6,78.2l-.3-.4c1,0,2-.8,3-.5,0,.1-.3.2-.4.2-.7.2-1.5.3-2.2.6ZM21,60c-.1,0-.5,0-.5-.2l5.4-1.1c0,.1-.2.3-.4.3-.7.3-2.3.4-3.1.6-.4,0-.9.3-1.4.3h0ZM23,45.1l8.7-1.5v.3c-1.5.2-2.8.4-4.1.6-1.1.2-2.3.5-3.4.6-.2,0-1.1.2-1.1,0h0ZM31.9,44.7l-7.8,1.2.2-.3c2.2-.4,4.4-.7,6.6-1,.3,0,.5-.3.8-.2,0,0,.1.2.1.2ZM32,45.3l.2.3-6.1,1h-.4c0-.1.7-.4.8-.4,1.4-.3,3-.5,4.4-.7.3,0,.7-.2,1.1-.2h0ZM32.3,46.3c.4,0,.5.2.1.3-.3,0-.6,0-.8.2l-4.6.7c0-.2,0-.2.2-.3,1.3-.4,3.7-.7,5.1-.9h0ZM33,47.1l.4.2c-1.4.3-2.9.5-4.3.8v-.3c-.1,0,3.9-.7,3.9-.7h0ZM33.9,47.9l.3.2-1,.3c-.3,0-1.7.3-1.9.3-.1,0-.1-.1-.1-.3l2.8-.5h0ZM32.7,49c.7,0,1.7-.7,2.3-.1-.5.1-1.1.2-1.6.3-.3,0-.7.4-.7-.1h0ZM35.7,49.4l-1.6.3c-.3-.3,1.1-.4,1.3-.4,0,0,.2.1.3.1ZM36,50.2c.5-.2,1-.2,1.6,0l-1.4.3v-.2c-.1,0-.1,0-.1,0ZM36.5,63c.4,0,.9,0,1.3,0l-4.3,1.1c-.9,0-1.9.6-2.9.6s-.4,0-.3-.2c1.8-.4,3.6-.9,5.4-1.2.2,0,.6-.2.8-.2h0ZM41.5,50.3l-.8.2c-.6,0-2.3.6-2.7.5-.2,0,0-.3.1-.3.3,0,1.5-.4,1.8-.4.5,0,1,0,1.5,0ZM40,51.6l1.8-.4c-.3.6-1.1.3-1.5.6l-.2-.3h0ZM41.7,60.7c.2-.3.6-.4,1-.5,2.8-.7,5.8-1.3,8.6-1.9.8-.2,1.8-.6,2.7-.4l-12.3,2.9h0ZM46.6,56.9c.7-.2,1.4-.4,2.1-.5.2,0,1.1-.2,1.1,0l-4.9,1.1c.3-.5,1.1-.4,1.6-.6h0ZM48.5,55.7l-.7.3-1.7.3c.5-.5,1.7-.7,2.4-.5h0ZM48.5,57.3c.7-.1,1.4-.3,2.1-.5.3,0,.4-.3.8,0l-7.7,1.7c0-.2.2-.3.4-.4,1.2-.4,3.1-.7,4.3-.9h0ZM48.7,58c1-.2,2.6-.7,3.6-.7.2,0,.3,0,.5,0l-9.9,2.2c.3-.5,1.2-.4,1.7-.6,1.3-.3,2.7-.7,4.1-1h0ZM51,8.5c0,2.5-2,4.5-4.5,4.5s-4.5-2-4.5-4.5,2-4.5,4.5-4.5c2.5,0,4.5,2,4.5,4.5ZM54.8,47.5c2.9-.5,5.9-1.2,8.8-1.7.6,0,1.2-.2,1.8-.2-.6.5-1.5.4-2.2.6-2.4.5-4.8,1-7.2,1.5-.5,0-1,.1-1.4.2l.2-.3ZM56.9,45.5l.3-.3,5.4-.9c.2.2-.7.4-.8.4-1.3.3-2.8.5-4.1.7-.2,0-.5.3-.8.2h0ZM60.4,43.2c.6,0,1.1-.1,1.7-.2,0,.3-.2.1-.4.2-.1,0-.2.1-.4.2-.9.2-1.8.2-2.7.5.2-.5.9-.4,1.4-.5.1,0,.2-.1.4-.2h0ZM64.8,43.2v.3s-7.1,1.3-7.1,1.3c.1-.3.4-.4.6-.4l6.5-1.2h0ZM66.9,44.4v.3s-11.3,2.1-11.3,2.1c0-.1.2-.3.3-.3.2,0,.8-.2,1-.3,3-.6,6-1.1,9-1.7.1,0,1,0,1,0h0ZM65.1,46.6c.9-.2,1.8-.2,2.6-.5v.3c0,0-14.6,2.9-14.6,2.9,0,0,.2-.3.3-.3.7-.3,2-.4,2.8-.5,3-.6,5.9-1.3,8.9-1.8h0ZM67.7,47c.4,0,.8-.1,1.2-.1l-.3.2-16.7,3.3c.1-.2.6-.4.8-.4,1.2-.3,2.6-.4,3.9-.7,3.7-.7,7.4-1.6,11.1-2.3h0ZM69.7,47.6l-18.7,3.8c0-.1.2-.2.3-.3.3-.1,1.1-.3,1.4-.3,5.4-1.2,10.8-2.2,16.2-3.2.3,0,.5-.4.8,0ZM73.6,63.8c-.1,0-.2,0-.1-.2l7.5-1.9-.7.7c-1.5.4-3,.9-4.5,1.2-.7.2-1.5.5-2.1.2h0ZM76.2,64.6c-.3,0-.4,0-.7,0l3.8-1.1-.2.3c-.9.1-2.1.7-3,.8ZM77.3,65l2-.5c0,.2,0,.2-.2.3-.1,0-1.3.4-1.4.4-.1,0-.5,0-.4-.3h0ZM115,64.5c-6.7,2.2-13.5,4.4-20.2,6.5l-.2-.3,25.9-8.4c.2,0,.5,0,.7.1-2,.7-4.1,1.4-6.1,2.1h0ZM95.3,71.7l.4-.2c8.6-2.6,17.1-6,25.6-8.4.4-.1,1.1-.4,1.5-.2.1,0,.2,0,.1.2-.7.1-1.4.5-2.1.7-8.3,2.9-16.7,5.6-25.1,8.3l-.5-.2h0ZM93.7,69.6c-.2,0-.7,0-.6-.3l24.8-7.8h.7c0,0-24.8,8.1-24.8,8.1ZM88.9,83.3c-.1,0-.6-.5-.6-.5l3.3-1.1.4.5-3.1,1.1ZM89.6,84.1c.6,0,2.8-1.2,3.2-1.1.1,0,.2.2.2.2l-3,1.2c-.2,0-.3-.2-.4-.4h0ZM91.2,81l-3.2,1.3c-.2,0-.5-.3-.5-.4,1-.2,2.2-.9,3.1-1.1.2,0,.4,0,.6.1h0ZM87.9,80.9l-1.3.4-1.8-.6,1.6-.5,1.5.7h0ZM94.4,53.5c-.4,0-.6-.2-1-.2l4.8-1.3c-.1.2-.3.4-.5.5-.2.2-3,.9-3.3.9ZM96.8,53.4c-.4.6-.8.9-1.5.4l1.5-.4ZM98.7,51.5c-1.8.7-4.2.8-6,1.5-.2,0-.5-.1-.7-.2-.1,0-.3,0-.3-.2l7.8-1.8c-.2.2-.5.6-.7.7h0ZM91,52.6l-.8-.3,10.1-2.4-.7.7s-8.6,2-8.6,2ZM101.7,48.5c-.3.5-.7.6-1.2.7-2.8.8-6,1.5-8.8,2.1-.7.2-2.5.7-3.1.5-.1,0-.3,0-.4-.2l13.5-3.2h0ZM101.1,58.4c.3-.2,2-.6,2.4-.7.2,0,.2,0,.4,0l-3,.9c0-.1.1-.2.2-.3ZM90.1,63.3c.5,0,1.1,0,1.5,0l-3.9,1.2h-.1c.2-.2.4-.5.6-.6.1,0,1.8-.6,2-.6h0ZM102,48.2c-4.8,1.1-9.6,2.3-14.5,3.3l-1.7-.5,17.5-4.1-1.3,1.3h0ZM84.6,50.7h-.9c0,0,20.8-4.9,20.8-4.9-.1.2-.3.4-.5.5-.3.1-1.5.4-2,.5-5.8,1.4-11.6,2.6-17.4,3.9ZM100.5,59.2c1.2-.5,2.9-.7,4.2-1.2.8,0,0,.4-.3.5l-4.6,1.3c.2-.2.4-.5.7-.7h0ZM102.1,59.9c1.5-.4,3.3-1.2,4.8-1.4.3,0,.4,0,.7,0,0,.2,0,.1-.1.2-2.7.8-5.4,1.6-8.2,2.4-.3,0-.6.2-1,.2.1-.2.3-.4.5-.5.9-.4,2.3-.6,3.3-.9h0ZM95.1,63.5c4.8-1.4,9.6-2.8,14.4-4.2.3,0,.7,0,.9.2l-24.3,7.2h-.5s0-.3,0-.3c3.2-.9,6.3-1.9,9.5-2.8h0ZM111.9,59.8h.7c0,0-2.1.9-2.1.9-7.9,2.2-15.6,5-23.5,7-.3,0-.6.4-.9,0,0,0,25.9-7.8,25.9-7.8ZM87.5,68.7l26.7-8.2h.6c0,.3,0,.2-.1.3-8.6,2.5-17.1,5.4-25.7,7.9-.4,0-.8,0-1.2,0,0,0-.3,0-.3,0h0ZM91,68.6l24.8-7.7h.6c.2.2-1,.6-1.1.6-7.8,2.6-15.7,4.9-23.5,7.3l-.7-.2h0ZM90.6,85.7l3.1-1.2c-.7,1.1-1.9,1.4-3.1,1.8l-.2-.5h0c0,0,0,0,0,0ZM91.7,87.1c0,.5-.2.8-.7.8-.1-.6.2-.7.7-.8ZM91.6,88.7v.4l-.6.3c0-.5.2-.6.6-.7ZM90.9,103.4h1c0,0-11.6,5.4-11.6,5.4.3-.3.6-.8,1-1,.8-.5,2.6-1.2,3.6-1.7,2-.9,4-1.8,6-2.7h0ZM96.2,44c.2,0,.4,0,.6,0v.3c-5,1.1-10,2.1-14.9,3.2-.1,0-.2.1-.3.1-1.8.4-3.5.7-5.3,1l.2-.3c5.6-1.2,11.3-2.4,16.9-3.5.9-.2,2-.5,2.9-.6h0ZM104.8,43.8c.2,0,.6-.1.5.2-8.4,2-16.9,3.8-25.3,5.6-.8-.2-1.7-.1-2.4-.5,1.9-.5,3.8-.9,5.7-1.3,5.2-1.1,10.5-2.4,15.7-3.3.4,0,1.5-.3,1.8-.3.1,0,.2,0,.2.1l-.6.3c1.3,0,2.9-.7,4.2-.8h0ZM81.1,49.7l24.9-5.5c-.3.6-1.1.6-1.7.8-6,1.5-12.5,2.9-18.6,4.2-1,.2-2.7.7-3.7.7-.2,0-.5,0-.7,0-.1,0-.2,0-.1-.2h0ZM115.2,46.7l-3,.7c.1-.2.3-.4.5-.5.2,0,1.7-.4,1.9-.4s.5,0,.6.2ZM115.8,46.9c.3,0,.5,0,.8,0l-.4.2-5,1.2c.2-.2.4-.5.7-.6.5-.2,3.4-.9,3.9-.9h0ZM117,47.4c.4,0,.8-.1,1.2,0l-.2.3-7.9,1.9c.3-.6.8-.7,1.4-.8,1.7-.5,3.8-1,5.6-1.4h0ZM118.9,47.8c.6-.1,1-.2,1.6,0l-11.9,3.1c.4-.7,1-.8,1.7-1,2.7-.7,5.8-1.6,8.5-2.1h0ZM120.8,48.3c.5-.1,1.3-.4,1.7,0l-14.9,3.8c.3-.6,1.1-.7,1.7-.8,3.7-1,7.8-2.1,11.5-2.9h0ZM122.1,48.7c.5-.1,1-.2,1.5-.2l-.2.3-16.9,4.5c.5-.8,1.5-.7,2.3-.9,4.4-1.2,9-2.5,13.4-3.6h0ZM124.5,63.2h.4c0,0-27,9.3-27,9.3-.1.1-.9,0-.6-.2l27.3-9.1h0ZM126.9,63.8l-.2.3c-9,3-17.9,6.2-26.9,9.2l-.4-.3s27.4-9.3,27.4-9.3ZM99.7,83.9l1.1-.4v.7c-.2,0-.3,0-.5,0-.1,0-.6,0-.6-.2h0ZM101.5,74.9c.2-.3.6,0,.9,0,0,.5.4,0,.7.3-.6,0-1.2.2-1.6-.3h0ZM114.8,89.7l-.2.5c.3,0,.2.3.2.5l-4.4,1.9c0,0,0-.3,0-.4,0-.2.3,0,.3-.2h-.3v-.4c0,0,4.4-1.9,4.4-1.9h0ZM110,91.1l4.8-2.2v.4s-4.3,2-4.3,2c-.2,0-.3,0-.5-.2ZM109.4,90.2c-.2.2-.6-.3-.6-.3l5.9-2.5v.5c0,0-5.4,2.4-5.4,2.4ZM107.9,89.9h-.9c0,.1.2-.2.2-.2l7.6-3.3c0,.2,0,.4-.1.6l-6.8,2.9ZM107,89.4c0-.2,0-.5.1-.6l8.2-3.4-.7.8-7.6,3.3h0ZM119.1,81.4c0,.3-.4.2-.6.4h.4c0,0-.4.4-.4.4l-11.5,4.7v-.3h.3c0-.1-.3-.1-.3-.1v-1.3c0,0,10.5-4.3,10.5-4.3.5-.1,1,.6,1.6.5h0ZM114.7,79.5l.3.2-7.9,3.2v-.4c2.5-.9,5-2,7.6-3ZM113.4,79.1l-6.3,2.5v-.6s5.4-2.1,5.4-2.1c.2-.1.9,0,.9.2h0ZM116.3,80.2h.4c-.6.6-1.4.6-1.9,1.2l-7.7,3.2v-.6s9.2-3.7,9.2-3.7ZM107,87.6l10.4-4.4-.7.7c-3.2,1.5-6.5,2.8-9.8,4.2v-.5s0,0,0,0ZM107.1,80c-.3,0,0-.5-.1-.6l3.5-1.3.8.2v.2c-.1,0-4.1,1.5-4.1,1.5h0ZM108.1,77.6c-.3.1-1.8.7-1.9.6,0,0-.2-.2-.2-.2.8-.2,1.7-.9,2.6-.7,0,.2-.4.3-.5.4h0ZM106.7,76.8c-.3,0-1.2.5-1.3.5-.3,0-.4-.3-.6-.5.7-.2,1.3-.6,2-.2,0,.3,0,.2-.1.2h0ZM105.1,76c-.4,0-.9.6-1,0,.2,0,.4,0,.6,0s.4,0,.4.2h0ZM136,46.8v.4c-2.2.5-4.3,1.2-6.4,1.7-.1,0-.9.2-.9,0s.2-.2.3-.2c1.7-.6,4.2-1.2,5.9-1.6.3,0,.7-.2,1-.2ZM136,47.6v.4c0,0-5.4,1.4-5.4,1.4l.2-.3s5.2-1.4,5.2-1.4ZM136,62.3v.3c-1.7.5-3.2,1.2-4.9,1.6h0v-.2c0,0,4.9-1.8,4.9-1.8ZM135.3,50.2c-.1,0-.3,0-.3,0,.3-.1.7-.3,1-.3v.4h-.7ZM132,49.5l4-1v.3c-1.1.2-2.8,1-3.7.9,0,0-.3,0-.2-.2h0ZM136,49.1c.1.5-.4.5-.8.6-.3,0-.7.2-1,.2s-.5,0-.4-.2l2.2-.7h0ZM141.9,79.7c.1,0,.5.3.3.5-.5.4-1.6.7-2.2,1.1h-1.5s3.4-1.6,3.4-1.6h0ZM147.4,86.9l2.3-1.1c-.7.7-1.2,1.6-2.1,1.8l-.2-.7ZM148.3,87.9v.8c-.1,0-.7.3-.7.3-.1-.8.1-.8.7-1.1ZM147.2,86l-.3-.6c.5,0,2.8-1.5,3.1-1.4l.6.3-3.3,1.7ZM146.4,84.5c-.3,0-.4-.2-.6-.4.4-.2,2.7-1.5,2.9-1.4,0,0,.5.4.3.5-.1.1-2.4,1.3-2.6,1.3ZM145.4,83.6c-.2.1-.6-.4-.6-.5l3-1.5.4.6-2.9,1.4ZM146.7,81.5l-2.4,1.2c-.2,0-.6-.4-.5-.5.4,0,1.1-.6,1.3-.7.4,0,1.1,0,1.6,0h0ZM144.2,81.3l-1.2.6-.7-.4,1.1-.4c.3,0,.5.3.8.2h0ZM166.7,58.3c-7.9,3.1-15.7,6.3-23.6,9.3l-.4-.2,24.3-9.4-.2.3h0ZM165.5,57.8l-23.1,8.9v-.4s22.6-8.7,22.6-8.7h.5c0,.1,0,.1,0,.1ZM161.5,58c.7-.2,1.4-.6,2.1-.5l-21.3,8.1v-.4c.3-.1.7-.2,1-.3,6.1-2.3,12.1-4.8,18.2-7h0ZM142.3,64.4c0-.1,0-.2,0-.3.1-.2,2.9-1.1,3.4-1.2,4.9-1.9,10-4,15-5.7.3-.1.7-.3.9,0,0,0-19.4,7.3-19.4,7.3ZM142.3,62.8c0,0,1.1-.5,1.3-.6,2.2-.9,4.5-1.6,6.8-2.4,2.7-1,5.8-2.4,8.4-3.1.3,0,.6-.1,1,0l-1.7.7-15.7,5.7c0,0,0-.2,0-.3ZM142.4,62.5c-.2,0-.1-.3-.1-.3l16-5.7-15.9,6h0ZM156.2,56.1h.6s-14.5,5.4-14.5,5.4v-.5c4.6-1.6,9.2-3.3,13.9-4.9ZM155,55.8l-12.7,4.6.2-.3,11.8-4.2h.7c0,0,0-.1,0-.1ZM147.8,43.6c.3,0,.7,0,1,0l-6.5,1.8c0-.3.1-.3.4-.4,1.2-.4,3.9-1.2,5.1-1.4h0ZM150.6,43.6c.3,0,.6,0,.9,0l-9.3,2.6.2-.3c.9-.2,1.9-.4,2.8-.7,1.7-.5,3.7-1.2,5.4-1.5h0ZM153.9,43.6l-11.4,3.3h-.2s0-.3,0-.3l10.6-3h.9ZM156.3,43.6c0,.2-.2.2-.3.2-2.2.8-4.6,1.2-6.9,1.9-2.1.6-4.3,1.4-6.4,1.9-.1,0-.2,0-.4,0v-.4s13.1-3.7,13.1-3.7c0,0,.9,0,.9,0ZM158.3,43.6l-16,4.7v-.5c5-1.3,10.1-2.8,15.1-4.3h.9ZM159.9,43.6c.3,0,.6,0,.9,0,0,.2-.2.2-.3.2-.8.3-1.6.4-2.4.6-5.3,1.5-10.5,3.2-15.8,4.6v-.4c3.4-.9,6.8-2,10.2-3,.4-.1.9-.2,1.3-.3,1.9-.5,4.3-1.5,6.1-1.8h0ZM161.8,44.1l-19.4,5.7v-.4c6.4-1.8,12.7-3.7,19.1-5.5,0,0,.3.2.3.2ZM161.8,44.5h.4c0,.1-1,.6-1,.6l-18.9,5.6v-.4s19.5-5.8,19.5-5.8h0ZM162.8,45.2l-20.5,6.2.2-.3c6.7-2.1,13.3-4,20-6.1l.3.2ZM163,46l-19.7,6h-.6c.6-.3,1.3-.6,2-.8,5.8-1.8,11.9-3.8,17.8-5.5.4-.1,1.3-.3.6.2ZM163.6,46.1l.2.2c-1.5.6-3.2,1-4.8,1.5-1.8.6-3.7,1.2-5.5,1.7-2.9.9-5.8,1.9-8.8,2.8l-.2-.2,19-6h0ZM164.7,47.1l-1.3.5-15.9,5.1h-.6s0-.3,0-.3c.3,0,.6,0,.8-.2,5.4-1.7,10.9-3.7,16.3-5.3.3,0,.5-.2.7.1ZM164.4,47.9c.4-.1.9-.4,1.1.1-1.7.5-3.4,1-5.1,1.5-3.5,1.1-7.2,2.6-10.7,3.5-.3,0-.6.2-.9,0,0,0,1.2-.4,1.3-.5,4.6-1.6,9.6-3.3,14.2-4.7h0ZM166,48.4c0,.2-1,.3-1.1.5l-14.1,4.6c-.2,0-.5,0-.5-.3l15.4-5c0,0,.2.1.3.2ZM165.5,49.1c.4-.1.9-.4,1.2,0l-14.7,4.9c-.2-.2.8-.5.9-.6,4-1.5,8.5-3,12.6-4.3h0ZM167.1,49.6l.2.2-13.9,4.7.2-.3c4.5-1.5,8.9-3.1,13.4-4.6h0ZM167.8,50.2l.2.2-11.7,4.1h-.5s0-.1,0-.1l12-4.2h0ZM167.7,58.3c.2,0,.6-.1.5.2-1.2.2-2.3.8-3.4,1.3-6.7,2.7-13.5,5.4-20.3,8.1-.5.2-.6,0-.1-.3.5-.2,1.2-.5,1.8-.7,7.1-3,14.4-5.6,21.5-8.5h0ZM168.8,58.6h.6s-1.8.8-1.8.8c-6.9,2.7-13.7,5.6-20.6,8.2-.4.2-1.4.7-1.7.6-.1,0-.1,0-.1-.2l23.6-9.4h0ZM170.5,58.9c0,.3,0,.1-.2.2-7.8,3.2-15.5,6.4-23.3,9.6-.2,0-.5,0-.4-.3l23.9-9.5h0ZM171.7,59.3h.5s-23.8,9.9-23.8,9.9c-.2-.2,1-.6,1.1-.7,7.3-3.2,14.9-6,22.2-9.2h0ZM173.1,59.6c.2,0,.2,0,.4,0l-23.3,9.8c-.2,0-.5.1-.4-.2,2.2-.9,4.5-1.8,6.7-2.7,5.2-2.2,10.3-4.5,15.5-6.6.3-.1.9-.4,1.2-.5h0ZM174.2,59.8c.2.1-.4.3-.4.4-6.4,3-13.4,5.8-20,8.6-.5.2-2.4,1.1-2.7,1,0,0-.3,0-.2-.2l23.4-9.8h0ZM175.2,60h.4c0,.1-1,.6-1.1.7-7.2,3.2-14.5,6.1-21.7,9.3-.2,0-.3,0-.5,0s-.3,0-.3,0l23.2-10h0ZM176.6,60.3l-.2.2c-6.9,2.9-13.7,6.2-20.7,9.1-.5.2-1.8.8-2.3.8-.1,0-.3,0-.1-.2l23.2-9.9ZM177.5,60.6c.2,0,.3,0,.2.2l-21.7,9.6c-.4.1-.8.4-1.2.3.2-.2.6-.4.8-.5,6.1-2.9,12.7-5.7,18.9-8.3.7-.3,2.4-1.1,3-1.2h0ZM161.9,78.5c-.2.1-.6-.4-.6-.4l5.7-2.7h.6c0,0-5.7,3.2-5.7,3.2ZM169.2,75.9c.4,0,.3.3,0,.4l-6.2,3.3c-.2,0-.5-.3-.4-.4,0,0,6.7-3.3,6.7-3.3ZM165.2,75.1l-4.3,2.2c-.3.1-.4-.1-.6-.3l4.3-2.1c.2,0,.6,0,.6.2h0ZM159.8,76.4l-.5-.4c.1,0,.2,0,.3,0,.9-.4,2.3-1.3,3.1-1.5.2,0,.4,0,.6,0,0,.2,0,.2-.2.3-1,.6-2.4,1.1-3.4,1.7ZM161.4,74.4c-.7.6-2.1.9-2.9,1.5l-.5-.4,3.2-1.4c.3,0,.4.2.2.4h0ZM160,73.7c-.2.2-2.3,1.2-2.4,1.2-.2,0-.3-.3,0-.4.5-.2,1.6-.8,2.1-.9.2,0,.3,0,.5,0,0,.2,0,.2-.2.3h0ZM157.2,83.5c.2-.1.4.2.1.4-.2.1-1,.6-1.2.6,0,0-.3.1-.3,0,.6,0,1-.8,1.4-1h0ZM156.3,73.7c-.1,0-.6-.2-.5-.3.7-.2,1.3-.7,2.1-.6-.3.2-1.3.8-1.7.9h0ZM178.2,61h.4c0,0-1.8,1-1.8,1l-19.9,8.9c-.2,0-.8.3-.7,0l22.1-9.9h0ZM179.1,61.6c0,.2-.5.2-.6.4-6.9,2.8-13.6,6.5-20.4,9.2-.3,0-.8.4-1,0,.7-.2,1.4-.6,2.1-.9,6.3-2.9,12.6-5.9,19-8.6.2,0,.4-.1.6-.2,0,0,.2-.2.3,0ZM172.4,76.9h.6c0,0,0,.2-.2.3-.3.2-1,.6-1.4.8-2.5,1.4-5.2,2.7-7.7,4.2,0-.1,0-.5,0-.6l8.7-4.6h0ZM199.8,53.8c.1,0,.4.2.4.3l-13.2,6.1-.2-.2,13-6.1h0ZM202.5,56.3l-8.3,4.1c-.2,0-.7.2-.8,0l8.7-4.2h.4ZM202.8,56.7c.7.3,0,.3-.3.6l-7.3,3.6-.2-.3,7.9-3.9h0ZM203.9,57.7l-7.9,4-.2-.2,7.9-4,.2.3ZM204.5,58.4l.2.3c-.5.1-.9.4-1.3.6-2,1-4.1,2.3-6.1,3.2-.3.1-.4.2-.6,0l7.8-4h0ZM197.5,63.1l7.4-3.9c.1,0,.4,0,.4,0,0,.1-.6.4-.8.5-2.1,1.2-4.4,2.2-6.5,3.5-.2.1-.6.2-.6-.2h0ZM220.5,74.4l-3.4,2.6c-.3,0-.5-.3-.2-.4.5-.2,3.1-2.5,3.3-2.5s.3.3.3.4h0ZM217.3,82.3h0s0,0,0,0ZM220,79.9l1.2-1.2-1.4,1.1-.3-.4c.5-.2,3.2-2.7,3.5-2.7.1,0,.4.3.2.4l-.4.3h.1s-2.8,2.4-2.8,2.4h0ZM223.7,100.3c0-.3,0-.5.1-.7.2-.2.4-.4.6-.7v.7c0,0-.7.7-.7.7h0ZM223.7,101l1.3-1.3h.8s-2,2.2-2,2.2c0-.2-.1-.8,0-.9ZM223.7,94.4c0-.4,1.8-1.6,2.1-2.1h.4s-2.5,2.6-2.5,2.6c0-.2,0-.3,0-.5ZM223.7,93.4c-.3-.5.8-1.6,1.3-1.5v.2c0,0-1.2,1.3-1.2,1.3h0ZM220.4,83.1v-.6c0,0,4.6-3.7,4.6-3.7l.2.2s-4.8,4-4.8,4ZM220.4,81.9v-.7c.1,0,3.9-3,3.9-3l.2.2-4.2,3.5ZM223.8,78l-3.5,2.8v-.5s3.3-2.7,3.3-2.7c.2,0,.4.3.1.4h0ZM221.8,76.5c-.9.8-2,1.5-2.9,2.3-.3,0-.5-.3-.2-.4l3.3-2.5c.4.2,0,.4-.2.6h0ZM217.8,77.9l-.3-.3,3.5-2.6c.1,0,.3.2.2.4l-3.4,2.6ZM219.5,73.7l-3.7,2.7c-.1.2-.8,0-.7-.1l4.2-3c.3,0,.5.3.2.4h0ZM219,72.8l-4.1,3.1h-.2s-.4-.4-.4-.4l4.3-3,.4.3h0ZM218.1,72c-1.4,1.1-2.8,2.1-4.2,3.1l-.4-.3,4.3-3.1.3.3h0ZM217.1,71l-4.5,3.1h-.5c0,0,.2-.4.2-.4l4.3-2.9h.3s.3.3.3.3h0ZM210.4,73.9h-1.1c0,0,6.1-4.1,6.1-4.1.2-.1.4,0,.5.2,0,.1-.4.4-.5.4-1.7,1.2-3.4,2.3-5.1,3.5ZM214.7,69.1l-6,3.9-.2-.6,5.7-3.7h.6c0,0-.1.3-.1.3h0ZM212.7,68.3l-4.8,3.4h-.2s-.4-.3-.4-.3l4.9-3.1h.5c0,0,0,0,0,0ZM211.2,68.3l-4.1,2.7c-.2.1-.5-.3-.5-.4.1,0,.2,0,.3-.1.8-.6,3-2.1,3.9-2.4.2,0,.3,0,.5,0l-.2.3h0ZM207.8,62.9c-.6.2-4.4,2.6-4.6,2.6,0,0-.2-.2-.1-.3l5.1-2.9c.1,0,.3,0,.3,0,0,.2-.6.4-.7.5h0ZM204.6,65.5c.8-.3,1.4-.8,2.1-1.2.6-.3,1.6-1,2.2-1.3.2,0,.2-.1.3,0l-4.3,2.6c-.2,0-.3,0-.3-.3h0ZM207.4,62c-1.8,1.1-3.6,2-5.4,3h-.7c.3-.2.7-.4,1.1-.6,1.5-.8,3.2-1.9,4.7-2.6.2,0,.6-.4.7,0,0,.1-.3.3-.4.3h0ZM207.2,61.1l-6.6,3.7c0,.1-.8.1-.5-.1l6.8-3.8.3.2h0ZM207.4,48.9c-.1.1-.4-.2-.4-.3.8-.2,1.6-.8,2.4-.9-.4.7-1.4.7-2,1.2h0ZM209.8,63.7l.2.2-3.4,2c-.2,0-.5.2-.5-.1,0,0,3.7-2.1,3.7-2.1ZM210.3,64.2l.2.2-3,1.7h-.6c1-.7,2.2-1.3,3.3-2ZM207.9,66.3l2.8-1.6.3.2c-.6.2-2.3,1.6-2.9,1.6,0,0-.2,0-.2-.1h0ZM206.8,84.6c0,.2,0,.2-.1.2-.3.2-.5.3-.9.2l.6-.6.4.2h0ZM206.9,70c-.5.3-.7.5-1.2.2l4.3-2.6c0,.2,0,.3-.2.5-.5.5-2.2,1.5-2.9,1.9h0ZM205.5,83.4l.3.3-1.1.8h-.6c-.1-.2,1.2-1,1.3-1.1h0ZM202.8,84l1.9-1.4c.2,0,.4.4.4.5-.8.2-1.5,1.6-2.3.9ZM204.2,82.1c-.4.3-2.2,1.7-2.5,1.7-.4,0-.4-.2-.2-.5.2-.1,1.5-1.2,1.7-1.2.3-.1.7,0,1,0h0ZM201.4,81.9l-1.1.8c-.1,0-.6-.3-.5-.4.6-.4.8-.5,1.6-.4h0ZM206.1,60.8c-2.2,1.3-4.6,2.3-6.7,3.7h-.6c0,0,.2-.1.3-.2,2.3-1.4,4.9-2.5,7.2-3.9.1-.1.3,0,.3,0,0,.2-.3.3-.4.4h0ZM199.5,81.3c-.7.5-1.1.9-1.9.6l1.4-1c.2,0,.4.3.6.4ZM198,63.7l7.7-4.1.2.2-7.6,4.1c-.1.1-.4-.2-.4-.2ZM207.5,46c-.6,0-1.6.8-2.1.9-.2,0-.2-.1-.3-.2l2.2-1h.1s0,.3,0,.3ZM209.8,45.5c-.9.4-1.8.9-2.7,1.3-.3.2-.9.4-1.3.5-.1,0-.3.1-.3,0,0-.3,3.8-1.7,4.2-1.9,0,0,0,.2,0,.2ZM212.5,45.3c.3,0,.5-.2.7-.1-.4.4-1,.6-1.5.8-1.5.7-3.3,1.6-4.8,2.1-.5.2-1,.1-.3-.2,1.5-.8,4.2-2,5.8-2.5h0ZM218.7,43.7c0,0-.9.5-1.1.6-1.8.9-3.7,1.6-5.5,2.5h-.7c.3-.2.8-.4,1.2-.6,1.8-.8,3.9-1.8,5.7-2.5,0,0,.3-.2.3,0ZM218.6,54.4c.8-.3,1.6-1.1,2.5-1.1-.7.7-1.8,1-2.6,1.6v-.4h0ZM221.6,53.6h.4s-4.4,2.5-4.4,2.5c1-1.2,2.7-1.7,4-2.5h0ZM222.8,53.9h.5s-7,4-7,4v-.3c2.1-1.2,4.3-2.5,6.5-3.7h0ZM224,54.2h.5c0,0-.2.1-.2.2-2.1,1.3-4.6,2.7-6.8,3.9-.2,0-.3.5-.6.1l7.2-4.2h0ZM225.4,54.5c.1,0,.3,0,.4,0l-.2.3-7.8,4.5h-.3s1.3-.9,1.3-.9c1.2-.6,2.3-1.3,3.4-2,.8-.5,2.3-1.5,3.1-1.8h0ZM226.6,54.7l-8.3,5.1-.3-.2c.1,0,.2,0,.3-.1,2.3-1.5,4.9-3.2,7.3-4.5.3-.2.6-.4,1-.3ZM226.7,55c0,.2,0,.2-.2.4-.2.2-.8.5-1.1.7-1.9,1.2-4.2,2.6-6.2,3.7-.1,0-.7.4-.8.4v-.2c0,0,.2-.3.3-.3l7.8-4.7h0ZM226.5,92.6c0-.2.7-.1.6.1l-3.4,3.5v-.9c0,0,2.8-2.7,2.8-2.7h0ZM227.6,92.8c.1,0,.2,0,.3,0l-3.2,3.3c-.2,0-.3,0-.5,0,1-1,3-3.3,3.4-3.4h0ZM229.1,93.2l-2.7,2.7c-.2,0-.5,0-.7,0h0c1.3-1.3,2.7-2.8,2.9-2.9.1,0,.3,0,.4,0ZM229.7,93.5h.4s-2.2,2.4-2.2,2.4c-.2,0-.4,0-.5,0l2.3-2.4h0ZM230.6,93.9c.2-.2.3,0,.5,0l-1.7,1.9c-.1,0-.3,0-.7,0l1.9-1.9h0ZM231.9,94.2c0,0,.6,0,.5.2l-2.2,2.3c-.1-.2-.2-.3-.3-.4.7-.7,1.3-1.4,2-2.1h0ZM232.6,95.2c.3-.3.6-.8,1.1-.6l-.3.6c-.8.8-1.6,1.7-2.4,2.6-.1-.2-.2-.3-.4-.5.7-.7,1.3-1.4,2-2.1h0ZM262.3,71.7h-.4c.3-.4,2.6-3.4,2.8-3.3,0,0,.2.2.1.3l-2.5,3h0ZM260.8,71.7l2.1-2.6.7-.3c-.3.4-.6.8-.9,1.2-.2.2-1.2,1.4-1.3,1.5-.2.1-.3.1-.5,0ZM260.5,71.6h-.6c0,0,2.1-2.4,2.1-2.4h.5c-.6.8-1.3,1.6-2,2.4h0ZM258.8,71.7l2.1-2.4h.6c0,0-2.1,2.4-2.1,2.4,0,0-.6,0-.6,0ZM257.6,71.7s.1-.3.2-.3c.2-.3,1.7-2,1.9-2.1.2-.1.4,0,.6,0l-2.1,2.4s-.6,0-.6,0ZM256.6,71.7l2.1-2.6h.6c0,0-2.1,2.5-2.1,2.5,0,0-.6,0-.6,0ZM255.8,71.6h-.6c0,0,2.6-2.9,2.6-2.9l.4.2c.1.2-2.3,2.4-2.4,2.7h0ZM254.1,71.6h-.7c0,0,.3-.3.3-.4.7-.8,1.6-1.7,2.5-2.4.3-.2.6-.5,1-.8,0,0-.4.6-.4.6-.9,1-1.9,1.9-2.7,2.9h0ZM252.3,71.6h-.5c0,0,2.2-2.3,2.2-2.3h.6c0,0-2.3,2.3-2.3,2.3h0ZM250.7,71.6h-.6c0,0,2.3-2.3,2.3-2.3.2-.1.5,0,.7,0l-2.4,2.4h0ZM248.7,71.6h-.6c.4-.3,2.5-2.6,2.7-2.7.1,0,.3,0,.4,0l-2.5,2.6h0ZM246.7,71.3c-.4.3-.6.5-1.1.4l2.5-2.4,1-.4c-.8.7-1.5,1.8-2.4,2.4h0ZM243.9,71.7c.4-.4,2.3-2.4,2.6-2.5.2,0,.4,0,.6,0l-2.6,2.4s-.6,0-.6,0ZM242.5,71.7l2.5-2.4h.7c0,0-2.5,2.3-2.5,2.3h-.7ZM240.2,71.7c.6-.6,1.3-1.1,1.9-1.7.5-.4.9-.8,1.3-1.2l.4.2-3,2.7h-.6ZM239,71.6c-.1,0-.7.2-.7,0,.9-.6,1.7-1.6,2.6-2.3.6-.4,1-.5,1.6-1.1.3-.3.5-.2.2.1l-3.7,3.3h0ZM237.2,71.6c.4-.3.7-.6,1.1-.9.6-.5,1.2-.9,1.7-1.5h.5c-.4.3-.7.7-1.1,1-.3.2-1.5,1.3-1.7,1.4-.1,0-.4.1-.5,0ZM223.9,115.5c-.2.3-.6.2-.9.2l12.8-15.2c.4-.1.7-.3,1-.4-4.2,5.2-8.7,10.2-13,15.4h0ZM221.4,115.6h-.7c0-.1,0-.2.1-.3,1.1-1.4,2.3-2.6,3.4-3.9,2.9-3.3,5.8-6.7,8.7-10,.3,0,.6-.2,1-.3-4.2,4.9-8.4,9.6-12.6,14.5h0ZM220.3,115.6c-.2.1-.4,0-.7,0,0,0,.2-.3.2-.3,1.5-2,3.6-4,5.2-5.9,2.3-2.6,4.6-5.2,6.9-7.9.1,0,.3,0,.6,0-3.6,4.2-7.2,8.5-10.9,12.6-.2.2-1.2,1.4-1.3,1.4h0ZM219.9,114.6c-.5.6-.7,1.2-1.6,1,4.2-4.8,8.4-9.5,12.6-14.3.2,0,.4,0,.6.1-3.8,4.4-7.6,8.8-11.6,13.2h0ZM217.4,115.6h-.8c0,0,0-.1.1-.2.4-.5,1-1.1,1.5-1.6,3.7-4.2,7.4-8.5,11.2-12.7,0,0,.4,0,.7.1l-12.8,14.3h0ZM214.3,115.2c-.1-.1.6-.9.7-1,4.1-4.6,8.4-9.3,12.7-13.8l.6.3c-4.2,4.6-8.3,9.3-12.6,13.8-.4.4-.8,1-1.4.7h0ZM213.4,114.8l-.6-.2c0,0,.2-.3.2-.4.3-.4.9-1,1.3-1.4,4-4.3,8.1-8.6,12.2-12.9l.6.3-13.7,14.7h0ZM211.4,114.1c0-.1,0-.2,0-.2.1-.2.6-.7.8-.9,2.8-3,5.8-5.9,8.6-9h.9c0,0-9.8,10.2-9.8,10.2,0,0-.6-.1-.6-.1ZM210.8,113.7h-.5l.3-.6c2.8-2.9,5.7-5.8,8.6-8.7.4-.4.3-.6,1.1-.5l-9.5,9.8h0ZM209,113.2c1.5-1.7,3.1-3.2,4.7-4.8,1.4-1.5,2.9-3,4.3-4.4h.8c0,0-.2.3-.2.3l-8.7,8.9c-.3.3-.5.3-.9,0ZM208.6,111.8c2.5-2.7,5.2-5.2,7.8-7.8h.7c0,0-9,8.9-9,8.9-.8,0,.3-.8.6-1.1ZM206.6,112.4l8.6-8.5h.9s-8.7,8.6-8.7,8.6c0,0-.8,0-.8,0ZM206.1,112.2l-.4-.2,8.1-8.1h.9c0,0-8.6,8.2-8.6,8.2h0ZM204.9,111.7c0,.2-.6,0-.6-.2l7.7-7.6h.9c0,0-8,7.7-8,7.7h0ZM203,110.9h-.7c0,0,.3-.5.4-.6,2-2,4.2-3.8,6.2-5.8l1.3-.5-7.2,6.8h0ZM200.8,110.2l5.9-5.6h1c0,0-6.4,5.8-6.4,5.8h-.2s-.3-.2-.3-.2ZM200.3,110c-.2.2-.5,0-.7,0,0-.1.7-.8.8-.9,1.6-1.5,3.3-3,5-4.5h.9s-6,5.5-6,5.5h0ZM198.6,109.3c-.2.2-.5.1-.7,0,0,0,.6-.6.7-.7,1.4-1.3,3-2.9,4.4-4,.4-.3.7-.6,1.2-.1l-5.5,4.8h0ZM196.9,108.9c-.2.1-.5,0-.6-.2l5.9-5.2.4.3-5.7,5.1h0ZM195.4,107.9l.4-1.2c1.7-1.2,3.3-3.1,4.9-4.2,0,0,.2-.2.4-.2l.4.4s-6.1,5.2-6.1,5.2ZM195.7,81.8c-.2,0-1,.1-1,0l3.2-2.1.4.4-2.6,1.7h0ZM192.1,81.2c0,0,.2-.2.3-.3.3-.2,2.1-1.5,2.3-1.5.4-.1.8,0,1.2,0l-3,2s-.8-.1-.8-.1ZM191,81c-.2-.1,0-.4,0-.5.2-.2,1.9-1.3,2.1-1.4.3,0,.7.2,1,.1l-2.6,1.7c-.1,0-.4.1-.5,0h0ZM190.5,79.8c0-.3,1.6-1.1,1.9-1.4l.5.4-2,1.3s-.3-.3-.3-.3ZM190.4,60.4l10.7-5.1c.1,0,.3,0,.4,0,0,.2-.2.2-.3.2-3.1,1.8-6.8,3-10,4.8-.2,0-.4,0-.6,0,0,0-.3,0-.3,0ZM188.4,60.4l12.3-5.8.2.2-11.5,5.5c-.2,0-.4.1-.6.2,0,0-.5,0-.5,0ZM182.9,115.6h-.5s4.4-3.8,4.4-3.8h.6c0,0-4.5,3.7-4.5,3.7h0ZM181.5,115.4c-.3.2-.4.3-.8.2.8-.8,1.7-1.5,2.6-2.2.8-.6,1.5-1.3,2.3-2h.5c-.2.3-.4.5-.6.7-1.1,1-2.7,2.4-3.8,3.2h0ZM179.6,115.6h-.6c1-.7,1.9-1.6,2.8-2.3.9-.8,1.9-1.5,2.8-2.3l.4.2-5.4,4.5h0ZM177.7,115.5h-.7c0,0,5.5-4.4,5.5-4.4h.6c0,0-5.3,4.4-5.3,4.4h0ZM175.5,115.6c0,0-.5,0-.5,0l5.6-4.4h.8c0,0-5.5,4.4-5.5,4.4-.1,0-.2,0-.4,0h0ZM167.2,92.1l5.4-3.3v.4s-5.6,3.4-5.6,3.4c0-.2,0-.4.2-.5ZM168.4,99.6v.4c-.1,0-1.4.8-1.4.8-.4-.6,1.2-1.4,1.4-1.2ZM169.4,99.9c.1,0,.3,0,.4,0,0,.2,0,.2-.2.3-.8.7-2,1.2-2.7,1.9h-.1c.3-.3.3-.6.3-.9.6-.1,1.9-1.4,2.3-1.4h0ZM166.6,91.6l6.1-3.6c0,.4-.2.4-.4.6-1.4,1-3.4,2.1-4.9,3-.2,0-.4.2-.5.3,0,0-.2-.2-.2-.2ZM166.7,91.1c-.2,0-.5.3-.6,0l6.6-4c0,.2,0,.4-.2.5-2,1-3.8,2.4-5.8,3.5h0ZM165.2,90.6h-.8c0,0,11.4-6.7,11.4-6.7-.3.3-.6.7-.9,1-1.1.8-2.8,1.7-4,2.4-1.8,1.1-3.8,2.1-5.6,3.3ZM163.7,103.5c.4-.3,1-.2,1.5-.2l-1.4,1v-.8s0,0,0,0ZM163.7,89.7v-.5s15.5-8.9,15.5-8.9l-.2.3c-4.6,2.9-9.3,5.7-14,8.4-.4.2-.9.5-1.3.7h0ZM173,115.3l5.2-4.1h.8c0-.1-5.6,4.4-5.6,4.4-.2.1-.3-.2-.5-.3ZM172.1,113.9c1-1,2.6-1.8,3.6-2.8h.8c0,0-4.3,3.3-4.3,3.3-.4-.1-.5-.3-.2-.6ZM171.6,113.9l-.2-.2,3.2-2.5h.6c0,0-3.4,2.7-3.4,2.7h-.1ZM170.3,112.6l2.4-1.8.5.3-2.4,1.8s-.4-.4-.4-.4ZM169.6,111.8l-.4-.4,2.3-1.8.5.4-2.4,1.8h0ZM168.9,111c-.1.1-.5-.3-.5-.3l3.2-2.2v.6c0,0-2.7,1.9-2.7,1.9h0ZM167.8,110.1c-.2-.1-.5-.3-.2-.6l3.9-2.8v.7c0,0-3.7,2.6-3.7,2.6h0ZM166.9,109.2l-.4-.4,4.9-3.6c0,.2,0,.6,0,.7l-4.4,3.2h-.2s0,0,0,0ZM165.5,107.8l6-4.1v.6c-1.9,1.2-3.7,2.7-5.6,3.9l-.4-.4ZM164.7,107l-.4-.4,7.1-4.9c.2,0,.2.5.1.5l-6.7,4.7h-.2s0,0,0,0ZM170.7,101.1l-7,4.9v-.9c0,0,6.8-4.5,6.8-4.5.7-.2.7.2.2.5h0ZM163.7,87.6l15.4-8.7h.4c0,0-15.7,9.2-15.7,9.2-.2,0-.1-.4-.1-.5ZM163.7,86.3c0-.6,0-.7.5-.9,4-2.5,8.7-4.5,12.8-7.1h.6c0,0-13.8,8-13.8,8h0ZM163.8,84.5c-.2,0-.1-.6-.1-.6l11.2-6.1h.7c0,0-11.8,6.7-11.8,6.7h0ZM163.7,82.5l9.8-5.2c.3-.2.5-.2.8,0l-10.4,5.9c-.2,0-.1-.6-.1-.6ZM163.6,80.4l-.2-.4,7.3-3.7h.5c.1.1-.5.5-.6.5-1.7,1-3.6,2-5.4,2.9-.2.1-1.6.8-1.7.8h0ZM161.7,115.5c.5-.1,1.1-1.2,1.6-.6,0,.1-.6.6-.7.7-.2,0-.8.1-.8,0ZM159.2,115.6l2.7-2,.5.4-2,1.6h-1.1ZM158.2,115.6h-1.1c0,0,3.8-2.7,3.8-2.7.3-.2.4.2.6.3l-3.3,2.4h0ZM155.7,115.6h-1.2c0,0,5.5-3.9,5.5-3.9l.5.5-4.8,3.4h0ZM152.6,115.6h-1.2c0,0,7.3-5.1,7.3-5.1h.2l.4.4-6.7,4.7h0ZM148.6,115.6c-.1,0-.2,0-.2,0l9.1-6.2c.3-.1.4.2.6.4,0,.1-.3.3-.4.4-2.6,1.9-5.4,3.6-8,5.4-.3,0-.8,0-1.1,0h0ZM145.9,115.6c-.1,0-.3,0-.2,0l11.8-7.8v.9c0,0-10.3,6.9-10.3,6.9-.3.2-.8.1-1.2.1h0ZM145.1,115.6h-1.2c0,0,13.6-9,13.6-9,0,.3.1.7-.2.9l-12.2,8.1h0ZM141.2,115.5l16.3-10.6v.8c-4.7,2.9-9.1,6-13.7,8.9-.9.6-1.2,1-2.4.9-.1,0-.3,0-.2,0ZM140.1,115.6h-.6s.8-.5.8-.5l17.2-11.1v.5s-17.3,11.2-17.3,11.2h0ZM138.6,115.6c-.3.1-.8,0-.8-.3l18.4-11.8c.4-.3.9-.2,1.4-.2,0,.1-.2.2-.3.3-1.2.9-2.9,1.9-4.3,2.8-4.8,3.1-9.6,6.1-14.4,9.2h0ZM136,114.7c6.3-4.1,12.6-8.1,19-11.9l.3.4-18.8,11.7s-.5-.2-.5-.2ZM135.8,113.9c-.4.2-1,.7-1.3.1l15.9-9.9h1.1c0,0-.3.2-.3.2-5.2,3-10.2,6.7-15.5,9.6h0ZM136,65.1c0,.4,0,.4-.4.4s-.5,0-.5-.2l.9-.3h0ZM135.9,64.9c-.1.1-1.7.7-1.8.2l1.9-.6c0,.2,0,.2,0,.3h0ZM134,64.5c-.3,0-.9.3-1.1.4,0,0-.6,0-.6-.2l3.7-1.3c0,.1,0,.3,0,.4,0,0-1.6.6-1.9.7h0ZM129.9,115.6c-.2,0-.4,0-.6,0,0-.1.2-.2.3-.3.6-.4,1.6-1,2.2-1.3.2-.1.4-.2.7-.2,0,.2-.2.2-.3.3-.3.2-1.8,1.2-2.2,1.3h0ZM127.4,115.6c-.1,0-.3,0-.3,0l3.7-2.2c.8,0,.6.2.1.5-.6.4-2.2,1.5-2.8,1.7-.2,0-.5,0-.7,0h0ZM125.4,115.6c-.1,0-.3,0-.3,0l4.9-2.7c.6.3,0,.4-.2.6-1.1.7-2.3,1.4-3.4,2.2-.3.1-.6,0-.9,0h0ZM122.9,115.5l5.6-3.3h.6c0,.1-5.1,3.3-5.1,3.3-.2.1-.5,0-.8,0-.1,0-.3,0-.3,0ZM121,115.6c-.1,0-.3,0-.3,0l6.6-3.8c.3-.2.5,0,.7.1l-6.1,3.7c-.3.1-.6,0-.9,0h0ZM119.5,115.6h-1.4s.2,0,.3-.1c2.2-1.3,4.7-2.8,6.9-3.9.3-.1,1.1-.7,1.3-.2,0,.1-.6.5-.7.6-2,1.3-4.2,2.4-6.3,3.7h0ZM115.4,115.6l8.7-4.9h1c0,0-8.5,4.9-8.5,4.9-.3.1-.6,0-.9,0-.1,0-.3,0-.3,0ZM113.5,115.6h-1.3c0,0,8.8-4.9,8.8-4.9h1.1c0-.1-8.6,4.9-8.6,4.9h0ZM109.8,115.6c-.1,0-.3,0-.3,0l9-4.9h1.2c0,0-8.8,4.9-8.8,4.9-.3.1-.7,0-1,0h0ZM107.2,115.6l9.1-4.9h1.1c0,0-8.9,4.9-8.9,4.9-.3.1-.6,0-.9,0-.1,0-.3,0-.3,0ZM104.5,115.6l10.7-5.8c.3-.2.4,0,.6.3l-9.9,5.5h-1.4ZM103.5,115.6h-1.4s12.9-6.9,12.9-6.9v.6c0,0-11.4,6.3-11.4,6.3h0ZM99.7,115.6l15.2-8.1v.6c-4.6,2.5-9.3,4.9-13.9,7.4h-1.3ZM97.3,115.6c-.1,0-.3,0-.3,0l18-9.3v.6c0,0-16.7,8.8-16.7,8.8-.3.1-.6,0-.9,0h0ZM94.8,115.6c-.1,0-.3,0-.3,0l19.7-10.2.5.2c-1.1.7-2.3,1.4-3.5,2-5.1,2.7-10.3,5.3-15.4,8-.3.1-.6,0-.9,0h0ZM91.8,115.5l20.9-10.7c.2,0,.5,0,.6.2l-20.2,10.5c-.3.1-.7,0-1,0-.1,0-.3,0-.3,0ZM90.3,115.7h-1.3s12.9-6.6,12.9-6.6l9.8-4.8.4.2c-7.1,3.9-14.5,7.4-21.7,11.2h0ZM87.2,115.6h-1.3s24.4-12.2,24.4-12.2l.3.2c-7.7,4.2-15.6,8-23.4,12h0ZM82.7,115.5l25.8-12.7c.3,0,.5,0,.7.2l-25.2,12.6c-.3,0-.7,0-1,0-.1,0-.3,0-.3,0ZM81.6,115.6h-1.4s26.1-12.8,26.1-12.8h.4c0,0,.8,0,.8,0l-25.9,12.8h0ZM78,115.6h-1c0,0,26.3-12.9,26.3-12.9h1.3c-.2.2-.7.4-1,.6-8.5,4.2-17.1,8.3-25.7,12.3h0ZM75.3,115.6h-1.2c.3-.2.8-.4,1.1-.6,8.4-4.1,17-8,25.4-12.1h1.4c0,0-26.7,12.7-26.7,12.7h0ZM72.2,115.2c-.5.2-1.1.6-1.5.2,9-4.5,18.3-8.7,27.4-13,.3-.2.5.1.7.4-.1,0-.2,0-.3,0-4.8,2.3-9.6,4.6-14.4,6.9-3.9,1.8-7.9,3.9-11.8,5.5h0ZM70.1,114.7c-.3.2-.6.1-.9-.1,1.7-.9,3.4-1.8,5.1-2.6,1.8-.8,3.6-1.6,5.3-2.5,4.4-2.2,9-4.1,13.5-6.1.2,0,.5,0,.7,0,.1,0,.3,0,.3,0l-24.1,11.2h0ZM69.2,113.9c-.3.1-.6.2-.9-.1l6.6-3.1h.6c0,0,.8,0,.8,0-.4.1-.8.3-1.1.4-1.9.9-4.1,2.1-6,2.8h0ZM69.2,63.2l-1,.4c-8.4,1.8-16.8,4.9-25.3,6.6-.2,0-.7.4-.7,0l26.9-6.9h0ZM43.1,72.6c.2,0,.4,0,.6,0s.4,0,.4.2c-.3,0-.9.5-1,0h0ZM46.1,73.6c-.6,0-1.4.7-1.9.1,0,0,1.7-.7,1.9-.1ZM52.5,89.6l-.6-.2,5.5-1.8v.4c-1.6.5-3.2,1.1-4.9,1.6ZM57.4,88.5v.5c-1.3.3-2.5.9-3.8,1.3-.3.1-.6.2-.7-.3l4.4-1.5ZM57.3,86.4c-2.3.7-4.6,1.6-7,2.3v-.4s7-2.3,7-2.3v.5c0,0,0,0,0,0ZM50.4,87.4c0-.5.1-.5.5-.7l7.5-2.4-.7.7-7.4,2.5h0ZM50.4,81.5l7.8-2.4h.6c0,0-8.3,2.8-8.3,2.8v-.4h0ZM56.9,78.3c0,.2,0,.2-.1.2-2.1.6-4.2,1.3-6.3,1.9,0-.1,0-.3,0-.4.2-.3,5.1-1.5,5.8-1.8h.7c0,0,0,0,0,0ZM50.4,83l9.6-3.1h.6c0,.2-.2.3-.3.3-2.8,1-6,2-8.8,2.8-.3,0-.7.2-1,.3v-.4s0,0,0,0ZM50.4,84.6l11.3-3.5-.5.4c-3.3,1-6.6,2.2-10,3.3-.1,0-.8.3-.9.2v-.4h0ZM50.4,85.9l9.4-3.1c-.2.4-.7.5-1.1.7-2.4.9-5.2,1.8-7.7,2.5-.1,0-.7.2-.7.2v-.3s0,0,0,0ZM50.4,79l-.4-.3c.8-.2,1.6-.4,2.4-.7.4-.1,1.8-.7,2.1-.6.1,0,.3.1.4.2l-4.5,1.4h0ZM49.5,78.1c-.2,0-.4-.2-.5-.4.2,0,.4,0,.5,0,.9-.3,2.3-.9,3.2-1,.2,0,.4.1.6.1,0,0-3.8,1.3-3.8,1.3ZM48.3,76.9c0,0-.3-.2-.2-.3,1-.1,2.1-.7,3-.8.1,0,.2,0,.4,0,0,.3,0,.1-.2.2-.4.2-2.6.9-2.9.8ZM47.4,76c-.2,0-.3-.2-.4-.3.9,0,1.9-.8,2.8-.4l-2.4.8ZM48.3,74.6c-.7-.1-1.6.8-2.1.2,0,0,1.4-.5,1.5-.5.1,0,.8,0,.6.3h0ZM62.4,115.1l-.4-.3,2.8-1.2.2.2-2.7,1.3h0ZM61.4,113.9c-.2,0-.4,0-.5-.3.7-.2,1.6-.8,2.2-1,.2,0,.3,0,.4,0l-.6.4-1.6.8h0ZM59.6,112.3c.4,0,2.1-1.1,2.3-.7,0,.2,0,.2-.2.3-.5.3-1.2.5-1.7.8,0,0-.4-.4-.4-.4ZM58.9,111.5l-.5-.4c.4,0,1.9-1,2-.4,0,.2-1.3.7-1.6.8h0ZM57.5,110.2c.6-.2,1.1-.7,1.8-.4l-1.4.7-.4-.3ZM57.9,109.1c-.6.2-1.2.8-1.5,0l.9-.3.6.4h0ZM56.3,108c-.6.2-.9.5-1.1-.3.4-.1.8-.2,1.1.3ZM52.7,119.2c-.1,0-.3,0-.3,0l3.1-1.4.4.3c-1.1.4-2,1.2-3.2,1.2h0ZM48.8,119.2c-.1,0-.3,0-.3,0l5.8-2.6.4.3c-.6.3-1.2.6-1.9.9-1.1.5-2.9,1.5-4,1.4h0ZM45,119.2h-.9c0,0,9.1-3.9,9.1-3.9l.3.3c0,.2,0,.1-.2.2-2.8,1.2-5.4,2.6-8.3,3.5h0ZM41.5,119.2h-1.5s11.8-5.2,11.8-5.2c.1,0,.5.4.5.4l-10.8,4.7h0ZM37.9,119.2h-1.3s14.3-6.2,14.3-6.2c0,0,.5.4.3.5l-13.3,5.7h0ZM34.1,119.2h-1.7s17.3-7.3,17.3-7.3c.1,0,.6.5.5.6l-16.1,6.8h0ZM27.9,119.2l20.5-8.6c.1,0,.6.5.5.6l-19.2,8h-1.8ZM22.7,119.2l24.3-10c.1,0,.6.6.6.6l-23.1,9.4s-1.8,0-1.8,0ZM21.4,118.3c.1,0,.3,0,.4,0,7.9-3.1,15.7-6.7,23.6-9.6.6-.2.9-.4,1.2.1l-24.7,10.1-.6-.5ZM20.1,116.8l24.7-9.8c.3,0,.4.3.6.4,0,.2,0,.1-.2.2-1.7.6-3.4,1.4-5.1,2.1-6.4,2.6-12.9,5.1-19.3,7.7-.4.2-.8-.1-.7-.5ZM19.8,115.6c-.7.2-.9.3-1.4-.3l25.7-10c0,.3.1.6-.2.8l-24.1,9.6h0ZM17.8,114.4c-.3,0-.4-.3-.6-.5l27-10.4c0,.2,0,.6-.2.7l-26.2,10.2h0ZM16.3,113l27.9-10.6v.7c0,0-27.2,10.3-27.2,10.3-.2.1-.7-.5-.7-.5ZM15.9,112.4c-.2.2-.7-.4-.6-.5,1.8-.6,3.5-1.6,5.3-1.8,1-.1,1.8-.6,2.6-1.2l18.6-7c.3,0,.5.5.9.4,0,.1-.3.2-.4.2-8.7,3.5-17.6,6.6-26.4,9.9h0ZM14.5,111l-.6-.5c0,0,1.5-.7,1.7-.7s.9.2,1.1.2c0,0,.2,0,.2.1l-2.4.8h0ZM14.6,109.3c-.3,0-1.7.7-1.7.2.3-.3.6-.7,1.1-.8l.6.5h0ZM4,116.2c0-2.5,2-4.5,4.5-4.5s4.5,2,4.5,4.5-2,4.5-4.5,4.5-4.5-2-4.5-4.5ZM3.2,79.8v-.4c0,0,2.5-.6,2.5-.6-.5.8-1.7.6-2.5,1ZM4.4,80.1c-.2.5-.7.5-1.2.6v-.4l1.2-.2h0ZM3.3,79.2v-.3c.7,0,1.3-.4,2-.5.2,0,.2-.1.4,0-.7.4-1.6.4-2.4.7h0ZM3.4,77.2h-.2v-.4c.6,0,1.2-.2,1.7-.4,0,0,0,0,0,0-.6.1-1.2.1-1.8.4v-.4s2.5-.6,2.5-.6l.5.3c-.2,0-.5,0-.7.1-.2,0-.4.2-.5.2.2,0,.5,0,.8,0,.3,0,.7-.5,1,0l-1.3.2.2.4-2.4.7v-.3c0,0,.2,0,.2,0h0ZM3.2,75.7l1.8-.4.4.2c-.7,0-1.4.5-2.1.5-.2,0-.1-.1-.1-.3Z"/>
  </g>
</svg>